<?xml version="1.0" encoding="utf-8"?>
<!-- Generator: Adobe Illustrator 16.0.1, SVG Export Plug-In . SVG Version: 6.00 Build 0)  -->
<!DOCTYPE svg PUBLIC "-//W3C//DTD SVG 1.1//EN" "http://www.w3.org/Graphics/SVG/1.1/DTD/svg11.dtd">
<svg version="1.1" id="Layer_1" xmlns="http://www.w3.org/2000/svg" xmlns:xlink="http://www.w3.org/1999/xlink" x="0px" y="0px"
	 width="1152px" height="1152px" viewBox="0 0 1152 1152" enable-background="new 0 0 1152 1152" xml:space="preserve">
<rect x="144" opacity="0.65" width="144" height="144"/>
<rect x="768" opacity="0.65" width="144" height="144"/>
<path fill="#82AA46" d="M864,576c-159.028,0-288,128.912-288,288c0,159.107,128.972,288,288,288s288-128.893,288-288
	C1152,704.912,1023.028,576,864,576z M792,1020L660,888l60-60l72,72l204-204l60,60L792,1020z"/>
<path opacity="0.65" d="M1008,96c-48,0-48,0-48,0v96H720V96H336v96H96V96c0,0,0,0-48,0S0,144,0,144v864c0,0,0,48,48,48
	c24.118,0,254.25,0,483.368,0c-7.883-13.655-14.948-27.822-21.146-42.477C496.423,980.904,487.309,946.91,482.963,912H336V768h144
	v48h2.963c4.345-34.906,13.46-68.897,27.258-101.516c16.217-38.337,38.309-73.369,65.778-104.457V528h101.998
	c11.811-6.538,23.981-12.488,36.519-17.79C761.916,490.164,812.21,480,864,480s102.084,10.164,149.483,30.21
	c14.669,6.204,28.849,13.274,42.517,21.166V144C1056,144,1056,96,1008,96z M240,912H96V768h144V912z M240,672H96V528h144V672z
	 M240,432H96V288h144V432z M480,672H336V528h144V672z M480,432H336V288h144V432z M720,432H576V288h144V432z M960,432H816V288h144
	V432z"/>
</svg>
