<?xml version="1.0" encoding="utf-8"?>
<!-- Generator: Adobe Illustrator 17.0.0, SVG Export Plug-In . SVG Version: 6.00 Build 0)  -->
<!DOCTYPE svg PUBLIC "-//W3C//DTD SVG 1.1//EN" "http://www.w3.org/Graphics/SVG/1.1/DTD/svg11.dtd">
<svg version="1.1" xmlns="http://www.w3.org/2000/svg" xmlns:xlink="http://www.w3.org/1999/xlink" x="0px" y="0px" width="1152px"
	 height="1152px" viewBox="0 0 1152 1152" enable-background="new 0 0 1152 1152" xml:space="preserve">
<g id="Bkg">
	
		<radialGradient id="SVGID_1_" cx="-65.0778" cy="936.0193" r="0.9889" gradientTransform="matrix(1678.5994 0 0 -1703.6219 109853.9141 1594544.25)" gradientUnits="userSpaceOnUse">
		<stop  offset="0" style="stop-color:#FEFFFF"/>
		<stop  offset="0.22" style="stop-color:#FFFFFF"/>
		<stop  offset="1" style="stop-color:#DAD9D9"/>
	</radialGradient>
	<rect fill="url(#SVGID_1_)" width="1152" height="1104"/>
</g>
<g id="AEM">
	<path fill-rule="evenodd" clip-rule="evenodd" fill="#75C358" d="M576,144c-238.611,0-432,193.423-432,432
		c0,238.582,193.389,432,432,432c238.611,0,432-193.418,432-432C1008,337.423,814.611,144,576,144 M576,175.767
		c220.693,0,400.257,179.565,400.257,400.234c0,220.708-179.565,400.238-400.257,400.238c-220.693,0-400.253-179.53-400.253-400.238
		C175.747,355.332,355.307,175.767,576,175.767"/>
	<path fill-rule="evenodd" clip-rule="evenodd" fill="#1B3120" d="M576.004,287.877c35.635,0,66.513,20.668,81.339,50.613
		c-8.095,4.811-15.704,10.702-22.533,17.525c-15.704,15.709-36.617,24.398-58.806,24.398c-22.238,0-43.101-8.689-58.816-24.398
		c-6.868-6.824-14.428-12.714-22.577-17.525C509.432,308.545,540.364,287.877,576.004,287.877 M666.086,368.534
		c0.393,3.289,0.584,6.627,0.584,9.965c0,58.271,47.378,105.644,105.594,105.644c3.393,0,6.731,0.196,10.02,0.54
		c-2.602,3.583-5.503,6.971-8.689,10.162c-21.359,21.355-33.092,49.734-33.092,79.974c-0.044,30.181,11.732,58.61,33.092,79.964
		c3.186,3.191,6.087,6.578,8.689,10.113c-3.289,0.393-6.627,0.589-10.02,0.589c-58.217,0-105.594,47.373-105.594,105.648
		c0,3.338-0.191,6.671-0.535,9.961c-3.584-2.597-6.971-5.503-10.162-8.635c-21.355-21.413-49.729-33.136-79.969-33.136
		c-30.24,0-58.614,11.723-79.969,33.136c-3.191,3.132-6.578,6.038-10.162,8.635c-0.344-3.289-0.545-6.622-0.545-9.961
		c0-58.276-47.368-105.648-105.644-105.648c-3.334,0-6.672-0.196-9.961-0.589c2.597-3.534,5.493-6.922,8.64-10.064
		c21.399-21.404,33.136-49.773,33.136-80.013c0-30.196-11.738-58.619-33.136-79.974c-3.147-3.191-6.043-6.578-8.64-10.162
		c3.289-0.344,6.627-0.54,9.961-0.54c58.276,0,105.644-47.373,105.644-105.644c0-3.338,0.201-6.676,0.545-9.965
		c3.583,2.602,6.971,5.498,10.162,8.645c21.355,21.399,49.729,33.136,79.969,33.136c30.186,0,58.615-11.782,79.969-33.136
		C659.164,373.983,662.551,371.136,666.086,368.534 M812.278,493.47c29.995,14.776,50.662,45.708,50.662,81.348
		s-20.667,66.513-50.662,81.334c-4.816-8.09-10.653-15.704-17.531-22.533c-15.704-15.704-24.344-36.568-24.344-58.801
		c0-22.238,8.64-43.102,24.344-58.816C801.626,509.13,807.463,501.575,812.278,493.47 M657.343,811.088
		c-14.776,30-45.704,50.662-81.339,50.662c-35.64,0-66.572-20.663-81.393-50.662c8.149-4.757,15.709-10.653,22.577-17.481
		c15.714-15.704,36.627-24.393,58.816-24.393c22.189,0,43.102,8.689,58.806,24.393C641.688,800.436,649.247,806.332,657.343,811.088
		 M339.729,656.153c-29.999-14.776-50.666-45.694-50.666-81.334s20.667-66.572,50.617-81.348
		c4.811,8.105,10.702,15.66,17.521,22.533c15.714,15.714,24.403,36.622,24.403,58.816c0,22.233-8.64,43.097-24.403,58.801
		C350.382,640.498,344.54,648.062,339.729,656.153 M576.004,876.728c41.482,0,77.466-24.01,94.697-58.86
		c13.794,5.788,28.713,8.827,44.083,8.827c30.24,0,58.615-11.723,79.964-33.087c21.409-21.35,33.136-49.773,33.136-80.013
		c0-15.37-3.038-30.289-8.836-44.084c34.859-17.231,58.865-53.215,58.865-94.691c0-41.487-24.005-77.465-58.865-94.75
		c5.798-13.746,8.836-28.669,8.836-44.035c0-30.24-11.777-58.615-33.136-80.018c-21.349-21.354-49.773-33.087-79.964-33.087
		c-15.414,0-30.338,3.044-44.083,8.841c-17.28-34.81-53.264-58.865-94.697-58.865c-41.486,0-77.465,24.005-94.745,58.865
		c-13.745-5.798-28.674-8.841-44.034-8.841c-30.24,0-58.615,11.733-80.023,33.087c-21.35,21.404-33.083,49.778-33.083,80.018
		c0,15.366,2.99,30.343,8.837,44.084c-34.854,17.28-58.86,53.215-58.86,94.701c0,41.477,24.005,77.461,58.86,94.691
		c-5.793,13.795-8.837,28.713-8.837,44.084c0,30.24,11.733,58.615,33.132,80.013c21.36,21.364,49.734,33.087,79.974,33.087
		c15.36,0,30.289-3.039,44.034-8.827C498.538,852.718,534.517,876.728,576.004,876.728 M680.077,789.243
		c1.031-5.896,1.571-11.924,1.571-18.11c0-50.029,40.642-90.676,90.617-90.676c6.191,0,12.273-0.535,18.169-1.571
		c4.958,10.746,7.555,22.533,7.555,34.707c0,22.238-8.635,43.146-24.394,58.865c-15.714,15.704-36.578,24.344-58.811,24.344
		C702.609,796.803,690.823,794.201,680.077,789.243 M790.433,470.741c-5.896-1.026-11.978-1.571-18.169-1.571
		c-49.974,0-90.67-40.647-90.67-90.671c0-6.185-0.54-12.224-1.566-18.115c10.751-4.958,22.582-7.56,34.756-7.56
		c22.233,0,43.097,8.689,58.811,24.354c15.709,15.753,24.349,36.617,24.349,58.855C797.988,448.208,795.391,459.99,790.433,470.741
		 M471.926,360.385c-1.026,5.891-1.566,11.929-1.566,18.115c0,50.024-40.647,90.671-90.676,90.671
		c-6.181,0-12.224,0.545-18.11,1.571c-4.958-10.751-7.565-22.533-7.565-34.707c0-22.238,8.645-43.102,24.354-58.811
		c15.758-15.709,36.622-24.398,58.86-24.398C449.399,352.825,461.175,355.427,471.926,360.385 M361.575,678.886
		c5.886,1.036,11.929,1.571,18.11,1.571c50.029,0,90.676,40.647,90.676,90.676c0,6.185,0.54,12.214,1.566,18.11
		c-10.751,4.958-22.528,7.56-34.702,7.56c-22.239,0-43.102-8.64-58.811-24.344c-15.758-15.719-24.403-36.627-24.403-58.865
		C354.01,701.419,356.617,689.633,361.575,678.886"/>
</g>
</svg>
