<?xml version="1.0" encoding="utf-8"?>
<!-- Generator: Adobe Illustrator 16.0.1, SVG Export Plug-In . SVG Version: 6.00 Build 0)  -->
<!DOCTYPE svg PUBLIC "-//W3C//DTD SVG 1.1//EN" "http://www.w3.org/Graphics/SVG/1.1/DTD/svg11.dtd">
<svg version="1.1" id="Layer_1" xmlns="http://www.w3.org/2000/svg" xmlns:xlink="http://www.w3.org/1999/xlink" x="0px" y="0px"
	 width="1152px" height="1152px" viewBox="0 0 1152 1152" enable-background="new 0 0 1152 1152" xml:space="preserve">
<g>
	<path fill="#3C5A98" d="M1152,1086.172c0,36.192-29.636,65.828-65.828,65.828H65.829C29.636,1152,0,1122.364,0,1086.172V65.829
		C0,29.636,29.636,0,65.829,0h1020.343C1122.364,0,1152,29.636,1152,65.829V1086.172z"/>
	<rect x="82.286" y="905.143" fill="#6D84B3" width="987.429" height="164.572"/>
	<path fill="#FFFFFF" d="M658.285,1069.715V646.2H546.301V493.715h111.984c0,0,0-62.486,0-130.243
		c0-102.343,66.15-196.329,218.572-196.329c61.715,0,107.357,5.914,107.357,5.914l-3.601,142.394c0,0-46.542-0.45-97.329-0.45
		c-54.963,0-63.771,25.328-63.771,67.371c0,33.236,0-70.843,0,111.344h165.472L977.785,646.2H819.515v423.515H658.285z"/>
</g>
</svg>
