<?xml version="1.0" encoding="utf-8"?>
<!-- Generator: Adobe Illustrator 16.0.4, SVG Export Plug-In . SVG Version: 6.00 Build 0)  -->
<!DOCTYPE svg PUBLIC "-//W3C//DTD SVG 1.1//EN" "http://www.w3.org/Graphics/SVG/1.1/DTD/svg11.dtd">
<svg version="1.1" id="Layer_1" xmlns="http://www.w3.org/2000/svg" xmlns:xlink="http://www.w3.org/1999/xlink" x="0px" y="0px"
	 width="1152px" height="1152px" viewBox="0 0 1152 1152" enable-background="new 0 0 1152 1152" xml:space="preserve">
<path fill="#DB493B" d="M1045.21,0H106.036C47.471,0,0,30.316,0,106.105v979.845c0,58.604,47.471,66.05,106.036,66.05h939.174
	c58.565,0,105.79-7.446,105.79-66.05V106.105C1151,30.316,1103.775,0,1045.21,0z"/>
<polygon id="_x2B__3_" fill="#FFFFFF" points="848.286,90.947 939.174,90.947 939.174,303.158 1152,303.158 1152,392.24 
	939.174,392.24 939.174,606.315 848.286,606.315 848.286,392.24 636.215,392.24 636.215,303.158 848.286,303.158 "/>
<linearGradient id="SVGID_1_" gradientUnits="userSpaceOnUse" x1="327.272" y1="1152" x2="327.2719" y2="90.9478">
	<stop  offset="0" style="stop-color:#F1F1F1"/>
	<stop  offset="0.2817" style="stop-color:#F6F6F6"/>
	<stop  offset="1" style="stop-color:#FFFFFF"/>
</linearGradient>
<path fill="url(#SVGID_1_)" d="M481.703,819.429l-60.281-46.924c-18.358-15.144-43.432-35.29-43.432-72.192
	c0-37.007,25.074-60.572,46.805-82.362c70.237-55.332,135.681-114.217,135.681-238.47c0-113.433-61.243-177.129-102.293-212.744
	c13.772,0,102.471,0,102.471,0l93.891-75.789H301.096c-87.693,1.628-192.279,14.803-287.604,93.76
	C9.024,188.556,4.187,193.026,0,197.053v409.263c45.843,38.132,108.136,67.071,184.024,67.071c16.761,0,35.089-1.732,53.521-3.376
	c-8.343,20.177-16.716,36.991-16.716,65.547c0,52.017,26.716,83.871,50.163,114.157C207.072,854.037,75.74,843.157,0,903.788v96.632
	c34.512-46.939,89.645-67.929,113.802-76.766c70.222-23.536,160.547-26.911,175.666-26.911c16.627,0,25,0,38.329,1.732
	c127.16,90.725,218.27,137.397,219.216,223.208c0.178,16.624-4.526,21.789-7.012,30.316h97.9
	c10.089-23.581,13.461-51.47,13.461-82.524C651.362,953.57,555.238,881.601,481.703,819.429z M268.314,606.315
	c-143.832,0-202.871-166.381-202.871-278.852c0-43.757,4.379-89.023,32.811-124.313c26.805-33.587,73.58-55.421,117.101-55.421
	c138.729,0,208.788,188.083,208.788,309.02c0,24.218-12.308,71.571-43.684,107.541C352.945,595.672,310.089,606.315,268.314,606.315
	z"/>
</svg>
