<?xml version="1.0" encoding="utf-8"?>
<!-- Generator: Adobe Illustrator 16.0.4, SVG Export Plug-In . SVG Version: 6.00 Build 0)  -->
<!DOCTYPE svg PUBLIC "-//W3C//DTD SVG 1.1//EN" "http://www.w3.org/Graphics/SVG/1.1/DTD/svg11.dtd">
<svg version="1.1" id="Layer_1" xmlns="http://www.w3.org/2000/svg" xmlns:xlink="http://www.w3.org/1999/xlink" x="0px" y="0px"
	 width="1152px" height="1152px" viewBox="0 0 1152 1152" enable-background="new 0 0 1152 1152" xml:space="preserve">
<path fill="#30618A" d="M1056,0H96C48,0,0,48,0,96v960c0,48,48,96,96,96h960c48,0,96-48,96-96V96C1152,48,1104,0,1056,0z M576,372
	c112.665,0,204,91.334,204,204c0,112.665-91.335,204-204,204c-112.666,0-204-91.335-204-204C372,463.334,463.334,372,576,372z
	 M1008,984c0,13.2-10.8,24-24,24H168c-13.2,0-24-10.8-24-24V480h109.941C244.886,510.421,240,542.638,240,576
	c0,185.567,150.433,336,336,336s336-150.433,336-336c0-33.362-4.886-65.579-13.941-96H1008V984z M1008,336c0,26.4-21.6,48-48,48H816
	c-26.4,0-48-21.6-48-48V192c0-26.4,21.6-48,48-48h144c26.4,0,48,21.6,48,48V336z"/>
</svg>
