<?xml version="1.0" encoding="utf-8"?>
<!-- Generator: Adobe Illustrator 16.0.4, SVG Export Plug-In . SVG Version: 6.00 Build 0)  -->
<!DOCTYPE svg PUBLIC "-//W3C//DTD SVG 1.1//EN" "http://www.w3.org/Graphics/SVG/1.1/DTD/svg11.dtd">
<svg version="1.1" id="Layer_1" xmlns="http://www.w3.org/2000/svg" xmlns:xlink="http://www.w3.org/1999/xlink" x="0px" y="0px"
	 width="1152px" height="1152px" viewBox="0 0 1152 1152" enable-background="new 0 0 1152 1152" xml:space="preserve">
<path opacity="0.65" d="M312,684c0,0-12-12,0-24s324-324,336-336s24,0,24,0l59.998,59.998c0,0,12.002,12.002,0.002,24.002
	S408,732,396,744s-24,0-24,0L312,684z"/>
<path opacity="0.65" d="M480,864c0-38.651,5.663-76.467,16.866-112.868c-61.952,61.951-146.222,146.22-149.723,149.721
	c-24,24-48,36-72,36s-54-18-72-36s-24-24-48-48s-36-48-36-72c-0.001-24,12-48,36-72c4.27-4.27,215.488-215.484,215.488-215.484
	C343.817,483.058,319.454,480,300.005,480c-0.005,0-0.003,0-0.008,0c-39.099,0-98.05,12.348-156.851,71.147L70.29,624
	C11.483,682.807-0.858,741.759-0.856,780.853c0,39.099,12.344,98.049,71.146,156.853l48,48
	c17.916,17.915,39.513,33.805,62.457,45.952c31.579,16.719,63.339,25.195,94.396,25.195c39.099,0,98.049-12.344,156.856-71.151
	l53.949-53.945C481.994,909.545,480,886.92,480,864z"/>
<path opacity="0.65" d="M708.853,155.144c24-24,48-36.001,72-36c24,0,48,12,72,36s30,30,48,48s36,48,36,72s-12,48-36,72
	c-3.501,3.501-87.771,87.772-149.723,149.725C787.533,485.664,825.35,480,864,480c22.918,0,45.543,1.994,67.754,5.951L985.701,432
	c58.808-58.808,71.151-117.758,71.151-156.856c0-31.058-8.477-62.817-25.195-94.396c-12.147-22.944-28.037-44.541-45.952-62.457
	l-48-48C878.901,11.487,819.951-0.856,780.853-0.856C741.759-0.858,682.807,11.483,624,70.29l-72.853,72.856
	C492.348,201.947,480,260.898,480,299.997c0,0.005,0,0.003,0,0.008c0,19.449,3.058,43.812,13.368,70.627
	C493.368,370.632,704.583,159.413,708.853,155.144z"/>
<path fill="#82AA46" d="M864,576c-159.028,0-288,128.912-288,288c0,159.107,128.972,288,288,288s288-128.893,288-288
	C1152,704.912,1023.028,576,864,576z M792,1020L660,888l60-60l72,72l204-204l60,60L792,1020z"/>
</svg>
