<?xml version="1.0" encoding="utf-8"?>
<!-- Generator: Adobe Illustrator 16.0.4, SVG Export Plug-In . SVG Version: 6.00 Build 0)  -->
<!DOCTYPE svg PUBLIC "-//W3C//DTD SVG 1.1//EN" "http://www.w3.org/Graphics/SVG/1.1/DTD/svg11.dtd">
<svg version="1.1" id="Layer_1" xmlns="http://www.w3.org/2000/svg" xmlns:xlink="http://www.w3.org/1999/xlink" x="0px" y="0px"
	 width="1152px" height="1152px" viewBox="0 0 1152 1152" enable-background="new 0 0 1152 1152" xml:space="preserve">
<path fill="#006699" d="M1152,1036.836c0,63.605-51.985,115.164-116.142,115.164H116.142C51.986,1152,0,1100.441,0,1036.836V115.167
	C0,51.562,51.986,0,116.142,0h919.717C1100.015,0,1152,51.562,1152,115.167V1036.836z"/>
<g>
	<path fill="#FFFFFF" d="M374.741,281.677c0,42.314-31.61,76.584-83.608,76.584c-48.937,0-80.547-34.27-80.547-76.584
		c0-43.33,32.625-76.584,82.582-76.584C343.131,205.093,373.727,238.348,374.741,281.677z M214.662,911.512V418.728h154.989v492.784
		H214.662z"/>
	<path fill="#FFFFFF" d="M462.407,575.929c0-61.465-2.035-112.853-4.07-157.201h139.587l2.146,68.527h3.056
		c20.389-32.255,70.358-79.617,153.974-79.617c101.97,0,178.434,67.528,178.434,212.636v291.238H780.55V638.413
		c0-63.483-22.443-106.813-78.524-106.813c-42.825,0-68.305,29.223-79.526,57.433c-4.076,10.075-5.11,24.186-5.11,38.303v284.176
		H462.407V575.929z"/>
</g>
</svg>
