<?xml version="1.0" encoding="utf-8"?>
<!-- Generator: Adobe Illustrator 16.0.0, SVG Export Plug-In . SVG Version: 6.00 Build 0)  -->
<!DOCTYPE svg PUBLIC "-//W3C//DTD SVG 1.1//EN" "http://www.w3.org/Graphics/SVG/1.1/DTD/svg11.dtd">
<svg version="1.1" id="Layer_1" xmlns="http://www.w3.org/2000/svg" xmlns:xlink="http://www.w3.org/1999/xlink" x="0px" y="0px"
	 width="24px" height="24px" viewBox="0 0 24 24" enable-background="new 0 0 24 24" xml:space="preserve">
<path opacity="0.7" fill-rule="evenodd" clip-rule="evenodd" fill="none" stroke="#FFFFFF" stroke-linecap="round" stroke-linejoin="round" stroke-miterlimit="10" d="
	M8.31,11.83c0,2.04,1.65,3.689,3.69,3.689s3.689-1.649,3.689-3.689c0-2.05-1.649-3.7-3.689-3.7S8.31,9.78,8.31,11.83z M4.92,11.83
	c0,3.91,3.17,7.08,7.08,7.08s7.08-3.17,7.08-7.08c0-3.92-3.17-7.09-7.08-7.09S4.92,7.91,4.92,11.83z M2,12.02
	c0,5.53,4.48,10.01,10,10.01c5.52,0,10-4.479,10-10.01C22,6.48,17.52,2,12,2C6.48,2,2,6.48,2,12.02z"/>
<path fill-rule="evenodd" clip-rule="evenodd" fill="#FFFFFF" d="M14.721,22.62c2.85-0.761,5.219-2.591,6.689-5.14l0.17-0.301
	l-1.76-1.02l-0.17,0.3c-1.2,2.08-3.141,3.56-5.461,4.19c-0.76,0.199-1.549,0.31-2.33,0.31c-1.56,0-3.109-0.42-4.479-1.21
	c-1.25-0.73-2.29-1.71-3.06-2.92l-0.19-0.29l-1.71,1.11L2.6,17.93c0.94,1.471,2.24,2.711,3.76,3.59C8.04,22.49,9.94,23,11.85,23
	C12.82,23,13.779,22.87,14.721,22.62z M18.88,15.83l0.16-0.301c0.601-1.149,0.92-2.449,0.92-3.759c0-2.17-0.84-4.2-2.37-5.74
	c-1.529-1.53-3.09-2.37-5.25-2.37H12V5.7h0.34c1.62,0,2.66,0.63,3.811,1.78c1.14,1.14,1.77,2.67,1.77,4.29
	c0,0.98-0.24,1.951-0.689,2.81l-0.16,0.3L18.88,15.83z M7.61,13.8c-0.31-0.64-0.46-1.319-0.46-2.03c0-1.26,0.49-2.45,1.38-3.34
	c0.89-0.89,1.87-1.38,3.13-1.38H12v2.04h-0.34c-0.71,0-1.18,0.28-1.69,0.78c-0.5,0.51-0.78,1.18-0.78,1.9
	c0,0.4,0.09,0.791,0.26,1.15l0.15,0.301L7.75,14.1L7.61,13.8z"/>
</svg>
