<?xml version="1.0" encoding="utf-8"?>
<!-- Generator: Adobe Illustrator 17.0.0, SVG Export Plug-In . SVG Version: 6.00 Build 0)  -->
<!DOCTYPE svg PUBLIC "-//W3C//DTD SVG 1.1//EN" "http://www.w3.org/Graphics/SVG/1.1/DTD/svg11.dtd">
<svg version="1.1" xmlns="http://www.w3.org/2000/svg" xmlns:xlink="http://www.w3.org/1999/xlink" x="0px" y="0px" width="1152px"
	 height="1152px" viewBox="0 0 1152 1152" enable-background="new 0 0 1152 1152" xml:space="preserve">
<g id="Bkg">
	
		<radialGradient id="SVGID_1_" cx="-65.0778" cy="936.0193" r="0.9889" gradientTransform="matrix(1678.5994 0 0 -1703.6219 109853.9141 1594544.25)" gradientUnits="userSpaceOnUse">
		<stop  offset="0" style="stop-color:#FEFFFF"/>
		<stop  offset="0.22" style="stop-color:#FFFFFF"/>
		<stop  offset="1" style="stop-color:#DAD9D9"/>
	</radialGradient>
	<rect fill="url(#SVGID_1_)" width="1152" height="1104"/>
</g>
<g id="AMO">
	<path fill-rule="evenodd" clip-rule="evenodd" fill="#75C358" d="M576,144c-238.611,0-432,193.423-432,432
		c0,238.582,193.389,432,432,432c238.611,0,432-193.418,432-432C1008,337.423,814.611,144,576,144 M576,175.767
		c220.693,0,400.257,179.565,400.257,400.234c0,220.708-179.565,400.238-400.257,400.238c-220.693,0-400.253-179.53-400.253-400.238
		C175.747,355.332,355.307,175.767,576,175.767"/>
	<path fill-rule="evenodd" clip-rule="evenodd" fill="#1B3120" d="M799.556,791.416l-52.571-53.465
		c41.575-43.347,69.316-102.301,69.017-167.253l0.059-14.727l-206.187,0.142l192.731-193.021
		C915.076,483.611,913.692,672.371,799.556,791.416 M595.392,780.469V590.335h185.22
		C773.739,690.922,695.395,771.922,595.392,780.469 M351.994,359.804l52.183,53.116c-40.986,42.414-68.138,100.047-68.28,163.62
		v13.5l215.803,0.294L348.853,788.127C236.434,667.604,237.76,478.8,351.994,359.804 M561.028,372.715v183.399l-188.661-0.142
		C380.717,457.004,462.351,381.208,561.028,372.715 M808.638,345.322l-5.793-5.94L595.392,547.037V340.119h-18.267
		c-60.818,0.295-118.947,23.318-161.013,61.216l-64.064-65.144l-5.94,5.842c-62.203,61.56-97.642,143.738-98.28,231.366
		c-0.643,87.632,33.622,170.051,94.986,232.495l5.847,5.891l212.367-207.409v207.011h18.213
		c60.769-0.285,113.793-23.701,155.819-61.85l64.402,65.487l5.886-5.842C935.346,681.153,937.801,478.015,808.638,345.322"/>
</g>
</svg>
