<?xml version="1.0" encoding="utf-8"?>
<!-- Generator: Adobe Illustrator 16.0.4, SVG Export Plug-In . SVG Version: 6.00 Build 0)  -->
<!DOCTYPE svg PUBLIC "-//W3C//DTD SVG 1.1//EN" "http://www.w3.org/Graphics/SVG/1.1/DTD/svg11.dtd">
<svg version="1.1" id="Layer_1" xmlns="http://www.w3.org/2000/svg" xmlns:xlink="http://www.w3.org/1999/xlink" x="0px" y="0px"
	 width="1152px" height="1152px" viewBox="0 0 1152 1152" enable-background="new 0 0 1152 1152" xml:space="preserve">
<path fill="#A4A4A4" d="M576,0c-79.529,0-144,64.471-144,144s64.471,144,144,144c79.529,0,144-64.471,144-144S655.529,0,576,0z
	 M576,228c-46.392,0-84-37.608-84-84s37.608-84,84-84c46.393,0,84,37.608,84,84S622.393,228,576,228z"/>
<path fill="#F2AB15" d="M672,399.427V624h216L576,936L264,624h216V399.427C229.861,417.625,48,506.564,48,624
	c0,300,229.766,528,528,528c298.233,0,528-228,528-528C1104,506.564,922.138,417.625,672,399.427z"/>
</svg>
