<?xml version="1.0" encoding="utf-8"?>
<!-- Generator: Adobe Illustrator 17.0.0, SVG Export Plug-In . SVG Version: 6.00 Build 0)  -->
<!DOCTYPE svg PUBLIC "-//W3C//DTD SVG 1.1//EN" "http://www.w3.org/Graphics/SVG/1.1/DTD/svg11.dtd">
<svg version="1.1" id="Layer_1" xmlns="http://www.w3.org/2000/svg" xmlns:xlink="http://www.w3.org/1999/xlink" x="0px" y="0px"
	 width="1152px" height="1152px" viewBox="0 0 1152 1152" enable-background="new 0 0 1152 1152" xml:space="preserve">
<path fill="#D52B2A" d="M0,731.252c1.367-9.389,2.632-18.795,4.118-28.165c7.111-44.832,23.438-86.316,44.952-125.803
	c27.736-50.907,62.588-96.469,101.542-138.982c50.422-55.027,106.371-103.168,169.978-141.792
	c37.712-22.9,77.23-41.7,120.424-51.378c23.627-5.293,47.449-7.425,71.358-1.849c36.878,8.6,59.434,37.153,62.361,77.975
	c1.966,27.416-3.223,53.724-10.79,79.753c-0.396,1.362-0.828,2.718-1.143,4.1c-2.265,9.919,3.058,16.522,12.943,14.626
	c8.352-1.602,16.571-4.496,24.5-7.708c38.351-15.537,77.555-27.873,118.69-32.849c32.436-3.924,64.706-4.18,95.501,9.205
	c29.447,12.799,45.771,35.65,48.588,68.144c2.341,26.998-4.885,52.241-14.193,77.062c-0.848,2.262-1.587,4.592-2.098,6.953
	c-2.034,9.395,0.162,14.883,9.052,18.596c11.966,4.997,24.505,8.582,36.465,13.592c34.493,14.447,65.275,34.318,87.904,65.248
	c26.898,36.767,33.17,77.856,23.699,121.949c-8.229,38.312-26.842,71.43-50.523,101.801
	c-35.522,45.556-79.91,80.428-129.345,108.923c-78.824,45.436-164.001,70.416-253.742,80.353
	c-13.501,1.495-27.047,2.555-40.567,3.879c-1.943,0.19-3.853,0.733-5.779,1.113c-25.634,0-51.268,0-76.902,0
	c-4.699-0.702-9.376-1.733-14.1-2.055c-43.749-2.978-86.895-9.883-129.398-20.743c-37.182-9.5-73.384-21.935-108.226-38.338
	c-52.356-24.648-99.965-55.987-137.866-100.943c-25.071-29.737-43.09-63.284-51.29-101.787C3.549,780.095,2.009,767.831,0,755.669
	C0,747.53,0,739.391,0,731.252z M441.97,990.302c11.816-0.859,31.98-1.939,52.057-3.923c12.892-1.274,25.727-3.499,38.465-5.953
	c56.631-10.911,110.13-30.348,159.03-61.763c39.072-25.1,73.018-55.741,95.879-97.213c32.383-58.745,32.483-117.275-3.842-174.497
	c-17.428-27.454-41.146-48.629-68.157-65.996c-54.043-34.748-113.941-51.174-176.945-57.265
	c-33.107-3.201-66.234-2.587-99.367,0.865c-41.108,4.283-81.198,12.996-120.048,27.213
	c-55.841,20.435-106.584,49.443-147.537,93.941c-31.416,34.136-52.849,73.411-55.668,121.113
	c-2.243,37.954,8.928,72.148,30.534,102.888c25.444,36.2,59.83,61.243,98.862,80.084C304.799,978.551,368.17,989.425,441.97,990.302
	z"/>
<path d="M602.675,743.919c-9.578-46.891-37.93-79.708-80.34-100.069c-52.891-25.394-107.202-24.768-161.206-3.807
	c-48.47,18.813-86.056,50.546-107.917,98.65c-26.933,59.265-11.875,125.298,37.751,166.029
	c33.605,27.582,72.985,38.801,116.062,40.08c13.418-1.609,27.031-2.271,40.22-4.991c58.107-11.983,105.004-41.094,136.072-92.67
	C602.478,815.332,610.191,780.721,602.675,743.919z M380.831,874.489c-7.972,2.512-15.858,3.511-23.437,3.511
	c-0.001,0-0.002,0-0.002,0c-7.152,0-14.261-0.856-21.129-3.086c-29.455-9.567-44.756-37.805-36.381-67.531
	c8.621-30.601,40.413-53.681,73.952-53.681c8.684,0,17.035,1.472,24.821,4.519c21.326,8.347,34.579,27.501,34.587,50.092
	C433.251,837.631,411.699,864.762,380.831,874.489z M486.366,759.3c-4.175,12.089-16.942,20.862-30.357,20.86
	c-2.503,0-4.953-0.319-7.283-0.95c-11.911-3.223-17.883-12.142-17.75-26.508l0.008-0.234c0.495-8.506,6.71-16.732,16.628-22.002
	c4.906-2.607,9.853-3.929,14.702-3.929c5.436,0,10.695,1.65,15.632,4.905C486.735,737.238,490.119,748.433,486.366,759.3z"/>
<g>
	<path fill="#E89214" d="M1100.143,524.593c-3.731,0-7.523-0.502-11.292-1.554c-22.288-6.224-35.311-29.338-29.087-51.626
		c5.598-20.044,8.436-40.881,8.436-61.932c0-65.207-23.154-124.037-65.196-165.655c-41.71-41.287-100.124-64.025-164.483-64.025
		c-13.176,0-26.378,1.121-39.241,3.332c-22.809,3.919-44.473-11.391-48.393-34.197c-3.92-22.807,11.39-44.473,34.197-48.393
		C802.62,97.529,820.599,96,838.519,96c86.582,0,165.934,31.348,223.437,88.269c58.065,57.478,90.043,137.46,90.043,225.211
		c0,28.669-3.877,57.089-11.523,84.471C1135.305,512.47,1118.473,524.592,1100.143,524.593z"/>
</g>
<g>
	<path fill="#E89214" d="M966.43,460.284c-2.75,0-5.54-0.293-8.337-0.904c-20.993-4.583-34.296-25.318-29.713-46.311
		c1.197-5.484,1.805-11.15,1.805-16.84c0-43.237-35.176-78.414-78.414-78.414c-4.044,0-8.1,0.308-12.053,0.915
		c-21.235,3.257-41.1-11.313-44.362-32.552c-3.261-21.239,11.313-41.101,32.552-44.362c7.848-1.205,15.877-1.816,23.863-1.816
		C937.916,240,1008,310.084,1008,396.229c0,11.261-1.21,22.512-3.596,33.439C1000.432,447.864,984.322,460.283,966.43,460.284z"/>
</g>
</svg>
