<?xml version="1.0" encoding="utf-8"?>
<!-- Generator: Adobe Illustrator 17.0.0, SVG Export Plug-In . SVG Version: 6.00 Build 0)  -->
<!DOCTYPE svg PUBLIC "-//W3C//DTD SVG 1.1//EN" "http://www.w3.org/Graphics/SVG/1.1/DTD/svg11.dtd">
<svg version="1.1" xmlns="http://www.w3.org/2000/svg" xmlns:xlink="http://www.w3.org/1999/xlink" x="0px" y="0px" width="1152px"
	 height="1152px" viewBox="0 0 1152 1152" enable-background="new 0 0 1152 1152" xml:space="preserve">
<g id="Bkg">
	
		<radialGradient id="SVGID_1_" cx="-65.0778" cy="936.0193" r="0.9889" gradientTransform="matrix(1678.5994 0 0 -1703.6219 109853.9141 1594544.25)" gradientUnits="userSpaceOnUse">
		<stop  offset="0" style="stop-color:#FEFFFF"/>
		<stop  offset="0.22" style="stop-color:#FFFFFF"/>
		<stop  offset="1" style="stop-color:#DAD9D9"/>
	</radialGradient>
	<rect fill="url(#SVGID_1_)" width="1152" height="1104"/>
</g>
<g id="Social">
	<path fill-rule="evenodd" clip-rule="evenodd" fill="#75C358" d="M576,144c-238.611,0-432,193.423-432,432
		c0,238.582,193.389,432,432,432c238.611,0,432-193.418,432-432C1008,337.423,814.611,144,576,144 M576,175.767
		c220.693,0,400.257,179.565,400.257,400.233c0,220.708-179.565,400.238-400.257,400.238c-220.693,0-400.253-179.53-400.253-400.238
		C175.747,355.332,355.307,175.767,576,175.767"/>
	<path fill-rule="evenodd" clip-rule="evenodd" fill="#1B3120" d="M385.869,727.099c0.299-2.062,0.496-4.173,0.496-6.279
		c0-4.86-0.791-9.475-2.229-13.849l255.209-130.778c7.256,9.921,18.512,16.74,31.398,18.016l10.716,190.669
		c-13.431,2.901-24.59,11.885-30.461,23.912L385.869,727.099z M545.243,336.876c7.997,11.733,21.428,19.396,36.637,19.396
		c3.26,0,6.46-0.393,9.523-1.036l61.368,156.458c-7.108,4.124-12.935,10.162-16.789,17.422L374.47,438.74
		c0.447-2.553,0.736-5.101,0.736-7.756c0-4.364-0.643-8.537-1.826-12.513L545.243,336.876z M758.282,383.37
		c-0.55,2.749-0.844,5.596-0.844,8.493c0,11.536,4.438,21.993,11.659,29.847l-71.844,89.689c-6.51-3.682-14.021-5.842-22.017-5.842
		c-3.304,0-6.465,0.393-9.529,1.026l-61.32-156.448c6.814-4.025,12.538-9.818,16.391-16.789L758.282,383.37z M836.086,614.141
		c-7.054,2.504-13.323,6.73-18.262,12.229l-100.916-60.927c1.772-4.811,2.808-10.01,2.808-15.414
		c0-11.536-4.438-21.988-11.649-29.896l71.835-89.689c6.519,3.682,14.021,5.842,22.022,5.842l1.183-0.049L836.086,614.141z
		 M347.161,676.688l-7.805-202.063c13.284-2.646,24.447-11.139,30.623-22.724l261.517,90.322c-0.451,2.558-0.741,5.16-0.741,7.806
		c0,4.86,0.791,9.479,2.219,13.843L377.779,694.606C370.661,684.881,359.703,678.161,347.161,676.688 M695.338,784.099
		l-10.721-190.674c9.332-1.959,17.525-6.917,23.652-13.741l100.966,60.922c-1.787,4.811-2.823,10.01-2.823,15.41
		c0,10.363,3.608,19.882,9.533,27.447L715.671,791.408C709.746,787.437,702.834,784.83,695.338,784.099 M850.902,611.544
		l-1.129,0.049L816.73,433.688c17.29-6.092,29.685-22.489,29.685-41.825c0-24.594-19.956-44.481-44.491-44.481
		c-16.74,0-31.305,9.234-38.904,22.926l-137.499-50.019c0.54-2.754,0.839-5.601,0.839-8.497c0-24.545-19.897-44.476-44.481-44.476
		c-24.541,0-44.437,19.931-44.437,44.476c0,4.374,0.638,8.547,1.821,12.523l-171.857,81.584
		c-8.002-11.733-21.428-19.386-36.637-19.386c-24.58,0-44.481,19.926-44.481,44.472c0,22.778,17.133,41.536,39.199,44.133
		l7.752,202.058c-20.436,4.026-35.841,21.998-35.841,43.647c0,24.545,19.897,44.422,44.481,44.422
		c17.525,0,32.636-10.157,39.896-24.884L646.9,822.041c-0.299,2.062-0.501,4.124-0.501,6.289c0,24.545,19.901,44.472,44.491,44.472
		c24.531,0,44.437-19.926,44.437-44.472c0-10.363-3.559-19.887-9.529-27.442l100.317-107.951c7.06,4.757,15.601,7.555,24.786,7.555
		c24.584,0,44.491-19.931,44.491-44.476C895.393,631.47,875.487,611.544,850.902,611.544"/>
</g>
</svg>
