<?xml version="1.0" encoding="utf-8"?>
<!-- Generator: Adobe Illustrator 17.0.0, SVG Export Plug-In . SVG Version: 6.00 Build 0)  -->
<!DOCTYPE svg PUBLIC "-//W3C//DTD SVG 1.1//EN" "http://www.w3.org/Graphics/SVG/1.1/DTD/svg11.dtd">
<svg version="1.1" id="Layer_1" xmlns="http://www.w3.org/2000/svg" xmlns:xlink="http://www.w3.org/1999/xlink" x="0px" y="0px"
	 width="1152px" height="1152px" viewBox="0 0 1152 1152" enable-background="new 0 0 1152 1152" xml:space="preserve">
<path fill="#FFFFFF" d="M96,1104h960c26.39,0,48-21.609,48-48V96c0-26.39-21.61-48-48-48H96c-26.391,0-48,21.61-48,48v960
	C48,1082.391,69.609,1104,96,1104z M672,480v192H480V480H672z M768,384V192h192v192H768z M480,384V192h192v192H480z M192,384V192
	h192v192H192z M768,960V480h192v480H768z M480,960V768h192v192H480z M192,960V480h192v480H192z"/>
<rect x="192" y="192" opacity="0.25" fill="#FFFFFF" width="192" height="192"/>
<rect x="480" y="192" opacity="0.25" fill="#FFFFFF" width="192" height="192"/>
<rect x="768" y="192" opacity="0.25" fill="#FFFFFF" width="192" height="192"/>
<rect x="192" y="480" opacity="0.25" fill="#FFFFFF" width="192" height="480"/>
<rect x="768" y="480" opacity="0.25" fill="#FFFFFF" width="192" height="480"/>
</svg>
