<?xml version="1.0" encoding="utf-8"?>
<!-- Generator: Adobe Illustrator 16.0.4, SVG Export Plug-In . SVG Version: 6.00 Build 0)  -->
<!DOCTYPE svg PUBLIC "-//W3C//DTD SVG 1.1//EN" "http://www.w3.org/Graphics/SVG/1.1/DTD/svg11.dtd">
<svg version="1.1" id="Layer_1" xmlns="http://www.w3.org/2000/svg" xmlns:xlink="http://www.w3.org/1999/xlink" x="0px" y="0px"
	 width="1152px" height="1152px" viewBox="0 0 1152 1152" enable-background="new 0 0 1152 1152" xml:space="preserve">
<rect x="144" y="816" opacity="0.2" fill="#3287D2" width="192" height="192"/>
<rect x="432" y="816" opacity="0.2" fill="#3287D2" width="192" height="192"/>
<rect x="720" y="816" opacity="0.2" fill="#3287D2" width="192" height="192"/>
<rect x="144" y="528" opacity="0.2" fill="#3287D2" width="192" height="192"/>
<rect x="432" y="528" opacity="0.2" fill="#3287D2" width="192" height="192"/>
<path fill="#3287D2" d="M912,576v144H720V528h19.828c-0.047,0-0.047-0.047-0.094-0.047C699,503.484,663.844,470.812,636.656,432H144
	V240h432c0-51.562,12-100.312,32.906-144H48c-26.391,0-48,21.609-48,48v960c0,26.391,21.609,48,48,48h960c26.391,0,48-21.609,48-48
	V543.094C1012.312,564,963.562,576,912,576z M144,720V528h192v192H144z M432,720V528h192v192H432z M912,816v192H720V816H912z
	 M624,816v192H432V816H624z M336,816v192H144V816H336z"/>
<path fill="#3287D2" d="M912,480c132.562,0,240-107.438,240-240S1044.562,0,912,0S672,107.438,672,240S779.438,480,912,480z
	 M864,384v-96h-96v-96h96V96h96v96h96v96h-96v96H864z"/>
<path opacity="0.2" fill="#3287D2" d="M720,528v192h192V576c-63,0-121.734-17.719-172.172-48H720z"/>
</svg>
