<?xml version="1.0" encoding="utf-8"?>
<!-- Generator: Adobe Illustrator 17.0.0, SVG Export Plug-In . SVG Version: 6.00 Build 0)  -->
<!DOCTYPE svg PUBLIC "-//W3C//DTD SVG 1.1//EN" "http://www.w3.org/Graphics/SVG/1.1/DTD/svg11.dtd">
<svg version="1.1" id="Layer_1" xmlns="http://www.w3.org/2000/svg" xmlns:xlink="http://www.w3.org/1999/xlink" x="0px" y="0px"
	 width="1152px" height="1152px" viewBox="0 0 1152 1152" enable-background="new 0 0 1152 1152" xml:space="preserve">
<path fill="#FFFFFF" d="M912,912v48H720V851.343C658.545,808.359,612.096,745.498,590.155,672H144V480h446.155
	c21.941-73.502,68.39-136.358,129.845-179.342V192h192v48c51.561,0,100.31,12,144,32.904V96c0-26.39-21.61-48-48-48H48
	C21.609,48,0,69.61,0,96v960c0,26.391,21.609,48,48,48h960c26.39,0,48-21.609,48-48V879.096C1012.31,900,963.561,912,912,912z
	 M432,192h192v192H432V192z M144,192h192v192H144V192z M336,960H144V768h192V960z M624,960H432V768h192V960z"/>
<rect x="144" y="192" opacity="0.25" fill="#FFFFFF" width="192" height="192"/>
<rect x="432" y="192" opacity="0.25" fill="#FFFFFF" width="192" height="192"/>
<rect x="144" y="768" opacity="0.25" fill="#FFFFFF" width="192" height="192"/>
<rect x="432" y="768" opacity="0.25" fill="#FFFFFF" width="192" height="192"/>
<path opacity="0.25" fill="#FFFFFF" d="M720,960h192v-48c-71.391,0-137.53-22.545-192-60.657V960z"/>
<path opacity="0.25" fill="#FFFFFF" d="M720,300.658C774.47,262.546,840.609,240,912,240v-48H720V300.658z"/>
<path fill="#FFFFFF" d="M912,336c-132.562,0-240,107.439-240,240c0,132.562,107.438,240,240,240c132.561,0,240-107.438,240-240
	C1152,443.439,1044.561,336,912,336z M1072.968,672L1008,736.968l-96-96l-96,96L751.032,672l96-96l-96-96L816,415.032l96,96l96-96
	L1072.968,480l-96,96L1072.968,672z"/>
</svg>
