<?xml version="1.0" encoding="utf-8"?>
<!-- Generator: Adobe Illustrator 17.0.0, SVG Export Plug-In . SVG Version: 6.00 Build 0)  -->
<!DOCTYPE svg PUBLIC "-//W3C//DTD SVG 1.1//EN" "http://www.w3.org/Graphics/SVG/1.1/DTD/svg11.dtd">
<svg version="1.1" id="Layer_1" xmlns="http://www.w3.org/2000/svg" xmlns:xlink="http://www.w3.org/1999/xlink" x="0px" y="0px"
	 width="1152px" height="1152px" viewBox="0 0 1152 1152" enable-background="new 0 0 1152 1152" xml:space="preserve">
<rect x="816" y="144" opacity="0.2" width="192" height="192"/>
<rect x="816" y="432" opacity="0.2" width="192" height="192"/>
<rect x="816" y="720" opacity="0.2" width="192" height="192"/>
<rect x="528" y="144" opacity="0.2" width="192" height="192"/>
<rect x="528" y="432" opacity="0.2" width="192" height="192"/>
<path d="M1104,0H144c-26.391,0-48,21.61-48,48v560.368c4.345-2.06,8.734-4.046,13.182-5.927
	c36.86-15.589,75.718-24.332,115.712-26.092c1.966-0.09,3.937-0.164,5.912-0.219c0.614-0.016,1.228-0.027,1.843-0.04
	c2.445-0.054,4.894-0.09,7.352-0.09V144h192v492.218c16.203,11.299,31.441,24.038,45.593,38.189
	c19.512,19.512,36.365,41.072,50.407,64.416V720h192v192H576c0,2.464-0.036,4.92-0.091,7.371c-0.013,0.603-0.023,1.206-0.039,1.809
	c-0.055,1.994-0.13,3.984-0.221,5.969c-0.059,1.346-0.13,2.69-0.205,4.033c-0.001,0.023-0.003,0.047-0.004,0.07
	c-2.166,38.534-10.831,75.983-25.88,111.566c-1.881,4.448-3.867,8.836-5.927,13.182H1104c26.39,0,48-21.609,48-48V48
	C1152,21.61,1130.39,0,1104,0z M720,624H528V432h192V624z M720,336H528V144h192V336z M1008,912H816V720h192V912z M1008,624H816V432
	h192V624z M1008,336H816V144h192V336z"/>
<path d="M240,672C107.438,672,0,779.439,0,912c0,132.562,107.438,240,240,240c132.561,0,240-107.438,240-240
	C480,779.439,372.561,672,240,672z M384,960h-96v96h-96v-96H96v-96h96v-96h96v96h96V960z"/>
<path opacity="0.2" d="M528,720h192v192H576c0-62.976-17.717-121.732-48-172.171V720z"/>
</svg>
