<?xml version="1.0" encoding="utf-8"?>
<!-- Generator: Adobe Illustrator 16.0.4, SVG Export Plug-In . SVG Version: 6.00 Build 0)  -->
<!DOCTYPE svg PUBLIC "-//W3C//DTD SVG 1.1//EN" "http://www.w3.org/Graphics/SVG/1.1/DTD/svg11.dtd">
<svg version="1.1" id="Layer_1" xmlns="http://www.w3.org/2000/svg" xmlns:xlink="http://www.w3.org/1999/xlink" x="0px" y="0px"
	 width="1152px" height="1152px" viewBox="0 0 1152 1152" enable-background="new 0 0 1152 1152" xml:space="preserve">
<path opacity="0.8" enable-background="new    " d="M1104,1056V96c0-26.391-21.609-48-48-48H96c-26.391,0-48,21.609-48,48v960
	c0,26.391,21.609,48,48,48h960C1082.391,1104,1104,1082.391,1104,1056z M960,480v192H768V480H960z M192,384V192h192v192H192z
	 M480,384V192h192v192H480z M768,384V192h192v192H768z M192,672V480h192v192H192z M192,960V768h192v192H192z M480,960V480h192v480
	H480z M768,960V768h192v192H768z"/>
<rect x="768" y="192" opacity="0.25" enable-background="new    " width="192" height="192"/>
<rect x="768" y="480" opacity="0.25" enable-background="new    " width="192" height="192"/>
<rect x="768" y="768" opacity="0.25" enable-background="new    " width="192" height="192"/>
<rect x="192" y="192" opacity="0.25" enable-background="new    " width="192" height="192"/>
<rect x="480" y="192" opacity="0.25" enable-background="new    " width="192" height="192"/>
<rect x="192" y="480" opacity="0.25" enable-background="new    " width="192" height="192"/>
<rect x="192" y="768" opacity="0.25" enable-background="new    " width="192" height="192"/>
</svg>
