<?xml version="1.0" encoding="utf-8"?>
<!-- Generator: Adobe Illustrator 17.0.0, SVG Export Plug-In . SVG Version: 6.00 Build 0)  -->
<!DOCTYPE svg PUBLIC "-//W3C//DTD SVG 1.1//EN" "http://www.w3.org/Graphics/SVG/1.1/DTD/svg11.dtd">
<svg version="1.1" id="Layer_1" xmlns="http://www.w3.org/2000/svg" xmlns:xlink="http://www.w3.org/1999/xlink" x="0px" y="0px"
	 width="1152px" height="1152px" viewBox="0 0 1152 1152" enable-background="new 0 0 1152 1152" xml:space="preserve">
<rect x="144" y="144" opacity="0.25" fill="#FFFFFF" width="192" height="192"/>
<rect x="432" y="144" opacity="0.25" fill="#FFFFFF" width="192" height="192"/>
<rect x="720" y="144" opacity="0.25" fill="#FFFFFF" width="192" height="192"/>
<rect x="144" y="432" opacity="0.25" fill="#FFFFFF" width="192" height="192"/>
<rect x="432" y="432" opacity="0.25" fill="#FFFFFF" width="192" height="192"/>
<path fill="#FFFFFF" d="M672,912c0,132.562,107.438,240,240,240c132.561,0,240-107.438,240-240c0-132.561-107.439-240-240-240
	C779.438,672,672,779.439,672,912z M960,768v96h96v96h-96v96h-96v-96h-96v-96h96v-96H960z"/>
<path opacity="0.25" fill="#FFFFFF" d="M720,624V432h192v144c-63,0-121.733,17.717-172.172,48H720z"/>
<path fill="#FFFFFF" d="M602.44,1042.818c-15.044-35.575-23.709-73.013-25.878-111.535c-0.002-0.037-0.005-0.074-0.007-0.111
	c-0.075-1.338-0.145-2.677-0.204-4.018c-0.091-1.987-0.166-3.979-0.221-5.976c-0.016-0.602-0.026-1.205-0.039-1.807
	C576.036,916.92,576,914.464,576,912H144V720h492.218c11.299-16.203,24.038-31.442,38.189-45.593
	c19.512-19.512,41.072-36.365,64.416-50.407H720V432h192v144c2.464,0,4.92,0.036,7.371,0.091c0.603,0.013,1.206,0.023,1.808,0.039
	c1.996,0.055,3.988,0.13,5.975,0.221c1.341,0.059,2.681,0.129,4.02,0.204c0.035,0.002,0.07,0.004,0.105,0.006
	c38.524,2.169,75.963,10.834,111.54,25.879c4.448,1.881,8.836,3.867,13.182,5.927V48c0-26.39-21.61-48-48-48H48
	C21.609,0,0,21.61,0,48v960c0,26.391,21.609,48,48,48h560.368C606.307,1051.655,604.322,1047.266,602.44,1042.818z M720,144h192v192
	H720V144z M432,144h192v192H432V144z M432,432h192v192H432V432z M144,144h192v192H144V144z M144,432h192v192H144V432z"/>
</svg>
