<?xml version="1.0" encoding="utf-8"?>
<!-- Generator: Adobe Illustrator 16.0.4, SVG Export Plug-In . SVG Version: 6.00 Build 0)  -->
<!DOCTYPE svg PUBLIC "-//W3C//DTD SVG 1.1//EN" "http://www.w3.org/Graphics/SVG/1.1/DTD/svg11.dtd">
<svg version="1.1" id="Layer_1" xmlns="http://www.w3.org/2000/svg" xmlns:xlink="http://www.w3.org/1999/xlink" x="0px" y="0px"
	 width="1152px" height="1152px" viewBox="0 0 1152 1152" enable-background="new 0 0 1152 1152" xml:space="preserve">
<rect x="144" y="144" opacity="0.2" fill="#3287D2" width="192" height="192"/>
<rect x="144" y="432" opacity="0.2" fill="#3287D2" width="192" height="192"/>
<rect x="144" y="720" opacity="0.2" fill="#3287D2" width="192" height="192"/>
<rect x="432" y="144" opacity="0.2" fill="#3287D2" width="192" height="192"/>
<rect x="432" y="432" opacity="0.2" fill="#3287D2" width="192" height="192"/>
<path fill="#3287D2" d="M576,912H432V720h192v19.828c0-0.047,0.047-0.047,0.047-0.094C648.516,699,681.188,663.844,720,636.656V144
	h192v432c51.562,0,100.312,12,144,32.906V48c0-26.391-21.609-48-48-48H48C21.609,0,0,21.609,0,48v960c0,26.391,21.609,48,48,48
	h560.906C588,1012.312,576,963.562,576,912z M432,144h192v192H432V144z M432,432h192v192H432V432z M336,912H144V720h192V912z
	 M336,624H144V432h192V624z M336,336H144V144h192V336z"/>
<path fill="#3287D2" d="M672,912c0,132.562,107.438,240,240,240s240-107.438,240-240s-107.438-240-240-240S672,779.438,672,912z
	 M768,864h96v-96h96v96h96v96h-96v96h-96v-96h-96V864z"/>
<path opacity="0.2" fill="#3287D2" d="M624,720H432v192h144c0-63,17.719-121.734,48-172.172V720z"/>
</svg>
