<?xml version="1.0" encoding="utf-8"?>
<!-- Generator: Adobe Illustrator 16.0.4, SVG Export Plug-In . SVG Version: 6.00 Build 0)  -->
<!DOCTYPE svg PUBLIC "-//W3C//DTD SVG 1.1//EN" "http://www.w3.org/Graphics/SVG/1.1/DTD/svg11.dtd">
<svg version="1.1" id="Layer_1" xmlns="http://www.w3.org/2000/svg" xmlns:xlink="http://www.w3.org/1999/xlink" x="0px" y="0px"
	 width="1152px" height="1152px" viewBox="0 0 1152 1152" enable-background="new 0 0 1152 1152" xml:space="preserve">
<rect x="816" y="144" opacity="0.15" fill="#FFFFFF" width="192" height="192"/>
<rect x="816" y="432" opacity="0.15" fill="#FFFFFF" width="192" height="192"/>
<rect x="816" y="720" opacity="0.15" fill="#FFFFFF" width="192" height="192"/>
<rect x="528" y="144" opacity="0.15" fill="#FFFFFF" width="192" height="192"/>
<rect x="528" y="432" opacity="0.15" fill="#FFFFFF" width="192" height="192"/>
<path opacity="0.8" fill="#FFFFFF" d="M543.094,1056H1104c26.391,0,48-21.609,48-48V48c0-26.391-21.609-48-48-48H144
	c-26.391,0-48,21.609-48,48v560.906C139.688,588,188.438,576,240,576V144h192v492.656c38.812,27.188,71.484,62.344,95.953,103.078
	c0,0.047,0.047,0.047,0.047,0.094V720h192v192H576C576,963.562,564,1012.312,543.094,1056z M720,336H528V144h192V336z M720,624H528
	V432h192V624z M816,720h192v192H816V720z M816,432h192v192H816V432z M816,144h192v192H816V144z"/>
<path opacity="0.8" fill="#FFFFFF" d="M240,672C107.438,672,0,779.438,0,912s107.438,240,240,240c132.562,0,240-107.438,240-240
	S372.562,672,240,672z M384,960h-96v96h-96v-96H96v-96h96v-96h96v96h96V960z"/>
<path opacity="0.15" fill="#FFFFFF" d="M528,720h192v192H576c0-63-17.719-121.734-48-172.172V720z"/>
</svg>
