<?xml version="1.0" encoding="utf-8"?>
<!-- Generator: Adobe Illustrator 16.0.4, SVG Export Plug-In . SVG Version: 6.00 Build 0)  -->
<!DOCTYPE svg PUBLIC "-//W3C//DTD SVG 1.1//EN" "http://www.w3.org/Graphics/SVG/1.1/DTD/svg11.dtd">
<svg version="1.1" id="Layer_1" xmlns="http://www.w3.org/2000/svg" xmlns:xlink="http://www.w3.org/1999/xlink" x="0px" y="0px"
	 width="1152px" height="1152px" viewBox="0 0 1152 1152" enable-background="new 0 0 1152 1152" xml:space="preserve">
<path opacity="0.8" fill="#FFFFFF" d="M1056,48H96c-26.391,0-48,21.609-48,48v960c0,26.391,21.609,48,48,48h960
	c26.391,0,48-21.609,48-48V96C1104,69.609,1082.391,48,1056,48z M480,192h192v192H480V192z M384,960H192V768h192V960z M384,672H192
	V480h192V672z M384,384H192V192h192V384z M672,960H480V768h192V960z M960,960H768V768h192V960z M960,672H480V480h480V672z M960,384
	H768V192h192V384z"/>
<rect x="192" y="192" opacity="0.15" fill="#FFFFFF" width="192" height="192"/>
<rect x="480" y="192" opacity="0.15" fill="#FFFFFF" width="192" height="192"/>
<rect x="768" y="192" opacity="0.15" fill="#FFFFFF" width="192" height="192"/>
<rect x="192" y="768" opacity="0.15" fill="#FFFFFF" width="192" height="192"/>
<rect x="192" y="480" opacity="0.15" fill="#FFFFFF" width="192" height="192"/>
<rect x="480" y="768" opacity="0.15" fill="#FFFFFF" width="192" height="192"/>
<rect x="768" y="768" opacity="0.15" fill="#FFFFFF" width="192" height="192"/>
</svg>
