<?xml version="1.0" encoding="utf-8"?>
<!-- Generator: Adobe Illustrator 17.0.0, SVG Export Plug-In . SVG Version: 6.00 Build 0)  -->
<!DOCTYPE svg PUBLIC "-//W3C//DTD SVG 1.1//EN" "http://www.w3.org/Graphics/SVG/1.1/DTD/svg11.dtd">
<svg version="1.1" xmlns="http://www.w3.org/2000/svg" xmlns:xlink="http://www.w3.org/1999/xlink" x="0px" y="0px" width="1152px"
	 height="1152px" viewBox="0 0 1152 1152" enable-background="new 0 0 1152 1152" xml:space="preserve">
<g id="Bkg">
	
		<radialGradient id="SVGID_1_" cx="-65.0778" cy="936.0193" r="0.9889" gradientTransform="matrix(1678.5994 0 0 -1703.6219 109853.9141 1594544.25)" gradientUnits="userSpaceOnUse">
		<stop  offset="0" style="stop-color:#FEFFFF"/>
		<stop  offset="0.22" style="stop-color:#FFFFFF"/>
		<stop  offset="1" style="stop-color:#DAD9D9"/>
	</radialGradient>
	<rect fill="url(#SVGID_1_)" width="1152" height="1104"/>
</g>
<g id="Target">
	<path fill-rule="evenodd" clip-rule="evenodd" fill="#75C358" d="M576,144c-238.611,0-432,193.423-432,432
		c0,238.582,193.389,432,432,432c238.611,0,432-193.418,432-432C1008,337.423,814.611,144,576,144 M576,175.767
		c220.693,0,400.257,179.565,400.257,400.234c0,220.708-179.565,400.238-400.257,400.238c-220.693,0-400.253-179.53-400.253-400.238
		C175.747,355.332,355.307,175.767,576,175.767"/>
	<path fill-rule="evenodd" clip-rule="evenodd" fill="#1B3120" d="M375.192,489.403c23.416,0,45.453,9.131,62.002,25.724
		c16.544,16.593,25.675,38.684,25.675,62.149c0,23.51-9.131,45.601-25.675,62.198c-16.548,16.647-38.585,25.773-62.002,25.773
		c-23.416,0-45.458-9.126-61.997-25.773c-16.548-16.598-25.679-38.688-25.679-62.198c0-23.465,9.131-45.556,25.679-62.149
		C329.783,498.534,351.776,489.403,375.192,489.403 M580.097,283.908c23.411,0,45.409,9.131,61.953,25.773
		c34.216,34.266,34.216,90.033,0.054,124.347c-16.598,16.593-38.595,25.724-62.007,25.724c-23.466,0-45.458-9.131-62.002-25.724
		c-34.168-34.315-34.168-90.082,0-124.347C534.639,293.039,556.632,283.908,580.097,283.908 M571.899,686.694
		c23.411,0,45.458,9.141,62.051,25.729c16.544,16.593,25.675,38.684,25.675,62.198c0,23.47-9.131,45.561-25.675,62.149
		c-16.593,16.598-38.639,25.773-62.051,25.773c-23.416,0-45.409-9.175-61.953-25.773c-34.216-34.261-34.216-90.082,0-124.347
		C526.49,695.835,548.483,686.694,571.899,686.694 M776.804,497.846c18.944,0,36.818,7.462,50.269,20.913
		c13.402,13.451,20.766,31.32,20.766,50.367c0,19.047-7.364,36.916-20.766,50.416c-13.451,13.451-31.276,20.815-50.269,20.815
		c-18.998,0-36.818-7.364-50.22-20.815c-13.456-13.5-20.819-31.369-20.819-50.416c0-19.047,7.364-36.916,20.819-50.416
		C739.987,505.308,757.807,497.846,776.804,497.846 M375.192,472.712c-26.705,0-53.406,10.211-73.735,30.633
		c-40.75,40.844-40.75,107.067,0,147.916c20.329,20.422,47.029,30.633,73.735,30.633c26.705,0,53.366-10.211,73.734-30.633
		c38.733-38.787,40.647-100.543,5.793-141.632l58.86-58.222c17.378,14.875,38.438,23.122,59.94,24.742v193.865h-0.392
		c-26.705,0-54.589,10.211-74.962,30.633c-40.701,40.839-40.701,107.062,0,147.906c20.373,20.422,47.078,30.682,73.734,30.682
		c26.701,0,53.411-10.26,73.784-30.682c36.082-36.175,40.21-92.34,12.322-133.081l59.547-60.234
		c17.771,12.322,38.532,18.507,59.253,18.507c26.705,0,53.357-10.211,73.735-30.638c40.745-40.844,40.745-107.116,0-147.96
		c-20.378-20.373-47.029-30.633-73.735-30.633c-26.7,0-53.416,10.211-73.729,30.633c-40.75,40.844-40.75,107.116,0,147.96
		l1.856,1.816l-57.481,57.535l-2.945-1.811c-15.901-15.955-35.64-25.675-56.258-29.165v-195.48
		c23.46-2.111,46.391-12.175,64.353-30.191c40.701-40.844,41.978-107.116,1.227-147.911c-20.368-20.471-47.078-30.682-73.729-30.682
		c-26.706,0-53.411,10.211-73.784,30.633c-38.684,38.831-40.598,100.538-5.792,141.627l-57.829,58.075
		C423.301,481.008,399.246,472.712,375.192,472.712 M823.048,567.212c0,24.595-16.053,46.396-44.771,46.98
		c-30.392,0.594-46.975-20.176-46.975-44.771c0-24.643,20.761-47.422,45.306-47.422
		C801.154,521.999,823.048,542.568,823.048,567.212"/>
</g>
</svg>
