<?xml version="1.0" encoding="utf-8"?>
<!-- Generator: Adobe Illustrator 16.0.4, SVG Export Plug-In . SVG Version: 6.00 Build 0)  -->
<!DOCTYPE svg PUBLIC "-//W3C//DTD SVG 1.1//EN" "http://www.w3.org/Graphics/SVG/1.1/DTD/svg11.dtd">
<svg version="1.1" id="Layer_1" xmlns="http://www.w3.org/2000/svg" xmlns:xlink="http://www.w3.org/1999/xlink" x="0px" y="0px"
	 width="1152px" height="1152px" viewBox="0 0 1152 1152" enable-background="new 0 0 1152 1152" xml:space="preserve">
<path fill="#464342" d="M575.996,0C258.394,0,0,258.385,0,575.983c0,317.611,258.394,576.022,575.996,576.022
	c317.599,0,576.004-258.411,576.004-576.022C1152,258.385,893.595,0,575.996,0z M58.131,575.983
	c0-75.083,16.107-146.357,44.843-210.759l247.033,676.83C177.242,958.125,58.131,780.963,58.131,575.983z M575.996,1093.887
	c-50.831,0-99.896-7.452-146.304-21.102l155.396-451.501l159.173,436.108c1.048,2.56,2.333,4.917,3.708,7.137
	C694.142,1083.477,636.303,1093.887,575.996,1093.887z M647.368,333.18c31.172-1.64,59.268-4.923,59.268-4.923
	c27.905-3.301,24.613-44.312-3.304-42.679c0,0-83.881,6.583-138.03,6.583c-50.884,0-136.391-6.583-136.391-6.583
	c-27.925-1.634-31.199,41.03-3.286,42.679c0,0,26.417,3.283,54.319,4.923l80.679,221.066L447.278,894.137L258.703,333.18
	c31.199-1.64,59.265-4.923,59.265-4.923c27.887-3.301,24.592-44.312-3.312-42.679c0,0-83.867,6.583-138.021,6.583
	c-9.717,0-21.169-0.238-33.331-0.628C235.905,150.956,395.066,58.119,575.996,58.119c134.819,0,257.575,51.548,349.707,135.968
	c-2.232-0.14-4.411-0.42-6.709-0.42c-50.869,0-86.964,44.316-86.964,91.911c0,42.679,24.625,78.786,50.869,121.465
	c19.696,34.488,42.696,78.797,42.696,142.821c0,44.319-17.048,95.754-39.405,167.414l-51.666,172.584L647.368,333.18z
	 M1030.428,327.54c40.423,73.759,63.43,158.405,63.43,248.444c0,191.058-103.542,357.855-257.501,447.623l158.173-457.328
	c29.542-73.881,39.381-132.956,39.381-185.486C1033.91,361.727,1032.654,344.034,1030.428,327.54z"/>
</svg>
