<?xml version="1.0" encoding="utf-8"?>
<!-- Generator: Adobe Illustrator 17.0.0, SVG Export Plug-In . SVG Version: 6.00 Build 0)  -->
<!DOCTYPE svg PUBLIC "-//W3C//DTD SVG 1.1//EN" "http://www.w3.org/Graphics/SVG/1.1/DTD/svg11.dtd">
<svg version="1.1" id="Layer_1" xmlns="http://www.w3.org/2000/svg" xmlns:xlink="http://www.w3.org/1999/xlink" x="0px" y="0px"
	 width="1152px" height="1152px" viewBox="0 0 1152 1152" enable-background="new 0 0 1152 1152" xml:space="preserve">
<g>
	<g>
		
			<linearGradient id="SVGID_1_" gradientUnits="userSpaceOnUse" x1="288.4495" y1="897.892" x2="288.4495" y2="1333" gradientTransform="matrix(1 0 0 -1 270 1333)">
			<stop  offset="0" style="stop-color:#3D3C3C"/>
			<stop  offset="0.0323" style="stop-color:#3B3939"/>
			<stop  offset="0.276" style="stop-color:#2D2A2B"/>
			<stop  offset="0.5631" style="stop-color:#252223"/>
			<stop  offset="1" style="stop-color:#231F20"/>
		</linearGradient>
		<path fill="url(#SVGID_1_)" d="M475.476,0h-65.737l-44.328,169.116L319.242,0H250.84c13.692,39.905,27.972,80.051,41.683,119.995
			c20.844,60.059,33.85,105.332,39.725,136.262V430.66h65.031V256.256L475.476,0z M649.241,326.771V214.348
			c0-34.294-5.919-59.376-18.197-75.602c-16.238-21.916-39.018-32.893-68.402-32.893c-29.203,0-52.044,10.977-68.262,32.893
			c-12.462,16.226-18.358,41.308-18.358,75.602v112.423c0,34.095,5.896,59.376,18.358,75.483
			c16.218,21.875,39.059,32.854,68.262,32.854c29.385,0,52.164-10.979,68.402-32.854
			C643.322,386.146,649.241,360.866,649.241,326.771z M590.591,337.708c0,29.689-9.048,44.553-27.95,44.553
			c-18.925,0-27.991-14.864-27.991-44.553V202.69c0-29.689,9.066-44.473,27.991-44.473c18.902,0,27.95,14.784,27.95,44.473V337.708z
			 M866.059,430.66V109.738h-58.647v245.28c-12.985,18.228-25.304,27.244-37.018,27.244c-7.877,0-12.462-4.607-13.754-13.623
			c-0.707-1.883-0.707-8.975-0.707-22.636V109.738h-58.445V363.51c0,22.636,1.958,38.021,5.191,47.718
			c5.857,16.267,18.881,23.88,37.764,23.88c21.367,0,43.644-12.903,66.969-39.466v35.018H866.059z"/>
	</g>
	<path fill="#FF3333" d="M1056,820.171c0,74.242-0.101,152.97-16.842,225.086c-11.713,50.641-53.5,87.984-103.745,93.551
		c-119.055,13.182-239.54,13.262-359.484,13.182c-119.961,0.08-240.448,0-359.482-13.182c-50.266-5.567-91.99-42.91-103.724-93.551
		C96,973.141,96,894.413,96,820.171l0,0c0-74.281,0.182-152.968,16.925-225.125c11.713-50.602,53.457-87.943,103.724-93.512
		c119.034-13.221,239.52-13.262,359.482-13.221c119.942-0.041,240.43,0,359.482,13.221c50.247,5.569,92.011,42.91,103.745,93.512
		C1056.081,667.203,1056,745.89,1056,820.171L1056,820.171z"/>
	<path fill="#FFFFFF" d="M369.814,659.952v-60.018h-202.26v60.018h68.241v366.234h64.525V659.952H369.814z M487.049,1026.186
		v-34.655c-23.044,26.241-44.955,39.023-66.283,39.023c-18.701,0-31.585-7.533-37.382-23.638c-3.191-9.617-5.11-24.762-5.11-47.197
		V708.591h57.981V942.41c0,13.463,0,20.513,0.546,22.357c1.394,8.934,5.817,13.461,13.573,13.461
		c11.633,0,23.809-8.895,36.674-26.924V708.591h58.062v317.595H487.049z M707.485,935.398c0,28.688-8.504,42.83-25.245,42.83
		c-9.534,0-19.206-4.527-28.901-14.142V770.492c9.695-9.457,19.367-13.984,28.901-13.984c16.741,0,25.245,14.704,25.245,43.351
		V935.398z M765.487,930.871V804.386c0-30.048-1.979-51.043-5.838-63.823c-7.755-23.799-23.265-35.859-46.388-35.859
		c-21.328,0-41.199,11.58-59.921,34.456V599.934h-58.023v426.252h58.023v-30.809c19.367,23.797,39.301,35.176,59.921,35.176
		c23.123,0,38.633-12.06,46.388-35.697C763.508,981.393,765.487,960.24,765.487,930.871z M926.446,829.948h-58.002v-29.367
		c0-29.369,9.693-44.073,29.081-44.073c19.206,0,28.921,14.704,28.921,44.073V829.948z M984.448,924.582v-8.415h-59.214
		c0,23.077-0.728,35.859-1.253,38.983c-3.311,15.385-11.653,23.077-25.931,23.077c-19.913,0-29.606-14.663-29.606-44.071v-56.293
		h116.004v-65.786c0-33.935-5.818-58.736-17.955-74.802c-16.238-21.754-39.342-32.573-68.444-32.573
		c-29.606,0-52.731,10.819-69.474,32.573c-12.338,16.066-17.932,40.867-17.932,74.802v111.26c0,33.736,6.32,58.816,18.639,74.683
		c16.763,21.674,39.847,32.532,70.22,32.532c30.295,0,54.085-11.379,70.16-34.415c7.029-10.218,11.593-21.756,13.552-34.497
		C983.741,955.873,984.448,943.091,984.448,924.582z"/>
</g>
</svg>
