<svg xmlns="http://www.w3.org/2000/svg" width="8" height="10" viewBox="0 0 8 10">
	<path d="M8,4.00848a.99994.99994,0,0,1-1.707.70709L5,3.42267V9.00055A.99948.99948,0,0,1,4.00049,10h-.001A.99948.99948,0,0,1,3,9.00055V3.42267L1.707,4.71558A.99994.99994,0,1,1,.293,3.30139L3.251.34326c.01379-.0155.01855-.03552.03345-.05035A.997.997,0,0,1,3.99146,0l.00415.00079L3.99951,0h.001l.00391.00079L4.00854,0a.997.997,0,0,1,.707.29291c.01489.01483.01965.03485.03345.05035L7.707,3.30139A.99669.99669,0,0,1,8,4.00848Z"/>
</svg>
