<?xml version="1.0" encoding="utf-8"?>
<!-- Generator: Adobe Illustrator 18.0.0, SVG Export Plug-In . SVG Version: 6.00 Build 0)  -->
<!DOCTYPE svg PUBLIC "-//W3C//DTD SVG 1.1//EN" "http://www.w3.org/Graphics/SVG/1.1/DTD/svg11.dtd">
<svg version="1.1" id="Layer_1" xmlns="http://www.w3.org/2000/svg" xmlns:xlink="http://www.w3.org/1999/xlink" x="0px" y="0px"
	 width="1152px" height="1152px" viewBox="0 0 1152 1152" enable-background="new 0 0 1152 1152" xml:space="preserve">
<path d="M275.9,866.9L10.5,601.5C3.5,594.4,0,585.2,0,576s3.5-18.4,10.5-25.5l105.1-105.1c14.1-14.1,36.9-14.1,50.9,0l265.4,265.4
	l557.2-557.2c7-7,16.1-9.7,25.3-9.7c9.7-0.1,19.4,3,26.6,10.7l101.2,109c6.5,7,9.9,15.4,9.9,24.2c0,9.2-3.8,18.7-10.8,25.7
	L587.9,866.9L457.4,997.5c-7,7-16.2,10.5-25.3,10.5s-18.5-3.5-25.6-10.5L275.9,866.9z"/>
</svg>
