<?xml version="1.0" encoding="utf-8"?>
<!-- Generator: Adobe Illustrator 16.0.4, SVG Export Plug-In . SVG Version: 6.00 Build 0)  -->
<!DOCTYPE svg PUBLIC "-//W3C//DTD SVG 1.1//EN" "http://www.w3.org/Graphics/SVG/1.1/DTD/svg11.dtd">
<svg version="1.1" id="Layer_1" xmlns="http://www.w3.org/2000/svg" xmlns:xlink="http://www.w3.org/1999/xlink" x="0px" y="0px"
	 width="1152px" height="1152px" viewBox="0 0 1152 1152" enable-background="new 0 0 1152 1152" xml:space="preserve">
<path d="M1056,624L720,768l144,72c-4.421,66.912-102.065,143.837-240,163.062V528h192v-96H624V319.219
	c56.578-27.047,96-84.328,96-151.219C720,75.188,644.766,0,552,0S384,75.188,384,168c0,66.891,39.422,124.172,96,151.219V432H288v96
	h192v475.062c-137.934-19.225-235.579-96.148-240-163.061L384,768L48,624L0,960l107.438-53.719
	C151.875,1046.625,333.562,1152,552,1152s400.125-105.375,444.562-245.719L1104,960L1056,624z M468,168c0-46.312,37.688-84,84-84
	s84,37.688,84,84s-37.688,84-84,84S468,214.312,468,168z"/>
</svg>
