<?xml version="1.0" encoding="utf-8"?>
<!-- Generator: Adobe Illustrator 16.0.4, SVG Export Plug-In . SVG Version: 6.00 Build 0)  -->
<!DOCTYPE svg PUBLIC "-//W3C//DTD SVG 1.1//EN" "http://www.w3.org/Graphics/SVG/1.1/DTD/svg11.dtd">
<svg version="1.1" id="Layer_1" xmlns="http://www.w3.org/2000/svg" xmlns:xlink="http://www.w3.org/1999/xlink" x="0px" y="0px"
	 width="1152px" height="1152px" viewBox="0 0 1152 1152" enable-background="new 0 0 1152 1152" xml:space="preserve">
<path d="M408,408L96,720L0,948c0,12,0,12,12,12c0.469,0,228-96,228-96l312-312L408,408z"/>
<path d="M912,240c0,0,24-24,36-36c16-16,16-55.999,0-72C936,120,840,24,828,12c-16.001-16.001-56.001-15.999-72,0
	c-12,12-312,312-312,312l192,192l204-204l48,48L576,672c0,0,72,72,144,0c0,0,264-264,276-276c16.001-16,15.999-56,0-72
	C984,312,912,240,912,240z"/>
<path d="M1056,768c-36,48-240,288-528,288s-480-48-480-48s192,144,480,144c480,0,624-288,624-336S1096.729,713.694,1056,768z"/>
</svg>
