<?xml version="1.0" encoding="utf-8"?>
<!-- Generator: Adobe Illustrator 16.0.0, SVG Export Plug-In . SVG Version: 6.00 Build 0)  -->
<!DOCTYPE svg PUBLIC "-//W3C//DTD SVG 1.1//EN" "http://www.w3.org/Graphics/SVG/1.1/DTD/svg11.dtd">
<svg version="1.1" id="Layer_1" xmlns="http://www.w3.org/2000/svg" xmlns:xlink="http://www.w3.org/1999/xlink" x="0px" y="0px"
	 width="1152px" height="1152px" viewBox="0 0 1152 1152" enable-background="new 0 0 1152 1152" xml:space="preserve">
<path d="M576,0C257.871,0,0,257.906,0,576s257.871,576,576,576s576-257.906,576-576S894.129,0,576,0z M576,1008
	c-238.587,0-432-193.413-432-432s193.413-432,432-432s432,193.413,432,432S814.587,1008,576,1008z"/>
<path d="M624.015,492.855c-0.005-0.004-0.01-0.007-0.015-0.01V204c0-6.6-5.4-12-12-12h-72c-6.6,0-12,5.4-12,12v288.846l0,0
	c-28.693,16.6-48,47.621-48,83.154c0,8.598,1.137,16.93,3.257,24.859L345.014,739.102c-4.667,4.667-4.667,12.305,0,16.972
	l50.912,50.911c4.667,4.667,12.305,4.667,16.972,0l138.241-138.241c7.93,2.12,16.263,3.257,24.861,3.257c53.02,0,96-42.98,96-96
	C672,540.473,652.7,509.456,624.015,492.855z"/>
</svg>
