<?xml version="1.0" encoding="utf-8"?>
<!-- Generator: Adobe Illustrator 16.0.1, SVG Export Plug-In . SVG Version: 6.00 Build 0)  -->
<!DOCTYPE svg PUBLIC "-//W3C//DTD SVG 1.1//EN" "http://www.w3.org/Graphics/SVG/1.1/DTD/svg11.dtd">
<svg version="1.1" id="Layer_1" xmlns="http://www.w3.org/2000/svg" xmlns:xlink="http://www.w3.org/1999/xlink" x="0px" y="0px"
	 width="1152px" height="1152px" viewBox="0 0 1152 1152" enable-background="new 0 0 1152 1152" xml:space="preserve">
<path d="M392.227,816L432,777.984V528h192v56.953l58.969-59.297C704.906,503.812,732.375,492,760.781,492
	c31.031,0,58.125,13.969,76.922,36H912v103.688c48.656,6.938,97.969,20.578,144,47.672V0H0v960h535.031L392.227,816z M720,144h192
	v288H720V144z M432,144h192v288H432V144z M336,816H144V528h192V816z M336,432H144V144h192V432z"/>
<path d="M768,720.375v-120c0-13.172-7.641-16.312-16.969-7.031L528,816l223.031,223.406c9.328,9.375,16.969,6.188,16.969-7.031V912
	c264,0,351.094,130.312,384,240C1152,720,943.5,720.375,768,720.375z"/>
</svg>
