<?xml version="1.0" encoding="utf-8"?>
<!-- Generator: Adobe Illustrator 16.0.4, SVG Export Plug-In . SVG Version: 6.00 Build 0)  -->
<!DOCTYPE svg PUBLIC "-//W3C//DTD SVG 1.1//EN" "http://www.w3.org/Graphics/SVG/1.1/DTD/svg11.dtd">
<svg version="1.1" id="Layer_1" xmlns="http://www.w3.org/2000/svg" xmlns:xlink="http://www.w3.org/1999/xlink" x="0px" y="0px"
	 width="1152px" height="1152px" viewBox="0 0 1152 1152" enable-background="new 0 0 1152 1152" xml:space="preserve">
<path d="M53.072,440.672c24.718-12.141,49.483,48.703,86.607,48.703c37.125,0,160.902-12.188,160.902-60.844
	s-86.654-60.844-111.372-97.312c-24.765-36.516-20.551-42.562-45.316-91.219s-66.102-79.125-41.337-115.547
	c24.765-36.516,99.013,60.797,111.372,97.266c12.359,36.469,24.765,85.172,49.53,85.172c24.718,0,61.889-50.016,61.889-135.234
	C325.346,86.531,288.175,48,288.175,0c0,0,35.064,0,47.47,0c12.359,0,47.938,0,47.938,48c0,44.391-8.755,14.953-8.755,173.016
	c0,158.156,0,201.047,49.53,237.562c56.037,41.297-12.406,51.891,12.359,88.359c24.765,36.562,99.013,111.094,123.778,171.891
	c24.766,60.797,0,158.953,49.483,158.953c49.529,0,49.529-96.938,49.529-145.594c0-145.969-123.777-291.75-123.777-449.812
	c0-121.688,24.765-194.531,61.889-182.391s0,36.562,0,158.203s37.124,194.719,86.607,194.719c49.53,0,99.06-12.234,111.418-316.312
	c0,0,67.32-17.531,67.32,55.406c0,72.984-5.431,66.188-5.431,102.703s12.359,24.328,0,60.797
	c-12.359,36.562-61.89,73.031-49.53,85.172C838.997,468,886.095,359.625,910.906,384c24.719,24.328-47.939,83.531-47.939,120
	c0,36.516,6.928,46.172,44.099,46.172c37.077,0,37.077-24.328,61.889-24.328c24.718,0,24.718,36.469,49.53,24.328
	c24.718-12.188,37.077-145.969,74.248-133.828C1129.811,428.531,1068.674,624,1006.784,624c0,0-25.471-0.844-37.83,11.344
	c-12.358,12.094,37.077,36.469,24.718,48.609c-12.358,12.188-74.247-24.328-86.606-12.141
	c-12.359,12.141-93.957,78.844-160.949,243.281C721.398,975.844,770.928,1134,770.928,1134s-37.17,12.188-86.7,0
	c0,0-47.002,18-108.891,18c-61.889,0-150.978-18-126.212-42.281c24.718-24.375,53.509-17.25,78.274-53.719
	c24.718-36.469,33.098-43.594,20.692-80.156c-12.359-36.422-61.889-72.938-74.249-121.594
	c-12.358-48.656-12.358-72.938-24.718-109.5C436.718,708.281,383.583,624,335.645,576c-47.938-48-183.607-50.156-195.966-38.016
	C127.32,550.172,127.32,574.5,102.555,574.5C102.555,500.484,28.26,452.906,53.072,440.672z M721.398,550.172
	c-12.406,48.656-12.406,109.453,24.718,109.453c37.171,0,74.342-48.656,74.342-97.312c0-48.609-12.453-85.125-37.171-85.125
	S733.758,501.516,721.398,550.172z"/>
</svg>
