<?xml version="1.0" encoding="utf-8"?>
<!-- Generator: Adobe Illustrator 16.0.1, SVG Export Plug-In . SVG Version: 6.00 Build 0)  -->
<!DOCTYPE svg PUBLIC "-//W3C//DTD SVG 1.1//EN" "http://www.w3.org/Graphics/SVG/1.1/DTD/svg11.dtd">
<svg version="1.1" id="Layer_1" xmlns="http://www.w3.org/2000/svg" xmlns:xlink="http://www.w3.org/1999/xlink" x="0px" y="0px"
	 width="1152px" height="1152px" viewBox="0 0 1152 1152" enable-background="new 0 0 1152 1152" xml:space="preserve">
<path d="M211.172,798.629c29.578-24.188,64.078-39.094,94.547-52.312c22.688-9.844,48.188-20.812,60.141-31.594
	c2.672-6.609,5.578-17.25,6.562-24.656c-5.766-12.891-14.672-33.281-23.672-55.312c-7.5-18.469-13.5-34.219-18.188-47.812
	c-10.875-6.375-20.953-14.531-30-24.281c-13.875-14.906-25.5-33.75-34.406-55.875c-12.188-30.281-19.406-66.844-19.406-97.969
	c0-34.406,12.469-65.906,34.594-89.438c6.75-70.266,37.125-135.328,86.812-185.062c14.719-14.719,30.703-27.656,47.719-38.812
	C387.984,38.691,330.844-0.027,264.141-0.027c-93.047,0-167.766,75.188-170.156,169.969v25.5c0,0-28.266,1.5-28.266,29.625
	c0,28.172,14.156,84.469,42.562,84.469c14.062,0,14.062,0,14.062,0c0,28.312,48.141,132.469,48.141,132.469
	c8.484,28.125-8.109,78.609-19.734,92.625C99.328,596.035,0,590.879,0,675.254c0,46.781,0,94.359,0,94.359s0,44.109,192.469,46.266
	C198.234,809.879,204.469,804.066,211.172,798.629z"/>
<path d="M488.25,911.363l198.188-197.578c-3.516-17.812-4.594-26.143-0.469-39.83L742.875,528c0,0,0,0,16.688,0
	c33.375,0,45.984-76.139,45.984-109.232S768,373.941,768,373.941v-30c0-111.469-82.453-199.969-191.766-199.969
	c-109.453,0-192.234,88.5-192.234,199.969v30c0,0-37.219,11.732-37.219,44.826S359.344,528,392.766,528c16.641,0,16.641,0,16.641,0
	l56.531,145.955c10.031,33.094-9.469,87.509-23.156,103.962C382.312,850.198,240,839.129,240,938.457c0,54.984,0,110.953,0,110.953
	s0,54.59,269.438,54.59h133.406c13.125,0,25.031-0.248,36.891-0.482L488.25,911.363z"/>
<path d="M870.562,319.098c22.312,23.531,34.969,55.125,34.969,89.719c0,31.078-7.266,67.688-19.406,97.875
	c-8.906,22.172-20.438,40.969-34.312,55.922c-9.094,9.797-19.266,17.953-30.188,24.422c-0.938,2.625-2.156,5.766-3.141,8.578
	c12.234-4.828,25.125-7.641,38.297-7.641c57.891,0,103.219,47.625,103.219,108.375V720h192c0-14,0-29.277,0-44.746
	c0-84.375-99.328-79.219-150.75-140.625c-11.625-14.016-28.219-75.268-19.734-103.393c0,0,48.141-95.236,48.141-143.236
	c0,0,0,0,14.062,0c28.406,0,41.531-45.529,41.531-73.701c0-28.125-29.25-18.857-29.25-18.857v-25.5
	C1056,75.16,979.875-0.027,886.875-0.027c-66.656,0-123.328,38.625-151.172,95.438c17.062,11.156,33.375,24.188,48.094,39
	C833.25,184.004,863.719,248.973,870.562,319.098z"/>
<path d="M847.031,689.316c9.281-9.281,16.969-6.141,16.969,7.031v120h288v191.625H864v120.375c0,13.219-7.688,16.406-16.969,7.031
	L624,911.598L847.031,689.316z"/>
</svg>
