<?xml version="1.0" encoding="utf-8"?>
<!-- Generator: Adobe Illustrator 16.0.1, SVG Export Plug-In . SVG Version: 6.00 Build 0)  -->
<!DOCTYPE svg PUBLIC "-//W3C//DTD SVG 1.1//EN" "http://www.w3.org/Graphics/SVG/1.1/DTD/svg11.dtd">
<svg version="1.1" id="Layer_1" xmlns="http://www.w3.org/2000/svg" xmlns:xlink="http://www.w3.org/1999/xlink" x="0px" y="0px"
	 width="1152px" height="1152px" viewBox="0 0 1152 1152" enable-background="new 0 0 1152 1152" xml:space="preserve">
<path d="M144,288c0,0,240,0,264,0s24-24,24-24V0L144,288z"/>
<path d="M960,0H528v288c0,0,0,96-96,96c-76.801,0-288,0-288,0s0,672,0,720s48,48,48,48h768c0,0,48,0,48-48s0-1008,0-1056
	S960,0,960,0z M294,960c-6,0-6,0-6-6l60-174l120,120C468,900,294.25,960,294,960z M516,852L396,732l264-264l120,120L516,852z
	 M867,495l-42,42L705,417l42-42c0,0,6-6,18-6s18,6,18,6l84,84c0,0,6,6,6,18S867,495,867,495z"/>
</svg>
