<?xml version="1.0" encoding="utf-8"?>
<!-- Generator: Adobe Illustrator 16.0.1, SVG Export Plug-In . SVG Version: 6.00 Build 0)  -->
<!DOCTYPE svg PUBLIC "-//W3C//DTD SVG 1.1//EN" "http://www.w3.org/Graphics/SVG/1.1/DTD/svg11.dtd">
<svg version="1.1" id="Layer_1" xmlns="http://www.w3.org/2000/svg" xmlns:xlink="http://www.w3.org/1999/xlink" x="0px" y="0px"
	 width="1152px" height="1152px" viewBox="0 0 1152 1152" enable-background="new 0 0 1152 1152" xml:space="preserve">
<path d="M816,144c-142.43,0-417.211,80.396-504,96c-46.335,8.811-72,24-72,60c0,24,24.482,42.788,72,36c84-12,341.953-96,504-96
	c96,0,96-31.312,96-48C912,175.333,906.023,144,816,144z"/>
<path d="M816,314c-142.43,0-417.211,80.396-504,96c-46.335,8.811-72,24-72,60c0,24,24.482,42.788,72,36c84-12,341.953-96,504-96
	c96,0,96-31.312,96-48C912,345.333,906.023,314,816,314z"/>
<path d="M648,0c-4.172,0.935-13.828,2.275-17.93,3.271c-77.848,18.974-264.457,69.746-319.734,79.05
	C252,95.81,240,126.649,240,147.939c0,0,0,31.225,36.012,31.225c61.312,0,259.348-59.182,354.059-82.26
	c23.32-5.688,47.719-10.442,73.055-13.814c16.898-11.682,16.969-27.243,16.969-36.182C720.094,32.058,720,0,648,0z"/>
<path d="M768,768c-48,0-336,0-384,0s-48,48-48,48h0c0,0,0,36,0,72c0,48,96,72,96.035,120H432l0,72.001L504,1152h144l72-71.999V1008
	h0.094C720,960,816,936,816,888v-72C816,816,816,768,768,768z"/>
<path d="M886.647,484.707c-17.849,4.527-39.153,6.719-64.53,6.719c-18.201,0-84.154,1.199-101.826,3.295
	c-11.175,2.574-20.883,6.002-36.197,9.513C624,528,624,640.195,624,648.281c0,54.023,0,71.719,0,71.719h96v-71.719
	c0,0,0-72.281,96-72.281c84,0,96.117-36.258,96-48C911.905,518.092,912,492,886.647,484.707z"/>
<path d="M492.364,538.201c-39.564,15.995-77.087,31.16-113.909,37.739c1.816,0.036,3.656,0.061,5.544,0.061
	c54.023,0,48,72.281,48,72.281V720h96c0,0,0-17.695,0-71.719c0-6.126-0.008-72.001-26.141-113.914
	C498.676,535.65,495.507,536.93,492.364,538.201z"/>
</svg>
