<?xml version="1.0" encoding="utf-8"?>
<!-- Generator: Adobe Illustrator 16.0.1, SVG Export Plug-In . SVG Version: 6.00 Build 0)  -->
<!DOCTYPE svg PUBLIC "-//W3C//DTD SVG 1.1//EN" "http://www.w3.org/Graphics/SVG/1.1/DTD/svg11.dtd">
<svg version="1.1" id="Layer_1" xmlns="http://www.w3.org/2000/svg" xmlns:xlink="http://www.w3.org/1999/xlink" x="0px" y="0px"
	 width="1152px" height="1152px" viewBox="0 0 1152 1152" enable-background="new 0 0 1152 1152" xml:space="preserve">
<path d="M1104,96c0-53.016-42.984-96-96-96H96C42.984,0,0,42.984,0,96v912c0,53.016,42.984,96,96,96h912c53.016,0,96-42.984,96-96
	V96z M864,288c0,0-24,0-72,0c-72,0-72,72-72,72v120h192l-24,144H720v384H576V624H432V480h144V336c0-116.438,72-192,216-192h72V288z"
	/>
</svg>
