<?xml version="1.0" encoding="utf-8"?>
<!-- Generator: Adobe Illustrator 16.0.1, SVG Export Plug-In . SVG Version: 6.00 Build 0)  -->
<!DOCTYPE svg PUBLIC "-//W3C//DTD SVG 1.1//EN" "http://www.w3.org/Graphics/SVG/1.1/DTD/svg11.dtd">
<svg version="1.1" id="Layer_1" xmlns="http://www.w3.org/2000/svg" xmlns:xlink="http://www.w3.org/1999/xlink" x="0px" y="0px"
	 width="1152px" height="1152px" viewBox="0 0 1152 1152" enable-background="new 0 0 1152 1152" xml:space="preserve">
<polygon points="0,48 0,816 144,816 144,192 1008,192 1008,672 768,672 768,816 1152,816 1152,48 "/>
<path d="M240,576v480h432V576H240z M576,936c0,0,0,24-96,24h-48c-96,0-96-24-96-24s0-25.312,0-43.453
	c0-28.547,55.969-30.844,75.984-54.656c4.5-5.438,11.016-25.125,7.641-36.047c0,0-18.656-40.5-18.656-51.516c0,0,0,0-5.531,0
	c-11.062,0-16.547-21.891-16.547-32.766c0-10.969,11.016-10.969,11.016-10.969c0.094-0.094,0-10.922,0-10.922l0.141-0.047
	C390.938,658.734,408,624,456.047,624c47.953,0,65.109,34.734,66.047,71.625l0.094,0.047c0,0-0.047,10.828,0,10.922
	c0,0,11.016,0,11.016,10.969c0,10.875-5.484,32.766-16.547,32.766c-5.484,0-5.484,0-5.484,0c0,11.016-18.797,51.516-18.797,51.516
	c-3.375,10.922,3.188,30.609,7.688,36.047C520.031,861.703,576,864,576,892.547C576,910.688,576,936,576,936z"/>
</svg>
