<?xml version="1.0" encoding="utf-8"?>
<!-- Generator: Adobe Illustrator 16.0.4, SVG Export Plug-In . SVG Version: 6.00 Build 0)  -->
<!DOCTYPE svg PUBLIC "-//W3C//DTD SVG 1.1//EN" "http://www.w3.org/Graphics/SVG/1.1/DTD/svg11.dtd">
<svg version="1.1" id="Layer_1" xmlns="http://www.w3.org/2000/svg" xmlns:xlink="http://www.w3.org/1999/xlink" x="0px" y="0px"
	 width="1152px" height="1152px" viewBox="0 0 1152 1152" enable-background="new 0 0 1152 1152" xml:space="preserve">
<path d="M1152,912v-96h-52.828c-6.234-30.656-18.422-59.062-35.109-84.234l37.5-37.5l-67.875-67.875l-37.5,37.547
	c-25.172-16.688-53.578-28.875-84.188-35.109V576h-96v52.828c-30.609,6.234-59.016,18.422-84.188,35.109l-37.5-37.547
	l-67.875,67.875l37.5,37.5c-16.688,25.172-28.875,53.578-35.109,84.234H576v96h52.828c6.234,30.609,18.422,59.016,35.062,84.188
	l-37.5,37.5l67.875,67.875l37.5-37.5c25.172,16.688,53.578,28.875,84.234,35.109V1152h96v-52.828
	c30.656-6.234,59.062-18.422,84.234-35.109l37.5,37.5l67.875-67.875l-37.5-37.5c16.641-25.172,28.828-53.578,35.062-84.188H1152z
	 M864,1008c-79.547,0-144-64.5-144-144s64.453-144,144-144s144,64.5,144,144S943.547,1008,864,1008z"/>
<path d="M483.328,912H144V768h348.562c8.812-34.078,22.031-66.281,39.234-96H144V528h534.234c55.078-30.516,118.359-48,185.766-48
	c70.031,0,135.469,19.031,192,51.797V0H0v1056h531.797C506.672,1012.594,489.797,963.984,483.328,912z M144,288h768v144H144V288z"/>
</svg>
