<?xml version="1.0" encoding="utf-8"?>
<!-- Generator: Adobe Illustrator 16.0.1, SVG Export Plug-In . SVG Version: 6.00 Build 0)  -->
<!DOCTYPE svg PUBLIC "-//W3C//DTD SVG 1.1//EN" "http://www.w3.org/Graphics/SVG/1.1/DTD/svg11.dtd">
<svg version="1.1" id="Layer_1" xmlns="http://www.w3.org/2000/svg" xmlns:xlink="http://www.w3.org/1999/xlink" x="0px" y="0px"
	 width="1152px" height="1152px" viewBox="0 0 1152 1152" enable-background="new 0 0 1152 1152" xml:space="preserve">
<path d="M720,0v264c0,0,0,24,24,24s264,0,264,0L720,0z"/>
<path d="M874.547,838.266c-7.5-1.875-17.766-3.75-31.547-5.062C854.766,835.688,865.547,837.422,874.547,838.266z"/>
<path d="M544.125,426.562c-1.547,8.578-2.25,19.078-2.109,30.844c0.938-5.625,4.031-21.609,4.031-21.609
	C545.484,432.234,544.828,429.188,544.125,426.562z"/>
<path d="M545.766,680.766c-12.75,37.266-29.812,76.406-51.891,118.875c-7.688,14.766-15.234,28.922-22.547,42.375
	c61.359-23.016,119.719-37.359,164.25-46.031c-3.516-2.812-6.938-5.578-10.266-8.438
	C595.078,761.531,567.844,724.922,545.766,680.766z"/>
<path d="M720,384c-96,0-96-96-96-96V0H192c0,0-48,0-48,48s0,1008,0,1056s48,48,48,48h768c0,0,48,0,48-48s0-720,0-720
	S796.828,384,720,384z M916.312,843.562L912,845.625v8.344l0.094,1.219l0.469,3L912,857.719v1.078
	c0,11.906-13.688,26.531-50.109,26.531c-42.938,0-106.078-18.938-162.609-48.422c-89.25,9.328-186.375,29.953-255.844,54.141
	c-69.422,119.062-121.453,174.562-163.922,174.562c-7.359,0-14.25-1.688-20.672-4.922L240,1044l-7.968-9.703
	c-0.797-5.531-0.047-10.828,0.75-14.719c6.281-31.406,43.594-84,128.156-128.906l6.422-3.375l8.438,3.375l2.25,2.391
	c21.562-34.172,44.906-75.328,69-123.75c33.75-67.875,52.312-124.828,65.953-171.75c-21.516-71.859-27.656-146.953-15.562-192
	c5.109-18.891,17.953-30.656,33.469-30.656l12.703-0.516c15.656,0,24.469,6.75,29.156,12.375
	c8.812,10.688,11.062,27.609,6.75,50.391l-1.359,7.312l-0.469,22.172c-0.703,40.125-1.406,81.609-9.703,128.719
	c23.391,66.797,57.281,120.75,95.578,152.109c15.516,12.375,33.469,24.469,53.391,35.953c27.609-3.047,53.344-4.594,76.453-4.594
	c66.469,0,107.625,11.766,122.297,34.875c4.312,6.75,6.281,14.344,5.859,22.219l2.953-0.422L916.312,843.562z"/>
</svg>
