<?xml version="1.0" encoding="utf-8"?>
<!-- Generator: Adobe Illustrator 16.0.4, SVG Export Plug-In . SVG Version: 6.00 Build 0)  -->
<!DOCTYPE svg PUBLIC "-//W3C//DTD SVG 1.1//EN" "http://www.w3.org/Graphics/SVG/1.1/DTD/svg11.dtd">
<svg version="1.1" id="Layer_1" xmlns="http://www.w3.org/2000/svg" xmlns:xlink="http://www.w3.org/1999/xlink" x="0px" y="0px"
	 width="1152px" height="1152px" viewBox="0 0 1152 1152" enable-background="new 0 0 1152 1152" xml:space="preserve">
<path d="M720,0v264c0,0,0,24,24,24s264,0,264,0L720,0z"/>
<path d="M720,384c-96,0-96-96-96-96V0H192c0,0-48,0-48,48c0,39.703,0,1016.109,0,1056c0,48,48,48,48,48h768c0,0,48,0,48-48
	c0-39.891,0-720,0-720S796.781,384,720,384z M444,864l-60,60L228,768l156-156l60,60l-96,96L444,864z M574.547,971.625l-93.094-23.25
	l96-384l93.094,23.25L574.547,971.625z M768,924l-60-60l96-96l-96-96l60-60l156,156L768,924z"/>
</svg>
