<?xml version="1.0" encoding="utf-8"?>
<!-- Generator: Adobe Illustrator 16.0.4, SVG Export Plug-In . SVG Version: 6.00 Build 0)  -->
<!DOCTYPE svg PUBLIC "-//W3C//DTD SVG 1.1//EN" "http://www.w3.org/Graphics/SVG/1.1/DTD/svg11.dtd">
<svg version="1.1" id="Layer_1" xmlns="http://www.w3.org/2000/svg" xmlns:xlink="http://www.w3.org/1999/xlink" x="0px" y="0px"
	 width="1152px" height="1152px" viewBox="0 0 1152 1152" enable-background="new 0 0 1152 1152" xml:space="preserve">
<path d="M510.211,1013.531C490.172,966.094,480,915.797,480,864s10.172-102.094,30.211-149.531
	c19.359-45.703,47.016-86.766,82.266-121.969c2.836-2.859,5.719-5.625,8.625-8.344C679.078,295.641,912,96,912,96V0H48v96
	c0,0,336,288,336,672c0,0,0,192,0,240s48,48,48,48h96c0,0,1.219,0,3.258-0.188C523.406,1042.219,516.398,1028.062,510.211,1013.531z
	"/>
<path d="M864,576c-159.094,0-288,128.953-288,288c0,159.094,128.906,288,288,288c159,0,288-128.906,288-288
	C1152,704.953,1023,576,864,576z M792,1044L660,912l60-60l72,72l216-216l60,60L792,1044z"/>
</svg>
