<?xml version="1.0" encoding="utf-8"?>
<!-- Generator: Adobe Illustrator 16.0.0, SVG Export Plug-In . SVG Version: 6.00 Build 0)  -->
<!DOCTYPE svg PUBLIC "-//W3C//DTD SVG 1.1//EN" "http://www.w3.org/Graphics/SVG/1.1/DTD/svg11.dtd">
<svg version="1.1" id="Layer_1" xmlns="http://www.w3.org/2000/svg" xmlns:xlink="http://www.w3.org/1999/xlink" x="0px" y="0px"
	 width="1152px" height="1152px" viewBox="0 0 1152 1152" enable-background="new 0 0 1152 1152" xml:space="preserve">
<polygon points="1103,1152 48,1152 48,1080 144,960 1008,960 1104,1080 "/>
<rect x="144" y="768" width="864" height="96"/>
<path d="M576,0C310.903,0,96,214.903,96,480c0,68.27,14.269,133.202,39.961,192h107.417C210.704,615.518,192,549.944,192,480
	c0-212.077,171.923-384,384-384s384,171.923,384,384c0,69.944-18.704,135.518-51.378,192h107.416
	C1041.731,613.202,1056,548.27,1056,480C1056,214.903,841.097,0,576,0z"/>
</svg>
