<?xml version="1.0" encoding="utf-8"?>
<!-- Generator: Adobe Illustrator 16.0.4, SVG Export Plug-In . SVG Version: 6.00 Build 0)  -->
<!DOCTYPE svg PUBLIC "-//W3C//DTD SVG 1.1//EN" "http://www.w3.org/Graphics/SVG/1.1/DTD/svg11.dtd">
<svg version="1.1" id="Layer_1" xmlns="http://www.w3.org/2000/svg" xmlns:xlink="http://www.w3.org/1999/xlink" x="0px" y="0px"
	 width="1152px" height="1152px" viewBox="0 0 1152 1152" enable-background="new 0 0 1152 1152" xml:space="preserve">
<path d="M576,288c79.547,0,144-64.453,144-144S655.547,0,576,0S432,64.453,432,144S496.453,288,576,288z"/>
<rect x="480" y="1056" width="192" height="96"/>
<path d="M864,1008L712.406,662.719C745.078,647.344,768,614.297,768,576V432c0-52.781-43.219-96-96-96H480
	c-52.781,0-96,43.219-96,96v144c0,38.297,22.922,71.344,55.594,86.719L288,1008H864z"/>
</svg>
