<?xml version="1.0" encoding="utf-8"?>
<!-- Generator: Adobe Illustrator 16.0.4, SVG Export Plug-In . SVG Version: 6.00 Build 0)  -->
<!DOCTYPE svg PUBLIC "-//W3C//DTD SVG 1.1//EN" "http://www.w3.org/Graphics/SVG/1.1/DTD/svg11.dtd">
<svg version="1.1" id="Layer_1" xmlns="http://www.w3.org/2000/svg" xmlns:xlink="http://www.w3.org/1999/xlink" x="0px" y="0px"
	 width="1152px" height="1152px" viewBox="0 0 1152 1152" enable-background="new 0 0 1152 1152" xml:space="preserve">
<path d="M1104,192H48c-26.391,0-48,21.609-48,48v212.016C46.594,341.977,184.172,336,185.859,336h267.516l-59.766,48h-53.016
	c22.922,48,56.812,70.547,57.328,130.875c0.609,74.086-42.609,113.156-77.297,142.641c-21.938,18.609-39.234,34.5-39.234,52.922
	c0,14.719,21,31.219,45.328,49.688c43.969,33.328,104.203,79.312,104.203,164.812c0,12.469-1.547,24-3.75,35.062H1104
	c26.391,0,48-21.609,48-48V240C1152,213.609,1130.391,192,1104,192z M768,576h-96v96h-48v-96h-96v-48h96v-96h48v96h96V576z
	 M1008,816h-96V568.312c-37.453,8.578-81.984,7.688-96,7.688v-96c3.516,0,72-12,96-96h96V816z"/>
<path d="M246,872.531l-38.25,1.078c-1.219-0.094-11.391-1.078-26.766-1.078c-52.922,0-140.297,11.625-144.469,85.125
	C40.312,958.641,43.922,960,48,960h296.766C331.453,924.188,271.078,885.656,246,872.531z"/>
<path d="M186.375,387.469c-65.438,0-97.219,31.781-97.219,97.195c0,83.039,51.938,171.961,129.281,171.961
	c36.75,0,75.797-37.805,75.797-107.883C294.234,456.188,211.641,387.469,186.375,387.469z"/>
<path d="M0,607.195v233.977c61.688-41.672,148.266-52.641,187.266-55.359c-9.797-12.375-21.188-29.859-21.188-44.719
	c0-14.531,4.406-34.125,7.688-46.594C122.203,692.625,35.109,680.531,0,607.195z"/>
</svg>
