<?xml version="1.0" encoding="utf-8"?>
<!-- Generator: Adobe Illustrator 16.0.4, SVG Export Plug-In . SVG Version: 6.00 Build 0)  -->
<!DOCTYPE svg PUBLIC "-//W3C//DTD SVG 1.1//EN" "http://www.w3.org/Graphics/SVG/1.1/DTD/svg11.dtd">
<svg version="1.1" id="Layer_1" xmlns="http://www.w3.org/2000/svg" xmlns:xlink="http://www.w3.org/1999/xlink" x="0px" y="0px"
	 width="1152px" height="1152px" viewBox="0 0 1152 1152" enable-background="new 0 0 1152 1152" xml:space="preserve">
<path d="M960,96c-48,0-48,480-96,480H624c-48,0-48-48-96-48H288c-48,0-48,96-96,96H0v192h192c48,0,48,48,96,48h240c48,0,48-96,96-96
	h240c48,0,48-336,96-336h192V96H960z"/>
<path d="M288,432h240c48,0,48,48,96,48h144h30.75c6.703-43.312,13.031-106.641,17.719-153.562
	c1.359-13.688,2.625-25.641,3.938-38.438H624c-48,0-48-144-96-144H288c-48,0-48,96-96,96H0v288h192C240,528,240,432,288,432z"/>
<path d="M864,864H624c-48,0-48,96-96,96H288c-48,0-48-48-96-48H0v144h1152V912H960C912,912,912,864,864,864z"/>
<path d="M1020.422,528c-5.016,27.047-9.891,61.266-13.359,85.594C996.281,689.109,985.688,757.969,960,804.562V816h192V528H1020.422
	z"/>
</svg>
