<?xml version="1.0" encoding="utf-8"?>
<!-- Generator: Adobe Illustrator 16.0.4, SVG Export Plug-In . SVG Version: 6.00 Build 0)  -->
<!DOCTYPE svg PUBLIC "-//W3C//DTD SVG 1.1//EN" "http://www.w3.org/Graphics/SVG/1.1/DTD/svg11.dtd">
<svg version="1.1" id="Layer_1" xmlns="http://www.w3.org/2000/svg" xmlns:xlink="http://www.w3.org/1999/xlink" x="0px" y="0px"
	 width="1152px" height="1152px" viewBox="0 0 1152 1152" enable-background="new 0 0 1152 1152" xml:space="preserve">
<path d="M1056,96c-96,0-144,192-288,192l0,0C624,288,528,0,384,0l0,0C240,0,192,240,96,240H0v144h96c48,0,192-96,288-96l0,0
	c96,0,288,96,384,96l0,0c144,0,192-96,288-96h96V96H1056z"/>
<path d="M768,768L768,768c-144,0-240,96-384,96l0,0c-144,0-192-48-288-48H0v96h96c96,0,144,96,288,96l0,0c144,0,240-48,384-48l0,0
	c144,0,192,144,336,144h48V816h-96C960,816,912,768,768,768z"/>
<path d="M768,480L768,480c-144,0-240-96-384-96l0,0c-144,0-192,96-288,96H0v240h96c96,0,144,48,288,48l0,0c144,0,240-96,384-96l0,0
	c144,0,192,48,288,48h96V384h-96C960,384,912,480,768,480z"/>
</svg>
