<?xml version="1.0" encoding="utf-8"?>
<!-- Generator: Adobe Illustrator 16.0.0, SVG Export Plug-In . SVG Version: 6.00 Build 0)  -->
<!DOCTYPE svg PUBLIC "-//W3C//DTD SVG 1.1//EN" "http://www.w3.org/Graphics/SVG/1.1/DTD/svg11.dtd">
<svg version="1.1" id="Layer_1" xmlns="http://www.w3.org/2000/svg" xmlns:xlink="http://www.w3.org/1999/xlink" x="0px" y="0px"
	 width="1152px" height="1152px" viewBox="0 0 1152 1152" enable-background="new 0 0 1152 1152" xml:space="preserve">
<g>
	<path d="M792,600l343.156,343.164c22.458,22.459,22.458,59.207,0,81.666l-62.327,62.326c-22.458,22.459-59.207,22.459-81.665,0
		L648,744L792,600z"/>
</g>
<path d="M648,48c-288,0-444,204-444,204s-12,12-12,24s0,156,0,156l-99.673,99.673c-20.562-7.669-44.695-3.29-61.156,13.17
	l-14.328,14.328c-22.458,22.458-22.458,59.208,0,81.667l110.321,110.318c22.458,22.459,59.207,22.459,81.665,0l14.328-14.326
	c16.461-16.462,20.84-40.596,13.17-61.157L336,576h144l96,96l144-144l-96-96c0,0,0-156,0-228s288-60,288-60V48C912,48,864,48,648,48
	z"/>
</svg>
