<?xml version="1.0" encoding="utf-8"?>
<!-- Generator: Adobe Illustrator 16.0.4, SVG Export Plug-In . SVG Version: 6.00 Build 0)  -->
<!DOCTYPE svg PUBLIC "-//W3C//DTD SVG 1.1//EN" "http://www.w3.org/Graphics/SVG/1.1/DTD/svg11.dtd">
<svg version="1.1" id="Layer_1" xmlns="http://www.w3.org/2000/svg" xmlns:xlink="http://www.w3.org/1999/xlink" x="0px" y="0px"
	 width="1152px" height="1152px" viewBox="0 0 1152 1152" enable-background="new 0 0 1152 1152" xml:space="preserve">
<path d="M576,492.844L576,492.844V204c0-6.609,5.391-12,12-12h72c6.609,0,12,5.391,12,12v288.844l0,0
	c28.688,16.594,48,47.625,48,83.156c0,8.578-1.125,16.922-3.281,24.844L855,739.125c4.688,4.641,4.688,12.281,0,16.969L804.094,807
	c-4.688,4.641-12.328,4.641-16.969,0L648.844,668.766C640.922,670.875,632.625,672,624,672c-53.016,0-96-42.984-96-96
	C528,540.469,547.312,509.438,576,492.844z"/>
<path d="M624,0C288,0,0,192,0,576c0,176.016,98.906,349.078,190.5,433.5L96,1104h384V720L336,864c-96-48-144-193.219-144-288
	c0-238.594,193.406-432,432-432s432,193.406,432,432s-193.406,432-432,432c-16.266,0-32.25-1.078-48-3v96.562
	c15.797,1.547,31.781,2.438,48,2.438c291.562,0,528-236.438,528-528C1152,240,912,0,624,0z"/>
</svg>
