<?xml version="1.0" encoding="utf-8"?>
<!-- Generator: Adobe Illustrator 16.0.4, SVG Export Plug-In . SVG Version: 6.00 Build 0)  -->
<!DOCTYPE svg PUBLIC "-//W3C//DTD SVG 1.1//EN" "http://www.w3.org/Graphics/SVG/1.1/DTD/svg11.dtd">
<svg version="1.1" id="Layer_1" xmlns="http://www.w3.org/2000/svg" xmlns:xlink="http://www.w3.org/1999/xlink" x="0px" y="0px"
	 width="1152px" height="1152px" viewBox="0 0 1152 1152" enable-background="new 0 0 1152 1152" xml:space="preserve">
<path d="M1152,336V48H864v204.211L766.219,336H528v32.016L288,268.008V144H0v288h121.078l153.609,384H240v288h288V976.031L864,898.5
	V960h288V672h-96V336H1152z M624,432h96v96h-96V432z M192,336H96v-96h96V336z M432,1008h-96v-96h96V1008z M864,799.969l-336,77.555
	V816H378.094L224.484,432H288v-60l240,99.984V624h288V419.812L913.781,336H960v336h-96V799.969z M1056,864h-96v-96h96V864z M960,240
	v-96h96v96H960z"/>
</svg>
