<?xml version="1.0" encoding="utf-8"?>
<!-- Generator: Adobe Illustrator 16.0.1, SVG Export Plug-In . SVG Version: 6.00 Build 0)  -->
<!DOCTYPE svg PUBLIC "-//W3C//DTD SVG 1.1//EN" "http://www.w3.org/Graphics/SVG/1.1/DTD/svg11.dtd">
<svg version="1.1" id="Layer_1" xmlns="http://www.w3.org/2000/svg" xmlns:xlink="http://www.w3.org/1999/xlink" x="0px" y="0px"
	 width="1152px" height="1152px" viewBox="0 0 1152 1152" enable-background="new 0 0 1152 1152" xml:space="preserve">
<path fill="none" d="M816,792c0-39.765-32.235-72-72-72s-72,32.235-72,72c0,30.705,19.229,56.904,46.293,67.256L684,1008h120
	l-34.293-148.744C796.771,848.904,816,822.705,816,792z"/>
<path d="M960,577h-48V361c0-172.313-139.688-312-312-312S288,188.687,288,361v216c0,0,0,0-48,0s-48,48-48,48v432c0,0,0,48,48,48h720
	c48,0,48-48,48-48V625C1008,625,1008,577,960,577z M672,960h-12H540h-12l22.764-147.964C529.706,796.774,516,771.995,516,744
	c0-46.392,37.608-84,84-84s84,37.608,84,84c0,27.995-13.706,52.774-34.764,68.036L672,960z M768,577H432V361
	c0-92.784,75.216-168,168-168s168,75.216,168,168V577z"/>
</svg>
