<?xml version="1.0" encoding="utf-8"?>
<!-- Generator: Adobe Illustrator 16.0.4, SVG Export Plug-In . SVG Version: 6.00 Build 0)  -->
<!DOCTYPE svg PUBLIC "-//W3C//DTD SVG 1.1//EN" "http://www.w3.org/Graphics/SVG/1.1/DTD/svg11.dtd">
<svg version="1.1" id="Layer_1" xmlns="http://www.w3.org/2000/svg" xmlns:xlink="http://www.w3.org/1999/xlink" x="0px" y="0px"
	 width="1152px" height="1152px" viewBox="0 0 1152 1152" enable-background="new 0 0 1152 1152" xml:space="preserve">
<path d="M480,984c0-106.031,63-197.438,153.375-239.391C618.094,717,601.547,656.062,612,621.469c0,0,68.25-141.469,68.25-189.469
	c0,0,0,0,20.062,0c39.984,0,60-76.969,60-116.719S720,276,720,276v-36C716.625,106.172,611.438,0,480.188,0S243.375,106.172,240,240
	v36c0,0-39.938-0.469-39.938,39.281S220.078,432,260.109,432c20.016,0,20.016,0,20.016,0c0,48,67.875,189.469,67.875,189.469
	c12,39.75-11.438,112.312-27.844,132.047C247.594,840.234,0,834.188,0,953.391c0,65.953,0,119.156,0,119.156S0,1152,400.125,1152
	h140.391C502.734,1106.344,480,1047.75,480,984z"/>
<path d="M1056,576L804.375,827.625C785.578,820.406,765.328,816,744,816c-92.766,0-168,75.234-168,168s75.234,168,168,168
	s168-75.234,168-168c0-25.875-6.328-50.109-16.781-72H960v-96h96v-96h96V576H1056z M720,1068c-33.094,0-60-26.906-60-60
	s26.906-60,60-60s60,26.906,60,60S753.094,1068,720,1068z"/>
</svg>
