<?xml version="1.0" encoding="utf-8"?>
<!-- Generator: Adobe Illustrator 16.0.0, SVG Export Plug-In . SVG Version: 6.00 Build 0)  -->
<!DOCTYPE svg PUBLIC "-//W3C//DTD SVG 1.1//EN" "http://www.w3.org/Graphics/SVG/1.1/DTD/svg11.dtd">
<svg version="1.1" id="Layer_1" xmlns="http://www.w3.org/2000/svg" xmlns:xlink="http://www.w3.org/1999/xlink" x="0px" y="0px"
	 width="1152px" height="1152px" viewBox="0 0 1152 1152" enable-background="new 0 0 1152 1152" xml:space="preserve">
<path d="M819.822,332.178C708.154,220.51,583.684,163.933,541.808,205.808c-30.399,30.399-8.901,104.33,47.881,185.29
	L227.814,640.18c-94.616-60.863-176.62-82.21-211.232-47.598C-36.409,645.573,41.74,809.64,192.099,959.998
	c150.358,150.36,314.318,228.399,367.308,175.408c34.595-34.595,13.332-116.487-47.428-211.011l248.93-362.081
	c80.957,56.779,154.886,78.276,185.283,47.878C988.068,568.316,931.49,443.846,819.822,332.178z"/>
<path d="M24,1128c24,24,58.403,24,58.403,24c49.652-39.049,87.729-68.905,87.729-68.905c-16.742-14.886-33.28-30.478-49.489-46.688
	c-17.963-17.963-35.156-36.319-51.454-54.894c0,0-29.996,38.253-69.189,88.088C0,1069.602,0,1104,24,1128z"/>
</svg>
