<?xml version="1.0" encoding="utf-8"?>
<!-- Generator: Adobe Illustrator 16.0.1, SVG Export Plug-In . SVG Version: 6.00 Build 0)  -->
<!DOCTYPE svg PUBLIC "-//W3C//DTD SVG 1.1//EN" "http://www.w3.org/Graphics/SVG/1.1/DTD/svg11.dtd">
<svg version="1.1" id="Layer_1" xmlns="http://www.w3.org/2000/svg" xmlns:xlink="http://www.w3.org/1999/xlink" x="0px" y="0px"
	 width="1152px" height="1152px" viewBox="0 0 1152 1152" enable-background="new 0 0 1152 1152" xml:space="preserve">
<path d="M720,576c0,79.5-64.5,144-144,144s-144-64.5-144-144s64.5-144,144-144S720,496.5,720,576z"/>
<path d="M576,96c-232.22,0-425.919,164.906-470.394,384H0v192c0,0,240,0,264,0s24-24,24-24v-72c0-159.058,128.942-288,288-288
	c79.529,0,151.529,32.235,203.646,84.354l135.765-135.765C828.549,149.726,708.549,96,576,96z"/>
<path d="M576,1056c232.22,0,425.92-164.906,470.395-384H1152V480c0,0-240,0-264,0s-24,24-24,24v72c0,159.059-128.941,288-288,288
	c-79.529,0-151.529-32.235-203.646-84.354L236.589,915.411C323.451,1002.274,443.451,1056,576,1056z"/>
</svg>
