<?xml version="1.0" encoding="utf-8"?>
<!-- Generator: Adobe Illustrator 16.0.1, SVG Export Plug-In . SVG Version: 6.00 Build 0)  -->
<!DOCTYPE svg PUBLIC "-//W3C//DTD SVG 1.1//EN" "http://www.w3.org/Graphics/SVG/1.1/DTD/svg11.dtd">
<svg version="1.1" id="Layer_1" xmlns="http://www.w3.org/2000/svg" xmlns:xlink="http://www.w3.org/1999/xlink" x="0px" y="0px"
	 width="1152px" height="1152px" viewBox="0 0 1152 1152" enable-background="new 0 0 1152 1152" xml:space="preserve">
<path d="M480,864c0-211.734,172.266-384,384-384c74.203,0,143.32,21.516,202.125,58.125L528,0H0v528l538.102,538.125
	C501.516,1007.344,480,938.203,480,864z M264,384c-66.281,0-120-53.719-120-120s53.719-120,120-120s120,53.719,120,120
	S330.281,384,264,384z"/>
<path d="M864,576c-159.094,0-288,128.953-288,288c0,159.094,128.906,288,288,288c159,0,288-128.906,288-288
	C1152,704.953,1023,576,864,576z M864,660c41.156,0,79.406,12.188,111.469,33.141L693.094,975.469
	C672.188,943.406,660,905.156,660,864C660,751.312,751.312,660,864,660z M864,1068c-41.156,0-79.406-12.188-111.469-33.141
	l282.281-282.328c21,32.062,33.188,70.312,33.188,111.469C1068,976.688,976.688,1068,864,1068z"/>
</svg>
