<?xml version="1.0" encoding="utf-8"?>
<!-- Generator: Adobe Illustrator 16.0.1, SVG Export Plug-In . SVG Version: 6.00 Build 0)  -->
<!DOCTYPE svg PUBLIC "-//W3C//DTD SVG 1.1//EN" "http://www.w3.org/Graphics/SVG/1.1/DTD/svg11.dtd">
<svg version="1.1" id="Layer_1" xmlns="http://www.w3.org/2000/svg" xmlns:xlink="http://www.w3.org/1999/xlink" x="0px" y="0px"
	 width="1152px" height="1152px" viewBox="0 0 1152 1152" enable-background="new 0 0 1152 1152" xml:space="preserve">
<path d="M1104,576C1104,576,1104,624,1104,576s-24-144-24-144s-24-168-24-240c0-96-96-96-96-96H384v516l144,228v264h48
	c0,0,144,0,144-144c0-96,0-288,0-288h288C1008,672,1104,672,1104,576z"/>
<path d="M48,96C0,96,0,144,0,144v624c0,0,0,48,48,48s240,0,240,0V96C288,96,96,96,48,96z M144,732c-33.141,0-60-26.859-60-60
	s26.859-60,60-60s60,26.859,60,60S177.141,732,144,732z"/>
</svg>
