<?xml version="1.0" encoding="utf-8"?>
<!-- Generator: Adobe Illustrator 16.0.4, SVG Export Plug-In . SVG Version: 6.00 Build 0)  -->
<!DOCTYPE svg PUBLIC "-//W3C//DTD SVG 1.1//EN" "http://www.w3.org/Graphics/SVG/1.1/DTD/svg11.dtd">
<svg version="1.1" id="Layer_1" xmlns="http://www.w3.org/2000/svg" xmlns:xlink="http://www.w3.org/1999/xlink" x="0px" y="0px"
	 width="1152px" height="1152px" viewBox="0 0 1152 1152" enable-background="new 0 0 1152 1152" xml:space="preserve">
<path d="M120,0C96,0,48,0,24,0S0,24,0,24v1104c0,0,0,24,24,24s72,0,96,0s24-24,24-24V24C144,24,144,0,120,0z"/>
<path d="M864,480c114.75,0,217.594,50.836,288,130.852V96c0,0-96.094,48-240.047,48S624,48,480,48S240,96,240,96v144
	c0,0,96-48,144-48v384c-48,0-144,48-144,48v144c0,0,95.906-48,239.953-48c9.188,0,18.375,1.406,27.562,2.109
	C564.094,580.453,702.422,480,864,480z"/>
<path d="M864,576c-159.047,0-288,128.953-288,288s128.953,288,288,288s288-128.953,288-288S1023.047,576,864,576z M864,672
	c34.5,0,66.938,9.141,94.922,25.078L697.078,958.922C681.094,930.938,672,898.547,672,864C672,757.969,757.969,672,864,672z
	 M864,1056c-34.5,0-66.938-9.094-94.922-25.078l261.844-261.844C1046.906,797.062,1056,829.453,1056,864
	C1056,970.031,970.031,1056,864,1056z"/>
</svg>
