<?xml version="1.0" encoding="utf-8"?>
<!-- Generator: Adobe Illustrator 16.0.4, SVG Export Plug-In . SVG Version: 6.00 Build 0)  -->
<!DOCTYPE svg PUBLIC "-//W3C//DTD SVG 1.1//EN" "http://www.w3.org/Graphics/SVG/1.1/DTD/svg11.dtd">
<svg version="1.1" id="Layer_1" xmlns="http://www.w3.org/2000/svg" xmlns:xlink="http://www.w3.org/1999/xlink" x="0px" y="0px"
	 width="1152px" height="1152px" viewBox="0 0 1152 1152" enable-background="new 0 0 1152 1152" xml:space="preserve">
<path d="M864,672H720c-26.391,0-48,21.609-48,48v144c0,26.391,21.609,48,48,48h144c26.391,0,48-21.609,48-48V720
	C912,693.609,890.391,672,864,672z"/>
<path d="M1152,624V432H960v48H624v-48H432v192h48v336h-48v192h192v-48h336v48h192V960h-48V624H1152z M1008,960h-48v48H624v-48h-48
	V624h48v-48h336v48h48V960z"/>
<path d="M336,336h144v-48c0-26.391-21.609-48-48-48H288c-26.391,0-48,21.609-48,48v144c0,26.391,21.609,48,48,48h48V336z"/>
<polygon points="336,576 192,576 192,528 144,528 144,192 192,192 192,144 528,144 528,192 576,192 576,336 672,336 672,192 
	720,192 720,0 528,0 528,48 192,48 192,0 0,0 0,192 48,192 48,528 0,528 0,720 192,720 192,672 336,672 "/>
</svg>
