<?xml version="1.0" encoding="utf-8"?>
<!-- Generator: Adobe Illustrator 16.0.4, SVG Export Plug-In . SVG Version: 6.00 Build 0)  -->
<!DOCTYPE svg PUBLIC "-//W3C//DTD SVG 1.1//EN" "http://www.w3.org/Graphics/SVG/1.1/DTD/svg11.dtd">
<svg version="1.1" id="Layer_1" xmlns="http://www.w3.org/2000/svg" xmlns:xlink="http://www.w3.org/1999/xlink" x="0px" y="0px"
	 width="1152px" height="1152px" viewBox="0 0 1152 1152" enable-background="new 0 0 1152 1152" xml:space="preserve">
<path d="M303.764,779.002c6.901,0.562,13.803,1.124,20.705,1.686c0-2.021-1.291-10.798,0-12.038c1.135-1.091,8.691,0,10.208,0
	c6.197,0,12.394,0,18.59,0c2.481,0,8.684,1.271,8.899-1.28c-0.252,2.992,7.02,11.337,8.834,14.019
	c4.252,6.282,9.622,9.272,15.727,13.573c5.6,3.946,10.917,7.871,14.762,13.649c3.699,5.896,1.318,13.167,3.853,19.497
	c1.688,2.106,3.645,2.521,6.071,3.291c3.405,1.081,6.565,3.908,9.393,6.007c5.653,4.196,11.07,8.394,17.227,11.859
	c3.647,2.054,4.489-2.168,6.444-5.171c2.11-3.24,4.269-6.35,6.839-9.249c5.33-5.319,12.482-6.737,19.736-6.737
	c14.744,0,23.521,9.792,30.04,22.012c3.612,6.772,6.461,13.883,10.3,20.554c3.429,5.959,9.345,9.598,12.614,15.689
	c5.466,11.588,7.532,27.783,18.764,35.508c11.361,7.812,25.921,6.176,37.323,14.315c0.107-1.91,3.771-2.912,5.535-4.096
	c-2.747-1.499-4.544-9.385-5.589-12.601c-1.793-5.516-3.79-11.413-3.231-17.347c0.602-6.395,3.567-13.021,6.899-18.434
	c3.356-5.469,9.364-8.297,13.435-13.282c4.558-5.583,7.721-8.886,14.632-11.361c6.564-2.351,12.841-5.214,17.876-10.174
	c4.12-4.059,6.79-10.322,11.82-13.319c5.586-3.728,13.017-4.858,17.825-9.64c1.771,3.178,7.317-0.581,9.637-1.387
	c5.826-2.024,11.566-0.93,17.069,1.633c5.64,2.253,10.999,2.616,16.957,3.143c4.718,0.416,10.655,3.229,11.203-3.376
	c-3.258,0.453-8.315,2.261-11.071-0.481c4.392-4.517,8.911-5.187,13.82-1.088c0.746,0.591,1.325,1.312,1.737,2.166
	c0.837,1.868,1.467,0.591,3.306,1.029c2.688,0.64,2.327,5.718,4.479,7.52c3.533,2.018,12.261,6.649,15.485,2.131
	c1.517-2.125,1.629-3.991,4.734-4.3c3.474,0,4.263,3.408,4.093,6.261c4.031-0.399,5.662-5.452,7.941-8.185
	c-1.536-0.151-2.773-0.83-2.174-2.411c1.216-3.204,6.526-0.184,8.273,0.89c2.181,1.34,6.626,6.577,9.029,6.577
	c2.056,0,3.499,0.14,5.333,0.964c0-3.623-0.051-4.552-1.891-7.438c-1.248-1.957-3.884-0.889-6.339-1.674
	c-3.179-1.017-6.133-3.158-8.618-5.334c2.653-0.535,4.785-2.338,6.738-4.096c-0.6-0.553-1.082-1.196-1.446-1.93
	c1.255,0,1.93-1.641,1.93-2.643c-2.747-0.544-0.389-5.384,0-6.742c-3.91,0-3.815,1.038-6.256,4.097
	c-1.266,0.94-3.052,1.203-4.578,1.203c-2.685,0,2.088-4.497,2.405-4.817c-2.925,0-4.748,2.646-7.518,2.646
	c-2.543,0-9.568,1.574-9.568-2.407c0.567-3.417,5.116-7.195,8.455-6.359c3.97,0.993,6.329,4.271,10.562,4.918
	c-1.69-8.508,29.587-6.015,36.586-6.015c-1.919-4.484-1.714-10.318,0.482-14.68c1.555,3.622,2.622,7.673,5.088,10.829
	c2.949,3.775,8.499-0.863,12.13-1.648c9.263-2.004,17.394-5.812,27.084-3.888c7.456,1.48,15.23,4.376,19.727,10.825
	c1.308,0,2.346,4.79,6.022,5.061c5.1-0.262,9.578-1.652,13.765-4.555c7.418-5.143,15.677-11.167,25.105-6.941
	c8.627,3.866,11.427,14.812,20.732,18.126c2.764,0.984,3.609,0.064,4.216,3.115c0.392,1.974,1.219,3.772,2.372,5.414
	c2.636,3.406,2.655,8.693,2.223,12.761c-0.76,7.161-4.513,15.487,2.591,20.938c0.396-2.798,1.069-6.487,3.609-8.186
	c1.207,3.054,1.203,6.884,1.203,10.113c-1.875,1.239-4.079,1.22-2.319,3.911c1.399,2.138,12.022,15.957,11.47,16.789
	c1.582-0.906,2.93-2.012,3.85-3.614c3.058,4.115-2.11,7.002,3.609,9.871c3.685,2.462,5.301,2.12,6.392,6.97
	c1.09,4.844,1.923,8.216,7.31,9.371c3.571,0.767,6.93,2.721,9.882,4.841c4.339,3.084,2.528,7.88,3.619,12.277
	c0.577,5.21,8.397,2.794,10.831,0.718c3.693-3.693,9.711-3.73,5.625,2.468c-2.574,3.904-6.273,7.425-9.96,10.291
	c6.894-4.256,15.292-11.183,16.366-19.735c0-3.801-4.925-6.074-1.572-10.562c2.117-2.833,2.301-1.588,2.301-5.503
	c0-6.92-0.582-13.757-0.355-20.656c0.369-11.219-7.67-21.15-14.332-29.475c0,0.161,0,0.321,0,0.482
	c-4.484-5.768-8.182-10.844-8.182-18.05c0-1.414,0.561-4.215,0-5.537c-2.715-3.108-6.163-4.941-9.131-7.722
	c-7.077-6.631-9.119-17.284-12.715-25.918c-1.668-4.004-3.593-7.796-5.896-11.464c-1.335-2.126-4.564-11.744-5.434-11.859
	c0.983-2.548-0.046-5.363-0.046-8.026c0-3.109,0.83-5.699,1.688-8.667c-1.214-1.219-3.029-0.865-2.485-3.049
	c0.753-3.024,2.485-5.773,2.485-8.989c0-3.491,2.646-3.255,2.646-6.019c0-2.89,3.776-4.136,4.331-7.459
	c0.501-3.062,1.051-6.318,3.854-8.184c2.602-2.654,5.742-0.963,1.443-5.297c4.6-0.666,11.795-2.766,11.795-8.544
	c0-3.296,2.981-2.756,5.053-5.175c2.924-1.933,0.853-4.778,3.98-6.173c6.426-2.866,4.098-8.631,5.736-13.865
	c1.328-4.242,4.983-9.209,8.008-12.397c3.282-3.461,6.709-5.29,12.306-6.018c3.243-0.422,4.437,1.006,4.926-2.706
	c0.301-2.282,0.309-4.582,0.659-6.855c0.564-3.67,2.07-5.771,4.822-8.073c1.008-1.005,1.888-2.119,2.886-3.128
	c-0.425-1.277-0.573-3.035,0.485-4.089c3.229,1.064,6.996-3.084,9.388-4.636c4.012-2.604,6.041-1.387,10.353-2.103
	c0-5.398,3.963-7.65,6.009-12.273c-1.991,2.645-7.439,2.898-10.493,4.398c-3.519,1.729-4.981,1.854-8.999,1.854
	c0.453-0.59,0.536-1.233,0.247-1.93c1.426,1.451,4.127,2.074,5.672,0.486c0.666-0.882,1.23-1.825,1.694-2.829
	c1.715-3.108,0.825-1.47-0.872-3.188c1.199-0.512,2.164-1.315,2.894-2.411c-3.677-2.616-8.051-2.185-12.281-3.124
	c4.308,0.957,6.233-2.152,9.867-3.375c-0.429,0.607-0.91,1.169-1.442,1.687c1.246,0.21,4.24-0.383,5.176,0.242
	c1.425,0.952,1.26,1.515,3.129,0.861c3.646-1.274,6.408-5.181,8.223-8.396c1.648-2.922,1.523-5.588,1.523-8.835
	c0-3.485,1.424-6.013-2.406-6.013c0.197,0.959,3.323,7.143,1.776,7.531c-0.776,0.194-3.219-3.691-3.219-4.404
	c-3.831,0.552-2.547,4.099-4.331,6.504c-0.915-2.525-2.202-4.87-3.854-6.989c-1.526,1.927-3.056,2.407-5.393,2.407
	c-3,0-3.462,4.889-7.359,0.964c4.431,0,7.564-1.146,8.179-5.779c1.499,0.151,3.42,0.108,3.132-1.924c0.648-1.3,2.034,0,3.132,0
	c0.239-0.965,0.239-1.929,0-2.894c1.425,1.421,3.15,0.969,5.053,0.969c-0.203-1.388-3.558-9.301-4.536-8.985
	c0.9-1.106-1.019-2.568-1.57-3.171c-1.926-2.101-2.045,1.382-5.087,0.001c-5.429-2.465-10.133-6.3-15.328-9.244
	c1.148,0.433,0.112-0.196-0.201-0.506c1.833,0.917,7.91,5.772,10.113,3.613c-3.625-2.711-7.142-6.945-11.07-8.905
	c0.872,0.438,5.053,3.855,5.053,0.239c0-3.287,0.235-2.646,3.371-2.646c-0.723-7.268-12.545-7.323-16.848-12.282
	c4.028,2.889,8.834,3.751,13.477,5.296c-1.085-4.359-3.637-9.736-8.441-10.932c-3.531-0.879-6.822-0.502-10.097-2.543
	c-1.807-0.905-3.154-2.471-4.813-3.606c-0.321,0.479-0.644,0.959-0.965,1.438c0-5.321,18.407,5.43,20.705,3.132
	c-2.626-3.511-12.762-6.751-11.795-11.796c0.885,0.847,6.495,7.431,6.495,3.854c-1.307,0-1.609-1.958-2.527-2.679
	c-2.554-2.007-5.614-5.507-7.1-8.396c0.539-1.59,2.449-1.928,1.929-3.76c-0.708-2.492-0.506-3.061-3.132-3.943
	c0.721-0.727,1.516-0.79,2.167-1.444c-0.516-1.044-1.773-3.674-1.443-4.816c0-1.749,5.073-3.758,6.318-4.633
	c2.708-1.902,3.613-5.238,6.442-5.238c-2.484,4.119-6.337,6.631-7.614,11.564c-0.984,3.806,4.768,5.976,3.274,8.415
	c-0.638-0.643-0.995,0-1.678,0c1.476,1.497,1.479,0.726,2.402,0.726c0,4.397,4.838,5.773,8.668,5.773
	c-0.181,1.396-0.292,1.204-1.81,1.204c-4.484,0-2.504,4.254-0.299,6.741c1.756,1.979,1.781,4.308,4.276,2.646
	c2.205-2.168,2.772,0.666,1.441,2.646c1.035-0.607,1.924-0.894,3.124-0.961c-1.083,1.623-1.829,2.925-1.92,4.814
	c0.957-0.24,3.013-1.447,3.85-1.447c0.944,0,2.153,0.965,2.646,0.965c0.783-1.041,3.041-3.124,4.575-3.124
	c-2.168,1.991-3.401,1.074-3.671,4.328c-0.211,2.545-1.659,4.483-2.438,6.831c-1.126,3.394-0.949,12.281,2.975,13.631
	c0-2.941-0.216-5.483,0.134-8.616c0.362-3.245,1.686-6.471,2.999-9.437c0.705-1.274,4.452-8.217,1.929-7.225
	c2.783,0,0.348-7.605,2.407-9.145c-0.057,0.328,0.024,0.328,0.243,0c0,1.261,0.987,7.676,0.479,8.182
	c2.264-1.106,0.964-12.003,0.964-13.84c0-0.737-2.174-2.585-2.409-3.248c1.849,0,0.188-2.831-0.051-3.401
	c-0.256-0.612-6.328-0.315-7.896-1.651c-2.169-1.904-4.582-5.029-3.606-7.946c1.041-3.114-2.11-4.671-3.368-7.225
	c-1.027-1.027-1.432-3.701-2.468-4.392c-1.827-1.217,0.062-1.267,0.062-2.826c0.818,6.654,8.864,8.386,10.583,14.441
	c1.58,0.653,2.996-2.406,4.699-2.406c2.066,0,2.529,3.959,2.529,5.538c2.626,0,4.071-9.9,5.054-11.799
	c1.853-4.201,5.054-9.59,5.054-14.238c0-5.29,0-10.58,0-15.869c0-1.802-1.795-4.251-2.107-6.266
	c-0.432-2.782-5.483,0.702-6.886-1.531c-1.281-2.04,2.126-5.109,2.641-6.906c0.78-2.724,1.655-5.267,2.742-7.898
	c0.093,0.883,0.016,1.443,1.204,1.443c0.221-0.354,0.542-0.595,0.964-0.722c-0.705-0.938-0.743-2.044-0.479-3.128
	c0.988-1.004,0.877-3.179,1.909-4.419c1.776-2.136,3.947-4.064,6.39-5.406c9.121-5.012,18.996-8.233,27.321-14.485
	c1.605,0.212,6.527-1.543,7.461-4.335c-2.008,0-2.407-7.207-2.407-8.423c3.585,0.721,3.539,6.715,7.702,4.57
	c1.122-2.181,1.325-0.73,3.093-2.383c2.125-1.985,1.812-5.854,4.609-7.24c0.427,1.287-0.584,5.054,1.204,5.054
	c3.999,0,4.716-5.612,8.004-6.891c2.188-0.852,3.632,0.415,5.747,0.09c2.723-0.417,0.526,1.261,2.137,1.261
	c-0.656-2.295-8.503-19.931-12.035-12.751c0.843,0,8.495,3.396,6.888,5.928c-3.053,4.809-10.595,4.278-13.867,0.21
	c-1.812-2.252-4.241-4.529-5.532-7.104c0-0.741-2.451-0.238-3.283-0.238c-3.128,0-3.194-0.647-2.108-3.462
	c1.346-3.485-0.105-5.816,3.702-8.333c-2.862,0-7.967-1.448-7.462-4.726c0.428-2.781,0.303-6.181,0.863-8.237
	c1.137-4.164,0.35-6.218,1.873-10.627c0.639-1.851,3.711-6.187,0.63-7.225c1.34-1.002,1.906-3.032,2.414-4.57
	c0.151-0.92,0.553-1.723,1.204-2.407c-0.405-0.814-1.644-1.377-2.172-2.164c0.927,0.347,2.904,1.585,3.854,1.443
	c2.099-0.314,1.971-3.131,4.093-3.131c4.219,0,4.133-4.41,5.291-7.943c2.202-1.455,3.363-1.815,3.628-4.248
	c0.405-3.714,0.894-7.432,1.19-11.154c1.438,1.135,2.878,2.271,4.316,3.406c0.878,0.693,0.092,2.062,0.795,2.879
	c1.868,2.172,4.755-3.559,4.755-4.963c0-2.046-1.925-2.922-0.239-4.934c0.128,0,3.371-2.522,3.371-0.725c0,1.422,3.254,0.54,3.609,0
	c0.894-0.588,2.407-4.868,2.407-5.774c0-3.079,3.412-1.96,5.052-3.612c1.05-1.057,1.713-5.233,1.442-5.778
	c-1.48-1.48,0.262-2.19,1.355-2.796c2.206-1.222,1.733-2.61,1.573-4.858c-0.271-3.818-3.602-4.859-6.661-4.859
	c-6.256,0-8.299-9.612-14.899-10.976c-3.96-0.818-4.492-5.271-6.117-8.944c-3.357-7.59-6.423-15.348-10.454-22.607
	c-1.863-3.354-6.816-4.898-9.811-7.298c-6.593-3.989-8.595,3.947-12.559,7.325c-4.978,4.241-5.324-2.51-10.061-2.51
	c-2.122,0-3.302,8.469-3.556,10.151c-1.816,12.044-4.83,26.774-0.567,38.223c2.986,8.02,0.231,20.06-6.469,25.037
	c-1.74,1.292-5.162,2.731-5.473,5.871c-0.181,1.813,1.003,4.394-1.096,5.166c-4.588,1.687-34.567,10.416-33.948,13.851
	c-0.344-1.907-6.704,1.339-8.73,2.108c-5.588,2.12-11.176,4.24-16.764,6.36c-7.665,2.908-14.017,13.329-16.552,20.799
	c-0.476,1.63,0.089,3.723-0.718,5.299c-2.022,2.987-5.874,4.776-6.622,8.544c-0.777,3.908,8.941,12.806,3.488,15.521
	c-3.734,2.811-6.32,6.783-10.105,9.63c-4.382,2.553-9.129,4.185-13.716,6.289c-6.806,3.123-19.565,12.286-27.211,9.602
	c0.972,2.556,2.127,5.008,3.142,7.546c0.549,1.372,2.879,2.069,2.879,2.327c0,3.256-2.195,4.674-4.298,7.095
	c-6.92,7.971-13.396,16.917-21.209,23.961c-0.081-0.326-0.162-0.652-0.243-0.978c-1.925,2.402-5.336,3.642-7.762,5.539
	c-2.89,2.259-5.256,4.792-7.701,7.501c-2.111,2.339-5.484,6.674-8.763,7.297c-4.328,0.822-5.925-0.311-8.999,3.495
	c-1.819,2.735-4.739,2.805-7.455,1.438c-1.893-0.937-2.988-1.209-4.936-0.239c-1.987,0.99-1.889-0.338-3.854-1.262
	c-4.583-2.156-8.395-1.515-6.466-7.441c0.874-2.684,3.012-6.242,2.011-8.988c-1.961-5.382,6.606-9.552,8.569-13.976
	c1.297-2.923,0.617-6.182,1.302-9.25c-3.039-0.624-4.548-7.321-5.516-9.763c-2.342-5.909-4.459-16-10.845-19
	c-6.812-3.2-11.583,4.537-12.588,10.146c-1.688,9.409-9.923,3.832-8.582-3.473c1.391-7.585,7.707-11.399,7.396-19.867
	c-0.232-6.289-1.296-13.038-6.575-17.125c-5.232-4.05-13.035-6.555-19.146-8.713c-3.15-1.112-6.294-3.493-9.688-2.146
	c-3.858,1.531-5.079,6.288-4.685,10.034c0.283,2.691-2.985,1.935-3.873,4.924c-1.061,3.575,2.364,6.107,2.851,9.484
	c0,2.315-1.875,6.375-4.802,4.578c-2.478-1.522-0.618-6.057-1.211-8.424c-5.305,0-12.194,13.694-9.873,18.286
	c1.26,5.036-1.375,8.41-2.324,13.09c-0.981,4.842,0.307,10.855,2.039,15.429c3.629,9.586,9.433,17.138,9.433,27.813
	c0,5.047-3.057,8.786-4.152,13.502c-0.953,4.103-1.638,8.641-5.479,11.049c0.161,0,0.321,0,0.482,0
	c-7.789,3.871-16.063,0.885-19.733-6.987c-2.812-4.914-2.654-9.531-2.654-14.799c0-5.396-2.814-8.565-4.217-13.605
	c-2.973-10.682,2.472-22.358,3.014-33.21c0-11.216,2.162-23.312,7.224-33.461c-6.597-1.312-7.149,8.445-7.215,12.908
	c-0.065,4.474-7.476,14.09-12.044,15.26c-1.686-2.564,1.828-8.57,3.613-10.353c3.729-3.743,3.126-8.737,4.261-13.465
	c1.002-4.179,3.202-9.515,7.415-11.375c3.416-1.508,4.515-3.373,7.097-5.974c0,1.2,0.253,3.221-0.481,4.339
	c5.859-1.179,3.721-7.188,9.631-9.152c2.083,0,4.692,0.521,6.513-0.641c2.94-1.876,4.603-4.179,8.415-4.179
	c4.414,0,11.311,6.485,11.311-1.443c4.541-0.45,15.012,2.325,18.052-1.921c-3.229-2.872-7.197-4.828-10.829-7.142
	c-4.298-2.739-9.295-2.003-14.203-2.003c-4.737-1.053-2.264-1.895-1.922-4.337c0.259-1.851,0-3.905,0-5.777
	c-3.133,1.565-5.229,4.568-8.323,6.088c-3.168,1.557-6.231,0.003-9.49,0.649c-6.641,2.583-11.949,7.874-18.739,9.904
	c-3.241,0.969-7.07,2.287-9.186-1.233c-0.433-3.048-3.283-5.318-5.778-6.744c-7.467-4.993-9.596,1.577-15.644,3.854
	c0-4.571,0.772-3.552,3.145-7.042c3.131-4.605,5.326-9.755,8.411-14.383c-4.626-0.819-10.456,4.44-13.484,7.463
	c-4.868,4.871-8.532,9.971-14.208,13.9c-4.369,3.024-9.075,4.527-13.435,8.156c-2.06,1.714-4.604,2.845-7.257,3.221
	c-1.794,0-7.208-0.921-7.941-3.132c3.247-1.862,6.021-4.131,6.021-8.182c-5.332,0-6.492,2.592-10.969,5.479
	c-6.12,3.948-13.431,6.74-20.811,6.07c0-3.502,4.532-5.727,6.922-7.349c4.947-3.358,8.423-7.607,11.611-12.627
	c6.551-10.294,21.319-11.145,26.722-21.901c-3.547,2.638-10.464,0.519-14.439,0.239c-2.168-0.239-4.519,0.089-6.652-0.274
	c-3.357-0.571-2.958-3.384-6.743-0.281c-4.597,3.768-9.087,6.438-13.805,1.033c-1.87-1.596-4.5-3.626-7.133-2.614
	c-3.18,1.221-4.453,1.145-7.069-1.474c-3.496-2.984-8.556-10.416-13.483-5.122c-4.379,4.704-7.295,3.472-13.557,2.202
	c-5.626-1.142-12.901-1.507-14.451-7.876c-1.392-5.717-0.998-11.545-8.096-12.551c0.321,3.771,0.643,7.542,0.964,11.313
	c-15.939,0-31.843,1.603-47.771,1.928c-20.35,0.415-40.644,0.476-60.986,0.476c-36.157,0-71.018-1.485-107.146-4.736
	c-73.591-6.621-147.41-20.62-217.967-38.952c-12.706-3.301-25.392-6.683-37.936-10.559c-6.581-2.033-13.126-4.182-19.629-6.453
	c-2.044-0.714-9.951-5.531-9.951-0.199c-0.424,1.898,1.083,5.522,1.455,7.419c0.227,1.156,0.453,2.312,0.68,3.468
	c0.25,1.274,3.2,1.021,4.029,2.121c1.547,2.052,0.822,5.046-0.864,6.733c-2.178-0.314-3.123,1.135-2.106,3.038
	c1.176,2.201,3.129,2.407,2.39,5.44c-0.562,2.309-2.412,3.856-4.376,5c-0.972-2.899,4.603-4.526,1.144-7.402
	c-3.85-3.201-9.062-4.477-13.661-6.174c-8.743-3.229-15.194-7.639-21.184-14.826c-0.943,3.328-2.681,6.488-3.21,9.922
	c-0.635,4.119,1.768,7.644,1.768,11.74c0,4.797-1.306,9.378-1.865,14.111c-0.546,4.621-0.285,9.307-0.91,13.924
	c-0.19,1.405-3.359,11.91-3.004,12.164c-0.918,4.597-0.966,9.281-1.875,13.837c-1.885,9.45-7.132,18.111-11.019,26.817
	c-3.714,8.318-5.731,17.205-9.815,25.391c-2.042,4.093-4.408,8.029-7.138,11.702c-2.312,3.092-5.653,5.523-7.635,8.846
	c-2.33,3.905-1.107,5.706-0.215,9.538c0.922,3.964-1.868,6.075-3.282,9.206c-1.772,3.924,1.12,6.925,1.745,10.679
	c1.342,1.235,6.32,1.746,7.969,2.241c-4.322-1.16-8.69-4.089-8.69,2.09c0,3.746,0.6,8.027-0.82,11.574
	c-1.459,3.647-3.044,6.772-4.317,10.564C9.99,455.772,0.758,459.162,0,466.802c0.35,4.221,3.15,5.26,5.092,8.451
	c1.649,2.709,2.724,7.05,3.632,10.079c1.009,3.362-6.673,16.515-3.188,18.298c2.61,0-1.686,6.043-1.686,6.499
	c0,4.855,3.136,8.104,5.777,11.822c2.011,2.831,4.208,5.506,5.143,8.914c0.982,3.58-0.566,5.382-0.566,8.623
	c0,2.407,4.785,3.133,5.847,6.179c1.296,3.717,1.217,4.115,4.744,5.378c-0.6-2.375-0.927-7.318,0.993-9.235
	c2.692-2.69,6.492,1.085,3.65,3.045c-6.614,4.564,1.659,8.134,0.171,14.136c-2.994-2.242-3.846-9.238-8.185-7.945
	c2.219,3.995,0.965,7.815,0.311,12.031c-0.845,5.446,2.449,7.034,6.178,10.124c2.691,2.231,6.132,6.163,3.147,9.637
	c-1.148,1.336-2.633,1.12-3.386,2.89c-0.881,2.07-0.352,4.498-0.031,6.629c1.385,9.194,6.815,15.717,11.931,23.099
	c1.541,2.223,6.546,8.541,4.867,10.623c-2.835,3.517,1.836,6.878,4.899,7.537c-1.332,4.003-3.335,8.243-3.858,12.442
	c-0.84,6.743,2.276,7.602,8.191,8.312c5.576,0.67,11.948,1.798,16.657,5.1c4.133,2.898,4.96,8.097,8.905,11.3
	c3.308,2.686,9.673,3.788,12.309,6.758c0.719,0.81,1.366,3.646,1.366,4.708c2.064,0,4.307-0.443,6.026,0.961
	c8.291,6.775,16.473,15.939,16.348,27.05c-0.016,1.364-0.839,10.091,1.402,10.275c1.363,0.112,2.726,0.225,4.089,0.338
	c6.172,0.509,12.344,1.019,18.516,1.528c6.897,0.569,13.795,1.139,20.692,1.708c2.63,0.217,6.632,1.345,9.229,0.673
	c0,5.187-0.252,4.764,4.034,6.852c5.913,2.881,11.826,5.761,17.739,8.642c16.414,7.995,32.827,15.991,49.241,23.986
	c5.887,2.868,11.774,5.735,17.661,8.604c2.188,1.065,4.224,2.446,6.657,2.663c4.69,0.417,38.542,5.172,39.22,2.767
	 M1101.213,352.477C1100.754,352.453,1101.032,352.477,1101.213,352.477C1101.213,352.477,1101.136,352.477,1101.213,352.477z"/>
</svg>
