<?xml version="1.0" encoding="utf-8"?>
<!-- Generator: Adobe Illustrator 16.0.1, SVG Export Plug-In . SVG Version: 6.00 Build 0)  -->
<!DOCTYPE svg PUBLIC "-//W3C//DTD SVG 1.1//EN" "http://www.w3.org/Graphics/SVG/1.1/DTD/svg11.dtd">
<svg version="1.1" id="Layer_1" xmlns="http://www.w3.org/2000/svg" xmlns:xlink="http://www.w3.org/1999/xlink" x="0px" y="0px"
	 width="1152px" height="1152px" viewBox="0 0 1152 1152" enable-background="new 0 0 1152 1152" xml:space="preserve">
<path d="M1104,96c-48,0-96,0-96,0v144H768V96H384v144H144V96c0,0-48,0-96,0S0,144,0,144v960c0,0,0,48,48,48s1008,0,1056,0
	s48-48,48-48V144C1152,144,1152,96,1104,96z M288,768H144V624h144V768z M528,768H384V624h144V768z M768,768H624V624h144V768z
	 M1008,768H864V624h144V768z"/>
<rect x="192" width="144" height="192"/>
<rect x="816" width="144" height="192"/>
</svg>
