<?xml version="1.0" encoding="utf-8"?>
<!-- Generator: Adobe Illustrator 16.0.0, SVG Export Plug-In . SVG Version: 6.00 Build 0)  -->
<!DOCTYPE svg PUBLIC "-//W3C//DTD SVG 1.1//EN" "http://www.w3.org/Graphics/SVG/1.1/DTD/svg11.dtd">
<svg version="1.1" id="Layer_1" xmlns="http://www.w3.org/2000/svg" xmlns:xlink="http://www.w3.org/1999/xlink" x="0px" y="0px"
	 width="1152px" height="1152px" viewBox="0 0 1152 1152" enable-background="new 0 0 1152 1152" xml:space="preserve">
<path d="M576,144C144,144,0,528,0,528s144,384,576,384s576-384,576-384S1008,144,576,144z M576,816c-159.07,0-288-128.906-288-288
	c0-159.047,128.93-288,288-288c159.094,0,288,128.953,288,288C864,687.094,735.094,816,576,816z"/>
<path d="M720,528c0,79.547-64.453,144-144,144s-144-64.453-144-144c0-79.523,64.453-144,144-144S720,448.477,720,528z"/>
</svg>
