<?xml version="1.0" encoding="utf-8"?>
<!-- Generator: Adobe Illustrator 16.0.0, SVG Export Plug-In . SVG Version: 6.00 Build 0)  -->
<!DOCTYPE svg PUBLIC "-//W3C//DTD SVG 1.1//EN" "http://www.w3.org/Graphics/SVG/1.1/DTD/svg11.dtd">
<svg version="1.1" id="Layer_1" xmlns="http://www.w3.org/2000/svg" xmlns:xlink="http://www.w3.org/1999/xlink" x="0px" y="0px"
	 width="1152px" height="1152px" viewBox="0 0 1152 1152" enable-background="new 0 0 1152 1152" xml:space="preserve">
<path d="M336,432H48V72c0,0,0-24,24-24s264,0,264,0V432z"/>
<rect x="432" y="48" width="288" height="624"/>
<path d="M1104,288H816V48c0,0,240,0,264,0s24,24,24,24V288z"/>
<rect x="816" y="384" width="288" height="384"/>
<rect x="432" y="768" width="288" height="336"/>
<path d="M336,1104c0,0-240,0-264,0s-24-24-24-24V528h288V1104z"/>
<path d="M1080,1104c-24,0-264,0-264,0V864h288v216C1104,1080,1104,1104,1080,1104z"/>
</svg>
