<?xml version="1.0" encoding="utf-8"?>
<!-- Generator: Adobe Illustrator 16.0.1, SVG Export Plug-In . SVG Version: 6.00 Build 0)  -->
<!DOCTYPE svg PUBLIC "-//W3C//DTD SVG 1.1//EN" "http://www.w3.org/Graphics/SVG/1.1/DTD/svg11.dtd">
<svg version="1.1" id="Layer_1" xmlns="http://www.w3.org/2000/svg" xmlns:xlink="http://www.w3.org/1999/xlink" x="0px" y="0px"
	 width="1152px" height="1152px" viewBox="0 0 1152 1152" enable-background="new 0 0 1152 1152" xml:space="preserve">
<path d="M864,576c-159.094,0-288,128.953-288,288c0,159.094,128.906,288,288,288c159,0,288-128.906,288-288
	C1152,704.953,1023,576,864,576z M792,1044L660,912l60-60l72,72l216-216l60,60L792,1044z"/>
<path d="M618.75,568.828c20.625-17.203,43.125-32.109,67.078-44.672C706.828,499.125,720,467.25,720,432c0-79.5-64.453-144-144-144
	s-144,64.5-144,144c0,79.547,64.453,144,144,144C591,576,605.156,573.047,618.75,568.828z"/>
<path d="M511.312,712.453C383.438,683.062,288,568.828,288,432c0-159.047,128.906-288,288-288s288,128.953,288,288
	c0,16.453-1.688,32.531-4.359,48.234c1.453-0.047,2.906-0.234,4.359-0.234c82.5,0,158.812,26.391,221.438,70.828
	C1132.125,484.641,1152,432,1152,432S1008,48,576,48S0,432,0,432s123.797,328.125,484.359,377.297
	C489.234,775.406,498.188,742.875,511.312,712.453z"/>
</svg>
