<?xml version="1.0" encoding="utf-8"?>
<!-- Generator: Adobe Illustrator 16.0.4, SVG Export Plug-In . SVG Version: 6.00 Build 0)  -->
<!DOCTYPE svg PUBLIC "-//W3C//DTD SVG 1.1//EN" "http://www.w3.org/Graphics/SVG/1.1/DTD/svg11.dtd">
<svg version="1.1" id="Layer_1" xmlns="http://www.w3.org/2000/svg" xmlns:xlink="http://www.w3.org/1999/xlink" x="0px" y="0px"
	 width="1152px" height="1152px" viewBox="0 0 1152 1152" enable-background="new 0 0 1152 1152" xml:space="preserve">
<g>
	<path d="M939.593,213.176c-112.043,0-180.67-43.947-205.891-63.73l-105.9,404.405c26.406,20.267,93.726,61.878,203.374,61.878
		c113.697,0,179.256-16.814,202.354-24.076L1152,194.882C1152,194.882,1084.191,213.176,939.593,213.176z"/>
	<path d="M656.849,110.944C631.451,91.1,563.611,48,452,48c-113.698,0-179.161,16.815-202.278,24.076L131.27,468.847
		c0,0,67.791-18.293,212.407-18.293c114.135,0,183.229,45.614,207.264,64.82L656.849,110.944z"/>
</g>
<path d="M808.322,701.428c-108.062,0-175.753-40.893-203.05-61.544L499.38,1044.255C527.585,1065.182,594,1104,699.905,1104
	c113.697,0,179.256-16.833,202.373-24.077l118.451-396.77C1020.729,683.153,952.939,701.428,808.322,701.428z"/>
<path d="M528.348,601.654c-22.953-18.615-91.565-65.151-207.523-65.151c-113.698,0-179.256,16.833-202.355,24.076L0,957.35
	c0,0,67.809-18.275,212.407-18.275c118.873,0,188.877,49.469,210.019,67.063L528.348,601.654z"/>
</svg>
