<?xml version="1.0" encoding="utf-8"?>
<!-- Generator: Adobe Illustrator 16.0.1, SVG Export Plug-In . SVG Version: 6.00 Build 0)  -->
<!DOCTYPE svg PUBLIC "-//W3C//DTD SVG 1.1//EN" "http://www.w3.org/Graphics/SVG/1.1/DTD/svg11.dtd">
<svg version="1.1" id="Layer_1" xmlns="http://www.w3.org/2000/svg" xmlns:xlink="http://www.w3.org/1999/xlink" x="0px" y="0px"
	 width="512px" height="512px" viewBox="0 0 512 512" enable-background="new 0 0 512 512" xml:space="preserve">
<path d="M506.667,37.108L474.701,5.333c0,0-5.333-5.333-16-5.333c-10.666,0-16,5.333-16,5.333L416,32l64,64l26.667-26.892
	c0,0,5.333-5.333,5.333-16C512,42.442,506.667,37.108,506.667,37.108z M448,128L160,416l-64-64L384,64L448,128z M128,448l-64-64
	L0,506.667C0,512,0,512,5.333,512C5.556,512,128,448,128,448z"/>
<path d="M176,208l64-64l-16-16V64c0-32,64-32,96-32V0h-32C112,0,64,112,64,112v40l-16,16H32L0,200v16l40,40h16l32-32v-16l16-16h56
	L176,208z"/>
<path d="M474.892,474.667l31.774-31.966c0,0,5.334-5.333,5.334-16c0-10.666-5.334-16-5.334-16L368,272l-64,64l138.892,138.667
	c0,0,5.333,5.333,16,5.333S474.892,474.667,474.892,474.667z"/>
</svg>
