<?xml version="1.0" encoding="utf-8"?>
<!-- Generator: Adobe Illustrator 16.0.4, SVG Export Plug-In . SVG Version: 6.00 Build 0)  -->
<!DOCTYPE svg PUBLIC "-//W3C//DTD SVG 1.1//EN" "http://www.w3.org/Graphics/SVG/1.1/DTD/svg11.dtd">
<svg version="1.1" id="Layer_1" xmlns="http://www.w3.org/2000/svg" xmlns:xlink="http://www.w3.org/1999/xlink" x="0px" y="0px"
	 width="512px" height="512px" viewBox="0 0 512 512" enable-background="new 0 0 512 512" xml:space="preserve">
<path d="M96,320.001c0,17.6-14.4,32-32,32l0,0c-17.6,0-32-14.4-32-32V192c0-17.6,14.4-32,32-32l0,0c17.6,0,32,14.4,32,32V320.001z"
	/>
<path d="M128,192c0,0,0,160.001,0,192s32,32,32,32v64c0,17.6,14.4,32,32,32s32-14.4,32-32v-64h64v64c0,17.6,14.4,32,32,32
	s32-14.4,32-32v-64c0,0,32,0.001,32-32s0-192,0-192H128z"/>
<path d="M480,320.001c0,17.6-14.4,32-32,32l0,0c-17.6,0-32-14.4-32-32V192c0-17.6,14.4-32,32-32l0,0c17.6,0,32,14.4,32,32V320.001z"
	/>
<path d="M128,160h256c0-37.379-16.029-71.016-41.585-94.418l36.251-36.271c0,0,12-12,0-24S354.756,5.4,354.756,5.4l-40.663,40.516
	C296.657,37.019,276.915,32,256,32s-40.657,5.019-58.092,13.916L157.245,5.399c0,0-11.911-12.089-23.911-0.089s0,24,0,24
	l36.252,36.271C144.03,88.984,128,122.621,128,160z M304,88c13.256,0,24,10.746,24,24s-10.744,24-24,24s-24-10.746-24-24
	S290.744,88,304,88z M232,112c0,13.254-10.744,24-24,24s-24-10.746-24-24s10.744-24,24-24S232,98.746,232,112z"/>
</svg>
