<?xml version="1.0" encoding="utf-8"?>
<!-- Generator: Adobe Illustrator 16.0.4, SVG Export Plug-In . SVG Version: 6.00 Build 0)  -->
<!DOCTYPE svg PUBLIC "-//W3C//DTD SVG 1.1//EN" "http://www.w3.org/Graphics/SVG/1.1/DTD/svg11.dtd">
<svg version="1.1" id="Layer_1" xmlns="http://www.w3.org/2000/svg" xmlns:xlink="http://www.w3.org/1999/xlink" x="0px" y="0px"
	 width="512px" height="512px" viewBox="0 0 512 512" enable-background="new 0 0 512 512" xml:space="preserve">
<path fill-rule="evenodd" clip-rule="evenodd" d="M262.301,44.555C295.941,0.216,342.71,0,342.71,0s6.955,41.686-26.464,81.844
	c-35.684,42.879-76.244,35.862-76.244,35.862S232.386,83.983,262.301,44.555z"/>
<path fill-rule="evenodd" clip-rule="evenodd" d="M244.28,146.908c17.308,0,49.911-18.908,91.72-18.908
	c71.967,0,99.792,46.327,99.792,46.327s-55.372,28.31-55.372,97.003C380.42,348.824,448,376,448,376s-46.821,135.248-111.95,135.248
	c-29.914,0-53.17-20.159-84.688-20.159c-32.119,0-63.994,20.911-84.753,20.911C107.135,512,32,383.259,32,279.773
	C32,177.956,96,128,152,128C190.778,128,224.12,146.908,244.28,146.908z"/>
</svg>
