<?xml version="1.0" encoding="utf-8"?>
<!-- Generator: Adobe Illustrator 16.0.1, SVG Export Plug-In . SVG Version: 6.00 Build 0)  -->
<!DOCTYPE svg PUBLIC "-//W3C//DTD SVG 1.1//EN" "http://www.w3.org/Graphics/SVG/1.1/DTD/svg11.dtd">
<svg version="1.1" id="Layer_1" xmlns="http://www.w3.org/2000/svg" xmlns:xlink="http://www.w3.org/1999/xlink" x="0px" y="0px"
	 width="512px" height="512px" viewBox="0 0 512 512" enable-background="new 0 0 512 512" xml:space="preserve">
<polygon points="256,384 289.188,320 336.562,384 379.281,288 416,320 416,416 256,416 "/>
<path d="M357.188,192c-3.688,22.812-11.062,44.438-21.812,64H448v192H224v-98.688C203.875,356.125,182.406,360,160,360v152h352V192
	H357.188z"/>
<path d="M160,0C71.625,0,0,71.641,0,160c0,88.344,71.625,160,160,160s160-71.656,160-160C320,71.641,248.375,0,160,0z M128,256V64
	l112,96L128,256z"/>
</svg>
