<?xml version="1.0" encoding="utf-8"?>
<!-- Generator: Adobe Illustrator 16.0.4, SVG Export Plug-In . SVG Version: 6.00 Build 0)  -->
<!DOCTYPE svg PUBLIC "-//W3C//DTD SVG 1.1//EN" "http://www.w3.org/Graphics/SVG/1.1/DTD/svg11.dtd">
<svg version="1.1" id="Layer_1" xmlns="http://www.w3.org/2000/svg" xmlns:xlink="http://www.w3.org/1999/xlink" x="0px" y="0px"
	 width="512px" height="512px" viewBox="0 0 512 512" enable-background="new 0 0 512 512" xml:space="preserve">
<path d="M149.312,266.688c0,0-21.312,21.312-21.312,42.625C128,330.688,149.312,352,149.312,352L160,362.688
	c0,0,10.75,10.594,24.562,16.844C184.344,375.688,184,371.875,184,368c0-14,1.688-27.562,4.688-40.625L181.312,320
	c0,0-5.312-5.312-5.312-10.688c0-5.312,5.312-10.625,5.312-10.625l36.094-36.094c12.344-17.531,27.625-32.844,45.156-45.156L320,160
	l-32-32L149.312,266.688z"/>
<path d="M208.688,459.688C197.5,466.625,183.75,472,168,472c-24,0-44-12-56-24s-45.875-45.875-48-48c0,0-24-32-24-56s12-44,24-56
	S224.188,127.812,288,64c0,0,24-24,48-24s48,24,48,24s24,24,24,48s-24,48-24,48l0,0l-24.438,24.438
	c2.812-0.125,5.594-0.438,8.438-0.438c17.031,0,33.438,2.5,49.125,6.875C425.938,182,448,158.188,448,112c0-48-24-72-32-80
	S384,0,336,0s-72,24-80,32c0,0-212,212-224,224S0,288,0,344s32,88,32,88l48,48c0,0,32,32,88,32c29.438,0,52-8.812,67-17.188
	C224.906,484.219,216.062,472.438,208.688,459.688z"/>
<path d="M368,224c-79.531,0-144,64.469-144,144s64.469,144,144,144s144-64.469,144-144S447.531,224,368,224z M368,272
	c18.25,0,35.156,5.406,49.719,14.281L286.281,417.719C277.406,403.156,272,386.25,272,368C272,315.062,315.062,272,368,272z
	 M368,464c-18.25,0-35.156-5.406-49.719-14.281l131.438-131.438C458.594,332.844,464,349.75,464,368
	C464,420.938,420.938,464,368,464z"/>
</svg>
