<?xml version="1.0" encoding="utf-8"?>
<!-- Generator: Adobe Illustrator 16.0.1, SVG Export Plug-In . SVG Version: 6.00 Build 0)  -->
<!DOCTYPE svg PUBLIC "-//W3C//DTD SVG 1.1//EN" "http://www.w3.org/Graphics/SVG/1.1/DTD/svg11.dtd">
<svg version="1.1" id="Layer_1" xmlns="http://www.w3.org/2000/svg" xmlns:xlink="http://www.w3.org/1999/xlink" x="0px" y="0px"
	 width="512px" height="512px" viewBox="0 0 512 512" enable-background="new 0 0 512 512" xml:space="preserve">
<path d="M288,480c0,0-32,32-88,32s-88-32-88-32l-48-48c0,0-32-32-32-88s20-76,32-88S288,32,288,32c8-8,32-32,80-32s72,24,80,32
	s32,32,32,80s-24,72-32,80L277.312,362.688c0,0-21.312,21.312-42.625,21.312C213.312,384,192,362.688,192,362.688L181.312,352
	c0,0-21.312-21.312-21.312-42.688c0-21.312,21.312-42.625,21.312-42.625L320,128l32,32L213.312,298.688
	c0,0-5.312,5.312-5.312,10.625c0,5.375,5.312,10.688,5.312,10.688L224,330.688c0,0,5.312,5.312,10.688,5.312
	c5.312,0,10.625-5.312,10.625-5.312L416,160l0,0c0,0,24-24,24-48s-24-48-24-48s-24-24-48-24s-48,23.984-48,23.984
	C256.188,127.812,108,276,96,288s-24,32-24,56s24,56,24,56c2.125,2.125,36,36,48,48s32,24,56,24s44-12,56-24s192-192,192-192l32,32
	L288,480z"/>
</svg>
