<?xml version="1.0" encoding="utf-8"?>
<!-- Generator: Adobe Illustrator 16.0.1, SVG Export Plug-In . SVG Version: 6.00 Build 0)  -->
<!DOCTYPE svg PUBLIC "-//W3C//DTD SVG 1.1//EN" "http://www.w3.org/Graphics/SVG/1.1/DTD/svg11.dtd">
<svg version="1.1" id="Layer_1" xmlns="http://www.w3.org/2000/svg" xmlns:xlink="http://www.w3.org/1999/xlink" x="0px" y="0px"
	 width="512px" height="512px" viewBox="0 0 512 512" enable-background="new 0 0 512 512" xml:space="preserve">
<rect x="214.059" y="-2.51" transform="matrix(0.7071 0.7071 -0.7071 0.7071 134.8629 -149.5879)" width="67.882" height="181.019"/>
<path d="M192.035,365.262c0.604-39.328,14.167-75.563,36.605-104.622L224,256L18.3,426.3l0.036-0.021C7.175,435.068,0,448.692,0,464
	c0,26.509,21.49,48,48,48c15.308,0,28.932-7.175,37.721-18.336L85.7,493.7L192.035,365.262z"/>
<path d="M368,192c5.164,0,10.272,0.237,15.325,0.675L432,144l-64-64L240,208l20.64,20.64C290.372,205.681,327.615,192,368,192z"/>
<path d="M492.393,243.607L512,224l-48-48l-29.187,29.187C456.511,214.123,476.05,227.265,492.393,243.607z"/>
<path d="M368,224c-79.529,0-144,64.471-144,144s64.471,144,144,144s144-64.471,144-144S447.529,224,368,224z M448,384h-64v64h-32
	v-64h-64v-32h64v-64h32v64h64V384z"/>
</svg>
