<?xml version="1.0" encoding="utf-8"?>
<!-- Generator: Adobe Illustrator 16.0.1, SVG Export Plug-In . SVG Version: 6.00 Build 0)  -->
<!DOCTYPE svg PUBLIC "-//W3C//DTD SVG 1.1//EN" "http://www.w3.org/Graphics/SVG/1.1/DTD/svg11.dtd">
<svg version="1.1" id="Layer_1" xmlns="http://www.w3.org/2000/svg" xmlns:xlink="http://www.w3.org/1999/xlink" x="0px" y="0px"
	 width="512px" height="512px" viewBox="0 0 512 512" enable-background="new 0 0 512 512" xml:space="preserve">
<path d="M480,448v-24c0,0,0-8-8-8s-200,0-208,0s-8,8-8,8v24c0,0-16,0-24,0s-8,8-8,8v56h288v-56c0,0,0-8-8-8S480,448,480,448z"/>
<g>
	
		<rect x="290.746" y="85.495" transform="matrix(0.7071 0.7071 -0.7071 0.7071 222.8632 -186.0374)" width="90.51" height="181.017"/>
	
		<rect x="214.059" y="-2.511" transform="matrix(-0.7071 -0.7071 0.7071 -0.7071 361.1408 325.5823)" width="67.88" height="181.017"/>
	
		<rect x="333.487" y="230.061" transform="matrix(-0.7071 0.7071 -0.7071 -0.7071 910.4819 150.868)" width="181.017" height="67.882"/>
</g>
<path d="M256,288l-32-32L18.3,426.3l0.036-0.021C7.175,435.068,0,448.692,0,464c0,26.509,21.49,48,48,48
	c15.308,0,28.932-7.175,37.721-18.336L85.7,493.7L256,288z"/>
</svg>
