<?xml version="1.0" encoding="utf-8"?>
<!-- Generator: Adobe Illustrator 16.0.1, SVG Export Plug-In . SVG Version: 6.00 Build 0)  -->
<!DOCTYPE svg PUBLIC "-//W3C//DTD SVG 1.1//EN" "http://www.w3.org/Graphics/SVG/1.1/DTD/svg11.dtd">
<svg version="1.1" id="Layer_1" xmlns="http://www.w3.org/2000/svg" xmlns:xlink="http://www.w3.org/1999/xlink" x="0px" y="0px"
	 width="512px" height="512px" viewBox="0 0 512 512" enable-background="new 0 0 512 512" xml:space="preserve">
<rect x="96" enable-background="new    " width="64" height="96"/>
<rect x="320" enable-background="new    " width="64" height="96"/>
<path enable-background="new    " d="M448,64h-32v64H288V64h-96v64H64V64c0,0,0,0-32,0S0,96,0,96s0,352,0,384s32,32,32,32h416
	c0,0,32,0,32-32s0-384,0-384S480,64,448,64z M128,448H64v-64h64V448z M128,352H64v-64h64V352z M128,256H64v-64h64V256z M224,448h-64
	v-64h64V448z M224,352h-64v-64h64V352z M224,256h-64v-64h64V256z M320,448h-64v-64h64V448z M320,352h-64v-64h64V352z M320,256h-64
	v-64h64V256z M416,448h-64v-64h64V448z M416,352h-64v-64h64V352z M416,256h-64v-64h64V256z"/>
</svg>
