<?xml version="1.0" encoding="utf-8"?>
<!-- Generator: Adobe Illustrator 16.0.1, SVG Export Plug-In . SVG Version: 6.00 Build 0)  -->
<!DOCTYPE svg PUBLIC "-//W3C//DTD SVG 1.1//EN" "http://www.w3.org/Graphics/SVG/1.1/DTD/svg11.dtd">
<svg version="1.1" id="Layer_1" xmlns="http://www.w3.org/2000/svg" xmlns:xlink="http://www.w3.org/1999/xlink" x="0px" y="0px"
	 width="512px" height="512px" viewBox="0 0 512 512" enable-background="new 0 0 512 512" xml:space="preserve">
<path d="M256,0C114.615,0,0,114.615,0,256s114.615,256,256,256s256-114.615,256-256S397.385,0,256,0z M256,448
	c-106.039,0-192-85.961-192-192c0-106.039,85.961-192,192-192c106.039,0,192,85.961,192,192C448,362.039,362.039,448,256,448z"/>
<path d="M296,256c0-9.006-2.978-17.315-8-24.001V104c0-4.4-3.6-8-8-8h-48c-4.4,0-8,3.6-8,8v128
	c-3.288,4.377-5.689,9.454-6.962,14.962l-67.381,67.381c-3.111,3.111-3.111,8.203,0,11.314l36.687,36.686
	c3.111,3.111,8.202,3.111,11.313,0l67.381-67.381C282.774,290.863,296,274.982,296,256z"/>
</svg>
