<?xml version="1.0" encoding="utf-8"?>
<!-- Generator: Adobe Illustrator 16.0.1, SVG Export Plug-In . SVG Version: 6.00 Build 0)  -->
<!DOCTYPE svg PUBLIC "-//W3C//DTD SVG 1.1//EN" "http://www.w3.org/Graphics/SVG/1.1/DTD/svg11.dtd">
<svg version="1.1" id="Layer_1" xmlns="http://www.w3.org/2000/svg" xmlns:xlink="http://www.w3.org/1999/xlink" x="0px" y="0px"
	 width="512px" height="512px" viewBox="0 0 512 512" enable-background="new 0 0 512 512" xml:space="preserve">
<path d="M480,32c-32,0-288,0-320,0s-32,32-32,32v64c0,0-64,0-96,0S0,160,0,160v192c0,0,0,32,32,32s32,0,32,0v96c0,0,0,32,32,0
	s96-96,96-96s96,0,128,0s32-32,32-32s32,32,64,64s32,0,32,0v-96c0,0,0,0,32,0s32-32,32-32V64C512,64,512,32,480,32z M480,288h-64v80
	l-80-80H160V64h320V288z"/>
</svg>
