<?xml version="1.0" encoding="utf-8"?>
<!-- Generator: Adobe Illustrator 16.0.4, SVG Export Plug-In . SVG Version: 6.00 Build 0)  -->
<!DOCTYPE svg PUBLIC "-//W3C//DTD SVG 1.1//EN" "http://www.w3.org/Graphics/SVG/1.1/DTD/svg11.dtd">
<svg version="1.1" id="Layer_1" xmlns="http://www.w3.org/2000/svg" xmlns:xlink="http://www.w3.org/1999/xlink" x="0px" y="0px"
	 width="512px" height="512px" viewBox="0 0 512 512" enable-background="new 0 0 512 512" xml:space="preserve">
<path d="M192,192v288c0,0,0,32,32,32s192,0,224,0s32-32,32-32V320H368c-26.406,0-48-21.594-48-48V160c0,0-64,0-96,0S192,192,192,192
	z"/>
<path d="M352,272c0,8.812,7.188,16,16,16h112L352,160V272z"/>
<path d="M192,112c0,8.812,7.188,16,16,16h112L192,0V112z"/>
<path d="M160,0c0,0-64,0-96,0S32,32,32,32v288c0,0,0,32,32,32c14.219,0,53.719,0,96,0V0z"/>
</svg>
