<?xml version="1.0" encoding="utf-8"?>
<!-- Generator: Adobe Illustrator 16.0.1, SVG Export Plug-In . SVG Version: 6.00 Build 0)  -->
<!DOCTYPE svg PUBLIC "-//W3C//DTD SVG 1.1//EN" "http://www.w3.org/Graphics/SVG/1.1/DTD/svg11.dtd">
<svg version="1.1" id="Layer_1" xmlns="http://www.w3.org/2000/svg" xmlns:xlink="http://www.w3.org/1999/xlink" x="0px" y="0px"
	 width="512px" height="512px" viewBox="0 0 512 512" enable-background="new 0 0 512 512" xml:space="preserve">
<path d="M416,288c-22.789,0-43.719,7.946-60.183,21.211L288,264v-16l67.817-45.211C372.281,216.054,393.211,224,416,224
	c53.02,0,96-42.98,96-96s-42.98-96-96-96s-96,42.98-96,96c0,11.033,1.867,21.628,5.292,31.495L256,208C131.726,120.173,64,88,64,88
	L0,128.185c32-0.185,223.878,127.93,223.878,127.93S32,384,0.032,384.044L64,424c0,0,67.724-32.173,192-120l69.292,48.505
	C321.867,362.371,320,372.967,320,384c0,53.02,42.98,96,96,96s96-42.98,96-96S469.02,288,416,288z M416,88c22.091,0,40,17.909,40,40
	s-17.909,40-40,40s-40-17.909-40-40S393.909,88,416,88z M416,424c-22.091,0-40-17.909-40-40s17.909-40,40-40s40,17.909,40,40
	S438.091,424,416,424z"/>
</svg>
