<?xml version="1.0" encoding="utf-8"?>
<!-- Generator: Adobe Illustrator 16.0.1, SVG Export Plug-In . SVG Version: 6.00 Build 0)  -->
<!DOCTYPE svg PUBLIC "-//W3C//DTD SVG 1.1//EN" "http://www.w3.org/Graphics/SVG/1.1/DTD/svg11.dtd">
<svg version="1.1" id="Layer_1" xmlns="http://www.w3.org/2000/svg" xmlns:xlink="http://www.w3.org/1999/xlink" x="0px" y="0px"
	 width="512px" height="512px" viewBox="0 0 512 512" enable-background="new 0 0 512 512" xml:space="preserve">
<path d="M480,128V96c0,0-0.001-32-32-32s-96,0-96,0V32c0,0,0-32-32-32s-96,0-128,0s-32,32-32,32v32c0,0-64,0-96,0S32,96,32,96v32
	H480z M192,32h128v32H192V32z"/>
<path d="M64,160v352h384V160H64z M192,440c0,0-0.001,8-8,8s-40,0-48,0s-8-8-8-8V200c0,0-0.001-8,8-8s40,0,48,0s8,8,8,8V440z
	 M288,440c0,0-0.001,8-8,8c-8,0-40,0-48,0s-8-8-8-8V200c0,0-0.001-8,8-8s40,0,48,0c8,0,8,8,8,8V440z M384,440c0,0-0.001,8-8,8
	c-8,0-40,0-48,0s-8-8-8-8V200c0,0-0.001-8,8-8c8,0,39.999,0,48,0c8,0,8,8,8,8V440z"/>
</svg>
