<?xml version="1.0" encoding="utf-8"?>
<!-- Generator: Adobe Illustrator 16.0.1, SVG Export Plug-In . SVG Version: 6.00 Build 0)  -->
<!DOCTYPE svg PUBLIC "-//W3C//DTD SVG 1.1//EN" "http://www.w3.org/Graphics/SVG/1.1/DTD/svg11.dtd">
<svg version="1.1" id="Layer_1" xmlns="http://www.w3.org/2000/svg" xmlns:xlink="http://www.w3.org/1999/xlink" x="0px" y="0px"
	 width="512px" height="512px" viewBox="0 0 512 512" enable-background="new 0 0 512 512" xml:space="preserve">
<path d="M432.906,294.625c-1.844-2.219-3.844-6.812-5.656-12.031C462.344,273.5,480,256,480,256c-32-32,32-192-95.938-192
	c-51.531,0-71.719,31.25-79.812,68.438c2.969,6.781,4.75,14.5,4.75,23.156c0,14.156-3.219,31.75-10.281,47.406
	C298.688,232.938,296,248,288,256c0,0,17.656,17.5,52.75,26.625c-1.781,5.188-3.781,9.781-5.625,12
	c-10.719,12.844-29.594,18.156-46.219,24.375C317.094,330.875,360,350.844,360,402.75V416h48.5C512,416,512,384,512,384
	s0-11.812,0-32C512,315.562,455.062,321.125,432.906,294.625z"/>
<path d="M128.938,480C3.188,480,0,454.531,0,454.531s0-26.094,0-51.781c0-46.344,69.625-43.5,97.812-77.219
	c6.406-7.688,15.5-35.406,10.812-50.844c0,0-26.375-57.188-26.375-72.75c0,0,0,0-7.75,0c-15.625,0-23.344-30.906-23.344-46.344
	s15.469-16.281,15.469-16.281v-14C67.938,73.312,109,32,160.094,32c51,0,91.906,41.312,93.219,93.312v14
	c0,0,15.688,0.844,15.688,16.281s-7.75,46.344-23.344,46.344c-7.781,0-7.781,0-7.781,0c0,15.562-26.562,72.75-26.562,72.75
	c-4.656,15.438,4.531,43.156,10.938,50.844C250.438,359.25,320,356.406,320,402.75c0,25.688,0,51.781,0,51.781
	S316.812,480,191.188,480H128.938z"/>
</svg>
