<?xml version="1.0" encoding="utf-8"?>
<!-- Generator: Adobe Illustrator 16.0.1, SVG Export Plug-In . SVG Version: 6.00 Build 0)  -->
<!DOCTYPE svg PUBLIC "-//W3C//DTD SVG 1.1//EN" "http://www.w3.org/Graphics/SVG/1.1/DTD/svg11.dtd">
<svg version="1.1" id="Layer_1" xmlns="http://www.w3.org/2000/svg" xmlns:xlink="http://www.w3.org/1999/xlink" x="0px" y="0px"
	 width="512px" height="512px" viewBox="0 0 512 512" enable-background="new 0 0 512 512" xml:space="preserve">
<path d="M416,0H128c0,0-32,0-32,32s0,416,0,448s32,32,32,32h288c0,0,32,0,32-32s0-416,0-448S416,0,416,0z M272,488
	c-13.254,0-24-10.745-24-24s10.746-24,24-24c13.255,0,24,10.745,24,24S285.255,488,272,488z M384,416H160V96h224V416z"/>
</svg>
