<?xml version="1.0" encoding="utf-8"?>
<!-- Generator: Adobe Illustrator 16.0.1, SVG Export Plug-In . SVG Version: 6.00 Build 0)  -->
<!DOCTYPE svg PUBLIC "-//W3C//DTD SVG 1.1//EN" "http://www.w3.org/Graphics/SVG/1.1/DTD/svg11.dtd">
<svg version="1.1" id="Layer_1" xmlns="http://www.w3.org/2000/svg" xmlns:xlink="http://www.w3.org/1999/xlink" x="0px" y="0px"
	 width="512px" height="512px" viewBox="0 0 512 512" enable-background="new 0 0 512 512" xml:space="preserve">
<path d="M448,288H323.906L240,376.562L156.094,288H32c-17.594,0-32,14.406-32,32v128c0,17.594,14.406,32,32,32h416
	c17.594,0,32-14.406,32-32V320C480,302.406,465.594,288,448,288z M96,424c-22.062,0-40-17.938-40-40s17.938-40,40-40
	s40,17.938,40,40S118.062,424,96,424z"/>
<path d="M112,160c24,0,80,0,80,0V0h96v160c0,0,56,0,80,0s16,16,8,24S240,320,240,320S112,192,104,184S88,160,112,160z"/>
</svg>
