<?xml version="1.0" encoding="utf-8"?>
<!-- Generator: Adobe Illustrator 16.0.1, SVG Export Plug-In . SVG Version: 6.00 Build 0)  -->
<!DOCTYPE svg PUBLIC "-//W3C//DTD SVG 1.1//EN" "http://www.w3.org/Graphics/SVG/1.1/DTD/svg11.dtd">
<svg version="1.1" id="Layer_1" xmlns="http://www.w3.org/2000/svg" xmlns:xlink="http://www.w3.org/1999/xlink" x="0px" y="0px"
	 width="512px" height="512px" viewBox="0 0 512 512" enable-background="new 0 0 512 512" xml:space="preserve">
<path d="M416,0c-32,0-224,0-224,0l0,112c0,26.4-21.6,48-48,48H32v320c0,0,0,32,32,32s320,0,352,0s32-32,32-32V32C448,32,448,0,416,0
	z M96,416l32-96l64,64L96,416z M224,352l-64-64l96-96l64,64L224,352z M384,192c-16,16-32,32-32,32l-64-64c0,0,16-16,32-32s32,0,32,0
	l32,32C384,160,400,176,384,192z"/>
<path d="M160,112c0,8.8-7.2,16-16,16H32L160,0V112z"/>
</svg>
