<?xml version="1.0" encoding="utf-8"?>
<!-- Generator: Adobe Illustrator 16.0.1, SVG Export Plug-In . SVG Version: 6.00 Build 0)  -->
<!DOCTYPE svg PUBLIC "-//W3C//DTD SVG 1.1//EN" "http://www.w3.org/Graphics/SVG/1.1/DTD/svg11.dtd">
<svg version="1.1" id="Layer_1" xmlns="http://www.w3.org/2000/svg" xmlns:xlink="http://www.w3.org/1999/xlink" x="0px" y="0px"
	 width="512px" height="512px" viewBox="0 0 512 512" enable-background="new 0 0 512 512" xml:space="preserve">
<path d="M506.667,69.108L442.701,5.333c0,0-5.333-5.333-16-5.333c-10.666,0-16,5.333-16,5.333L368,48l96,96l42.667-42.892
	c0,0,5.333-5.333,5.333-16C512,74.442,506.667,69.108,506.667,69.108z M432,176L192,416l-96-96L336,80L432,176z M160,448l-96-96
	L0,506.667C0,512,0,512,5.333,512C5.556,512,160,448,160,448z"/>
</svg>
