<?xml version="1.0" encoding="utf-8"?>
<!-- Generator: Adobe Illustrator 16.0.1, SVG Export Plug-In . SVG Version: 6.00 Build 0)  -->
<!DOCTYPE svg PUBLIC "-//W3C//DTD SVG 1.1//EN" "http://www.w3.org/Graphics/SVG/1.1/DTD/svg11.dtd">
<svg version="1.1" id="Layer_1" xmlns="http://www.w3.org/2000/svg" xmlns:xlink="http://www.w3.org/1999/xlink" x="0px" y="0px"
	 width="512px" height="512px" viewBox="0 0 512 512" enable-background="new 0 0 512 512" xml:space="preserve">
<path d="M240,0C107.452,0,0,107.452,0,240c0,132.549,107.452,240,240,240c132.549,0,240-107.451,240-240
	C480,107.452,372.549,0,240,0z M240,64c37.039,0,71.399,11.452,99.753,30.993L94.993,339.752C75.452,311.399,64,277.039,64,240
	C64,142.798,142.798,64,240,64z M240,416c-37.04,0-71.399-11.451-99.752-30.993l244.759-244.759C404.549,168.601,416,202.96,416,240
	C416,337.202,337.202,416,240,416z"/>
</svg>
