<?xml version="1.0" encoding="utf-8"?>
<!-- Generator: Adobe Illustrator 16.0.4, SVG Export Plug-In . SVG Version: 6.00 Build 0)  -->
<!DOCTYPE svg PUBLIC "-//W3C//DTD SVG 1.1//EN" "http://www.w3.org/Graphics/SVG/1.1/DTD/svg11.dtd">
<svg version="1.1" id="Layer_1" xmlns="http://www.w3.org/2000/svg" xmlns:xlink="http://www.w3.org/1999/xlink" x="0px" y="0px"
	 width="512px" height="512px" viewBox="0 0 512 512" enable-background="new 0 0 512 512" xml:space="preserve">
<polygon points="0,32 0,384 64,384 64,96 448,96 448,320 320,320 320,384 512,384 512,32 "/>
<path d="M96,224v256h192V224H96z M224,360v48c0,4.406-3.594,8-8,8h-48c-4.406,0-8-3.594-8-8v-48c0-4.406,3.593-8,8-8
	c-9.715-7.298-16-18.914-16-32c0-22.092,17.909-40,40-40s40,17.908,40,40c0,13.086-6.285,24.702-16,32
	C220.407,352,224,355.594,224,360z"/>
</svg>
