<?xml version="1.0" encoding="utf-8"?>
<!-- Generator: Adobe Illustrator 16.0.4, SVG Export Plug-In . SVG Version: 6.00 Build 0)  -->
<!DOCTYPE svg PUBLIC "-//W3C//DTD SVG 1.1//EN" "http://www.w3.org/Graphics/SVG/1.1/DTD/svg11.dtd">
<svg version="1.1" id="Layer_1" xmlns="http://www.w3.org/2000/svg" xmlns:xlink="http://www.w3.org/1999/xlink" x="0px" y="0px"
	 width="512px" height="512px" viewBox="0 0 512 512" enable-background="new 0 0 512 512" xml:space="preserve">
<g>
	<path d="M0,32v448h512V32H0z M448,416H64V96h384V416z"/>
</g>
<path d="M303.938,337.438c-4.562-5.438-15.812-17.719-14.812-29.562L311.188,256c1,0,2.75,0,5.5,0
	c11.031,0,15.469-25.125,15.469-36.094c0-11-12.156-12.219-12.156-12.219c0-0.094,0-11.938,0-11.938l1.031-0.562
	C320.094,158.125,291.625,128,255.438,128s-64.625,32-65.562,64H192c0,0,0,12.062,0,12.125c0,0-12.156,4.125-12.156,15.125
	c0,10.969,4.438,36.75,15.469,36.75c2.75,0,4.5,0,5.5,0L221,307.875c1,11.844-8.375,26.375-12.938,31.812
	C188.062,363.719,128,350.969,128,384h256C384,350.969,323.938,361.469,303.938,337.438z"/>
</svg>
