<?xml version="1.0" encoding="utf-8"?>
<!-- Generator: Adobe Illustrator 16.0.1, SVG Export Plug-In . SVG Version: 6.00 Build 0)  -->
<!DOCTYPE svg PUBLIC "-//W3C//DTD SVG 1.1//EN" "http://www.w3.org/Graphics/SVG/1.1/DTD/svg11.dtd">
<svg version="1.1" id="Layer_1" xmlns="http://www.w3.org/2000/svg" xmlns:xlink="http://www.w3.org/1999/xlink" x="0px" y="0px"
	 width="512px" height="512px" viewBox="0 0 512 512" enable-background="new 0 0 512 512" xml:space="preserve">
<path d="M32,0v480h448V0H32z M128,448H96v-32h32V448z M128,384H96v-32h32V384z M128,320H96v-32h32V320z M128,256H96v-32h32V256z
	 M128,192H96v-32h32V192z M128,128H96V96h32V128z M128,64H96V32h32V64z M352,448H160V256h192V448z M352,224H160V32h192V224z
	 M416,448h-32v-32h32V448z M416,384h-32v-32h32V384z M416,320h-32v-32h32V320z M416,256h-32v-32h32V256z M416,192h-32v-32h32V192z
	 M416,128h-32V96h32V128z M416,64h-32V32h32V64z"/>
</svg>
