<?xml version="1.0" encoding="utf-8"?>
<!-- Generator: Adobe Illustrator 16.0.4, SVG Export Plug-In . SVG Version: 6.00 Build 0)  -->
<!DOCTYPE svg PUBLIC "-//W3C//DTD SVG 1.1//EN" "http://www.w3.org/Graphics/SVG/1.1/DTD/svg11.dtd">
<svg version="1.1" id="Layer_1" xmlns="http://www.w3.org/2000/svg" xmlns:xlink="http://www.w3.org/1999/xlink" x="0px" y="0px"
	 width="512px" height="512px" viewBox="0 0 512 512" enable-background="new 0 0 512 512" xml:space="preserve">
<path d="M506.688,37.109l-32-31.781c0,0-5.312-5.328-16-5.328c-10.656,0-16,5.328-16,5.328L416,32l64,64l26.688-26.891
	c0,0,5.312-5.328,5.312-16S506.688,37.109,506.688,37.109z M128,448l-64-64L0,506.688C0,512,0,512,5.328,512
	C5.562,512,128,448,128,448z"/>
<rect x="68.353" y="194.745" transform="matrix(0.7071 -0.7071 0.7071 0.7071 -90.0387 262.6274)" width="407.294" height="90.51"/>
<path d="M91.75,292.25C74.484,268.5,64,239.547,64,208c0-79.406,64.594-144,144-144c31.547,0,60.5,10.484,84.25,27.75l45.875-45.875
	C302.5,17.234,257.281,0,208,0C93.125,0,0,93.125,0,208c0,49.281,17.234,94.5,45.875,130.125L91.75,292.25z"/>
<path d="M497.938,430.062l-114.5-110.625c17.562-27.625,28.406-59.75,31.312-94.172L225.266,414.75
	c34.422-2.906,66.547-13.75,94.172-31.312l110.625,114.5l0,0C438.75,506.625,450.75,512,464,512c26.5,0,48-21.5,48-48
	C512,450.75,506.625,438.75,497.938,430.062L497.938,430.062z"/>
</svg>
