<?xml version="1.0" encoding="utf-8"?>
<!-- Generator: Adobe Illustrator 16.0.4, SVG Export Plug-In . SVG Version: 6.00 Build 0)  -->
<!DOCTYPE svg PUBLIC "-//W3C//DTD SVG 1.1//EN" "http://www.w3.org/Graphics/SVG/1.1/DTD/svg11.dtd">
<svg version="1.1" id="Layer_1" xmlns="http://www.w3.org/2000/svg" xmlns:xlink="http://www.w3.org/1999/xlink" x="0px" y="0px"
	 width="512px" height="512px" viewBox="0 0 512 512" enable-background="new 0 0 512 512" xml:space="preserve">
<path d="M440.296,64.059c-13.594,24.75-10.406,52.407,7.062,61.814c17.47,9.406,42.628-3,56.222-27.72
	c13.562-24.719,10.406-52.407-7.062-61.814C479.049,26.933,453.891,39.339,440.296,64.059z"/>
<path d="M388.514,30.371c-9.5,17.313-7.094,36.813,5.406,43.532c12.469,6.719,30.281-1.875,39.782-19.188
	c9.5-17.283,7.094-36.782-5.406-43.501C415.826,4.495,398.014,13.058,388.514,30.371z"/>
<path d="M335.136,21.121c-6.781,15.5-3.812,31.688,6.625,36.157s24.376-4.469,31.125-19.97c6.784-15.5,3.814-31.688-6.593-36.156
	C355.854-3.317,341.886,5.62,335.136,21.121z"/>
<path d="M284.696,18.652c-4.438,10.344-1.688,21.438,6.125,24.75c7.844,3.344,17.812-2.375,22.282-12.719
	c4.469-10.344,1.75-21.438-6.095-24.75C299.165,2.62,289.196,8.308,284.696,18.652z"/>
<path d="M234.506,22.871c-5.406,9.875-3.75,21.156,3.75,25.188c7.5,4.032,17.969-0.688,23.376-10.595
	c5.406-9.906,3.781-21.188-3.75-25.219C250.444,8.214,239.944,12.964,234.506,22.871z"/>
<path d="M273.788,218.031c0.387,0.208,0.763,0.435,1.141,0.659C301.946,201.788,333.849,192,368,192
	c19.021,0,37.342,3.045,54.515,8.653c10.333-28.757,15.744-79.67-51.972-116.157c-99.473-53.563-193.852,11.657-213.508,47.47
	c-19.658,35.813-35.97,108.221-50.721,135.097c-14.75,26.844-72.16,88.752-96.723,133.503
	c-24.594,44.782,1.75,82.158,37.908,101.627c36.157,19.469,87.066,12.094,116.568-41.625c29.47-53.721,6.312-182.224,30.907-226.974
	C219.537,188.812,255.726,208.281,273.788,218.031z"/>
<path d="M368,224c-79.531,0-144,64.469-144,144s64.469,144,144,144s144-64.469,144-144S447.531,224,368,224z M368,272
	c18.25,0,35.156,5.406,49.719,14.281L286.281,417.719C277.406,403.156,272,386.25,272,368C272,315.062,315.062,272,368,272z
	 M368,464c-18.25,0-35.156-5.406-49.719-14.281l131.438-131.438C458.594,332.844,464,349.75,464,368
	C464,420.938,420.938,464,368,464z"/>
</svg>
