<?xml version="1.0" encoding="utf-8"?>
<!-- Generator: Adobe Illustrator 16.0.4, SVG Export Plug-In . SVG Version: 6.00 Build 0)  -->
<!DOCTYPE svg PUBLIC "-//W3C//DTD SVG 1.1//EN" "http://www.w3.org/Graphics/SVG/1.1/DTD/svg11.dtd">
<svg version="1.1" id="Layer_1" xmlns="http://www.w3.org/2000/svg" xmlns:xlink="http://www.w3.org/1999/xlink" x="0px" y="0px"
	 width="512px" height="512px" viewBox="0 0 512 512" enable-background="new 0 0 512 512" xml:space="preserve">
<path d="M512,288v-64l-68.375-8.562c-4.938-22.938-14-44.25-26.312-63.375l42.375-54.438l-45.25-45.25l-54.5,42.375
	c-19.062-12.375-40.438-21.438-63.375-26.375L288,0h-64l-8.562,68.375c-22.938,4.938-44.25,14-63.375,26.312L97.625,52.312
	l-45.25,45.25l42.375,54.5c-12.375,19.062-21.438,40.438-26.375,63.375L0,224v64l68.375,8.562c4.938,22.938,14,44.312,26.375,63.375
	l-42.375,54.5l45.25,45.25l54.438-42.375c19.125,12.312,40.438,21.375,63.375,26.312L224,512h64l8.562-68.375
	c22.938-4.938,44.312-14,63.375-26.375l54.5,42.375l45.25-45.25l-42.375-54.438c12.312-19.125,21.375-40.438,26.312-63.375L512,288z
	 M256,352c-53.031,0-96-42.969-96-96s42.969-96,96-96s96,42.969,96,96S309.031,352,256,352z"/>
</svg>
