<?xml version="1.0" encoding="utf-8"?>
<!-- Generator: Adobe Illustrator 16.0.1, SVG Export Plug-In . SVG Version: 6.00 Build 0)  -->
<!DOCTYPE svg PUBLIC "-//W3C//DTD SVG 1.1//EN" "http://www.w3.org/Graphics/SVG/1.1/DTD/svg11.dtd">
<svg version="1.1" id="Layer_1" xmlns="http://www.w3.org/2000/svg" xmlns:xlink="http://www.w3.org/1999/xlink" x="0px" y="0px"
	 width="512px" height="512px" viewBox="0 0 512 512" enable-background="new 0 0 512 512" xml:space="preserve">
<path d="M380.062,153.094c-0.156,0.125-0.562,0.406-1,0.719c-2.188,1.625-4.094,2.969-5.625,2.969c-1.062,0-2.312-0.438-3.625-0.906
	c-0.812-0.281-1.688-0.594-2.375-0.719c-0.375,0.438-0.688,1.969-0.875,2.844c-0.156,0.625-0.312,1.312-0.5,1.906
	c-0.625,1.969-2.375,2.125-3.562,2.25c-0.938,0.094-1.562,0.188-1.938,0.625c-0.438,0.562-1,1.094-1.5,1.594
	c-0.531,0.531-2.094,2.094-1.938,2.406c0.125,0.344,0.312,0.562,0.438,0.812c0.312,0.406,0.75,1,0.562,1.812
	c-0.125,0.812-0.75,1.375-1.75,2c-0.688,0.438-1.312,1.125-1.875,1.812c-1.094,1.25-2.188,2.5-3.875,2.688
	c-0.562,0.062-1.188,0.219-1.875,0.375c-1.031,0.25-2.125,0.469-3.062,0.469c-0.5,0-0.969-0.062-1.375-0.219
	c-0.188,0.375-0.469,0.969-0.625,1.312c-0.094,0.188-0.188,0.375-0.25,0.531c0.938,0.031,1.844,6.75,2.688,6.875
	c0.625,0.062,1.188,6.75,1.562,6.75c0.062,0,0.125,0,0.125,0c0.5,0,1.312-7.219,2.531-7.75c1.406-0.594,2.938-10.5,4.031-11.062
	c1.438-0.75,8.75-13.188,10.188-13.188c0.125,0,0.375,0,0.719,0c0.844,0,2.469,6,4.281,6c6.938,0,8.156,2.625,8.312,2.531
	c0.75-0.375,2.188,0.688,3.906,0.688c3.719,0,6.469,2.781,7.594,6.312c0.688,2.312,0.688,4.188-0.031,5.188
	c-0.812,1.156-2.188,1.375-3.188,1.375c-0.469,0.031-1.031,0.156-1.25,0.281c0.125,0.312,0.688,0.938,1.031,1.062
	c0.75,0.062,1.469,0.625,2.812,1.719c0.75,0.562,2.25,1.812,2.75,1.844c1.812,0,5.375,1.688,6.062,2.031l0.188,0.094l0.125,0.125
	c1.688,1.531,4.125,3.156,5.031,3.156c1.094,0,2.156,0.594,3.219,1.25c0.938,0.531,2,1.125,2.75,1.125c0.25,0,0.5-0.031,0.812-0.406
	c0.75-0.906,1.438-2.25,2.062-3.594c1.125-2.375,2.25-4.625,4.312-4.625c0.188,0,0.406,0.031,0.625,0.094
	c1,0.219,2,0.719,3.031,1.219c1.406,0.688,2.906,1.438,4.406,1.438c0.594,0,1.312-0.031,2.062-0.062
	c0.938-0.031,1.875-0.062,2.75-0.062c2.812,0,4.812,0.25,5.625,1.5c0.281,0.375,0.375,0.812,0.344,1.188
	c0.969-0.344,1.969-0.562,2.844-0.75c0.625-0.125,1.188-0.25,1.75-0.438c0.312-0.062,0.625-0.125,0.938-0.125
	c1.438,0,3.688,0.938,4.5,2.156l3.062-0.25c0-0.062,0-0.062,0-0.062s-2.312,0-2.188,0c0.344,0,0.5,0,0.5,0
	c0.062,0,0.188-0.5,0.312-0.688c0.312-0.688-0.875-1.781,0.156-3c1.562-1.812,1.219-5.688,1.219-10.844c0-0.25,0-0.469,0-0.625
	c0,0.062,1.281,7.375,1.125,7.438c-0.344,0.156,0.938,7.719,0.5,7.719H449.5c-2.125,0-4.062-6.125-5.281-6.125
	c-0.344,0-0.594-3.594-0.844-3.688c-0.125-0.031-0.312,5.312-0.5,5.25c-0.875-0.281-2.625,4.562-3.5,4.562h-0.062
	c-0.5,0-1.25-6.562-2.25-6.562c-1.5,0-4.125-4.188-5.125-5.688c-0.312-0.375-1.812-3.031-2.719-3.5
	c-1.906-1.031-2.969-2.562-3.344-3.469c-0.312-0.656-0.312-2.219-0.375-4.312c-0.062-1.5-0.125-4.531-0.438-5.344
	c-0.375,0.125-1.094,0.594-2.062,1.5c-0.625,0.562-1.438,0.906-2.25,1.312c-0.062,0.031-0.125,0.062-0.188,0.094
	c1.375,1.031,3.312,2.625,3.062,4.938c-0.25,2.156-1.75,3.156-2.875,3.906c-0.375,0.219-0.719,0.469-0.938,0.656
	c-0.125,0.125-0.281,0.281-0.438,0.438c-2.812,2.75-4.625,4.219-6.031,4.219c-0.719,0-1.344-0.375-1.656-0.969
	c-0.375-0.812-0.625-2.469-1-6c-0.188-1.75-0.5-4.375-0.719-4.969c-0.094-0.156-0.281-0.375-0.469-0.656
	c-0.531-0.812-1.312-1.969-2-3.219l-0.875,0.375c-0.125,0.094-1.562,0.656-3.125,0.719c0.125,0.688,0.375,1.719,0.562,2.406
	c0.375,1.656,0.75,3.062,0.625,4.062c-0.188,1.344-1.125,1.812-1.875,1.812c-1.75,0-3.75-2.5-4.188-4.531
	c-0.375-1.938-1.656-4.094-2.312-4.688c-0.5-0.375-3.25-1.531-4.75-2.125c-1.5-0.625-2.375-1-2.812-1.219
	c-0.844-0.531-5.312-3.781-5.875-6.844c-0.188-1-1.562-1.312-2.312-1.312C380.25,153.031,380.062,153.094,380.062,153.094z"/>
<path d="M395.438,153.5c1.125,2.219,3.562,3.656,5.312,4.531c1.438,0.75,4.625,3.25,5.812,4.188
	c-0.062-0.188-0.125-0.312-0.156-0.469c-0.281-1.094-1.188-1.781-2.281-2.656c-0.75-0.562-1.562-1.188-2.25-1.969
	c-0.688-0.812-2.125-1.969-3.531-3.094c-1.656-1.312-3.406-2.688-4.438-3.906s-2.281-1.906-2.906-2.031c0,0.062,0,0.125,0,0.188
	c-0.062,0.75,0.375,1.188,1.625,2.156C393.562,151.156,394.688,152.094,395.438,153.5z"/>
<path d="M449.938,205c-0.125,0-0.25-0.188-0.375-0.219c0.062,0.156,0.125,0.219,0.188,0.344c0.75,1.625,1.438,3.422,2.219,5.359
	c0.906,2.312,1.812,4.664,2.781,6.695c1.062,2.188,1,5.113,0.938,7.988c-0.031,2.219-0.062,4.682,0.562,5.557
	c0.625,0.812,1.719,1.653,2.875,2.56c2,1.5,4.25,3.249,5.062,5.561c1,2.812,3.25,5.531,3.938,5.937
	c0.688,0.219,1.688,1.375,2.688,2.812c-0.375-1.438-0.688-3.125-1-5.094c-0.062-0.469-0.156-0.906-0.25-1.375
	c-0.625-3.906-1.5-6-2.188-7.5c-0.5-1.281-4.375-5.406-5.344-6.281c-1.406-1.219-3.656-8.25-3.844-10.844
	c-0.062-0.656-0.25-0.781-0.875-1.156c-0.812-0.5-2-1.25-2.312-3.344c-0.25-1.594-1.188-3.594-2.062-5.406
	c-0.438-0.938-0.812-1.625-1.094-2.344c-0.406,0.219-0.906,0.75-1.531,0.75C450.188,205,450.062,205,449.938,205z"/>
<path d="M200.188,399.75c0,0.156,0,0.25,0,0.344c0.062,0.062,0.125,0.156,0.188,0.25C200.312,400.156,200.25,399.969,200.188,399.75
	z"/>
<path d="M173.594,136.75c1.156-0.344,1.344-0.375,2.969-1.344c1.5-0.875,2.812-1.312,4-1.312c1.031,0,2.469,0.344,3.688,1.906
	c-0.156-0.531-0.188-1.188-0.188-1.906l-0.188,0.188l-1-0.625c-0.656-0.438-2.062-1.156-2.938-1.156c-0.062,0-0.25,0-0.312,0.094
	c-1.031,1.188-2.906,1.469-4.75,1.75c-1.188,0.156-2.75,0.375-3.25,0.875s-0.938,1.5-1.312,2.531c0.5-0.156,1.125-0.375,1.75-0.562
	S173.188,136.844,173.594,136.75z"/>
<path d="M49.938,192.531c-0.031,0.031-0.062,0.062-0.125,0.094c-0.25,0.219-0.531,0.5-0.562,0.781c0,0.594,0.875,1.594,1.75,2.438
	c-0.188-0.469-0.312-0.938-0.438-1.375C50.438,193.906,50.188,193,49.938,192.531z"/>
<path d="M129.062,81.969c-0.125,0-0.25,0-0.375-0.062C128.75,82,128.781,82,128.875,82C128.938,82,129,82,129.062,81.969z"/>
<path d="M160,114.344c0-0.547-2.344-1-4.75-1.297c0.312,0.5,4.75,1.219,4.75,1.359C160,114.406,160,114.375,160,114.344z"/>
<path d="M400.375,117.875c-0.875,0.062-2.062,1.375-3.469,1.844c-0.656,0.25-1.156,2.781-1.531,2.969
	c-0.438,0.188-0.812,1.203-1.188,2.266c2.781,1.328,5.875,3.047,6.062,3.047h0.125l0.125-7.031c0.562-0.281,1.281-2.062,1.875-4.125
	c-0.25,0.125-0.625,0.172-0.812,0.281C401.375,117.25,400.812,117.875,400.375,117.875z"/>
<path d="M418.312,102.531c0.125-0.031,0.25-0.125,0.406-0.156c-0.125-0.125-0.219-0.25-0.344-0.359
	c-0.094,0.156-0.188,0.25-0.281,0.547C418.188,102.547,418.25,102.547,418.312,102.531z"/>
<path d="M158.062,76.531c-0.125-0.094-0.312-0.188-0.438-0.281s-0.312-0.188-0.438-0.281c-0.156,0.375-0.375,1.25-0.594,2.203
	c0.594-0.453,1.094-0.938,2.094-1.328C158.438,76.719,158.25,76.625,158.062,76.531z"/>
<path d="M389.562,120.125c-0.875,0-1.625-2.125-2.125-2.781c-0.688-0.906-0.812-3.125-0.438-4.5c0.125-0.5-0.5-2.688-0.906-3.688
	c-0.406-1.125-0.844-2.469-1.031-3.469c-0.625,0.531-1.312,1.375-1.375,1.812c-0.125,0.75-0.562,1.281-1.25,1.719
	c0.5-0.062,0.938-0.094,1.312-0.094c0.719,0,1.25,0.031,1.688,0.25c1.562,0.75,1.312,2.594,1.125,4.062
	c-0.094,0.781-0.188,1.594-0.125,2.281c0.125,1.188,0.938,6.938,1.375,7.375l1.312,4.906h2.812c1.125,0,1.719-1.594,2.25-3.047
	c-1.75-0.828-3.438-1.547-4.062-1.453C389.938,123.562,389.75,120.125,389.562,120.125z"/>
<path d="M473.562,256l0.031-0.062C473.562,256,473.562,256,473.5,256C473.5,256,473.531,256,473.562,256z"/>
<path d="M416.875,101.75c0,0.641,0.406,0.109,0.938-0.312c-0.031-0.047-0.062-0.078-0.094-0.125
	C417.219,101.188,416.875,101.156,416.875,101.75z"/>
<path d="M170.031,96.422c0.219,0.578,0.594,2.109,0.844,1.953c0.094-0.062,0.188,0.078,0.281,0.062
	c-0.344-0.969-0.656-1.562-0.969-1.953C170.125,96.469,170.094,96.438,170.031,96.422z"/>
<path d="M416,448v7.656c3.062-2.469,6-5.062,8.938-7.656H416z"/>
<path d="M155.875,91.781c-0.5,0-0.844,0.078-1.344,0.109l0.219-4.266c0.062-0.047,1.062-5.984,1.844-9.453
	c-1.219,0.938-2,1.922-2.469,2.797l-0.094,0.188c-0.344,0.75-0.344,0.75-0.719,0.75c-0.312,0-0.844-0.062-1.5-0.281
	c-1.25-0.344-2.281-0.5-3.125-0.5c-1.094,0-1.25,0.625-1.844,1.016c0,0.031-0.031,0.109-0.031,0.141
	c0.25,1.375,1.875,5.469,2.438,5.531c0.812,0.094,1.5,1.047,2.156,2.172c0.062,0.188,0.156,0.641,0.656,0.641
	c0.625,0,1.438,0.719,2.25,1.281c-0.688,0.047-1.281,0.094-1.875,0.156c0.781,1.984,1.25,3.938,1.312,3.938h0.594l0.188-3.969
	c0.281,0.172,0.562,0.438,0.844,0.469c1.125,0.125,2.188,3.5,2.938,3.5c0.375,0,0.625,0,0.875,0c0.281,0,1.062-2.656,1.5-2.312
	c0.125,0.125,0.25-0.203,0.406-0.25c-1.062-0.672-2.031-1.469-3.594-1.594C157,91.781,156.438,91.781,155.875,91.781z"/>
<path d="M151.25,89.844c-0.75,0.312-1.438,0.031-2.031,0.156s-1.094,0.062-1.531,0.25c-0.25,0.125-0.5,0.062-0.75,0.062
	c-0.406,0-1.125-0.156-1.625-1.031c-0.875-1.406-1.062-4.688-0.312-6.125c0.219-0.453,1.25-0.625,1.844-1.016
	c-0.156-1.391,1.125-4.031,2.406-4.641c0.5-0.312,1.125-2.781,1.062-3.344l-0.188-0.656c-0.625-0.469-0.812-0.781-1.188-0.781
	c-0.25,0-0.625-0.094-1.062,0.031c-0.312,0.094-0.562,0.062-0.812,0.062c-0.969,0-1.5-4.688-1.75-5.25
	c-0.438,0.375-1.125-3.562-2.25-3.562c-0.375,0-0.656,0-0.656,0h-0.094c0,0-1.312,3.969-2.5,3.969c-0.781,0-1.031,2.188-1.031,2.188
	c-0.594,0.312-1.031,1.594-1.344,1.781c1,0.438,2.562,1.75,3.188,3.875c0.25,0.875,0.156,2-0.25,2.719
	c-0.875,1.5-2.812,2.188-3.875,2.469c-0.125,0.031-0.25,0.094-0.312,0.125c-0.438,0.188-1.875,0.781-2.75,1.125
	c0.25,0.25,0.5,0.562,0.75,0.875c0.875,1,1.688,1.344,2.938,1.844c0.938,0.375,2.062,0.844,3.375,1.688
	c2.062,1.312,1.875,2.875,1.688,3.5c-0.531,1.844-3,3-4.438,3c-2.031,0-2.688,1.719-3.125,0.656c-0.156-0.375-0.312,2.188-0.5,2.188
	c-0.062,0-0.125,0-0.281,0c-0.719,0-1.906-2.938-2.5-2.625c-0.656,0.438-3.406,0.406-5.219,0.406c-0.812,0-2.5-0.844-3-2.188
	c-0.5-1.281,0.656-2.906,1.281-3.469c-0.156-0.094-0.281-0.375-0.406-0.469c-0.188-0.156-0.438-0.469-0.688-0.656
	c-0.188,1.188-0.375,2.312-0.375,2.719c0,1.344-0.969,1.656-1.5,1.656c-0.5,0-0.875,2.781-1.312,2.531
	c-0.562-0.375-1.5,2.094-2.875,2.094c-0.25,0-0.5,0-0.75,0c-1.875,0-2.312-2.312-3.5-1.062c-0.875,0.875-2.031,0.625-4.125,2.188
	c-1.5,1.125-3.062,1.5-3.188,1.875c-0.031,0.094,0.062,0.031,0.125,0.281c0.094,0.469-4.875,0.875-4.781,1.656
	c0.219,1.469-5.031,2.281-5.031,2.969c0,0.094,0,0.219,0,0.312c0,0.031,5.219,0.031,5.281,0.062c1.812,0.469,4.844,2.312,5.156,3.5
	c0.062,0.219,1.438,0.469,1.5,0.688c0.125-0.062,0.938-0.094,1.094-0.156c0.594-0.219,1.656-0.469,2.594-0.469
	c1.125,0,2.5,0.375,3.812,1.156c3.094,1.844,4.625,2.281,8.375,3.094c1.312,0.281,2.469,0.406,3.5,0.406
	c1.5,0,2.656-0.312,3.75-0.594c0.312-0.062,0.594-0.125,0.875-0.125c2.625,0,4.875,2.969,4.875,5.375
	c0,0.531,0.125,0.812,0.375,1.312c0.188,0.25,0.312,0.562,0.469,0.938c0.094-0.156,0.219-0.312,0.344-0.5l1.562-2.656l0.844,2.969
	c1.125,4,0.5,6.531-0.031,7.094c0.062,0.125,0.188,1.688,0.25,1.688c0.188,0,0.375,0,0.531,0c0.406,0,0.75-1.219,1.094-1.156
	c0.312,0.062,0.594-0.5,0.844-0.5c0.344,0,0.562-0.406,0.781-0.625c0.312-0.438-0.312-2.781-0.5-3.594c-0.312-1-0.562-2-0.562-2.688
	c0-0.562-0.281-1-0.812-1.688c-0.375-0.562-0.812-1.125-1.125-1.938c-0.5-1.062-0.125-1.844,0.125-2.219
	c0.406-0.625,8.156-1,9.031-1c0.562,0,2.938,0.172,5.219,0.453c-0.031-0.047-0.25-0.094-0.188-0.141
	c0.781-0.656-2.438-1.812-2.375-2.406c-1.062-1.594-4.625-3.938-5.812-4.531c-0.688-0.375-2.875-1.062-2.75-2.344
	c0.125-1.219,0.875-1.594,2.375-1.969c-0.188-0.688-0.75-1.781-0.5-3.281c0.094-0.531,0.062-1.031,0.125-1.5
	c0.312-2.312,0.531-4.5,2.625-4.5c0.281,0,0.938-0.094,1.625-0.156c0.562-0.062,1.375-0.094,2.062-0.156
	c-0.312-0.75-0.688-1.422-1.031-2.078C151.375,89.938,151.25,89.844,151.25,89.844z"/>
<path d="M205.656,406.219c0.188,0.938,0.062,2.031-0.844,3.406c-0.25,0.375-0.688,1.094-1.125,1.844
	c-2.125,3.688-2.969,4.875-3.938,5.156c-0.875,0.25-5,0.906-7.688,0.906c-1.062,0-1.812-0.125-2.312-0.312
	c-0.188,0.438-0.375,1.281-0.25,2c0.062,0.281,0.125,0.625,0.188,0.906c0.25,0.969,0.531,2.031-0.125,2.875
	c-0.312,0.375-0.812,0.781-1.781,0.781c-0.281,0-0.656-0.031-1.031-0.125c-0.938-0.188-1.938-0.562-2.875-0.875
	c-0.406-0.156-0.875-0.312-1.312-0.438c0.125,0.812,0.438,1.656,0.719,1.906c0.219,0,0.469-0.094,0.75-0.125
	c0.344-0.094,0.656-0.156,1.031-0.156c0.75,0,1.188,0.406,1.375,0.688c0.5,0.688,0.281,1.5,0.031,2.219
	c-0.812,2.219-2.844,4-3.781,4.844c-0.25,0.188-0.625,0.75-0.969,1.312c-0.781,1.188-1.844,2.812-3.406,4.094
	c-0.5,0.406-1.5,1.281-1.562,1.844c0.375,0.062,1,0.094,1.438,0.125c1.219,0,2.188,0.031,2.812,0.562
	c0.312,0.219,0.688,0.688,0.688,1.531c0.062,1.594-1.156,4.688-2.188,5.656c-0.219,0.156-0.562,0.5-1,0.906
	c-2.125,2-4.312,4-5.562,4.844c-0.812,0.562-1,2.938-0.562,4.438c0.312,1.188,3.594,4.938,5.312,5.625
	c0.812,0.312,2.125,0.438,3.25,0.562c1.875,0.156,2.938,0.281,3.438,1.188c0.219,0.469,0.188,1-0.062,1.469
	c-0.312,0.562-1.125,0.938-2.312,1.344c-8.938-3.125-17.625-6.781-26-11c-0.125-0.312-0.375-0.562-0.875-0.844
	c-0.375-0.25-0.938-0.594-1.438-1.062c-1.688-1.656-0.094-3.312,0.5-3.938c0.125-0.125,0.25-0.25,0.375-0.406
	c-0.094,0-0.188-0.062-0.25-0.062c-0.688-0.25-2.125-0.688-2.375-2.562c-0.188-1.812,0.875-3.719,1.656-5.125
	c0.156-0.219,0.281-0.5,0.406-0.688c-0.125-0.188-0.375-0.625-0.5-0.875c-0.438-0.75-0.938-1.562-1.094-2.438
	c-0.281-1.781,0.781-3.219,2.281-5.219l0.469-0.625c1.531-2.094,2.438-4.406,2.469-4.875c0-0.219-0.188-0.844-0.312-1.375
	c-0.344-1.281-0.812-3.062-0.812-4.594c0-1.375,0.375-2.312,0.75-3.25c0.312-0.781,0.688-1.594,0.875-2.875
	c0.125-0.875,0.031-0.938-0.312-1.25c-0.5-0.406-1.312-1.125-1.312-2.875c0-1.781,0.938-2.562,1.562-3
	c0.375-0.312,0.375-0.312,0.281-0.781c-0.406-2.25,0.531-3.906,1.281-5.25c0.25-0.406,0.5-0.812,0.625-1.156
	c0.25-0.625,0.562-1.438,0.812-2.312c0.438-1.312,0.938-2.781,1.5-3.938c0.438-0.938-0.312-3.438-0.625-4.688
	c-0.312-0.906-0.438-1.375-0.438-1.781c0-0.875,0.688-1.469,1.25-1.969c0.188-0.156,0.562-0.438,0.688-0.656
	c-0.562-0.656-0.812-1.344-0.688-2.031c0.188-1.188,1.188-1.812,2.125-2.406c0.438-0.281,0.875-0.562,1.188-0.844
	c0.188-0.375-0.062-1.906-0.25-3c-0.375-2-4.156-4.469-3.781-7.062c0.688-4.812-2.031-13.125-2.031-13.812c0-0.125,0-0.25,0-0.406
	c0-1.062,3.469-3.594,2.625-5.188c-1.062-2.031-0.562-3.375-1.812-4.031c-0.938-0.438-1-1.25-1.875-2
	c-0.562-0.5-1.062-1.281-1.375-1.375c-0.094-0.031-8.875-2.375-8.875-7.625c0-2-0.688-3.844-1.469-5.625
	c-0.562-1.281-1.031-2.5-1.25-3.75c-0.188-1.094-1.031-3-1.844-4.906c-1.062-2.5-2.094-4.844-2.25-6.531
	c-0.062-0.688-1.062-1.406-2.125-2.156c-1.438-1-3.062-2.125-3.531-4.125c-0.594-2.5,0.219-4.344,0.906-5.844
	c0.25-0.562,0.438-1.062,0.562-1.531c0.375-1.5-0.312-5.344-0.5-6.625l-0.062-0.344c-0.375-2.031,2.375-6.969,4.062-8
	c0.438-0.25,1.188-0.938,1.875-1.531c1.25-1.125,2.125-1.875,2.938-2.156c0.062-0.375,0.125-0.938,0.219-1.438
	c0.156-1.031,0.344-2.344,0.75-3.688c0.719-2.344-0.344-5.562-0.781-6.188c-0.5-0.438-0.812-1.188-1.281-2.5
	c-0.344-0.906-0.844-2.25-1.219-2.625c-0.188-0.188-0.625-0.281-1.188-0.281c-0.125,1.219-0.688,2.688-2.188,3.688
	c-0.75,0.469-1.438,0.719-2.125,0.719c-1.406,0-2.125-1.062-2.562-1.688c-0.094-0.125-0.188-0.281-0.25-0.344
	c-0.125-0.156-0.75-0.375-1.125-0.531c-1.062-0.406-2.375-0.906-3.219-1.938c-1.094-1.281-2.812-3.062-4-3.75
	c-0.219-0.125-0.531-0.25-0.844-0.406c-1.562-0.719-4.5-2.031-4.25-5.594c0.156-2.625-1.438-4.188-2-4.5
	c-0.094-0.062-0.219,2.531-0.375,2.438c-0.5-0.312-1.438,1.781-1.969,1.781c-0.031,0-0.062,0-0.062,0
	c-0.406,0-0.844-2.281-1.344-2.281c-0.875,0-1.656,1.469-2.438,1.031c-0.5-0.281-1.188,1.25-1.562,1.25c-0.125,0-0.25,0-0.406,0
	c-2.031,0-4.781-6-6.781-8.312c-0.25-0.312-0.469-2.188-0.688-2.5c-0.875-1.156-1.438-2.656-2.375-2.656
	c-1.062,0-1.125-0.344-2.062,0.969c-0.125,0.25-0.312,0.312-0.5,0.562c-0.562,0.75-1.281,1.031-2.062,1.031
	c-1.688,0-3-1.75-3.875-2.906c-0.062-0.031-0.125-0.156-0.125-0.156c-0.438,0-1.25,0.125-2.062,0.25
	c-1.125,0.25-2.438,0.5-3.625,0.5c-4.062,0-5.062-7.312-5.062-7.406c-0.125-1.75-2.5-2.469-5.375-3.125
	c-1.25-0.312-2.25-0.531-2.938-1c-1.875-1.281-4.062-5.969-2.938-7.938c0.062-0.469-0.438-1.969-1.125-3.281
	c-1.25-1.688-2.781-3.375-3.344-3.688c-1.219-0.094-2.156-1.562-4.469-5.344c-1.125-1.844-2.375-3.906-3.188-4.75l-0.5-0.5
	c-1.25-1.344-2.562-2.719-3.75-4.062c0.438,0.656,1,1.344,1.812,2.125c2.25,2.094,2.562,4.25,2.812,5.812
	c0.094,0.688,0.188,1.281,0.375,1.5c0.25,0.219,0.562,0.469,0.938,0.781c1.688,1.438,4,3.406,4.094,5.562
	c0.031,0.812-0.281,1.625-0.844,2.25c-0.781,0.812-1.562,0.969-2.125,0.969c-1.688,0-2.938-1.656-3.812-2.844
	c-0.219-0.25-0.5-0.625-0.625-0.75c-1.031-0.344-3.875-1.219-3.5-3.875c0.062-0.438-0.625-1.25-1.375-2.094
	c-0.562-0.656-1.25-1.438-1.875-2.375c-0.375-0.594-0.625-0.844-0.75-0.844s-0.375,0.062-0.625,0.125
	c-0.438,0.094-1.062,0.25-1.812,0.25c-1.375,0-1.906-0.812-2.062-1.188c-0.812-1.75,1.25-4.469,1.938-5.312
	c-0.062-0.375-1-1.312-1.969-1.688c-1.375-0.562-2.281-2.719-3.906-6.812c-0.094-0.281-0.219-0.531-0.344-0.844
	C58.5,134.156,98.719,85.844,151.5,57.938c0.844,0.5,1.688,0.969,2.5,1.5c1.094,0.719,3.5,1.688,5.375,2.469
	c1.562,0.625,2.812,1.156,3.438,1.531c0.875,0.469,6.438,1.531,8.812,2c1.625,0.312,2.469,0.469,2.812,0.562
	c1.312,0.406,1.562,1.875,1.938,3.906c0.188,1,0.406,2.125,0.75,3.156c0.188,0.531,0.312,0.531,0.5,0.531
	c0.312,0,0.781-0.156,1.188-0.312c0.5-0.156,0.938-0.312,1.375-0.312c1.5,0,5,2.188,6.125,3.781c0.562,0.531,3.75,1.406,6.875,1.875
	l2.062,0.344l-1.156,1.719c-0.156,0.281-1.656,2.531-2.406,3.344c-0.5,0.625-1.25,1.062-2.062,1.531
	c-0.625,0.344-1.219,0.688-1.75,1.094c-0.562,0.469-1.25,0.688-1.938,0.688c-1.438,0-2.75-0.969-4.125-2l-0.375-0.25
	c-1.125-0.844-2.812-1.375-3.812-1.5c0.062,0.125,0.156,0.281,0.25,0.5c0.25,0.219,1,0.656,1.562,0.938
	c1.062,0.625,2.438,1.375,3.438,2.312c1.875,1.625,1.938,3.375,2,4.938c0,0.438,0.031,0.844,0.062,1.312
	c0.062,0.469,0.062,1.188-0.406,1.719c-0.281,0.312-0.719,0.5-1.156,0.5c-0.688,0-1.25,0.75-2,0.25
	c-0.625-0.5-1.438-0.062-2.188-0.062c-0.062,0-0.188,0-0.25,0c-0.5,0-0.625-0.188-0.625-0.188l-0.094,0.75l-1.344-0.438
	c0,0-2.938-0.375-4.188-0.375c-0.812,0-1.5-0.094-2.031-1.094c-0.094-0.188-0.312-0.625-1.344-1.531
	c-0.188-0.125-0.312-0.219-0.375-0.25c-0.25,0.312-0.75,1.031-1.75,1.031c-0.438,0-0.875-0.156-1.281-0.5
	c-0.375-0.312-0.719-0.625-1.094-0.938c-0.344-0.312-0.844-0.75-1.156-0.938c-0.156,0.062-0.344,0.062-0.531,0.062
	c-0.719,0.031-1.344,1.641-2.031,1.844c0.438,0.281,1.156,0.422,1.531,0.688c0.844,0.625,1.562,1.156,2.188,1.219
	c2.281,0.266,3.969,0.609,5.219,1.078c-0.062-0.125-0.125-0.422-0.125-0.422h0.031c0,0,0.156,0.391,0.25,0.484
	c1.156,0.469,1.938,1.016,2.312,1.734c0.75,1.469-0.469,0.062-1.344,0.219c0.312,0.906,0.656,1.844,1.094,1.906
	c0.625,0.094,1.375,1.781,2.156,2.188c0.25,0.125,0.469,0.969,0.719,0.969c0.875,0,1.938-0.562,3.031-2.281
	c1.719-2.75,2.906-3.562,4.219-3.562c0.5,0,0.938,0.25,1.375,0.562c0.5,0.406,1.438,1.625,4.125,5.125
	c0.938,1.25,1.812,9.906,2.25,10.406c1.281,1.531,2.312-17.75,2.688,14.25c0.125,0,0.312,0,0.625,0c0.75,0,1.688-7.5,2.438-7.625
	c0.5-0.062,0.938-3.812,1.188-3.812c1.656,0,5.5,1.688,6.062,3.688c0.25,0.875,0.5,0.344,3.438,1.156
	c1.312,0.375,1.875,0.656,2.125,1.219c0.562,1.469-0.438,2.812-1.281,4.094c-0.281,0.438-0.531,0.781-0.656,1.062
	c-0.438,1-0.75,1.562-1.125,2.25c-0.156,0.25-0.312,0.469-0.438,0.781c0.062,0.031,0.125,0.062,0.188,0.125
	c0.312,0.188,0.625,0.438,0.812,0.656c0.531,0.438,0.688,0.562,0.938,0.562c0.156,0,0.312-0.031,0.531-0.094
	c0.594-0.156,1.094-0.281,1.594-0.281c2.312,0,3.188,2,3.438,2.688c0.375,0.906,0.875,1.781,1.375,2.625
	c0.312,0.531,0.594,1.031,0.875,1.562c0.562,1.125,0.562,2.688-0.031,3.625c-0.344,0.594-0.906,0.938-1.531,0.938
	c-0.438,0-1.094-0.188-1.656-1.062c-0.031-0.031-0.281-0.188-0.969-0.188c-0.375,0-0.812,0.062-1.125,0.125
	c-0.5,0.531-1.312,1.156-2.125,1.156c-0.625,0-1.219-0.344-1.562-0.906c-0.281-0.531-0.625-0.812-0.938-0.812
	c-0.125,0-0.25-6.906-0.438-6.875c-0.844,0.281-1.656-6.656-2.188-6.656c-0.312,0-0.594,0-0.875,0c-0.031,0-0.031,0-0.031,0
	c-0.062,0-0.125,0-0.125,0c-0.344,0-0.656,0-1.031,0c-0.125,0-0.281,1.031-0.406,2.25c-0.281,0.5-0.562,1.062-1.031,1.312
	c-0.312,0.188-0.75,0.406-1.25,0.406c-0.438,0-0.938,0-1.5-0.094s-1.125-0.156-1.625-0.156s-0.844,0.094-1.062,0.281
	c-0.562,0.438-1.188,0.875-1.719,1.25c-0.094,0.031-0.156,0.094-0.219,0.156c0.188,0.375,0.25,0.812,0.188,1.125
	c-0.312,1.844-4,3.375-5.312,3.375c-0.5,0-0.969-0.156-1.312-0.5c0.312,0.875,0.25,1.656,0.125,2.188
	c-0.125,0.656-0.469,1.188-0.812,1.562c0.188,0.312,0.406,0.594,0.562,0.781c0.062-0.031,0.062-0.031,0.062-0.062
	c0.375-0.344,0.812-0.812,1.5-1.281c0.469-0.312,0.875-0.438,1.312-0.438c1.812,0,1.938,2.062,1.938,3.188
	c0.031,0.312,0.062,0.812,0.125,1.031c0.125,0,0.375-0.094,0.625-0.469l0.062-0.125c0.875-1.25,1.625-2.344,2.812-2.344
	c0.438,0,1,0.125,1.562,0.781c0.75,0.938,1.438,2.656,2.25,4.938c0.25,0.625,0.188,1.312-0.125,1.875
	c-0.844,1.406-3.062,1.969-5.531,2.406c0.156-0.219,0.469-0.5,0.469-0.688v-0.062c0,0.094-7.969,0.219-8,0.312
	c-0.438,1.406-5.938,1.531-7.375,1.594c-0.5,0.031-2.969,0.062-3.375,0.125c-1.125,0.188-4.219,1.656-4.219,3
	c0,0.656,0.25,1.656,0.812,2.438c0.875,1.188,1.625,2.531,0.781,3.812c-0.562,0.906-1.938,1.312-4.25,1.312
	c-1.781,0-4-0.281-5.062-0.625c-0.062-0.031-0.25-0.062-0.375-0.062c-0.438,0-0.875,0.188-1.062,0.312
	c0.406,0.938,0.375-1.531-0.062-0.719C159.344,163.062,158.5,160,157.5,160c-0.188,0-0.344,0-0.5,0c-0.062,0,0,4.125,0.188,4.5
	c0.438,0.875,0.312,3.719-0.312,4.781c-0.688,1.062-1.938,3.062-3.125,3.062c-0.312,0-0.625,0.344-0.875,0.219
	c0.5,1.344,1.562,3.156,2.188,4.125c0.531,0.875,0.469,1.75,0.312,2.188c-0.438,1.375-2,2.031-3.625,2.688
	c-0.875,0.375-1.938,0.812-2.312,1.219c-0.5,0.469-1.25,1.469-2,2.5c-1.875,2.438-4,5.188-5.812,6.062
	c-1.062,0.469-2.125,1.719-2.531,2.875c-0.156,0.5-0.094,0.781-0.094,0.812c0.938,1.062,1.75,3.688,2.688,6.969
	c0.312,1,0.562,1.844,0.75,2.344c0.625,1.75,0.25,10.969-1.125,12.844c-0.75,1.125-1.656,6.812-2.25,6.812c-0.125,0-0.25,0-0.344,0
	c-1.969,0-2.344-7.406-2.594-8.438c-0.25-0.938-0.375-4-0.688-4.125c-2.75-1.062-3.938-7.625-4.438-10.875
	c-0.062,0.062-0.125-0.594-0.188-0.5c-0.438,0.312-0.875,0.156-1.375,0.156c-1.625,0-2.688-1.906-3.438-3.156
	c-0.062-0.125-0.125-0.281-0.188-0.375c-0.375,0.062-0.875-2.812-1.25-2.656c-1.25,0.469-2.812-2.031-4.312-2.031
	c-0.25,0-0.438,0-0.625,0c-0.375,0-0.75,2.938-1.125,2.938c-0.812,0-1.312,1.594-1.562,1.688c-0.125,1.625-1.062,3.906-2.812,3.906
	c-0.688,0-1.406-3.438-2.188-3.969c-2.188-1.375-2.375-4.562-4.75-4.562c-0.438,0-0.875,0-1.312,0c-0.375,0-0.75,0-1.094,0
	c-1.094,0-1.531,3.625-1.656,3.688c-0.75,1.5-3.469,5.781-5.312,6.438c-0.75,0.25-1.875,2.031-2.375,2.656
	c0.25,0.25,0.5,1.031,0.688,1.531c0.812,1.875,0.5,5.062-0.25,6.875c-0.875,2-0.5,6.188-0.156,9.094
	c0.344,3.094,2.531,5.25,4.844,7.438l0.438,0.5c1.062,1,2.062,2,2.562,2c0.25,0,0.688-0.188,1.625-0.938
	c1.188-1.031,2.25-1.531,3.312-1.531c0.812,0,1.438,0.344,1.812,0.562c0.281-0.312,0.625-0.969,0.375-1.969
	c-0.438-1.594-0.188-3.219,0.75-4.438c0.75-1,1.938-0.781,3.125-0.781c0.188,0,0.375,0.875,0.562,0.875c0.156,0,0.344,0,0.562,0
	c0.75,0,1.688-0.969,2.625-1.125s1.812-0.719,2.625-0.719c0.312,0,0.562-0.156,0.812-0.156c1.094,0.188,1.969,1.062,2.406,2.625
	c0.594,2.188,0.344,5.344-1.719,7.094c-1.188,1-1.188,2.25-1.094,4.219c0.031,0.938,0.094,1.875-0.094,2.812
	c-0.094,0.531-0.25,1-0.438,1.375c1.062,0.094,1.562,7.812,2.031,8.125c0.219,0.094,0.344,7.75,0.781,7.75h0.062
	c0.438,0,1.125-15.469,1.75-15.844c0.781-0.438,1.562-16.156,2.5-16.156c0.125,0,0.25,0,0.375,0c1.812,0,3.906,9.688,4.844,10.938
	c0.844,1.188,1.781,6.719,1.281,8.281c-0.688,2.188-1.25,7.656-1.062,10.812c0.125,2.25,0.562,3.812,0.938,4.406
	c0.188,0.281,0.375,1.062,0.562,1.438c0.25,0.656,1.25,2.125,2.062,2.125c0.125,0,0.25,0.094,0.438,0
	c0.438-0.25,0.906-0.406,1.375-0.656c1.188-0.562,2.562-1.219,2.875-1.75c0.375-0.531,0.938-0.844,1.688-0.844
	c1.625,0,4.312-1.562,5.094-0.281c0.219,0.344,0.281-2.469,0.281-2.469c0.125,0,0.188,0,0.312,0c0.25,0,0.438,3.375,0.625,3.25
	c0.875-0.5,1.438,0.281,2.406-1.25c0.156-0.312,0.344,0.281,0.562-0.062c1.469-2.281,3.969-4.062,5.594-4.469
	c0.25-0.062,0.812-0.312,1.25-0.656c1.312-1.031,2.812-2.062,4.375-2.062c0.25,0,0.531,0.062,0.812,0.156
	c0.844,0.25,1.25,0.844,1.438,1.219c0.469,1.188-0.188,2.406-0.75,3.625c-0.312,0.531-0.625,1.188-0.688,1.531v0.031
	c1.312-2.781,4-4.531,5.75-4.531c1.344,0,1.938,1.344,2.562,2.781c0.188,0.344,0.438,0.875,0.625,1.25
	c0.875-0.688,2.062-1.062,3.281-1.062c1.844,0,3.344,0.844,3.906,2.156c0,0,0,0,0,0.031c0.375-1.594,2.625-2.656,4.688-2.656
	c1.25,0,2.375,0.344,3.312,1c1,0.719,1.5,1.312,1.844,1.812c0.219-0.375,0.469-0.875,0.656-1.219
	c0.562-1.094,0.938-1.781,1.688-2.094c0.188-0.062,0.375-0.125,0.562-0.125c0.531,0,1,0.312,1.281,0.812
	c0.719,1.281-0.281,5.25-1.531,7.5l0.438-0.094l1,1.219c0.125,0,0.312-0.062,0.469-0.062c0.344-0.062,0.781-0.125,1.156-0.125
	c1.5,0,2.25,0.75,2.625,1.438c0.25,0.5,0.625,0.875,1.125,1.375c0.812,0.812,1.875,1.812,2.812,3.812
	c0.188,0.438,0.312,0.562,0.375,0.625c0.188-0.031,0.688-0.281,1.062-0.5c0.75-0.375,1.656-0.812,2.75-1.062
	c0.25-0.031,0.5-0.062,0.781-0.062c3.344,0,7.219,4.062,9.906,7.5c1.375,1.75,2,3.312,2.469,4.469
	c0.219,0.469,0.438,1.031,0.594,1.219c2.625,0,3.625,3.188,3.625,5.375c0,0.562-0.344,1.156-0.875,1.719
	c1.312,0.031,2.469,0.688,3.062,1.781c0.125,0.25,0.281,0.562,0.375,1c0.312-0.219,0.688-2.531,1.125-2.531
	c0.281,0,0.5-2.062,0.688-2.062s0.312,0,0.438,0c1.625,0,4.938,3.062,6.375,4.438c0.594,0.562,1.875,2.469,3.062,3.25
	c0.188,0.125,0.375,0.312,0.562,0.5l71.75-71.75c-0.406-1.75-0.531-3.688,0.875-5.812c1.062-1.625,2-4.625,2.812-7.281
	c0.938-3,1.75-5.594,2.812-6.875c1.562-1.844,5.062-3.5,7.875-4.844c0.875-0.406,1.688-0.812,2.281-1.125
	c0.719-0.406,0.844-1.219,0.906-3.156c0.062-1.438,0.125-3.156,0.75-5c1.25-3.688,3.375-6.562,5.094-6.812
	c0.312-0.188,1.031-0.812,1.594-1.312c1.125-0.969,2.438-2.125,3.875-3.062c-0.344-0.469-0.688-1.031-1-1.688
	c-0.375-0.625-0.781-1.344-1.125-1.75c-0.031-0.062-0.25-0.219-1-0.219c-0.438,0-0.938,0.062-1.375,0.125
	c-0.438,0.031-0.844,0.094-1.188,0.094c-0.312,0-0.562-0.062-0.812-0.125c-1-0.281-1.594-1.25-2.312-2.438
	c-0.375-0.562-0.812-1.281-1.188-1.625c-0.75-0.75-1.188-1.844-1.188-3.125c0-1.312,0.438-2.5,1.25-3.188
	c0.594-0.531,1.25-1.375,0.688-3.219c-0.594-2.188-1.562-8.844,1.875-10.469c0.875-0.406,2.062-0.562,3.688-0.562
	c1.438,0,3,0.125,4.375,0.25c1.125,0.125,2.25,0.188,3,0.188c0.844,0,1.75,0.094,2.75,0.188c0.969,0.125,1.938,0.188,2.812,0.188
	c1.031,0,1.375-0.156,1.5-0.188c1-2.156,1.438-4.562,1.188-6.812c-0.125-1.312-3.594-3.375-6.625-3.906
	c-2.875-0.531-3.125-1.969-3.125-2.594c0.062-0.656,0.5-2.188,3.906-2.5c1.406-0.125,1.906-0.438,2.594-0.875s1.5-0.938,2.969-1.25
	c1.125-0.219,2.281-0.5,3.344-0.75c1.562-0.375,3-0.719,4.25-0.875c0.625-0.094,0.938-0.5,0.938-2.75
	c0-2.188,3.344-3.062,6.375-3.406c0.875-0.969,3.25-3.5,4.75-4.844c1.156-1,2.688-1.5,4.625-1.5c0.719,0,1.438,0.062,2.062,0.188
	c-0.188-0.25-0.375-0.469-0.5-0.688c-1.625-2.375,0.125-13.656,0.312-14.125c0.375-0.875,1.188-8.906,2.125-8.906
	c-0.312,0-0.625,0-1,0c-1.438,0-2.938,6.75-4.062,6.25c-2-0.875-3.375,0.375-3.938-1.406c-0.406-1.156-0.469-0.344-0.188-0.969
	c-0.062-0.5-0.5-1.031-0.75-1.781c-0.438-1.344-0.688-1.781-0.688-2.406c0-1.969,5.938-9.906,10.688-11.062
	c4.062-1,9.062-3.5,11.875-6c0.125-0.125,0.156-0.219,0.312-0.375c5.938,4.594,11.656,9.469,17.125,14.625
	c-0.344,0.031-0.812,0.375-1.094,0.406c-1.156,0.125-2,0.25-3.094,1.375c-0.75,0.719-1,1.156-1.125,1.375
	c0.344,0.188,1.125,0.469,1.75,0.688c0.312,0.094,0.625,0.188,0.938,0.312c1.438,0.562,2,1.5,2.188,2.219
	c0.5,1.875-0.938,3.969-1.875,5.031c-0.125,0.156-0.344,0.375-0.625,0.625c-1.938,2.062-2.875,3.438-2.75,4.188
	c0.312,1.453-0.312,4.906-1.125,7.75c0.469-0.234,0.906-0.531,1.562-0.531c1.125,0,6.062,0.094,8.656,1.125
	c0.156,0.062,3.406-0.062,3.406-0.031c0-0.312,0-0.688,0-1c0-0.906-3.156-1.938-2.875-2.875c0.594-1.812,0.562-6.625,3.875-6.625
	c0.125,0-0.531,0-0.406,0.062c0.656,0.047,1.062-2.844,1.5-4.406c-0.156,0.047-0.344,0.094-0.531,0.094
	c-2.031,0-2.875-2.125-3.562-3.781c-0.25-0.656-0.5-1.344-0.781-1.719c-0.156-0.219-0.031-0.531-0.156-0.781
	c1.594,1.594,3.125,3.281,4.656,4.938c0.094,0.031,0.281,0.016,0.406,0.031c-0.094,0.062-0.219,0.016-0.312,0.094
	c0.188,0.188,0.375,0.375,0.562,0.578c0.094-0.172,0.188-0.453,0.281-0.422c0.031,0.016,0.062-0.156,0.094-0.188
	c0.188,0,0.281,0.062,0.5,0.031c36.688,39.094,59.469,92,60.531,149.594c-1.594,0.469-3.312,3.062-4.594,3.062
	c-0.656,0-1.156,1.781-1.594,1.844c0.219-0.125,0.406-0.438,0.469-0.188c0.062,0.562,0,0.25-0.062,0.906
	c-0.062,0.719-0.188,1.312,0.125,1.656c0.125,0.188,0.5,0.062,1,0.062c0.188,0.062,0.344-0.031,0.5-0.031
	c1.688,0,3.094-0.594,4.312-1.188c-0.062,10.5-1.031,20.75-2.5,30.844h32.344c1.312-10.5,2.219-21.125,2.219-32
	C512,114.625,397.375,0,256,0S0,114.625,0,256s114.625,256,256,256c17.188,0,33.75-2.188,49.938-5.5L205.656,406.219z M199.312,135
	c-0.188,0.031-0.438,3.531-0.625,3.531c-1.25,0-2.25,1.094-2.656,0.156s-0.094-1.219,0.844-2.062
	c0.188-0.219,0.531-0.781,0.75-1.406c0.406-1.219,1.281-2.594,2.188-3.844C199.625,133.156,199.469,135,199.312,135z M420.062,96
	c0.062,0,0.125,0,0.188,0c-0.344,0-0.812,3.969-1.156,4.797C419.469,99.25,419.688,96,420.062,96z M419.062,100.812
	c-0.031,0.094-0.094,0.344-0.125,0.312l-0.031,0.016C418.969,101,419.031,101.016,419.062,100.812z M256,32
	c12.938,0,25.531,1.344,37.875,3.453c2.125,4.546,2.25,3.078,2.156,3.219l0.031,0.141c0.688,0.375,0.875,4.156,0.938,4.469
	c0.188,0.938-0.438,3.312-1.062,4c-0.375,0.438-0.75,1.688-1,2.188c-0.375,0.688-0.875,2.844-0.688,7.281
	c0.031,0.75-0.188,1.562-0.562,2C293.375,59,292.875,59.5,292,59.5c-0.938,0-2.062,2.781-3.375,2.281
	c-1.125-0.453-2.344,1.484-3.25,1.938c0.031,0.062,0.062,0.062,0.094,0.156C285.688,64.5,286,65,286.188,65.25
	c0.562,0.781,0.938,2.062,0.438,3.438c-0.438,1.281-1.5-1.5-3-1.125c-0.438,0.125-0.875-3.562-1.25-3.562c-0.188,0-0.312,0-0.5,0
	c0.312,0,0.156,4.781,0.062,5c-0.406,0.906-1.438,3.094-3.312,3.094c-0.562,0-1.125,0.875-1.562,0.844
	c-0.375,0.031-1.594,1-2.5,1.438c-1.688,0.812-3.781,2.031-5.875,2.438c-1.062,0.219-2.219,0.406-3.562,0.406
	c-1.281,0-2.531-6.562-3.531-6.656C260.875,70.531,260.25,64,259.812,64c-0.125,0-0.219,0-0.312,0c-0.5,0-1.5,8.438-2.938,11.188
	c-0.281,0.562-0.5,4.188-0.625,4.438c-0.562,0.938-1.75,2.719-2.875,2.719c-1.062,0-2.312,0.688-3.438,0.562
	c-0.875-0.094-1.688,0.219-2.188,0.219c-0.438,0-1.125,0.625-1.875,1.125c-1.062,0.688-2.375,1.719-4.125,2.031
	c-0.531,0.094-0.688,0.281-0.688,0.281c-0.062,0.156,0.125,0.906,0.188,1.312c0.125,0.469,0.25,1.031,0.312,1.594
	c0.125,1.5-0.375,2.375-0.812,2.875c-0.562,0.562-1.312,0.875-2.188,0.875c-0.438,0-0.875-0.062-1.344-0.219h-0.031
	c0,0.219-6.406,0.438-6.438,0.625c0,0.188-6.438,0.375-6.438,0.531c0,0.312,0,0.656,0,1c0,0.688,1.312,0.781,2.594,0.859
	c-1.219,0.75-2.25,2.797-3.219,2.797c-0.875,0-1.625,0.375-1.938-0.438c-0.375-0.938-4.188-3.5-5.75-4.25s-2.594-2.688-3.406-4.375
	c-0.188-0.375-0.344-0.625-0.531-0.875c-0.281-0.562-0.312-1.156-0.125-1.688c-1.125-0.469-2.375-1.062-2.875-1.875
	c-0.562-0.938-2.5-5.469-2.688-7.031c-0.125-1.25,0.75-2.531,1.562-3.688c0.062-0.062,0.125-0.125,0.188-0.219
	c-0.438-0.094-0.938-0.156-1.406-0.156c-0.406,0-1.219-2.5-1.906-3.594c-0.594-1.031-0.938-6.625-0.688-6.625
	c-0.031,0-0.062,0-0.062,0c-0.5,0-1,2.156-1.312,1.719c-0.5-0.625-0.656-0.5-1-3.656c-0.25-2.344-0.625-4.969-1.188-6.062
	c-0.625-1.125-2.75-1.609-4.438-2.203c-1-0.375-1.938,6.016-2.625,5.609c-0.969-0.594-4.5,4.594-8.938,4.594
	c-0.062,0-0.062,0-0.062,0c-0.375,0-1.125-6.5-1.812-6.375c-1.062,0.188-2.312-2.938-3.438-2.938c-0.812,0-1.469-1.75-2-1.938
	c-0.5-0.219-0.875-1.406-1.188-1.812c-0.188,0.406-0.312,0.344-0.5,0.562c-0.75,1.188-2.125,1.75-3.5,1.75
	c-0.562,0-1.062-0.25-1.5-0.5c-0.75-0.344-1.375-1.219-2.125-2.281c-0.062-0.094-0.188-0.281-0.25-0.375
	C194.938,38.5,224.688,32,256,32z"/>
<path d="M384,320c0,0,0-56,0-80s-16-16-24-8L224,368l136,135.999c0.001,0,0.002,0,0.003,0L360,504c8,8,24,16,24-8v-80h128v-96H384z"
	/>
</svg>
