<?xml version="1.0" encoding="utf-8"?>
<!-- Generator: Adobe Illustrator 16.0.4, SVG Export Plug-In . SVG Version: 6.00 Build 0)  -->
<!DOCTYPE svg PUBLIC "-//W3C//DTD SVG 1.1//EN" "http://www.w3.org/Graphics/SVG/1.1/DTD/svg11.dtd">
<svg version="1.1" id="Layer_1" xmlns="http://www.w3.org/2000/svg" xmlns:xlink="http://www.w3.org/1999/xlink" x="0px" y="0px"
	 width="512px" height="512px" viewBox="0 0 512 512" enable-background="new 0 0 512 512" xml:space="preserve">
<path d="M288,320l154.389,154.389c3.742,3.742,8.678,5.61,13.611,5.611c4.935,0,9.867-1.867,13.611-5.611l36.777-36.777
	C510.132,433.868,512,428.934,512,424s-1.868-9.868-5.611-13.611L352,256L288,320z"/>
<path d="M416,64V32c0,0-32,0-128,0c-128,0-192,96-192,96v64l-34.452,34.452C57.191,224.825,52.597,224,48,224
	c-9.881,0-19.763,3.763-27.259,11.259l-9.482,9.482C3.763,252.237,0,262.118,0,272s3.763,19.764,11.259,27.26l41.482,41.481
	C60.237,348.237,70.119,352,80,352c9.881,0,19.763-3.763,27.259-11.259l9.482-9.482C124.237,323.763,128,313.881,128,304
	c0-4.598-0.825-9.191-2.451-13.549L160,256h64l32,32l64-64l-32-32c0,0,0-64,0-96S416,64,416,64z"/>
</svg>
