<?xml version="1.0" encoding="utf-8"?>
<!-- Generator: Adobe Illustrator 16.0.4, SVG Export Plug-In . SVG Version: 6.00 Build 0)  -->
<!DOCTYPE svg PUBLIC "-//W3C//DTD SVG 1.1//EN" "http://www.w3.org/Graphics/SVG/1.1/DTD/svg11.dtd">
<svg version="1.1" id="Layer_1" xmlns="http://www.w3.org/2000/svg" xmlns:xlink="http://www.w3.org/1999/xlink" x="0px" y="0px"
	 width="512px" height="512px" viewBox="0 0 512 512" enable-background="new 0 0 512 512" xml:space="preserve">
<path d="M448,0L212.5,235.5c-16.062-7.25-33.75-11.5-52.5-11.5c-70.688,0-128,57.281-128,128s57.312,128,128,128s128-57.281,128-128
	c0-9.844-1.344-19.344-3.438-28.562L320,288v-64h64v-64h64V96h64V0H448z M144,416c-26.5,0-48-21.5-48-48s21.5-48,48-48
	s48,21.5,48,48S170.5,416,144,416z"/>
</svg>
