<?xml version="1.0" encoding="utf-8"?>
<!-- Generator: Adobe Illustrator 16.0.4, SVG Export Plug-In . SVG Version: 6.00 Build 0)  -->
<!DOCTYPE svg PUBLIC "-//W3C//DTD SVG 1.1//EN" "http://www.w3.org/Graphics/SVG/1.1/DTD/svg11.dtd">
<svg version="1.1" id="Layer_1" xmlns="http://www.w3.org/2000/svg" xmlns:xlink="http://www.w3.org/1999/xlink" x="0px" y="0px"
	 width="512px" height="512px" viewBox="0 0 512 512" enable-background="new 0 0 512 512" xml:space="preserve">
<path d="M240,0C129.875,0,64,65.391,64,160c0,96,96,128,96,208c0,0,0,16,16,16c24.469,0,103.531,0,128,0c16,0,16-16,16-16
	c0-80,96-112,96-208S350.125,0,240,0z"/>
<path d="M312,416H168c-4.406,0-8,3.594-8,8c0,0,0,16,0,24c0,16,56,40,56,48s8,16,16,16h16c8,0,16-8,16-16s56-32,56-48c0-8,0-24,0-24
	C320,419.594,316.406,416,312,416z"/>
</svg>
