<?xml version="1.0" encoding="utf-8"?>
<!-- Generator: Adobe Illustrator 16.0.1, SVG Export Plug-In . SVG Version: 6.00 Build 0)  -->
<!DOCTYPE svg PUBLIC "-//W3C//DTD SVG 1.1//EN" "http://www.w3.org/Graphics/SVG/1.1/DTD/svg11.dtd">
<svg version="1.1" id="Layer_1" xmlns="http://www.w3.org/2000/svg" xmlns:xlink="http://www.w3.org/1999/xlink" x="0px" y="0px"
	 width="512px" height="512px" viewBox="0 0 512 512" enable-background="new 0 0 512 512" xml:space="preserve">
<g>
	<path d="M165.657,325.657c-3.111-3.111-3.111-8.203,0-11.314l148.686-148.686c3.111-3.111,8.203-3.111,11.314,0l20.686,20.687
		c3.111,3.111,3.111,8.202,0,11.313L197.657,346.343c-3.111,3.111-8.202,3.111-11.313,0L165.657,325.657z"/>
</g>
<path d="M168,424c0,0-40,40-80,0s0-80,0-80l103.187-103.187C130.395,221.61,80,272,80,272l-32,32c0,0-80,80,0,160s160,0,160,0l32-32
	c0,0,48-48,30.328-110.328L168,424z"/>
<path d="M424,168c0,0,40-40,0-80s-80,0-80,0L240.813,191.187C221.61,130.395,272,80,272,80l32-32c0,0,80-80,160,0s0,160,0,160
	l-32,32c0,0-48,48-110.328,30.328L424,168z"/>
<rect fill="none" width="512" height="512"/>
</svg>
