<?xml version="1.0" encoding="utf-8"?>
<!-- Generator: Adobe Illustrator 16.0.4, SVG Export Plug-In . SVG Version: 6.00 Build 0)  -->
<!DOCTYPE svg PUBLIC "-//W3C//DTD SVG 1.1//EN" "http://www.w3.org/Graphics/SVG/1.1/DTD/svg11.dtd">
<svg version="1.1" id="Layer_1" xmlns="http://www.w3.org/2000/svg" xmlns:xlink="http://www.w3.org/1999/xlink" x="0px" y="0px"
	 width="512px" height="512px" viewBox="0 0 512 512" enable-background="new 0 0 512 512" xml:space="preserve">
<path d="M256,0C160,0,96,71.625,96,160c0,6.438,0.812,13.656,2.156,21.406c2,14.875,5.5,29.219,11.281,42.5
	C147.844,338.812,256,512,256,512s108.156-173.188,146.562-288.094c5.781-13.281,9.281-27.625,11.281-42.5
	C415.188,173.656,416,166.438,416,160C416,71.625,352,0,256,0z M256,224c-35.344,0-64-28.656-64-64s28.656-64,64-64s64,28.656,64,64
	S291.344,224,256,224z"/>
</svg>
