<?xml version="1.0" encoding="utf-8"?>
<!-- Generator: Adobe Illustrator 16.0.1, SVG Export Plug-In . SVG Version: 6.00 Build 0)  -->
<!DOCTYPE svg PUBLIC "-//W3C//DTD SVG 1.1//EN" "http://www.w3.org/Graphics/SVG/1.1/DTD/svg11.dtd">
<svg version="1.1" id="Layer_1" xmlns="http://www.w3.org/2000/svg" xmlns:xlink="http://www.w3.org/1999/xlink" x="0px" y="0px"
	 width="512px" height="512px" viewBox="0 0 512 512" enable-background="new 0 0 512 512" xml:space="preserve">
<path d="M416,224c-32,0-32,0-32,0v-64c0-70.688-57.312-128-128-128S128,89.312,128,160v64c0,0,0,0-32,0s-32,32-32,32v224
	c0,0,0,32,32,32s288,0,320,0s32-32,32-32V256C448,256,448,224,416,224z M288,416h-64l12.245-61.225
	C224.157,347.895,216,334.903,216,320c0-22.091,17.909-40,40-40s40,17.909,40,40c0,14.903-8.157,27.895-20.245,34.775L288,416z
	 M320,224H192v-64c0-40,24-64,64-64s64,24,64,64V224z"/>
</svg>
