<?xml version="1.0" encoding="utf-8"?>
<!-- Generator: Adobe Illustrator 16.0.1, SVG Export Plug-In . SVG Version: 6.00 Build 0)  -->
<!DOCTYPE svg PUBLIC "-//W3C//DTD SVG 1.1//EN" "http://www.w3.org/Graphics/SVG/1.1/DTD/svg11.dtd">
<svg version="1.1" id="Layer_1" xmlns="http://www.w3.org/2000/svg" xmlns:xlink="http://www.w3.org/1999/xlink" x="0px" y="0px"
	 width="512px" height="512px" viewBox="0 0 512 512" enable-background="new 0 0 512 512" xml:space="preserve">
<path d="M480.016,224H256v-96C256,57.312,198.688,0,128,0S0,57.312,0,128v64h64v-64c0-40,24-64,64-64s64,24,64,64v96h-32.016
	C128,224.011,128,256,128,256v224c0,0,0,32,32,32s288,0,320,0s32-32,32-32V256C512,256,512,224.011,480.016,224z M352,416h-64
	l12.245-61.225C288.157,347.895,280,334.902,280,320c0-22.091,17.909-40,40-40s40,17.909,40,40c0,14.902-8.157,27.895-20.245,34.775
	L352,416z"/>
</svg>
