<?xml version="1.0" encoding="utf-8"?>
<!-- Generator: Adobe Illustrator 16.0.1, SVG Export Plug-In . SVG Version: 6.00 Build 0)  -->
<!DOCTYPE svg PUBLIC "-//W3C//DTD SVG 1.1//EN" "http://www.w3.org/Graphics/SVG/1.1/DTD/svg11.dtd">
<svg version="1.1" id="Layer_1" xmlns="http://www.w3.org/2000/svg" xmlns:xlink="http://www.w3.org/1999/xlink" x="0px" y="0px"
	 width="512px" height="512px" viewBox="0 0 512 512" enable-background="new 0 0 512 512" xml:space="preserve">
<path d="M128,256c0,35.312-28.656,64-64,64S0,291.312,0,256s28.656-64,64-64S128,220.688,128,256z"/>
<path d="M320,256c0,35.312-28.656,64-64,64s-64-28.688-64-64s28.656-64,64-64S320,220.688,320,256z"/>
<path d="M512,256c0,35.312-28.656,64-64,64s-64-28.688-64-64s28.656-64,64-64S512,220.688,512,256z"/>
</svg>
