<?xml version="1.0" encoding="utf-8"?>
<!-- Generator: Adobe Illustrator 16.0.1, SVG Export Plug-In . SVG Version: 6.00 Build 0)  -->
<!DOCTYPE svg PUBLIC "-//W3C//DTD SVG 1.1//EN" "http://www.w3.org/Graphics/SVG/1.1/DTD/svg11.dtd">
<svg version="1.1" id="Layer_1" xmlns="http://www.w3.org/2000/svg" xmlns:xlink="http://www.w3.org/1999/xlink" x="0px" y="0px"
	 width="512px" height="512px" viewBox="0 0 512 512" enable-background="new 0 0 512 512" xml:space="preserve">
<path d="M480,32c-32,0-416,0-448,0S0,64,0,64v320c0,0,0,32,32,32s128,0,128,0l96,96l96-96c0,0,96,0,128,0s32-32,32-32V64
	C512,64,512,32,480,32z M416,320H96v-64h320V320z M416,192H96v-64h320V192z"/>
</svg>
