<?xml version="1.0" encoding="utf-8"?>
<!-- Generator: Adobe Illustrator 16.0.1, SVG Export Plug-In . SVG Version: 6.00 Build 0)  -->
<!DOCTYPE svg PUBLIC "-//W3C//DTD SVG 1.1//EN" "http://www.w3.org/Graphics/SVG/1.1/DTD/svg11.dtd">
<svg version="1.1" id="Layer_1" xmlns="http://www.w3.org/2000/svg" xmlns:xlink="http://www.w3.org/1999/xlink" x="0px" y="0px"
	 width="512px" height="512px" viewBox="0 0 512 512" enable-background="new 0 0 512 512" xml:space="preserve">
<g>
	<path d="M504.239,223.044C508.508,205.97,497.6,192,480,192H32c-17.6,0-28.507,13.97-24.239,31.044l48.477,193.911
		C60.507,434.03,78.399,448,96,448h320c17.6,0,35.492-13.97,39.761-31.045L504.239,223.044z"/>
</g>
<path d="M416,96c-32,0-128,0-128,0V64c0,0-0.002-32-32-32C224,32,128,32,96,32S64,64,64,64l0,96h384v-32C448,128,448,96,416,96z"/>
</svg>
