<?xml version="1.0" encoding="utf-8"?>
<!-- Generator: Adobe Illustrator 16.0.1, SVG Export Plug-In . SVG Version: 6.00 Build 0)  -->
<!DOCTYPE svg PUBLIC "-//W3C//DTD SVG 1.1//EN" "http://www.w3.org/Graphics/SVG/1.1/DTD/svg11.dtd">
<svg version="1.1" id="Layer_1" xmlns="http://www.w3.org/2000/svg" xmlns:xlink="http://www.w3.org/1999/xlink" x="0px" y="0px"
	 width="512px" height="512px" viewBox="0 0 512 512" enable-background="new 0 0 512 512" xml:space="preserve">
<path d="M480,128c-32,0-320,0-352,0s-32,32-32,32v352h416V160C512,160,512,128,480,128z M384,160h32v32h-32V160z M320,160h32v32h-32
	V160z M448,448H160V224h288V448z M480,192h-32v-32h32V192z"/>
<path d="M384,0C352,0,64,0,32,0S0,32,0,32v352h64V96h352V32C416,32,416,0,384,0z M256,64h-32V32h32V64z M320,64h-32V32h32V64z
	 M384,64h-32V32h32V64z"/>
</svg>
