<?xml version="1.0" encoding="utf-8"?>
<!-- Generator: Adobe Illustrator 16.0.1, SVG Export Plug-In . SVG Version: 6.00 Build 0)  -->
<!DOCTYPE svg PUBLIC "-//W3C//DTD SVG 1.1//EN" "http://www.w3.org/Graphics/SVG/1.1/DTD/svg11.dtd">
<svg version="1.1" id="Layer_1" xmlns="http://www.w3.org/2000/svg" xmlns:xlink="http://www.w3.org/1999/xlink" x="0px" y="0px"
	 width="512px" height="512px" viewBox="0 0 512 512" enable-background="new 0 0 512 512" xml:space="preserve">
<path d="M384,96v64c0,0,0,32-32,32s-160,0-192,0s-32-32-32-32V96c0,0,0,0-32,0s-32,32-32,32l0,352c0,0,0,32,32,32s288,0,320,0
	s32-32,32-32V128c0,0,0-32-32-32S384,96,384,96z"/>
<path d="M311.416,96C316.865,86.584,320,75.661,320,64c0-35.346-28.654-64-64-64c-35.346,0-64,28.654-64,64
	c0,11.661,3.134,22.584,8.583,32H160v64h192V96H311.416z M256,96c-17.673,0-32-14.327-32-32s14.327-32,32-32s32,14.327,32,32
	S273.673,96,256,96z"/>
</svg>
