<?xml version="1.0" encoding="utf-8"?>
<!-- Generator: Adobe Illustrator 16.0.1, SVG Export Plug-In . SVG Version: 6.00 Build 0)  -->
<!DOCTYPE svg PUBLIC "-//W3C//DTD SVG 1.1//EN" "http://www.w3.org/Graphics/SVG/1.1/DTD/svg11.dtd">
<svg version="1.1" id="Layer_1" xmlns="http://www.w3.org/2000/svg" xmlns:xlink="http://www.w3.org/1999/xlink" x="0px" y="0px"
	 width="512px" height="512px" viewBox="0 0 512 512" enable-background="new 0 0 512 512" xml:space="preserve">
<g>
	<path d="M458.062,99.188l-45.688,45.688c7.062,9.938,13.188,20.531,18.312,31.75l62.562-16.562
		C484.312,138.062,472.406,117.656,458.062,99.188z"/>
	<path d="M335.375,81.312c11.188,5.125,21.812,11.25,31.75,18.312l45.688-45.688c-18.469-14.344-38.875-26.25-60.875-35.188
		L335.375,81.312z"/>
	<path d="M448,256c0,5.906-0.375,11.75-0.875,17.531l62.344,16.531c1.5-11.188,2.531-22.5,2.531-34.062s-1.031-22.875-2.531-34.062
		l-62.344,16.531C447.625,244.25,448,250.094,448,256z"/>
	<path d="M238.469,64.875C244.25,64.375,250.062,64,256,64s11.75,0.375,17.531,0.875l16.531-62.344C278.875,1.031,267.562,0,256,0
		s-22.875,1.031-34.062,2.531L238.469,64.875z"/>
	<path d="M430.688,335.375C400.438,401.75,333.688,448,256,448c-106.031,0-192-85.969-192-192
		c0-77.688,46.25-144.438,112.625-174.656L160.062,18.75C66.25,56.75,0,148.594,0,256c0,141.375,114.625,256,256,256
		c107.438,0,199.25-66.25,237.25-160.062L430.688,335.375z"/>
</g>
<path d="M288,224V112c0,0,0-16-16-16s-16,0-32,0s-16,16-16,16v144c0,0,0,32,32,32s112,0,112,0s16,0,16-16s0-16,0-32s-16-16-16-16
	H288z"/>
</svg>
