<?xml version="1.0" encoding="utf-8"?>
<!-- Generator: Adobe Illustrator 16.0.4, SVG Export Plug-In . SVG Version: 6.00 Build 0)  -->
<!DOCTYPE svg PUBLIC "-//W3C//DTD SVG 1.1//EN" "http://www.w3.org/Graphics/SVG/1.1/DTD/svg11.dtd">
<svg version="1.1" id="Layer_1" xmlns="http://www.w3.org/2000/svg" xmlns:xlink="http://www.w3.org/1999/xlink" x="0px" y="0px"
	 width="512px" height="512px" viewBox="0 0 512 512" enable-background="new 0 0 512 512" xml:space="preserve">
<path d="M260.229,0.02c13.295,1.625,31.575,3.729,49.812,6.188c44.25,5.979,88.457,12.229,132.64,18.166
	c23.93,3.229,42.742,21.5,44.405,44.458c3.124,44.437,5.782,88.916,8.774,133.373c3.059,44.625,6.337,89.312,9.528,133.916
	c2.127,30.646,4.652,61.291,6.515,91.978c1.328,22.166-11.169,43.479-29.671,49.666c-9.239,3.126-19.3,4.251-29.07,5.813
	c-56.482,9.188-112.964,18.188-169.469,27.396c-33.724,5.541-57.322-11.646-58.719-43.771c-1.306-30.499-1.928-61.062-2.992-91.54
	c-1.861-54.249-3.833-108.479-5.717-162.728c-0.974-31.312-1.883-62.603-2.88-93.936c-0.753-23.125-1.551-46.271-2.438-69.416
	c-0.399-10,0.244-19.875,5.052-29.042C224.001,5.207,237.828-0.376,260.229,0.02z M473.171,239.037
	c-1.641-28.646-3.855-65.165-5.894-101.666c-1.153-19.999-18.436-35.291-37.713-35.854c-20.298-0.562-40.462-2.708-60.714-4.083
	c-28.251-1.958-56.505-4.375-84.823-5.5c-23.133-0.938-36.317,12.188-35.586,34.041c1.263,37.125,2.925,74.229,4.321,111.353
	c1.595,42.333,2.991,84.688,4.587,127.124c0.375,9.188,2.171,18.208,7.932,25.958c9.972,13.458,24.463,15.249,40.374,13.541
	c14.579-1.583,29.181-2.916,43.828-4.374c31.687-3.125,63.417-5.938,95.038-9.438c24.084-2.625,37.712-18.375,36.183-40.25
	C478.379,315.579,476.052,281.203,473.171,239.037z"/>
<path d="M315.46,160.122c0.887,14.938,1.545,29.916,2.252,44.874c2.16,42.896,4.298,85.833,6.3,128.77
	c0.523,10.521-4.003,19.438-14.262,24.375c-6.183,2.979-13.363,4.848-20.366,6.1c0.221,3.492,0.771,5.994,1.58,7.081
	c0.337,0.455,0.515,0.608,0.533,0.624c0.025,0,1.294,0.547,4.889,0.547c0.001,0,0.002,0,0.002,0c1.679,0,3.646-0.12,5.853-0.357
	c10.009-1.087,20.151-2.069,29.959-3.02c4.701-0.455,9.405-0.911,14.114-1.38c1.051-0.104,2.097-0.201,3.147-0.304
	c-3.562-73.618-7.247-147.255-10.891-220.872c-0.325-6.431-0.598-12.866-0.87-19.297c-18.176-1.329-36.786-2.632-54.943-3.353
	c-0.362-0.015-0.696-0.021-1.024-0.021c-0.498,0-0.937,0.016-1.316,0.042c-0.006,0.292-0.005,0.617,0.008,0.976
	c0.07,2.068,0.144,4.143,0.217,6.217c1.84,0.165,3.68,0.32,5.52,0.498C302.266,133.247,314.572,145.144,315.46,160.122z"/>
<path d="M191.116,412.58c-0.343-11.754-0.698-23.909-1.113-35.803c-0.041-1.192-0.084-2.384-0.125-3.576
	c-8.829,0.702-17.42,1.409-26.005,2.252c-25.158,2.562-40.444-9.438-41.149-32.625c-0.41-14-0.797-27.957-1.069-41.999
	c-1-49.583-2.001-99.187-2.979-148.77c-0.456-21.563,10.714-31.604,34.279-30.5c9.454,0.447,18.91,1.11,28.552,1.798
	c-0.035-1.115-0.067-2.228-0.103-3.342c-0.802-24.608-1.56-46.273-2.312-66.092c-17.251-1.727-34.07-3.522-50.93-4.467
	c-19.018-1.042-33.029,7.792-37.1,22.562c-1.774,6.479-1.774,13.437-1.662,20.187c1.092,63.208,2.412,126.436,3.753,189.685
	c0.932,46.479,1.774,92.979,2.979,139.437c0.638,25.374,15.878,39.499,43.425,38.187c17.637-0.837,35.166-3.074,52.883-5.204
	C191.924,440.281,191.515,426.257,191.116,412.58z"/>
<path d="M184.287,214.044l-0.004-0.116c-0.416-13.363-0.82-26.723-1.224-40.083c-0.185-6.11-0.375-12.224-0.564-18.336l-3.267-0.233
	c-9.985-0.712-18.968-1.336-27.784-1.753c-0.247-0.012-0.492-0.021-0.734-0.028c0.07,3.575,0.144,7.146,0.215,10.721
	c13.639,1.299,22.46,9.455,22.638,22.219c0.501,41.27,0.638,82.561,0.797,123.832c0.021,8.688-4.755,14.999-13.422,18.062
	c-2.119,0.751-4.324,1.303-6.565,1.755c0.111,3.997,0.225,7.946,0.338,11.81c0.021,0.708,0.074,1.286,0.136,1.746
	c0.624,0.086,1.463,0.155,2.553,0.155c0.999,0,2.086-0.06,3.231-0.176l0.116-0.012c8.426-0.827,16.725-1.52,26.594-2.305
	l1.415-0.112c-0.643-18.438-1.286-36.875-1.939-55.306C185.967,261.939,185.118,237.994,184.287,214.044z"/>
<path d="M62.242,337.229c-2.852,0.16-5.704,0.31-8.555,0.434c-18.289,0.875-27.934-6.459-28.48-23.25
	c-1.478-45.917-2.41-91.791-3.275-137.707c-0.181-10.083,7.417-17.229,18.722-17.771c5.942-0.268,11.967,0.137,17.977,0.416
	c-0.32-16.478-0.628-32.966-0.924-49.492c-9.377-0.812-18.755-1.566-28.132-2.027c-18.879-0.938-29.843,8.875-29.57,26.021
	c0.682,41.625,1.591,83.27,2.501,124.894c0.842,37.709,1.729,75.458,2.798,113.166c0.386,13.708,8.575,23.479,23.383,23.979
	c11.613,0.366,23.253-0.281,34.785-1.075C63.026,375.578,62.625,356.3,62.242,337.229z"/>
</svg>
