<?xml version="1.0" encoding="utf-8"?>
<!-- Generator: Adobe Illustrator 16.0.1, SVG Export Plug-In . SVG Version: 6.00 Build 0)  -->
<!DOCTYPE svg PUBLIC "-//W3C//DTD SVG 1.1//EN" "http://www.w3.org/Graphics/SVG/1.1/DTD/svg11.dtd">
<svg version="1.1" id="Layer_1" xmlns="http://www.w3.org/2000/svg" xmlns:xlink="http://www.w3.org/1999/xlink" x="0px" y="0px"
	 width="512px" height="512px" viewBox="0 0 512 512" enable-background="new 0 0 512 512" xml:space="preserve">
<rect y="32" width="64" height="64"/>
<rect x="224" y="32" width="288" height="64"/>
<rect y="224" width="288" height="64"/>
<rect x="448" y="224" width="64" height="64"/>
<rect x="320" y="416" width="192" height="64"/>
<rect y="416" width="160" height="64"/>
<g>
	<path d="M192,96c0,17.594-14.406,32-32,32h-32c-17.594,0-32-14.406-32-32V32c0-17.594,14.406-32,32-32h32c17.594,0,32,14.406,32,32
		V96z"/>
</g>
<g>
	<path d="M416,288c0,17.594-14.406,32-32,32h-32c-17.594,0-32-14.406-32-32v-64c0-17.594,14.406-32,32-32h32
		c17.594,0,32,14.406,32,32V288z"/>
</g>
<g>
	<path d="M288,480c0,17.594-14.406,32-32,32h-32c-17.594,0-32-14.406-32-32v-64c0-17.594,14.406-32,32-32h32
		c17.594,0,32,14.406,32,32V480z"/>
</g>
</svg>
