<?xml version="1.0" encoding="utf-8"?>
<!-- Generator: Adobe Illustrator 16.0.4, SVG Export Plug-In . SVG Version: 6.00 Build 0)  -->
<!DOCTYPE svg PUBLIC "-//W3C//DTD SVG 1.1//EN" "http://www.w3.org/Graphics/SVG/1.1/DTD/svg11.dtd">
<svg version="1.1" id="Layer_1" xmlns="http://www.w3.org/2000/svg" xmlns:xlink="http://www.w3.org/1999/xlink" x="0px" y="0px"
	 width="512px" height="512px" viewBox="0 0 512 512" enable-background="new 0 0 512 512" xml:space="preserve">
<g>
	<circle cx="256" cy="256" r="64"/>
</g>
<g>
	<path d="M512,224H384v32c0,0,0,0,0,0.001c0,70.693-57.308,128-128,128c-35.346,0-67.346-14.326-90.51-37.49l-45.254,45.255
		C154.98,426.51,202.98,448,256,448c95.134,0,174.094-69.195,189.33-160H512V224z"/>
	<path d="M128,256c0-70.692,57.308-128,128-128c35.346,0,67.346,14.327,90.51,37.49l45.254-45.254
		C357.019,85.491,309.019,64.001,256,64.001c-95.134,0-174.093,69.195-189.33,159.999H0v64h128V256z"/>
</g>
</svg>
