<?xml version="1.0" encoding="utf-8"?>
<!-- Generator: Adobe Illustrator 16.0.4, SVG Export Plug-In . SVG Version: 6.00 Build 0)  -->
<!DOCTYPE svg PUBLIC "-//W3C//DTD SVG 1.1//EN" "http://www.w3.org/Graphics/SVG/1.1/DTD/svg11.dtd">
<svg version="1.1" id="Layer_1" xmlns="http://www.w3.org/2000/svg" xmlns:xlink="http://www.w3.org/1999/xlink" x="0px" y="0px"
	 width="512px" height="512px" viewBox="0 0 512 512" enable-background="new 0 0 512 512" xml:space="preserve">
<g>
	<path d="M320,224l63.594-63.594C354.406,121.5,308.375,96,256,96c-77.406,0-141.938,54.969-156.781,128L0,223.955
		C15.781,97.705,125.5,0,256,0c78.875,0,149.156,35.844,196.062,91.953L512,32v192h-2.219H320z"/>
	<path d="M0,288h2.219H192l-63.594,63.594C157.594,390.5,203.625,416,256,416c77.406,0,141.938-54.969,156.781-128H512
		c-15.781,126.25-125.5,224-256,224c-78.875,0-149.156-35.844-196.062-91.953L0,480V288z"/>
</g>
</svg>
