<?xml version="1.0" encoding="utf-8"?>
<!-- Generator: Adobe Illustrator 16.0.4, SVG Export Plug-In . SVG Version: 6.00 Build 0)  -->
<!DOCTYPE svg PUBLIC "-//W3C//DTD SVG 1.1//EN" "http://www.w3.org/Graphics/SVG/1.1/DTD/svg11.dtd">
<svg version="1.1" id="Layer_1" xmlns="http://www.w3.org/2000/svg" xmlns:xlink="http://www.w3.org/1999/xlink" x="0px" y="0px"
	 width="512px" height="512px" viewBox="0 0 512 512" enable-background="new 0 0 512 512" xml:space="preserve">
<g>
	<path d="M512,0H288v2.219V224l80.75-80.734C397.688,172.203,416,211.812,416,256c0,88.359-71.625,160-160,160
		c-31.406,0-60.5-9.375-85.219-25.016l-69,69C144.719,492.5,198,512,256,512c141.375,0,256-114.609,256-256
		c0-70.719-28.844-134.516-75.219-180.781L512,0z"/>
	<path d="M97,288H0c5.688,45.578,23.375,87.328,49.781,122.203l69-69C108.625,325.109,100.906,307.281,97,288z"/>
	<path d="M118.812,170.812l-69.094-69.109C23.25,136.562,5.719,178.406,0,224h97.281
		C101.188,204.734,108.656,186.891,118.812,170.812z"/>
	<path d="M224,99.219v-97c-45.562,5.688-87.312,23.469-122.188,49.812l68.875,68.875C186.781,110.719,204.688,103.141,224,99.219z"
		/>
</g>
</svg>
