<?xml version="1.0" encoding="utf-8"?>
<!-- Generator: Adobe Illustrator 16.0.1, SVG Export Plug-In . SVG Version: 6.00 Build 0)  -->
<!DOCTYPE svg PUBLIC "-//W3C//DTD SVG 1.1//EN" "http://www.w3.org/Graphics/SVG/1.1/DTD/svg11.dtd">
<svg version="1.1" id="Layer_1" xmlns="http://www.w3.org/2000/svg" xmlns:xlink="http://www.w3.org/1999/xlink" x="0px" y="0px"
	 width="512px" height="512px" viewBox="0 0 512 512" enable-background="new 0 0 512 512" xml:space="preserve">
<path d="M304,0C189.125,0,96,93.125,96,208c0,41.031,12.047,79.188,32.562,111.438L14.05,430.05l-0.004,0.022
	C5.367,438.757,0,450.752,0,464c0,26.51,21.49,48,48,48c13.248,0,25.242-5.367,33.927-14.046l0.023-0.004l110.612-114.513
	C224.812,403.938,262.969,416,304,416c114.875,0,208-93.125,208-208S418.875,0,304,0z M304,352c-79.405,0-144-64.595-144-144
	c0-79.405,64.595-144,144-144c79.405,0,144,64.595,144,144C448,287.405,383.405,352,304,352z"/>
</svg>
