<?xml version="1.0" encoding="utf-8"?>
<!-- Generator: Adobe Illustrator 16.0.1, SVG Export Plug-In . SVG Version: 6.00 Build 0)  -->
<!DOCTYPE svg PUBLIC "-//W3C//DTD SVG 1.1//EN" "http://www.w3.org/Graphics/SVG/1.1/DTD/svg11.dtd">
<svg version="1.1" id="Layer_1" xmlns="http://www.w3.org/2000/svg" xmlns:xlink="http://www.w3.org/1999/xlink" x="0px" y="0px"
	 width="512px" height="512px" viewBox="0 0 512 512" enable-background="new 0 0 512 512" xml:space="preserve">
<path d="M422.627,281.373c-4.076,4.076-16.484,16.481-33.886,16.483c-0.003,0-0.003,0-0.007,0c-1.608,0-3.186-0.117-4.734-0.321V416
	H64V192h96c3.654-22.383,11.305-42.393,22.877-59.75c0.959-1.438,1.95-2.852,2.959-4.25H0v352h448V256L422.627,281.373z"/>
<path d="M400,32c-16-16-16,0-16,0v64c-16,0-80,0-80,0s-112,0-112,128c0,96,104,128,112,128c16,0,16-5.031,16-5.031
	c-10.062-5.375-21.102-16.07-32-26.969c-40-40-32-96-32-96s0.001-32,32-32s90.625,0,96,0v64c0,0,0,16,16,0c16-16,112-112,112-112
	S416,48,400,32z"/>
</svg>
