<?xml version="1.0" encoding="utf-8"?>
<!-- Generator: Adobe Illustrator 16.0.4, SVG Export Plug-In . SVG Version: 6.00 Build 0)  -->
<!DOCTYPE svg PUBLIC "-//W3C//DTD SVG 1.1//EN" "http://www.w3.org/Graphics/SVG/1.1/DTD/svg11.dtd">
<svg version="1.1" id="Layer_1" xmlns="http://www.w3.org/2000/svg" xmlns:xlink="http://www.w3.org/1999/xlink" x="0px" y="0px"
	 width="512px" height="512px" viewBox="0 0 512 512" enable-background="new 0 0 512 512" xml:space="preserve">
<path d="M0,0v480h512V0H0z M160,416H64v-32h96V416z M160,352H64v-32h96V352z M160,288H64v-32h96V288z M160,224H64v-32h96V224z
	 M448,416H192v-32h256V416z M448,352H192v-32h256V352z M448,288H192v-32h256V288z M448,224H192v-32h256V224z M448,160H64V64h384V160
	z"/>
</svg>
