<?xml version="1.0" encoding="utf-8"?>
<!-- Generator: Adobe Illustrator 16.0.4, SVG Export Plug-In . SVG Version: 6.00 Build 0)  -->
<!DOCTYPE svg PUBLIC "-//W3C//DTD SVG 1.1//EN" "http://www.w3.org/Graphics/SVG/1.1/DTD/svg11.dtd">
<svg version="1.1" id="Layer_1" xmlns="http://www.w3.org/2000/svg" xmlns:xlink="http://www.w3.org/1999/xlink" x="0px" y="0px"
	 width="512px" height="512px" viewBox="0 0 512 512" enable-background="new 0 0 512 512" xml:space="preserve">
<path d="M368,224c-79.531,0-144,64.469-144,144s64.469,144,144,144s144-64.469,144-144S447.531,224,368,224z M368,272
	c18.25,0,35.156,5.406,49.719,14.281L286.281,417.719C277.406,403.156,272,386.25,272,368C272,315.062,315.062,272,368,272z
	 M368,464c-18.25,0-35.156-5.406-49.719-14.281l131.438-131.438C458.594,332.844,464,349.75,464,368
	C464,420.938,420.938,464,368,464z"/>
<path d="M184,368c0-101.453,82.562-184,184-184c39.25,0,75.562,12.438,105.438,33.453L256,0H0v256l217.438,217.453
	C196.438,443.547,184,407.234,184,368z M112,168c-30.875,0-56-25.125-56-56s25.125-56,56-56s56,25.125,56,56S142.875,168,112,168z"
	/>
</svg>
