<?xml version="1.0" encoding="utf-8"?>
<!-- Generator: Adobe Illustrator 16.0.1, SVG Export Plug-In . SVG Version: 6.00 Build 0)  -->
<!DOCTYPE svg PUBLIC "-//W3C//DTD SVG 1.1//EN" "http://www.w3.org/Graphics/SVG/1.1/DTD/svg11.dtd">
<svg version="1.1" id="Layer_1" xmlns="http://www.w3.org/2000/svg" xmlns:xlink="http://www.w3.org/1999/xlink" x="0px" y="0px"
	 width="512px" height="512px" viewBox="0 0 512 512" enable-background="new 0 0 512 512" xml:space="preserve">
<path d="M286.627,302.627c-2.876,2.877-18.354,17.233-40.549,17.233c-14.047,0-27.085-5.613-37.705-16.233
	c-15.253-15.253-20.106-36.175-12.981-55.966c4.336-12.044,11.797-20.105,13.981-22.289l33.305-33.305
	C241.787,192.039,240.898,192,240,192c-44.183,0-80,35.817-80,80s35.817,80,80,80s80-35.817,80-80c0-0.898-0.038-1.787-0.067-2.678
	L286.627,302.627z"/>
<path d="M512,96l-64-32L416,0l-64,64v64L232,248c0,0-17,17-1,33s33-1,33-1l120-120h64L512,96z"/>
<path d="M400.562,192l-2.656,2.656C409.375,218.031,416,244.219,416,272c0,97.188-78.812,176-176,176S64,369.188,64,272
	S142.812,96,240,96c27.812,0,53.969,6.625,77.344,18.094l2.656-2.656V45.974C294.928,37.083,268.104,32,240,32
	C107.438,32,0,139.438,0,272s107.438,240,240,240s240-107.438,240-240c0-28.104-5.082-54.943-13.943-80H400.562z"/>
</svg>
