<?xml version="1.0" encoding="utf-8"?>
<!-- Generator: Adobe Illustrator 16.0.1, SVG Export Plug-In . SVG Version: 6.00 Build 0)  -->
<!DOCTYPE svg PUBLIC "-//W3C//DTD SVG 1.1//EN" "http://www.w3.org/Graphics/SVG/1.1/DTD/svg11.dtd">
<svg version="1.1" id="Layer_1" xmlns="http://www.w3.org/2000/svg" xmlns:xlink="http://www.w3.org/1999/xlink" x="0px" y="0px"
	 width="512px" height="512px" viewBox="0 0 512 512" enable-background="new 0 0 512 512" xml:space="preserve">
<path d="M240,0C107.438,0,0,107.438,0,240s107.438,240,240,240s240-107.438,240-240S372.562,0,240,0z M240,416
	c-97.188,0-176-78.812-176-176S142.812,64,240,64s176,78.812,176,176S337.188,416,240,416z"/>
<path d="M320,240c0,44.188-35.812,80-80,80s-80-35.812-80-80s35.812-80,80-80S320,195.812,320,240z"/>
</svg>
