<?xml version="1.0" encoding="utf-8"?>
<!-- Generator: Adobe Illustrator 16.0.1, SVG Export Plug-In . SVG Version: 6.00 Build 0)  -->
<!DOCTYPE svg PUBLIC "-//W3C//DTD SVG 1.1//EN" "http://www.w3.org/Graphics/SVG/1.1/DTD/svg11.dtd">
<svg version="1.1" id="Layer_1" xmlns="http://www.w3.org/2000/svg" xmlns:xlink="http://www.w3.org/1999/xlink" x="0px" y="0px"
	 width="512px" height="512px" viewBox="0 0 512 512" enable-background="new 0 0 512 512" xml:space="preserve">
<path d="M512,113.156c-18.812,8.375-39.062,14-60.312,16.562c21.688-13,38.312-33.594,46.188-58.125
	c-20.312,12.031-42.812,20.781-66.75,25.5C412,76.656,384.688,64,354.5,64c-58.062,0-105.062,46.969-105.062,104.969
	c0,8.219,0.938,16.25,2.75,23.938c-87.312-4.406-164.75-46.188-216.562-109.75c-9,15.5-14.188,33.562-14.188,52.812
	c0,36.438,18.5,68.562,46.75,87.406c-17.25-0.531-33.438-5.25-47.625-13.125c0,0.438,0,0.875,0,1.312
	c0,50.906,36.188,93.344,84.25,103C96,316.969,86.75,318.25,77.188,318.25c-6.812,0-13.375-0.656-19.812-1.875
	c13.375,41.719,52.188,72.094,98.125,72.938c-35.938,28.188-81.25,44.969-130.438,44.969c-8.5,0-16.875-0.5-25.062-1.469
	C46.5,462.625,101.688,480,161,480c193.25,0,298.875-160.031,298.875-298.875c0-4.531-0.062-9.094-0.312-13.594
	C480.125,152.75,497.938,134.25,512,113.156z"/>
</svg>
