<?xml version="1.0" encoding="utf-8"?>
<!-- Generator: Adobe Illustrator 16.0.1, SVG Export Plug-In . SVG Version: 6.00 Build 0)  -->
<!DOCTYPE svg PUBLIC "-//W3C//DTD SVG 1.1//EN" "http://www.w3.org/Graphics/SVG/1.1/DTD/svg11.dtd">
<svg version="1.1" id="Layer_1" xmlns="http://www.w3.org/2000/svg" xmlns:xlink="http://www.w3.org/1999/xlink" x="0px" y="0px"
	 width="512px" height="512px" viewBox="0 0 512 512" enable-background="new 0 0 512 512" xml:space="preserve">
<path d="M446.188,293.531c-6.406-7.688-15.5-40.375-10.812-55.812c0,0,26.375-45.719,26.375-77.719c0,0,0,0,7.75,0
	c15.625,0,24.656-25.938,24.656-41.375S480,107.312,480,107.312v-14C480,41.312,436.312,0,385.219,0
	c-29.75,0-56.406,14.312-73.469,36.312c42.812,19.625,73.188,61.188,77.438,111.562c9.656,9.5,16,22.906,16,39.719
	c0,26.5-10.938,65.375-38.5,80.25c-4.188,12.281-10.719,28.812-20.938,51.125c0.531,3.031,3,11.875,4.875,15.219
	c3.562,3.938,13.938,9.938,26.625,15.25C405.219,361.125,448,380.656,448,434.75V448c63.938-5,64-25.469,64-25.469
	s0-26.094,0-51.781C512,324.406,474.375,327.25,446.188,293.531z"/>
<path d="M64,434.75c0-54.094,42.812-73.656,70.812-85.312c12.688-5.312,25.125-11.312,30.344-17.562
	c0.281-1.125,1.406-9.031,1.719-13.719c-9.938-21.906-16.812-38.219-20.875-50.344c-27.5-14.906-38.594-53.719-38.594-80.219
	c0-16.781,6.312-30.156,15.906-39.656c4.5-50.594,35.094-91.906,77.656-111.5C183.938,14.344,156.562,0,126.781,0
	C75.688,0,32,41.312,32,93.312v14c0,0-14.156-4.125-14.156,11.312S26.875,160,42.5,160c7.75,0,7.75,0,7.75,0
	c0,32,26.375,77.719,26.375,77.719c4.688,15.438-4.406,45.656-10.812,53.344C37.625,324.75,0,324.406,0,370.75
	c0,25.688,0,51.781,0,51.781S0.062,443,64,448V434.75z"/>
<path d="M224.938,512C97.5,512,96,480,96,480s0-19.562,0-45.25c0-46.344,69.625-43.5,97.812-77.219
	c6.406-7.688,15.5-35.406,10.812-50.844c0,0-26.375-57.188-26.375-72.75c0,0,0,0-7.75,0c-15.625,0-23.344-30.906-23.344-46.344
	s15.469-16.281,15.469-16.281v-14C163.938,105.312,205,64,256.094,64c51,0,91.906,41.312,93.219,93.312v14
	c0,0,15.688,0.844,15.688,16.281s-7.75,46.344-23.344,46.344c-7.781,0-7.781,0-7.781,0c0,15.562-26.562,72.75-26.562,72.75
	c-4.656,15.438,4.531,43.156,10.938,50.844C346.438,391.25,416,388.406,416,434.75c0,25.688,0,45.25,0,45.25s0,32-128.812,32
	H224.938z"/>
</svg>
