<?xml version="1.0" encoding="utf-8"?>
<!-- Generator: Adobe Illustrator 16.0.1, SVG Export Plug-In . SVG Version: 6.00 Build 0)  -->
<!DOCTYPE svg PUBLIC "-//W3C//DTD SVG 1.1//EN" "http://www.w3.org/Graphics/SVG/1.1/DTD/svg11.dtd">
<svg version="1.1" id="Layer_1" xmlns="http://www.w3.org/2000/svg" xmlns:xlink="http://www.w3.org/1999/xlink" x="0px" y="0px"
	 width="512px" height="512px" viewBox="0 0 512 512" enable-background="new 0 0 512 512" xml:space="preserve">
<g>
	<path fill="none" d="M236.245,354.775L224,416h64l-12.245-61.225C287.843,347.895,296,334.903,296,320c0-22.091-17.909-40-40-40
		s-40,17.909-40,40C216,334.903,224.157,347.895,236.245,354.775z"/>
</g>
<path d="M256,0c57.906,0,104.297,46.344,105.797,105.844l0.141,0.094c0,0-0.094,17.531,0,17.656c0,0,17.656-1.109,17.656,16.531
	c0,17.656-8.844,51.875-26.484,51.875c-17.656,0-8.828,0-8.828,0c0,32-35.312,89.375-35.312,89.375
	c-1.562,19,16.469,44.766,23.719,53.516C364.688,373.453,480,370.75,480,423.719c0,29.312,0,52.969,0,52.969
	S467.859,512,308.969,512H203.031C44.141,512,32,476.688,32,476.688s0-23.656,0-52.969C32,370.75,147.312,374,179.312,335.438
	c7.25-8.75,22.266-35.062,20.688-54.062c0,0-32.281-57.375-32.281-89.375c0,0,8.828,0-8.812,0c-17.656,0-26.5-34.219-26.5-51.875
	c0-17.641,17.656-17.094,17.656-17.094c0.094-0.109,0-17.375,0-17.375l0.141,0.047C151.703,46.219,198.094,0,256,0z"/>
</svg>
