<?xml version="1.0" encoding="utf-8"?>
<!-- Generator: Adobe Illustrator 16.0.1, SVG Export Plug-In . SVG Version: 6.00 Build 0)  -->
<!DOCTYPE svg PUBLIC "-//W3C//DTD SVG 1.1//EN" "http://www.w3.org/Graphics/SVG/1.1/DTD/svg11.dtd">
<svg version="1.1" id="Layer_1" xmlns="http://www.w3.org/2000/svg" xmlns:xlink="http://www.w3.org/1999/xlink" x="0px" y="0px"
	 width="512px" height="512px" viewBox="0 0 512 512" enable-background="new 0 0 512 512" xml:space="preserve">
<path d="M160,192H32V48c0,0,0-16,16-16s112,0,112,0V192z"/>
<rect x="192" y="32" width="128" height="256"/>
<path d="M480,128H352V32c0,0,96,0,112,0s16,16,16,16V128z"/>
<rect x="352" y="160" width="128" height="192"/>
<rect x="192" y="320" width="128" height="160"/>
<path d="M160,480c0,0-96,0-112,0s-16-16-16-16V224h128V480z"/>
<path d="M464,480c-16,0-112,0-112,0v-96h128v80C480,464,480,480,464,480z"/>
</svg>
