<?xml version="1.0" encoding="utf-8"?>
<!-- Generator: Adobe Illustrator 16.0.1, SVG Export Plug-In . SVG Version: 6.00 Build 0)  -->
<!DOCTYPE svg PUBLIC "-//W3C//DTD SVG 1.1//EN" "http://www.w3.org/Graphics/SVG/1.1/DTD/svg11.dtd">
<svg version="1.1" id="Layer_1" xmlns="http://www.w3.org/2000/svg" xmlns:xlink="http://www.w3.org/1999/xlink" x="0px" y="0px"
	 width="512px" height="512px" viewBox="0 0 512 512" enable-background="new 0 0 512 512" xml:space="preserve">
<g>
	<path d="M32,48c0,0,0,399.375,0,416c0,16,16,16,16,16h112V32c0,0-95.375,0-112,0C32,32,32,48,32,48z"/>
	<path d="M464,32H352v448c0,0,95.374,0,112,0c16,0,16-16,16-16s0-399.374,0-416C480,32,464,32,464,32z"/>
	<rect x="192" y="32" width="128" height="448"/>
</g>
</svg>
