<?xml version="1.0" encoding="utf-8"?>
<!-- Generator: Adobe Illustrator 16.0.4, SVG Export Plug-In . SVG Version: 6.00 Build 0)  -->
<!DOCTYPE svg PUBLIC "-//W3C//DTD SVG 1.1//EN" "http://www.w3.org/Graphics/SVG/1.1/DTD/svg11.dtd">
<svg version="1.1" id="Layer_1" xmlns="http://www.w3.org/2000/svg" xmlns:xlink="http://www.w3.org/1999/xlink" x="0px" y="0px"
	 width="512px" height="512px" viewBox="0 0 512 512" enable-background="new 0 0 512 512" xml:space="preserve">
<g>
	<path d="M417.597,102.075c-49.797,0-80.298-18.645-91.507-27.037l-47.066,171.565c11.736,8.599,41.655,26.252,90.389,26.252
		c50.531,0,79.668-7.134,89.935-10.215L512,96C512,96,481.863,102.075,417.597,102.075z"/>
	<path d="M291.933,58.703C280.645,50.285,250.494,32,200.889,32c-50.532,0-79.627,7.133-89.901,10.214L58.342,210.541
		c0,0,30.129-7.761,94.403-7.761c50.727,0,81.435,19.352,92.117,27.5L291.933,58.703z"/>
</g>
<path d="M359.254,309.211c-48.027,0-78.111-17.347-90.244-26.109l-47.063,171.551C234.482,463.53,264,480,311.068,480
	c50.533,0,79.67-7.143,89.944-10.215l52.646-168.326C453.658,301.459,423.529,309.211,359.254,309.211z"/>
<path d="M234.821,266.883c-10.201-7.897-40.696-27.639-92.232-27.639c-50.532,0-79.669,7.141-89.936,10.213L0,416
	c0,0,30.137-5.969,94.403-5.969c52.833,0,83.945,20.987,93.341,28.451L234.821,266.883z"/>
</svg>
