<?xml version="1.0" encoding="utf-8"?>
<!-- Generator: Adobe Illustrator 16.0.4, SVG Export Plug-In . SVG Version: 6.00 Build 0)  -->
<!DOCTYPE svg PUBLIC "-//W3C//DTD SVG 1.1//EN" "http://www.w3.org/Graphics/SVG/1.1/DTD/svg11.dtd">
<svg version="1.1" id="Layer_1" xmlns="http://www.w3.org/2000/svg" xmlns:xlink="http://www.w3.org/1999/xlink" x="0px" y="0px"
	 width="512px" height="512px" viewBox="0 0 512 512" enable-background="new 0 0 512 512" xml:space="preserve">
<path d="M508.756,99.245L416,192l-96-96l92.756-92.755C403.512,1.123,393.887,0,384,0c-70.692,0-128,57.308-128,128
	c0,18.782,4.045,36.619,11.312,52.688c-33.046,33.046-110.071,110.071-143.431,143.43C115.058,321.443,105.698,320,96,320
	c-53.02,0-96,42.98-96,96s42.98,96,96,96s96-42.98,96-96c0-9.698-1.443-19.058-4.118-27.882
	c33.359-33.359,110.384-110.384,143.43-143.43C347.381,251.955,365.218,256,384,256c70.692,0,128-57.308,128-128
	C512,118.113,510.877,108.488,508.756,99.245z M96,456c-22.091,0-40-17.908-40-40s17.909-40,40-40s40,17.908,40,40
	S118.091,456,96,456z"/>
</svg>
