<?xml version="1.0" encoding="utf-8"?>
<!-- Generator: Adobe Illustrator 16.0.1, SVG Export Plug-In . SVG Version: 6.00 Build 0)  -->
<!DOCTYPE svg PUBLIC "-//W3C//DTD SVG 1.1//EN" "http://www.w3.org/Graphics/SVG/1.1/DTD/svg11.dtd">
<svg version="1.1" id="Layer_1" xmlns="http://www.w3.org/2000/svg" xmlns:xlink="http://www.w3.org/1999/xlink" x="0px" y="0px"
	 width="512px" height="512px" viewBox="0 0 512 512" enable-background="new 0 0 512 512" xml:space="preserve">
<path d="M0,208c0,114.875,93.125,208,208,208c41.031,0,79.188-12.062,111.438-32.562L430.05,497.95l0.023,0.004
	C438.758,506.633,450.752,512,464,512c26.51,0,48-21.49,48-48c0-13.248-5.367-25.243-14.046-33.928l-0.004-0.022L383.438,319.438
	C403.953,287.188,416,249.031,416,208C416,93.125,322.875,0,208,0S0,93.125,0,208z M64,208c0-79.405,64.595-144,144-144
	c79.404,0,144,64.595,144,144c0,79.404-64.596,144-144,144C128.595,352,64,287.404,64,208z"/>
<polygon points="288,192 224,192 224,128 192,128 192,192 128,192 128,224 192,224 192,288 224,288 224,224 288,224 "/>
</svg>
