<?xml version="1.0" encoding="utf-8"?>
<!-- Generator: Adobe Illustrator 16.0.1, SVG Export Plug-In . SVG Version: 6.00 Build 0)  -->
<!DOCTYPE svg PUBLIC "-//W3C//DTD SVG 1.1//EN" "http://www.w3.org/Graphics/SVG/1.1/DTD/svg11.dtd">
<svg version="1.1" id="Layer_1" xmlns="http://www.w3.org/2000/svg" xmlns:xlink="http://www.w3.org/1999/xlink" x="0px" y="0px"
	 width="1152px" height="1152px" viewBox="0 0 1152 1152" enable-background="new 0 0 1152 1152" xml:space="preserve">
<rect x="192" y="288" enable-background="new    " width="192" height="192"/>
<rect x="192" y="576" enable-background="new    " width="192" height="192"/>
<rect x="480" y="288" enable-background="new    " width="192" height="192"/>
<rect x="768" y="288" enable-background="new    " width="192" height="192"/>
<path enable-background="new    " d="M864,576c-159.047,0-288,128.953-288,288s128.953,288,288,288s288-128.953,288-288
	S1023.047,576,864,576z M1056,912H912v144h-96V912H672v-96h144V672h96v144h144V912z"/>
<path enable-background="new    " d="M510.216,714.501c19.345-45.738,47.021-86.795,82.254-122.03
	c5.696-5.695,11.562-11.173,17.558-16.471H480v192h12.101C496.79,749.821,502.83,731.964,510.216,714.501z"/>
<path enable-background="new    " d="M480,864H96V192h960v339.375c28.956,16.718,55.59,37.157,79.529,61.096
	c5.695,5.696,11.173,11.562,16.471,17.558V96H0v864h492.101C484.061,928.832,480,896.716,480,864z"/>
</svg>
