<?xml version="1.0" encoding="utf-8"?>
<!-- Generator: Adobe Illustrator 16.0.1, SVG Export Plug-In . SVG Version: 6.00 Build 0)  -->
<!DOCTYPE svg PUBLIC "-//W3C//DTD SVG 1.1//EN" "http://www.w3.org/Graphics/SVG/1.1/DTD/svg11.dtd">
<svg version="1.1" id="Layer_1" xmlns="http://www.w3.org/2000/svg" xmlns:xlink="http://www.w3.org/1999/xlink" x="0px" y="0px"
	 width="512px" height="512px" viewBox="0 0 512 512" enable-background="new 0 0 512 512" xml:space="preserve">
<rect x="96" y="96" opacity="0.65" width="64" height="96"/>
<rect x="96" y="224" opacity="0.65" width="64" height="96"/>
<rect x="192" y="96" opacity="0.65" width="64" height="96"/>
<rect x="288" y="96" opacity="0.65" width="64" height="96"/>
<path opacity="0.65" d="M368,224c-79.531,0-144,64.469-144,144s64.469,144,144,144s144-64.469,144-144S447.531,224,368,224z
	 M448,384h-64v64h-32v-64h-64v-32h64v-64h32v64h64V384z"/>
<path opacity="0.65" d="M256,224.344V224h-64v96h0.219C202.719,281.594,225.438,248.25,256,224.344z"/>
<polygon opacity="0.65" points="0,0 0,416 192,416 192,368 48,368 48,48 400,48 400,192 448,192 448,0 "/>
</svg>
