<?xml version="1.0" encoding="utf-8"?>
<!-- Generator: Adobe Illustrator 16.0.1, SVG Export Plug-In . SVG Version: 6.00 Build 0)  -->
<!DOCTYPE svg PUBLIC "-//W3C//DTD SVG 1.1//EN" "http://www.w3.org/Graphics/SVG/1.1/DTD/svg11.dtd">
<svg version="1.1" id="Layer_1" xmlns="http://www.w3.org/2000/svg" xmlns:xlink="http://www.w3.org/1999/xlink" x="0px" y="0px"
	 width="1152px" height="1152px" viewBox="0 0 1152 1152" enable-background="new 0 0 1152 1152" xml:space="preserve">
<path d="M864,576c-159.047,0-288,128.953-288,288s128.953,288,288,288s288-128.953,288-288S1023.047,576,864,576z M1056,912H912v144
	h-96V912H672v-96h144V672h96v144h144V912z"/>
<path d="M984,0C936,0,120,0,72,0C0,0,0,72,0,72v720c0,0,0,72,72,72c48,0,264,0,264,0l192,192l2.149-2.149
	c-7.395-13-14.053-26.457-19.931-40.354C490.167,966.094,480,915.795,480,864s10.167-102.094,30.219-149.497
	c6.05-14.304,12.916-28.149,20.572-41.503H192v-96h416.91c31.369-27.936,66.788-50.367,105.593-66.781
	c32.612-13.795,66.6-22.889,101.497-27.233V481H192v-96h672v95c51.795,0,102.094,10.167,149.497,30.219
	c14.663,6.203,28.839,13.272,42.503,21.162V72C1056,72,1056,0,984,0z M864,289H192v-96h672V289z"/>
</svg>
