<?xml version="1.0" encoding="utf-8"?>
<!-- Generator: Adobe Illustrator 16.0.1, SVG Export Plug-In . SVG Version: 6.00 Build 0)  -->
<!DOCTYPE svg PUBLIC "-//W3C//DTD SVG 1.1//EN" "http://www.w3.org/Graphics/SVG/1.1/DTD/svg11.dtd">
<svg version="1.1" id="Layer_1" xmlns="http://www.w3.org/2000/svg" xmlns:xlink="http://www.w3.org/1999/xlink" x="0px" y="0px"
	 width="1152px" height="1152px" viewBox="0 0 1152 1152" enable-background="new 0 0 1152 1152" xml:space="preserve">
<path d="M624,144V48c0,0,0-48-48-48S96,0,48,0S0,48,0,48v96H624z"/>
<path d="M864,576c-159.047,0-288,128.953-288,288s128.953,288,288,288s288-128.953,288-288S1023.047,576,864,576z M1056,912H912v144
	h-96V912H672v-96h144V672h96v144h144V912z"/>
<path d="M960,240c-48,0-960,0-960,0v672c0,0,0,48,48,48c23.559,0,232.132,0,444.102,0C484.061,928.832,480,896.715,480,864V624
	h84.224c8.793-10.962,18.211-21.483,28.252-31.524c35.234-35.235,76.291-62.911,122.027-82.257C761.906,490.167,812.205,480,864,480
	c49.798,0,98.212,9.403,144,27.949V288C1008,288,1008,240,960,240z M192,864H96V336h96V864z M384,864h-96V528h96V864z"/>
</svg>
