<?xml version="1.0" encoding="utf-8"?>
<!-- Generator: Adobe Illustrator 16.0.0, SVG Export Plug-In . SVG Version: 6.00 Build 0)  -->
<!DOCTYPE svg PUBLIC "-//W3C//DTD SVG 1.1//EN" "http://www.w3.org/Graphics/SVG/1.1/DTD/svg11.dtd">
<svg version="1.1" id="Layer_1" xmlns="http://www.w3.org/2000/svg" xmlns:xlink="http://www.w3.org/1999/xlink" x="0px" y="0px"
	 width="1152px" height="1152px" viewBox="0 0 1152 1152" enable-background="new 0 0 1152 1152" xml:space="preserve">
<g>
	<path d="M792,384l280.312,483.329C1122.656,781.734,1152,682.453,1152,576c0-67.406-12.188-131.953-33.469-192H792z"/>
	<path d="M360,768L79.641,284.719C29.367,370.266,0,469.74,0,576.099C0,643.6,12.188,691,38.113,768H360z"/>
	<path d="M528,288h557.25C1006.828,144,865.734,39.516,697.125,3.375L528,288z"/>
	<path d="M624,864H66.75c78.422,144,219.516,248.438,388.125,284.625L624,864z"/>
	<path d="M309.984,468.516L580.266,0.234C578.859,0.234,577.406,0,576,0C406.547,0,254.625,73.641,149.25,190.125L309.984,468.516z"
		/>
	<path d="M842.062,683.484l-270.328,468.28c1.405,0,2.836,0.234,4.266,0.234c169.453,0,321.375-73.641,426.75-190.125
		L842.062,683.484z"/>
</g>
<path d="M672,576c0,53.016-42.984,96-96,96s-96-42.984-96-96s42.984-96,96-96S672,522.984,672,576z"/>
</svg>
