<?xml version="1.0" encoding="utf-8"?>
<!-- Generator: Adobe Illustrator 16.0.4, SVG Export Plug-In . SVG Version: 6.00 Build 0)  -->
<!DOCTYPE svg PUBLIC "-//W3C//DTD SVG 1.1//EN" "http://www.w3.org/Graphics/SVG/1.1/DTD/svg11.dtd">
<svg version="1.1" id="Layer_1" xmlns="http://www.w3.org/2000/svg" xmlns:xlink="http://www.w3.org/1999/xlink" x="0px" y="0px"
	 width="1152px" height="1152px" viewBox="0 0 1152 1152" enable-background="new 0 0 1152 1152" xml:space="preserve">
<path d="M580.594,369.047c-40.266,0-72.984-32.719-72.984-72.938s32.719-72.938,72.984-72.938c40.219,0,72.938,32.719,72.938,72.938
	S620.812,369.047,580.594,369.047z M301.828,501.938c-40.219,0-72.984,32.672-72.984,72.891s32.766,72.938,72.984,72.938
	s72.984-32.719,72.984-72.938S342.047,501.938,301.828,501.938z M576.094,776.156c-40.266,0-73.031,32.672-73.031,72.891
	s32.766,72.938,73.031,72.938c40.172,0,72.844-32.719,72.844-72.938S616.266,776.156,576.094,776.156z M1152,576
	c0,318.094-257.859,576-576,576C257.812,1152,0,894.094,0,576S257.812,0,576,0C894.141,0,1152,257.906,1152,576z M1006.688,574.828
	c0-85.781-69.844-155.531-155.625-155.531s-155.625,69.75-155.625,155.531c0,32.766,10.5,64.406,29.812,90.984l-57.844,57.844
	c-15.047-11.016-31.969-19.125-49.969-24.094V446.531c68.812-16.641,118.781-78.469,118.781-150.422
	c0-85.781-69.844-155.578-155.625-155.578s-155.625,69.797-155.625,155.578c0,20.531,4.312,40.688,12.75,60.141l-75.75,75.703
	c-19.406-8.438-39.609-12.75-60.141-12.75c-85.781,0-155.578,69.844-155.578,155.625c0,85.734,69.797,155.531,155.578,155.531
	s155.578-69.797,155.578-155.531c0-32.953-10.594-64.781-30.094-91.406l61.875-61.828c13.969,10.219,29.25,18,45.469,22.969v254.953
	c-29.438,8.203-56.203,24.984-76.453,48.328c-24.281,28.078-37.734,64.031-37.734,101.203c0,85.781,69.844,155.625,155.625,155.625
	c85.734,0,155.531-69.844,155.531-155.625c0-20.484-4.312-40.594-12.75-60l71.438-71.484c19.547,8.531,39.891,12.891,60.75,12.891
	C936.844,730.406,1006.688,660.609,1006.688,574.828z M811.312,576c0,26.531,21.469,48,48,48s48-21.469,48-48
	c0-26.578-21.469-48-48-48S811.312,549.422,811.312,576z"/>
</svg>
