<?xml version="1.0" encoding="utf-8"?>
<!-- Generator: Adobe Illustrator 16.0.4, SVG Export Plug-In . SVG Version: 6.00 Build 0)  -->
<!DOCTYPE svg PUBLIC "-//W3C//DTD SVG 1.1//EN" "http://www.w3.org/Graphics/SVG/1.1/DTD/svg11.dtd">
<svg version="1.1" id="Layer_1" xmlns="http://www.w3.org/2000/svg" xmlns:xlink="http://www.w3.org/1999/xlink" x="0px" y="0px"
	 width="1152px" height="1152px" viewBox="0 0 1152 1152" enable-background="new 0 0 1152 1152" xml:space="preserve">
<path d="M244.688,617.625h-19.969v-19.969v-19.875c0-47.719,9.562-94.172,28.125-137.812c14.625-33.938,34.031-65.062,58.219-92.906
	l-45.562-46.5c-31.219,35.719-55.688,75.938-73.125,120c-19.406,48.844-29.531,100.406-29.812,153.188
	c-0.562,52.875,8.719,104.531,27.562,153.562c16.875,44.297,40.781,84.938,71.438,121.031L495,617.531H244.688V617.625z"/>
<path d="M847.969,617.625H624v226.078c57.469-9.328,108.938-36.188,149.156-76.875C813.375,726,839.531,673.641,847.969,617.625z"/>
<path d="M338.344,459.75c-10.406,21.984-17.719,45.188-21.938,68.25h220.781V312.281c-24.188,3.938-47.812,11.156-70.031,21.375
	c-28.125,12.938-53.719,30.469-75.656,51.938C369.562,407.203,351.562,432.188,338.344,459.75z"/>
<path d="M576,0C257.906,0,0,257.906,0,576s257.906,576,576,576s576-257.906,576-576S894.094,0,576,0z M920.531,921.422l-8.438,8.297
	l-14.344,14.109l-14.062-14.297l-77.906-79.219c-61.031,49.594-138.375,79.453-222.75,79.875l0,0l0,0h-25.875h-19.969v-19.969
	V665.203L274.219,925.125l-14.062,14.109l-14.062-14.297l-8.438-8.438C147.094,824.438,97.875,702.562,98.719,573.328
	c1.125-129.234,52.031-250.406,143.719-341.109l8.438-8.391l14.344-14.109l14.062,14.344l77.625,78.891
	c25.875-20.953,54.281-38.109,85.219-51.188c43.594-18.516,90-28.031,137.812-28.266l0,0l0,0h25.875H624V492l264.75-263.531
	l14.344-14.156l14.062,14.438l8.156,8.391C1112.062,427.031,1109.812,734.062,920.531,921.422z"/>
<path d="M972.844,426.188c-16.875-44.25-40.781-84.938-71.438-120.984L672,528h246.281H936v24v24
	c0.562,90.234-30.094,166.594-84.656,229.969l46.125,47.062c31.219-35.719,55.688-75.984,73.125-120.047
	c19.359-48.797,29.484-100.359,29.766-153.188C1000.969,526.922,991.688,475.266,972.844,426.188z"/>
</svg>
