<?xml version="1.0" encoding="utf-8"?>
<!-- Generator: Adobe Illustrator 16.0.1, SVG Export Plug-In . SVG Version: 6.00 Build 0)  -->
<!DOCTYPE svg PUBLIC "-//W3C//DTD SVG 1.1//EN" "http://www.w3.org/Graphics/SVG/1.1/DTD/svg11.dtd">
<svg version="1.1" id="Layer_1" xmlns="http://www.w3.org/2000/svg" xmlns:xlink="http://www.w3.org/1999/xlink" x="0px" y="0px"
	 width="1152px" height="1152px" viewBox="0 0 1152 1152" enable-background="new 0 0 1152 1152" xml:space="preserve">
<path d="M1146.051,1056C1134.051,1032,648,72,648,72S612,0,576,0s-72,72-72,72S17.949,1044,5.949,1068s-12,84,60,84
	s1020.102,0,1020.102,0C1158.051,1152,1158.051,1080,1146.051,1056z M499.639,358.429c0-3.901,0-7.801,5.785-10.727
	c13.884-6.826,52.064-11.702,69.42-11.702c23.138,0,59.004,3.9,71.732,8.777c5.785,2.925,5.785,7.801,5.785,10.727v70.212
	c0,81.914-18.514,259.179-23.139,288.434c0,2.927-1.159,5.851-8.102,5.851h-92.558c-4.627,0-6.941-1.949-8.098-5.851
	c-2.315-27.306-20.827-203.594-20.827-285.508V358.429z M576,1008c-53.02,0-96-42.98-96-96s42.98-96,96-96s96,42.98,96,96
	S629.02,1008,576,1008z"/>
</svg>
