<?xml version="1.0" encoding="utf-8"?>
<!-- Generator: Adobe Illustrator 16.0.1, SVG Export Plug-In . SVG Version: 6.00 Build 0)  -->
<!DOCTYPE svg PUBLIC "-//W3C//DTD SVG 1.1//EN" "http://www.w3.org/Graphics/SVG/1.1/DTD/svg11.dtd">
<svg version="1.1" id="Layer_1" xmlns="http://www.w3.org/2000/svg" xmlns:xlink="http://www.w3.org/1999/xlink" x="0px" y="0px"
	 width="1152px" height="1152px" viewBox="0 0 1152 1152" enable-background="new 0 0 1152 1152" xml:space="preserve">
<path enable-background="new    " d="M648,72c0,0-36-72-72-72s-72,72-72,72S24,1044,12,1068s-12,84,60,84s1008,0,1008,0
	c72,0,72-72,60-96S648,72,648,72z M672,384l-48,384h-96l-48-384H672z M576,1008c-53.02,0-96-42.98-96-96s42.98-96,96-96
	s96,42.98,96,96S629.02,1008,576,1008z"/>
</svg>
