<?xml version="1.0" encoding="utf-8"?>
<!-- Generator: Adobe Illustrator 16.0.1, SVG Export Plug-In . SVG Version: 6.00 Build 0)  -->
<!DOCTYPE svg PUBLIC "-//W3C//DTD SVG 1.1//EN" "http://www.w3.org/Graphics/SVG/1.1/DTD/svg11.dtd">
<svg version="1.1" id="Layer_1" xmlns="http://www.w3.org/2000/svg" xmlns:xlink="http://www.w3.org/1999/xlink" x="0px" y="0px"
	 width="1152px" height="1152px" viewBox="0 0 1152 1152" enable-background="new 0 0 1152 1152" xml:space="preserve">
<path d="M1098.299,1056C1086.799,1032,621,120,621,120s-34.5-72-69-72s-69,72-69,72S17.201,1044,5.701,1068s-11.5,84,57.5,84
	s977.598,0,977.598,0C1109.799,1152,1109.799,1080,1098.299,1056z M478,360c0-3.901,0.82-9.372,6.364-12.298
	C497.67,340.876,534.26,336,550.892,336c22.175,0,55.366,3.9,67.564,8.777C624,347.702,626,352.578,626,355.504V432
	c0,108-13.803,252.895-18.236,282.15c0,2.927-1.109,5.851-7.764,5.851h-96c-4.435,0-6.652-1.949-7.761-5.851
	C494.021,686.844,478,540,478,432V360z M552,1007.999c-53.02,0-96-42.979-96-95.999s42.98-95.999,96-95.999S648,858.98,648,912
	S605.02,1007.999,552,1007.999z"/>
</svg>
