<?xml version="1.0" encoding="utf-8"?>
<!-- Generator: Adobe Illustrator 16.0.1, SVG Export Plug-In . SVG Version: 6.00 Build 0)  -->
<!DOCTYPE svg PUBLIC "-//W3C//DTD SVG 1.1//EN" "http://www.w3.org/Graphics/SVG/1.1/DTD/svg11.dtd">
<svg version="1.1" id="Layer_1" xmlns="http://www.w3.org/2000/svg" xmlns:xlink="http://www.w3.org/1999/xlink" x="0px" y="0px"
	 width="1152px" height="1152px" viewBox="0 0 1152 1152" enable-background="new 0 0 1152 1152" xml:space="preserve">
<path enable-background="new    " d="M547.026,874.672c-7.877,2.418-16.639,3.71-26.231,3.71c-41.746,0-73.056-27.137-73.056-73.058
	c0-9.321,1.428-17.927,4.06-25.712l-11.562-11.542L548.116,660H469.91c-5.21,0-7.294,0-12.503-5.328
	c-18.754-21.323-27.089-51.172-27.089-72.494c0-85.287,136.487-137.522,136.487-222.811c0-41.577-33.341-77.824-96.896-77.824
	c-52.095,0-89.377,10.661-125.843,26.652c-4.167,2.132-7.067,0-7.067-4.264V219.71c0-4.264-0.226-8.529,3.941-10.661
	C366.989,196.256,418.971,176,496.07,176c121.9,0,199.985,71.428,199.985,173.771C696.057,467.04,548.08,534.201,548.08,594.97
	c0,17.077,5.771,32.474,15.122,49.932l167.891-168.195c21.651-21.651,49.223-33.542,77.697-33.542
	c36.044,0,68.739,18.55,87.462,49.62C906.703,510.125,912,529.9,912,551.558v24.395c48.111,0,96.223,8.882,138.948,25.367
	c3.328-23.964,5.052-48.439,5.052-73.318C1056,236.403,819.62,0,528,0C236.403,0,0,236.403,0,528c0,291.62,236.403,528,528,528
	c60.213,0,118.067-10.087,171.976-28.646L547.026,874.672z"/>
<path enable-background="new    " d="M912,671.951h-96V551.558c0-13.199-7.637-16.362-16.971-7.028L576,767.951l223.029,222.637
	c9.334,9.334,16.971,6.17,16.971-7.029V863.951h96c0.593,0-0.625,0,0,0c24,0,143.999,0,144,131.1c0.001,132.9-144,132.9-144,132.9
	s-12,0-12,12S912,1152,912,1152s240,0.074,240-239.926S936,671.951,912,671.951z"/>
</svg>
