<?xml version="1.0" encoding="utf-8"?>
<!-- Generator: Adobe Illustrator 16.0.4, SVG Export Plug-In . SVG Version: 6.00 Build 0)  -->
<!DOCTYPE svg PUBLIC "-//W3C//DTD SVG 1.1//EN" "http://www.w3.org/Graphics/SVG/1.1/DTD/svg11.dtd">
<svg version="1.1" id="Layer_1" xmlns="http://www.w3.org/2000/svg" xmlns:xlink="http://www.w3.org/1999/xlink" x="0px" y="0px"
	 width="1152px" height="1152px" viewBox="0 0 1152 1152" enable-background="new 0 0 1152 1152" xml:space="preserve">
<path fill-rule="evenodd" clip-rule="evenodd" d="M614.176,100.249C689.867,0.487,795.098,0,795.098,0s15.649,93.793-59.543,184.148
	c-80.29,96.479-171.551,80.69-171.551,80.69S546.868,188.962,614.176,100.249z"/>
<path fill-rule="evenodd" clip-rule="evenodd" d="M576,336c38.941,0,109.931-48,204-48c161.924,0,224.531,109.761,224.531,109.761
	s-124.587,58.171-124.587,212.732c0,174.36,155.199,234.448,155.199,234.448s-108.492,305.365-255.03,305.365
	c-67.309,0-119.633-45.357-190.551-45.357c-72.266,0-143.986,47.051-190.693,47.051C265.054,1152,96,862.332,96,629.49
	C96,400.401,237.785,288,372,288C459.252,288,530.64,336,576,336z"/>
</svg>
