<?xml version="1.0" encoding="utf-8"?>
<!-- Generator: Adobe Illustrator 16.0.1, SVG Export Plug-In . SVG Version: 6.00 Build 0)  -->
<!DOCTYPE svg PUBLIC "-//W3C//DTD SVG 1.1//EN" "http://www.w3.org/Graphics/SVG/1.1/DTD/svg11.dtd">
<svg version="1.1" id="Layer_1" xmlns="http://www.w3.org/2000/svg" xmlns:xlink="http://www.w3.org/1999/xlink" x="0px" y="0px"
	 width="1152px" height="1152px" viewBox="0 0 1152 1152" enable-background="new 0 0 1152 1152" xml:space="preserve">
<path d="M384,0C171.938,0,0,171.938,0,384s171.938,384,384,384s384-171.938,384-384S596.062,0,384,0z M288,624V144l288,240L288,624z
	"/>
<path d="M861.562,432c-3.281,33.094-9.984,65.203-19.688,96H1056v528H432V861.562c-15.797,1.594-31.781,2.438-48,2.438
	s-32.203-0.844-48-2.438V1152h816V432H861.562z"/>
<path d="M864,648l-96,216l-96.516-96.516c-37.5,28.172-79.125,50.906-123.938,67.219L528,864v96h432V720L864,648z"/>
</svg>
