<?xml version="1.0" encoding="utf-8"?>
<!-- Generator: Adobe Illustrator 16.0.0, SVG Export Plug-In . SVG Version: 6.00 Build 0)  -->
<!DOCTYPE svg PUBLIC "-//W3C//DTD SVG 1.1//EN" "http://www.w3.org/Graphics/SVG/1.1/DTD/svg11.dtd">
<svg version="1.1" id="Layer_1" xmlns="http://www.w3.org/2000/svg" xmlns:xlink="http://www.w3.org/1999/xlink" x="0px" y="0px"
	 width="1152px" height="1152px" viewBox="0 0 1152 1152" enable-background="new 0 0 1152 1152" xml:space="preserve">
<path d="M792,360l-72-72L408,600c0,0-48,48.001-48,96.001S408,792,408,792l24,24c0,0,48,48.001,96,48.001S624,816,624,816
	l432-432.001c0,0,48-47.999,48-119.999s-48-120-48-120l-96-96c0,0-48-48-120-48S720,48,720,48L132,636c0,0-60,60-60,156
	s60,156,60,156l144,144c0,0,60,60,156,60s156-60,156-60l468-468l-72-72l-468,468c0,0-36,36-84,36s-84-36-84-36L204,876
	c0,0-36-36-36-84s36-84,36-84s444.396-444.396,588-588c0,0,24-24,48-24s48,24,48,24l96,96c0,0,24,24,24,48s-24,48-24,48L552,744
	c0,0-12,12-24,12s-24-12-24-12l-24-24c0,0-12-12-12-24s12-24,12-24L792,360z"/>
</svg>
