<?xml version="1.0" encoding="utf-8"?>
<!-- Generator: Adobe Illustrator 16.0.1, SVG Export Plug-In . SVG Version: 6.00 Build 0)  -->
<!DOCTYPE svg PUBLIC "-//W3C//DTD SVG 1.1//EN" "http://www.w3.org/Graphics/SVG/1.1/DTD/svg11.dtd">
<svg version="1.1" id="Layer_1" xmlns="http://www.w3.org/2000/svg" xmlns:xlink="http://www.w3.org/1999/xlink" x="0px" y="0px"
	 width="1152px" height="1152px" viewBox="0 0 1152 1152" enable-background="new 0 0 1152 1152" xml:space="preserve">
<path d="M480,744c0,0-12,12-24,12s-24-12-24-12l-24-24c0,0-12-12-12-24s12-24,12-24l312-312l-72-72L336,600c0,0-48,48-48,96
	s48,96,48,96l24,24c0,0,48,48,96,48c8.18,0,16.266-1.734,24.211-4.031c0.539-52.125,11.414-101.812,30.844-147L480,744z"/>
<path d="M494.977,969L444,1020c0,0-36,36-84,36s-84-36-84-36L132,876c0,0-36-36-36-84s36-84,36-84s444.375-444.398,588-588
	c0,0,24-24,48-24s48,24,48,24l96,96c0,0,24,24,24,48s-24,48-24,48L712.945,511.031C759.328,491.156,810.375,480,864,480
	c7.711,0,15.234,0.703,22.852,1.125L984,384c0,0,48-48,48-120s-48-120-48-120l-96-96c0,0-48-48-120-48S648,48,648,48L60,636
	c0,0-60,60-60,156s60,156,60,156l144,144c0,0,60,60,156,60s156-60,156-60l23.531-23.531
	C520.219,1037.906,505.102,1004.531,494.977,969z"/>
<path d="M864,576c-159.094,0-288,128.953-288,288c0,159.094,128.906,288,288,288c159,0,288-128.906,288-288
	C1152,704.953,1023,576,864,576z M864,660c41.156,0,79.406,12.188,111.469,33.141L693.094,975.469
	C672.188,943.406,660,905.156,660,864C660,751.312,751.312,660,864,660z M864,1068c-41.156,0-79.406-12.188-111.469-33.141
	l282.281-282.328c21,32.062,33.188,70.312,33.188,111.469C1068,976.688,976.688,1068,864,1068z"/>
</svg>
