<?xml version="1.0" encoding="utf-8"?>
<!-- Generator: Adobe Illustrator 16.0.0, SVG Export Plug-In . SVG Version: 6.00 Build 0)  -->
<!DOCTYPE svg PUBLIC "-//W3C//DTD SVG 1.1//EN" "http://www.w3.org/Graphics/SVG/1.1/DTD/svg11.dtd">
<svg version="1.1" id="Layer_1" xmlns="http://www.w3.org/2000/svg" xmlns:xlink="http://www.w3.org/1999/xlink" x="0px" y="0px"
	 width="1152px" height="1152px" viewBox="0 0 1152 1152" enable-background="new 0 0 1152 1152" xml:space="preserve">
<path d="M384.004,239.999L623.999,0.003l95.998,95.998L480.002,335.997L384.004,239.999z M1013.497,510.219
	c35.287,14.926,67.772,34.831,96.965,59.32L1152,528l-96-96l-68.363,68.363C996.345,503.329,1004.969,506.611,1013.497,510.219z
	 M714.503,510.219C761.906,490.167,812.205,480,864,480l96-96L768,192L576,384l129.956,129.956
	C708.786,512.678,711.636,511.432,714.503,510.219z M510.219,714.503c19.348-45.736,47.021-86.793,82.257-122.027
	c8.052-8.05,16.419-15.686,25.062-22.937L564,516L36,972l0.129,0.129C14.032,990.839,0,1018.778,0,1050c0,56.333,45.667,102,102,102
	c31.221,0,59.161-14.032,77.871-36.129L180,1116l317.874-368.062C501.457,736.648,505.568,725.497,510.219,714.503z M864,576
	c-159.047,0-288,128.953-288,288s128.953,288,288,288s288-128.953,288-288S1023.047,576,864,576z M1056,912H912v144h-96V912H672v-96
	h144V672h96v144h144V912z"/>
</svg>
