<?xml version="1.0" encoding="utf-8"?>
<!-- Generator: Adobe Illustrator 16.0.0, SVG Export Plug-In . SVG Version: 6.00 Build 0)  -->
<!DOCTYPE svg PUBLIC "-//W3C//DTD SVG 1.1//EN" "http://www.w3.org/Graphics/SVG/1.1/DTD/svg11.dtd">
<svg version="1.1" id="Layer_1" xmlns="http://www.w3.org/2000/svg" xmlns:xlink="http://www.w3.org/1999/xlink" x="0px" y="0px"
	 width="1152px" height="1152px" viewBox="0 0 1152 1152" enable-background="new 0 0 1152 1152" xml:space="preserve">
<path d="M1056,1056v-72c0,0,0-24-24-24s-312,0-336,0s-24,24-24,24v72c0,0-48,0-72,0s-24,24-24,24v72h576v-72c0,0,0-24-24-24
	S1056,1056,1056,1056z M636,588l-72-72L36,972l0.129,0.129C14.032,990.839,0,1018.778,0,1050c0,56.333,45.667,102,102,102
	c31.221,0,59.161-14.032,77.871-36.129L180,1116L636,588z M960.006,383.997L768.008,575.995L576.01,383.997l191.998-191.998
	L960.006,383.997z M1152.01,527.998L912.012,767.995l-95.999-95.999l239.998-239.997L1152.01,527.998z M720.004,95.998
	L480.006,335.995l-95.999-95.999L624.005-0.001L720.004,95.998z"/>
</svg>
