<?xml version="1.0" encoding="utf-8"?>
<!-- Generator: Adobe Illustrator 16.0.0, SVG Export Plug-In . SVG Version: 6.00 Build 0)  -->
<!DOCTYPE svg PUBLIC "-//W3C//DTD SVG 1.1//EN" "http://www.w3.org/Graphics/SVG/1.1/DTD/svg11.dtd">
<svg version="1.1" id="Layer_1" xmlns="http://www.w3.org/2000/svg" xmlns:xlink="http://www.w3.org/1999/xlink" x="0px" y="0px"
	 width="1152px" height="1152px" viewBox="0 0 1152 1152" enable-background="new 0 0 1152 1152" xml:space="preserve">
<path d="M1056,1056v-72c0,0,0-24-24-24s-312,0-336,0s-24,24-24,24v72c0,0-48,0-72,0s-24,24-24,24v72h576v-72c0,0,0-24-24-24
	S1056,1056,1056,1056z"/>
<path d="M636,588l-72-72L36,972l0.129,0.129C14.032,990.839,0,1018.778,0,1050c0,56.333,45.667,102,102,102
	c31.221,0,59.161-14.032,77.871-36.129L180,1116L636,588z"/>
<rect x="632.245" y="248.233" transform="matrix(0.7071 -0.7071 0.7071 0.7071 -46.582 655.5345)" width="271.527" height="271.527"/>
<g>
	
		<rect x="814.307" y="532.115" transform="matrix(0.7071 -0.7071 0.7071 0.7071 -136.0519 871.5358)" width="339.407" height="135.763"/>
</g>
<g>
	
		<rect x="382.301" y="100.116" transform="matrix(0.7071 -0.7071 0.7071 0.7071 42.8865 439.5314)" width="339.408" height="135.763"/>
</g>
</svg>
