<?xml version="1.0" encoding="utf-8"?>
<!-- Generator: Adobe Illustrator 16.0.0, SVG Export Plug-In . SVG Version: 6.00 Build 0)  -->
<!DOCTYPE svg PUBLIC "-//W3C//DTD SVG 1.1//EN" "http://www.w3.org/Graphics/SVG/1.1/DTD/svg11.dtd">
<svg version="1.1" id="Layer_1" xmlns="http://www.w3.org/2000/svg" xmlns:xlink="http://www.w3.org/1999/xlink" x="0px" y="0px"
	 width="1152px" height="1152px" viewBox="0 0 1152 1152" enable-background="new 0 0 1152 1152" xml:space="preserve">
<path d="M1118.999,528c-48,0-110.999,0-110.999,0L768,912H264c-72,0-120-61.945-120-120c0-66.274,53.726-120,120-120h444
	l356.491-544.869c0,0,18.508-31.131-29.492-31.131S420,96,420,96L36,624c0,0-36,48-36,162c0,0.973,0.028,1.939,0.039,2.909
	C0.027,789.939,0,790.967,0,792c0,137.711,120,264,264,264h566.999l317.492-496.869C1148.491,559.131,1166.999,528,1118.999,528z"/>
</svg>
