<?xml version="1.0" encoding="utf-8"?>
<!-- Generator: Adobe Illustrator 16.0.0, SVG Export Plug-In . SVG Version: 6.00 Build 0)  -->
<!DOCTYPE svg PUBLIC "-//W3C//DTD SVG 1.1//EN" "http://www.w3.org/Graphics/SVG/1.1/DTD/svg11.dtd">
<svg version="1.1" id="Layer_1" xmlns="http://www.w3.org/2000/svg" xmlns:xlink="http://www.w3.org/1999/xlink" x="0px" y="0px"
	 width="1152px" height="1152px" viewBox="0 0 1152 1152" enable-background="new 0 0 1152 1152" xml:space="preserve">
<path d="M384,672c-48,0-48,48-48,48v432l144-120l144,120V720c0,0,0-48,48-48S432,672,384,672z"/>
<path d="M1118.999,432c-48,0-110.999,0-110.999,0L768,816h-48v144h110.999l317.492-496.869
	C1148.491,463.131,1166.999,432,1118.999,432z"/>
<path d="M1034.999,0C986.999,0,420,0,420,0L36,528c0,0-36,48-36,162c0,0.973,0.028,1.939,0.039,2.909C0.027,693.939,0,694.967,0,696
	c0,137.711,105.447,250.774,240,262.902V813.598c-54.773-11.119-96-59.543-96-117.598c0-66.274,53.726-120,120-120h444
	l356.491-544.869C1064.491,31.131,1082.999,0,1034.999,0z"/>
</svg>
