<?xml version="1.0" encoding="utf-8"?>
<!-- Generator: Adobe Illustrator 16.0.4, SVG Export Plug-In . SVG Version: 6.00 Build 0)  -->
<!DOCTYPE svg PUBLIC "-//W3C//DTD SVG 1.1//EN" "http://www.w3.org/Graphics/SVG/1.1/DTD/svg11.dtd">
<svg version="1.1" id="Layer_1" xmlns="http://www.w3.org/2000/svg" xmlns:xlink="http://www.w3.org/1999/xlink" x="0px" y="0px"
	 width="1152px" height="1152px" viewBox="0 0 1152 1152" enable-background="new 0 0 1152 1152" xml:space="preserve">
<path d="M1141.969,672.562l0.422-0.562l-1.453-3.469c-5.672-18.938-13.406-36.938-22.922-53.859L988.969,310.969
	C975.656,270.562,948.188,237,912,215.953C912,149.719,858.281,96,792,96s-120,53.719-120,120c0,18.188,4.312,35.25,11.578,50.625
	C669.469,287.016,660,310.594,655.688,336H496.312c-4.312-25.406-13.781-48.984-27.891-69.375C475.688,251.203,480,234.188,480,216
	c0-66.281-53.719-120-120-120s-120,53.719-120,119.953c-36.188,21.047-63.656,54.609-76.969,95.016L33.938,614.766
	c-9.516,16.875-17.203,34.828-22.828,53.719L9.609,672l0.422,0.562C3.656,695.297,0,719.203,0,744c0,145.781,118.219,264,264,264
	c145.875,0,264-118.219,264-264c0-8.109-0.469-16.078-1.219-24h98.438c-0.75,7.922-1.219,15.891-1.219,24
	c0,145.781,118.219,264,264,264c145.875,0,264-118.219,264-264C1152,719.203,1148.344,695.297,1141.969,672.562z M264,912
	c-92.812,0-168-75.188-168-168s75.188-168,168-168s168,75.188,168,168S356.812,912,264,912z M888,912c-92.812,0-168-75.188-168-168
	s75.188-168,168-168s168,75.188,168,168S980.812,912,888,912z"/>
</svg>
