<?xml version="1.0" encoding="utf-8"?>
<!-- Generator: Adobe Illustrator 16.0.1, SVG Export Plug-In . SVG Version: 6.00 Build 0)  -->
<!DOCTYPE svg PUBLIC "-//W3C//DTD SVG 1.1//EN" "http://www.w3.org/Graphics/SVG/1.1/DTD/svg11.dtd">
<svg version="1.1" id="Layer_1" xmlns="http://www.w3.org/2000/svg" xmlns:xlink="http://www.w3.org/1999/xlink" x="0px" y="0px"
	 width="1152px" height="1152px" viewBox="0 0 1152 1152" enable-background="new 0 0 1152 1152" xml:space="preserve">
<path d="M192,0v1152h192V864h288v288h192V0H192z M480,768H288v-96h192V768z M480,576H288v-96h192V576z M480,384H288v-96h192V384z
	 M480,192H288V96h192V192z M768,768H576v-96h192V768z M768,576H576v-96h192V576z M768,384H576v-96h192V384z M768,192H576V96h192V192
	z"/>
</svg>
