<?xml version="1.0" encoding="utf-8"?>
<!-- Generator: Adobe Illustrator 16.0.1, SVG Export Plug-In . SVG Version: 6.00 Build 0)  -->
<!DOCTYPE svg PUBLIC "-//W3C//DTD SVG 1.1//EN" "http://www.w3.org/Graphics/SVG/1.1/DTD/svg11.dtd">
<svg version="1.1" id="Layer_1" xmlns="http://www.w3.org/2000/svg" xmlns:xlink="http://www.w3.org/1999/xlink" x="0px" y="0px"
	 width="1152px" height="1152px" viewBox="0 0 1152 1152" enable-background="new 0 0 1152 1152" xml:space="preserve">
<path d="M1104,144c-48,0-96,0-96,0v96H720v-96H432v96H144v-96c0,0-48,0-96,0S0,192,0,192v912c0,0,0,48,48,48s1008,0,1056,0
	s48-48,48-48V192C1152,192,1152,144,1104,144z M288,1008H144V864h144V1008z M288,768H144V624h144V768z M288,528H144V384h144V528z
	 M528,1008H384V864h144V1008z M528,768H384V624h144V768z M528,528H384V384h144V528z M768,1008H624V864h144V1008z M768,768H624V624
	h144V768z M768,528H624V384h144V528z M1008,1008H864V864h144V1008z M1008,768H864V624h144V768z M1008,528H864V384h144V528z"/>
<rect x="192" width="192" height="192"/>
<rect x="768" width="192" height="192"/>
</svg>
