<?xml version="1.0" encoding="utf-8"?>
<!-- Generator: Adobe Illustrator 16.0.1, SVG Export Plug-In . SVG Version: 6.00 Build 0)  -->
<!DOCTYPE svg PUBLIC "-//W3C//DTD SVG 1.1//EN" "http://www.w3.org/Graphics/SVG/1.1/DTD/svg11.dtd">
<svg version="1.1" id="Layer_1" xmlns="http://www.w3.org/2000/svg" xmlns:xlink="http://www.w3.org/1999/xlink" x="0px" y="0px"
	 width="1152px" height="1152px" viewBox="0 0 1152 1152" enable-background="new 0 0 1152 1152" xml:space="preserve">
<path d="M292.004,528C312.239,407.405,407.405,312.239,528,292.004V1.983C248.172,25.07,25.07,248.172,1.983,528H292.004z"/>
<path d="M847.699,480.344C853.115,480.12,858.549,480,864,480c51.798,0,102.097,10.166,149.5,30.216
	c12.531,5.301,24.698,11.249,36.504,17.784h100.013C1126.93,248.172,903.828,25.07,624,1.983v290.021
	C728.196,309.488,813.398,382.914,847.699,480.344z"/>
<path d="M510.216,1013.5C490.166,966.097,480,915.798,480,864c0-5.451,0.12-10.885,0.344-16.301
	C382.914,813.398,309.488,728.196,292.004,624H1.983C25.07,903.828,248.172,1126.93,528,1150.017v-100.013
	C521.465,1038.198,515.517,1026.031,510.216,1013.5z"/>
<path d="M864,576c-159.059,0-288,128.941-288,288s128.941,288,288,288s288-128.941,288-288S1023.059,576,864,576z M1032,972l-60,60
	L864,924l-108,108l-60-60l108-108L696,756l60-60l108,108l108-108l60,60L924,864L1032,972z"/>
</svg>
