<?xml version="1.0" encoding="utf-8"?>
<!-- Generator: Adobe Illustrator 16.0.0, SVG Export Plug-In . SVG Version: 6.00 Build 0)  -->
<!DOCTYPE svg PUBLIC "-//W3C//DTD SVG 1.1//EN" "http://www.w3.org/Graphics/SVG/1.1/DTD/svg11.dtd">
<svg version="1.1" id="Layer_1" xmlns="http://www.w3.org/2000/svg" xmlns:xlink="http://www.w3.org/1999/xlink" x="0px" y="0px"
	 width="1152px" height="1152px" viewBox="0 0 1152 1152" enable-background="new 0 0 1152 1152" xml:space="preserve">
<path d="M292.004,528C312.239,407.405,407.405,312.239,528,292.004V1.983C248.172,25.07,25.07,248.172,1.983,528H292.004z
	 M982.118,514.118C992.376,503.859,1021.279,480,1068,480c39.819,0,66.686,17.326,80.107,28.797
	C1116.643,238.022,897.396,24.539,624,1.983v290.021C744.595,312.239,839.761,407.405,859.996,528h108.239L982.118,514.118z
	 M1146,642l-60-60c0,0-6-6-18-6s-18,6-18,6l-42,42l96,96l42-42c0,0,6-6,6-18S1146,642,1146,642z M696.004,935.998l263.994-263.994
	l95.998,95.997l-263.994,263.995L696.004,935.998z M480,1125.627l48-108V859.996C407.405,839.761,312.239,744.595,292.004,624H1.983
	c21.75,263.628,221.03,476.898,478.017,520.015V1125.627z M744,1080l-96-96l-72,162c0,6,0,6,6,6C582.25,1152,744,1080,744,1080z"/>
</svg>
