<?xml version="1.0" encoding="utf-8"?>
<!-- Generator: Adobe Illustrator 16.0.1, SVG Export Plug-In . SVG Version: 6.00 Build 0)  -->
<!DOCTYPE svg PUBLIC "-//W3C//DTD SVG 1.1//EN" "http://www.w3.org/Graphics/SVG/1.1/DTD/svg11.dtd">
<svg version="1.1" id="Layer_1" xmlns="http://www.w3.org/2000/svg" xmlns:xlink="http://www.w3.org/1999/xlink" x="0px" y="0px"
	 width="1152px" height="1152px" viewBox="0 0 1152 1152" enable-background="new 0 0 1152 1152" xml:space="preserve">
<path d="M292.004,528C312.239,407.405,407.405,312.239,528,292.004V1.983C248.172,25.07,25.07,248.172,1.983,528H292.004z"/>
<path d="M528,859.996C407.405,839.761,312.239,744.595,292.004,624H1.983C25.07,903.828,248.172,1126.93,528,1150.017V859.996z"/>
<path d="M672,768v384h432V768H672z M816,1050c0,0,0,6-6,6s-30,0-36,0s-6-6-6-6V822c0,0,0-6,6-6s30,0,36,0s6,6,6,6V1050z M912,1050
	c0,0,0,6-6,6s-30,0-36,0s-6-6-6-6V822c0,0,0-6,6-6s30,0,36,0s6,6,6,6V1050z M1008,1050c0,0,0,6-6,6s-30,0-36,0s-6-6-6-6V822
	c0,0,0-6,6-6s30,0,36,0s6,6,6,6V1050z"/>
<path d="M825.435,432H978c48.892,0,90.804,25.446,112.115,68.067c4.898,9.797,8.106,19.319,10.19,27.933H1116h34.017
	C1126.93,248.172,903.828,25.07,624,1.983v290.021C710.131,306.457,783.281,359.137,825.435,432z"/>
<path d="M1116,624h-108v-66c0,0,0-30-30-30c-48,0-132,0-180,0c-30,0-30,30-30,30v66c0,0-60,0-108,0c-36,0-36,36-36,36v60h528v-60
	C1152,660,1152,624,1116,624z M936,624h-96v-42c0,0,0-6,6-6c12,0,72,0,84,0c6,0,6,6,6,6V624z"/>
</svg>
