<?xml version="1.0" encoding="utf-8"?>
<!-- Generator: Adobe Illustrator 16.0.1, SVG Export Plug-In . SVG Version: 6.00 Build 0)  -->
<!DOCTYPE svg PUBLIC "-//W3C//DTD SVG 1.1//EN" "http://www.w3.org/Graphics/SVG/1.1/DTD/svg11.dtd">
<svg version="1.1" id="Layer_1" xmlns="http://www.w3.org/2000/svg" xmlns:xlink="http://www.w3.org/1999/xlink" x="0px" y="0px"
	 width="512px" height="512px" viewBox="0 0 512 512" enable-background="new 0 0 512 512" xml:space="preserve">
<path opacity="0.65" d="M160,192H32c0,0,0-128,0-144s16-16,16-16h112V192z"/>
<rect x="192" y="32" opacity="0.65" width="128" height="224"/>
<path opacity="0.65" d="M480,128H352V32h112c0,0,16,0,16,16S480,128,480,128z"/>
<rect x="352" y="160" opacity="0.65" width="128" height="224"/>
<rect x="192" y="288" opacity="0.65" width="128" height="192"/>
<path opacity="0.65" d="M160,480H48c0,0-16,0-16-16s0-240,0-240h128V480z"/>
<path opacity="0.65" d="M464,480H352v-64h128c0,0,0,32,0,48S464,480,464,480z"/>
</svg>
