<?xml version="1.0" encoding="utf-8"?>
<!-- Generator: Adobe Illustrator 16.0.1, SVG Export Plug-In . SVG Version: 6.00 Build 0)  -->
<!DOCTYPE svg PUBLIC "-//W3C//DTD SVG 1.1//EN" "http://www.w3.org/Graphics/SVG/1.1/DTD/svg11.dtd">
<svg version="1.1" id="Layer_1" xmlns="http://www.w3.org/2000/svg" xmlns:xlink="http://www.w3.org/1999/xlink" x="0px" y="0px"
	 width="512px" height="512px" viewBox="0 0 512 512" enable-background="new 0 0 512 512" xml:space="preserve">
<circle opacity="0.65" cx="176" cy="432" r="48"/>
<circle opacity="0.65" cx="400" cy="432" r="48"/>
<path opacity="0.65" d="M171.723,144H177v18.262l16,55.374V208h48v48h-36.915l4.623,16H241h15h48h16h44.219h13.578L384,254.907V208
	h17.022l5.807-16H384v-48h40.249l5.806-16H167.1L171.723,144z M320,144h48v48h-48V144z M320,208h48v48h-48V208z M256,144h48v48h-48
	V144z M256,208h48v48h-48V208z M193,144h48v48h-48V144z"/>
<polygon opacity="0.65" points="464.097,128 400.226,304 184,304 95.858,0 0,0 0,48 56,48 144,352 432,352 512,128 "/>
</svg>
