<?xml version="1.0" encoding="utf-8"?>
<!-- Generator: Adobe Illustrator 16.0.0, SVG Export Plug-In . SVG Version: 6.00 Build 0)  -->
<!DOCTYPE svg PUBLIC "-//W3C//DTD SVG 1.1//EN" "http://www.w3.org/Graphics/SVG/1.1/DTD/svg11.dtd">
<svg version="1.1" id="Layer_1" xmlns="http://www.w3.org/2000/svg" xmlns:xlink="http://www.w3.org/1999/xlink" x="0px" y="0px"
	 width="1152px" height="1152px" viewBox="0 0 1152 1152" enable-background="new 0 0 1152 1152" xml:space="preserve">
<path d="M960,528c-0.198-237-127.4-336-312-336c-130.303,0-212.759,61.422-270.561,150.896C356.335,338.391,334.448,336,312,336
	C139.687,336,0,475.688,0,648c0,171.164,117.274,310.153,288,312c1.136,0.026,672,0,672,0c108,0,192-96,192-216S1068,528,960,528z
	 M988.645,801.59C975.896,816,963.932,816,960,816H288c-108,0-144-96-144-168c0-92.636,75.364-168,168-168
	c11.901,0,23.803,1.253,35.377,3.723l97.125,20.733l53.892-83.42c19.081-29.535,39.15-50.385,61.355-63.74
	C583.575,342.966,612.442,336,648,336c57.078,0,98.736,12.596,123.817,37.437C808.258,409.528,815.958,477.354,816,528v144h144
	c15.896,0,25.491,10.847,28.645,14.41C1000.945,700.315,1008,721.307,1008,744S1000.945,787.685,988.645,801.59z"/>
</svg>
