<?xml version="1.0" encoding="utf-8"?>
<!-- Generator: Adobe Illustrator 16.0.1, SVG Export Plug-In . SVG Version: 6.00 Build 0)  -->
<!DOCTYPE svg PUBLIC "-//W3C//DTD SVG 1.1//EN" "http://www.w3.org/Graphics/SVG/1.1/DTD/svg11.dtd">
<svg version="1.1" id="Layer_1" xmlns="http://www.w3.org/2000/svg" xmlns:xlink="http://www.w3.org/1999/xlink" x="0px" y="0px"
	 width="1152px" height="1152px" viewBox="0 0 1152 1152" enable-background="new 0 0 1152 1152" xml:space="preserve">
<path d="M96,240c0-79.402,64.598-144,144-144h720V48c0-26.4-21.6-48-48-48H48C21.6,0,0,21.6,0,48v864c0,26.4,21.6,48,48,48h48V240z"
	/>
<path d="M1104,192H240c-26.4,0-48,21.6-48,48v864c0,26.4,21.6,48,48,48h864c26.4,0,48-21.6,48-48V240
	C1152,213.6,1130.4,192,1104,192z M960,768H384V576h576V768z"/>
</svg>
