<?xml version="1.0" encoding="utf-8"?>
<!-- Generator: Adobe Illustrator 16.0.0, SVG Export Plug-In . SVG Version: 6.00 Build 0)  -->
<!DOCTYPE svg PUBLIC "-//W3C//DTD SVG 1.1//EN" "http://www.w3.org/Graphics/SVG/1.1/DTD/svg11.dtd">
<svg version="1.1" id="Layer_1" xmlns="http://www.w3.org/2000/svg" xmlns:xlink="http://www.w3.org/1999/xlink" x="0px" y="0px"
	 width="1152px" height="1152px" viewBox="0 0 1152 1152" enable-background="new 0 0 1152 1152" xml:space="preserve">
<rect x="192" y="192" width="192" height="192"/>
<rect x="192" y="480" width="192" height="192"/>
<rect x="480" y="192" width="192" height="192"/>
<rect x="768" y="192" width="192" height="192"/>
<path d="M440.629,768H96V96h960v507.362c10.271,4.147,20.214,8.743,29.747,13.766c24.705,13.016,46.833,28.771,66.253,47.117V0H0
	v864h536.629L440.629,768z"/>
<path d="M896.252,492.833C906.701,510.174,912,529.949,912,551.606V576c16.067,0,32.133,1,48,2.933V480h-72.86
	C890.452,483.999,893.507,488.277,896.252,492.833z"/>
<polygon points="672,535.843 672,480 480,480 480,672 535.842,672 "/>
<path d="M912,672h-96V551.606c0-13.2-7.637-16.363-16.971-7.029L576,768l223.029,222.636c9.334,9.334,16.971,6.171,16.971-7.027V864
	h96c0.593,0-0.625,0,0,0c24,0,143.999,0,144,131.099C1056.001,1128,912,1128,912,1128s-12,0-12,12s12,12.049,12,12.049
	s240,0.074,240-239.926C1152,672.122,936,672,912,672z"/>
</svg>
