<?xml version="1.0" encoding="utf-8"?>
<!-- Generator: Adobe Illustrator 16.0.1, SVG Export Plug-In . SVG Version: 6.00 Build 0)  -->
<!DOCTYPE svg PUBLIC "-//W3C//DTD SVG 1.1//EN" "http://www.w3.org/Graphics/SVG/1.1/DTD/svg11.dtd">
<svg version="1.1" id="Layer_1" xmlns="http://www.w3.org/2000/svg" xmlns:xlink="http://www.w3.org/1999/xlink" x="0px" y="0px"
	 width="1152px" height="1152px" viewBox="0 0 1152 1152" enable-background="new 0 0 1152 1152" xml:space="preserve">
<path d="M606.305,96C485.051,96,432.001,144,432,192c0,72,96,107.999,96,156c0,48-12,84-96,84c-88.7,0-108-48-240-48
	C10.102,384,0.001,581.016,0.001,581.016c0,378.983,504,378.983,576,378.983s576,0.001,576-396C1152,200.203,727.594,96,606.305,96z
	 M192,732c-59.647,0-108-48.354-108-108s48.353-108,108-108s108,48.354,108,108S251.647,732,192,732z M432,864
	c-53.019,0-96-42.981-96-96s42.981-96,96-96s96,42.981,96,96S485.019,864,432,864z M960,360c39.765,0,72,32.237,72,72
	s-32.235,72-72,72s-72-32.237-72-72S920.235,360,960,360z M720,864c-53.02,0-96-42.981-96-96s42.98-96,96-96s96,42.981,96,96
	S773.02,864,720,864z M960,756c-46.392,0-84-37.608-84-84s37.608-84,84-84s84,37.608,84,84S1006.392,756,960,756z"/>
</svg>
