<?xml version="1.0" encoding="utf-8"?>
<!-- Generator: Adobe Illustrator 16.0.0, SVG Export Plug-In . SVG Version: 6.00 Build 0)  -->
<!DOCTYPE svg PUBLIC "-//W3C//DTD SVG 1.1//EN" "http://www.w3.org/Graphics/SVG/1.1/DTD/svg11.dtd">
<svg version="1.1" id="Layer_1" xmlns="http://www.w3.org/2000/svg" xmlns:xlink="http://www.w3.org/1999/xlink" x="0px" y="0px"
	 width="1152px" height="1152px" viewBox="0 0 1152 1152" enable-background="new 0 0 1152 1152" xml:space="preserve">
<path d="M606.305,96C485.051,96,432.001,144,432,192C432,264,528,299.999,528,348C528,396,516,432,432,432c-88.7,0-108-48-240-48
	C10.102,384,0.001,581.016,0.001,581.016c0,378.983,504,378.983,576,378.983s576,0.001,576-396C1152,200.203,727.594,96,606.305,96z
	 M192,732c-59.647,0-108-48.354-108-108s48.353-108,108-108s108,48.354,108,108S251.647,732,192,732z M432,852
	c-46.392,0-84-37.608-84-84s37.608-84,84-84s84,37.608,84,84S478.392,852,432,852z M960,384c26.51,0,48,21.491,48,48
	s-21.49,48-48,48s-48-21.491-48-48S933.49,384,960,384z M720,840c-39.765,0-72-32.236-72-72s32.235-72,72-72s72,32.236,72,72
	S759.765,840,720,840z M960,732c-33.137,0-60-26.863-60-60s26.863-60,60-60s60,26.863,60,60S993.137,732,960,732z"/>
</svg>
