<?xml version="1.0" encoding="utf-8"?>
<!-- Generator: Adobe Illustrator 16.0.4, SVG Export Plug-In . SVG Version: 6.00 Build 0)  -->
<!DOCTYPE svg PUBLIC "-//W3C//DTD SVG 1.1//EN" "http://www.w3.org/Graphics/SVG/1.1/DTD/svg11.dtd">
<svg version="1.1" id="Layer_1" xmlns="http://www.w3.org/2000/svg" xmlns:xlink="http://www.w3.org/1999/xlink" x="0px" y="0px"
	 width="1152px" height="1152px" viewBox="0 0 1152 1152" enable-background="new 0 0 1152 1152" xml:space="preserve">
<path d="M204,1152c7.125-0.133,12,0,35.999-24C240,1127.999,408,960,408,960h192c48,0,72-24,72-72V696c0,0,192,194.672,240,242.672
	s48,0,48,0V672h120c48,0,72-24,72-72V72c0-48-24-72-72-72H360c-48,0-72,24-72,72v312H72c-48,0-72,24-72,72v432c0,48,24,72,72,72h120
	v180C192,1140,192,1152,204,1152z M1056,564c0,0,0,12-12,12s-180,0-180,0v168L696,576c0,0-288,0-300,0s-12-12-12-12V108
	c0,0,0-12,12-12c11.062,0,559.5,0,648,0c12,0,12,12,12,12V564z"/>
</svg>
