<?xml version="1.0" encoding="utf-8"?>
<!-- Generator: Adobe Illustrator 16.0.1, SVG Export Plug-In . SVG Version: 6.00 Build 0)  -->
<!DOCTYPE svg PUBLIC "-//W3C//DTD SVG 1.1//EN" "http://www.w3.org/Graphics/SVG/1.1/DTD/svg11.dtd">
<svg version="1.1" id="Layer_1" xmlns="http://www.w3.org/2000/svg" xmlns:xlink="http://www.w3.org/1999/xlink" x="0px" y="0px"
	 width="1152px" height="1152px" viewBox="0 0 1152 1152" enable-background="new 0 0 1152 1152" xml:space="preserve">
<path d="M864,576c-159.047,0-288,128.953-288,288s128.953,288,288,288s288-128.953,288-288S1023.047,576,864,576z M1056,912H912v144
	h-96V912H672v-96h144V672h96v144h144V912z"/>
<path d="M480,864c0-51.795,10.167-102.094,30.219-149.497c19.346-45.736,47.021-86.793,82.257-122.027
	c5.698-5.698,11.563-11.177,17.562-16.476c-98.384,0-207.521,0-214.037,0c-12,0-12-12-12-12V156c0,0,0-12,12-12
	c11.031,0,559.495,0,648,0c12,0,12,12,12,12v375.38c28.954,16.718,55.586,37.157,79.524,61.095
	c5.569,5.569,10.928,11.301,16.117,17.157c0.23-3.1,0.358-6.303,0.358-9.633V120c0-48-24-72-72-72H360c-48,0-72,24-72,72v216H72
	c-48,0-72,24-72,72v432c0,48,24,72,72,72h72v192c0,0,0,48,48,0s192-192,192-192h98.961C480.99,896.174,480,880.16,480,864z"/>
</svg>
