<?xml version="1.0" encoding="utf-8"?>
<!-- Generator: Adobe Illustrator 16.0.0, SVG Export Plug-In . SVG Version: 6.00 Build 0)  -->
<!DOCTYPE svg PUBLIC "-//W3C//DTD SVG 1.1//EN" "http://www.w3.org/Graphics/SVG/1.1/DTD/svg11.dtd">
<svg version="1.1" id="Layer_1" xmlns="http://www.w3.org/2000/svg" xmlns:xlink="http://www.w3.org/1999/xlink" x="0px" y="0px"
	 width="1152px" height="1152px" viewBox="0 0 1152 1152" enable-background="new 0 0 1152 1152" xml:space="preserve">
<path d="M1080,48H360c-48,0-72,24-72,72v216H72c-48,0-72,24-72,72v432c0,48,24,72,72,72h72v192c0,0,0,48,48,0s192-192,192-192h264
	c48,0,72-24,72-72V672c0,0,192,192,240,240s48,0,48,0V672h72c48,0,72-24,72-72V120C1152,72,1128,48,1080,48z M1044,576
	c-12,0-132,0-132,0v144L768,576c0,0-360,0-372,0s-12-12-12-12V156c0,0,0-12,12-12c11.031,0,559.495,0,648,0c12,0,12,12,12,12v408
	C1056,564,1056,576,1044,576z"/>
</svg>
