<?xml version="1.0" encoding="utf-8"?>
<!-- Generator: Adobe Illustrator 16.0.0, SVG Export Plug-In . SVG Version: 6.00 Build 0)  -->
<!DOCTYPE svg PUBLIC "-//W3C//DTD SVG 1.1//EN" "http://www.w3.org/Graphics/SVG/1.1/DTD/svg11.dtd">
<svg version="1.1" id="Layer_1" xmlns="http://www.w3.org/2000/svg" xmlns:xlink="http://www.w3.org/1999/xlink" x="0px" y="0px"
	 width="1152px" height="1152px" viewBox="0 0 1152 1152" enable-background="new 0 0 1152 1152" xml:space="preserve">
<path d="M960,624c-47.273,0-90.548,17.095-124.003,45.427L672,564v-24l163.997-105.427C869.452,462.905,912.727,480,960,480
	c106.039,0,192-85.961,192-192S1066.039,96,960,96s-192,85.961-192,192c0,13.824,1.474,27.301,4.249,40.296L624,432
	C352.704,240.273,108,180,108,180L0,288c132,0,504,216,540,264C504,600,132,816,0,816l108,108c0,0,244.704-60.273,516-252
	l148.452,102.774C769.546,788.056,768,801.847,768,816c0,106.039,85.961,192,192,192s192-85.961,192-192S1066.039,624,960,624z
	 M960,192c52.935,0,96,43.065,96,96s-43.065,96-96,96s-96-43.065-96-96S907.065,192,960,192z M960,912c-52.935,0-96-43.065-96-96
	s43.065-96,96-96s96,43.065,96,96S1012.935,912,960,912z"/>
</svg>
