<?xml version="1.0" encoding="utf-8"?>
<!-- Generator: Adobe Illustrator 16.0.0, SVG Export Plug-In . SVG Version: 6.00 Build 0)  -->
<!DOCTYPE svg PUBLIC "-//W3C//DTD SVG 1.1//EN" "http://www.w3.org/Graphics/SVG/1.1/DTD/svg11.dtd">
<svg version="1.1" id="Layer_1" xmlns="http://www.w3.org/2000/svg" xmlns:xlink="http://www.w3.org/1999/xlink" x="0px" y="0px"
	 width="1152px" height="1152px" viewBox="0 0 1152 1152" enable-background="new 0 0 1152 1152" xml:space="preserve">
<path d="M1004.086,663.819c-12.266-14.694-29.727-67.875-20.781-97.493c0,0,50.617-109.604,50.617-139.427c0,0,0,0,14.919,0
	c29.836,0,44.753-59.25,44.753-88.867c0-29.619-29.766-31.174-29.766-31.174v-26.841c-2.534-99.787-81.215-178.942-179.085-178.942
	c-5.656,0-11.244,0.276-16.76,0.793c12.206,30.021,19.949,62.005,22.826,95.047c24.326,24.39,38.135,57.735,38.135,94.411
	c0,33.031-7.742,71.969-20.711,104.158c-18.663,46.326-45.023,71.672-69.979,85.4c-5.307,15.439-12.192,33.681-21.104,55.484
	c-10.417,25.479-20.748,48.851-27.03,62.791c0.863,9.732,5.22,25.567,9.042,34.078c13.993,13.217,47.553,26.797,74.886,37.856
	c36.179,14.643,73.59,29.78,106.477,54.774C1042.905,773.281,1056,832.555,1056,873.931v75.593c80.192-14.124,96-37.522,96-37.522
	s0-61.681,0-110.851C1152,712.295,1058.164,728.492,1004.086,663.819z"/>
<g>
	<path d="M103.159,426.899c14.919,0,14.919,0,14.919,0c0,29.823,50.617,139.427,50.617,139.427
		c8.945,29.618-8.516,82.799-20.782,97.493c-25.219,30.159-59.083,42.732-88.045,56.573h119.154
		c4.264-2.994,8.594-5.842,12.978-8.56v-15.44c0-21.656,5.298-41.432,15.748-58.771c18.723-31.07,51.42-49.62,87.465-49.62
		c23.126,0,45.656,7.842,64.871,22.354c0.895-4.078,1.555-7.975,1.827-11.19c-6.237-13.915-16.556-37.38-26.959-62.971
		c-8.842-21.75-15.675-39.949-20.944-55.356c-24.93-13.738-51.25-39.079-69.892-85.355c-12.968-32.189-20.709-71.126-20.709-104.156
		c0-36.511,13.672-69.751,37.761-94.124c2.862-33.14,10.629-65.221,22.896-95.33c-5.53-0.521-11.134-0.798-16.806-0.798
		c-97.87,0-176.551,79.155-179.085,178.942v26.841c0,0-29.765,1.555-29.765,31.174C58.407,367.65,73.323,426.899,103.159,426.899z"
		/>
	<path d="M722.723,691.87c-15.081-18.064-36.721-83.456-25.725-119.87c0,0,62.582-134.75,62.582-171.417c0,0,0,0,18.342,0
		c36.683,0,55.022-72.843,55.022-109.257C832.944,254.913,796,253,796,253v-33C792.884,97.317,696.5,0.001,576.175,0.001
		S359.116,97.317,356,220v33c0,0-36.594,1.912-36.594,38.327c0,36.413,18.34,109.257,55.021,109.257c18.342,0,18.342,0,18.342,0
		C392.769,437.25,455,572,455,572c9.683,32.061-5.8,86.57-19.933,111.477l228.696,227.891L519.64,1056h129.897
		C960,1056,960,996,960,996s0-61.617,0-122.069C960,764.689,789.21,771.383,722.723,691.87z"/>
	<path d="M304.971,689.365c-9.334-9.334-16.971-6.172-16.971,7.027v120H0v192h288v120c0,13.2,7.637,16.363,16.971,7.029L528,911.606
		L304.971,689.365z"/>
</g>
</svg>
