<?xml version="1.0" encoding="utf-8"?>
<!-- Generator: Adobe Illustrator 16.0.0, SVG Export Plug-In . SVG Version: 6.00 Build 0)  -->
<!DOCTYPE svg PUBLIC "-//W3C//DTD SVG 1.1//EN" "http://www.w3.org/Graphics/SVG/1.1/DTD/svg11.dtd">
<svg version="1.1" id="Layer_1" xmlns="http://www.w3.org/2000/svg" xmlns:xlink="http://www.w3.org/1999/xlink" x="0px" y="0px"
	 width="1152px" height="1152px" viewBox="0 0 1152 1152" enable-background="new 0 0 1152 1152" xml:space="preserve">
<path d="M192,384v768h768V384H192z M432,996c0,0,0,12-12,12s-59.999,0-72,0s-12-12-12-12V492c0,0,0-12,12-12s60,0,72,0s12,12,12,12
	V996z M624,996c0,0,0,12-12,12s-60,0-72,0s-12-12-12-12V492c0,0,0-12,12-12s60,0,72,0s12,12,12,12V996z M816,996c0,0,0,12-12,12
	s-60,0-72,0s-12-12-12-12V492c0,0,0-12,12-12s60,0,72,0s12,12,12,12V996z"/>
<path d="M984,192c-96,0-168,0-168,0V60c0,0,0-60-60-60c-96,0-264,0-360,0c-60,0-60,60-60,60v132c0,0-72,0-168,0c-72,0-72,72-72,72
	v72h960v-72C1056,264,1056,192,984,192z M672,192H480v-84c0,0,0-12,12-12c24,0,144,0,168,0c12,0,12,12,12,12V192z"/>
</svg>
