<?xml version="1.0" encoding="utf-8"?>
<!-- Generator: Adobe Illustrator 16.0.1, SVG Export Plug-In . SVG Version: 6.00 Build 0)  -->
<!DOCTYPE svg PUBLIC "-//W3C//DTD SVG 1.1//EN" "http://www.w3.org/Graphics/SVG/1.1/DTD/svg11.dtd">
<svg version="1.1" id="Layer_1" xmlns="http://www.w3.org/2000/svg" xmlns:xlink="http://www.w3.org/1999/xlink" x="0px" y="0px"
	 width="1152px" height="1152px" viewBox="0 0 1152 1152" enable-background="new 0 0 1152 1152" xml:space="preserve">
<path d="M970.688,695.156c-4.641-5.625-10.125-17.578-14.297-31.406C1038.797,650.062,1104,624,1104,624c-48-48,48-432-239.812-432
	S672,576,624,624c0,0,53.344,27.75,147.281,41.062c-4.125,13.219-9.328,24.656-13.875,30.094
	c-16.688,19.969-43.547,32.953-71.484,44.719c43.641,30,82.078,75.375,82.078,150.609v68.906c13.312,0.375,27.516,0.609,42.75,0.609
	h106.688C1152,960,1152,912,1152,912s0-36,0-80.016C1152,752.531,1019.062,753,970.688,695.156z"/>
<path d="M269.438,1056C0,1056,0,1001.438,0,1001.438s0-55.969,0-110.953c0-99.328,142.312-93.234,202.781-165.516
	c13.688-16.453,33.188-75.844,23.156-108.938c0,0-56.531-122.531-56.531-155.859c0,0,0,0-16.641,0
	c-33.422,0-50.016-66.234-50.016-99.328s33.188-34.875,33.188-34.875v-30C138.75,184.5,226.734,96,336.188,96
	c109.312,0,196.969,88.5,199.781,199.969v30c0,0,33.562,1.781,33.562,34.875s-16.594,99.328-49.969,99.328
	c-16.688,0-16.688,0-16.688,0c0,33.328-56.906,155.859-56.906,155.859c-9.984,33.094,9.703,92.484,23.438,108.938
	C529.781,797.25,672,791.156,672,890.484c0,54.984,0,110.953,0,110.953S672,1056,402.844,1056H269.438z"/>
</svg>
