<?xml version="1.0" encoding="utf-8"?>
<!-- Generator: Adobe Illustrator 16.0.0, SVG Export Plug-In . SVG Version: 6.00 Build 0)  -->
<!DOCTYPE svg PUBLIC "-//W3C//DTD SVG 1.1//EN" "http://www.w3.org/Graphics/SVG/1.1/DTD/svg11.dtd">
<svg version="1.1" id="Layer_1" xmlns="http://www.w3.org/2000/svg" xmlns:xlink="http://www.w3.org/1999/xlink" x="0px" y="0px"
	 width="1152px" height="1152px" viewBox="0 0 1152 1152" enable-background="new 0 0 1152 1152" xml:space="preserve">
<g>
	<path d="M432,864l-96,192.001l0,35.999c0,0,0,12,12,12s444,0,456,0s12-12,12-12v-35.999L720,864H432z"/>
	<path d="M1104,48c-48,0-1008,0-1056,0S0,96,0,96v672c0,0,0,48,48,48s1008,0,1056,0s48-48,48-48V96C1152,96,1152,48,1104,48z
		 M1056,720H96V144h960V720z"/>
</g>
</svg>
