<?xml version="1.0" encoding="utf-8"?>
<!-- Generator: Adobe Illustrator 16.0.1, SVG Export Plug-In . SVG Version: 6.00 Build 0)  -->
<!DOCTYPE svg PUBLIC "-//W3C//DTD SVG 1.1//EN" "http://www.w3.org/Graphics/SVG/1.1/DTD/svg11.dtd">
<svg version="1.1" id="Layer_1" xmlns="http://www.w3.org/2000/svg" xmlns:xlink="http://www.w3.org/1999/xlink" x="0px" y="0px"
	 width="1152px" height="1152px" viewBox="0 0 1152 1152" enable-background="new 0 0 1152 1152" xml:space="preserve">
<path d="M912,1104c0-96,0-1056,0-1056c0-48-48-48-48-48H288c0,0-48,0-48,48c0,0,0,960,0,1056c0,48,48,48,48,48h576
	C864,1152,912,1152,912,1104z M336,912V192h480v720H336z M516,1008c0-33.137,26.863-60,60-60c33.137,0,60,26.863,60,60
	s-26.863,60-60,60C542.863,1068,516,1041.137,516,1008z"/>
</svg>
