<?xml version="1.0" encoding="utf-8"?>
<!-- Generator: Adobe Illustrator 16.0.1, SVG Export Plug-In . SVG Version: 6.00 Build 0)  -->
<!DOCTYPE svg PUBLIC "-//W3C//DTD SVG 1.1//EN" "http://www.w3.org/Graphics/SVG/1.1/DTD/svg11.dtd">
<svg version="1.1" id="Layer_1" xmlns="http://www.w3.org/2000/svg" xmlns:xlink="http://www.w3.org/1999/xlink" x="0px" y="0px"
	 width="1152px" height="1152px" viewBox="0 0 1152 1152" enable-background="new 0 0 1152 1152" xml:space="preserve">
<path d="M1104,96c-48,0-1008,0-1056,0S0,144,0,144v864c0,0,0,48,48,48s1008,0,1056,0s48-48,48-48V144C1152,144,1152,96,1104,96z
	 M960,912H144V240h816V912z M1056,636c-33.137,0-60-26.863-60-60c0-33.137,26.863-60,60-60s60,26.863,60,60
	C1116,609.137,1089.137,636,1056,636z"/>
</svg>
