<?xml version="1.0" encoding="utf-8"?>
<!-- Generator: Adobe Illustrator 16.0.0, SVG Export Plug-In . SVG Version: 6.00 Build 0)  -->
<!DOCTYPE svg PUBLIC "-//W3C//DTD SVG 1.1//EN" "http://www.w3.org/Graphics/SVG/1.1/DTD/svg11.dtd">
<svg version="1.1" id="Layer_1" xmlns="http://www.w3.org/2000/svg" xmlns:xlink="http://www.w3.org/1999/xlink" x="0px" y="0px"
	 width="1152px" height="1152px" viewBox="0 0 1152 1152" enable-background="new 0 0 1152 1152" xml:space="preserve">
<path d="M1008,696V192c0,0,0-48-48-48s-720,0-768,0s-48,48-48,48v504L0,936v48c0,0,0,24,24,24s1080,0,1104,0s24-24,24-24v-48
	L1008,696z M732,912H420c-6.6,0-10.69-5.238-9.089-11.642l18.179-72.719C430.69,821.238,437.4,816,444,816h264
	c6.6,0,13.31,5.238,14.91,11.642l18.18,72.719C742.69,906.762,738.6,912,732,912z M912,672H240V240h672V672z"/>
</svg>
