<?xml version="1.0" encoding="utf-8"?>
<!-- Generator: Adobe Illustrator 16.0.0, SVG Export Plug-In . SVG Version: 6.00 Build 0)  -->
<!DOCTYPE svg PUBLIC "-//W3C//DTD SVG 1.1//EN" "http://www.w3.org/Graphics/SVG/1.1/DTD/svg11.dtd">
<svg version="1.1" id="Layer_1" xmlns="http://www.w3.org/2000/svg" xmlns:xlink="http://www.w3.org/1999/xlink" x="0px" y="0px"
	 width="1152px" height="1152px" viewBox="0 0 1152 1152" enable-background="new 0 0 1152 1152" xml:space="preserve">
<g>
	<path d="M552,432h-72v288h72c91.859,0,153-50.381,153-143.144v-1.688C705,483.163,643.859,432,552,432z"/>
	<path d="M1104,0H48C21.6,0,0,21.6,0,48v1056c0,26.4,21.6,48,48,48h1056c26.4,0,48-21.6,48-48V48C1152,21.6,1130.4,0,1104,0z
		 M863.219,576.781C863.219,742.719,751.504,864,552,864H336V288h216c197.889,0,311.219,121.192,311.219,287.13V576.781z"/>
</g>
</svg>
