<?xml version="1.0" encoding="utf-8"?>
<!-- Generator: Adobe Illustrator 16.0.4, SVG Export Plug-In . SVG Version: 6.00 Build 0)  -->
<!DOCTYPE svg PUBLIC "-//W3C//DTD SVG 1.1//EN" "http://www.w3.org/Graphics/SVG/1.1/DTD/svg11.dtd">
<svg version="1.1" id="Layer_1" xmlns="http://www.w3.org/2000/svg" xmlns:xlink="http://www.w3.org/1999/xlink" x="0px" y="0px"
	 width="1152px" height="1152px" viewBox="0 0 1152 1152" enable-background="new 0 0 1152 1152" xml:space="preserve">
<path d="M576,0C257.906,0,0,257.906,0,576s257.906,576,576,576s576-257.906,576-576S894.094,0,576,0z M264,912c-24,0-24,0-24-24
	l72-192l144,144C456,840,264.469,912,264,912z M504,792L360,648l288-288l144,144L504,792z M900,396l-60,60L696,312l60-60
	c0,0,12-12,36-12s36,12,36,12l72,72c0,0,12,12,12,36S900,396,900,396z"/>
</svg>
