<?xml version="1.0" encoding="utf-8"?>
<!-- Generator: Adobe Illustrator 16.0.1, SVG Export Plug-In . SVG Version: 6.00 Build 0)  -->
<!DOCTYPE svg PUBLIC "-//W3C//DTD SVG 1.1//EN" "http://www.w3.org/Graphics/SVG/1.1/DTD/svg11.dtd">
<svg version="1.1" id="Layer_1" xmlns="http://www.w3.org/2000/svg" xmlns:xlink="http://www.w3.org/1999/xlink" x="0px" y="0px"
	 width="1152px" height="1152px" viewBox="0 0 1152 1152" enable-background="new 0 0 1152 1152" xml:space="preserve">
<polygon points="0,96 0,144 576,576 1152,144 1152,96 "/>
<polygon points="0,648 0,264 252,453 "/>
<path d="M888,576c-145.781,0-264,118.219-264,264s118.219,264,264,264c145.828,0,264-118.219,264-264S1033.828,576,888,576z
	 M888,1032c-106.031,0-192-85.969-192-192s85.969-192,192-192s192,85.969,192,192S994.031,1032,888,1032z"/>
<path d="M900,696h-24c-6.562,0-12,5.391-12,12v122.062l-69.328,69.328c-4.641,4.641-4.641,12.328,0,16.969l16.969,16.969
	c4.688,4.688,12.328,4.688,16.969,0L912,849.938V708C912,701.391,906.609,696,900,696z"/>
<path d="M528,840c0-55.125,12.75-107.156,34.875-153.844L336,516L0,780v84h529.219C528.703,856.031,528,848.109,528,840z"/>
<path d="M1152,595.828V264L900,453l40.359,31.242C1023.609,496.406,1097.484,536.906,1152,595.828z"/>
</svg>
