<?xml version="1.0" encoding="utf-8"?>
<!-- Generator: Adobe Illustrator 16.0.1, SVG Export Plug-In . SVG Version: 6.00 Build 0)  -->
<!DOCTYPE svg PUBLIC "-//W3C//DTD SVG 1.1//EN" "http://www.w3.org/Graphics/SVG/1.1/DTD/svg11.dtd">
<svg version="1.1" id="Layer_1" xmlns="http://www.w3.org/2000/svg" xmlns:xlink="http://www.w3.org/1999/xlink" x="0px" y="0px"
	 width="1152px" height="1152px" viewBox="0 0 1152 1152" enable-background="new 0 0 1152 1152" xml:space="preserve">
<path d="M1039.172,49H114.829C78.636,49,49,78.636,49,114.829v924.343c0,36.192,29.636,65.828,65.829,65.828h924.343
	c36.192,0,65.828-29.636,65.828-65.828V114.829C1105,78.636,1075.364,49,1039.172,49z M930.785,673H769v336H625V673H481V529h144
	c0,0-1-77.243-1-145c0-102.343,51.578-192,204-192c61.715,0,120,24,120,24l-14.39,133c0,0-46.542-12-97.329-12
	C781.322,337,769,375.613,769,417.656c0,5.453,0,7.209,0,7.141c0,11.82,0,40.521,0,104.203h168.986L930.785,673z"/>
</svg>
