<?xml version="1.0" encoding="utf-8"?>
<!-- Generator: Adobe Illustrator 16.0.1, SVG Export Plug-In . SVG Version: 6.00 Build 0)  -->
<!DOCTYPE svg PUBLIC "-//W3C//DTD SVG 1.1//EN" "http://www.w3.org/Graphics/SVG/1.1/DTD/svg11.dtd">
<svg version="1.1" id="Layer_1" xmlns="http://www.w3.org/2000/svg" xmlns:xlink="http://www.w3.org/1999/xlink" x="0px" y="0px"
	 width="1152px" height="1152px" viewBox="0 0 1152 1152" enable-background="new 0 0 1152 1152" xml:space="preserve">
<path enable-background="new    " d="M1086.172,0H65.829C29.636,0,0,29.636,0,65.829v1020.343C0,1122.364,29.636,1152,65.829,1152
	h1020.343c36.192,0,65.828-29.636,65.828-65.828V65.829C1152,29.636,1122.364,0,1086.172,0z M977.785,624H816v432H672V624H528V480
	h144c0,0,0-62.486,0-130.243C672,247.414,724.436,156,876.857,156c61.715,0,107.356,12,107.356,12l-3.601,132
	c0,0-46.542-12-97.329-12C828.322,288,816,326.613,816,368.656c0,5.453,0,7.209,0,7.141c0,11.82,0,40.521,0,104.203h168.986
	L977.785,624z"/>
</svg>
