<?xml version="1.0" encoding="utf-8"?>
<!-- Generator: Adobe Illustrator 16.0.1, SVG Export Plug-In . SVG Version: 6.00 Build 0)  -->
<!DOCTYPE svg PUBLIC "-//W3C//DTD SVG 1.1//EN" "http://www.w3.org/Graphics/SVG/1.1/DTD/svg11.dtd">
<svg version="1.1" id="Layer_1" xmlns="http://www.w3.org/2000/svg" xmlns:xlink="http://www.w3.org/1999/xlink" x="0px" y="0px"
	 width="1152px" height="1152px" viewBox="0 0 1152 1152" enable-background="new 0 0 1152 1152" xml:space="preserve">
<path d="M96,48v1056h960V48H96z M288,1008h-96v-96h96V1008z M288,816h-96v-96h96V816z M288,624h-96v-96h96V624z M288,432h-96v-96h96
	V432z M288,240h-96v-96h96V240z M768,1008H384V624h384V1008z M768,528H384V144h384V528z M960,1008h-96v-96h96V1008z M960,816h-96
	v-96h96V816z M960,624h-96v-96h96V624z M960,432h-96v-96h96V432z M960,240h-96v-96h96V240z"/>
</svg>
