<?xml version="1.0" encoding="utf-8"?>
<!-- Generator: Adobe Illustrator 16.0.0, SVG Export Plug-In . SVG Version: 6.00 Build 0)  -->
<!DOCTYPE svg PUBLIC "-//W3C//DTD SVG 1.1//EN" "http://www.w3.org/Graphics/SVG/1.1/DTD/svg11.dtd">
<svg version="1.1" id="Layer_1" xmlns="http://www.w3.org/2000/svg" xmlns:xlink="http://www.w3.org/1999/xlink" x="0px" y="0px"
	 width="1152px" height="1152px" viewBox="0 0 1152 1152" enable-background="new 0 0 1152 1152" xml:space="preserve">
<path d="M48,0v96c0,0,336,288,336,672c0,0,0,192,0,240s48,48,48,48h79.13l-0.122-0.143l56.505-127.136l8.486-8.486
	C576,850.012,576,768,576,768c0-384,336-672,336-672V0H48z"/>
<path d="M1146,642l-60-60c0,0-6-6-18-6s-18,6-18,6l-42,42l96,96l42-42c0,0,6-6,6-18S1146,642,1146,642z"/>
<rect x="689.324" y="784.118" transform="matrix(-0.7071 0.7071 -0.7071 -0.7071 2097.8804 835.0294)" width="373.352" height="135.764"/>
<path d="M744,1080l-96-96l-72,162c0,6,0,6,6,6C582.25,1152,744,1080,744,1080z"/>
</svg>
