<?xml version="1.0" encoding="utf-8"?>
<!-- Generator: Adobe Illustrator 16.0.4, SVG Export Plug-In . SVG Version: 6.00 Build 0)  -->
<!DOCTYPE svg PUBLIC "-//W3C//DTD SVG 1.1//EN" "http://www.w3.org/Graphics/SVG/1.1/DTD/svg11.dtd">
<svg version="1.1" id="Layer_1" xmlns="http://www.w3.org/2000/svg" xmlns:xlink="http://www.w3.org/1999/xlink" x="0px" y="0px"
	 width="1152px" height="1152px" viewBox="0 0 1152 1152" enable-background="new 0 0 1152 1152" xml:space="preserve">
<polygon points="864,576 936,768 1152,768 984,900 1056,1152 864,1008 672,1152 744,900 576,768 792,768 "/>
<path d="M520.014,850.9c-35.03-27.528-48.59-71.53-34.554-112.106C499.496,698.218,537.346,672,581.889,672h1.025
	C630.854,336.988,912,96,912,96V0H48v96c0,0,336,288,336,672c0,0,0,192,0,240s48,48,48,48h96c0,0,48,0,48-48
	c0-7.799,0-61.085,0-115.47L520.014,850.9z"/>
</svg>
