<?xml version="1.0" encoding="utf-8"?>
<!-- Generator: Adobe Illustrator 16.0.1, SVG Export Plug-In . SVG Version: 6.00 Build 0)  -->
<!DOCTYPE svg PUBLIC "-//W3C//DTD SVG 1.1//EN" "http://www.w3.org/Graphics/SVG/1.1/DTD/svg11.dtd">
<svg version="1.1" id="Layer_1" xmlns="http://www.w3.org/2000/svg" xmlns:xlink="http://www.w3.org/1999/xlink" x="0px" y="0px"
	 width="1152px" height="1152px" viewBox="0 0 1152 1152" enable-background="new 0 0 1152 1152" xml:space="preserve">
<path d="M1140,132L1020,12c0,0-12-12-36-12s-36,12-36,12l-84,84l192,192l84-84c0,0,12-12,12-36S1140,132,1140,132z"/>
<path d="M1116,972c-12.075-12.075-145.646-145.646-232.275-232.275c41.203-63.916,67.629-138.25,74.484-218.174L521.551,958.209
	c79.924-6.855,154.258-33.281,218.174-74.484c86.629,86.629,220.2,220.2,232.275,232.275c18,18,36.012,36,72,36s54-18,72-36
	s36-36,36-72S1134,990,1116,972z"/>
<path d="M184.391,639.849C158.631,592.312,144,537.865,144,480c0-185.568,150.433-336,336-336
	c57.866,0,112.312,14.631,159.849,40.39L744.707,79.532C668.825,29.273,577.833,0,480,0C214.903,0,0,214.903,0,480
	c0,97.832,29.273,188.825,79.532,264.707L184.391,639.849z"/>
<rect x="192.714" y="416.238" transform="matrix(-0.7071 0.7071 -0.7071 -0.7071 1414.5862 518.0582)" width="814.571" height="271.523"/>
<path d="M336,1008L144,816L0,1140c0,12,0,12,12,12C12.5,1152,336,1008,336,1008z"/>
</svg>
