<?xml version="1.0" encoding="utf-8"?>
<!-- Generator: Adobe Illustrator 16.0.1, SVG Export Plug-In . SVG Version: 6.00 Build 0)  -->
<!DOCTYPE svg PUBLIC "-//W3C//DTD SVG 1.1//EN" "http://www.w3.org/Graphics/SVG/1.1/DTD/svg11.dtd">
<svg version="1.1" id="Layer_1" xmlns="http://www.w3.org/2000/svg" xmlns:xlink="http://www.w3.org/1999/xlink" x="0px" y="0px"
	 width="1152px" height="1152px" viewBox="0 0 1152 1152" enable-background="new 0 0 1152 1152" xml:space="preserve">
<path d="M120,1152c-24,0-72,0-96,0s-24-24-24-24V24C0,24,0,0,24,0s72,0,96,0s24,24,24,24v1104C144,1128,144,1152,120,1152z"/>
<path d="M792,396c144,36,312-120,312-252c0,0-60,60-240,60C719.501,204,640,0,444,0c-68.94,0-169.502,13.092-204,25.602v652.934
	C279.758,652.568,393.807,624,492,624c180,0,240,96,372,96c192,0,288-144,288-144C828,636,718.371,377.593,792,396z"/>
</svg>
