<?xml version="1.0" encoding="utf-8"?>
<!-- Generator: Adobe Illustrator 16.0.0, SVG Export Plug-In . SVG Version: 6.00 Build 0)  -->
<!DOCTYPE svg PUBLIC "-//W3C//DTD SVG 1.1//EN" "http://www.w3.org/Graphics/SVG/1.1/DTD/svg11.dtd">
<svg version="1.1" id="Layer_1" xmlns="http://www.w3.org/2000/svg" xmlns:xlink="http://www.w3.org/1999/xlink" x="0px" y="0px"
	 width="1152px" height="1152px" viewBox="0 0 1152 1152" enable-background="new 0 0 1152 1152" xml:space="preserve">
<path d="M576,0C257.854,0,0,257.906,0,576c0,318.164,257.854,576,576,576c318.164,0,576-257.836,576-576
	C1152,257.906,894.164,0,576,0z M576,1008c-238.586,0-432-193.381-432-432c0-238.586,193.414-432,432-432
	c238.587,0,432,193.414,432,432C1008,814.619,814.587,1008,576,1008z"/>
<path d="M528,576c0,79.523-64.477,144-144,144s-144-64.477-144-144s64.477-144,144-144S528,496.477,528,576z"/>
<path d="M912,576c0,79.523-64.477,144-144,144s-144-64.477-144-144s64.477-144,144-144S912,496.477,912,576z"/>
</svg>
