<?xml version="1.0" encoding="utf-8"?>
<!-- Generator: Adobe Illustrator 16.0.1, SVG Export Plug-In . SVG Version: 6.00 Build 0)  -->
<!DOCTYPE svg PUBLIC "-//W3C//DTD SVG 1.1//EN" "http://www.w3.org/Graphics/SVG/1.1/DTD/svg11.dtd">
<svg version="1.1" id="Layer_1" xmlns="http://www.w3.org/2000/svg" xmlns:xlink="http://www.w3.org/1999/xlink" x="0px" y="0px"
	 width="1152px" height="1152px" viewBox="0 0 1152 1152" enable-background="new 0 0 1152 1152" xml:space="preserve">
<path d="M533.162,492c-10.256,0-17.249,0.933-21.444,1.865v93.202C515.914,588,520.575,588,527.568,588C564,588,588,576,588,534.562
	C588,504,562.532,492,533.162,492z"/>
<path d="M828.661,500.153c-31.29,0-52.447,36.744-52.447,100.563c0,65.753,21.157,99.596,52.888,99.596
	c32.615,0,50.686-40.128,50.686-101.53C879.787,542.699,861.717,500.153,828.661,500.153z"/>
<path d="M576,0C257.884,0,0,257.884,0,576s257.884,576,576,576s576-257.884,576-576S894.116,0,576,0z M384,492H272.65v72H372v60
	h-99.35v144H192V432h192V492z M625.934,609.617c-24.242,21.911-59.672,31.234-96.501,31.234c-6.993,0-13.053-0.466-17.715-0.466V768
	H432V438.527c21.444-3.729,52.213-6.526,93.237-6.526c43.355,0,75.056,7.459,97.433,25.174
	c20.979,16.317,33.565,43.822,33.565,74.124C656.235,564.397,645.047,591.902,625.934,609.617z M825.577,768
	C738.752,768,696,688.709,696,601.199c0-90.41,48.922-168.733,134.424-168.733c90.791,0,129.576,83.642,129.576,163.416
	C960,706.115,907.994,768,825.577,768z"/>
</svg>
