<?xml version="1.0" encoding="utf-8"?>
<!-- Generator: Adobe Illustrator 16.0.0, SVG Export Plug-In . SVG Version: 6.00 Build 0)  -->
<!DOCTYPE svg PUBLIC "-//W3C//DTD SVG 1.1//EN" "http://www.w3.org/Graphics/SVG/1.1/DTD/svg11.dtd">
<svg version="1.1" id="Layer_1" xmlns="http://www.w3.org/2000/svg" xmlns:xlink="http://www.w3.org/1999/xlink" x="0px" y="0px"
	 width="1152px" height="1152px" viewBox="0 0 1152 1152" enable-background="new 0 0 1152 1152" xml:space="preserve">
<polygon points="480,480 48,480 192,336 0,144 144,0 336,192 480,48 "/>
<polygon points="672,480 1104,480 960,336 1152,144 1008,0 816,192 672,48 "/>
<polygon points="480,672 48,672 192,816 0,1008 144,1152 336,960 480,1104 "/>
<polygon points="672,672 1104,672 960,816 1152,1008 1008,1152 816,960 672,1104 "/>
</svg>
