<?xml version="1.0" encoding="utf-8"?>
<!-- Generator: Adobe Illustrator 16.0.1, SVG Export Plug-In . SVG Version: 6.00 Build 0)  -->
<!DOCTYPE svg PUBLIC "-//W3C//DTD SVG 1.1//EN" "http://www.w3.org/Graphics/SVG/1.1/DTD/svg11.dtd">
<svg version="1.1" id="Layer_1" xmlns="http://www.w3.org/2000/svg" xmlns:xlink="http://www.w3.org/1999/xlink" x="0px" y="0px"
	 width="1152px" height="1152px" viewBox="0 0 1152 1152" enable-background="new 0 0 1152 1152" xml:space="preserve">
<polygon points="0,0 0,432 144,288 336,480 480,336 288,144 432,0 "/>
<polygon points="1152,0 1152,432 1008,288 816,480 672,336 864,144 720,0 "/>
<polygon points="0,1152 0,720 144,864 336,672 480,816 288,1008 432,1152 "/>
<polygon points="1152,1152 1152,720 1008,864 816,672 672,816 864,1008 720,1152 "/>
</svg>
