<?xml version="1.0" encoding="utf-8"?>
<!-- Generator: Adobe Illustrator 16.0.0, SVG Export Plug-In . SVG Version: 6.00 Build 0)  -->
<!DOCTYPE svg PUBLIC "-//W3C//DTD SVG 1.1//EN" "http://www.w3.org/Graphics/SVG/1.1/DTD/svg11.dtd">
<svg version="1.1" id="Layer_1" xmlns="http://www.w3.org/2000/svg" xmlns:xlink="http://www.w3.org/1999/xlink" x="0px" y="0px"
	 width="1152px" height="1152px" viewBox="0 0 1152 1152" enable-background="new 0 0 1152 1152" xml:space="preserve">
<polygon points="-1656,0 -1656,432 -1512,288 -1320,480 -1176,336 -1368,144 -1224,0 "/>
<polygon points="-504,0 -504,432 -648,288 -840,480 -984,336 -792,144 -936,0 "/>
<polygon points="-1656,1152 -1656,720 -1512,864 -1320,672 -1176,816 -1368,1008 -1224,1152 "/>
<polygon points="-504,1152 -504,720 -648,864 -840,672 -984,816 -792,1008 -936,1152 "/>
<polygon points="0,0 0,432 144,288 336,480 480,336 288,144 432,0 "/>
<polygon points="1152,0 1152,432 1008,288 816,480 672,336 864,144 720,0 "/>
<polygon points="0,1152 0,720 144,864 336,672 480,816 288,1008 432,1152 "/>
<polygon points="1152,1152 1152,720 1008,864 816,672 672,816 864,1008 720,1152 "/>
</svg>
