<?xml version="1.0" encoding="utf-8"?>
<!-- Generator: Adobe Illustrator 16.0.0, SVG Export Plug-In . SVG Version: 6.00 Build 0)  -->
<!DOCTYPE svg PUBLIC "-//W3C//DTD SVG 1.1//EN" "http://www.w3.org/Graphics/SVG/1.1/DTD/svg11.dtd">
<svg version="1.1" id="Layer_1" xmlns="http://www.w3.org/2000/svg" xmlns:xlink="http://www.w3.org/1999/xlink" x="0px" y="0px"
	 width="1152px" height="1152px" viewBox="0 0 1152 1152" enable-background="new 0 0 1152 1152" xml:space="preserve">
<path d="M1152,672V480h-105.656c-12.422-61.266-36.656-118.219-70.031-168.586l74.859-74.836l-135.75-135.75l-74.859,74.836
	C790.219,142.312,733.266,118.078,672,105.633V0H480v105.633c-61.266,12.445-118.219,36.68-168.562,70.031l-74.857-74.836
	l-135.75,135.75l74.859,74.836C142.314,361.781,118.08,418.734,105.658,480H0v192h105.656
	c12.422,61.266,36.656,118.219,70.031,168.586l-74.859,74.836l135.75,135.75l74.859-74.836
	c50.344,33.352,107.297,57.586,168.562,70.031V1152h192v-105.633c61.266-12.445,118.219-36.682,168.562-70.031l74.859,74.836
	l135.75-135.75l-74.859-74.836c33.375-50.367,57.609-107.32,70.031-168.586H1152L1152,672z M576,864c-159.094,0-288-128.953-288-288
	s128.906-288,288-288s288,128.953,288,288S735.094,864,576,864z"/>
</svg>
