<?xml version="1.0" encoding="utf-8"?>
<!-- Generator: Adobe Illustrator 16.0.1, SVG Export Plug-In . SVG Version: 6.00 Build 0)  -->
<!DOCTYPE svg PUBLIC "-//W3C//DTD SVG 1.1//EN" "http://www.w3.org/Graphics/SVG/1.1/DTD/svg11.dtd">
<svg version="1.1" id="Layer_1" xmlns="http://www.w3.org/2000/svg" xmlns:xlink="http://www.w3.org/1999/xlink" x="0px" y="0px"
	 width="1152px" height="1152px" viewBox="0 0 1152 1152" enable-background="new 0 0 1152 1152" xml:space="preserve">
<path d="M273.773,167.812c1.57-2.953,4.664-3.844,6.82-4.5c0.633-0.188,1.242-0.375,1.711-0.562c0.352-0.562,0.68-1.969,0.867-3.516
	c-1.828-0.328-4.5-0.703-7.359-0.703c-0.891,0-1.758,0-2.578,0.094c-1.172,0.094-2.18,0.188-3.094,0.188
	c-0.633,0-1.219-0.047-1.781-0.094c0.82,0.562,1.641,1.219,2.438,1.875C273.211,162.656,273.82,165.375,273.773,167.812z"/>
<path d="M390.586,307.688c2.648-0.75,3.07-0.844,6.656-3c3.398-1.969,6.352-3,9.023-3c2.32,0,5.555,0.797,8.25,4.312
	c-0.305-1.219-0.422-2.672-0.422-4.312l-0.375,0.469l-2.203-1.453c-1.523-0.984-4.641-2.578-6.609-2.578
	c-0.234,0-0.633,0-0.773,0.188c-2.297,2.719-6.516,3.328-10.617,3.938c-2.766,0.375-6.211,0.891-7.312,1.969
	c-1.125,1.125-2.156,3.375-2.953,5.719c1.125-0.375,2.438-0.844,3.891-1.266S389.695,307.922,390.586,307.688z"/>
<path d="M112.359,433.219c-0.07,0.047-0.141,0.094-0.234,0.188c-0.562,0.469-1.242,1.125-1.266,1.781
	c-0.047,1.312,1.945,3.562,3.844,5.438c-0.328-1.031-0.609-2.062-0.891-3.047C113.438,436.266,112.875,434.25,112.359,433.219z"/>
<path d="M619.547,144.656c0.281,2.156,0.984,4.781,1.781,5.344c1.922,0.047,3.609,0.656,5.062,1.594
	c-0.07-0.75-0.094-1.5-0.047-2.297C625.805,148.031,622.336,145.969,619.547,144.656z"/>
<path d="M290.344,184.453c-0.258-0.047-0.539-0.047-0.797-0.141c0.141,0.188,0.211,0.188,0.445,0.188
	C290.086,184.5,290.203,184.5,290.344,184.453z"/>
<path d="M450.398,900.188c0.117,0.188,0.281,0.375,0.469,0.562c-0.141-0.422-0.281-0.844-0.398-1.312
	C450.422,899.766,450.398,900,450.398,900.188z"/>
<path d="M1053.328,550.734c1.547,0.516,3.75,3.141,5.953,6.375c-0.844-3.234-1.5-7.078-2.25-11.484
	c-0.141-1.031-0.281-2.062-0.469-3.094c-1.5-8.812-3.469-13.5-4.922-16.875c-1.172-2.859-9.891-12.188-12.047-14.109
	c-3.188-2.766-8.25-18.609-8.719-24.422c-0.094-1.5-0.516-1.734-1.922-2.625c-1.828-1.125-4.5-2.766-5.203-7.5
	c-0.562-3.562-2.719-8.109-4.594-12.141c-0.984-2.109-1.875,5.719-2.531,4.078c-0.469,0.281-1.031,3.469-1.688,6.375
	c0.656,0.75,1.312,1.359,1.969,3.094c2.016,5.203,4.125,8.062,6.281,12.609c2.391,4.922,2.25,10.359,2.156,16.828
	c-0.094,4.969-0.234,9.938,1.219,11.859c1.359,1.828,3.844,3.469,6.516,5.531c4.453,3.375,9.469,7.125,11.297,12.281
	C1046.625,543.891,1051.781,549.844,1053.328,550.734z"/>
<path d="M1011.469,480c0.328,0,0.656,0,0.938,0s0.562,0,0.844,0c0.609,0,1.172-2.25,1.688-4.688c-0.984-1.078-1.969-1.969-3-4.125
	C1011.797,470.812,1011.656,480,1011.469,480z"/>
<path d="M889.711,345.375c2.531,4.969,8.062,8.203,12.023,10.219c3.234,1.641,10.406,7.266,13.008,9.375
	c-0.117-0.375-0.234-0.703-0.328-1.031c-0.68-2.484-2.672-4.031-5.18-5.953c-1.688-1.266-3.445-2.672-4.969-4.453
	c-1.547-1.828-4.828-4.406-7.992-6.938c-3.773-3-7.664-6.094-9.984-8.812s-5.133-4.312-6.492-4.547
	c-0.023,0.141-0.047,0.234-0.07,0.422c-0.141,1.688,0.891,2.625,3.656,4.828C885.469,340.125,888.094,342.188,889.711,345.375z"/>
<path d="M953.438,230.25c-7.711,0.422-11.578,1.031-13.523,2.812c0.422,0.469,0.844,1.266,1.266,1.172
	c1.898-0.469,3.867,2.109,5.789,1.266c2.695-1.266,5.484,4.5,7.781,4.5c0.234,0,0.469,0,0.68,0c1.102,0,2.367-6.844,3.914-6.844
	c1.336,0,2.742-1.594,4.125-3.141c-1.43,0-2.602,0-4.289,0.094C957.281,230.25,955.336,230.156,953.438,230.25z"/>
<path d="M931.547,223.359c-0.586-1.453-1.195-3.469-1.805-4.312c-2.18-3.094-3.023-7.172-2.227-10.594
	c0.164-0.75,0.422-1.641,0.797-2.438c-3.984,3.141-7.289,3.562-10.102,3.891c-2.625,0.328-4.5,0.562-7.008,3.094
	c-1.641,1.641-2.25,2.578-2.484,3.047c0.773,0.469,2.555,1.078,3.914,1.547c0.68,0.234,1.383,0.469,2.109,0.75
	c3.305,1.219,4.5,3.375,4.922,4.969c1.125,4.219-2.133,8.906-4.172,11.297c-0.328,0.375-0.797,0.891-1.383,1.453
	c-4.453,4.594-6.539,7.734-6.188,9.375c1.195,5.625-3.68,1.266-6.75,2.766L900.891,240h-0.305c-0.773,0-19.148,13.312-22.828,13.875
	c-0.422,0.094-0.844,4.359-1.266,4.359c-1.945,0-3.633,1.266-4.758-0.188c-1.5-2.016-1.852-4.031-0.961-7.172
	c0.305-1.125-1.172-4.5-2.062-6.797c-0.914-2.484-1.875-4.781-2.367-7.078c-1.359,1.219-2.906,3.469-3.047,4.453
	c-0.234,1.688-1.219,3.141-2.836,4.125c1.102-0.141,2.133-0.188,3.023-0.188c1.57,0,2.789,0.234,3.797,0.703
	c3.516,1.688,2.953,5.812,2.508,9.141c-0.234,1.734-0.492,3.562-0.328,5.109c0.281,2.719,2.156,15.562,3.117,16.594L875.484,288
	h6.398c4.289,0,5.344-10.969,7.664-12c0.914-0.375,2.016-6.094,3.492-6.656c3.117-1.078,5.836-3.938,7.805-4.078
	c1.008-0.047,2.273-1.453,2.625-1.734c1.312-0.75,3.141-1.781,5.414-1.781c2.508,0,6.727,0.141,12.609,2.438
	c0.305,0.141,0.562,0.094,0.773,0.094c0.023-0.656-0.023-1.594-0.07-2.25c-0.094-2.062-0.211-4.453,0.445-6.516
	c1.312-4.125,4.758-14.953,12.117-14.953c0.281,0,0.586,0,0.867,0.094c2.039,0.188,3.867-0.656,5.484-0.094
	c1.477,0.469,2.883-0.562,3.984-0.562c0.164,0,0.328,0,0.492,0c-0.891,0-2.133,0-2.93-0.469c-2.742-1.781-4.711-2.25-4.711-4.594
	c0-1.078,1.289-1.266,1.969-1.875c-0.117-0.141-0.258-0.375-0.375-0.375C934.945,232.688,933.047,227.109,931.547,223.359z"/>
<path d="M1065.469,576c0.094,0,0.188-0.234,0.281-0.281c-0.141,0.141-0.234,0.281-0.375,0.281H1065.469z"/>
<path d="M639.82,139.641c-0.07-1.031-0.164-2.25-0.188-2.203C639.141,138.328,639.375,138.844,639.82,139.641z"/>
<path d="M639.82,139.641c0.141,1.969,0.375,4.359,0.984,4.359c0.164,0,0.328,0,0.492,0c0.211,0,0.539-0.469,0.797-0.609
	c-0.398-0.703-0.773-0.75-1.242-1.781S640.102,140.109,639.82,139.641z"/>
<path d="M1106.719,351.75c-28.969-68.578-70.5-130.172-123.422-183.094C930.398,115.781,868.781,74.25,800.203,45.234
	C729.188,15.188,653.766,0,576,0S422.812,15.188,351.797,45.234c-68.578,29.016-130.195,70.547-183.094,123.422
	c-52.898,52.922-94.43,114.516-123.445,183.094C15.234,422.812,0,498.188,0,576c0,77.719,15.234,153.188,45.258,224.156
	c29.016,68.625,70.547,130.219,123.445,183.094c52.898,52.922,114.516,94.453,183.094,123.469
	C422.812,1136.719,498.234,1152,576,1152c46.266,0,91.523-6.047,135.703-16.781L488.227,911.016l288.984-288
	c-1.383-0.141-2.695-0.328-4.172-0.328c-2.672,0-10.828,0-11.461,2.531c-0.445,1.922-1.641,6.984-6.117,6.984
	c-1.852,0-3.773-0.984-6-3c-4.664-4.266-13.617-13.734-14.016-14.109l-0.305-0.281l-0.188-0.422
	c-0.352-0.703-8.648-17.016-11.273-24.422c-1.172-3.328-4.266-4.688-10.055-6.938c-2.977-1.125-6.328-2.438-9.82-4.406
	c-8.648-4.781-7.641-10.781-6.914-15.188c0.258-1.594,0.516-3.188,0.281-4.5c-0.398-2.438-1.734-4.219-2.695-5.438
	c-1.008-1.312-2.133-2.812-1.43-4.781c0.234-0.609,0.844-1.734,2.508-2.25c0.258-0.375,0.656-1.312,0.961-2.156
	c0.914-2.203,2.297-5.531,5.227-9.984c4.125-6.188,2.414-12.891,1.172-17.766c-0.211-0.891-0.422-1.688-0.586-2.438
	c-0.188-0.891-0.609-2.062-1.078-3.328c-1.711-4.641-4.266-11.578,0.469-18.891c2.367-3.656,4.477-10.406,6.328-16.406
	c2.109-6.75,3.938-12.562,6.352-15.469c3.492-4.125,11.344-7.875,17.648-10.875c1.969-0.938,3.82-1.828,5.18-2.531
	c1.641-0.938,1.875-2.719,2.039-7.125c0.117-3.188,0.258-7.078,1.664-11.25c2.812-8.297,7.641-14.719,11.484-15.281
	c0.703-0.469,2.32-1.914,3.633-3.039c2.438-2.156,5.461-4.93,8.672-6.93h0.023c-0.797-1-1.523-2.258-2.32-3.711
	s-1.711-3.027-2.461-3.918c-0.094-0.141-0.562-0.506-2.297-0.506c-0.984,0-2.062,0.146-3.117,0.286
	c-0.938,0.094-1.852,0.19-2.672,0.19c-0.656,0-1.219-0.092-1.758-0.233c-2.227-0.656-3.609-2.859-5.203-5.484
	c-0.867-1.312-1.828-2.906-2.672-3.703c-1.758-1.641-2.719-4.125-2.695-6.984c0.023-2.953,1.031-5.625,2.766-7.219
	c1.383-1.172,2.812-3.094,1.641-7.219c-1.383-4.922-3.562-19.875,4.195-23.531c1.969-0.938,4.617-1.312,8.32-1.312
	c3.164,0,6.703,0.281,9.82,0.562c2.555,0.281,4.992,0.469,6.75,0.469c1.875,0,3.961,0.188,6.188,0.422
	c2.156,0.234,4.383,0.422,6.281,0.422c2.344,0,3.164-0.375,3.352-0.469c2.25-4.828,3.234-10.219,2.766-15.281
	c-0.305-3-8.133-7.594-15-8.812c-6.469-1.219-7.008-4.453-6.938-5.812c0.047-1.5,1.031-4.969,8.742-5.625
	c3.188-0.281,4.312-0.984,5.859-2.016c1.477-0.938,3.305-2.109,6.656-2.766c2.531-0.516,5.086-1.125,7.547-1.688
	c3.469-0.844,6.75-1.641,9.586-2.016c1.406-0.188,2.016-1.078,2.016-6.141c0-4.969,7.57-6.938,14.391-7.688
	c1.992-2.156,7.312-7.875,10.734-10.875c2.555-2.25,6.023-3.422,10.336-3.422c1.641,0,3.211,0.141,4.664,0.422
	c-0.398-0.562-0.797-1.031-1.125-1.5c-3.609-5.344,0.305-15.047,0.75-16.125c0.82-1.969,2.625-3.375,4.734-4.359
	c-0.727,0.047-1.453,0.094-2.25,0.094c-3.258,0-6.586-0.609-9.117-1.688c-4.547-1.969-7.594-6.984-8.93-10.969
	c-0.867-2.625-1.008-4.734-0.422-6.141c-0.047-1.125-1.078-4.312-1.641-6c-0.984-3-1.594-4.969-1.594-6.375
	c0.023-4.453,13.359-22.781,24.047-25.406c9.164-2.25,20.414-8.062,26.742-13.781c3.984-3.656,6.633-7.781,8.555-10.781
	c1.289-2.062,2.227-3.469,3.281-4.406c0.234-0.234,1.008-0.938,6.797-4.219l1.758-1.031l1.594,1.219
	c10.992,8.625,21.844,17.859,32.203,27.375l0.844,0.844l0.117,1.125c0.023,0.188,0.07,0.469,0.141,0.703
	c0.469,2.344,1.336,6.562-3.234,12.609c0.141-0.094,0.258-0.141,0.375-0.188c2.484-1.359,5.648-3.281,8.672-5.344l2.016-1.312
	l1.734,1.688c8.32,8.109,16.523,16.594,24.352,25.312l4.055,4.5l-6.047,0.469c-1.523,0.141-3.328,2.297-5.156,4.359
	c1.547-0.047,3.305-0.141,4.617-0.141c3.328-0.094,5.953-0.094,7.992-0.609l1.805-0.328l1.195,1.359
	c37.828,44.109,67.969,93.609,89.578,147.234c22.312,55.359,35.016,113.812,37.781,173.766l0.094,2.016l-1.875,0.844
	c-6.844,3.188-14.344,7.594-15.656,8.531c-2.719,1.922-13.547,9.891-19.828,9.891c-1.359,0-2.484,2.719-3.422,3.141
	c0.469-0.281,0.75-0.844,0.844-0.281c0.188,1.312,0.047,0.562-0.094,2.062c-0.188,1.641-0.469,2.906,0.234,3.703
	c0.328,0.422,1.125,0.141,2.25,0.188c0.422,0.094,0.797-0.141,1.219-0.141c5.531,0,10.547-2.859,13.5-4.453
	c0.703-0.375,1.312-0.797,1.734-1.031c2.766-1.266,9.797-5.062,16.312-6.797l2.25-1.031v4.125c0,1.312,0,2.625,0,3.938
	c0,9.422,0,19.078,0,28.688v0.703l0.703,0.609c-0.797,1.406-1.125,2.812-1.969,4.219c-3.281,5.438-7.922,13.594-8.156,15.844
	c-0.609,6.844-10.172,17.531-17.109,19.031c-2.531,0.562-8.531,7.312-18,20.156c-0.656,0.938-1.219,1.688-1.688,2.344
	c-1.312,1.781-2.906,4.312-4.688,6.938c-4.875,7.594-7.547,11.438-10.078,12.703c-1.688,2.203-3.422,13.266-2.766,15.703
	c0.797,1.312,1.219,3.281,1.734,5.906c0.75,3.656,1.828,8.438,3.938,11.156h87.234c12.047-46.781,18.844-94.875,18.844-144
	C1152,498.188,1136.766,422.812,1106.719,351.75z M367.805,96.281c-2.109,0.797-4.406,5.156-7.055,2.906
	c-0.82-0.703-0.984-0.328-1.336-0.188C360.516,97.219,363.422,96.516,367.805,96.281z M591.281,723.375
	c-0.727,1.969-1.547,4.125-1.664,4.781c-0.68,4.266-10.031,16.031-17.32,22.969c-4.969,4.688-3.516,9.75-2.344,13.875
	c0.305,1.125,0.562,2.016,0.703,2.906c0.281,2.156-0.539,5.203-1.898,10.031c-0.82,2.906-2.18,7.781-1.945,9.188
	c2.414,5.062-2.977,13.5-5.438,16.922c-1.641,2.25-3.07,5.953-4.312,9.234c-0.914,2.344-1.781,4.594-2.695,6.281
	c-2.062,3.609-6.328,4.078-10.453,4.547c-2.062,0.234-4.195,0.516-6.211,1.078c-5.625,1.688-8.555,3.328-8.625,3.375
	c-0.094,0.094-10.641,6-16.547,10.688c-1.594,1.266-1.5,2.859-0.328,7.312c0.938,3.562,1.992,7.594,0.164,11.578
	c-1.922,4.172-4.102,5.016-6.188,5.484c-0.891,0.188-1.383,0.281-2.414,2.906c-2.555,6.609-4.828,7.969-7.523,9.141
	c-0.516,0.234-0.914,0.375-1.266,0.609c-1.289,0.938-2.836,4.219-3.375,9.422s-4.758,9.703-10.57,15.938
	c-0.797,0.891-1.664,1.828-2.531,2.766c-4.125,4.5-7.875,6.469-12.117,6.469c-2.039,0-4.078-0.469-6.094-1.031
	c2.742,2.109,4.266,6.281,0.492,11.812c-0.539,0.844-1.5,2.438-2.484,4.172c-4.805,8.297-6.68,10.922-8.859,11.578
	c-1.945,0.562-11.273,2.016-17.32,2.016c-2.344,0-4.008-0.234-5.227-0.656c-0.375,0.984-0.75,2.859-0.516,4.453
	c0.094,0.656,0.281,1.406,0.469,2.062c0.539,2.156,1.148,4.594-0.352,6.469c-0.633,0.844-1.805,1.781-3.984,1.781
	c-0.68,0-1.43-0.094-2.297-0.281c-2.109-0.469-4.43-1.266-6.469-1.969c-0.938-0.375-2.039-0.75-3.023-1.031
	c0.375,1.875,1.078,3.75,1.664,4.312c0.516,0,1.102-0.188,1.688-0.281c0.773-0.188,1.5-0.375,2.273-0.375
	c1.758,0,2.719,0.938,3.117,1.547c1.102,1.547,0.656,3.422,0.094,5.016c-1.828,4.969-6.352,9-8.555,10.922
	c-0.469,0.422-1.312,1.688-2.133,2.953c-1.734,2.625-4.148,6.281-7.688,9.188c-1.055,0.938-3.305,2.906-3.492,4.172
	c0.867,0.141,2.297,0.188,3.211,0.234c2.766,0.047,4.945,0.094,6.375,1.266c0.68,0.516,1.5,1.547,1.57,3.469
	c0.117,3.609-2.648,10.547-5.016,12.703c-0.445,0.375-1.242,1.125-2.227,2.062c-4.805,4.5-9.727,9-12.445,10.875
	c-1.898,1.266-2.344,6.656-1.359,10.031c0.727,2.625,8.133,11.062,12.047,12.609c1.734,0.703,4.781,0.984,7.242,1.266
	c4.289,0.375,6.656,0.656,7.734,2.719c0.516,1.031,0.492,2.25-0.094,3.281c-1.195,2.109-4.359,3.141-12.68,4.969
	c-1.078,0.188-2.438,0.516-2.672,0.562c-1.688,0.703-10.266,3.281-14.977,3.281c-3.234,0-7.406-1.969-10.758-3.562
	c-1.008-0.469-2.391-1.125-2.906-1.312c-1.594-0.094-2.555-1.125-2.93-2.062c-0.047-0.094-0.094-0.281-0.141-0.375
	c-3.281-0.469-6-3.844-8.016-6.281c-0.258-0.281-0.469-0.562-0.656-0.797c-0.164-0.141-0.773-0.562-1.219-0.844
	c-2.508-1.641-7.688-5.016-6.656-12.422c0.469-3.281-0.07-3.609-2.039-4.781c-0.938-0.562-2.133-1.312-3.234-2.391
	c-3.844-3.75-0.258-7.453,1.102-8.859c0.211-0.281,0.539-0.562,0.797-0.891c-0.188-0.047-0.352-0.141-0.516-0.141
	c-1.57-0.562-4.852-1.594-5.367-5.812c-0.469-4.031,1.969-8.344,3.727-11.484c0.305-0.516,0.656-1.172,0.867-1.547
	c-0.234-0.469-0.75-1.406-1.125-1.969c-0.961-1.688-2.062-3.516-2.414-5.484c-0.68-4.031,1.758-7.266,5.133-11.766l1.055-1.406
	c3.445-4.688,5.484-9.938,5.578-10.969c-0.023-0.469-0.422-1.875-0.727-3.094c-0.773-2.906-1.828-6.891-1.828-10.312
	c0-3.094,0.867-5.25,1.711-7.312c0.727-1.781,1.477-3.609,1.922-6.469c0.305-1.969,0.094-2.156-0.656-2.812
	c-1.125-0.938-2.977-2.531-2.977-6.469c0-4.031,2.156-5.766,3.469-6.75c0.867-0.703,0.867-0.703,0.68-1.781
	c-0.961-5.062,1.195-8.812,2.93-11.812c0.516-0.938,1.031-1.828,1.359-2.625c0.586-1.406,1.219-3.234,1.852-5.203
	c0.961-2.906,2.062-6.234,3.352-8.859c0.961-2.062-0.68-7.734-1.453-10.5c-0.609-2.062-0.891-3.094-0.891-4.031
	c0-1.969,1.477-3.281,2.766-4.406c0.445-0.375,1.242-1.031,1.547-1.5c-1.266-1.5-1.781-3-1.547-4.594
	c0.398-2.625,2.695-4.078,4.734-5.391c1.008-0.609,2.039-1.266,2.695-1.922c0.445-0.844-0.141-4.266-0.562-6.75
	c-0.773-4.5,2.672-10.031,3.492-15.844c1.547-10.875,7.453-29.531,7.453-31.125c0-0.234,0-0.562,0-0.891
	c0-2.391-4.195-8.062-6.117-11.672c-2.391-4.547-7.242-7.594-10.102-9.047c-2.016-1.031-5.18-2.812-7.148-4.547
	c-1.336-1.125-3.891-2.859-4.641-3.094c-0.211-0.047-20.672-5.344-20.672-17.156c0-4.5-1.945-8.625-3.703-12.609
	c-1.266-2.906-2.531-5.672-3-8.438c-0.422-2.484-2.367-6.797-4.195-11.062c-2.484-5.625-4.805-10.922-5.133-14.672
	c-0.141-1.594-2.414-3.188-4.805-4.875c-3.258-2.25-6.961-4.781-7.992-9.281c-1.289-5.625,0.539-9.75,2.016-13.125
	c0.539-1.266,1.055-2.438,1.312-3.469c0.797-3.375-0.68-12-1.148-14.906l-0.141-0.75c-0.797-4.594,5.297-15.703,9.117-18
	c1.008-0.562,2.742-2.156,4.242-3.469c2.836-2.531,4.781-4.219,6.562-4.875c0.188-0.797,0.375-2.109,0.539-3.188
	c0.352-2.344,0.773-5.297,1.688-8.344c1.664-5.25-0.727-12.516-1.711-13.875c-1.172-1.031-1.852-2.719-2.93-5.672
	c-0.727-2.016-1.852-5.016-2.766-5.859c-0.445-0.422-1.383-0.656-2.602-0.656c-0.281,2.719-1.57,6.047-4.992,8.297
	c-1.688,1.078-3.234,1.641-4.711,1.641c-3.211,0-4.828-2.391-5.789-3.844c-0.234-0.281-0.445-0.609-0.562-0.75
	c-0.328-0.328-1.711-0.844-2.602-1.219c-2.344-0.891-5.25-2.016-7.195-4.312c-2.484-2.906-6.328-6.891-9-8.438
	c-0.445-0.281-1.148-0.562-1.898-0.938c-3.562-1.594-10.172-4.594-9.609-12.562c0.398-5.906-3.141-9.422-4.43-10.172
	c-0.234-0.141-0.516,5.719-0.82,5.531c-1.148-0.75-3.281,3.984-4.477,3.984c-0.094,0-0.141,0-0.141,0
	c-0.867,0-1.898-5.109-2.977-5.109c-1.969,0-3.773-4.078-5.531-5.016c-1.172-0.656-2.625-3-3.516-3
	c-0.305,0.094-0.609-0.656-0.914-0.656c-4.57,0-10.805-6.562-15.234-11.812c-0.562-0.656-1.078-1.5-1.594-2.203
	c-1.945-2.578-3.234-4.266-5.32-4.266c-2.414,0-2.578,0.141-4.594,3.047c-0.352,0.562-0.75,1.078-1.219,1.734
	c-1.195,1.594-2.836,2.531-4.641,2.531c-3.773,0-6.727-3.891-8.672-6.469c-0.094-0.094-0.258-0.281-0.258-0.281
	c-1.055,0-2.812,0.328-4.664,0.656c-2.531,0.562-5.438,1.125-8.109,1.125c-9.234,0-11.391-16.5-11.414-16.688
	c-0.328-3.938-5.672-5.531-12.07-7.031c-2.859-0.703-5.133-1.219-6.633-2.25c-4.219-2.906-9.188-13.406-6.656-17.859
	c0.117-1.078-1.008-4.453-2.461-7.359c-2.859-3.844-6.305-7.594-7.57-8.297c-2.766-0.234-4.852-3.516-10.055-12.047
	c-2.484-4.125-5.297-8.766-7.148-10.688l-1.102-1.125c-2.859-3-5.812-6.094-8.461-9.141c0.938,1.5,2.18,3.047,4.031,4.781
	c5.133,4.734,5.836,9.562,6.328,13.078c0.234,1.547,0.422,2.859,0.914,3.375c0.469,0.469,1.219,1.078,2.086,1.781
	c3.773,3.234,8.93,7.641,9.188,12.469c0.094,1.875-0.586,3.656-1.945,5.062c-1.711,1.828-3.492,2.203-4.688,2.203
	c-3.797,0-6.609-3.703-8.648-6.375c-0.469-0.609-1.055-1.406-1.406-1.734c-2.297-0.75-8.695-2.719-7.875-8.719
	c0.141-0.938-1.43-2.812-3.07-4.688c-1.312-1.5-2.789-3.234-4.172-5.344c-0.867-1.312-1.5-1.875-1.758-1.875
	c-0.281,0-0.797,0.094-1.359,0.234c-1.055,0.234-2.391,0.609-4.102,0.609c-3.094,0-4.289-1.875-4.641-2.719
	c-1.875-3.938,2.766-10.031,4.359-11.906c-0.188-0.891-2.297-3-4.43-3.844c-3.094-1.219-5.133-6.094-8.766-15.281
	c-1.359-3.469-2.766,1.734-4.125-1.125c-3.609-7.453-6-1.781-8.273-1.781c-0.141,0-0.305,0-0.422,0
	c-0.422,0-0.867-8.625-1.312-8.625c-1.781,0-3.844-4.781-6.164-5.672l-2.672-3.234l0.891-3.797
	c16.477-50.016,40.359-97.734,70.922-140.859c30.188-42.562,66.375-80.719,107.602-112.781l2.461-2.109l1.805,2.438
	c0.773,1.125,1.406,2.156,1.828,3.234c0.141,0.281,0.234,0.469,0.328,0.656c0.164-0.094,0.328-0.188,0.492-0.375
	c0.398-0.281,0.82-0.609,1.312-0.938c1.758-1.312,3.352-2.25,5.039-2.531c-1.453-0.703-2.812-1.641-4.312-2.812l-3.094-2.391
	l3.164-2.391c6.609-4.875,13.383-9.703,20.156-14.25l5.883-3.984l-1.266,6.984c-0.117,0.75-0.258,1.406-0.352,1.969
	c0.609-0.188,1.289-0.328,2.062-0.516c0.82-0.188,1.102-0.422,1.102-0.422c0.141-0.469-0.352-1.922-0.586-2.625
	c-0.586-1.781-1.383-4.219,0.328-6.047l0.258-0.328l1.008-0.656l0.328-0.094c0.258-0.094,0.539-0.188,0.844-0.188
	c0.516-0.094,1.148-0.234,1.898-0.375c3.281-0.562,8.039-1.406,11.531-1.594c-0.234,0-10.43-0.516-10.43-0.516l8.344-5.062
	c3.844-2.391,7.758-4.641,11.625-6.891l1.148-0.656l1.266,0.375c4.242,1.406,5.484,2.531,6.07,3.75
	c0.398,0.938,0.422,1.875,0.023,2.766c-1.266,2.953-3.469,13.875-10.781,14.344c-0.914,0.094-1.945,8.203-3.094,8.203
	c0.141,0,0.094,0,0.375,0c2.672,0,8.039-8.625,12.773-9.141c4.289-0.422,7.992-4.875,9.797-4.875c4.758,0,11.297,1.969,17.039,5.766
	c2.461,1.594,7.828,2.812,12.117,4.594c3.539,1.406,6.328,2.062,7.758,2.906c1.922,1.078,14.391,3.188,19.734,4.219
	c3.75,0.703,5.602,0.984,6.328,1.172c2.977,0.938,3.586,4.125,4.43,8.719c0.422,2.25,0.891,4.781,1.641,7.078
	c0.422,1.219,0.773,1.172,1.102,1.172c0.75,0,1.805-0.375,2.742-0.703c1.055-0.375,2.062-0.75,3.094-0.75
	c3.328,0,11.203,4.922,13.734,8.531c1.266,1.219,8.461,3.141,15.492,4.219l4.594,0.75l-2.555,3.891
	c-0.375,0.609-3.75,5.672-5.367,7.547c-1.172,1.406-2.906,2.391-4.734,3.422c-1.312,0.75-2.695,1.547-3.914,2.484
	c-1.289,1.031-2.742,1.5-4.312,1.5c-3.258,0-6.188-2.156-9.281-4.5l-0.82-0.562c-2.555-1.875-6.352-3.094-8.578-3.375
	c0.117,0.281,0.305,0.656,0.562,1.172c0.516,0.469,2.227,1.453,3.492,2.109c2.414,1.359,5.438,3.047,7.758,5.156
	c4.148,3.656,4.312,7.594,4.453,11.156c0.023,0.938,0.07,1.875,0.164,2.906c0.117,1.078,0.141,2.672-0.938,3.891
	c-0.68,0.703-1.594,1.125-2.602,1.125c-1.57,0-2.812-0.891-4.523-2.109c-1.43-1.031-3.258-2.344-4.852-2.719
	c-0.234-0.094-0.422-0.094-0.609-0.094c-1.078,0-1.359,2.25-1.359,2.25l-0.258,3l-3-0.281c-0.07,0-6.586-0.562-9.492-0.562
	c-1.734,0-3.352,0-4.523-2.203c-0.211-0.422-0.703-1.359-3.07-3.422c-0.328-0.281-0.609-0.469-0.797-0.562
	c-0.562,0.75-1.734,2.438-3.891,2.438c-0.984,0-1.992-0.375-2.93-1.125c-0.844-0.703-1.664-1.406-2.461-2.109
	c-0.773-0.703-1.898-1.734-2.602-2.156c-0.398,0.141-0.82,0.188-1.242,0.188c-1.852,0.047-3.422-1.172-5.391-2.766
	c-0.984-0.75-2.789-2.156-3.469-2.25c-0.516,0.094-1.125,0.094-1.875,0.094c-1.734,0-4.125-0.234-6.656-0.469
	c-2.672-0.281-5.414-0.562-7.453-0.562c-1.406,0-1.852,0.188-1.852,0.188c-1.688,0.656-3.211,0.938-4.547,1.266
	c-1.312,0.281-2.438,0.516-3.445,0.984c-0.562,0.281-1.148,0.422-1.734,0.422c-0.867,0-2.461-0.281-3.656-2.25
	c-1.969-3.188-2.297-10.5-0.656-13.734c0.844-1.688,2.953-3.328,6.305-3.984c-1.008-1.125-1.992-2.484-2.227-3.891
	c-0.516-3,2.531-6.328,5.508-7.781c1.055-0.656,2.531-4.828,2.367-6.094l-0.398-0.656c-1.453-1.031-1.805-1.406-2.648-1.406
	c-0.609,0-1.406,0-2.391,0.281c-0.703,0.188-1.312,0.234-1.898,0.234c-2.156,0-3.328-1.078-3.961-2.297
	c-0.938,0.844-2.484-7.922-4.969-7.922c-0.867,0-1.523-9.516-1.594-9.516h-0.117c-0.023,0-3,8.953-5.602,8.953
	c-1.805,0-2.367,4.922-2.367,4.922c-1.383,0.656-2.344,3.562-3.023,3.984c2.297,1.031,5.812,3.938,7.172,8.766
	c0.539,1.969,0.352,4.406-0.562,6.047c-1.945,3.375-6.352,4.922-8.719,5.578c-0.328,0.047-0.586,0.234-0.68,0.281
	c-1.055,0.422-4.242,1.734-6.188,2.531c0.539,0.562,1.102,1.266,1.711,1.922c1.922,2.297,3.75,3.094,6.562,4.219
	c2.062,0.797,4.641,1.875,7.641,3.797c4.617,2.906,4.172,6.469,3.773,7.828c-1.219,4.172-6.727,6.797-10.008,6.797
	c-4.57,0-6.047-8.109-7.031-10.547c-0.352-0.844-0.703-7.078-1.172-7.078c-0.094,0-0.281,0-0.586,0
	c-1.664,0-4.289,5.438-5.625,6.094c-1.523,0.938-7.641,6.891-11.766,6.891c-1.805,0-5.602,1.078-6.773-1.922
	c-1.125-2.859,1.523-4.969,2.93-6.234c-0.305-0.234-0.633-0.188-0.891-0.375c-0.492-0.328-1.031-0.609-1.594-1.031
	c-0.445,2.625-0.82,5.297-0.82,6.234c0,3-2.18,3.844-3.352,3.844s-2.039-0.516-2.953-1.125c-1.336-0.844-3.352-2.156-6.492-2.156
	c-0.539,0-1.125,0-1.734,0.094c-4.219,0.562-5.133,1.594-7.875,4.453c-1.922,2.016-4.523,4.781-9.211,8.297
	c-3.398,2.531-6.914,5.156-7.242,6c-0.023,0.188,0.164,0.938,0.305,1.5c0.234,1.031,1.102,2.344,1.289,4.125
	c0.469,3.281,0.656,5.578,0.656,7.125c0,0.188,0,0.469,0,0.703c0,0.047-0.281,0.047-0.094,0.141
	c4.031,1.031,4.875,5.156,5.625,7.875c0.117,0.469,0.141,1.031,0.305,1.5c0.328-0.094,0.609-0.188,0.984-0.328
	c1.359-0.516,2.977-1.078,5.133-1.078c2.531,0,5.203,0.844,8.203,2.625c6.914,4.125,10.148,5.156,18.562,6.938
	c2.953,0.656,5.508,0.938,7.805,0.938c3.398,0,5.953-0.703,8.438-1.359c0.633-0.141,1.312-0.234,1.969-0.234
	c5.859,0,10.898,6.656,10.898,12.094c0,1.172,0.328,1.828,0.891,2.906c0.328,0.609,0.703,1.312,1.008,2.156
	c0.258-0.375,0.492-0.75,0.727-1.125l3.562-6l1.898,6.703c2.531,9,1.125,11.953-0.047,13.125c0.117,0.328,0.352,0.797,0.586,1.078
	c0.375-0.094,0.75-0.094,1.148-0.094c0.867,0,1.688,0.094,2.484,0.234c0.68,0.141,1.312,0.234,1.875,0.234
	c0.773,0,1.266-0.188,1.781-0.703c0.727-0.984-0.68-5.859-1.195-7.734c-0.656-2.25-1.242-4.266-1.242-5.906
	c0-1.172-0.609-2.062-1.781-3.656c-0.867-1.219-1.852-2.531-2.602-4.312c-1.031-2.391-0.258-4.125,0.281-4.969
	c0.961-1.406,2.625-2.25,4.594-2.25c2.695,0,5.297,1.594,6.656,3.984c0.023,0.047,0.07,0.094,0.07,0.094
	c1.055-0.328,3.352-2.25,4.617-3.328c1.805-1.5,2.344-4.125,2.484-5.438c-2.367-3.562-6.469-8.859-9.094-10.219
	c-1.594-0.844-4.547-2.391-4.219-5.25c0.328-2.719,2.953-3.562,6.375-4.453c-0.516-1.547-1.195-3.984-0.656-7.359
	c0.188-1.219,0.328-2.344,0.469-3.375c0.703-5.203,1.359-10.125,6.07-10.125c0.633,0,2.133-0.188,3.727-0.375
	c3.305-0.375,7.828-0.938,12.352-0.938c1.312,0,2.555,0,3.68,0.094c5.156,0.422,8.742,3.094,11.602,5.156
	c1.875,1.406,3.469,2.578,4.945,2.766c10.359,1.172,15.492,3.141,17.203,6.422c1.852,3.656-1.688,6.094-3.586,7.453
	c-0.656,0.469-1.852,1.266-2.227,1.828c0,0,0.047,0.047,0.094,0.094c1.547,2.109,2.906,2.297,5.18,2.625
	c1.477,0.188,3.164,0.422,4.875,1.312c0.562,0.281,1.102,0.375,1.617,0.375c1.922,0,4.336-2.109,6.82-6
	c3.914-6.188,6.562-8.531,9.445-8.531c1.148,0,2.203,0.375,3.117,1.078c1.102,0.891,3.281,3.609,9.258,11.484
	c2.156,2.812,4.172-1.828,5.086-0.75c2.906,3.469,5.25,8.062,6.023,8.062c0.305,0,0.773,0,1.453,0c1.711,0,3.773,7.125,5.438,6.844
	c1.219-0.094,2.109,3.469,2.766,3.469c3.68,0,12.375,9.75,13.641,14.297c0.562,1.969,1.055,3.703,7.664,5.484
	c3.023,0.844,4.242,3,4.758,4.312c1.289,3.281-0.984,7.125-2.836,9.984c-0.586,0.984-1.219,2.109-1.477,2.719
	c-0.938,2.25-1.734,3.75-2.555,5.25c-0.328,0.562-0.656,1.172-1.008,1.828c0.164,0.094,0.328,0.234,0.469,0.375
	c0.75,0.469,1.359,1.031,1.875,1.5c1.148,1.031,1.5,1.312,2.109,1.312c0.305,0,0.703-0.094,1.148-0.234
	c1.312-0.375,2.484-0.609,3.562-0.609c5.273,0,7.148,4.5,7.758,6c0.891,2.062,1.992,4.031,3.07,5.906
	c0.703,1.219,1.359,2.344,1.969,3.562c1.289,2.531,1.266,6-0.047,8.156c-0.773,1.312-2.039,2.062-3.422,2.062
	c-1.008,0-2.484-0.422-3.75-2.344c-0.047-0.094-0.609-0.422-2.133-0.422c-0.938,0-1.898,0.141-2.531,0.234
	c-1.172,1.219-2.953,2.625-4.875,2.625c-1.406,0-2.695-0.75-3.445-2.062c-0.656-1.172-1.383-1.781-2.18-1.781
	c-0.281,0-0.562,8.438-0.914,8.531c-1.922,0.656-3.75,9-4.945,9c-0.797,0-1.57,0-2.367,0c-0.727,0-1.477-8.438-2.227-8.438
	c-0.844,0-1.57-4.125-2.25-4.031c-0.516,0.047-1.008-1.969-1.477-1.969c-2.789,0-5.086-2.438-5.953-4.594s-0.164-5.203,1.852-7.078
	c0.492-0.469,1.242-2.953,1.758-4.406c1.289-3.797,2.906-8.672,6.773-11.438c1.711-1.219,2.227-2.672,1.969-3.469
	c-0.07-0.234-0.164-0.234-0.234-0.234c-0.656,0-1.805,1.688-2.508,2.719c-0.891,1.312-1.805,2.719-3.188,3.516
	c-0.773,0.422-1.688,0.656-2.812,0.656c-1.031,0-2.18-0.188-3.375-0.375c-1.242-0.188-2.555-0.422-3.703-0.422
	c-1.125,0-1.875,0.188-2.32,0.562c-1.266,1.078-2.672,1.969-3.914,2.812c-0.164,0.094-0.352,0.234-0.539,0.375
	c0.516,0.844,0.609,1.781,0.492,2.531c-0.703,4.125-9.07,7.594-12.023,7.594c-1.102,0-2.133-0.375-2.953-1.125
	c0.727,1.969,0.633,3.703,0.352,4.875c-0.352,1.5-1.078,2.672-1.828,3.562c0.445,0.656,0.891,1.312,1.289,1.734
	c0.047-0.047,0.094-0.094,0.141-0.141c0.75-0.75,1.805-1.828,3.375-2.906c1.008-0.656,1.945-0.984,2.906-0.984
	c4.102,0,4.312,4.641,4.406,7.172c0.023,0.75,0.094,1.875,0.188,2.344c0.281,0,0.891-0.188,1.453-1.031l0.188-0.281
	c1.922-2.812,3.586-5.297,6.328-5.297c0.891,0,2.203,0.281,3.422,1.734c1.781,2.109,3.234,6,5.109,11.156
	c0.516,1.406,0.398,2.906-0.328,4.219c-1.852,3.188-7.031,4.406-12.633,5.438c-0.703,0.094-1.57,0.281-1.875,0.375
	c-0.633,0.188-2.016,0.562-3.656,0.938c-2.883,0.75-8.203,2.156-9.328,2.531c-0.305,0.188-1.031,0.75-1.57,1.219
	c-2.742,2.156-13.008,1.406-16.898,1.406c-4.453,0-9.398-11.25-11.836-11.25c-0.07,0-0.07,0-0.164,0
	c-1.102,0-0.633,3.844-1.594,3.938c-2.461,0.469-6.469,5.578-6.469,8.578c0,1.5,2.062,4.641,3.352,6.422
	c1.945,2.625,4.359,6.141,2.508,9.047c-1.266,2.016-4.008,3.141-9.188,3.141c-4.031,0-8.812-0.469-11.18-1.266
	c-0.211-0.047-0.469-0.094-0.773-0.094c-1.008,0-1.922,0.422-2.414,0.75c0.961,2.062,0.984,4.5-0.047,6.375
	c-1.055,1.922-2.953,3-5.227,3c-0.375,0-0.75-0.047-1.125-0.094c-0.07,0.469-0.023,1.359,0.469,2.297
	c0.961,1.969,0.703,4.312-0.773,6.703c-1.453,2.391-4.266,4.922-7.031,4.922c-0.68,0-1.336-0.188-1.922-0.469
	c1.172,3,3.469,6.609,4.898,8.812c1.219,1.969,1.078,3.609,0.727,4.688c-0.984,3.047-4.453,4.453-8.133,5.906
	c-2.039,0.844-4.336,1.781-5.25,2.672c-1.055,1.078-2.742,3.234-4.523,5.578c-4.195,5.438-8.977,11.625-13.078,13.594
	c-2.367,1.078-4.781,3.891-5.648,6.516c-0.375,1.125-0.258,1.734-0.211,1.781c2.062,2.438,3.914,8.297,6.094,15.703
	c0.656,2.25,1.219,4.125,1.617,5.25c1.43,3.938,0.586,12.656-2.461,16.969c-1.758,2.531-3.773,3.281-5.156,3.281
	c-0.234,0-0.492,0-0.727,0c-4.383,0-5.32-4.688-5.883-6.984c-0.516-2.109-0.797-2.953-1.523-3.234
	c-6.117-2.438-8.812-14.203-9.914-21.516c-0.164,0.094-0.305,0.188-0.469,0.375c-0.938,0.703-2.016,1.078-3.141,1.078
	c-3.609,0-5.953-3.844-7.664-6.656c-0.164-0.281-0.305-0.516-0.469-0.75c-0.773,0.188-1.898-6.141-2.789-5.812
	c-2.812,1.031-6.281-4.5-9.75-4.5c-0.469,0-0.914,0-1.336,0c-0.891,0-1.711,6.562-2.508,6.562c-1.898,0-3.023,3.656-3.562,3.844
	c-0.281,3.656-2.438,8.766-6.305,8.766c-1.57,0-3.188,0.281-4.969-0.891c-4.898-3.094-5.344-10.641-10.688-10.641
	c-1.008,0-1.992-7.641-2.953-7.641c-0.844,0-1.664,0-2.438,0c-2.484,0-3.422,8.156-3.773,8.297
	c-1.641,3.328-7.758,13.031-11.953,14.484c-1.688,0.562-4.172,4.594-5.344,6c0.586,0.562,1.172,2.297,1.617,3.422
	c1.805,4.219,1.078,11.344-0.633,15.422c-1.922,4.547-1.102,14.016-0.305,20.578c0.82,6.938,5.719,11.719,10.875,16.688l1.055,1.125
	c2.344,2.25,4.57,4.406,5.766,4.406c0.516,0,1.547-0.328,3.562-2.016c2.672-2.344,5.109-3.469,7.453-3.469
	c1.875,0,3.234,0.75,4.125,1.266c0.633-0.703,1.453-2.203,0.82-4.453c-0.984-3.562-0.352-7.219,1.664-9.938
	c1.758-2.297,4.359-3.656,7.125-3.656c0.398,0,0.797,0.047,1.195,0.094c0.375,0.094,0.797,0.094,1.266,0.094
	c1.758,0,3.867-0.375,5.93-0.703c2.109-0.328,4.125-0.703,5.93-0.703c0.68,0,1.289,0.047,1.828,0.141
	c2.438,0.422,4.406,2.625,5.391,6.141c1.383,4.922,0.75,12.094-3.914,16.031c-2.578,2.25-2.625,5.109-2.414,9.562
	c0.094,2.109,0.211,4.266-0.188,6.375c-0.234,1.219-0.586,2.25-1.008,3.094c2.414,0.188,3.492-6.422,4.57-5.766
	c0.469,0.234,0.75-6.516,1.711-6.516c0.047,0,0.141,0,0.211,0c0.984,0,2.484,1.219,3.914,0.375c1.758-1.031,3.539-0.375,5.672-0.375
	c0.258,0,0.516,0,0.797,0c4.125,0,8.789,9.75,10.898,12.656c1.945,2.719,4.055,9.094,2.93,12.609
	c-1.547,4.922-2.883,14.203-2.438,21.328c0.328,5.062,1.266,7.078,2.156,8.391c0.375,0.656,0.844,1.641,1.195,2.484
	c0.633,1.5,2.812,4.406,4.641,4.406c0.305,0,0.633,0,0.961-0.188c1.055-0.562,2.086-1.031,3.094-1.547
	c2.719-1.312,5.789-2.812,6.562-3.984c0.773-1.219,2.109-1.969,3.703-1.969c3.68,0,9.797-3.562,11.508-0.656
	c0.445,0.797,0.633-5.531,0.68-5.531c0.188,0,0.398,0,0.656,0c0.516,0,1.031,7.594,1.406,7.359c1.992-1.172,3.281,0.609,5.414-2.859
	c0.398-0.656,0.82,0.609,1.266-0.141c3.305-5.156,8.93-9.141,12.586-9.984c0.516-0.188,1.828-0.75,2.789-1.5
	c2.953-2.344,6.305-4.688,9.82-4.688c0.609,0,1.242,0.141,1.828,0.328c1.945,0.562,2.836,1.922,3.234,2.812
	c1.102,2.625-0.531,5.344-1.891,8.062c-0.633,1.172-0.703,2.719-1.703,3.516v0.047c3-6.281,9.227-10.172,13.164-10.172
	c3,0,4.461,3,5.891,6.234c0.352,0.797,0.941,1.969,1.41,2.812c2.016-1.547,4.834-2.391,7.576-2.391c4.125,0,6.959,1.875,8.959,4.875
	c0,0,0,0,0,0.047c1-3.609,5.738-5.953,10.449-5.953c2.766,0,5.213,0.75,7.275,2.203c2.32,1.641,3.427,2.953,4.153,4.078
	c0.516-0.844,1.081-1.969,1.456-2.719c1.289-2.438,2.146-4.031,3.787-4.734c0.398-0.141,0.792-0.234,1.213-0.234
	c1.242,0,2.317,0.656,2.927,1.781c1.57,2.906-0.634,11.812-3.446,16.922l0.937-0.234l2.32,2.719c0.305,0,0.679-0.094,1.031-0.141
	c0.797-0.141,1.711-0.234,2.648-0.234c3.305,0,4.992,1.688,5.836,3.188c0.609,1.125,1.477,1.969,2.578,3.094
	c1.852,1.828,4.195,4.125,6.258,8.625c0.422,0.938,0.727,1.266,0.844,1.406c0.516-0.094,1.641-0.656,2.484-1.125
	c1.641-0.844,3.68-1.875,6.117-2.391c0.562-0.094,1.172-0.141,1.781-0.141c7.523,0,16.266,9.141,22.289,16.875
	c3.094,3.938,4.523,7.359,5.555,9.984c0.445,1.031,0.984,2.672,1.312,2.672h0.023c5.953,0,8.133,7.266,8.133,12.141
	c0,1.312-0.75,2.648-1.945,3.914c2.977,0.047,5.555,1.559,6.891,3.996c0.305,0.562,0.633,1.318,0.82,2.303
	c0.773-0.516,1.594-0.794,2.555-0.794c0.633,0,1.172,0.142,1.594,0.282c0.352,0.094,0.609,0.095,0.961,0.095
	c3.656,0,11.062,1.97,14.367,5.063c1.289,1.219,4.125,3,6.867,4.781c2.156,1.359,4.383,2.766,6.211,4.125
	c1.195,0.844,2.602,1.312,4.312,1.312c1.945,0,3.844-0.609,5.086-1.125c0.68-0.234,1.453-0.375,2.273-0.375
	c4.875,0,13.102,5.062,16.289,10.078c1.523,2.438,5.25,3.562,8.508,4.547c1.734,0.516,3.328,1.031,4.641,1.688
	c4.711,2.344,10.852,10.688,11.391,17.531C596.18,710.062,593.977,716.25,591.281,723.375z M694.547,62.531
	c-2.203,3.141-5.438,5.625-8.859,6.75c-5.016,1.734-14.766,12.422-18.938,16.969c-1.289,1.406-2.227,2.438-2.766,3
	c-2.766,2.672-5.109,3.141-3.656,7.172c0.75,2.156,1.148-0.422,1.664-0.422c0.141,0,0.281,0,0.445,0c0.188,0,0.398,0,0.586,0
	c0.844,0,1.945,2.672,3.117,3.281c1.57,0.891,1.992,3.375,2.133,4.125c0.375,2.062-1.031,4.406-2.414,6
	c-0.797,0.938-1.688,2.297-2.273,3.422c-0.773,1.5-1.992,5.625-1.547,15.656c0.094,1.641-0.352,3.047-1.289,4.031
	c-0.633,0.656-1.781,1.5-3.703,1.5c-2.156,0-4.734,6.234-7.688,5.109c-2.484-0.984-5.203,3.281-7.266,4.266
	c0.07,0.141,0.141,0.141,0.211,0.328c0.492,1.406,1.148,2.484,1.617,3.094c1.312,1.734,2.109,4.688,1.031,7.781
	c-0.984,2.906-3.375-3.469-6.75-2.578c-0.984,0.234-1.969-8.016-2.906-8.016c-0.352,0-0.703,0-1.031,0
	c0.656,0,0.305,10.734,0.07,11.25c-0.891,2.016-3.188,6.984-7.453,6.984c-1.219,0-2.484,1.922-3.492,1.828
	c-0.867,0.094-3.586,2.344-5.602,3.281c-3.797,1.828-8.531,4.547-13.219,5.484c-2.391,0.469-5.016,0.984-8.016,0.984
	c-2.906,0-5.719,9.141-7.969,8.953c-1.617-0.094-3.023,9.234-4.055,9.234c-0.234,0-0.445,0-0.609,0c-1.219,0-3.469-5.016-6.68,1.219
	c-0.609,1.219-1.055-2.578-1.383-2.016c-1.242,2.062-3.984,0.047-6.492,0.047c-2.344,0-5.227-1.453-7.758-1.734
	c-1.945-0.188-3.797-0.984-4.875-0.984c-1.031,0-2.484,0.656-4.172,1.781c-2.391,1.594-5.344,3.469-9.352,4.172
	c-1.172,0.234-1.5,0.516-1.523,0.516c-0.164,0.375,0.234,1.922,0.469,2.859c0.258,1.031,0.562,2.203,0.656,3.422
	c0.258,3.375-0.844,5.344-1.828,6.469c-1.242,1.312-2.953,1.844-4.945,1.844c-0.938,0-1.945,0.406-3-0.594h-0.023
	c-0.047,1-0.094,1.109-0.117,1.531s-0.07,0.906-0.094,1.281c-0.07,0.703-0.07,1.484-0.07,2.281
	c-0.047,3.422-0.094,8.078-3.961,11.828c-3.445,3.328-5.789,5.352-10.289,5.352c-0.539,0-1.125,0.004-1.758-0.09
	c-4.43-0.375-5.93-4.873-6.727-7.779c-2.719,1.547-5.156,2.72-7.359,2.72c-2.062,0-3.703-1.031-4.43-2.906
	c-0.844-2.062-9.398-8.859-12.867-10.5c-3.609-1.688-5.883-6.469-7.711-10.312c-0.422-0.844-0.82-1.688-1.148-2.25
	c-0.68-1.266-0.797-2.625-0.352-3.844c-2.555-1.031-5.32-2.438-6.445-4.266c-1.312-2.109-5.672-12.375-6.047-15.891
	c-0.328-2.812,1.734-5.719,3.562-8.297c0.141-0.141,0.258-0.328,0.398-0.516c-0.961-0.188-2.133-0.328-3.188-0.328
	c-0.938,0-2.766-5.672-4.242-8.109c-1.383-2.297-2.133-14.906-1.641-14.906c-0.023,0-0.07,0-0.07,0c-1.172,0-2.273,4.828-3,3.891
	c-1.102-1.453-1.453-1.172-2.25-8.25c-0.586-5.297-1.383-11.203-2.695-13.641c-1.383-2.531-6.141-3.609-9.961-4.969
	c-2.203-0.844-4.289-10.453-5.836-11.391C432.492,108.328,424.547,96,414.516,96c-0.047,0-0.094,0-0.141,0
	c-0.82,0-2.438,9.375-4.008,9.656c-2.461,0.375-5.273,5.438-7.758,5.438c-1.828,0-3.305,2.016-4.453,1.547
	c-1.125-0.469-2.016-0.047-2.719-0.984c-0.375,0.891-0.75,2.25-1.102,2.766c-1.688,2.625-4.758,4.594-7.852,4.594
	c-1.266,0-2.438-0.141-3.469-0.656c-1.688-0.797-3.023-2.672-4.734-5.016c-1.547-2.25-3.914-11.109-5.672-11.531
	c-1.219-0.328-2.227-5.297-3.188-5.625c1.055-0.047,1.57-0.188,2.812-0.188c0.398,0,0.984,0,0.984,0
	c2.367,0,9.305-3.328,10.289-4.922C383.953,86.25,387.961,81,394.008,81c0.844,0,1.711-0.094,2.555,0.094
	c0.258,0.094,0.516,0,0.727,0c2.25,0,2.555-4.031,2.555-4.219l0.141-1.969l1.875-0.703C457.734,54.844,516.328,45,576,45
	c22.5,0,45.188,1.406,67.383,4.219l1.688,0.188l0.961,2.25c1.922,4.406,3.727,8.531,7.266,9.469
	c0.727,0.188,1.383,0.281,2.039,0.281c3.117,0,5.578-2.391,9.609-6.656l1.945-2.016l1.57,0.281
	c8.062,1.406,16.242,3.047,24.258,4.828l4.359,0.984L694.547,62.531z"/>
<path d="M390,339.75c0.094-0.188-6-0.469-6-0.703v0.141c0,1.219,0.633,2.625,1.547,4.078
	C388.547,343.125,389.039,342.844,390,339.75z"/>
<path d="M355.688,172.219c-0.352-0.234-0.703-0.469-1.055-0.656c-0.258-0.188-0.633-0.422-0.938-0.609
	c-0.586,1.312-1.383,3.375-2.18,5.438c1.43-1.219,2.859-2.484,5.531-3.516C356.531,172.641,356.062,172.406,355.688,172.219z"/>
<path d="M335.789,185.625c5.766,0.609,9.914,6.375,10.102,6.375h1.383l0.891-6.797c0.117-0.141,1.758-4.641,3.352-8.812
	c-2.25,1.969-3.797,3.984-4.711,5.766l-0.234,0.469c-0.82,1.688-0.82,1.688-1.57,1.688c-0.797,0-1.945-0.188-3.469-0.656
	c-2.789-0.75-5.086-1.125-7.031-1.125c-0.867,0-1.242,0.375-1.945,0.516C333.797,184.453,335.109,185.531,335.789,185.625z"/>
<path d="M490.008,659.859c2.25-0.516,3.164-0.984,3.703-1.641c-1.828,0.844-3.516,1.5-4.758,1.828
	C489.281,660,489.633,659.953,490.008,659.859z"/>
<path d="M1011.609,384h-0.234c-4.828,0-9.094,10.312-11.883,10.312c-0.727,0-1.336,3.797-1.922,3.609
	c-0.281-0.047-0.656-6-1.102-6.141c-1.922-0.656-5.859-7.781-7.922-7.781c-0.023,0-0.07,0-0.117,0c-1.102,0-2.789,9.188-5.039,9.188
	c-3.398,0-9.281,2.672-11.555-0.703c-0.633-0.938-4.055-0.844-6.094-1.922c-4.242-2.297-6.68-2.766-7.57-4.828
	c-0.609-1.453-0.703-3.422-0.797-8.109c-0.094-3.422-0.234-9.469-1.008-11.297c-0.867,0.281-2.438,1.594-4.664,3.656
	c-1.312,1.266-3.164,2.297-4.969,3.188c-0.164,0.094-0.328,0.188-0.516,0.281c3.117,2.344,7.5,6.047,6.938,11.203
	c-0.516,4.875-3.961,7.125-6.492,8.812c-0.82,0.516-1.594,1.031-2.133,1.5c-0.258,0.281-0.586,0.609-0.984,0.984
	c-6.328,6.141-10.359,9.469-13.523,9.469c-1.594,0-2.977-0.844-3.68-2.203c-0.914-1.828-1.406-5.531-2.297-13.453
	c-0.422-3.938-1.102-9.891-1.617-11.203c-0.258-0.375-0.609-0.844-1.008-1.453c-1.242-1.828-3-4.453-4.523-7.266l-1.969,0.844
	c-0.352,0.188-3.492,1.5-7.008,1.594c0.258,1.594,0.797,3.891,1.172,5.438c0.914,3.703,1.688,6.891,1.43,9.141
	c-0.375,3.047-2.508,4.078-4.219,4.078c-3.867,0-8.414-5.625-9.398-10.219c-0.891-4.312-3.727-9.188-5.18-10.5
	c-1.102-0.891-7.359-3.469-10.711-4.781c-3.398-1.406-5.367-2.25-6.328-2.766c-1.898-1.172-11.906-8.484-13.172-15.375
	c-0.469-2.297-3.586-2.953-5.203-2.953c-0.703,0-1.125,0.094-1.125,0.094c-0.398,0.281-1.336,0.938-2.25,1.641
	c-4.922,3.656-9.258,6.703-12.656,6.703c-2.461,0-5.25-1.031-8.18-2.062c-1.898-0.656-3.867-1.312-5.367-1.594
	c-0.797,0.938-1.57,4.406-1.992,6.375c-0.328,1.406-0.68,2.953-1.078,4.266c-1.43,4.453-5.414,4.828-8.039,5.109
	c-2.109,0.188-3.469,0.375-4.336,1.406c-1.055,1.219-2.273,2.438-3.445,3.562c-1.148,1.172-4.664,4.688-4.336,5.438
	c0.305,0.75,0.68,1.266,1.055,1.781c0.68,0.938,1.594,2.297,1.266,4.125c-0.375,1.781-1.781,3.047-3.938,4.453
	c-1.477,0.938-2.812,2.438-4.102,3.938c3.773-1.781,19.336-5.578,22.477-5.578c0.258,0,0.797,0,1.617,0c1.945,0,5.602,1.5,9.633,1.5
	c15.562,0,18.352-0.141,18.727-0.328c1.664-0.844,4.945-1.453,8.766-1.453c8.367,0,14.578,4.781,17.039,12.75
	c1.594,5.203,1.594,8.625-0.023,10.875c-1.828,2.625-4.922,2.719-7.172,2.766c-1.008,0.047-2.273,0.141-2.812,0.422
	c0.281,0.75,1.547,2.062,2.273,2.344c1.734,0.141,3.352,1.359,6.398,3.797c1.617,1.266,5.016,3.984,6.141,4.078
	c4.078,0,12.094,3.797,13.641,4.594l0.398,0.188l0.305,0.281c3.797,3.422,9.258,7.078,11.344,7.078c2.414,0,4.805,1.359,7.289,2.812
	c2.109,1.219,4.477,2.578,6.141,2.578c0.539,0,1.125-0.094,1.852-0.938c1.711-2.062,3.164-5.062,4.594-8.062
	c2.602-5.344,5.039-10.406,9.727-10.406c0.445,0,0.914,0.047,1.383,0.188c2.32,0.516,4.523,1.594,6.844,2.719
	c3.211,1.594,6.516,3.234,9.914,3.234c1.336,0,2.953-0.047,4.688-0.141c2.016-0.047,4.125-0.094,6.188-0.094
	c6.234,0,10.781,0.562,12.656,3.375c0.586,0.844,0.82,1.781,0.727,2.672c2.203-0.797,4.383-1.266,6.398-1.734
	c1.406-0.281,2.719-0.562,3.914-0.938c0.727-0.188,1.453-0.281,2.156-0.281c3.258,0,5.672,2.062,7.477,4.828l4.242-0.797
	c-0.023-0.094-0.07-0.234-0.141-0.281c0,0,0.164,0.094,0.469,0.094c0.797,0,1.102-0.094,1.102-0.094
	c0.164-0.188,0.492-0.891,0.75-1.406c0.68-1.5-1.969-3.844,0.375-6.562c3.469-4.125,2.719-12.75,2.719-24.375
	c0-0.562,0-1.031,0-1.406c0,0.141,2.906-7.359,2.578-7.219C1009.781,390.984,1012.594,384,1011.609,384z"/>
<path d="M773.273,400.125c-0.188,0.469-0.375,0.844-0.562,1.219c0.984,0,1.945-1.969,2.906-3.984
	c-0.281-0.047-0.633-0.047-0.891-0.141C774.234,398.062,773.648,399.375,773.273,400.125z"/>
<path d="M788.273,390.562c-2.742,1.219-4.57-6.562-5.648-6.562c-0.07,0-0.164,0-0.281,0c-0.844,0-2.18,8.953-3.609,8.812
	c-0.984-0.141-2.039,2.25-3.117,4.547c0.68,0.141,1.359,0.328,2.18,0.328c2.133,0,4.57-0.516,6.938-1.031
	c1.477-0.375,2.883-0.703,4.125-0.844c3.82-0.469,6.305-3.281,8.719-6.047c0.07-0.094,0.141-0.141,0.211-0.188
	c-0.094,0.047-0.352,0.094-0.445,0.141C794.883,390.938,791.391,389.25,788.273,390.562z"/>
<path d="M847.031,688.969C856.312,679.688,864,682.781,864,696v120h288v191.625H864V1128c0,13.219-7.688,16.406-16.969,7.031
	L624,911.25L847.031,688.969z"/>
</svg>
