<?xml version="1.0" encoding="utf-8"?>
<!-- Generator: Adobe Illustrator 16.0.4, SVG Export Plug-In . SVG Version: 6.00 Build 0)  -->
<!DOCTYPE svg PUBLIC "-//W3C//DTD SVG 1.1//EN" "http://www.w3.org/Graphics/SVG/1.1/DTD/svg11.dtd">
<svg version="1.1" id="Layer_1" xmlns="http://www.w3.org/2000/svg" xmlns:xlink="http://www.w3.org/1999/xlink" x="0px" y="0px"
	 width="1152px" height="1152px" viewBox="0 0 1152 1152" enable-background="new 0 0 1152 1152" xml:space="preserve">
<path d="M273.773,167.812c2.722-5.12,8.658-2.455,9.398-8.578c-5.024-0.9-9.825-0.095-14.812-0.515
	C271.603,160.943,273.853,163.66,273.773,167.812z"/>
<path d="M390.586,307.688c7.99-2.263,16.779-11.016,23.929-1.688c-0.172-0.689-6.263-13.191-10.382-7.686
	c-6.32,7.482-17.129,0.587-20.882,11.626C385.669,309.102,388.114,308.351,390.586,307.688
	C393.234,306.938,389.695,307.922,390.586,307.688z"/>
<path d="M1053.328,550.734c2.507,0.835,4.609,4.402,5.953,6.375c-2.539-9.733-2.912-19.83-6.716-29.248
	c-2.972-7.359-9.923-11.311-14.096-17.689c-4.108-6.279-6.994-15.584-7.596-23.047c-0.175-2.805-4.512-3.967-5.87-6.326
	c-0.664-1.153-5.827-16.862-6.427-16.168c-9.396,10.875,6.713,26.048,6.804,38.546c0.099,13.527,0.545,16.181,11.083,24.674
	C1043.886,533.833,1045.203,546.056,1053.328,550.734C1054.875,551.25,1051.781,549.844,1053.328,550.734z"/>
<path d="M889.711,345.375c4.4,8.637,17.618,13.587,25.031,19.594c-1.865-5.97-10.499-11.916-15.334-15.857
	c-4.977-4.056-13.126-14.756-19.611-15.877C879.145,337.332,887.85,341.706,889.711,345.375
	C892.242,350.344,888.094,342.188,889.711,345.375z"/>
<path d="M931.547,223.359c-2.27-5.625-6.169-11.107-3.234-17.344c-5.985,4.719-15.794,2.429-19.595,10.032
	c7.16,4.344,15.633,5.854,8.443,16.382c-2.707,3.966-7.375,6.869-9.049,11.498c-2.529,6.996-0.972,1.36-6.942,4.277
	c-0.093-2.735-0.187-5.469-0.279-8.204c-7.164,3.45-13.373,9.093-20.509,12.805c-3.7,1.925-2.399,5.182-6.576,5.88
	c-2.425,0.406-6.763-18.422-7.462-21.686c-2.741,2.459-2.766,6.681-5.883,8.578C880.271,243.04,862.006,288,880.882,288
	c8.405,0,5.914-16.277,12.156-18.656c4.583-1.584,8.32-5.253,12.776-6.983c5.877-2.282,10.866,1.923,16.449,1.923
	c0.596-16.686,6.519-24.281,23.319-24.281c-4.31,0-9.648-3.375-5.672-6.938C936.797,229.314,933.797,228.983,931.547,223.359
	C930.961,221.906,933.047,227.109,931.547,223.359z"/>
<path d="M1065.469,576C1065.891,576,1065.77,575.657,1065.469,576C1065.562,576,1065.469,576,1065.469,576z"/>
<path d="M1106.719,351.75C1044.701,204.934,921.436,88.175,771.566,34.009C611.993-23.665,430.484-6.777,284.249,79.172
	C145.142,160.932,44.531,300.77,11.879,458.848c-33.921,164.228,6.406,338.978,109.688,471.167
	c138.411,177.152,371.682,258.281,590.136,205.203c-74.492-74.734-148.984-149.469-223.477-224.203
	c94.278-93.958,188.558-187.915,282.836-281.873c2.05-2.042,4.099-4.085,6.148-6.127c-2.659-0.271-14.643-1.759-15.633,2.203
	c-1.562,6.74-6.657,8.927-12.117,3.984c-7.376-6.746-13.55-12.731-17.873-21.58c-2.82-5.77-5.761-11.592-7.909-17.654
	c-2.075-5.894-11.48-7.249-16.438-9.577c-6.334-2.974-11.54-7.05-10.691-14.631c0.393-3.509,1.333-6.691-0.514-10
	c-1.304-2.333-4.893-5.365-2.271-8.202c9.5-10.286,12.433-23.398,7.486-36.763c-3.288-8.919-1.562-13.821,2.196-22.153
	c3.996-8.859,4.639-21.008,10.953-28.613c5.044-5.959,13.645-8.91,20.466-12.229c6.195-3.014,3.98-9.563,5.034-15.49
	c2.404-13.51,13.906-22.313,24.843-29.312c-4.095-5.139-3.146-8.786-10.195-7.849c-7.47,0.751-7.646-4.83-12.305-9.23
	c-5.518-5.151-1.554-10.891,1.371-15.679c2.01-3.29-0.475-8.729-0.829-12.306c-1.058-10.661,2.102-18.281,13.685-18.281
	c7.509,0,31.074,6.397,33.839-2.307c1.716-5.401,3.131-11.939-2.115-15.615c-4.862-3.407-13.825-3.188-17.487-7.619
	c-5.913-7.152,16.036-12.542,20.24-13.365c3.902-0.796,15.89-1.475,18.28-4.255c4.065-4.727-0.916-8.984,7.247-11.679
	c7.146-2.359,8.736-2.559,14.063-7.971c5.717-5.809,11.128-9.156,19.683-7.503c-4.41-6.231-3.283-18.419,4.359-21.984
	c-10.2,0.664-20.29-4.903-21.053-16.09c-0.464-6.801-4.634-13.502-0.954-19.925c11.13-19.427,29.368-19.493,45.849-31.805
	c6.507-4.861,9.072-13.252,15.176-17.93c6.908-5.295,7.565-5.561,13.917-0.472c10.928,8.753,38.921,22.24,25.956,39.394
	c8.273-5.478,9.432-8.524,16.354-1.658c8.573,8.502,16.782,17.335,24.85,26.314c-4.964-0.452-7.956,1.165-11.203,4.828
	c2.628-0.081,13.289-2.357,15.012-0.399c5.515,6.27,10.767,12.793,15.912,19.367c11.855,15.147,22.896,30.933,33.044,47.273
	c20.539,33.072,37.398,68.415,50.192,105.183c13.406,38.525,22.302,78.591,26.511,119.163c1.06,10.207,1.824,20.443,2.297,30.693
	c-1.738,3.787-5.229,4.445-9.87,6.97c-10.393,5.652-20.484,12.808-30.816,17.453c1.869-1.121,0.541,3.074,0.533,3.949
	c-0.036,3.851,10.05,0.58,11.637-0.047c8.811-3.479,17.261-8.114,26.079-11.684c0,12.25,0,24.501,0,36.751
	c-1.181,7.173-7.304,19.601-11.377,27.025c-5.422,9.884-15.646,11.979-22.585,20.031c-8.964,10.4-15.267,25.455-25.472,34.413
	c-7.802,6.85-3.733,22.34-0.438,30.555c2.072,5.166,7.02,3.288,11.959,3.288c18.694,0,37.389,0,56.083,0c6.398,0,12.798,0,19.196,0
	c5.003,0,8.762-29.972,9.814-35.327c7.371-37.483,11.127-75.649,10.795-113.856C1151.322,495.664,1135.992,420.982,1106.719,351.75
	C1077.75,283.172,1136.766,422.812,1106.719,351.75z M591.281,723.375c-3.678,9.952-9.027,17.571-16.493,25.275
	c-8.579,8.854-3.918,21.021-6.951,32.647c-1.355,5.195,0.229,9.882-1.915,14.903c-2.073,4.855-5.553,8.827-7.554,13.728
	c-2.317,5.674-3.416,12.158-10.368,13.595c-5.81,1.201-11.145,1.559-16.691,3.967c-5.161,2.239-18.249,8.021-19.831,13.229
	c-1.743,5.737,3.737,11.217,0.89,17.421c-2.141,4.649-6.933,4.14-8.603,8.391c-2.112,5.463-4.356,6.803-8.789,9.75
	c-4.271,3.106-2.932,11.135-5.655,15.484c-6.268,10.014-16.226,21.652-29.032,18.079c6.789,5.223-1.089,14.567-4.166,19.678
	c-4.015,6.671-6.193,8.111-13.807,9.104c-6.841,0.891-18.216-2.946-15.473,6.656c3.114,12.455-9.966,6.729-16.125,4.969
	c1.464,7.318,14.757,1.812,7.038,13.751c-2.529,3.911-6.368,6.459-8.89,10.343c-2.409,3.646-10.571,9.243-11.181,13.36
	c29.816,4.835-8.992,23.728-10.292,34.833c-0.848,7.246,5.809,15.792,12.448,18.416c4.21,1.707,9.445,0.288,13.445,2.446
	c5.341,2.882-0.753,6.978-3.529,7.857c-6.884,2.181-15.027,4.457-22.158,5.501c-4.825,0.706-17.456-2.019-19.94-7.038
	c-4.543-0.649-15.644-11.818-16.492-16.365c-0.66-3.54,1.465-6.642-2.094-8.76c-6.318-3.78-5.125-7.302-1.335-12.141
	c-13.338-3.317,1.234-15.472-2.414-20.953c-5.951-10.456,3.604-16.538,7.819-25.512c1.992-4.24,1.037-5.966-0.012-10.412
	c-1.562-6.618-0.242-11.008,1.768-17.249c2.017-6.265-0.449-4.815-2.257-9.701c-2.167-5.859,2.124-6.64,3.683-10.719
	c-0.115-1.89-0.151-3.782-0.108-5.677c0.635-3.729,2.952-6.411,4.342-9.792c1.875-4.499,5.659-11.434,5.49-16.183
	c-0.151-4.246-2.631-8.235-2.631-12.41c0.271-1.878,1.192-3.347,2.766-4.405c3.009-2.534-0.491-2.743,0-6.095
	c1.181-7.783,8.504-4.404,6.867-14.062c-0.994-5.792,2.948-13.27,4.015-18.985c1.646-8.822,6.931-19.064,6.931-27.984
	c0-19.271-26.57-26.347-39.606-34.091c-10.257-6.093-10.627-18.825-14.576-29.196c-3.854-10.124-6.317-28.411-15.333-34.775
	c-13.402-9.253-4.478-16.23-4.433-28.442c0.041-11.085-3.206-17.324,3.979-27.319c2.662-3.704,6.953-6.57,10.425-9.481
	c5.265-4.415,4.183-7.369,6.223-14.164c1.722-5.434-3.193-26.062-10.009-26.062c-1.641,15.865-19.766,6.994-25.851-0.188
	c-5.185-6.065-11.848-8.084-17.25-13.267c-5.382-5.164-0.784-14.826-7.688-18.843c0.43,0.26-2.784,15.769-7.356,5.73
	c-3.47-7.619-14.749-10.128-20.294-15.382c-2.792-2.646-8.657-12.895-12.874-12.895c-4.314,0-4.55,4.792-7.905,6.644
	c-6.174,3.408-7.503-4.677-11.479-6.083c-5.511,0-12.083,3.983-17.138,0.342c-6.243-4.497-4.078-12.041-7.816-17.349
	c-3.025-4.295-10.612-4.531-15.129-5.934c-5.699-1.771-9.108-8.593-9.988-14.127c-1.062-6.68,0.298-9.956-4.888-16.042
	c-2.704-3.173-6.283-4.414-8.731-7.505c-7.939-10.024-14.208-20.378-22.652-30.089c2.665,4.262,7.04,6.949,8.936,11.777
	c1.623,4.133,0.755,8.265,4.424,11.239c3.649,3.127,8.904,7.167,9.188,12.469c0.263,5.251-5.52,9.024-10.11,6.206
	c-3.688-2.265-15.083-11.155-14.452-15.769c0.396-2.641-5.864-7.929-7.242-10.032c-2.897-4.381-9.452,2.021-11.86-3.75
	c-1.627-3.418,1.19-7.708,3.114-10.326c2.644-3.598-2.21-4.207-4.656-6.341c-2.825-2.465-4.235-6.792-5.599-10.127
	c-2.594-6.346-4.647-2.894-5.821-5.362c-3.707-7.654-8.495,1.974-9.211-4.817c-0.788-7.472-7.793-8.211-9.632-14.495
	c-1.816-6.206,6.939-21.255,9.154-27.064c5.283-13.857,11.14-27.496,17.554-40.866c12.132-25.291,26.259-49.628,42.259-72.669
	c32.052-46.156,71.1-82.097,112.909-118.946c1.581,1.953,2.834,4.08,3.961,6.328c2.308-1.319,4.06-3.38,6.843-3.844
	c-2.651-1.283-5.147-3.311-7.406-5.203c9.476-7.238,19.334-13.941,29.203-20.625c-0.541,2.983-1.118,5.963-1.618,8.953
	c6.568-2.031-0.957-4.975,3.164-9.938c2.534-3.052,12.248-2.726,15.609-2.907c-3.468,0-6.965-0.341-10.43-0.516
	c7.33-4.447,19.358-17.341,27.562-9.686c3.15,2.94-1.696,11.703-3.576,14.346c-1.503,2.113-6.233,3.142-6.853,4.855
	c-0.341,0.943-1.255,7.314-2.532,7.314c3.91,0,7.501-6.444,10.744-8.285c5.717-3.245,12.064-6.554,18.601-4.795
	c13.974,3.76,26.292,12.015,40.844,14.795c5.2,0.994,10.608,1.6,15.733,2.926c5.319,1.676,3.629,16.969,7.173,16.969
	c7.988,0,13.885-1.029,19.569,7.078c4.31,4.148,14.314,4.063,20.086,4.969c-4.944,7.631-9.405,11.835-16.569,17.344
	c-6.707,5.366-15.942-6.048-22.991-6.937c1.608,3.852,8.804,5.702,11.812,8.437c4.129,3.639,5.482,10.635,4.597,15.955
	c-1.712,10.286-16.213-9.961-15.121,3.452c-3.257-0.324-6.523-0.587-9.793-0.755c-5.843-0.302-6.202-2.148-10.292-5.713
	c-1.049-0.897-6.179,2.083-10.079-1.358c-3.035-2.759-7.413-3.561-11.083-6.105c-5.695-3.948-21.163-2.301-27.449,0.622
	c-7.076,3.538-11.206-17.301,0.259-19.546c-7.446-8.312,15.845-19.312-1.687-19.312c-7.042,0-10.211-19.735-10.524-19.735
	c-1.049,2.591-2.225,6.234-4.402,8.29c-2.597,2.451-3.646,7.667-6.707,9.569c4.957,2.226,9.584,9.474,6.609,14.813
	c-2.75,4.774-10.786,6.424-15.587,8.39c4.633,4.83,22.192,9.225,19.688,17.766c-3.999,13.677-16.143,3.89-17.305-5.212
	c-1.274-9.979-3.523-2.495-8.53,1.555c-3.97,3.211-7.431,5.692-12.651,5.983c-6.486,0.36-4.736-5.456-1.545-8.325
	c-0.907-0.32-1.735-0.789-2.485-1.406c-2.288,13.484-3.397,6.797-13.617,6.797c-8.01,0-12.927,8.424-18.82,12.844
	c-8.624,6.424-6.003,6.239-5.145,15.838c0.468,5.222,4.059,7.612,5.988,13.131c11.392-3.271,21.629,5.774,32.882,8.157
	c6.953,1.545,15.43-2.618,21.596,0.081c6.657,2.914,7.26,10.458,9.413,16.42c1.57-2.275,2.879-4.75,4.289-7.125
	c1.498,5.289,5.561,13.886,2.438,19.074c-1.517,2.52,2.047,1.693,3.632,1.973c5.871,1.215,3.398-4.788,2.461-8.203
	c-1.359-4.659-9.219-17.63-3.425-20.496c4.958-2.452,6.606,3.714,9.401,3.48c5.451-1.696,8.384-7.196,5.05-11.674
	c-4.099-5.506-18.612-13.44-4.888-17.014c-1.54-4.619-0.518-9.851,0.396-14.511c1.406-7.168,6.767-6.493,12.88-7.133
	c5.101-0.534,10.945-1.29,15.952,0.259c4.54,1.404,8.385,6.646,12.961,7.229c5.028,0.569,12.178,1.07,16.054,4.888
	c5.189,5.111-2.474,7.531-4.665,10.814c8.772,9.15,15.759,1.63,21.308-5.537c7.998-10.331,14.119,1.413,19.099,7.974
	c1.439,1.229,2.719,1.093,3.84-0.41c2.217-1.827,5.077,5.078,6.009,6.402c1.688,2.397,4.661,4.198,6.839,7.212
	c4.634,6.413,12.54,8.787,16.757,16.494c4.997,9.13,18.922,9.073,10.547,22.003c-5.357,8.995-6.211,12.141,4.123,12.141
	c7.498,0,18.575,20.763,11.268,25.147c-3.442,2.065-4.631-2.227-7.822-2.227c-3.339,0-4.16,2.859-7.406,2.859
	c-2.777,0-3.348-3.843-5.625-3.843c2.136,0-3.896,13.892-4.156,14.552c-3.43,8.727-5.783-3.409-7.104-6.525
	c-2.387-5.625-14.431-9.713-7.021-16.606c2.249-2.142,2.761-7.756,4.178-10.512c0.332-0.644,7.075-9.035,6.088-9.035
	c-1.854,0-4.022,5.271-5.695,6.235c-3.631,1.98-9.147-2.157-12.21,0.421c-3.423,2.914-11.214,19.248-18.938,12.187
	c1.496,4.049-2.792,7.409-0.187,10.171c7.651-7.73,9.542-1.892,11.016,5.485c3.802,0,5.969-11.339,11.391-4.875
	c9.339,11.056,4.559,18.526-7.852,20.813c-11.445,1.526-29.716,13.984-39.087,2.041c-1.947-2.482-5.956-10.522-7.238-3.947
	c-0.422,2.165-5.225,4.524-6.4,7.101c-1.562,3.426,0.732,6.263,2.687,8.962c8.907,12.02-5.908,12.985-14.805,11.604
	c-4.807-0.746-5.504-1.946-5.518,3.231c-0.011,4.013-3.314,6.5-7.123,6.023c-0.558,3.771,0.07,17.93-9.257,13.453
	c1.793,4.592,9.148,11.356,3.897,16.062c-5.604,5.024-11.286,5.156-16.178,11.594c-4.922,6.38-11.426,10.442-16.464,16.272
	c-4.767,5.516,0.514,11.13,2.348,17.079c2.046,6.634,4.432,12.716,3.023,19.76c-0.893,4.468-5.215,13.182-11.166,9.214
	c-3.62-2.413-3.422-7.819-6.854-10.774c-5.365-4.619-6.783-13.598-7.777-20.191c-6.043,3.453-8.604-1.476-11.743-5.953
	c2.855-0.692-9.917-9.446-9.948-9.464c-7.254-4.253-9.352,19.184-18.708,18.318c-6.825-0.631-6.571-11.525-13.251-11.525
	c-1.3,0-2.194-12.988-6.704-6.792c-2.941,4.04-3.452,9.715-6.533,14.088c-3.791,5.38-9.046,8.83-13.224,13.844
	c4.31,4.13,2.976,14.096,0.984,18.844c-2.719,6.433-1.744,18.086,0.646,24.501c2.458,6.596,8.882,12.495,14.292,16.937
	c5.343,4.386,10.393-7.026,17.593-2.86c4.584-5.094-3.62-18.047,9.609-18.047c5.221,0,11.027-1.968,16.149-1.077
	c7.854,1.359,6.818,14.649,3.808,19.466c-1.979,3.167-4.537,4.226-4.786,8.31c-0.273,4.484,0.962,9.193-1.155,13.427
	c1.606,0.125,4.65-5.288,4.9-6.686c1.437-8.034,0.891-2.499,5.506-5.222c10.276-6.027,20.136,14.504,20.587,21.819
	c0.794,12.884-4.781,22.301,0.623,35.273c5.967,14.134,24.225-14.545,30.469-3.938c-0.062-0.111,1.019-5.531,0.68-5.531
	c3.278,0-0.845,7.188,3.877,6.868c4.773-0.324,8.591-7.555,12.393-10.1c10.514-7.036,30.009-14.157,19.135,6.184
	c2.059-4.31,5.957-8.227,10.571-9.717c6.167-1.992,7.589,4.446,9.894,8.591c2.905-2.229,16.535-4.314,16.535,2.531
	c2.721-9.82,17.798-5.996,21.877,0.328c9.792-16.043,11.293,1.282,5.937,11.016c0.104,0.103,2.704,2.135,3.258,2.485
	c6.75,0,7.483,1.198,12.093,5.906c3.078,3.039,4.427,6.817,7.102,10.031c5.075-0.921,8.021-4.866,13.67-3.128
	c10.804,3.323,20.597,16.26,24.557,26.33c2.269,5.267,15.757,10.008,7.522,18.727c5.924,0.095,5.861,5.506,10.267,5.506
	c3.75,0,8.035,0.986,11.49,2.321c5.553,2.146,10.57,6.712,15.527,9.962c6.309,4.136,7.897,1.874,14.654,1.874
	c5.242,0,10.872,3.958,14.314,7.59c4.967,5.24,8.784,5.55,15.123,8.724C598.973,695.287,595.842,711.318,591.281,723.375
	C590.554,725.344,593.977,716.25,591.281,723.375z M694.547,62.531c-4.867,6.938-15.131,10.534-21.294,16.809
	c-2.793,2.843-5.472,5.792-8.167,8.727c0.006-0.006-8.16,10.544-4.107,9.205c12.487-4.127,1.005,20.54,0.967,26.674
	c-0.053,8.413-3.495,10.568-10.442,14.855c-2.345,1.447-6.729,3.311-9.41,4.59c0.169,0.338,5.99,13.64,1.864,11.901
	c-0.871-0.367-6.18-3.599-6.345-4.02c-0.807-2.044-0.598-7.272-3.348-7.272c3.643,0-2.133,15.98-4.544,17.426
	c-9.419,5.648-21.993,12.385-33.168,12.385c-4.028,0-9.856,12.443-10.873,15.772c-0.951,3.114-10.152,2.184-9.822,1.618
	c-1.707,2.832-12.043-1.442-14.25-1.688c-7.013-0.676-8.167,1.347-14.725,3.929c-9.101,3.584-1.54,3.334-4.521,11.916
	c-1.369,3.94-5.833,5.156-9.348,3.641c-0.272,5.816,0.318,12.499-4.241,16.921c-6.681,6.454-15.901,7.961-18.774-2.517
	c-8.077,4.597-9.183,1.548-14.729-3.46c-5.593-5.05-12.58-7.625-16.169-14.543c-1.162-2.239-3.97-6.348-2.969-9.089
	c-4.64-1.873-6.609-4.167-8.513-8.542c-3.404-7.825-5.582-12.941-0.02-20.428c-6.701-1.311-10.802-23.343-9.07-23.343
	c-0.808,0-2.726,4.334-3.07,3.891c-6.201-8.18,1.271-21.33-10.933-25.53c-7.303-2.513-8.576-11.213-13.805-16.839
	c-4.728-5.086-15.025-15.089-18.067-4.797c-1.133,3.835-12.92,16.663-17.215,10.935c-10.695,25.401-19.843-13.36-26.018-15.468
	c3.991-0.177,7.114-0.762,10.72-2.689c5.322-2.844,4.119-9.605,10.497-11.916c3.645-1.32,9.208,1.262,9.208-4.709
	c1.033-0.688-0.759-1.631,1.079-2.32c3.561-1.335,7.208-2.495,10.825-3.669c37.98-12.329,77.345-20.324,117.122-23.823
	c38.572-3.393,76.93-2.04,115.356,2.25c2.592,0.289,4.335,8.552,6.713,10.557c5.259,4.433,10.611-1.526,14.007-5.119
	c7.851-4.434,22.9,1.966,32.132,4.077C696.279,59.997,695.588,61.585,694.547,62.531z"/>
<path d="M1011.609,384c-3.124,0.526-13.663,14.042-14.039,13.921c1.818,0.303-6.981-12.646-7.593-13.176
	c-3.829-3.323-3.126,8.442-6.588,8.442c-8.752,0-15.954-0.241-23.804-5.795c-5.302-3.752-0.902-15.587-3.22-21.063
	c-3.593,1.163-6.607,5.373-10.149,7.125c7.992,6.009,9.171,14.201,0.446,20.015c-3.457,2.175-16.077,17.954-20.32,9.75
	c-3.28-6.561-2.237-15.779-3.503-22.905c-0.671-3.774-4.148-7.157-5.941-10.47c-1.074-0.448-7.633,2.402-8.978,2.438
	c0.629,3.886,6.507,18.657-1.617,18.657c-9.719,0-9.062-15.738-14.578-20.719c-5.165-4.176-12.897-4.51-18.299-8.406
	c-3.374-2.433-6.595-5.306-9.079-8.66c-2.094-2.827-2.204-7.573-6.072-8.554c-6.58-1.669-11.027,8.183-17.994,8.183
	c-4.73,0-8.979-2.797-13.547-3.656c-3.048,3.587-1.231,9.678-4.561,13.278c-2.498,2.702-6.016,1.973-9.183,2.858
	c-3.138,0.878-6.748,5.897-8.76,8.537c-1.895,2.485,2.132,4.415,1.598,7.389c-0.724,3.435-5.831,5.823-8.04,8.391
	c16.795-7.928,33.257-3.418,50.891-4.238c8.079-0.375,15.204-3.719,22.264,2.765c4.145,3.807,7.146,10.934,6.16,16.576
	c-1.179,6.749-6.968,3.715-11.062,5.852c2.639,7.035,18.151,10.346,24.157,12.851c9.299,3.878,17.617,9.785,26.869,14.067
	c6.63,3.068,8.978-7.769,11.308-12.048c4.222-7.752,8.938-7.04,15.996-3.619c6.146,3.05,10.909,3.143,17.678,3.028
	c3.898-0.066,17.247-1.198,16.495,6.018c3.673-1.328,8.552-2.953,12.468-2.953c3.768,0,6.06,5.095,8.577,4.622
	c7.697-1.446,1.362-3.815,5.697-8.839C1007.213,421.368,1008.54,384,1011.609,384z"/>
<path d="M773.273,400.125c-1.727,4.295,2.655-3.417,2.344-2.765C774.088,396.827,773.307,397.749,773.273,400.125
	C773.085,400.594,773.648,399.375,773.273,400.125z"/>
<path d="M788.273,390.562c-3.45,1.534-3.526-6.562-5.93-6.562c0.873,0-6.358,12.577-6.726,13.359
	c9.255,1.915,15.379-3.252,22.173-7.782C794.771,391.087,791.367,389.26,788.273,390.562
	C785.531,391.781,791.391,389.25,788.273,390.562z"/>
<path d="M847.031,688.969C856.312,679.688,864,682.781,864,696v120h288v191.625H864V1128c0,13.219-7.688,16.406-16.969,7.031
	L624,911.25L847.031,688.969z"/>
</svg>
