<?xml version="1.0" encoding="utf-8"?>
<!-- Generator: Adobe Illustrator 16.0.1, SVG Export Plug-In . SVG Version: 6.00 Build 0)  -->
<!DOCTYPE svg PUBLIC "-//W3C//DTD SVG 1.1//EN" "http://www.w3.org/Graphics/SVG/1.1/DTD/svg11.dtd">
<svg version="1.1" id="Layer_1" xmlns="http://www.w3.org/2000/svg" xmlns:xlink="http://www.w3.org/1999/xlink" x="0px" y="0px"
	 width="1152px" height="1152px" viewBox="0 0 1152 1152" enable-background="new 0 0 1152 1152" xml:space="preserve">
<path d="M528,1104V829.172c-2.438,1.453-10.453,6.094-15.469,10.078c-1.594,1.266-1.5,2.859-0.328,7.312
	c0.938,3.562,2.016,7.594,0.141,11.578c-1.875,4.172-4.078,5.016-6.188,5.484c-0.844,0.188-1.359,0.281-2.391,2.906
	c-2.578,6.609-4.828,7.969-7.547,9.141c-0.469,0.234-0.891,0.375-1.219,0.609c-1.312,0.938-2.859,4.219-3.375,9.422
	c-0.562,5.203-4.781,9.703-10.594,15.938c-0.797,0.891-1.688,1.828-2.531,2.766c-4.125,4.5-7.875,6.469-12.094,6.469
	c-2.062,0-4.125-0.469-6.094-1.031c2.719,2.109,4.219,6.281,0.469,11.812c-0.562,0.844-1.5,2.438-2.484,4.172
	c-4.828,8.297-6.703,10.922-8.859,11.578c-1.969,0.562-11.25,2.016-17.344,2.016c-2.344,0-3.984-0.234-5.203-0.656
	c-0.375,0.984-0.75,2.859-0.516,4.453c0.094,0.656,0.281,1.406,0.469,2.062c0.562,2.156,1.125,4.594-0.375,6.469
	c-0.609,0.844-1.781,1.781-3.938,1.781c-0.703,0-1.453-0.094-2.344-0.281c-2.062-0.469-4.406-1.266-6.469-1.969
	c-0.938-0.375-2.016-0.75-3-1.031c0.375,1.875,1.078,3.75,1.688,4.312c0.469,0,1.078-0.188,1.688-0.281
	c0.75-0.188,1.5-0.375,2.25-0.375c1.781,0,2.719,0.938,3.094,1.547c1.125,1.547,0.656,3.422,0.094,5.016
	c-1.781,4.969-6.328,9-8.531,10.922c-0.469,0.422-1.312,1.688-2.156,2.953c-1.688,2.625-4.125,6.281-7.688,9.188
	c-1.031,0.938-3.281,2.906-3.469,4.172c0.844,0.141,2.297,0.188,3.188,0.234c2.812,0.047,4.969,0.094,6.375,1.266
	c0.703,0.516,1.5,1.547,1.594,3.469c0.094,3.609-2.625,10.547-5.016,12.703c-0.422,0.375-1.266,1.125-2.203,2.062
	c-4.828,4.5-9.75,9-12.469,10.875c-1.875,1.266-2.344,6.656-1.359,10.031c0.703,2.625,8.109,11.062,12.047,12.609
	c1.734,0.703,4.781,0.984,7.219,1.266c4.312,0.375,6.656,0.656,7.781,2.719c0.469,1.031,0.469,2.25-0.094,3.281
	c-1.219,2.109-4.406,3.141-12.703,4.969c-1.078,0.188-2.438,0.516-2.672,0.562c-1.688,0.703-10.266,3.281-15,3.281
	c-3.188,0-7.406-1.969-10.734-3.562c-0.984-0.469-2.391-1.125-2.906-1.312c-1.594-0.094-2.578-1.125-2.953-2.062
	c0-0.094-0.094-0.281-0.094-0.375c-3.281-0.469-6-3.844-8.062-6.281c-0.234-0.281-0.469-0.562-0.656-0.797
	c-0.141-0.141-0.75-0.562-1.219-0.844c-2.484-1.641-7.688-5.016-6.656-12.422c0.469-3.281-0.047-3.609-2.016-4.781
	c-0.938-0.562-2.109-1.312-3.234-2.391c-3.844-3.75-0.281-7.453,1.125-8.859c0.188-0.281,0.516-0.562,0.75-0.891
	c-0.188-0.047-0.328-0.141-0.469-0.141c-1.594-0.562-4.875-1.594-5.391-5.812c-0.469-4.031,1.969-8.344,3.703-11.484
	c0.328-0.516,0.656-1.172,0.891-1.547c-0.234-0.469-0.75-1.406-1.125-1.969c-0.984-1.688-2.062-3.516-2.391-5.484
	c-0.703-4.031,1.734-7.266,5.109-11.766l1.078-1.406c3.422-4.688,5.438-9.938,5.531-10.969c0-0.469-0.375-1.875-0.703-3.094
	c-0.797-2.906-1.828-6.891-1.828-10.312c0-3.094,0.844-5.25,1.688-7.312c0.75-1.781,1.5-3.609,1.969-6.469
	c0.281-1.969,0.094-2.156-0.656-2.812c-1.125-0.938-3-2.531-3-6.469c0-4.031,2.156-5.766,3.469-6.75
	c0.844-0.703,0.844-0.703,0.656-1.781c-0.938-5.062,1.219-8.812,2.953-11.812c0.516-0.938,1.031-1.828,1.359-2.625
	c0.562-1.406,1.219-3.234,1.875-5.203c0.938-2.906,2.062-6.234,3.328-8.859c0.984-2.062-0.703-7.734-1.453-10.5
	c-0.609-2.062-0.891-3.094-0.891-4.031c0-1.969,1.453-3.281,2.766-4.406c0.469-0.375,1.219-1.031,1.547-1.5
	c-1.266-1.5-1.781-3-1.547-4.594c0.375-2.625,2.719-4.078,4.734-5.391c0.984-0.609,2.016-1.266,2.672-1.922
	c0.469-0.844-0.094-4.266-0.562-6.75c-0.75-4.5,2.719-10.031,3.562-15.844c1.5-10.875,7.406-29.531,7.406-31.125
	c0-0.234,0-0.562,0-0.891c0-2.391-4.219-8.062-6.094-11.672c-2.438-4.547-7.266-7.594-10.125-9.047
	c-2.016-1.031-5.203-2.812-7.172-4.547c-1.312-1.125-3.844-2.859-4.594-3.094c-0.234-0.047-20.672-5.344-20.672-17.156
	c0-4.5-1.969-8.625-3.703-12.609c-1.312-2.906-2.578-5.672-3.047-8.438c-0.375-2.484-2.297-6.797-4.172-11.062
	c-2.438-5.625-4.828-10.922-5.156-14.672c-0.141-1.594-2.391-3.188-4.781-4.875c-3.234-2.25-6.984-4.781-8.016-9.281
	c-1.266-5.625,0.562-9.75,2.062-13.125c0.516-1.266,1.031-2.438,1.312-3.469c0.75-3.375-0.703-12-1.172-14.906l-0.141-0.75
	c-0.797-4.594,5.297-15.703,9.094-18c1.031-0.562,2.766-2.156,4.266-3.469c2.859-2.531,4.781-4.219,6.562-4.875
	c0.188-0.797,0.375-2.109,0.516-3.188c0.375-2.344,0.797-5.297,1.688-8.344c1.688-5.25-0.703-12.516-1.688-13.875
	c-1.172-1.031-1.875-2.719-2.906-5.672c-0.75-2.016-1.875-5.016-2.812-5.859c-0.422-0.422-1.359-0.656-2.578-0.656
	c-0.281,2.719-1.547,6.047-5.016,8.297c-1.688,1.078-3.188,1.641-4.688,1.641c-3.188,0-4.828-2.391-5.812-3.844
	c-0.188-0.281-0.422-0.609-0.562-0.75c-0.281-0.328-1.688-0.844-2.578-1.219c-2.344-0.891-5.25-2.016-7.172-4.312
	c-2.531-2.906-6.375-6.891-9-8.438c-0.469-0.281-1.172-0.562-1.922-0.938c-3.562-1.594-10.172-4.594-9.609-12.562
	c0.375-5.906-3.141-9.422-4.406-10.172c-0.281-0.141-0.562,5.719-0.844,5.531c-1.125-0.75-3.281,3.984-4.5,3.984
	c-0.094,0-0.094,0-0.094,0c-0.891,0-1.922-5.109-3-5.109c-1.969,0-3.75-4.078-5.531-5.016c-1.172-0.656-2.625-3-3.516-3
	c-0.328,0.094-0.609-0.656-0.891-0.656c-4.594,0-10.828-6.562-15.281-11.812c-0.562-0.656-1.031-1.5-1.594-2.203
	c-1.922-2.578-3.188-4.266-5.297-4.266c-2.391,0-2.578,0.141-4.594,3.047c-0.328,0.562-0.75,1.078-1.219,1.734
	c-1.172,1.594-2.859,2.531-4.641,2.531c-3.75,0-6.75-3.891-8.672-6.469C210.141,544.688,210,544.5,210,544.5
	c-1.078,0-2.812,0.328-4.688,0.656c-2.531,0.562-5.438,1.125-8.109,1.125c-9.234,0-11.391-16.5-11.391-16.688
	c-0.375-3.938-5.719-5.531-12.094-7.031c-2.859-0.703-5.156-1.219-6.656-2.25c-4.219-2.906-9.188-13.406-6.656-17.859
	c0.141-1.078-0.984-4.453-2.438-7.359c-2.859-3.844-6.281-7.594-7.594-8.297c-2.719-0.234-4.828-3.516-10.031-12.047
	c-2.484-4.125-5.297-8.766-7.125-10.688l-1.125-1.125c-2.859-3-5.812-6.094-8.438-9.141c0.938,1.5,2.156,3.047,4.031,4.781
	c5.109,4.734,5.812,9.562,6.281,13.078c0.281,1.547,0.469,2.859,0.938,3.375c0.469,0.469,1.219,1.078,2.062,1.781
	c3.797,3.234,8.953,7.641,9.188,12.469c0.094,1.875-0.562,3.656-1.922,5.062c-1.734,1.828-3.516,2.203-4.688,2.203
	c-3.797,0-6.609-3.703-8.672-6.375c-0.469-0.609-1.031-1.406-1.406-1.734c-2.25-0.75-8.672-2.719-7.875-8.719
	c0.188-0.938-1.406-2.812-3.047-4.688c-1.312-1.5-2.766-3.234-4.172-5.344c-0.844-1.312-1.5-1.875-1.781-1.875
	s-0.75,0.094-1.312,0.234c-1.078,0.234-2.438,0.609-4.125,0.609c-3.094,0-4.312-1.875-4.641-2.719
	c-1.875-3.938,2.766-10.031,4.359-11.906c-0.188-0.891-2.297-3-4.406-3.844c-3.094-1.219-5.156-6.094-8.812-15.281
	c-1.312-3.469-2.719,1.734-4.125-1.125c-3.562-7.453-6-1.781-8.25-1.781c-0.141,0-0.281,0-0.422,0c-0.422,0-0.891-8.625-1.312-8.625
	c-1.781,0-3.844-4.781-6.141-5.672l-2.719-3.234l0.938-3.797c16.453-50.016,40.312-97.734,70.875-140.859
	c30.188-42.562,66.375-80.719,107.625-112.781l2.438-2.109l1.828,2.438c0.797,1.125,1.406,2.156,1.828,3.234
	c0.141,0.281,0.234,0.469,0.328,0.656c0.141-0.094,0.328-0.188,0.516-0.375c0.375-0.281,0.797-0.609,1.312-0.938
	c1.734-1.312,3.328-2.25,5.016-2.531c-1.453-0.703-2.812-1.641-4.312-2.812l-3.094-2.391l3.141-2.391
	c6.656-4.875,13.406-9.703,20.156-14.25l5.906-3.984l-1.266,6.984c-0.141,0.75-0.234,1.406-0.328,1.969
	c0.562-0.188,1.266-0.328,2.062-0.516s1.078-0.422,1.078-0.422c0.141-0.469-0.328-1.922-0.609-2.625
	c-0.562-1.781-1.359-4.219,0.375-6.047l0.234-0.328l0.984-0.656l0.375-0.094c0.234-0.094,0.516-0.188,0.844-0.188
	c0.469-0.094,1.125-0.234,1.875-0.375c3.281-0.562,8.062-1.406,11.531-1.594c-0.234,0-10.406-0.516-10.406-0.516l8.344-5.062
	c3.844-2.391,7.734-4.641,11.625-6.891l1.125-0.656l1.266,0.375c4.266,1.406,5.484,2.531,6.047,3.75
	c0.422,0.938,0.469,1.875,0.047,2.766c-1.266,2.953-3.469,13.875-10.781,14.344c-0.891,0.094-1.922,8.203-3.094,8.203
	c-0.234,0-0.516,0-0.797,0c0.094,0,0.141,0,0.188,0c0,0,0.281,0,0.984,0c2.672,0,8.016-8.625,12.797-9.141
	c4.266-0.422,7.969-4.875,9.75-4.875c4.781,0,11.344,1.969,17.062,5.766c2.438,1.594,7.828,2.812,12.094,4.594
	c3.562,1.406,6.375,2.062,7.781,2.906c1.922,1.078,14.391,3.188,19.734,4.219c3.75,0.703,5.578,0.984,6.328,1.172
	c3,0.938,3.562,4.125,4.406,8.719c0.469,2.25,0.938,4.781,1.688,7.078c0.375,1.219,0.75,1.172,1.078,1.172
	c0.75,0,1.828-0.375,2.766-0.703c1.031-0.375,2.062-0.75,3.094-0.75c3.281,0,11.156,4.922,13.688,8.531
	c1.312,1.219,8.484,3.141,15.516,4.219l4.594,0.75l-2.578,3.891c-0.375,0.609-3.75,5.672-5.344,7.547
	c-1.172,1.406-2.906,2.391-4.734,3.422c-1.312,0.75-2.672,1.547-3.891,2.484c-1.312,1.031-2.766,1.5-4.312,1.5
	c-3.281,0-6.188-2.156-9.281-4.5l-0.844-0.562c-2.531-1.875-6.375-3.094-8.578-3.375c0.141,0.281,0.328,0.656,0.562,1.172
	c0.516,0.469,2.203,1.453,3.516,2.109c2.391,1.359,5.438,3.047,7.734,5.156c4.172,3.656,4.312,7.594,4.453,11.156
	c0,0.938,0.094,1.875,0.188,2.906c0.094,1.078,0.094,2.672-0.938,3.891c-0.703,0.703-1.594,1.125-2.625,1.125
	c-1.594,0-2.812-0.891-4.5-2.109c-1.453-1.031-3.281-2.344-4.875-2.719c-0.234-0.094-0.422-0.094-0.609-0.094
	c-1.078,0-1.359,2.25-1.359,2.25l-0.281,3l-3-0.281c-0.047,0-6.562-0.562-9.469-0.562c-1.734,0-3.375,0-4.5-2.203
	c-0.234-0.422-0.75-1.359-3.094-3.422c-0.328-0.281-0.609-0.469-0.797-0.562c-0.562,0.75-1.734,2.438-3.891,2.438
	c-0.984,0-1.969-0.375-2.906-1.125c-0.844-0.703-1.688-1.406-2.484-2.109s-1.922-1.734-2.578-2.156
	c-0.422,0.141-0.844,0.188-1.266,0.188c-1.828,0.047-3.422-1.172-5.391-2.766c-0.984-0.75-2.812-2.156-3.469-2.25
	c-0.516,0.094-1.125,0.094-1.875,0.094c-1.734,0-4.125-0.234-6.656-0.469c-2.672-0.281-5.438-0.562-7.453-0.562
	c-1.406,0-1.828,0.188-1.828,0.188c-1.688,0.656-3.234,0.938-4.594,1.266c-1.312,0.281-2.438,0.516-3.422,0.984
	c-0.562,0.281-1.172,0.422-1.734,0.422c-0.844,0-2.438-0.281-3.656-2.25c-1.969-3.188-2.297-10.5-0.656-13.734
	c1.031-2.016,3.281-4.5,8.25-4.5c1.969,0,4.219,0.375,7.031,1.125c1.5,0.469,2.672,0.656,3.469,0.656c0.75,0,0.75,0,1.594-1.688
	l0.188-0.469c1.5-2.906,3.375-6.562,10.266-9.281c-0.516-0.234-0.984-0.469-1.359-0.656c-0.375-0.234-0.703-0.469-1.031-0.656
	c-0.281-0.188-0.656-0.422-0.938-0.609c-1.781,3.984-5.391,14.062-5.531,14.25L347.25,192h-1.359c-0.188,0-4.359-5.766-10.078-6.375
	c-1.219-0.141-4.969-3.375-5.484-6.469c-0.516-3,2.531-6.328,5.484-7.781c1.078-0.656,2.531-4.828,2.391-6.094l-0.422-0.656
	c-1.406-1.031-1.781-1.406-2.625-1.406c-0.609,0-1.406,0-2.391,0.281c-0.703,0.188-1.312,0.234-1.922,0.234
	c-2.156,0-3.281-1.078-3.938-2.297c-0.938,0.844-2.484-7.922-4.969-7.922c-0.844,0-1.5-9.516-1.594-9.516h-0.094
	c-0.047,0-3,8.953-5.625,8.953c-1.781,0-2.344,4.922-2.344,4.922c-1.406,0.656-2.344,3.562-3.047,3.984
	c2.297,1.031,5.812,3.938,7.172,8.766c0.562,1.969,0.375,4.406-0.562,6.047c-1.969,3.375-6.375,4.922-8.719,5.578
	c-0.328,0.047-0.562,0.234-0.656,0.281c-1.078,0.422-4.266,1.734-6.188,2.531c0.516,0.562,1.078,1.266,1.688,1.922
	c1.922,2.297,3.75,3.094,6.562,4.219c2.062,0.797,4.641,1.875,7.641,3.797c4.641,2.906,4.172,6.469,3.797,7.828
	c-1.219,4.172-6.75,6.797-10.031,6.797c-4.594,0-6.047-8.109-7.031-10.547c-0.375-0.844-0.703-7.078-1.172-7.078
	c-0.094,0-0.281,0-0.609,0c-1.641,0-4.266,5.438-5.625,6.094c-1.5,0.938-7.594,6.891-11.719,6.891c-1.828,0-5.625,1.078-6.797-1.922
	c-1.125-2.859,1.547-4.969,2.953-6.234c-0.328-0.234-0.656-0.188-0.938-0.375c-0.469-0.328-1.031-0.609-1.594-1.031
	c-0.422,2.625-0.797,5.297-0.797,6.234c0,3-2.203,3.844-3.328,3.844c-1.219,0-2.062-0.516-3-1.125
	c-1.312-0.844-3.328-2.156-6.469-2.156c-0.562,0-1.125,0-1.734,0.094c-4.219,0.562-5.109,1.594-7.875,4.453
	c-1.922,2.016-4.547,4.781-9.234,8.297c-3.375,2.531-6.891,5.156-7.219,6c0,0.188,0.188,0.938,0.281,1.5
	c0.281,1.031,0.562,2.344,0.797,4.125c0.422,3.281,0.234,5.578,0.141,7.125c-0.047,0.188-0.047,0.469-0.094,0.703
	c0.141,0.047,0.281,0.047,0.469,0.141c4.031,1.031,5.156,5.156,5.906,7.875c0.094,0.469,0.281,1.031,0.469,1.5
	c0.281-0.094,0.656-0.188,1.031-0.328c1.359-0.516,3-1.078,5.156-1.078c2.531,0,5.25,0.844,8.25,2.625
	c6.891,4.125,10.125,5.156,18.562,6.938c2.953,0.656,5.531,0.938,7.781,0.938c3.422,0,6-0.703,8.438-1.359
	c0.656-0.141,1.312-0.234,1.969-0.234c5.906,0,10.922,6.656,10.922,12.094c0,1.172,0.328,1.828,0.891,2.906
	c0.328,0.609,0.703,1.312,1.031,2.156c0.234-0.375,0.469-0.75,0.703-1.125l3.562-6l1.922,6.703c2.531,9,1.125,11.953-0.094,13.125
	c0.141,0.328,0.375,0.797,0.609,1.078c0.375-0.094,0.75-0.094,1.172-0.094c0.844,0,1.688,0.094,2.438,0.234
	c0.703,0.141,1.312,0.234,1.875,0.234c0.797,0,1.312-0.188,1.781-0.703c0.75-0.984-0.656-5.859-1.172-7.734
	c-0.656-2.25-1.266-4.266-1.266-5.906c0-1.172-0.562-2.062-1.781-3.656c-0.844-1.219-1.828-2.531-2.578-4.312
	c-1.031-2.391-0.234-4.125,0.281-4.969c0.984-1.406,6.422-2.25,8.391-2.25c2.625,0,10.406,1.594,10.406,3.984
	c0,0.047,0,0.094,0,0.094c0-0.328-0.375-2.25,0.891-3.328c1.828-1.5,0.469-4.125,0.609-5.438
	c-2.344-3.562-7.406-8.859-10.031-10.219c-1.594-0.844-5.016-2.391-4.688-5.25c0.328-2.719,2.719-3.562,6.141-4.453
	c-0.516-1.547-1.359-3.984-0.797-7.359c0.188-1.219,0.281-2.344,0.422-3.375c0.703-5.203,1.359-10.125,6.094-10.125
	c0.609,0,2.062-0.188,3.656-0.375c3.328-0.375,7.828-0.938,12.328-0.938c1.312,0,2.578,0,3.703,0.094
	c5.156,0.422,8.766,3.094,11.578,5.156c1.875,1.406,3.469,2.578,4.969,2.766c10.359,1.172,15.469,3.141,17.203,6.422
	c1.828,3.656-1.688,6.094-3.609,7.453c-0.656,0.469-1.828,1.266-2.203,1.828c0,0,0.047,0.047,0.094,0.094
	c1.547,2.109,2.906,2.297,5.203,2.625c1.453,0.188,3.141,0.422,4.875,1.312c0.562,0.281,1.078,0.375,1.594,0.375
	c1.922,0,4.312-2.109,6.844-6c3.891-6.188,6.562-8.531,9.422-8.531c1.172,0,2.203,0.375,3.141,1.078
	c1.078,0.891,3.281,3.609,9.234,11.484c2.156,2.812,4.172-1.828,5.109-0.75c2.906,3.469,5.25,8.062,6,8.062c0.281,0,0.75,0,1.453,0
	c1.734,0,3.797,7.125,5.438,6.844c1.219-0.094,2.109,3.469,2.766,3.469c3.656,0,12.375,9.75,13.641,14.297
	c0.562,1.969,1.078,3.703,7.641,5.484c3.047,0.844,4.266,3,4.781,4.312c1.312,3.281-0.984,7.125-2.812,9.984
	c-0.609,0.984-1.219,2.109-1.5,2.719c-0.938,2.25-1.734,3.75-2.531,5.25c-0.375,0.562-0.656,1.172-1.031,1.828
	c0.188,0.094,0.328,0.234,0.469,0.375c0.75,0.469,1.359,1.031,1.875,1.5c1.125,1.031,1.5,1.312,2.109,1.312
	c0.328,0,0.703-0.094,1.172-0.234c1.312-0.375,2.438-0.609,3.562-0.609c5.25,0,7.125,4.5,7.734,6
	c0.891,2.062,2.016,4.031,3.047,5.906c0.75,1.219,1.406,2.344,1.969,3.562c1.312,2.531,1.312,6,0,8.156
	c-0.797,1.312-2.062,2.062-3.469,2.062c-0.984,0-2.438-0.422-3.75-2.344c0-0.094-0.562-0.422-2.109-0.422
	c-0.938,0-1.922,0.141-2.531,0.234c-1.172,1.219-2.953,2.625-4.875,2.625c-1.406,0-2.672-0.75-3.422-2.062
	c-0.656-1.172-1.406-1.781-2.203-1.781c-0.281,0-0.562,8.438-0.891,8.531c-1.969,0.656-3.75,9-4.969,9c-0.797,0-1.594,0-2.344,0
	s-1.5-8.438-2.25-8.438c-0.844,0-1.594-4.125-2.25-4.031c-0.516,0.047-1.031-1.969-1.5-1.969c-2.766,0-5.062-2.438-5.906-4.594
	c-0.891-2.156-0.188-5.203,1.828-7.078c0.516-0.469,1.266-2.953,1.734-4.406c1.312-3.797,2.906-8.672,6.797-11.438
	c1.734-1.219,2.203-2.672,1.969-3.469c-0.047-0.234-0.141-0.234-0.234-0.234c-0.656,0-1.781,1.688-2.531,2.719
	c-0.844,1.312-1.781,2.719-3.188,3.516c-0.75,0.422-1.688,0.656-2.812,0.656c-1.031,0-2.156-0.188-3.375-0.375
	s-2.531-0.422-3.656-0.422s-1.875,0.188-2.344,0.562c-1.266,1.078-2.672,1.969-3.938,2.812c-0.141,0.094-0.328,0.234-0.516,0.375
	c0.516,0.844,0.609,1.781,0.516,2.531c-0.75,4.125-9.094,7.594-12.047,7.594c-1.078,0-2.109-0.375-2.953-1.125
	c0.75,1.969,0.656,3.703,0.375,4.875c-0.375,1.5-1.125,2.672-1.875,3.562c0.469,0.656,0.938,1.312,1.312,1.734
	c0.047-0.047,0.094-0.094,0.141-0.141c0.75-0.75,1.828-1.828,3.375-2.906c0.984-0.656,1.922-0.984,2.906-0.984
	c4.078,0,4.312,4.641,4.406,7.172c0.047,0.75,0.094,1.875,0.188,2.344c0.281,0,0.891-0.188,1.453-1.031l0.188-0.281
	c1.922-2.812,3.562-5.297,6.328-5.297c0.891,0,2.203,0.281,3.422,1.734c1.781,2.109,3.234,6,5.109,11.156
	c0.516,1.406,0.422,2.906-0.328,4.219c-1.875,3.188-7.031,4.406-12.656,5.438c-0.656,0.094-1.547,0.281-1.875,0.375
	c-0.609,0.188-1.969,0.562-3.656,0.938c-2.859,0.75-8.156,2.156-9.281,2.531c-0.328,0.188-1.031,0.75-1.594,1.219
	c-2.719,2.156-12.984,5.062-16.922,5.062c-6.094,0-13.359-7.312-13.359-11.719v-0.141c0,0.234,6.047,0.516,5.953,0.703
	c-0.938,3.188-1.359,3.422-4.547,3.562c-1.125,0.094-0.703,0.188-1.641,0.281c-2.438,0.469-6.422,3.75-6.422,6.75
	c0,1.5,2.016,3.75,3.328,5.531c1.922,2.625,4.359,5.672,2.531,8.578c-1.266,2.016-4.031,2.906-9.234,2.906
	c-4.031,0-8.766-0.609-11.156-1.406c-0.234-0.047-0.516-0.141-0.797-0.141c-1.031,0-1.875,0.422-2.391,0.75
	c0.984,2.062,0.984,4.453-0.047,6.328c-1.078,1.922-2.953,3-5.203,3c-0.375,0-0.75-0.047-1.125-0.094
	c-0.094,0.469-0.047,1.359,0.469,2.297c0.938,1.969,0.656,4.312-0.797,6.703s-4.266,4.922-7.031,4.922
	c-0.703,0-1.359-0.188-1.922-0.469c1.172,3,3.469,6.609,4.875,8.812c1.219,1.969,1.125,3.609,0.75,4.688
	c-0.984,3.047-4.453,4.453-8.156,5.906c-2.016,0.844-4.312,1.781-5.25,2.672c-1.031,1.078-2.719,3.234-4.5,5.578
	c-4.219,5.438-9,11.625-13.078,13.594c-2.391,1.078-4.781,3.891-5.672,6.516c-0.375,1.125-0.234,1.734-0.188,1.781
	c2.062,2.438,3.938,8.297,6.094,15.703c0.656,2.25,1.219,4.125,1.594,5.25c1.453,3.938,0.609,12.656-2.438,16.969
	c-1.781,2.531-3.75,3.281-5.156,3.281c-0.234,0-0.469,0-0.75,0c-4.359,0-5.297-4.688-5.859-6.984
	c-0.516-2.109-0.797-2.953-1.547-3.234c-6.094-2.438-8.812-14.203-9.891-21.516c-0.141,0.094-0.328,0.188-0.469,0.375
	c-0.938,0.703-2.016,1.078-3.141,1.078c-3.609,0-5.953-3.844-7.688-6.656c-0.141-0.281-0.281-0.516-0.469-0.75
	c-0.75,0.188-1.875-6.141-2.766-5.812c-2.812,1.031-6.281-4.5-9.75-4.5c-0.469,0-0.891,0-1.359,0c-0.844,0-1.688,6.562-2.484,6.562
	c-1.922,0-3.047,3.656-3.562,3.844c-0.281,3.656-2.438,8.766-6.328,8.766c-1.547,0-3.188,0.281-4.969-0.891
	c-4.875-3.094-5.344-10.641-10.688-10.641c-0.984,0-1.969-7.641-2.906-7.641c-0.844,0-1.688,0-2.438,0
	c-2.531,0-3.469,8.156-3.797,8.297c-1.641,3.328-7.734,13.031-11.953,14.484c-1.688,0.562-4.172,4.594-5.344,6
	c0.562,0.562,1.172,2.297,1.594,3.422c1.828,4.219,1.125,11.344-0.609,15.422c-1.922,4.547-1.078,14.016-0.328,20.578
	c0.844,6.938,5.719,11.719,10.875,16.688l1.078,1.125c2.344,2.25,4.547,4.406,5.766,4.406c0.516,0,1.547-0.328,3.562-2.016
	c2.672-2.344,5.109-3.469,7.453-3.469c1.875,0,3.234,0.75,4.125,1.266c0.609-0.703,1.453-2.203,0.797-4.453
	c-0.938-3.562-0.328-7.219,1.688-9.938c1.781-2.297,4.359-3.656,7.125-3.656c0.375,0,0.797,0.047,1.219,0.094
	c0.375,0.094,0.75,0.094,1.219,0.094c1.781,0,3.891-0.375,5.953-0.703c2.109-0.328,4.125-0.703,5.953-0.703
	c0.656,0,1.266,0.047,1.781,0.141c2.438,0.422,4.406,2.625,5.438,6.141c1.359,4.922,0.75,12.094-3.938,16.031
	c-2.578,2.25-2.625,5.109-2.438,9.562c0.094,2.109,0.234,4.266-0.188,6.375c-0.188,1.219-0.562,2.25-0.984,3.094
	c2.391,0.188,3.516-6.422,4.547-5.766c0.469,0.234,0.75-6.516,1.734-6.516c0.047,0,0.141,0,0.234,0c0.938,0,2.438,1.219,3.891,0.375
	c1.734-1.031,3.516-0.375,5.672-0.375c0.281,0,0.516,0,0.797,0c4.125,0,8.766,9.75,10.922,12.656
	c1.922,2.719,4.031,9.094,2.906,12.609c-1.547,4.922-2.906,14.203-2.438,21.328c0.328,5.062,1.266,7.078,2.156,8.391
	c0.375,0.656,0.844,1.641,1.219,2.484c0.609,1.5,2.812,4.406,4.594,4.406c0.328,0,0.656,0,0.984-0.188
	c1.078-0.562,2.109-1.031,3.094-1.547c2.719-1.312,5.766-2.812,6.562-3.984c0.797-1.219,2.109-1.969,3.703-1.969
	c3.656,0,9.797-3.562,11.531-0.656c0.422,0.797,0.609-5.531,0.656-5.531c0.188,0,0.375,0,0.656,0c0.516,0,1.031,7.594,1.406,7.359
	c1.969-1.172,3.281,0.609,5.438-2.859c0.375-0.656,0.797,0.609,1.219-0.141c3.328-5.156,8.953-9.141,12.609-9.984
	c0.516-0.188,1.828-0.75,2.766-1.5c3-2.344,6.328-4.688,9.844-4.688c0.609,0,1.219,0.141,1.828,0.328
	c1.922,0.562,2.859,1.922,3.234,2.812c1.125,2.625-0.531,5.344-1.891,8.062c-0.656,1.172-1.703,2.719-1.703,3.516v0.047
	c3-6.281,9.203-10.172,13.141-10.172c3,0,4.508,3,5.914,6.234c0.375,0.797,0.941,1.969,1.41,2.812
	c2.016-1.547,4.822-2.391,7.541-2.391c4.125,0,6.994,1.875,8.994,4.875c0,0,0,0,0,0.047c1-3.609,5.75-5.953,10.438-5.953
	c2.766,0,5.219,0.75,7.281,2.203c2.297,1.641,3.43,2.953,4.133,4.078c0.562-0.844,1.105-1.969,1.48-2.719
	c1.312-2.438,2.146-4.031,3.787-4.734c0.422-0.141,0.792-0.234,1.214-0.234c1.266,0,2.294,0.656,2.951,1.781
	c1.547,2.906-0.658,11.812-3.47,16.922l0.937-0.234l2.344,2.719c0.281,0,0.656-0.094,1.031-0.141
	c0.75-0.141,1.688-0.234,2.625-0.234c3.281,0,4.969,1.688,5.812,3.188c0.656,1.125,1.5,1.969,2.625,3.094
	c1.828,1.828,4.172,4.125,6.234,8.625c0.422,0.938,0.703,1.266,0.844,1.406c0.516-0.094,1.641-0.656,2.484-1.125
	c1.641-0.844,3.656-1.875,6.094-2.391c0.562-0.094,1.219-0.141,1.781-0.141c7.547,0,16.312,9.141,22.312,16.875
	c3.094,3.938,4.5,7.359,5.531,9.984c0.469,1.031,1.031,2.672,1.312,2.672h0.047c5.953,0,8.109,7.266,8.109,12.141
	c0,1.312-0.75,2.648-1.922,3.914c2.953,0.047,5.578,1.559,6.891,3.996c0.281,0.562,0.656,1.318,0.844,2.303
	c0.75-0.516,1.594-0.794,2.531-0.794c0.656,0,1.172,0.142,1.594,0.282c0.375,0.094,0.609,0.095,0.938,0.095
	c3.656,0,11.062,1.97,14.391,5.063c1.266,1.219,4.125,3,6.891,4.781c2.156,1.359,4.359,2.766,6.188,4.125
	c1.219,0.844,2.625,1.312,4.312,1.312c1.969,0,3.844-0.609,5.062-1.125c0.703-0.234,1.5-0.375,2.297-0.375
	c4.875,0,13.078,5.062,16.266,10.078c1.547,2.438,5.25,3.562,8.531,4.547c1.734,0.516,3.328,1.031,4.641,1.688
	c4.734,2.344,10.828,10.688,11.391,17.531c0.328,3.75-1.312,8.812-3.328,14.438H816v-24c0-25.688,8.484-48.75,22.219-67.172
	c-1.266-0.516-2.812-0.562-3.75-1.734c-1.828-2.109-2.672-4.547-3.469-6.891c-1.031-3.094-2.062-6.047-5.297-8.391
	c-3.047-2.25-7.172-2.719-10.078-2.719c-3.422,0-6,0.656-6.75,0.984c-0.469,0.328-1.594,1.781-2.438,2.859
	c-3.141,3.938-7.5,9.328-13.406,10.312c-1.828,0.328-3.656,0.469-5.578,0.469c-2.484,0-4.828-0.281-7.125-0.469
	c-2.297-0.281-4.688-0.562-7.266-0.562c-2.719,0-10.875,0-11.484,2.531c-0.422,1.922-1.641,6.984-6.141,6.984
	c-1.828,0-3.75-0.984-6-3c-4.641-4.266-13.594-13.734-13.969-14.109l-0.328-0.281l-0.188-0.422
	c-0.328-0.703-8.672-17.016-11.297-24.422c-1.125-3.328-4.219-4.688-10.031-6.938c-3-1.125-6.328-2.438-9.844-4.406
	c-8.625-4.781-7.594-10.781-6.891-15.188c0.234-1.594,0.516-3.188,0.281-4.5c-0.422-2.438-1.734-4.219-2.672-5.438
	c-1.031-1.312-2.156-2.812-1.453-4.781c0.234-0.609,0.844-1.734,2.484-2.25c0.281-0.375,0.656-1.312,0.984-2.156
	c0.891-2.203,2.297-5.531,5.203-9.984c4.125-6.188,2.438-12.891,1.219-17.766c-0.234-0.891-0.469-1.688-0.609-2.438
	c-0.188-0.891-0.609-2.062-1.078-3.328c-1.688-4.641-4.266-11.578,0.469-18.891c2.344-3.656,4.5-10.406,6.328-16.406
	c2.109-6.75,3.938-12.562,6.328-15.469c3.516-4.125,11.344-7.875,17.672-10.875c1.969-0.938,3.797-1.828,5.203-2.531
	c1.594-0.938,1.875-2.719,2.016-7.125c0.141-3.188,0.234-7.078,1.641-11.25c2.812-8.297,7.688-14.719,11.531-15.281
	c0.656-0.469,2.297-1.875,3.609-3c2.438-2.156,5.484-4.781,8.672-6.891c-0.75-1.031-1.5-2.297-2.297-3.75s-1.734-3.047-2.484-3.938
	c-0.094-0.141-0.562-0.516-2.25-0.516c-1.031,0-2.062,0.141-3.141,0.281c-0.938,0.094-1.828,0.188-2.672,0.188
	c-0.656,0-1.219-0.094-1.781-0.234c-2.203-0.656-3.562-2.859-5.156-5.484c-0.891-1.312-1.875-2.906-2.719-3.703
	c-1.734-1.641-2.719-4.125-2.672-6.984c0.047-2.953,1.031-5.625,2.766-7.219c1.406-1.172,2.812-3.094,1.641-7.219
	c-1.359-4.922-3.562-19.875,4.172-23.531c1.969-0.938,4.641-1.312,8.344-1.312c3.188,0,6.703,0.281,9.844,0.562
	c2.531,0.281,4.969,0.469,6.75,0.469c1.875,0,3.938,0.188,6.188,0.422c2.156,0.234,4.359,0.422,6.281,0.422
	c2.344,0,3.141-0.375,3.328-0.469c2.25-4.828,3.234-10.219,2.766-15.281c-0.281-3-8.156-7.594-15-8.812
	c-6.469-1.219-7.031-4.453-6.938-5.812c0.047-1.5,1.031-4.969,8.719-5.625c3.188-0.281,4.312-0.984,5.906-2.016
	c1.453-0.938,3.281-2.109,6.656-2.766c2.531-0.516,5.062-1.125,7.5-1.688c3.469-0.844,6.75-1.641,9.609-2.016
	c1.406-0.188,2.016-1.078,2.016-6.141c0-4.969,7.594-6.938,14.391-7.688c2.016-2.156,7.312-7.875,10.734-10.875
	c2.531-2.25,6-3.422,10.312-3.422c1.688,0,3.234,0.141,4.688,0.422c-0.375-0.562-0.797-1.031-1.125-1.5
	c-3.609-5.344,0.281-15.047,0.75-16.125c0.844-1.969,2.625-3.375,4.734-4.359c-0.703,0.047-1.453,0.094-2.25,0.094
	c-3.234,0-6.609-0.609-9.141-1.688c-4.5-1.969-7.594-6.984-8.906-10.969c-0.844-2.625-1.031-4.734-0.422-6.141
	c-0.047-1.125-1.078-4.312-1.641-6c-0.984-3-1.594-4.969-1.594-6.375c0-4.453,13.359-22.781,24.047-25.406
	c9.141-2.25,20.391-8.062,26.766-13.781c3.938-3.656,6.609-7.781,8.531-10.781c1.312-2.062,2.25-3.469,3.281-4.406
	c0.234-0.234,1.031-0.938,6.797-4.219l1.734-1.031l1.594,1.219c11.016,8.625,21.844,17.859,32.25,27.375l0.844,0.844l0.094,1.125
	c0,0.188,0.094,0.469,0.141,0.703c0.469,2.344,1.359,6.562-3.234,12.609c0.141-0.094,0.281-0.141,0.375-0.188
	c2.484-1.359,5.625-3.281,8.672-5.344l2.016-1.312l1.734,1.688c8.297,8.109,16.547,16.594,24.328,25.312l4.078,4.5l-6.047,0.469
	c-2.719,0.234-6.188,7.5-9.281,7.5c-1.547,0-2.812,6.844-3.938,6.844c-0.188,0-0.422,0-0.656,0c-2.297,0-5.062-5.766-7.781-4.5
	c-1.922,0.844-3.891-1.734-5.812-1.266c-0.516,0.141-1.078-1.547-1.594-1.547c-4.594,0-6.516-5.578-8.016-9.328
	c-0.609-1.453-1.172-3.469-1.828-4.312c-2.156-3.094-3-7.172-2.203-10.594c0.141-0.75,0.422-1.641,0.797-2.438
	c-3.984,3.141-7.312,3.562-10.125,3.891c-2.625,0.328-4.5,0.562-6.984,3.094c-1.641,1.641-2.25,2.578-2.484,3.047
	c0.75,0.469,2.531,1.078,3.938,1.547c0.656,0.234,1.359,0.469,2.062,0.75c3.328,1.219,4.5,3.375,4.969,4.969
	c1.125,4.219-2.156,8.906-4.219,11.297c-0.281,0.375-0.75,0.891-1.359,1.453c-4.453,4.594-6.516,7.734-6.188,9.375
	c1.172,5.625-3.703,1.266-6.75,2.766L900.891,240h-0.328c-0.75,0-19.125,13.312-22.781,13.875c-0.469,0.094-0.844,4.359-1.312,4.359
	c-1.922,0-3.609,1.266-4.734-0.188c-1.5-2.016-1.828-4.031-0.984-7.172c0.328-1.125-1.125-4.5-2.062-6.797
	c-0.891-2.484-1.875-4.781-2.344-7.078c-1.359,1.219-2.906,3.469-3.047,4.453c-0.234,1.688-1.219,3.141-2.859,4.125
	c1.125-0.141,2.156-0.188,3.047-0.188c1.547,0,2.766,0.234,3.797,0.703c3.516,1.688,2.953,5.812,2.531,9.141
	c-0.281,1.734-0.516,3.562-0.375,5.109c0.281,2.719,2.156,15.562,3.141,16.594L875.484,288h6.422c4.266,0,5.344-10.969,7.641-12
	c0.891-0.375,2.016-6.094,3.516-6.656c3.094-1.078,5.812-3.938,7.781-4.078c1.031-0.047,2.25-1.453,2.625-1.734
	c1.312-0.75,3.141-1.781,5.438-1.781c2.484,0,1.594,0.141,7.406,2.438c0.375,0.141-4.312-0.094-4.312-0.047c0-0.703,0-1.547,0-2.203
	c0-2.062,4.875-4.406,5.531-6.469c1.312-4.125,7.312-14.906,14.719-14.906c0.281,0,1.828,0,2.109,0.094
	c2.062,0.188,4.453-0.656,6.094-0.094c1.453,0.469,3.516-0.562,4.641-0.562c0.188,0,0.328,0,0.469,0c-0.844,0-2.109,0-2.906-0.469
	c-2.719-1.781-4.688-2.25-4.688-4.594c0-4.219,5.156-4.125,15.469-4.688c1.875-0.094,3.844,0,5.719-0.141
	c3.516-0.234,6.375-0.234,8.906-0.234c3.375-0.094,6-0.094,8.016-0.609l1.828-0.328l1.172,1.359
	c37.828,44.109,67.969,93.609,89.578,147.234c22.312,55.359,35.016,113.812,37.781,173.766l0.094,2.016l-1.875,0.844
	c-6.844,3.188-14.344,7.594-15.656,8.531c-2.719,1.922-13.547,9.891-19.828,9.891c-1.453,0-2.672,3.422-3.703,3.422h-0.094
	c0.656,0,1.125-1.312,1.219-0.562c0.188,1.312,0.047,0.562-0.094,2.062c-0.188,1.641-0.469,2.906,0.234,3.703
	c0.328,0.422,1.125,0.141,2.25,0.188c0.422,0.094,0.797-0.141,1.219-0.141c5.531,0,10.547-2.859,13.5-4.453
	c0.703-0.375,1.312-0.797,1.734-1.031c2.766-1.266,11.25-5.062,17.766-6.797l2.203-1.031l-1.406,4.125c0,1.312,0,2.625,0,3.938
	c0,9.422,0,19.078,0,28.688v0.703l0.656,0.609c-0.75,1.406-1.078,2.812-1.969,4.219c-3.234,5.438-7.875,13.594-8.109,15.844
	c-0.609,6.844-10.125,17.531-17.062,19.031c-2.625,0.562-8.578,7.312-18.047,20.156c-0.656,0.938-1.219,1.688-1.688,2.344
	c-1.359,1.781-2.906,4.312-4.641,6.938c-0.469,0.703-0.656,0.938-1.078,1.594l73.312,73.031C1142.953,693.422,1152,635.391,1152,576
	c0-77.812-15.234-153.188-45.281-224.25c-28.969-68.578-70.5-130.172-123.422-183.094C930.375,115.781,868.781,74.25,800.203,45.234
	C729.188,15.188,653.766,0,576,0S422.812,15.188,351.797,45.234c-68.578,29.016-130.172,70.547-183.094,123.422
	C115.781,221.578,74.25,283.172,45.281,351.75C15.234,422.812,0,498.188,0,576c0,77.719,15.234,153.188,45.281,224.156
	c28.969,68.625,70.5,130.219,123.422,183.094c52.922,52.922,114.516,94.453,183.094,123.469C422.812,1136.719,498.234,1152,576,1152
	s153.188-15.281,224.203-45.281c1.922-0.797,3.75-1.875,5.672-2.719H528z M358.734,99.469c1.078-2.953,5.109-3.469,13.5-3.469
	c0.422,0,0.984,0,0.984,0c2.344,0,9.281-3.328,10.312-4.922C383.953,86.25,387.938,81,394.031,81c0.844,0,1.688-0.094,2.531,0.094
	c0.281,0.094,0.516,0,0.75,0c2.25,0,2.531-4.031,2.531-4.219l0.141-1.969l1.875-0.703C457.734,54.844,516.328,45,576,45
	c22.5,0,45.188,1.406,67.406,4.219l1.688,0.188l0.938,2.25c1.922,4.406,3.75,8.531,7.266,9.469c0.703,0.188,1.359,0.281,2.016,0.281
	c3.141,0,5.625-2.391,9.656-6.656l1.922-2.016l1.547,0.281c8.062,1.406,16.266,3.047,24.281,4.828l4.359,0.984l-2.531,3.703
	c-2.203,3.141-5.438,5.625-8.859,6.75c-5.016,1.734-14.766,12.422-18.938,16.969c-1.312,1.406-2.25,2.438-2.766,3
	c-2.766,2.672-5.109,3.141-3.656,7.172c0.75,2.156,1.172-0.422,1.641-0.422c0.188,0,0.281,0,0.469,0s0.375,0,0.562,0
	c0.844,0,1.969,2.672,3.141,3.281c1.547,0.891,2.016,3.375,2.109,4.125c0.375,2.062-1.031,4.406-2.391,6
	c-0.797,0.938-1.688,2.297-2.297,3.422c-0.75,1.5-1.969,5.625-1.5,15.656c0.094,1.641-0.375,3.047-1.312,4.031
	c-0.656,0.656-1.781,1.5-3.703,1.5c-2.156,0-4.734,6.234-7.688,5.109c-2.766-1.078-5.953,4.875-8.062,4.875
	c-0.141,0-0.328,0-0.516,0c-0.891,0-1.031-6.75-1.125-6.562c-0.797,1.406,0,1.406,1.219,4.172c0.516,1.219,0.984,0.797,1.406,2.109
	c0.516,1.406,1.172,2.484,1.641,3.094c1.312,1.734,2.109,4.688,1.031,7.781c-0.984,2.906-3.375-3.469-6.75-2.578
	c-0.984,0.234-1.969-8.016-2.906-8.016c-0.328,0-0.703,0-1.031,0c0.656,0,0.328,10.734,0.047,11.25
	c-0.844,2.016-3.188,6.984-7.406,6.984c-1.219,0-2.531,1.922-3.516,1.828c-0.891,0.094-3.609,2.344-5.578,3.281
	c-3.844,1.828-8.531,4.547-13.219,5.484c-2.438,0.469-5.062,0.984-8.062,0.984c-2.906,0-5.719,9.141-7.969,8.953
	c-1.594-0.094-3,9.234-4.031,9.234c-0.234,0-0.469,0-0.609,0c-1.219,0-3.469-5.016-6.703,1.219
	c-0.562,1.219-1.031-2.578-1.359-2.016c-1.266,2.062-3.984,0.047-6.516,0.047c-2.344,0-5.203-1.453-7.734-1.734
	c-1.922-0.188-3.797-0.984-4.875-0.984c-1.031,0-2.484,0.656-4.172,1.781c-2.391,1.594-5.344,3.469-9.375,4.172
	c-1.125,0.234-1.5,0.516-1.5,0.516c-0.188,0.375,0.234,1.922,0.469,2.859c0.281,1.031,0.562,2.203,0.656,3.422
	c0.281,3.375-0.844,5.344-1.828,6.469c-1.266,1.312-2.953,1.844-4.922,1.844c-0.938,0-1.969,0.406-3-0.594h-0.047
	c-0.047,1-2.484,1.109-2.531,1.531c0,0.422-2.484,0.969-2.484,1.344c0,0.703,0,1.453,0,2.25c0,3.422,2.25,8.062-1.594,11.812
	c-3.469,3.328-4.594,5.344-9.094,5.344c-0.516,0-0.562,0-1.172-0.094c-4.453-0.375-5.625-4.875-6.422-7.781
	c-2.719,1.547-5.016,2.719-7.219,2.719c-2.062,0-3.656-1.031-4.406-2.906c-0.844-2.062-9.328-8.859-12.797-10.5
	c-3.609-1.688-5.859-6.469-7.641-10.312c-0.469-0.844-0.844-1.688-1.172-2.25c-0.703-1.266-0.797-2.625-0.328-3.844
	c-2.578-1.031-5.344-2.438-6.469-4.266c-1.312-2.109-5.672-12.375-6.047-15.891c-0.328-2.812,1.734-5.719,3.562-8.297
	c0.141-0.141,0.234-0.328,0.422-0.516c-0.984-0.188-2.156-0.328-3.188-0.328c-0.938,0-2.812-5.672-4.266-8.109
	c-1.359-2.297-2.109-14.906-1.641-14.906h-0.094c-1.125,0-2.25,4.828-3,3.891c-1.078-1.453-1.406-1.172-2.25-8.25
	c-0.562-5.297-1.359-11.203-2.672-13.641c-1.359-2.531-6.141-3.609-9.984-4.969c-2.156-0.844-4.266-10.453-5.812-11.391
	C432.469,108.328,424.547,96,414.516,96c-0.047,0-0.094,0-0.141,0c-0.844,0-2.438,9.375-4.031,9.656
	c-2.438,0.375-5.25,5.438-7.734,5.438c-1.828,0-3.328,2.016-4.453,1.547s-2.016-0.047-2.719-0.984
	c-0.375,0.891-0.75,2.25-1.125,2.766c-1.688,2.625-4.734,4.594-7.828,4.594c-1.266,0-2.438-0.141-3.469-0.656
	c-1.688-0.797-3.047-2.672-4.734-5.016c-1.547-2.25-3.938-11.109-5.672-11.531c-1.266-0.328-2.297-5.812-3.281-5.812h-0.891
	c-2.297,0-4.781,5.625-7.688,3.188C358.031,96.844,358.312,100.547,358.734,99.469z"/>
<path d="M626.391,151.594c-0.047-0.75-0.094-1.5-0.047-2.297c-0.562-1.266-4.031-3.328-6.797-4.641
	c0.281,2.156,0.984,4.781,1.781,5.344C623.25,150.047,624.938,150.656,626.391,151.594z"/>
<path d="M1059.281,557.109c-0.844-3.234-1.5-7.078-2.25-11.484c-0.141-1.031-0.281-2.062-0.469-3.094
	c-1.5-8.812-3.469-13.5-4.922-16.875c-1.172-2.859-9.891-12.188-12.047-14.109c-3.188-2.766-8.25-18.609-8.719-24.422
	c-0.094-1.5-0.516-1.734-1.922-2.625c-1.828-1.125-4.5-2.766-5.203-7.5c-0.562-3.562-2.719-8.109-4.594-12.141
	c-0.984-2.109-1.875,5.719-2.531,4.078c-0.891,0.516-2.016,11.062-3.375,11.062c-0.281,0-0.562,0-0.844,0s-0.609,0-0.938,0
	c0.188,0,0.328-9.188,0.469-8.812c1.688,3.562,3.281,2.859,4.969,7.219c2.016,5.203,4.125,8.062,6.281,12.609
	c2.391,4.922,2.25,10.359,2.156,16.828c-0.094,4.969-0.234,9.938,1.219,11.859c1.359,1.828,3.844,3.469,6.516,5.531
	c4.453,3.375,9.469,7.125,11.297,12.281c2.25,6.375,7.406,12.422,8.953,13.312C1054.875,551.344,1057.078,553.875,1059.281,557.109z
	"/>
<path d="M889.688,345.375c2.531,4.969,8.062,8.203,12.047,10.219c3.234,1.641,10.406,7.266,12.984,9.375
	c-0.094-0.375-0.188-0.703-0.281-1.031c-0.703-2.484-2.719-4.031-5.203-5.953c-1.688-1.266-3.422-2.672-4.969-4.453
	c-1.547-1.828-4.828-4.406-8.016-6.938c-3.75-3-7.641-6.094-9.938-8.812c-2.344-2.719-5.156-4.312-6.516-4.547
	c-0.047,0.141-0.047,0.234-0.047,0.422c-0.188,1.688,0.844,2.625,3.656,4.828C885.469,340.125,888.094,342.188,889.688,345.375z"/>
<path d="M797.578,389.766c-2.391,2.766-4.922,5.578-8.719,6.047c-1.266,0.141-2.672,0.469-4.125,0.844
	c-2.391,0.516-4.828,1.031-6.938,1.031c-1.172,0-2.203-0.141-3.047-0.469c-0.516,0.844-1.125,2.156-1.5,2.906
	c-0.188,0.469-0.375,0.844-0.562,1.219c2.109,0.047,4.219-8.812,6.047-8.531c1.453,0.141,2.766-8.812,3.609-8.812
	c0.094,0,0.188,0,0.281,0c1.078,0,2.906,7.781,5.625,6.562c3.141-1.312,6.656,0.375,9.094-0.844
	c3.188-1.688,19.688-5.719,22.922-5.719c0.234,0,0.797,0,1.641,0c1.922,0,5.578,1.5,9.609,1.5c15.562,0,18.328-0.141,18.703-0.328
	c1.688-0.844,4.969-1.453,8.812-1.453c8.344,0,14.531,4.781,17.016,12.75c1.594,5.203,1.594,8.625-0.047,10.875
	c-1.781,2.625-4.875,2.719-7.125,2.766c-1.031,0.047-2.297,0.141-2.812,0.422c0.281,0.75,1.5,2.062,2.25,2.344
	c1.734,0.141,3.375,1.359,6.375,3.797c1.641,1.266,5.062,3.984,6.188,4.078c4.031,0,12.094,3.797,13.594,4.594l0.422,0.188
	l0.328,0.281c3.75,3.422,9.234,7.078,11.344,7.078c2.391,0,4.781,1.359,7.266,2.812c2.109,1.219,4.453,2.578,6.141,2.578
	c0.562,0,1.125-0.094,1.875-0.938c1.688-2.062,3.141-5.062,4.594-8.062c2.578-5.344,5.016-10.406,9.703-10.406
	c0.422,0,0.891,0.047,1.359,0.188c2.344,0.516,4.547,1.594,6.844,2.719c3.234,1.594,6.562,3.234,9.938,3.234
	c1.312,0,2.953-0.047,4.688-0.141c2.016-0.047,4.125-0.094,6.188-0.094c6.234,0,10.781,0.562,12.656,3.375
	c0.562,0.844,0.844,1.781,0.75,2.672c2.156-0.797,4.359-1.266,6.375-1.734c1.406-0.281,2.719-0.562,3.938-0.938
	c0.703-0.188,1.406-0.281,2.156-0.281c3.234,0,5.625,2.062,7.453,4.828l4.266-0.797c-0.047-0.094-0.094-0.234-0.188-0.281
	c0,0,0.188,0.094,0.469,0.094c0.844,0,1.125-0.094,1.125-0.094c0.188-0.188,0.469-0.891,0.75-1.406
	c0.656-1.5,1.734-3.844,4.078-6.562c3.469-4.125,5.766-12.75,6.422-24.375c0.094-0.562,0.094-1.031,0.094-1.406
	c-0.422,0.141-0.844-7.359-1.219-7.219c-0.75,0.328-1.688-6.656-2.672-6.656h-0.234c-4.828,0-9.094,10.312-11.906,10.312
	c-0.703,0-1.312,3.797-1.875,3.609c-0.281-0.047-0.656-6-1.125-6.141c-1.922-0.656-5.859-7.781-7.922-7.781
	c-0.047,0-0.047,0-0.141,0c-1.078,0-2.766,9.188-5.016,9.188c-3.422,0-9.281,2.672-11.578-0.703
	c-0.609-0.938-4.031-0.844-6.094-1.922c-4.219-2.297-6.656-2.766-7.547-4.828c-0.609-1.453-0.703-3.422-0.797-8.109
	c-0.094-3.422-0.234-9.469-1.031-11.297c-0.844,0.281-2.438,1.594-4.641,3.656c-1.312,1.266-3.141,2.297-4.969,3.188
	c-0.141,0.094-0.328,0.188-0.516,0.281c3.094,2.344,7.5,6.047,6.938,11.203c-0.516,4.875-3.938,7.125-6.469,8.812
	c-0.844,0.516-1.594,1.031-2.156,1.5c-0.281,0.281-0.562,0.609-0.984,0.984c-6.328,6.141-10.359,9.469-13.547,9.469
	c-1.594,0-2.953-0.844-3.656-2.203c-0.938-1.828-1.406-5.531-2.297-13.453c-0.422-3.938-1.078-9.891-1.641-11.203
	c-0.234-0.375-0.562-0.844-0.984-1.453c-1.266-1.828-3-4.453-4.547-7.266l-1.969,0.844c-0.328,0.188-3.469,1.5-6.984,1.594
	c0.234,1.594,0.797,3.891,1.172,5.438c0.938,3.703,1.688,6.891,1.406,9.141c-0.375,3.047-2.484,4.078-4.219,4.078
	c-3.844,0-8.391-5.625-9.375-10.219c-0.891-4.312-3.75-9.188-5.156-10.5c-1.125-0.891-7.406-3.469-10.734-4.781
	c-3.422-1.406-5.391-2.25-6.328-2.766c-1.875-1.172-11.906-8.484-13.172-15.375c-0.469-2.297-3.609-2.953-5.203-2.953
	c-0.703,0-1.125,0.094-1.125,0.094c-0.375,0.281-1.312,0.938-2.25,1.641c-4.922,3.656-9.281,6.703-12.656,6.703
	c-2.438,0-5.25-1.031-8.156-2.062c-1.922-0.656-3.891-1.312-5.391-1.594c-0.797,0.938-1.547,4.406-2.016,6.375
	c-0.281,1.406-0.656,2.953-1.031,4.266c-1.453,4.453-5.438,4.828-8.062,5.109c-2.109,0.188-3.469,0.375-4.312,1.406
	c-1.078,1.219-2.297,2.438-3.469,3.562c-1.125,1.172-4.688,4.688-4.312,5.438c0.281,0.75,0.656,1.266,1.031,1.781
	c0.656,0.938,1.594,2.297,1.266,4.125c-0.375,1.781-1.781,3.047-3.938,4.453C800.344,386.625,798.938,388.219,797.578,389.766z"/>
<path d="M273.75,167.812c1.594-2.953,4.688-3.844,6.844-4.5c0.656-0.188,1.219-0.375,1.688-0.562
	c0.375-0.562,0.703-1.969,0.891-3.516c-1.828-0.328-4.5-0.703-7.359-0.703c-0.891,0-1.781,0-2.578,0.094
	c-1.172,0.094-2.203,0.188-3.094,0.188c-0.609,0-1.219-0.047-1.781-0.094c0.797,0.562,1.641,1.219,2.438,1.875
	C273.188,162.656,273.844,165.375,273.75,167.812z"/>
<path d="M490.031,659.859c2.25-0.516,3.141-0.984,3.656-1.641c-1.781,0.844-3.469,1.5-4.734,1.828
	C489.281,660,489.656,659.953,490.031,659.859z"/>
<path d="M289.547,184.312c0.141,0.188,0.234,0.188,0.422,0.188c0.094,0,0.234,0,0.375-0.047
	C290.062,184.406,289.781,184.406,289.547,184.312z"/>
<path d="M112.125,433.406c-0.562,0.469-1.219,1.125-1.266,1.781c-0.047,1.312,1.922,3.562,3.844,5.438
	c-0.328-1.031-0.609-2.062-0.891-3.047c-0.375-1.312-0.938-3.328-1.453-4.359C112.312,433.266,112.219,433.312,112.125,433.406z"/>
<path d="M390.562,307.688c2.672-0.75,3.094-0.844,6.656-3c3.422-1.969,6.375-3,9.047-3c2.297,0,5.578,0.797,8.25,4.312
	c-0.328-1.219-0.422-2.672-0.422-4.312l-0.375,0.469l-2.203-1.453c-1.547-0.984-4.641-2.578-6.609-2.578
	c-0.234,0-0.656,0-0.75,0.188c-2.344,2.719-6.562,3.328-10.641,3.938c-2.766,0.375-6.234,0.891-7.312,1.969
	c-1.125,1.125-2.156,3.375-2.953,5.719c1.125-0.375,2.438-0.844,3.891-1.266S389.719,307.922,390.562,307.688z"/>
<path d="M450.844,900.75c-0.094-0.422-0.281-0.844-0.375-1.312c-0.047,0.328-0.094,0.562-0.094,0.75
	C450.516,900.375,450.656,900.562,450.844,900.75z"/>
<path d="M1152,911.25l-223.031,223.781c-9.281,9.375-16.969,6.188-16.969-7.031v-120.375H624V816h288V696
	c0-13.219,7.688-16.312,16.969-7.031L1152,911.25z"/>
</svg>
