<?xml version="1.0" encoding="utf-8"?>
<!-- Generator: Adobe Illustrator 16.0.1, SVG Export Plug-In . SVG Version: 6.00 Build 0)  -->
<!DOCTYPE svg PUBLIC "-//W3C//DTD SVG 1.1//EN" "http://www.w3.org/Graphics/SVG/1.1/DTD/svg11.dtd">
<svg version="1.1" id="Layer_1" xmlns="http://www.w3.org/2000/svg" xmlns:xlink="http://www.w3.org/1999/xlink" x="0px" y="0px"
	 width="1152px" height="1152px" viewBox="0 0 1152 1152" enable-background="new 0 0 1152 1152" xml:space="preserve">
<path d="M998.682,670.637c-0.367-0.677-0.931-2.547-0.812-6.284c0.122-3.801,0.852-6.783,1.197-7.467
	c0.307-0.365,2.199-1.154,4.589-1.154c1.023,0,1.676,0.153,1.99,0.267c0.176,0.887-0.021,3.408-1.732,7.226
	C1002.061,667.36,999.777,669.969,998.682,670.637z"/>
<path d="M576,1152c-77.761,0-153.194-15.229-224.205-45.264c-68.589-29.011-130.189-70.543-183.089-123.443
	c-52.9-52.899-94.432-114.499-123.443-183.089C15.229,729.194,0,653.761,0,576s15.229-153.194,45.264-224.205
	c29.011-68.589,70.543-130.189,123.443-183.089s114.5-94.432,183.089-123.443C422.806,15.229,498.239,0,576,0
	s153.194,15.229,224.204,45.264c68.59,29.011,130.189,70.543,183.089,123.443c52.9,52.9,94.433,114.5,123.443,183.089
	C1136.771,422.806,1152,498.239,1152,576s-15.229,153.194-45.264,224.204c-29.011,68.59-70.543,130.189-123.443,183.089
	c-52.899,52.9-114.499,94.433-183.089,123.443C729.194,1136.771,653.761,1152,576,1152z M370.737,1052.196
	c0.523,0.166,1.892,0.817,2.907,1.3c3.352,1.594,7.523,3.578,10.746,3.578c4.714,0,13.309-2.605,14.98-3.277
	c0.238-0.076,1.59-0.371,2.677-0.607c8.319-1.813,11.485-2.831,12.674-4.933c0.583-1.019,0.619-2.247,0.091-3.273
	c-1.079-2.098-3.442-2.338-7.731-2.773c-2.454-0.25-5.507-0.561-7.231-1.239c-3.917-1.559-11.332-9.978-12.061-12.587
	c-0.975-3.386-0.527-8.785,1.356-10.059c2.743-1.853,7.656-6.396,12.453-10.889c0.992-0.93,1.781-1.669,2.23-2.072
	c2.362-2.101,5.13-9.086,5.012-12.66c-0.063-1.911-0.889-2.943-1.571-3.474c-1.438-1.149-3.611-1.216-6.363-1.298
	c-0.934-0.028-2.352-0.071-3.216-0.2c0.185-1.276,2.423-3.272,3.493-4.161c3.543-2.93,5.939-6.569,7.689-9.227
	c0.816-1.239,1.66-2.521,2.137-2.941c2.187-1.944,6.722-5.976,8.54-10.94c0.575-1.596,1.01-3.425-0.092-4.993
	c-0.404-0.575-1.348-1.54-3.127-1.54c-0.762,0-1.487,0.174-2.254,0.357c-0.582,0.14-1.181,0.283-1.702,0.323
	c-0.58-0.582-1.283-2.434-1.649-4.345c0.966,0.296,2.088,0.691,3.024,1.022c2.04,0.72,4.352,1.536,6.466,1.982
	c0.862,0.183,1.613,0.271,2.293,0.271c2.168,0,3.358-0.944,3.975-1.737c1.509-1.94,0.896-4.351,0.355-6.478
	c-0.181-0.712-0.369-1.448-0.457-2.078c-0.228-1.623,0.126-3.47,0.514-4.452c1.222,0.448,2.888,0.652,5.224,0.652
	c6.042,0,15.379-1.44,17.31-2.028c2.197-0.616,4.057-3.295,8.87-11.574c0.996-1.713,1.936-3.33,2.489-4.138
	c3.761-5.586,2.248-9.74-0.495-11.854c2.016,0.607,4.059,1.073,6.085,1.073c4.258,0,7.994-2.006,12.112-6.503
	c0.877-0.954,1.732-1.87,2.553-2.75c5.812-6.229,10.012-10.73,10.55-15.948c0.551-5.21,2.093-8.48,3.376-9.407
	c0.347-0.243,0.754-0.415,1.27-0.633c2.697-1.137,4.964-2.529,7.538-9.098c1.03-2.646,1.517-2.758,2.402-2.962
	c2.081-0.48,4.273-1.299,6.196-5.474c1.821-3.946,0.768-7.979-0.161-11.539c-1.17-4.487-1.279-6.085,0.323-7.342
	c5.911-4.674,16.436-10.623,16.542-10.683c0.072-0.042,2.993-1.721,8.634-3.373c2.008-0.598,4.143-0.84,6.208-1.075
	c4.125-0.469,8.389-0.953,10.446-4.576c0.92-1.657,1.777-3.884,2.685-6.241c1.262-3.279,2.692-6.996,4.326-9.249
	c2.456-3.413,7.857-11.837,5.444-16.94c-0.23-1.388,1.129-6.237,1.947-9.153c1.359-4.848,2.177-7.927,1.879-10.059
	c-0.128-0.882-0.39-1.804-0.692-2.872c-1.168-4.12-2.623-9.246,2.331-13.928c7.294-6.896,16.65-18.672,17.331-22.953
	c0.111-0.649,0.942-2.838,1.675-4.769c2.696-7.102,4.896-13.342,4.504-17.797c-0.545-6.838-6.685-15.213-11.402-17.571
	c-1.301-0.666-2.917-1.153-4.629-1.669c-3.274-0.987-6.986-2.105-8.529-4.553c-3.186-4.992-11.398-10.063-16.282-10.063
	c-0.829,0-1.59,0.135-2.263,0.4c-1.246,0.49-3.145,1.076-5.093,1.076c-1.707,0-3.121-0.434-4.322-1.327
	c-1.822-1.335-4.05-2.743-6.205-4.104c-2.745-1.735-5.583-3.529-6.87-4.741c-3.292-3.091-10.708-5.062-14.369-5.062
	c-0.353,0-0.608-0.063-0.961-0.152c-0.423-0.106-0.95-0.238-1.59-0.238c-0.958,0-1.782,0.271-2.554,0.793
	c-0.185-0.965-0.51-1.736-0.82-2.3c-1.34-2.438-3.906-3.916-6.893-3.985c1.191-1.273,1.94-2.595,1.94-3.886
	c0-4.855-2.167-12.079-8.135-12.079c-0.003,0-0.006,0.001-0.009,0.001c-0.341-0.393-0.875-1.707-1.308-2.775
	c-1.04-2.563-2.464-6.075-5.555-10.03c-6.027-7.696-14.787-16.868-22.307-16.868c-0.604,0-1.201,0.059-1.772,0.172
	c-2.448,0.482-4.478,1.54-6.109,2.391c-0.847,0.441-1.987,1.035-2.491,1.11c-0.128-0.124-0.434-0.481-0.844-1.368
	c-2.071-4.498-4.398-6.823-6.268-8.692c-1.094-1.093-1.959-1.957-2.578-3.055c-0.837-1.475-2.523-3.221-5.821-3.221
	c-0.954,0-1.854,0.138-2.647,0.26c-0.362,0.056-0.733,0.113-1.029,0.142l-2.332-2.741l-0.942,0.258
	c2.833-5.081,5.013-14.006,3.448-16.917c-0.601-1.118-1.693-1.785-2.92-1.785c-0.416,0-0.825,0.078-1.219,0.232
	c-1.658,0.672-2.509,2.299-3.798,4.761c-0.378,0.723-0.959,1.832-1.487,2.678c-0.723-1.108-1.873-2.414-4.195-4.055
	c-2.045-1.449-4.587-2.215-7.349-2.215c-4.714,0-9.731,2.347-10.613,5.951c-0.005-0.011-0.01-0.022-0.015-0.034
	c-1.28-3.013-4.633-4.879-8.754-4.879c-2.759,0-5.38,0.861-7.395,2.398c-0.467-0.845-0.991-2.016-1.355-2.829
	c-1.436-3.207-2.792-6.235-5.79-6.235c-3.938,0-10.002,3.894-12.964,10.188c0.003-0.024,0.007-0.05,0.01-0.074
	c0.109-0.783,0.874-2.271,1.489-3.466c1.377-2.677,2.801-5.445,1.699-8.013c-0.398-0.928-1.285-2.156-3.249-2.732
	c-0.576-0.171-1.195-0.259-1.83-0.259c-3.51,0-6.856,2.607-9.808,4.907c-0.965,0.752-2.28,1.776-2.785,1.987
	c-3.659,0.887-9.281,5.799-12.581,11.003c-0.458,0.724-0.881,1.405-1.281,2.049c-2.133,3.436-3.42,5.509-5.417,6.685
	c-0.378,0.226-0.873,0.347-1.403,0.347c-0.246,0-0.469-0.025-0.663-0.062c-0.028-0.611-0.211-1.317-0.666-2.096
	c-1.717-2.932-7.832-7.01-11.501-7.01c-1.589,0-2.947,0.694-3.723,1.905c-0.757,1.193-3.831,2.72-6.543,4.066
	c-1.009,0.502-2.052,1.02-3.095,1.568c-0.335,0.176-0.652,0.262-0.967,0.262c-1.834,0-3.995-2.776-4.639-4.265
	c-0.366-0.859-0.813-1.536-1.208-2.133c-0.891-1.346-1.811-2.736-2.138-7.794c-0.459-7.125,0.887-15.241,2.426-20.123
	c1.127-3.541-0.967-7.475-2.923-10.15c-2.107-2.881-6.774-7.758-10.905-7.758c-0.274,0-0.539,0.021-0.792,0.062
	c-2.127,0.38-3.925,1.464-5.663,2.512c-1.446,0.872-2.942,1.772-3.931,1.772c-0.072,0-0.145-0.005-0.217-0.017
	c-0.953-0.153-1.232-0.309-1.694-0.566c-1.081-0.602-2.156-1.089-4.564-1.253c0.404-0.887,0.771-1.934,0.999-3.152
	c0.389-2.078,0.287-4.23,0.189-6.312c-0.211-4.484-0.154-7.365,2.412-9.568c4.659-4,5.292-11.134,3.907-16.068
	c-0.981-3.498-2.941-5.732-5.376-6.131c-0.543-0.093-1.148-0.141-1.828-0.141c-1.813,0-3.82,0.338-5.945,0.697
	c-2.046,0.345-4.163,0.702-5.926,0.702c-0.466,0-0.891-0.025-1.263-0.076c-0.401-0.053-0.795-0.079-1.184-0.079
	c-2.779,0-5.375,1.323-7.124,3.63c-2.039,2.691-2.664,6.406-1.671,9.936c0.634,2.237-0.187,3.783-0.819,4.46
	c-0.897-0.544-2.262-1.26-4.132-1.26c-2.332,0-4.772,1.119-7.462,3.42c-2.014,1.737-3.043,2.1-3.553,2.1
	c-1.196,0-3.411-2.136-5.756-4.397l-1.054-1.019c-5.17-4.989-10.055-9.702-10.891-16.606c-0.787-6.552-1.61-15.79,0.31-20.309
	c1.719-4.052,2.429-10.761,0.644-14.977c-0.462-1.092-1.041-1.871-1.63-2.428c1.181-1.375,3.647-3.396,5.344-3.974
	c4.208-1.414,10.326-7.158,11.947-10.485c0.355-0.137,1.302-0.34,3.787-0.34c0.774,0,1.593,0.016,2.441,0.032
	c0.95,0.019,1.936,0.037,2.936,0.037c5.363,0,5.801,0,10.705,3.139c1.775,1.147,3.399,1.708,4.955,1.708
	c3.877,0,6.03-3.433,6.303-7.059c0.538-0.206,1.665-0.468,3.583-0.468c0.771,0,1.612,0.042,2.5,0.126
	c0.412,0.042,0.863,0.064,1.32,0.064c3.469,0,6.961-1.263,9.767-2.278c0.892-0.323,2.021-0.731,2.787-0.938
	c0.15,0.24,0.311,0.503,0.464,0.752c1.716,2.801,4.067,6.638,7.663,6.637c1.117,0,2.204-0.391,3.144-1.129
	c0.157-0.124,0.309-0.25,0.456-0.376c1.109,7.371,3.806,19.019,9.921,21.458c0.725,0.283,1.013,1.026,1.522,3.118
	c0.562,2.314,1.504,6.188,5.888,6.762c0.244,0.032,0.482,0.047,0.718,0.047c1.391,0,3.418-0.525,5.172-3.027
	c3.035-4.328,3.89-12.85,2.462-16.791c-0.414-1.146-0.973-3.035-1.619-5.221c-2.194-7.417-4.037-13.286-6.11-15.729
	c-0.041-0.08-0.155-0.659,0.218-1.789c0.864-2.622,3.291-5.426,5.645-6.523c4.105-1.955,8.882-8.146,13.096-13.608
	c1.774-2.3,3.451-4.473,4.513-5.547c0.909-0.918,3.215-1.845,5.25-2.662c3.676-1.476,7.148-2.87,8.139-5.937
	c0.343-1.059,0.495-2.728-0.726-4.66c-1.425-2.229-3.724-5.826-4.903-8.819c0.582,0.292,1.238,0.447,1.934,0.447
	c2.758-0.001,5.576-2.548,7.027-4.915c1.462-2.385,1.73-4.752,0.756-6.668c-0.478-0.942-0.532-1.845-0.467-2.321
	c0.379,0.057,0.759,0.087,1.128,0.087c2.271,0,4.175-1.092,5.223-2.996c1.032-1.874,1.044-4.268,0.082-6.315
	c0.501-0.343,1.412-0.745,2.413-0.745c0.301,0,0.58,0.041,0.807,0.118c2.359,0.805,7.185,1.414,11.219,1.414
	c5.163,0,8.028-0.9,9.293-2.917c1.857-2.906-0.356-5.929-2.309-8.595c-1.305-1.782-2.929-4-2.929-5.487
	c0-3.017,4.804-6.322,7.255-6.735c0.97-0.16,2.126-0.223,3.245-0.284c3.224-0.176,6.873-0.375,7.845-3.594
	c0.096-0.188,0.285-0.437,0.517-0.698c0.003,0.053,0.007,0.106,0.01,0.159c0.273,4.386,0.731,11.726,6.879,11.726
	c3.898,0,7.642-2.95,10.376-5.103c0.544-0.429,1.279-1.007,1.573-1.187c1.136-0.407,6.442-1.781,9.331-2.528
	c1.646-0.426,3.022-0.782,3.66-0.96c0.313-0.095,1.175-0.255,1.868-0.383c5.604-1.042,10.787-2.245,12.626-5.46
	c0.732-1.279,0.855-2.76,0.345-4.168c-1.879-5.211-3.347-9.066-5.114-11.201c-1.208-1.423-2.528-1.715-3.427-1.715
	c-2.74,0-4.401,2.451-6.324,5.289l-0.193,0.284c-0.554,0.827-1.163,1.047-1.439,1.049c-0.115-0.458-0.165-1.64-0.196-2.365
	c-0.106-2.501-0.306-7.157-4.404-7.157c-0.956,0-1.905,0.327-2.903,1c-1.566,1.068-2.617,2.114-3.385,2.878
	c-0.047,0.046-0.096,0.095-0.147,0.146c-0.383-0.427-0.833-1.042-1.271-1.732c0.75-0.884,1.479-2.068,1.827-3.558
	c0.277-1.187,0.372-2.877-0.37-4.878c0.826,0.718,1.867,1.108,2.974,1.108c2.942,0,11.317-3.434,12.012-7.561
	c0.132-0.785,0.026-1.728-0.478-2.565c0.185-0.123,0.366-0.241,0.536-0.353c1.242-0.815,2.65-1.738,3.894-2.795
	c0.451-0.38,1.218-0.568,2.335-0.568c1.159,0,2.449,0.206,3.697,0.404c1.203,0.191,2.338,0.373,3.38,0.373
	c1.12,0,2.039-0.216,2.809-0.66c1.383-0.824,2.307-2.206,3.2-3.542c0.684-1.024,1.829-2.737,2.49-2.737c0.078,0,0.166,0,0.25,0.262
	c0.247,0.776-0.268,2.165-1.982,3.378c-3.856,2.739-5.475,7.473-6.776,11.277c-0.5,1.462-1.255,3.671-1.745,4.137
	c-2.012,1.91-2.714,4.428-1.851,6.591c0.87,2.181,3.151,3.536,5.952,3.536c0.473,0,0.966-0.037,1.465-0.11
	c0.683-0.1,1.402-0.146,2.262-0.146c0.756,0,1.497,0.035,2.225,0.069c0.797,0.037,1.582,0.072,2.359,0.072
	c1.209,0,3.04-0.074,4.956-0.716c0.335-0.112,0.64-0.169,0.907-0.169c0.787,0,1.523,0.607,2.188,1.804
	c0.739,1.296,2.022,2.053,3.449,2.052c1.916,0,3.692-1.402,4.866-2.607c0.637-0.121,1.582-0.261,2.542-0.261
	c1.505,0,2.068,0.351,2.126,0.438c1.271,1.892,2.744,2.29,3.755,2.29c1.38,0,2.626-0.743,3.42-2.037
	c1.304-2.127,1.319-5.635,0.035-8.159c-0.606-1.191-1.263-2.339-1.959-3.554c-1.079-1.885-2.195-3.834-3.087-5.935
	c-0.608-1.456-2.48-5.938-7.737-5.938c-1.085,0-2.251,0.189-3.564,0.578c-0.45,0.131-0.846,0.2-1.165,0.2
	c-0.602,0-0.955-0.256-2.087-1.264c-0.533-0.475-1.138-1.014-1.879-1.539c-0.153-0.109-0.311-0.211-0.472-0.304
	c0.353-0.669,0.678-1.26,0.997-1.841c0.834-1.518,1.621-2.951,2.558-5.195c0.262-0.616,0.884-1.596,1.486-2.542
	c1.834-2.885,4.118-6.477,2.82-9.816c-0.496-1.277-1.724-2.97-4.756-3.788c-6.604-1.812-7.096-2.672-7.655-4.613
	c-1.277-4.543-9.956-12.497-13.65-12.497c-0.654,0-1.539,0.112-2.762,0.266c-1.657,0.209-3.718,0.47-5.443,0.47
	c-0.672,0-1.133-0.041-1.439-0.086c-0.784-3.662-3.119-11.907-6.036-15.334c-0.909-1.084-2.927-3.74-5.064-6.552
	c-5.987-7.879-8.166-10.645-9.268-11.494c-0.917-0.734-1.979-1.123-3.115-1.123c-2.891,0-5.542,2.401-9.457,8.562
	c-2.474,3.891-4.898,6.034-6.826,6.034c-0.513,0-1.039-0.139-1.609-0.425c-1.719-0.871-3.398-1.102-4.879-1.306
	c-2.264-0.312-3.63-0.5-5.183-2.598c-0.041-0.055-0.073-0.103-0.099-0.142c0.385-0.507,1.576-1.336,2.246-1.803
	c1.902-1.324,5.442-3.789,3.591-7.416c-1.718-3.335-6.866-5.261-17.219-6.451c-1.461-0.178-3.072-1.366-4.938-2.742
	c-2.867-2.115-6.434-4.747-11.598-5.152c-1.137-0.092-2.376-0.139-3.677-0.139c-4.522,0-9.057,0.553-12.368,0.957
	c-1.59,0.194-3.093,0.377-3.711,0.377c-4.724,0-5.384,4.921-6.083,10.132c-0.137,1.024-0.287,2.138-0.469,3.33
	c-0.525,3.376,0.149,5.829,0.653,7.398c-3.402,0.887-6.039,1.696-6.353,4.434c-0.33,2.867,2.616,4.409,4.198,5.237
	c2.621,1.383,6.743,6.708,9.103,10.257c-0.153,1.303-0.679,3.899-2.479,5.423c-1.275,1.081-3.567,3.024-4.632,3.331
	c-0.019-0.029-0.039-0.062-0.061-0.101c-1.35-2.399-3.966-3.959-6.657-3.959c-1.965,0-3.64,0.824-4.595,2.262
	c-0.542,0.816-1.301,2.545-0.29,4.952c0.747,1.767,1.737,3.111,2.61,4.296c1.174,1.595,1.787,2.481,1.787,3.655
	c0,1.649,0.568,3.639,1.227,5.943c0.527,1.843,1.926,6.739,1.196,7.698c-0.504,0.496-0.986,0.684-1.769,0.684
	c-0.564,0-1.206-0.099-1.885-0.203c-0.794-0.122-1.615-0.249-2.484-0.249c-0.398,0-0.773,0.026-1.134,0.081
	c-0.23-0.251-0.477-0.696-0.6-1.066c1.174-1.132,2.58-4.116,0.051-13.111l-1.886-6.708l-3.578,5.981
	c-0.23,0.386-0.471,0.775-0.715,1.158c-0.314-0.856-0.686-1.562-1.011-2.179c-0.565-1.073-0.907-1.72-0.907-2.88
	c0-5.457-5.022-12.122-10.884-12.122c-0.667,0-1.333,0.085-1.98,0.252c-2.483,0.66-5.03,1.338-8.426,1.338
	c-2.292,0-4.846-0.299-7.81-0.914c-8.411-1.769-11.673-2.832-18.58-6.936c-3.009-1.772-5.7-2.63-8.238-2.63
	c-2.119,0-3.794,0.589-5.14,1.063c-0.377,0.133-0.728,0.256-1.062,0.358c-0.159-0.476-0.324-1.08-0.45-1.542
	c-0.739-2.711-1.855-6.809-5.917-7.882c-0.172-0.045-0.315-0.086-0.433-0.123c0.015-0.227,0.037-0.481,0.056-0.71
	c0.128-1.522,0.323-3.822-0.114-7.104c-0.226-1.767-0.548-3.114-0.784-4.097c-0.143-0.598-0.321-1.341-0.301-1.557
	c0.328-0.786,3.84-3.43,7.237-5.986c4.682-3.504,7.295-6.265,9.203-8.281c2.745-2.9,3.67-3.877,7.895-4.459
	c0.598-0.084,1.176-0.127,1.732-0.127c3.124,0,5.146,1.323,6.483,2.198c0.921,0.602,1.791,1.171,2.955,1.171
	c1.161,0,3.355-0.793,3.355-3.796c0-0.964,0.364-3.565,0.816-6.221c0.556,0.451,1.106,0.846,1.599,1.2
	c0.262,0.188,0.589,0.423,0.878,0.646c-1.408,1.303-4.038,3.954-2.918,6.84c1.156,2.979,4.953,2.979,6.777,2.979
	c4.107,0,10.243-3.715,11.751-4.669c1.342-0.669,3.957-1.674,5.627-1.674c0.309,0,0.49,0.035,0.58,0.06
	c0.478,0.861,0.838,1.755,1.188,2.621c0.976,2.421,2.451,6.079,7.027,6.079c3.271,0,8.792-2.645,10-6.79
	c0.402-1.38,0.84-4.906-3.765-7.837c-2.995-1.922-5.58-2.96-7.656-3.794c-2.795-1.123-4.641-1.864-6.563-4.132
	c-0.609-0.72-1.161-1.37-1.691-1.934c1.938-0.764,5.133-2.024,6.189-2.457c0.083-0.026,0.346-0.092,0.667-0.178
	c2.37-0.637,6.782-1.823,8.711-5.221c0.925-1.63,1.124-3.521,0.573-5.471c-1.351-4.804-4.885-6.566-7.159-7.6
	c0.662-0.415,1.622-0.95,3.012-1.616c0.018-0.008,0.562-0.248,2.372-0.248c2.595,0,5.566,0.496,5.596,0.501l0.11,0.017
	c0.072,0.009,0.734,0.093,1.591,0.093c2.506,0,4.036-0.685,4.968-1.549c0.643,1.204,1.808,2.262,3.964,2.261
	c0.59,0,1.216-0.089,1.914-0.272c0.986-0.259,1.787-0.39,2.38-0.39c0.85,0,1.206,0.208,2.643,1.268l0.407,0.298
	c0.162,1.294-1.303,4.698-2.36,5.358c-2.995,1.425-6.017,3.301-5.508,6.299c0.526,3.102,4.236,3.506,5.455,3.639
	c5.758,0.625,9.917,0.632,10.091,0.632h1.392l0.898-1.063c0.157-0.185,3.797-4.513,5.523-8.485c0.317,0.182,0.673,0.412,0.932,0.579
	c0.359,0.232,0.713,0.458,1.053,0.655c0.386,0.23,0.86,0.45,1.377,0.673c-6.919,2.767-8.753,6.383-10.247,9.332l-0.234,0.462
	c-0.835,1.659-0.835,1.659-1.565,1.659c-0.794,0-1.963-0.21-3.475-0.626c-2.785-0.761-5.088-1.13-7.045-1.13
	c-4.926,0-7.196,2.452-8.233,4.509c-1.646,3.2-1.312,10.512,0.637,13.706c1.199,1.964,2.81,2.257,3.663,2.257
	c0.595,0,1.178-0.135,1.733-0.402c1.015-0.474,2.146-0.725,3.454-1.016c1.343-0.298,2.865-0.637,4.549-1.293
	c0.024-0.009,0.454-0.148,1.855-0.148c2.023,0,4.775,0.276,7.437,0.543c2.53,0.253,4.92,0.494,6.668,0.493
	c0.751,0,1.35-0.042,1.865-0.133c0.695,0.142,2.493,1.54,3.468,2.297c1.978,1.538,3.541,2.753,5.391,2.752
	c0.438,0,0.861-0.071,1.258-0.21c0.696,0.462,1.813,1.455,2.603,2.158c0.787,0.701,1.601,1.424,2.449,2.096
	c0.948,0.749,1.937,1.126,2.943,1.126c2.15,0,3.315-1.639,3.879-2.438c0.201,0.134,0.464,0.33,0.795,0.614
	c2.377,2.058,2.865,2.987,3.073,3.384c1.163,2.216,2.791,2.216,4.515,2.216c2.91,0,9.436,0.572,9.501,0.577l3.004,0.265l0.249-3.005
	c0,0,0.278-2.247,1.374-2.247c0.173,0,0.375,0.027,0.6,0.079c1.604,0.376,3.41,1.679,4.861,2.726
	c1.714,1.236,2.953,2.129,4.502,2.129c1.012,0,1.937-0.408,2.604-1.146c1.086-1.203,1.064-2.802,0.953-3.901
	c-0.107-1.002-0.144-1.972-0.18-2.909c-0.134-3.515-0.286-7.5-4.432-11.158c-2.341-2.085-5.346-3.76-7.761-5.107
	c-1.27-0.708-2.991-1.668-3.488-2.134c-0.267-0.492-0.449-0.882-0.574-1.187c2.225,0.272,6.028,1.507,8.57,3.374l0.824,0.612
	c3.1,2.31,6.028,4.491,9.288,4.491c1.576,0,3.026-0.513,4.312-1.524c1.225-0.959,2.594-1.731,3.917-2.479
	c1.829-1.031,3.556-2.006,4.741-3.415c1.601-1.883,4.974-6.982,5.353-7.557l2.569-3.896l-4.612-0.719
	c-7.021-1.095-14.213-3.063-15.495-4.235c-2.516-3.613-10.409-8.518-13.735-8.518c-1.026,0-2.022,0.354-3.078,0.729
	c-0.936,0.333-1.996,0.709-2.756,0.709c-0.33,0-0.672,0-1.092-1.233c-0.758-2.259-1.229-4.807-1.643-7.055
	c-0.846-4.583-1.457-7.895-4.421-8.803c-0.741-0.223-2.58-0.58-6.338-1.303c-5.333-1.026-17.823-3.43-19.725-4.481
	c-1.444-0.859-4.231-2.002-7.761-3.448c-4.304-1.764-9.659-3.96-12.131-5.573c-5.743-3.76-12.273-7.774-17.029-7.774
	c-1.82,0-5.519,0.392-9.801,0.846c-4.729,0.501-10.087,1.07-12.777,1.07c-0.716,0-0.956-0.042-0.965-0.044
	c-0.066-0.013-0.132-0.024-0.2-0.036c0.274,0.003,0.541,0.004,0.8,0.004c1.137,0,2.175-0.028,3.083-0.085
	c7.324-0.454,9.516-3.268,10.792-6.242c0.383-0.905,0.366-1.872-0.036-2.75c-0.573-1.252-1.824-2.368-6.069-3.74l-1.265-0.409
	l-1.152,0.662c-3.858,2.216-7.767,4.528-11.619,6.873l-8.348,5.082c0,0,10.212,0.499,10.434,0.508
	c-3.494,0.199-8.252,1.035-11.539,1.613c-0.727,0.127-1.369,0.241-1.891,0.327c-0.301,0.051-0.583,0.126-0.849,0.225l-0.315,0.116
	l-1.011,0.657l-0.261,0.288c-1.696,1.867-0.901,4.278-0.32,6.039c0.236,0.717,0.728,2.206,0.584,2.649c0,0,0,0,0,0
	c-0.017,0-0.279,0.226-1.106,0.422c-0.769,0.18-1.458,0.355-2.07,0.515c0.112-0.585,0.237-1.241,0.369-1.976l1.255-6.99
	l-5.886,3.973c-6.766,4.567-13.547,9.379-20.154,14.301l-3.149,2.346l3.091,2.421c1.484,1.163,2.845,2.097,4.295,2.784
	c-1.686,0.264-3.261,1.209-5.036,2.525c-0.477,0.352-0.914,0.685-1.31,0.987c-0.156,0.119-0.322,0.246-0.487,0.37
	c-0.095-0.209-0.202-0.454-0.323-0.739c-0.44-1.043-1.056-2.119-1.83-3.197l-1.819-2.534l-2.461,1.916
	c-41.21,32.078-77.41,69.934-107.596,112.515c-30.569,43.123-54.429,90.346-70.917,140.356l-0.895,2.713l2.666,1.026
	c2.319,0.892,4.397,1.345,6.178,1.345c0.447,0,0.884-0.029,1.299-0.084c0.127-0.016,0.276-0.026,0.423-0.026
	c2.282,0,4.68,3.043,8.278,10.503c1.366,2.843,2.767,6.392,4.123,9.825c3.641,9.222,5.685,14.091,8.762,15.319
	c2.13,0.818,4.253,2.913,4.435,3.787c-1.585,1.898-6.23,7.964-4.367,11.964c0.372,0.798,1.568,2.654,4.639,2.654
	c1.72,0,3.052-0.321,4.122-0.579c0.548-0.132,1.066-0.257,1.355-0.257c0.252,0,0.895,0.591,1.764,1.912
	c1.381,2.088,2.856,3.802,4.157,5.314c1.656,1.924,3.221,3.741,3.078,4.741c-0.832,5.95,5.567,7.964,7.873,8.651
	c0.344,0.363,0.945,1.156,1.401,1.758c2.045,2.699,4.846,6.395,8.659,6.395c1.189,0,2.965-0.38,4.674-2.189
	c1.367-1.433,2.043-3.204,1.945-5.11c-0.249-4.807-5.408-9.201-9.174-12.41c-0.866-0.737-1.613-1.374-2.083-1.837
	c-0.496-0.488-0.689-1.816-0.913-3.354c-0.511-3.509-1.211-8.315-6.34-13.081c-1.857-1.723-3.083-3.275-4.025-4.771
	c2.652,3.009,5.609,6.131,8.466,9.105l1.095,1.141c1.846,1.94,4.661,6.583,7.144,10.679c5.207,8.585,7.297,11.807,10.056,12.079
	c1.272,0.699,4.704,4.456,7.585,8.312c1.444,2.848,2.575,6.222,2.455,7.323c-2.528,4.493,2.437,14.999,6.646,17.847
	c1.511,1.021,3.769,1.565,6.627,2.252c6.411,1.542,11.745,3.138,12.078,7.047c0.015,0.168,2.174,16.678,11.418,16.678
	c2.672,0,5.565-0.573,8.118-1.078c1.847-0.366,3.591-0.71,4.643-0.71c0.001,0,0.171,0.219,0.263,0.338
	c1.951,2.55,4.898,6.404,8.684,6.403c1.799,0,3.447-0.908,4.639-2.556c0.452-0.622,0.853-1.198,1.219-1.725
	c2.005-2.88,2.168-3.115,4.576-3.115c2.091,0,3.388,1.592,5.332,4.189c0.506,0.677,1.03,1.377,1.593,2.046
	c4.432,5.216,10.664,11.419,15.243,11.419c0.305,0,0.606-0.025,0.897-0.073c0.004,0,0.009,0,0.013,0
	c0.875,0,2.333,0.807,3.506,1.456c1.761,0.975,3.582,1.983,5.542,1.983c1.086,0,2.113-0.322,2.968-0.931
	c0,0.001,0,0.001,0.001,0.001c0.008,0,0.055-0.01,0.146-0.01c1.18,0,3.324,1.342,4.475,2.063c0.3,0.188,0.577,0.361,0.826,0.51
	c1.276,0.764,4.826,4.277,4.411,10.189c-0.557,7.965,6.068,10.955,9.626,12.562c0.742,0.335,1.442,0.65,1.894,0.918
	c2.67,1.555,6.517,5.525,9.006,8.456c1.929,2.287,4.842,3.416,7.182,4.323c0.907,0.351,2.276,0.882,2.613,1.186
	c0.125,0.151,0.332,0.457,0.55,0.78c0.966,1.429,2.582,3.818,5.794,3.818c1.482-0.001,3.024-0.538,4.716-1.643
	c3.411-2.248,4.697-5.567,5.003-8.317c1.205,0.021,2.146,0.273,2.596,0.699c0.917,0.864,2.022,3.866,2.753,5.852
	c1.073,2.916,1.757,4.665,2.941,5.696c0.97,1.326,3.368,8.565,1.711,13.872c-0.924,3.027-1.356,5.979-1.703,8.35
	c-0.152,1.04-0.347,2.369-0.539,3.177c-1.773,0.627-3.721,2.311-6.561,4.85c-1.507,1.348-3.216,2.876-4.236,3.485
	c-3.818,2.28-9.908,13.399-9.114,17.96l0.134,0.798c0.481,2.855,1.948,11.547,1.143,14.876c-0.247,1.038-0.76,2.213-1.302,3.456
	c-1.469,3.366-3.297,7.556-2.01,13.16c1.026,4.468,4.722,7.033,7.982,9.297c2.387,1.657,4.641,3.222,4.775,4.851
	c0.325,3.741,2.651,9.053,5.113,14.677c1.849,4.224,3.761,8.591,4.183,11.06c0.465,2.772,1.662,5.52,2.929,8.428
	c1.745,4.006,3.549,8.147,3.549,12.627c0,11.79,20.218,17.101,20.422,17.148c0.741,0.227,2.746,1.965,4.072,3.114
	c1.981,1.719,4.031,3.495,6.055,4.513c2.86,1.463,5.535,4.51,7.933,9.048c1.916,3.628,1.786,9.274,1.73,11.686
	c-0.008,0.354-0.015,0.648-0.015,0.869c0,1.629-1.526,20.243-3.056,31.138c-0.824,5.833,0.122,11.367,0.881,15.814
	c0.43,2.518,1.019,5.965,0.57,6.785c-0.658,0.633-1.693,1.291-2.695,1.928c-2.037,1.295-4.346,2.764-4.744,5.378
	c-0.238,1.564,0.279,3.111,1.537,4.599c0.004,0.004,0.007,0.008,0.011,0.013c-0.311,0.436-1.095,1.116-1.546,1.509
	c-1.298,1.129-2.77,2.407-2.77,4.406c0,0.912,0.288,1.955,0.888,4.039c0.788,2.74,2.428,8.442,1.458,10.451
	c-1.289,2.661-2.38,5.961-3.342,8.873c-0.651,1.97-1.266,3.83-1.848,5.222c-0.335,0.793-0.842,1.677-1.38,2.613
	c-1.726,3.008-3.874,6.751-2.924,11.839c0.198,1.039,0.198,1.039-0.685,1.73c-1.297,1.016-3.469,2.717-3.469,6.807
	c0,3.892,1.862,5.497,2.976,6.456c0.759,0.654,0.963,0.831,0.662,2.803c-0.443,2.848-1.189,4.676-1.911,6.444
	c-0.849,2.08-1.727,4.231-1.727,7.333c0,3.417,1.063,7.417,1.84,10.338c0.311,1.17,0.698,2.626,0.726,3.058
	c-0.086,1.04-2.147,6.294-5.577,10.945l-1.048,1.403c-3.379,4.51-5.82,7.768-5.138,11.785c0.341,1.983,1.444,3.837,2.417,5.473
	c0.366,0.615,0.887,1.49,1.108,2.007c-0.202,0.387-0.564,1.029-0.849,1.534c-1.778,3.154-4.212,7.475-3.725,11.458
	c0.511,4.236,3.787,5.303,5.361,5.814c0.149,0.049,0.33,0.107,0.501,0.168c-0.254,0.293-0.566,0.619-0.794,0.855
	c-1.348,1.406-4.93,5.141-1.104,8.882c1.106,1.097,2.295,1.811,3.25,2.385c1.968,1.182,2.497,1.5,2.038,4.775
	c-1.04,7.393,4.148,10.794,6.642,12.429c0.445,0.291,1.054,0.69,1.22,0.859c0.195,0.23,0.417,0.5,0.66,0.797
	c2.023,2.466,4.738,5.775,8.019,6.254c0.041,0.138,0.09,0.278,0.147,0.423C368.188,1051.087,369.147,1052.091,370.737,1052.196z
	 M854.296,623.893c0.744,0.68,1.796,1.578,3.377,2.601c2.817,1.822,4.319,3.349,4.463,4.536c0.138,1.139-0.979,2.595-1.941,3.616
	c-3.711,3.958-3.988,8.954-4.256,13.786c-0.178,3.206-0.361,6.521-1.515,9.705c-3.298,9.087,2.223,11.781,6.254,13.749
	c1.167,0.569,2.374,1.158,3.521,1.897c2.592,1.662,6.006,12.39,8.045,18.799c2.034,6.393,3.253,10.104,4.639,12.018
	c0.874,1.184,0.702,5.08,0.564,8.21c-0.218,4.938-0.465,10.534,1.749,15.033c3.954,7.938,3.922,9.89,1.821,11.731
	c-3.808,3.366-10.269,11.08-10.864,25.015c-0.607,14.173,2.878,23.097,4.405,26.275c0.525,1.091,1.253,2.66,2.089,4.462
	c2.454,5.29,5.814,12.534,7.819,15.827c0.901,1.505,2.344,3.224,4.015,5.215c3.038,3.619,7.199,8.577,7.483,12.215
	c0.19,2.458-1.194,6.159-2.415,9.424c-1.829,4.889-3.556,9.505-1.271,12.73c0.795,1.14,1.552,2.63,2.354,4.208
	c1.593,3.137,3.398,6.692,6.634,10.119c3.259,3.4,4.998,10.908,5.395,13.515l0.043,0.286l0.098,0.274
	c0.012,0.033,1.395,4.016,1.873,10.141c0.485,6.368,0.943,12.389,7.638,16.334c3.488,2.055,6.242,3.012,8.668,3.012
	c2.548,0,4.711-1.029,6.43-3.06c2-2.363,11.273-7.366,16.889-7.366c0.244,0,0.482,0.01,0.713,0.03l0.729,0.067
	c2.376,0.218,5.07,0.465,7.914,0.465c7.034,0,12.435-1.619,16.509-4.949c5.016-4.138,11.412-12.741,16.083-19.022
	c1.79-2.408,3.337-4.488,4.317-5.653c0.548-0.638,1.23-1.391,1.974-2.211c4.74-5.232,10.64-11.745,9.459-17.314
	c-0.39-1.856-1.303-3.907-2.187-5.891c-0.782-1.757-2.219-4.983-2.021-6.043c1.274-0.725,4.012-1.518,6.66-2.284
	c6.659-1.929,12.41-3.595,12.96-7.837c0.746-5.046-4.666-22.977-4.722-23.147c-0.591-1.775,4.246-8.892,6.312-11.93
	c2.44-3.606,7.374-7.707,10.977-10.701c2.249-1.868,3.874-3.219,4.758-4.282c0.271-0.314,0.728-0.791,1.283-1.375
	c3.566-3.742,10.203-10.708,11.188-18.306c0.528-3.984,0.1-8.287-0.278-12.083c-0.341-3.432-0.729-7.32,0.002-8.825
	c3.188-6.605-0.55-11.854-4.627-16.116c-2.422-2.538-3.518-7.953-4.318-11.907c-0.539-2.667-0.936-4.623-1.701-5.938
	c-0.677-2.457,1.037-13.501,2.733-15.684c2.536-1.244,5.224-5.098,10.123-12.676c1.727-2.671,3.357-5.194,4.683-6.949
	c0.49-0.653,1.079-1.456,1.752-2.374c9.406-12.823,15.48-19.603,18.056-20.15c6.941-1.483,16.604-12.171,17.234-19.06
	c0.206-2.247,5.144-10.391,8.411-15.779c0.875-1.444,1.737-2.866,2.542-4.218l0.379-0.636l0.04-0.74
	c0.51-9.584,0.769-19.237,0.769-28.692c0-1.297-0.012-2.589-0.023-3.883l-0.039-4.168l-3.746,1.012
	c-6.492,1.754-15.001,5.515-17.731,6.815c-0.436,0.201-1.043,0.525-1.77,0.918c-2.975,1.606-7.955,4.293-13.487,4.293
	c-0.403,0-0.812-0.015-1.221-0.045c-1.131-0.083-1.931-0.345-2.259-0.738c-0.669-0.802-0.422-3.093-0.241-4.765
	c0.155-1.436,0.302-2.792,0.123-4.066c-0.104-0.74-0.562-1.996-1.26-3.535c0.049,0.023,0.098,0.046,0.146,0.068
	c1.013,0.441,2.211,0.65,3.688,0.65c6.259,0,17.129-3.907,19.817-5.825c1.343-0.948,8.846-5.373,15.688-8.542l1.828-0.847
	l-0.092-2.013c-2.744-59.948-15.444-118.401-37.75-173.734c-21.622-53.64-51.77-103.186-89.603-147.261l-1.197-1.395l-1.787,0.434
	c-2.05,0.498-4.673,0.547-7.994,0.609c-2.537,0.048-5.413,0.102-8.904,0.351c-1.902,0.133-3.861,0.236-5.755,0.336
	c-10.317,0.546-15.497,0.82-15.497,5.083c0,2.307,1.977,3.556,4.711,5.285c0.799,0.504,2.04,1.289,2.932,1.974
	c-0.157,0.025-0.321,0.037-0.495,0.037c-1.089,0-2.49-0.475-3.973-0.978c-1.614-0.548-3.443-1.168-5.479-1.412
	c-0.302-0.035-0.587-0.051-0.87-0.051c-7.374,0-10.816,10.798-12.112,14.863c-0.669,2.107-0.551,4.424-0.445,6.467
	c0.034,0.672,0.08,1.566,0.062,2.237c-0.21-0.063-0.468-0.151-0.778-0.274c-5.871-2.293-10.098-2.774-12.611-2.774
	c-2.277,0-4.096,0.389-5.405,1.157c-0.364,0.217-1.621,0.314-2.632,0.393c-1.974,0.153-4.677,0.363-7.809,1.478
	c-1.464,0.524-2.58,1.006-3.477,1.394c-2.326,1.005-3.388,1.464-7.673,1.464h-6.396l-2.917-0.522
	c-0.946-1.041-2.821-3.411-3.11-6.114c-0.156-1.541,0.09-3.357,0.328-5.115c0.449-3.325,1.01-7.462-2.513-9.139
	c-0.991-0.464-2.229-0.686-3.799-0.686c-0.89,0-1.921,0.076-3.012,0.237c1.607-0.989,2.591-2.354,2.821-4.029
	c0.144-1.002,1.694-3.092,3.057-4.365c0.493,2.34,1.446,4.86,2.374,7.314c0.883,2.334,2.36,6.24,2.063,7.324
	c-0.904,3.172-0.55,6.252,0.949,8.238c1.131,1.497,2.825,2.322,4.773,2.321c0.407,0,0.83-0.037,1.256-0.108
	c3.676-0.62,22.051-5.311,22.831-5.51l0.305-0.078l0.282-0.139c3.068-1.516,7.943-5.581,6.749-11.197
	c-0.349-1.625,1.729-4.76,6.176-9.327c0.593-0.61,1.062-1.091,1.395-1.486c2.031-2.377,5.298-7.034,4.175-11.312
	c-0.418-1.592-1.611-3.743-4.924-4.952c-0.728-0.264-1.432-0.505-2.105-0.736c-1.36-0.466-3.15-1.079-3.919-1.558
	c0.226-0.458,0.839-1.42,2.488-3.088c2.494-2.522,4.385-2.763,7.002-3.098c2.805-0.358,6.127-0.783,10.102-3.938
	c-0.387,0.808-0.637,1.583-0.797,2.273c-0.797,3.438,0.036,7.341,2.229,10.441c0.604,0.86,1.213,2.378,1.801,3.846
	c1.513,3.772,3.396,8.467,7.993,8.467c0.541,0,1.095-0.075,1.646-0.222c1.896-0.494,3.866-1.401,5.771-2.278
	c2.698-1.242,5.489-2.526,7.804-2.526c0.228,0,0.454,0.012,0.678,0.04c1.089,0.128,2.364,0.19,3.909,0.19
	c3.092,0,6.585-0.251,9.282-0.47l6.048-0.491l-4.062-4.507c-7.829-8.691-16.021-17.207-24.349-25.309l-1.74-1.694l-2.02,1.351
	c-3.012,2.014-6.169,3.947-8.661,5.304c-0.125,0.068-0.247,0.137-0.366,0.206c4.566-6.066,3.694-10.274,3.211-12.606
	c-0.056-0.271-0.113-0.51-0.133-0.722l-0.108-1.146l-0.847-0.78c-10.367-9.546-21.201-18.761-32.202-27.388l-1.592-1.248
	l-1.753,1.006c-5.789,3.323-6.559,4.006-6.812,4.23c-1.049,0.933-1.978,2.388-3.265,4.403c-1.936,3.031-4.586,7.183-8.574,10.809
	c-6.323,5.725-17.571,11.515-26.742,13.764c-10.675,2.673-24.017,20.958-24.025,25.443c0,1.406,0.603,3.327,1.585,6.345
	c0.562,1.724,1.58,4.85,1.649,5.993c-0.594,1.442-0.46,3.522,0.417,6.161c1.332,4.008,4.377,8.99,8.927,10.954
	c2.535,1.08,5.854,1.696,9.117,1.696c0.781,0,1.528-0.033,2.239-0.098c-2.114,0.999-3.903,2.421-4.72,4.352
	c-0.46,1.097-4.36,10.801-0.747,16.124c0.322,0.474,0.706,0.979,1.124,1.508c-1.456-0.248-3.04-0.414-4.669-0.414
	c-4.31,0-7.787,1.141-10.337,3.392c-3.418,3.031-8.743,8.728-10.732,10.88c-6.83,0.779-14.408,2.764-14.408,7.734
	c0,5.04-0.59,5.93-2,6.113c-2.84,0.389-6.115,1.168-9.582,1.993c-2.47,0.588-5.023,1.195-7.557,1.696
	c-3.353,0.651-5.181,1.839-6.649,2.794c-1.551,1.009-2.672,1.737-5.86,2.002c-7.704,0.668-8.691,4.159-8.759,5.629
	c-0.062,1.351,0.49,4.617,6.947,5.78c6.862,1.229,14.706,5.854,14.99,8.837c0.47,5.037-0.505,10.465-2.745,15.296
	c-0.204,0.116-1.011,0.462-3.369,0.462c-1.878,0-4.108-0.213-6.266-0.419c-2.225-0.213-4.326-0.414-6.191-0.414
	c-1.758,0-4.188-0.225-6.763-0.463c-3.114-0.288-6.645-0.615-9.815-0.615c-3.701,0-6.344,0.434-8.318,1.365
	c-7.763,3.656-5.565,18.596-4.185,23.542c1.161,4.112-0.266,6.009-1.638,7.204c-1.738,1.587-2.754,4.252-2.772,7.176
	c-0.018,2.883,0.938,5.377,2.694,7.022c0.849,0.795,1.812,2.349,2.663,3.719c1.598,2.575,2.977,4.798,5.211,5.466
	c0.539,0.152,1.097,0.22,1.75,0.22c0.817,0,1.728-0.104,2.69-0.213c1.042-0.118,2.119-0.241,3.114-0.241
	c1.73,0,2.189,0.383,2.289,0.501c0.758,0.895,1.661,2.513,2.457,3.94c0.8,1.432,1.526,2.733,2.312,3.747
	c-0.008,0.004-0.015,0.009-0.021,0.014c-3.198,2.094-6.232,4.742-8.671,6.87c-1.312,1.146-2.92,2.549-3.617,2.984
	c-3.844,0.628-8.676,7.007-11.496,15.328c-1.405,4.16-1.551,8.074-1.668,11.218c-0.166,4.456-0.385,6.224-2.04,7.117
	c-1.357,0.728-3.207,1.611-5.165,2.546c-6.308,3.012-14.157,6.761-17.652,10.883c-2.421,2.877-4.243,8.729-6.354,15.504
	c-1.856,5.962-3.961,12.719-6.326,16.352c-4.742,7.316-2.173,14.298-0.473,18.918c0.459,1.248,0.893,2.426,1.089,3.343
	c0.15,0.71,0.354,1.519,0.579,2.401c1.243,4.892,2.946,11.592-1.176,17.77c-2.926,4.431-4.304,7.796-5.216,10.024
	c-0.322,0.787-0.713,1.743-0.961,2.141c-1.661,0.494-2.294,1.617-2.524,2.263c-0.687,1.923,0.44,3.41,1.435,4.721
	c0.97,1.279,2.298,3.031,2.707,5.469c0.228,1.343-0.027,2.88-0.297,4.508c-0.726,4.376-1.718,10.369,6.927,15.194
	c3.493,1.952,6.847,3.259,9.805,4.411c5.803,2.262,8.885,3.597,10.062,6.938c2.621,7.41,10.923,23.714,11.274,24.404l0.198,0.388
	l0.3,0.315c0.38,0.399,9.352,9.836,14.009,14.103c2.232,2.05,4.14,3.006,6,3.006c4.473,0,5.674-5.056,6.126-6.959
	c0.615-2.547,8.777-2.547,11.46-2.547c2.602,0,4.986,0.264,7.293,0.519c2.27,0.25,4.616,0.51,7.107,0.51
	c1.933,0,3.766-0.155,5.604-0.473c5.913-0.976,10.235-6.394,13.392-10.35c0.834-1.046,1.969-2.468,2.442-2.828
	c0.732-0.312,3.316-0.953,6.742-0.953c2.905,0,7.012,0.467,10.078,2.693c3.263,2.374,4.255,5.292,5.306,8.382
	c0.799,2.35,1.625,4.779,3.425,6.899c1.798,2.144,4.245,3.284,7.067,3.284c4.936-0.001,9.395-3.401,11.613-5.428l0.133-0.123
	C853.609,624.521,853.974,624.184,854.296,623.893z M509.993,223.461c0.792,2.891,2.312,7.37,6.737,7.77
	c0.628,0.06,1.208,0.089,1.76,0.089c4.492,0,6.834-2.034,10.284-5.353c3.858-3.743,3.913-8.403,3.953-11.806
	c0.01-0.808,0.019-1.57,0.074-2.234c0.037-0.412,0.067-0.829,0.095-1.23c0.031-0.438,0.069-0.965,0.119-1.405
	c0.005,0.001,0.01,0.003,0.015,0.004c1.052,0.313,2.065,0.472,3.008,0.472c1.999,0,3.706-0.702,4.937-2.03
	c0.984-1.062,2.104-3.036,1.848-6.406c-0.091-1.233-0.399-2.454-0.671-3.531c-0.233-0.924-0.623-2.471-0.458-2.901c0,0,0,0,0,0
	c0.013,0,0.344-0.291,1.507-0.507c4.016-0.731,6.979-2.713,9.361-4.306c1.68-1.124,3.131-2.094,4.17-2.094
	c1.081,0,2.923,0.18,4.874,0.372c2.539,0.249,5.417,0.531,7.759,0.531c2.51,0,5.245-0.278,6.502-2.341
	c0.314-0.501,0.762-1.374,1.382-2.583c3.208-6.251,5.449-9.791,6.665-10.528c0.176-0.013,0.382-0.019,0.621-0.019
	c1.021,0,2.427,0.112,4.055,0.242c2.251,0.179,5.052,0.402,7.963,0.402c2.998,0,5.621-0.231,8.02-0.708
	c4.685-0.921,9.42-3.144,13.226-4.93c1.996-0.937,4.717-2.214,5.603-2.303c0.991,0.136,2.255,0.215,3.472,0.215
	c4.271,0,6.571-0.893,7.457-2.894c0.233-0.528,0.597-1.725-0.063-3.116c0.339,0.037,0.685,0.055,1.037,0.055
	c0.927,0,1.905-0.129,2.909-0.384c3.37-0.879,5.761-2.958,6.748-5.857c1.062-3.122,0.278-6.486-1.046-8.196
	c-0.459-0.597-1.128-2.56-1.616-3.993c-0.447-1.313-0.91-2.67-1.449-3.891c-1.213-2.728-1.997-6.373-1.215-7.759
	c0.085-0.15,0.261-0.461,1.174-0.576c0.151-0.019,0.318-0.027,0.489-0.027c2.106,0,5.265,1.205,8.052,2.267
	c2.971,1.133,5.536,2.111,7.694,2.111c1.919,0,3.072-0.791,3.702-1.455c0.943-0.996,1.378-2.342,1.29-4.001
	c-0.445-9.99,0.785-13.961,1.559-15.438c0.569-1.112,1.475-2.17,2.272-3.103c1.368-1.6,2.783-3.254,2.398-5.382
	c-0.123-0.685-0.563-1.964-2.12-2.827c-1.164-0.634-2.277-0.714-3.119-0.714c-0.196,0-0.395,0.005-0.594,0.01
	c-0.149,0.004-0.3,0.008-0.45,0.008c-0.504,0-0.901,0-1.666-2.126c-1.447-4.042,0.901-7.104,3.656-9.809
	c0.55-0.527,1.483-1.549,2.775-2.965c4.164-4.562,13.915-15.245,18.941-16.943c3.423-1.16,6.647-3.645,8.85-6.82l2.54-3.662
	l-4.348-0.976c-8.036-1.803-16.201-3.436-24.266-4.853l-1.583-0.278l-1.931,2.029c-4.045,4.267-6.486,6.681-9.623,6.681
	c-0.644,0-1.312-0.096-2.045-0.294c-3.519-0.941-5.327-5.1-7.241-9.503l-0.966-2.213l-1.69-0.214C621.185,46.425,598.513,45,576,45
	c-59.676,0-118.265,9.833-174.14,29.228l-1.877,0.651l-0.132,1.983c-0.011,0.171-0.305,4.188-2.554,4.188
	c-0.223,0-0.47-0.031-0.733-0.091c-0.855-0.196-1.718-0.296-2.561-0.296c-6.037,0-10.046,4.907-10.489,9.704
	c-0.987,1.619-7.92,3.929-10.289,4.253c0,0-0.583-0.006-0.994-0.006c-8.385,0-12.425,1.246-13.509,4.165
	c-0.402,1.083-0.673,3.247,2.027,5.572c2.917,2.508,5.39,2.718,7.673,2.718l0.917-0.003c0.964,0,2.011,0.026,3.277,0.346
	c1.744,0.454,4.111,3.808,5.678,6.027c1.69,2.394,3.025,4.285,4.735,5.101c1.017,0.509,2.192,0.779,3.443,0.779
	c3.098,0,6.184-1.688,7.86-4.302c0.358-0.551,0.728-1.313,1.092-2.188c0.719,0.904,1.617,1.651,2.738,2.122
	c1.141,0.497,2.61,0.747,4.454,0.747c2.487,0,5.286-0.445,7.754-0.837c1.569-0.25,3.192-0.507,3.999-0.507
	c0.055,0,0.105,0,0.149,0.005c10.029,1.617,17.967,3.523,20.201,4.852c1.553,0.923,3.631,1.679,5.831,2.479
	c3.82,1.389,8.575,3.118,9.954,5.675c1.32,2.457,2.126,9.671,2.715,14.939c0.793,7.102,1.142,9.518,2.242,10.947
	c0.731,0.943,1.819,1.48,2.99,1.48c0.023,0,0.047,0,0.07,0c-0.487,3.686,0.265,7.242,1.655,9.53c1.47,2.419,3.29,2.781,4.245,2.781
	c1.034,0,2.216,0.126,3.177,0.297c-0.136,0.192-0.268,0.377-0.387,0.544c-1.826,2.558-3.896,5.457-3.584,8.266
	c0.399,3.56,4.75,13.8,6.059,15.933c1.114,1.812,3.887,3.25,6.447,4.251c-0.002,0.006-0.004,0.013-0.007,0.019
	c-0.446,1.216-0.318,2.567,0.359,3.803c0.322,0.577,0.72,1.409,1.14,2.289c1.826,3.825,4.099,8.585,7.706,10.306
	c3.491,1.643,12.032,8.41,12.889,10.512c0.713,1.827,2.363,2.912,4.418,2.912C504.845,226.171,507.285,224.976,509.993,223.461z
	 M450.863,900.787c-0.188-0.221-0.345-0.416-0.469-0.581c0.003-0.172,0.021-0.416,0.068-0.76
	C450.586,899.898,450.719,900.346,450.863,900.787z M488.955,660.076c1.231-0.356,2.922-0.998,4.747-1.843
	c-0.543,0.641-1.453,1.153-3.692,1.649C489.638,659.966,489.286,660.03,488.955,660.076z M1059.272,557.128
	c-2.192-3.217-4.415-5.828-5.944-6.379c-1.559-0.873-6.7-6.992-8.941-13.326c-1.828-5.211-6.858-9.086-11.296-12.505
	c-2.652-2.043-5.157-3.973-6.543-5.818c-1.429-1.897-1.317-7.5-1.22-12.443c0.129-6.465,0.262-13.151-2.109-18.06
	c-2.213-4.569-4.29-9.913-6.299-15.08c-1.706-4.387-3.316-8.531-4.978-12.155c-0.148-0.326-0.298-0.65-0.449-0.971
	c0.306,0.047,0.613,0.072,0.919,0.072c0.279,0,0.55-0.021,0.809-0.06c1.384-0.201,2.519-0.701,3.429-1.244
	c0.614,1.665,1.516,3.597,2.513,5.735c1.879,4.026,4.007,8.589,4.569,12.146c0.717,4.724,3.424,6.393,5.215,7.498
	c1.42,0.876,1.802,1.111,1.931,2.603c0.498,5.853,5.556,21.686,8.703,24.438c2.173,1.912,10.858,11.241,12.062,14.095
	c1.446,3.417,3.426,8.091,4.91,16.901c0.17,0.993,0.338,2.014,0.509,3.053C1057.786,550.023,1058.468,553.887,1059.272,557.128z
	 M114.692,440.615c-1.878-1.855-3.877-4.078-3.83-5.414c0.022-0.632,0.703-1.319,1.27-1.784c0.087-0.073,0.167-0.135,0.238-0.189
	c0.512,1.016,1.078,3.062,1.443,4.382C114.089,438.606,114.371,439.625,114.692,440.615z M919.972,438.305
	c-1.665,0-4.038-1.367-6.132-2.573c-2.508-1.445-4.877-2.809-7.299-2.809c-2.083,0-7.544-3.675-11.338-7.108l-0.316-0.286
	l-0.385-0.188c-1.564-0.761-9.572-4.556-13.644-4.556c-1.14-0.112-4.523-2.802-6.148-4.095c-3.046-2.421-4.665-3.65-6.406-3.771
	c-0.719-0.32-1.99-1.612-2.271-2.377c0.54-0.27,1.802-0.306,2.821-0.335c2.25-0.065,5.331-0.153,7.165-2.713
	c1.625-2.269,1.633-5.608,0.025-10.828c-2.455-7.979-8.667-12.555-17.045-12.555c-3.821,0-7.104,0.965-8.752,1.791
	c-0.389,0.164-3.168,1.002-18.729,1.002c-4.025,0-7.679-0.057-9.641-0.087c-0.803-0.012-1.359-0.021-1.6-0.021
	c-3.231,0-19.724,7.161-22.94,8.839c-2.448,1.285-5.959,2.765-9.057,4.072c-2.758,1.163-4.582,1.94-5.666,2.52
	c-0.062,0.004-0.149,0.007-0.267,0.007c-0.845,0-2.187-0.166-3.607-0.341c-1.862-0.229-3.948-0.487-6.021-0.535
	c0.181-0.377,0.362-0.775,0.553-1.188c0.366-0.798,0.959-2.091,1.458-2.926c0.883,0.332,1.896,0.495,3.061,0.495
	c2.143,0,4.577-0.557,6.933-1.095c1.486-0.339,2.89-0.66,4.131-0.828c3.817-0.48,6.311-3.296,8.721-6.019
	c1.358-1.535,2.764-3.122,4.318-4.134c2.165-1.417,3.572-2.656,3.922-4.465c0.352-1.824-0.574-3.147-1.25-4.114
	c-0.365-0.522-0.742-1.062-1.051-1.78c-0.33-0.783,3.187-4.267,4.342-5.411c1.17-1.159,2.379-2.357,3.428-3.598
	c0.879-1.038,2.22-1.218,4.335-1.426c2.636-0.259,6.62-0.65,8.035-5.082c0.418-1.321,0.755-2.834,1.082-4.296
	c0.43-1.926,1.21-5.422,2.002-6.35c1.509,0.261,3.471,0.953,5.369,1.624c2.935,1.036,5.706,2.014,8.184,2.014
	c3.397,0,7.737-3.026,12.646-6.683c0.912-0.68,1.855-1.382,2.244-1.613c0.001,0,0.001,0,0.001,0c0.024,0,0.436-0.104,1.142-0.104
	c1.596,0,4.731,0.616,5.183,2.946c1.275,6.89,11.276,14.206,13.192,15.359c0.944,0.551,2.912,1.362,6.312,2.749
	c3.358,1.37,9.609,3.92,10.71,4.809c1.456,1.3,4.286,6.161,5.196,10.493c0.979,4.619,5.507,10.254,9.396,10.254
	c1.706,0,3.832-1.075,4.207-4.104c0.261-2.25-0.516-5.448-1.415-9.151c-0.377-1.553-0.93-3.829-1.176-5.418
	c3.521-0.081,6.653-1.427,7.009-1.585l1.96-0.87c1.514,2.847,3.277,5.434,4.534,7.278c0.392,0.575,0.73,1.072,0.988,1.471
	c0.527,1.309,1.192,7.232,1.635,11.168c0.894,7.96,1.381,11.637,2.296,13.435c0.702,1.39,2.076,2.223,3.672,2.223
	c3.175,0,7.205-3.325,13.532-9.462c0.391-0.378,0.725-0.702,0.986-0.95c0.53-0.498,1.308-1.009,2.13-1.549
	c2.515-1.654,5.96-3.919,6.481-8.811c0.559-5.135-3.819-8.804-6.934-11.145c0.179-0.09,0.351-0.177,0.508-0.257
	c1.805-0.908,3.671-1.847,4.987-3.095c2.212-2.07,3.773-3.268,4.644-3.564c0.77,1.819,0.924,8.088,1.008,11.516
	c0.114,4.669,0.202,7.173,0.812,8.627c0.885,2.075,3.323,3.467,7.559,5.75c2.045,1.103,5.469,2.947,6.089,3.867
	c2.285,3.375,8.168,4.599,11.564,4.599c2.24,0,3.933-0.482,5.046-1.434c0.036-0.001,0.077-0.002,0.123-0.002
	c2.049,0,5.999,1.292,7.897,1.913c0.46,0.15,0.842,0.275,1.119,0.359c0.571,0.169,1.193,0.249,1.92,0.249
	c2.792,0,7.045-1.182,11.908-2.609l0.198-0.058c0.979-0.295,1.897-0.679,2.709-1.017c0.342-0.143,0.769-0.321,1.16-0.469
	c0.013,0.356,0.008,0.826-0.034,1.436c-0.695,11.599-2.989,20.24-6.461,24.355c-2.335,2.745-3.384,5.022-4.078,6.529
	c-0.254,0.55-0.569,1.234-0.729,1.403c0.001-0.001,0-0.001-0.002-0.001c-0.032,0-0.325,0.091-1.106,0.091
	c-0.308,0-0.468-0.051-0.504-0.07c0.109,0.059,0.146,0.232,0.161,0.306l-4.229,0.781c-1.806-2.739-4.231-4.839-7.475-4.839
	c-0.715,0-1.441,0.108-2.159,0.322c-1.205,0.352-2.521,0.639-3.917,0.942c-2.007,0.438-4.198,0.915-6.401,1.695
	c0.087-0.919-0.13-1.813-0.728-2.687c-1.88-2.791-6.419-3.367-12.652-3.367c-2.072,0-4.171,0.068-6.2,0.134
	c-1.717,0.056-3.337,0.108-4.683,0.108c-3.385,0-6.698-1.629-9.903-3.205c-2.334-1.148-4.538-2.231-6.851-2.779
	c-0.462-0.108-0.924-0.162-1.38-0.162c-4.69,0-7.137,5.074-9.727,10.446c-1.417,2.938-2.882,5.977-4.596,8.009
	C921.102,438.188,920.507,438.305,919.972,438.305z M914.736,364.961c-2.599-2.07-9.773-7.699-13.009-9.353
	c-3.954-2.006-9.493-5.242-12.025-10.212c-1.616-3.187-4.223-5.24-6.317-6.89c-2.76-2.174-3.789-3.156-3.648-4.853
	c0.014-0.163,0.034-0.29,0.055-0.387c1.356,0.193,4.168,1.788,6.501,4.528c2.305,2.731,6.209,5.831,9.985,8.827
	c3.165,2.513,6.438,5.111,7.979,6.921c1.534,1.816,3.289,3.167,4.986,4.472c2.506,1.928,4.485,3.451,5.178,5.924
	C914.516,364.28,914.621,364.621,914.736,364.961z M383.241,309.964c0.81-2.336,1.839-4.567,2.971-5.708
	c1.088-1.101,4.542-1.604,7.316-2.007c4.089-0.594,8.317-1.209,10.598-3.907c0.139-0.164,0.55-0.188,0.783-0.188
	c1.958,0,5.083,1.575,6.593,2.567l2.222,1.46l0.371-0.437c0.005,1.602,0.113,3.04,0.426,4.275c-2.697-3.508-5.933-4.275-8.25-4.275
	c-2.666,0-5.622,0.979-9.036,2.992c-3.586,2.134-3.995,2.246-6.655,2.974c-0.884,0.242-1.98,0.542-3.447,0.98
	C385.678,309.119,384.38,309.551,383.241,309.964z M289.987,184.496c-0.223,0-0.296,0-0.452-0.135
	c0.275,0.034,0.548,0.07,0.819,0.109C290.198,184.49,290.078,184.496,289.987,184.496z M273.781,167.871
	c0.032-2.495-0.58-5.201-2.973-7.226c-0.819-0.686-1.618-1.354-2.446-1.908c0.562,0.049,1.151,0.074,1.775,0.073
	c0.92,0,1.933-0.051,3.098-0.155c0.819-0.074,1.685-0.111,2.578-0.111c2.855,0,5.541,0.38,7.364,0.718
	c-0.186,1.57-0.522,2.973-0.878,3.489c-0.462,0.195-1.07,0.377-1.71,0.568C278.445,163.958,275.354,164.882,273.781,167.871z
	 M626.399,151.646c-1.468-0.939-3.147-1.574-5.068-1.601c-0.812-0.601-1.505-3.199-1.78-5.391c2.794,1.312,6.264,3.417,6.79,4.673
	C626.291,150.11,626.312,150.888,626.399,151.646z"/>
<path d="M479.599,159.09c-0.925-0.875-0.964-1.22-0.812-1.615c0.206-0.525,0.396-1.16,0.563-1.869
	c0.361,0.786,0.527,1.326,0.535,1.61C479.805,157.931,479.705,158.557,479.599,159.09z"/>
<path d="M974.786,361.054c0.656-4.247,0.433-8.276-2.109-9.976c0.334-1.528,2.192-4.799,4.002-6.236
	c2.961-2.303,6.421-7.388,10.555-15.528c1.068-2.103,2.893-4.61,5.514-4.61c0.215,0,0.43,0.017,0.642,0.051
	c1.65,1.326,5.978,8.847,7.939,13.462c0.848,2.007,2.531,3.163,4.615,3.163c0.001,0,0.001,0,0.002,0
	c2.588,0,5.121-1.834,7.157-3.307c0.499-0.361,0.97-0.702,1.247-0.867c2.161-1.308,5.256-4.61,6.544-8.101
	c-0.012,0.113-0.018,0.22-0.021,0.32c-0.069,2.833,2.489,5.11,8.299,7.38c3.149,1.24,6.373,3.949,9.785,6.816
	c2.585,2.172,5.258,4.418,8.188,6.281c3.123,1.979,4.431,4.94,4.603,6.875c0.097,1.089-0.176,1.594-0.248,1.66
	c-2.861,0.83-11.259,1.854-16.97,1.854c-1.488,0-2.363-0.075-2.835-0.138c-1.58-0.211-3.77-1.447-6.086-2.755
	c-3.131-1.767-6.679-3.77-10.721-4.5c-2.151-0.396-4.431-0.607-6.582-0.607c-6.81,0-11.771,2.001-13.972,5.636
	c-0.251,0.416-1.293,1.378-5.553,1.378c-1.511,0-3.103-0.116-4.507-0.218c-1.211-0.088-2.354-0.171-3.311-0.171
	C978.745,358.916,976.629,359.953,974.786,361.054z M1021.309,327.692c0.034-0.158,0.063-0.316,0.088-0.474
	c0.054-0.303,0.521-0.737,1.348-1.149C1022.036,326.575,1021.588,327.142,1021.309,327.692z"/>
</svg>
