<?xml version="1.0" encoding="utf-8"?>
<!-- Generator: Adobe Illustrator 16.0.0, SVG Export Plug-In . SVG Version: 6.00 Build 0)  -->
<!DOCTYPE svg PUBLIC "-//W3C//DTD SVG 1.1//EN" "http://www.w3.org/Graphics/SVG/1.1/DTD/svg11.dtd">
<svg version="1.1" id="Layer_1" xmlns="http://www.w3.org/2000/svg" xmlns:xlink="http://www.w3.org/1999/xlink" x="0px" y="0px"
	 width="1152px" height="1152px" viewBox="0 0 1152 1152" enable-background="new 0 0 1152 1152" xml:space="preserve">
<path d="M624,1.983v290.021C760.206,314.859,864,433.299,864,576S760.206,837.141,624,859.995v290.021
	c295.656-24.393,528-272.065,528-574.017S919.656,26.376,624,1.983z"/>
<path d="M528,292.004V1.983c-132.495,10.931-252.27,66.71-344.122,152.113l203.911,203.911
	C426.791,324.303,474.938,300.908,528,292.004z"/>
<path d="M288,576c0-47.114,11.316-91.584,31.374-130.845L110.679,236.46C41.084,331.668,0,449.034,0,576
	c0,301.951,232.344,549.624,528,574.017V859.996C391.793,837.141,288,718.701,288,576z"/>
</svg>
