<?xml version="1.0" encoding="utf-8"?>
<!-- Generator: Adobe Illustrator 16.0.0, SVG Export Plug-In . SVG Version: 6.00 Build 0)  -->
<!DOCTYPE svg PUBLIC "-//W3C//DTD SVG 1.1//EN" "http://www.w3.org/Graphics/SVG/1.1/DTD/svg11.dtd">
<svg version="1.1" id="Layer_1" xmlns="http://www.w3.org/2000/svg" xmlns:xlink="http://www.w3.org/1999/xlink" x="0px" y="0px"
	 width="1152px" height="1152px" viewBox="0 0 1152 1152" enable-background="new 0 0 1152 1152" xml:space="preserve">
<path d="M910.388,601.718c30.133,25.001,60.155,44.787,90.724,59.664C1042.383,583.494,1087.587,528,1152,528V384
	c-130.385,0-213.546,81.855-276.851,186.27C886.721,581.307,898.45,591.813,910.388,601.718z"/>
<path d="M730.261,879.597c-1.408-1.131-2.798-2.282-4.198-3.421C685.014,953.244,639.983,1008,576,1008c-216,0-216-624-576-624v144
	c216,0,216,624,576,624c132.146,0,215.785-84.08,279.406-190.513C812.492,939.449,770.86,912.188,730.261,879.597z"/>
<path d="M0,0v144c504,0,576,792,1152,792V792C648,792,576,0,0,0z"/>
</svg>
