<?xml version="1.0" encoding="utf-8"?>
<!-- Generator: Adobe Illustrator 16.0.4, SVG Export Plug-In . SVG Version: 6.00 Build 0)  -->
<!DOCTYPE svg PUBLIC "-//W3C//DTD SVG 1.1//EN" "http://www.w3.org/Graphics/SVG/1.1/DTD/svg11.dtd">
<svg version="1.1" id="Layer_1" xmlns="http://www.w3.org/2000/svg" xmlns:xlink="http://www.w3.org/1999/xlink" x="0px" y="0px"
	 width="1152px" height="1152px" viewBox="0 0 1152 1152" enable-background="new 0 0 1152 1152" xml:space="preserve">
<path d="M384,432c0-26.391,21.609-48,48-48h240v-96c0-26.391-21.609-48-48-48H288c-26.391,0-48,21.609-48,48v336
	c0,26.391,21.609,48,48,48h96V432z"/>
<path d="M864,480H528c-26.391,0-48,21.609-48,48v336c0,26.391,21.609,48,48,48h336c26.391,0,48-21.609,48-48V528
	C912,501.609,890.391,480,864,480z"/>
<path d="M1152,192V0H960v48H192V0H0v192h48v768H0v192h192v-48h768v48h192V960h-48V192H1152z M1008,960h-48v48H192v-48h-48V192h48
	v-48h768v48h48V960z"/>
</svg>
