<?xml version="1.0" encoding="utf-8"?>
<!-- Generator: Adobe Illustrator 16.0.0, SVG Export Plug-In . SVG Version: 6.00 Build 0)  -->
<!DOCTYPE svg PUBLIC "-//W3C//DTD SVG 1.1//EN" "http://www.w3.org/Graphics/SVG/1.1/DTD/svg11.dtd">
<svg version="1.1" id="Layer_1" xmlns="http://www.w3.org/2000/svg" xmlns:xlink="http://www.w3.org/1999/xlink" x="0px" y="0px"
	 width="1152px" height="1152px" viewBox="0 0 1152 1152" enable-background="new 0 0 1152 1152" xml:space="preserve">
<path d="M576,0C257.894,0,0,257.894,0,576c0,318.131,257.894,576,576,576c318.131,0,576-257.869,576-576
	C1152,257.894,894.131,0,576,0z M584.996,958.234c-45.541,0-79.697-29.604-79.697-79.698c0-47.818,34.156-78.561,79.697-78.561
	c47.818,0,79.697,33.02,79.697,78.561C664.693,926.355,635.092,958.234,584.996,958.234z M614.732,649.059
	c0,20.935,7.955,39.541,20.459,61.64c2.271,4.65,0,9.304-5.686,9.304h-100.02c-5.685,0-7.957,0-13.641-5.812
	c-20.459-23.263-29.552-55.824-29.552-79.084c0-93.041,148.896-150.026,148.896-243.066c0-45.357-36.372-84.899-105.705-84.899
	c-56.831,0-97.749,11.63-137.53,29.075c-4.546,2.326-7.956,0-7.956-4.652v-91.877c0-4.652,0-9.304,4.546-11.63
	C416.962,214.097,473.792,192,557.901,192c132.981,0,218.229,77.921,218.229,189.569
	C776.131,509.498,614.732,582.767,614.732,649.059z"/>
</svg>
