<?xml version="1.0" encoding="utf-8"?>
<!-- Generator: Adobe Illustrator 16.0.1, SVG Export Plug-In . SVG Version: 6.00 Build 0)  -->
<!DOCTYPE svg PUBLIC "-//W3C//DTD SVG 1.1//EN" "http://www.w3.org/Graphics/SVG/1.1/DTD/svg11.dtd">
<svg version="1.1" id="Layer_1" xmlns="http://www.w3.org/2000/svg" xmlns:xlink="http://www.w3.org/1999/xlink" x="0px" y="0px"
	 width="1152px" height="1152px" viewBox="0 0 1152 1152" enable-background="new 0 0 1152 1152" xml:space="preserve">
<g>
	<path opacity="0.65" d="M-101,1496c-0.12,0-0.06-0.009,0-0.013c-0.005-6.992-4.426-10.987-9.875-10.987c-3.602,0-7.4,1.901-9.125,5
		c-0.784-0.291-1.444-0.527-2.323-0.527c-4.24,0-7.677,3.699-7.677,8.264c0,4.562,3.438,8.264,7.677,8.264H-101c3,0,5-2,5-5
		S-98,1496-101,1496z M-101,1503h-21.323c-2.58,0-4.677-2.361-4.677-5.264s2.098-5.264,4.677-5.264c0.332,0,0.614,0.093,1.277,0.34
		l2.414,0.896l1.253-2.25c1.115-2.004,3.726-3.459,6.378-3.459c4,0,7,3,7,7v1l0.036,2.996L-101,1499c1.346,0,2,0.654,2,2
		S-99.654,1503-101,1503z"/>
	<path opacity="0.65" d="M-101,1495.987c0,0.004,0,0.009,0,0.013C-101,1495.983-101,1495.982-101,1495.987z"/>
</g>
<path d="M0,48v1056h1152V48H0z M336,960H144v-96h192V960z M336,768H144v-96h192V768z M336,576H144v-96h192V576z M768,960H432v-96
	h336V960z M1008,768H432v-96h576V768z M912,576H432v-96h480V576z M1008,384H144V192h864V384z"/>
</svg>
