<?xml version="1.0" encoding="utf-8"?>
<!-- Generator: Adobe Illustrator 16.0.4, SVG Export Plug-In . SVG Version: 6.00 Build 0)  -->
<!DOCTYPE svg PUBLIC "-//W3C//DTD SVG 1.1//EN" "http://www.w3.org/Graphics/SVG/1.1/DTD/svg11.dtd">
<svg version="1.1" id="Layer_1" xmlns="http://www.w3.org/2000/svg" xmlns:xlink="http://www.w3.org/1999/xlink" x="0px" y="0px"
	 width="1152px" height="1152px" viewBox="0 0 1152 1152" enable-background="new 0 0 1152 1152" xml:space="preserve">
<path d="M1149.327,855.583c4.641,4.641,3.094,8.417-3.516,8.417H1008v288H816V864H678.176c-6.562,0-8.156-3.776-3.516-8.417L912,624
	L1149.327,855.583z"/>
<polygon points="527.998,0 0,191.999 527.998,383.998 1055.995,191.999 "/>
<path d="M583.497,898.215c-15.516-37.5-6.375-80.906,23.297-110.578l68.859-67.171l-147.656,53.671l-272.436-99.046L0,767.996
	l527.998,191.999l79.359-28.874C597.513,921.793,588.888,911.199,583.497,898.215z"/>
<polygon points="911.996,489.888 943.684,520.826 1055.995,479.998 800.434,387.092 527.998,486.138 255.562,387.092 0,479.998 
	527.998,671.997 842.621,557.623 "/>
</svg>
