<?xml version="1.0" encoding="utf-8"?>
<!-- Generator: Adobe Illustrator 16.0.4, SVG Export Plug-In . SVG Version: 6.00 Build 0)  -->
<!DOCTYPE svg PUBLIC "-//W3C//DTD SVG 1.1//EN" "http://www.w3.org/Graphics/SVG/1.1/DTD/svg11.dtd">
<svg version="1.1" id="Layer_1" xmlns="http://www.w3.org/2000/svg" xmlns:xlink="http://www.w3.org/1999/xlink" x="0px" y="0px"
	 width="1152px" height="1152px" viewBox="0 0 1152 1152" enable-background="new 0 0 1152 1152" xml:space="preserve">
<path d="M583.521,274.217c-15.539-37.5-6.398-80.906,23.273-110.578l100.828-98.343L527.998,0L0,191.999l527.998,191.999
	l137.156-49.875C628.778,329.577,597.396,307.733,583.521,274.217z"/>
<polygon points="720,416.342 527.999,486.138 255.562,387.092 0,479.998 527.999,671.997 720,602.2 "/>
<polygon points="720,704.341 527.999,774.137 255.539,675.091 0,767.996 527.999,959.995 720,890.199 "/>
<path d="M1149.327,231.521c4.641,4.641,3.094,8.484-3.516,8.484L1008,240v912H816V240l-137.824,0.005
	c-6.562,0-8.156-3.844-3.516-8.484L912,0L1149.327,231.521z"/>
</svg>
