<?xml version="1.0" encoding="utf-8"?>
<!-- Generator: Adobe Illustrator 16.0.0, SVG Export Plug-In . SVG Version: 6.00 Build 0)  -->
<!DOCTYPE svg PUBLIC "-//W3C//DTD SVG 1.1//EN" "http://www.w3.org/Graphics/SVG/1.1/DTD/svg11.dtd">
<svg version="1.1" id="Layer_1" xmlns="http://www.w3.org/2000/svg" xmlns:xlink="http://www.w3.org/1999/xlink" x="0px" y="0px"
	 width="1152px" height="1152px" viewBox="0 0 1152 1152" enable-background="new 0 0 1152 1152" xml:space="preserve">
<g>
	<path fill="none" d="M816,792c0-39.765-32.235-72-72-72s-72,32.235-72,72c0,30.705,19.228,56.904,46.293,67.256L684,1008h120
		l-34.293-148.744C796.772,848.904,816,822.705,816,792z"/>
	<path d="M912,576H576c0,0-144,0-192,0s-48,48-48,48v480c0,0,0,48,48,48h720c48,0,48-48,48-48V624c0,0,0-48-48-48h-48H912z
		 M804,1008H684l34.293-148.744C691.228,848.904,672,822.705,672,792c0-39.765,32.235-72,72-72s72,32.235,72,72
		c0,30.705-19.228,56.904-46.293,67.256L804,1008z"/>
	<path d="M144,312c0-92.784,75.217-168,168-168c92.784,0,168,75.216,168,168v264h144V312C624,139.687,484.312,0,312,0
		S0,139.687,0,312l0,0v120h144V312z"/>
</g>
</svg>
