<?xml version="1.0" encoding="utf-8"?>
<!-- Generator: Adobe Illustrator 16.0.0, SVG Export Plug-In . SVG Version: 6.00 Build 0)  -->
<!DOCTYPE svg PUBLIC "-//W3C//DTD SVG 1.1//EN" "http://www.w3.org/Graphics/SVG/1.1/DTD/svg11.dtd">
<svg version="1.1" id="Layer_1" xmlns="http://www.w3.org/2000/svg" xmlns:xlink="http://www.w3.org/1999/xlink" x="0px" y="0px"
	 width="1152px" height="1152px" viewBox="0 0 1152 1152" enable-background="new 0 0 1152 1152" xml:space="preserve">
<path d="M960,576h-48V360c0-172.313-139.688-312-312-312c-172.313,0-312,139.687-312,312h0v216c0,0,0,0-48,0s-48,48-48,48v432
	c0,0,0,48,48,48h720c48,0,48-48,48-48V624C1008,624,1008,576,960,576z M660,960H540l34.293-148.744
	C547.228,800.904,528,774.705,528,744c0-39.765,32.235-72,72-72s72,32.235,72,72c0,30.705-19.228,56.904-46.293,67.256L660,960z
	 M768,576H432V360c0-92.784,75.216-168,168-168c92.784,0,168,75.216,168,168V576z"/>
</svg>
