<?xml version="1.0" encoding="utf-8"?>
<!-- Generator: Adobe Illustrator 16.0.1, SVG Export Plug-In . SVG Version: 6.00 Build 0)  -->
<!DOCTYPE svg PUBLIC "-//W3C//DTD SVG 1.1//EN" "http://www.w3.org/Graphics/SVG/1.1/DTD/svg11.dtd">
<svg version="1.1" id="Layer_1" xmlns="http://www.w3.org/2000/svg" xmlns:xlink="http://www.w3.org/1999/xlink" x="0px" y="0px"
	 width="1152px" height="1152px" viewBox="0 0 1152 1152" enable-background="new 0 0 1152 1152" xml:space="preserve">
<path d="M912,1104c0-48,0-1008,0-1056S864,0,864,0H288c0,0-48,0-48,48s0,1008,0,1056s48,48,48,48h576C864,1152,912,1152,912,1104z
	 M336,960V192h480v768H336z M528,1056c0-26.51,21.49-48,48-48s48,21.49,48,48s-21.49,48-48,48S528,1082.51,528,1056z"/>
</svg>
