<?xml version="1.0" encoding="utf-8"?>
<!-- Generator: Adobe Illustrator 16.0.1, SVG Export Plug-In . SVG Version: 6.00 Build 0)  -->
<!DOCTYPE svg PUBLIC "-//W3C//DTD SVG 1.1//EN" "http://www.w3.org/Graphics/SVG/1.1/DTD/svg11.dtd">
<svg version="1.1" id="Layer_1" xmlns="http://www.w3.org/2000/svg" xmlns:xlink="http://www.w3.org/1999/xlink" x="0px" y="0px"
	 width="1152px" height="1152px" viewBox="0 0 1152 1152" enable-background="new 0 0 1152 1152" xml:space="preserve">
<path d="M288,576c0,79.5-64.477,144-144,144S0,655.5,0,576s64.477-144,144-144S288,496.5,288,576z"/>
<path d="M720,576c0,79.5-64.5,144-144,144c-79.523,0-144-64.5-144-144s64.477-144,144-144C655.5,432,720,496.5,720,576z"/>
<path d="M1152,576c0,79.5-64.5,144-144,144s-144-64.5-144-144s64.5-144,144-144S1152,496.5,1152,576z"/>
</svg>
