<?xml version="1.0" encoding="utf-8"?>
<!-- Generator: Adobe Illustrator 16.0.0, SVG Export Plug-In . SVG Version: 6.00 Build 0)  -->
<!DOCTYPE svg PUBLIC "-//W3C//DTD SVG 1.1//EN" "http://www.w3.org/Graphics/SVG/1.1/DTD/svg11.dtd">
<svg version="1.1" id="Layer_1" xmlns="http://www.w3.org/2000/svg" xmlns:xlink="http://www.w3.org/1999/xlink" x="0px" y="0px"
	 width="1152px" height="1152px" viewBox="0 0 1152 1152" enable-background="new 0 0 1152 1152" xml:space="preserve">
<path d="M192,48v912c0,0,0,48-48,48s-48-48-48-48V144c0,0-96,0-96,108s0,708,0,708s0,144,144,144s636.005,1.346,816,0
	c192-1.436,192-192,192-192V48H192z M336,432h192v288H336V432z M1008,912H336v-96h672V912z M1008,720H624v-96h384V720z M1008,528
	H624v-96h384V528z M1008,336H336V192h672V336z"/>
</svg>
