<?xml version="1.0" encoding="utf-8"?>
<!-- Generator: Adobe Illustrator 16.0.0, SVG Export Plug-In . SVG Version: 6.00 Build 0)  -->
<!DOCTYPE svg PUBLIC "-//W3C//DTD SVG 1.1//EN" "http://www.w3.org/Graphics/SVG/1.1/DTD/svg11.dtd">
<svg version="1.1" id="Layer_1" xmlns="http://www.w3.org/2000/svg" xmlns:xlink="http://www.w3.org/1999/xlink" x="0px" y="0px"
	 width="1152px" height="1152px" viewBox="0 0 1152 1152" enable-background="new 0 0 1152 1152" xml:space="preserve">
<path d="M1080,96c-48,0-960,0-1008,0C0,96,0,168,0,168v720c0,0,0,72,72,72c48,0,312,0,312,0l192,192l192-192c0,0,264,0,312,0
	c72,0,72-72,72-72V168C1152,168,1152,96,1080,96z M960,769H192v-96h768V769z M960,577H192v-96h768V577z M960,385H192v-96h768V385z"
	/>
</svg>
