<?xml version="1.0" encoding="utf-8"?>
<!-- Generator: Adobe Illustrator 16.0.1, SVG Export Plug-In . SVG Version: 6.00 Build 0)  -->
<!DOCTYPE svg PUBLIC "-//W3C//DTD SVG 1.1//EN" "http://www.w3.org/Graphics/SVG/1.1/DTD/svg11.dtd">
<svg version="1.1" id="Layer_1" xmlns="http://www.w3.org/2000/svg" xmlns:xlink="http://www.w3.org/1999/xlink" x="0px" y="0px"
	 width="1152px" height="1152px" viewBox="0 0 1152 1152" enable-background="new 0 0 1152 1152" xml:space="preserve">
<g>
	<path d="M1007.819,1008c26.414,0,51.866-21.234,56.603-47.25l86.813-433.547c4.733-25.969-13.009-47.203-39.399-47.203H39.824
		c-26.391,0-43.781,22.031-39.047,48l86.461,432.75c4.734,26.016,30.188,47.25,56.578,47.25H1007.819z"/>
</g>
<path d="M1007.818,240c-18.984,0-165.633,0-336,0v-96c0,0,0-48-48-48s-431.813,0-479.813,0s-48,48-48,48v240h959.813v-96
	C1055.818,288,1055.818,240,1007.818,240z"/>
</svg>
