<?xml version="1.0" encoding="utf-8"?>
<!-- Generator: Adobe Illustrator 16.0.0, SVG Export Plug-In . SVG Version: 6.00 Build 0)  -->
<!DOCTYPE svg PUBLIC "-//W3C//DTD SVG 1.1//EN" "http://www.w3.org/Graphics/SVG/1.1/DTD/svg11.dtd">
<svg version="1.1" id="Layer_1" xmlns="http://www.w3.org/2000/svg" xmlns:xlink="http://www.w3.org/1999/xlink" x="0px" y="0px"
	 width="1152px" height="1152px" viewBox="0 0 1152 1152" enable-background="new 0 0 1152 1152" xml:space="preserve">
<path opacity="0.99" d="M1104,96c-48,0-1008,0-1056,0S0,144,0,144v912h1152V144C1152,144,1152,96,1104,96z M959.999,216
	c0-13.2,10.8-24,24-24h48c13.2,0,24,10.8,24,24v48c0,13.2-10.8,24-24,24h-48c-13.2,0-24-10.8-24-24V216z M816,216
	c0-13.2,10.8-24,24-24h48c13.2,0,24,10.8,24,24v48c0,13.2-10.8,24-24,24h-48c-13.2,0-24-10.8-24-24V216z M672.001,216
	c0-13.2,10.8-24,24-24h48c13.2,0,24,10.8,24,24v48c0,13.2-10.8,24-24,24h-48c-13.2,0-24-10.8-24-24V216z M1056,960H96V336h960V960z"
	/>
</svg>
