<?xml version="1.0" encoding="utf-8"?>
<!-- Generator: Adobe Illustrator 16.0.0, SVG Export Plug-In . SVG Version: 6.00 Build 0)  -->
<!DOCTYPE svg PUBLIC "-//W3C//DTD SVG 1.1//EN" "http://www.w3.org/Graphics/SVG/1.1/DTD/svg11.dtd">
<svg version="1.1" id="Layer_1" xmlns="http://www.w3.org/2000/svg" xmlns:xlink="http://www.w3.org/1999/xlink" x="0px" y="0px"
	 width="1152px" height="1152px" viewBox="0 0 1152 1152" enable-background="new 0 0 1152 1152" xml:space="preserve">
<path d="M924,432l144,144L960,684v132c0,0,0,96,96,96s96-96,96-96v-96C1152,456,924,432,924,432z"/>
<path d="M672,312v177.517c15.534,25.878,24,55.748,24,86.483c0,92.636-75.364,168-168,168s-168-75.364-168-168
	c0-30.735,8.466-60.605,24-86.483V312l-96,96V192c0,0,0-96,96-96s96,96,96,96v330.348c-14.726,13.183-24,32.332-24,53.652
	c0,39.765,32.235,72,72,72s72-32.235,72-72c0-21.32-9.274-40.469-24-53.652V192c0,0,0-192-192-192S192,192,192,192v312
	c0,0-120,120-168,168s0,96,0,96l312,312c0,0,48,48,96,0s504-504,504-504L672,312z"/>
</svg>
