<?xml version="1.0" encoding="utf-8"?>
<!-- Generator: Adobe Illustrator 16.0.1, SVG Export Plug-In . SVG Version: 6.00 Build 0)  -->
<!DOCTYPE svg PUBLIC "-//W3C//DTD SVG 1.1//EN" "http://www.w3.org/Graphics/SVG/1.1/DTD/svg11.dtd">
<svg version="1.1" id="Layer_1" xmlns="http://www.w3.org/2000/svg" xmlns:xlink="http://www.w3.org/1999/xlink" x="0px" y="0px"
	 width="512px" height="512px" viewBox="0 0 512 512" enable-background="new 0 0 512 512" xml:space="preserve">
<path opacity="0.65" d="M400,160l96,96l-80,80v32c0,0-0.688,47.594,47.266,47.594S512,368,512,368s0-77.266,0-111.667
	C512,166.333,400,160,400,160z"/>
<path opacity="0.65" d="M320,128v69.735c9.946,11.283,16,26.076,16,42.265c0,35.29-28.71,64-64,64c-35.29,0-64-28.71-64-64
	c0-16.188,6.053-30.981,16-42.264V96l-64,64V80c0,0,0.844-48,48-48s48,48,48,48v132.292c-9.562,5.533-16,15.866-16,27.708
	c0,17.673,14.327,32,32,32c17.674,0,32-14.327,32-32c0-11.843-6.438-22.175-16-27.708V80c0,0,0-80-80-80s-80,80-80,80v112l-96,96
	c0,0-16,16,0,32s160,160,160,160s16,16,32,0s224-224,224-224L320,128z"/>
</svg>
