<?xml version="1.0" encoding="utf-8"?>
<!-- Generator: Adobe Illustrator 16.0.0, SVG Export Plug-In . SVG Version: 6.00 Build 0)  -->
<!DOCTYPE svg PUBLIC "-//W3C//DTD SVG 1.1//EN" "http://www.w3.org/Graphics/SVG/1.1/DTD/svg11.dtd">
<svg version="1.1" id="Layer_1" xmlns="http://www.w3.org/2000/svg" xmlns:xlink="http://www.w3.org/1999/xlink" x="0px" y="0px"
	 width="1152px" height="1152px" viewBox="0 0 1152 1152" enable-background="new 0 0 1152 1152" xml:space="preserve">
<path d="M576,0C257.906,0,0,257.889,0,576c0,232.242,137.707,431.824,335.672,522.984c0-113.73,26.297-213.328,52.26-310.148
	c11.865-44.227,23.08-86.062,31.975-129.375c-30.551-54.07-27.756-139.641,6.891-200.496c22.992-40.43,56.162-62.701,93.375-62.701
	c13.008,0,26.473,2.725,40.061,8.104c78.768,31.166,50.256,120.797,22.693,207.492c-19.74,62.086-40.166,126.316-18.387,163.336
	c9.633,16.348,27,26.859,53.016,32.062c9.07,1.828,18.07,2.742,26.824,2.742c60.539,0,114.363-45.668,147.727-125.297
	c43.559-103.992,46.371-261.141-24.996-333.633c-46.055-46.688-105.75-71.385-172.688-71.385
	c-84.902,0-172.846,41.361-229.518,107.947c-51.205,60.152-72.65,135.053-60.381,210.902c3.27,20.285,12.867,36.141,22.148,51.434
	c18.387,30.305,37.389,61.664,3.023,122.379l-2.62,4.641l-5.22-1.16c-105.135-23.344-153.773-102.305-148.693-241.453
	c7.4-207.896,186.434-339.68,351.123-358.102c20.566-2.303,41.326-3.48,61.699-3.48c208.477,0,364.641,116.262,388.512,289.318
	c18.598,135.334-18.527,275.29-96.926,365.186c-56.602,64.898-130.008,99.176-212.344,99.176c-7.734,0-15.609-0.281-23.625-0.914
	c-48.551-3.762-75.727-22.605-107.209-44.473c-7.523-5.203-15.311-10.617-23.748-16.066
	c-19.266,99.598-42.328,193.922-89.033,265.43C470.812,1144.125,522.439,1152,576,1152c318.094,0,576-257.871,576-576
	C1152,257.889,894.094,0,576,0z"/>
</svg>
