<?xml version="1.0" encoding="utf-8"?>
<!-- Generator: Adobe Illustrator 16.0.1, SVG Export Plug-In . SVG Version: 6.00 Build 0)  -->
<!DOCTYPE svg PUBLIC "-//W3C//DTD SVG 1.1//EN" "http://www.w3.org/Graphics/SVG/1.1/DTD/svg11.dtd">
<svg version="1.1" id="Layer_1" xmlns="http://www.w3.org/2000/svg" xmlns:xlink="http://www.w3.org/1999/xlink" x="0px" y="0px"
	 width="1152px" height="1152px" viewBox="0 0 1152 1152" enable-background="new 0 0 1152 1152" xml:space="preserve">
<path d="M288,0h576c0,0,48,0,48,48s0,192,0,192H240c0,0,0-144,0-192S288,0,288,0z"/>
<path d="M0,336v624h144V720h864v240h144V336H0z M1008,576H816v-96h192V576z"/>
<path d="M816,816c0,0,0,216,0,228s-12,12-12,12H348c0,0-12,0-12-12s0-228,0-228h-96c0,0,0,240,0,288s48,48,48,48h576c0,0,48,0,48-48
	s0-288,0-288H816z"/>
</svg>
