<?xml version="1.0" encoding="utf-8"?>
<!-- Generator: Adobe Illustrator 16.0.1, SVG Export Plug-In . SVG Version: 6.00 Build 0)  -->
<!DOCTYPE svg PUBLIC "-//W3C//DTD SVG 1.1//EN" "http://www.w3.org/Graphics/SVG/1.1/DTD/svg11.dtd">
<svg version="1.1" id="Layer_1" xmlns="http://www.w3.org/2000/svg" xmlns:xlink="http://www.w3.org/1999/xlink" x="0px" y="0px"
	 width="1152px" height="1152px" viewBox="0 0 1152 1152" enable-background="new 0 0 1152 1152" xml:space="preserve">
<path d="M624,192V96c0,0,0-48-48-48S96,48,48,48S0,96,0,96v96H624z"/>
<path d="M864,576c-159.047,0-288,128.953-288,288s128.953,288,288,288s288-128.953,288-288S1023.047,576,864,576z M1056,912H912v144
	h-96V912H672v-96h144V672h96v144h144V912z"/>
<path d="M1008,288c-48,0-1008,0-1008,0v720c0,0,0,48,48,48c24.119,0,254.258,0,483.38,0c-7.89-13.664-14.959-27.84-21.162-42.503
	c-13.796-32.613-22.912-66.598-27.258-101.497H480v48H336V576h144v240h2.961c4.346-34.899,13.462-68.884,27.258-101.497
	c19.346-45.736,47.021-86.793,82.257-122.027c35.234-35.235,76.291-62.911,122.027-82.257C761.906,490.167,812.205,480,864,480
	s102.094,10.167,149.497,30.219c14.663,6.203,28.839,13.272,42.503,21.162V336C1056,336,1056,288,1008,288z M240,960H96V432h144V960
	z"/>
</svg>
