<?xml version="1.0" encoding="utf-8"?>
<!-- Generator: Adobe Illustrator 16.0.1, SVG Export Plug-In . SVG Version: 6.00 Build 0)  -->
<!DOCTYPE svg PUBLIC "-//W3C//DTD SVG 1.1//EN" "http://www.w3.org/Graphics/SVG/1.1/DTD/svg11.dtd">
<svg version="1.1" id="Layer_1" xmlns="http://www.w3.org/2000/svg" xmlns:xlink="http://www.w3.org/1999/xlink" x="0px" y="0px"
	 width="1152px" height="1152px" viewBox="0 0 1152 1152" enable-background="new 0 0 1152 1152" xml:space="preserve">
<path d="M624,624c0,0-552,0-576,0c-48,0-48-48-48-48v-46.969c0,0,0-48,48-48c24,0,576,0,576,0V624z"/>
<path d="M1008,624c0,0,72,0,96,0c48,0,48-48,48-48v-46.969c0,0,0-48-48-48c-24,0-96,0-96,0V624z"/>
<path d="M192,240c0,0-120,0-144,0c-48,0-48-48-48-48v-46.969c0,0,0-48,48-48c24,0,144,0,144,0V240z"/>
<path d="M576,240c0,0,504,0,528,0c48,0,48-48,48-48v-46.969c0,0,0-48-48-48c-24,0-528,0-528,0V240z"/>
<path d="M384,1008c0,0-312,0-336,0c-48,0-48-48-48-48v-47.438c0,0,0-47.812,48-47.812c24,0,336,0,336,0V1008z"/>
<path d="M768,1008c0,0,312,0,336,0c48,0,48-48,48-48v-47.719c0,0,0-47.812-48-47.812c-24,0-336,0-336,0V1008z"/>
<path d="M432,336h-96c0,0-48,0-48-48s0-240,0-240s0-48,48-48s96,0,96,0s48,2.016,48,49.031C480,96,480,240,480,288S432,336,432,336z
	"/>
<path d="M864,720h-96c0,0-48,0-48-48s0-240,0-240s0-48,48-48s96,0,96,0s48,0.984,48,48c0,46.969,0,192,0,240S864,720,864,720z"/>
<path d="M624,1104h-96c0,0-48,0-48-48s0-240,0-240s0-48,48-48s96,0,96,0s48,0.984,48,48c0,46.969,0,192,0,240S624,1104,624,1104z"/>
</svg>
