<?xml version="1.0" encoding="utf-8"?>
<!-- Generator: Adobe Illustrator 16.0.1, SVG Export Plug-In . SVG Version: 6.00 Build 0)  -->
<!DOCTYPE svg PUBLIC "-//W3C//DTD SVG 1.1//EN" "http://www.w3.org/Graphics/SVG/1.1/DTD/svg11.dtd">
<svg version="1.1" id="Layer_1" xmlns="http://www.w3.org/2000/svg" xmlns:xlink="http://www.w3.org/1999/xlink" x="0px" y="0px"
	 width="1152px" height="1152px" viewBox="0 0 1152 1152" enable-background="new 0 0 1152 1152" xml:space="preserve">
<path enable-background="new    " d="M624,672c0,0-552,0-576,0c-48,0-48-48-48-48v-96c0,0,0-48,48-48c24,0,576,0,576,0V672z"/>
<path enable-background="new    " d="M1008,672c0,0,72,0,96,0c48,0,48-48,48-48v-96c0,0,0-48-48-48c-24,0-96,0-96,0V672z"/>
<path enable-background="new    " d="M192,288c0,0-120,0-144,0c-48,0-48-48-48-48v-96c0,0,0-48,48-48c24,0,144,0,144,0V288z"/>
<path enable-background="new    " d="M576,288c0,0,504,0,528,0c48,0,48-48,48-48v-96c0,0,0-48-48-48c-24,0-528,0-528,0V288z"/>
<path enable-background="new    " d="M384,1056c0,0-312,0-336,0c-48,0-48-48-48-48v-96c0,0,0-48,48-48c24,0,336,0,336,0V1056z"/>
<path enable-background="new    " d="M768,1056c0,0,312,0,336,0c48,0,48-48,48-48v-96c0,0,0-48-48-48c-24,0-336,0-336,0V1056z"/>
<path enable-background="new    " d="M432,384h-96c0,0-48,0-48-48s0-238.001,0-287s48-49,48-49h96c0,0,48,1.999,48,49s0,239,0,287
	S432,384,432,384z"/>
<path enable-background="new    " d="M864,768h-96c0,0-48,0-48-48s0-238.001,0-287s48-49,48-49h96c0,0,48,1.999,48,49s0,239,0,287
	S864,768,864,768z"/>
<path enable-background="new    " d="M624,1152h-96c0,0-48,0-48-48s0-238.001,0-287c0-49,48-49,48-49h96c0,0,48,1.999,48,49
	c0,47,0,239,0,287S624,1152,624,1152z"/>
</svg>
