<?xml version="1.0" encoding="utf-8"?>
<!-- Generator: Adobe Illustrator 16.0.0, SVG Export Plug-In . SVG Version: 6.00 Build 0)  -->
<!DOCTYPE svg PUBLIC "-//W3C//DTD SVG 1.1//EN" "http://www.w3.org/Graphics/SVG/1.1/DTD/svg11.dtd">
<svg version="1.1" id="Layer_1" xmlns="http://www.w3.org/2000/svg" xmlns:xlink="http://www.w3.org/1999/xlink" x="0px" y="0px"
	 width="1152px" height="1152px" viewBox="0 0 1152 1152" enable-background="new 0 0 1152 1152" xml:space="preserve">
<path d="M456,240c48,0,312,0,312,0V23.606c0-13.2,7.637-16.363,16.971-7.029L1152,384L784.971,751.423
	c-9.334,9.334-16.971,6.171-16.971-7.029V528c0,0-288,0-312,0s-168,0-168,168s144,168,168,168s120,0,120,0v288c0,0-72,0-120,0
	S0,1152,0,696S408,240,456,240z"/>
</svg>
