<?xml version="1.0" encoding="utf-8"?>
<!-- Generator: Adobe Illustrator 16.0.4, SVG Export Plug-In . SVG Version: 6.00 Build 0)  -->
<!DOCTYPE svg PUBLIC "-//W3C//DTD SVG 1.1//EN" "http://www.w3.org/Graphics/SVG/1.1/DTD/svg11.dtd">
<svg version="1.1" id="Layer_1" xmlns="http://www.w3.org/2000/svg" xmlns:xlink="http://www.w3.org/1999/xlink" x="0px" y="0px"
	 width="1152px" height="1152px" viewBox="0 0 1152 1152" enable-background="new 0 0 1152 1152" xml:space="preserve">
<path d="M0,695.996C0,1151.996,408,1152,456,1152s120,0,120,0V864c0,0-96,0-120,0s-168-0.004-168-168.004c0-168,144-168,168-168
	s312,0,312,0v227.579c0,13.219,7.641,16.406,16.969,7.031L1152,383.996L784.969,5.387C775.641-3.988,768-0.801,768,12.418v227.578
	c0,0-264,0-312,0S0,239.996,0,695.996z"/>
</svg>
