<?xml version="1.0" encoding="utf-8"?>
<!-- Generator: Adobe Illustrator 16.0.0, SVG Export Plug-In . SVG Version: 6.00 Build 0)  -->
<!DOCTYPE svg PUBLIC "-//W3C//DTD SVG 1.1//EN" "http://www.w3.org/Graphics/SVG/1.1/DTD/svg11.dtd">
<svg version="1.1" id="Layer_1" xmlns="http://www.w3.org/2000/svg" xmlns:xlink="http://www.w3.org/1999/xlink" x="0px" y="0px"
	 width="1152px" height="1152px" viewBox="0 0 1152 1152" enable-background="new 0 0 1152 1152" xml:space="preserve">
<path d="M1006.579,193.421C901.076,74.76,747.273,0,576,0C290.593,0,53.675,207.58,7.97,480h196.128
	C246.727,314.378,397.072,192,576,192c118.261,0,224.017,53.473,294.453,137.547L720,480h432V48L1006.579,193.421z"/>
<path d="M947.902,672C905.273,837.622,754.928,960,576,960c-118.261,0-224.017-53.473-294.453-137.547L432,672H0v432
	l145.421-145.421C250.924,1077.24,404.727,1152,576,1152c285.407,0,522.325-207.58,568.029-480H947.902z"/>
</svg>
