<?xml version="1.0" encoding="utf-8"?>
<!-- Generator: Adobe Illustrator 16.0.0, SVG Export Plug-In . SVG Version: 6.00 Build 0)  -->
<!DOCTYPE svg PUBLIC "-//W3C//DTD SVG 1.1//EN" "http://www.w3.org/Graphics/SVG/1.1/DTD/svg11.dtd">
<svg version="1.1" id="Layer_1" xmlns="http://www.w3.org/2000/svg" xmlns:xlink="http://www.w3.org/1999/xlink" x="0px" y="0px"
	 width="1152px" height="1152px" viewBox="0 0 1152 1152" enable-background="new 0 0 1152 1152" xml:space="preserve">
<path d="M672,240H432V24.394c0-13.2-7.637-16.363-16.971-7.029L0,432.393l415.029,415.029c9.334,9.334,16.971,6.172,16.971-7.029
	V624c0,0,185.368,0,240,0c72,0,252,12,252,192c0,240-216,288-252,288c0,0-24,0-24,24s23.559,24,24,24c84,0,480-96,480-468
	C1152,252,768,240,672,240z"/>
</svg>
