<?xml version="1.0" encoding="utf-8"?>
<!-- Generator: Adobe Illustrator 16.0.1, SVG Export Plug-In . SVG Version: 6.00 Build 0)  -->
<!DOCTYPE svg PUBLIC "-//W3C//DTD SVG 1.1//EN" "http://www.w3.org/Graphics/SVG/1.1/DTD/svg11.dtd">
<svg version="1.1" id="Layer_1" xmlns="http://www.w3.org/2000/svg" xmlns:xlink="http://www.w3.org/1999/xlink" x="0px" y="0px"
	 width="1152px" height="1152px" viewBox="0 0 1152 1152" enable-background="new 0 0 1152 1152" xml:space="preserve">
<path enable-background="new    " d="M864,192H720V15.305c0-16.301-9.433-20.208-20.958-8.681L480,227.581V288h46.798
	c89.892,0,179.512,21.679,252.354,61.043c13.139,7.1,25.75,14.76,37.836,22.957c25.802,0,46.72,0,47.014,0c29.639,0,168,0,168,180
	c0,46.021-14.56,79.047-35.501,102.763c3.705,18.973,6.511,38.568,8.427,58.761C1079.329,673.928,1152,596.281,1152,444
	C1152,192,912,192,864,192z"/>
<path enable-background="new    " d="M526.798,384H384V210.595c0-20.696-11.973-25.655-26.607-11.021L0,552l357.393,351.589
	C372.027,918.224,384,913.265,384,892.57V720c0,0,141.818,0,142.798,0c37.629,0,225.771-19.618,225.771,185.926
	C752.57,1114.295,526.798,1104,526.798,1104S504,1109.186,504,1128c0,18.812,22.593,24,22.798,24C601.59,1152,912,1140,912,780
	C912,384,564.427,384,526.798,384z"/>
</svg>
