<?xml version="1.0" encoding="utf-8"?>
<!-- Generator: Adobe Illustrator 16.0.1, SVG Export Plug-In . SVG Version: 6.00 Build 0)  -->
<!DOCTYPE svg PUBLIC "-//W3C//DTD SVG 1.1//EN" "http://www.w3.org/Graphics/SVG/1.1/DTD/svg11.dtd">
<svg version="1.1" id="Layer_1" xmlns="http://www.w3.org/2000/svg" xmlns:xlink="http://www.w3.org/1999/xlink" x="0px" y="0px"
	 width="1152px" height="1152px" viewBox="0 0 1152 1152" enable-background="new 0 0 1152 1152" xml:space="preserve">
<path d="M510.219,1013.497c-13.796-32.613-22.912-66.598-27.258-101.497H240v-96h242.961c4.104-32.943,12.46-65.07,24.988-96H240
	v-96h324.239c8.794-10.958,18.195-21.485,28.234-31.524c35.234-35.233,76.291-62.909,122.027-82.257
	c1.827-0.771,3.661-1.524,5.497-2.27V144h144v336c49.798,0,98.212,9.403,144,27.949c0-221.144,0-436.652,0-459.949c0-48-48-48-48-48
	H144c0,0-48,0-48,48s0,912,0,960s48,48,48,48h387.38C523.491,1042.336,516.421,1028.16,510.219,1013.497z M480,288h144v240H480V288z
	 M240,384h144v144H240V384z"/>
<path d="M864,576c-159.047,0-288,128.953-288,288s128.953,288,288,288s288-128.953,288-288S1023.047,576,864,576z M1056,912H912v144
	h-96V912H672v-96h144V672h96v144h144V912z"/>
</svg>
