<?xml version="1.0" encoding="utf-8"?>
<!-- Generator: Adobe Illustrator 16.0.1, SVG Export Plug-In . SVG Version: 6.00 Build 0)  -->
<!DOCTYPE svg PUBLIC "-//W3C//DTD SVG 1.1//EN" "http://www.w3.org/Graphics/SVG/1.1/DTD/svg11.dtd">
<svg version="1.1" id="Layer_1" xmlns="http://www.w3.org/2000/svg" xmlns:xlink="http://www.w3.org/1999/xlink" x="0px" y="0px"
	 width="1152px" height="1152px" viewBox="0 0 1152 1152" enable-background="new 0 0 1152 1152" xml:space="preserve">
<path d="M1008,336c0,0,0-144-144-144c-192,0-444,0-444,0l192,192h204v384H695.605c-13.2,0-16.363,7.637-7.029,16.971L912,1008
	l222.635-223.029c9.334-9.334,6.171-16.971-7.029-16.971H1008V336z"/>
<path d="M144,816c0,0,0,144,144,144c192,0,444,0,444,0L540,768H336V384h120.395c13.2,0,16.363-7.637,7.029-16.971L240,144
	L17.365,367.029C8.031,376.363,11.194,384,24.395,384H144V816z"/>
</svg>
