<?xml version="1.0" encoding="utf-8"?>
<!-- Generator: Adobe Illustrator 16.0.0, SVG Export Plug-In . SVG Version: 6.00 Build 0)  -->
<!DOCTYPE svg PUBLIC "-//W3C//DTD SVG 1.1//EN" "http://www.w3.org/Graphics/SVG/1.1/DTD/svg11.dtd">
<svg version="1.1" id="Layer_1" xmlns="http://www.w3.org/2000/svg" xmlns:xlink="http://www.w3.org/1999/xlink" x="0px" y="0px"
	 width="1152px" height="1152px" viewBox="0 0 1152 1152" enable-background="new 0 0 1152 1152" xml:space="preserve">
<polygon points="458.578,697.515 386.756,703.501 288,1008 432,912 480,1104 546.197,773.015 "/>
<polygon points="693.496,697.489 596.189,781.37 672,1152 720.08,964.673 862.826,1059.836 768.874,703.753 "/>
<path d="M852.001,335.974l43.544-103.834l-96.272-58.389l-25.804-109.6l-112.206,9.35L575.966,0l-85.282,73.518L378.476,64.19
	l-25.781,109.603l-96.264,58.408L300,336.029l-43.546,103.833l96.271,58.389l25.805,109.602l112.206-9.353L576.033,672
	l85.282-73.516l112.206,9.324l25.782-109.6l96.259-58.409L852.001,335.974z M576,528c-106.039,0-192-85.961-192-192
	s85.961-192,192-192c106.038,0,192,85.961,192,192S682.038,528,576,528z"/>
</svg>
