<?xml version="1.0" encoding="utf-8"?>
<!-- Generator: Adobe Illustrator 16.0.1, SVG Export Plug-In . SVG Version: 6.00 Build 0)  -->
<!DOCTYPE svg PUBLIC "-//W3C//DTD SVG 1.1//EN" "http://www.w3.org/Graphics/SVG/1.1/DTD/svg11.dtd">
<svg version="1.1" id="Layer_1" xmlns="http://www.w3.org/2000/svg" xmlns:xlink="http://www.w3.org/1999/xlink" x="0px" y="0px"
	 width="1152px" height="1152px" viewBox="0 0 1152 1152" enable-background="new 0 0 1152 1152" xml:space="preserve">
<polygon points="707.844,787.625 612.602,861.606 672,1152 732,984 864,1080 800.644,790.373 "/>
<polygon points="445.438,787.956 342.182,791.272 288,1008 420,924 480,1104 530.122,853.395 "/>
<path d="M898.688,383.59l42.501-118.71l-104.337-70.81L801.448,73.055l-126.029,4.047L575.642,0l-99.575,77.352l-126.042-3.73
	L314.929,194.73l-104.156,71.066l42.793,118.607l-42.494,118.716l104.34,70.812l35.4,121.016l126.024-4.048L576.616,768
	l99.583-77.354l126.035,3.731l35.09-121.117l104.165-71.065L898.688,383.59z M576,576c-106.039,0-192-85.961-192-192
	s85.961-192,192-192c106.038,0,192,85.961,192,192S682.038,576,576,576z"/>
</svg>
