<?xml version="1.0" encoding="utf-8"?>
<!-- Generator: Adobe Illustrator 16.0.0, SVG Export Plug-In . SVG Version: 6.00 Build 0)  -->
<!DOCTYPE svg PUBLIC "-//W3C//DTD SVG 1.1//EN" "http://www.w3.org/Graphics/SVG/1.1/DTD/svg11.dtd">
<svg version="1.1" id="Layer_1" xmlns="http://www.w3.org/2000/svg" xmlns:xlink="http://www.w3.org/1999/xlink" x="0px" y="0px"
	 width="1152px" height="1152px" viewBox="0 0 1152 1152" enable-background="new 0 0 1152 1152" xml:space="preserve">
<g>
	<path d="M272.619,811.501C230.128,756.99,203.453,692.591,194.954,624h-2.955L4.812,650.741
		c13.365,103.146,54.014,197.731,114.475,276.28L270.53,813.59L272.619,811.501z"/>
	<path d="M340.5,272.619c54.511-42.49,118.91-69.166,187.5-77.665V192L501.259,4.812c-103.146,13.365-197.731,54.014-276.28,114.475
		L338.411,270.53L340.5,272.619z"/>
	<path d="M194.953,528.001c8.5-68.59,35.175-132.99,77.665-187.5l-2.089-2.089L119.286,224.979
		C58.825,303.528,18.176,398.113,4.812,501.259l187.188,26.742H194.953z"/>
	<path d="M932.464,123.536l123.37-123.37L624,0v432l171.311-171.311c18.472,12.905,35.951,27.515,52.218,43.782
		C920.057,376.999,960,473.43,960,576c0,102.57-39.943,199.001-112.472,271.529C775.001,920.057,678.569,960,576,960
		c-86.394,0-168.431-28.34-235.499-80.618l-2.089,2.089l-113.432,151.243C322.159,1107.516,443.883,1152,576,1152
		c318.116,0,576-257.884,576-576C1152,392.48,1066.169,229.014,932.464,123.536z"/>
</g>
</svg>
