<?xml version="1.0" encoding="utf-8"?>
<!-- Generator: Adobe Illustrator 16.0.1, SVG Export Plug-In . SVG Version: 6.00 Build 0)  -->
<!DOCTYPE svg PUBLIC "-//W3C//DTD SVG 1.1//EN" "http://www.w3.org/Graphics/SVG/1.1/DTD/svg11.dtd">
<svg version="1.1" id="Layer_1" xmlns="http://www.w3.org/2000/svg" xmlns:xlink="http://www.w3.org/1999/xlink" x="0px" y="0px"
	 width="1152px" height="1152px" viewBox="0 0 1152 1152" enable-background="new 0 0 1152 1152" xml:space="preserve">
<path enable-background="new    " d="M672,0C406.903,0,192,214.903,192,480c0,95.7,28.011,184.855,76.275,259.725
	C181.646,826.354,48.075,959.925,36,972c-18,18-36,36-36,72s18,54,36,72s36.012,36,72,36s54-18,72-36
	c12.075-12.075,145.646-145.646,232.275-232.275C487.144,931.988,576.3,960,672,960c265.097,0,480-214.903,480-480
	C1152,214.903,937.097,0,672,0z M672,816c-185.568,0-336-150.433-336-336c0-185.568,150.432-336,336-336
	c185.567,0,336,150.432,336,336C1008,665.567,857.567,816,672,816z"/>
</svg>
