<?xml version="1.0" encoding="utf-8"?>
<!-- Generator: Adobe Illustrator 16.0.1, SVG Export Plug-In . SVG Version: 6.00 Build 0)  -->
<!DOCTYPE svg PUBLIC "-//W3C//DTD SVG 1.1//EN" "http://www.w3.org/Graphics/SVG/1.1/DTD/svg11.dtd">
<svg version="1.1" id="Layer_1" xmlns="http://www.w3.org/2000/svg" xmlns:xlink="http://www.w3.org/1999/xlink" x="0px" y="0px"
	 width="1152px" height="1152px" viewBox="0 0 1152 1152" enable-background="new 0 0 1152 1152" xml:space="preserve">
<path enable-background="new    " d="M951.84,672.571c-22.2,22.2-50.384,34.429-79.358,34.429c-20.544,0-40.014-5.973-56.481-16.82
	V864H192V480h96.067c1.065-72.819,15.685-137.25,43.515-192H0v768h1008V616.066L951.84,672.571z"/>
<path enable-background="new    " d="M384,488.627c0,270,232.808,279,288.901,279c0.153,0,17.099-3.891,17.099-18
	c0-14.111-17.099-18-17.099-18S504,731,503.573,599C504,479,655.778,480,684,480c2.354,0,180,0,180,0v116.428
	c0,15.521,8.979,19.24,19.955,8.265L1152,335L883.955,65.308C872.979,54.333,864,58.052,864,73.574V192H672.901
	C644.68,191.627,384,191.627,384,488.627z"/>
</svg>
