<?xml version="1.0" encoding="utf-8"?>
<!-- Generator: Adobe Illustrator 16.0.1, SVG Export Plug-In . SVG Version: 6.00 Build 0)  -->
<!DOCTYPE svg PUBLIC "-//W3C//DTD SVG 1.1//EN" "http://www.w3.org/Graphics/SVG/1.1/DTD/svg11.dtd">
<svg version="1.1" id="Layer_1" xmlns="http://www.w3.org/2000/svg" xmlns:xlink="http://www.w3.org/1999/xlink" x="0px" y="0px"
	 width="1152px" height="1152px" viewBox="0 0 1152 1152" enable-background="new 0 0 1152 1152" xml:space="preserve">
<g>
	<path d="M996.39,655.532c-1.529,3.023-3.076,16.963,1.529,18.185c4.623,1.222,12.841-14.555,10.292-19.389
		C1006.805,651.7,997.919,652.465,996.39,655.532z"/>
	<path d="M576,0C257.884,0,0,257.884,0,576s257.884,576,576,576s576-257.884,576-576S894.116,0,576,0z M944.175,197.547
		c8.344,8.119,16.418,16.514,24.212,25.166c-3.86,0.313-9.281,0.682-12.585,0.292c-5.106-0.624-10.767,3.639-15.39,4.843
		c-4.614,1.23-5.66-7.277-8.218-10.925c-2.575-3.639-3.604-10.283,3.085-13.931C937.783,201.63,941.011,199.663,944.175,197.547z
		 M855.378,193.799c9.782-2.399,21.366-8.411,28.046-14.458c6.688-6.082,9.765-13.368,11.812-15.188
		c0.481-0.426,2.834-1.875,6.314-3.872c11.037,8.655,21.716,17.744,32.021,27.234c0.192,2.024,2.233,5.743-3.434,12.427
		c-9.237,10.925-13.852,3.639-21.059,10.925c-7.189,7.269-2.048,7.884,4.641,10.31c6.671,2.435,1.02,9.712-0.519,11.514
		c-1.538,1.828-9.246,8.534-8.209,13.368c1.028,4.834-5.142,7.884-5.142,7.884s-18.993,4.852-22.588,5.458s-4.632-3.032-3.595-6.671
		s-4.113-12.146-4.623-17.587c-0.51-5.467-8.2,2.408-8.728,6.082c-0.501,3.639-10.274,4.201-15.908,1.802
		c-5.66-2.443-8.736-11.531-7.69-13.351c1.011-1.828-3.076-10.925-3.076-13.342C833.643,213.891,845.622,196.242,855.378,193.799z
		 M744.293,374.019c2.039-1.775,4.096-4.825,2.558-10.274c-1.529-5.467-2.558-17.604,2.575-20.021c5.142-2.426,17.446,0,23.616,0
		s16.717,2.531,18.483-1.23c2.558-5.449,3.586-11.496,3.076-16.98c-0.519-5.449-10.775-10.31-17.446-11.505
		c-6.68-1.204-5.669-4.843,1.529-5.467c7.207-0.598,6.688-3.647,12.841-4.843c6.144-1.213,12.322-3.023,16.945-3.656
		c4.614-0.598,4.614-5.449,4.614-9.088c0-3.63,12.85-4.869,12.85-4.869s7.172-7.857,11.276-11.496
		c4.122-3.639,11.294-2.997,16.945-1.178c5.66,1.802-0.51-4.219-2.566-7.242c-2.065-3.041-0.501-9.624,1.028-13.271
		c1.538-3.639,10.775-5.291,13.368-4.078c2.549,1.213,0,7.014,0.492,11.865c0.519,4.86,4.623,8.578,4.623,8.578l4.122,0.738
		c0,0,0,0,6.662,0c6.688,0,7.022-1.195,12.155-3.032c5.133-1.828,8.903-0.888,10.951-2.109c2.039-1.195,7.682-1.195,15.398,1.819
		c7.69,3.041,3.586-5.467,5.124-10.31c1.547-4.852,4.623-13.342,9.765-12.744c5.133,0.615,9.255,4.236,13.351,1.239
		c4.104-3.059-7.69-7.312-7.69-9.123c0-1.819,9.756-1.819,18.466-2.426c8.314-0.594,13.37-0.061,17.393-1.038
		c74.317,86.577,121.063,197.505,126.632,319.178c-6.867,3.18-14.514,7.653-16.17,8.822c-2.575,1.837-16.444,6.662-20.54,4.878
		c-4.113-1.837-5.651-13.975-7.207-23.08c-1.529-9.079-3.568-13.939-5.106-17.569c-1.538-3.647-10.784-13.368-12.85-15.188
		c-2.065-1.802-7.172-16.356-7.69-22.438c-0.527-6.064-6.161-3.656-7.172-10.31c-1.055-6.688-6.706-15.776-7.726-20.03
		c-1.011-4.245-2.092,0.299-6.196,0.896c-4.122,0.624-14.221-10.072-13.201-19.811c0.36-3.428,0.264-4.729,0.211-5.062
		c0.105,0.492,0.729,2.145,3.278,2.145c5.15,0,3.067-3.041,8.209-9.088c5.124-6.073,6.688-18.185,7.163-26.086
		c0.536-7.884-3.595-4.263-7.673-3.032c-4.104,1.204-10.266,3.032-12.313,2.426c-2.057-0.624-10.283-3.656-11.821-1.819
		c-1.547,1.819-10.266,0.598-12.313-2.426c-2.048-3.032-12.34-6.688-13.368-9.097c-1.02-2.435,0-16.972-2.065-20.646
		c-2.039-3.63-6.636,0.624-9.229,3.05c-2.558,2.426-9.738,4.254-7.699,6.029c2.065,1.872,8.745,5.484,8.218,10.327
		c-0.519,4.869-5.133,6.1-7.69,8.499c-2.566,2.426-11.927,12.032-13.456,9.009c-1.547-3.041-2.479-22.351-4.017-24.768
		c-1.529-2.399-6.152-8.473-7.699-13.957c-1.529-5.458-7.172-7.277-10.767-11.531c-3.595-4.228-13.878-10.907-17.965-15.75
		c-4.131-4.852-11.312-8.49-11.83-2.443c-0.501,6.064,7.207,7.286,10.283,13.351c3.085,6.056,9.765,9.712,13.333,11.522
		c3.595,1.837,13.359,9.712,13.359,9.712s-4.096,1.819-7.699,1.204c-3.595-0.58,2.013,13.078,1.521,17.323
		c-0.527,4.245-6.662-1.556-7.69-6.398c-1.02-4.86-4.113-10.31-6.152-12.129c-2.048-1.828-15.407-6.68-17.455-7.875
		c-2.057-1.239-10.784-7.901-11.795-13.359c-1.055-5.458-8.754-6.064-10.802-4.852c-2.057,1.222-9.765,7.875-13.359,7.875
		c-3.568,0-9.22-3.023-13.342-3.639c-4.104-0.606-4.623,7.893-6.152,12.735c-1.556,4.869-8.209,1.239-11.804,5.484
		c-3.595,4.254-9.773,8.481-8.235,12.129c1.556,3.63,4.131,3.63-0.501,6.662c-4.632,3.015-7.198,9.114-11.804,9.694
		c-4.623,0.624-10.775,3.05-13.359,1.23c-2.566-1.811-4.614,6.056-6.161,7.866c-1.538,1.863-4.113-5.44-6.68-8.473
		c-2.558-3.023-9.22-0.624-11.276-1.204c-2.057-0.615-4.122-6.1-6.68-8.499C741.709,381.34,742.245,375.891,744.293,374.019z
		 M313.368,117.85c2.611,0.844,4.558,1.777,4.278,2.437c-0.694,1.617-1.714,4.043-8.227,4.447c-2.099,0.13-4.735,0.09-7.603-0.05
		C305.635,122.359,309.485,120.08,313.368,117.85z M586.652,727.699c-0.483,3.041-8.701,13.939-16.427,21.243
		c-7.699,7.277-3.076,15.776-2.549,19.397c0.51,3.647-5.15,16.98-3.595,20.021c1.529,3.041-2.065,9.694-5.133,13.957
		c-3.085,4.254-5.159,12.111-7.189,15.768c-2.057,3.621-8.745,2.426-14.889,4.254c-6.152,1.802-9.264,3.639-9.264,3.639
		s-10.758,6.064-16.919,10.934c-6.152,4.825,2.039,13.324-1.037,19.986c-3.076,6.68-5.599,0.721-8.666,8.596
		c-3.085,7.875-5.194,6.583-7.77,8.394c-2.558,1.846-4.087,6.653-4.605,11.531c-0.501,4.86-5.643,9.712-12.331,16.98
		c-6.671,7.286-10.793,6.082-17.965,3.656c-7.198-2.426-6.161-23.062-7.198-20.039c-1.011,3.032-4.553,13.535-3.533,15.381
		c1.037,1.802,8.156,8.903,10.731,10.723c2.566,1.819,2.048,4.852,0,7.893c-2.065,3.015-7.69,13.957-9.756,14.537
		c-2.048,0.624-17.965,3.05-21.041,1.239c-3.085-1.819-4.614,4.245-4.104,7.875c0.51,3.639,3.076,7.866-2.575,6.671
		c-5.66-1.195-13.359-5.476-13.359-2.435c0,3.059,1.547,9.721,4.632,9.721c3.067,0,6.152-2.426,4.623,1.811
		c-1.556,4.254-5.651,7.893-7.708,9.721c-2.057,1.819-4.614,7.857-9.756,12.111c-5.133,4.263-5.133,6.68-4.104,8.499
		c1.037,1.837,8.728,0.606,10.266,1.837c1.538,1.195-1.538,9.694-3.604,11.531c-2.021,1.811-10.767,10.283-14.361,12.709
		c-3.612,2.443-3.612,9.712-2.566,13.351c1.02,3.647,9.237,12.735,13.852,14.572c4.623,1.819,14.396,1.204,13.359,3.015
		c-1.028,1.819-12.305,3.656-13.86,4.236c-1.529,0.615-9.765,3.059-13.86,3.059c-4.113,0-11.821-4.869-13.377-4.869
		c-1.512,0,1.055-2.426,6.188-7.277c5.115-4.834-2.057-10.318-3.085-3.63c-1.028,6.671-3.103,8.481-5.651,8.481
		c-2.566,0-5.651-4.245-7.198-6.056c-1.529-1.837-8.2-3.63-7.172-10.925c1.02-7.286-3.085-6.671-6.161-9.721
		c-3.085-3.015,4.104-5.449,3.076-8.49c-1.028-3.006-5.651-1.213-6.161-5.449c-0.519-4.236,4.104-10.327,4.632-12.129
		c0.501-1.828-3.085-5.458-3.604-8.481c-0.519-3.059,2.057-6.073,5.643-10.907c3.595-4.878,6.161-10.934,6.161-12.762
		c0-1.811-2.566-8.49-2.566-13.359c0-4.834,2.566-6.653,3.604-13.324c1.02-6.688-3.604-4.236-3.604-9.712
		c0-5.449,5.142-3.63,4.104-9.088c-1.02-5.458,2.584-9.105,4.122-12.744c1.521-3.639,3.076-9.721,5.124-13.948
		c2.057-4.263-2.048-13.948-2.048-15.794c0-1.811,6.671-4.228,3.595-7.866c-3.085-3.647,2.672-4.852,5.774-7.901
		c3.076-3.032-2.18-13.351-0.642-24.249c1.538-10.951,3.085-29.733,3.085-31.553c0-1.828,0.501-9.097-2.065-13.957
		c-2.558-4.843-5.643-8.49-9.237-10.327c-3.586-1.802-8.209-7.277-10.784-7.866c-2.566-0.606-18.114-5.722-18.114-14.229
		c0-8.49-5.502-15.495-6.521-21.56c-1.037-6.073-8.736-19.415-9.264-25.479c-0.501-6.056-11.285-7.875-12.823-14.572
		c-1.529-6.662,2.294-10.995,3.305-15.24c1.028-4.254-0.738-13.852-1.239-16.893c-0.527-3.032,4.623-13.034,7.699-14.871
		c3.059-1.828,8.728-8.183,10.767-8.183c2.057,0,1.556-6.68,3.595-13.359c2.074-6.645-1.02-15.75-2.558-16.989
		c-1.529-1.204-3.076-9.079-5.651-11.505c-2.566-2.426-7.69-1.222-7.69-1.222s1.002,5.467-3.612,8.508
		c-4.614,3.015-5.643-0.624-7.172-2.426c-1.547-1.828-7.198-2.435-9.756-5.467c-2.575-3.032-6.671-7.295-9.765-9.097
		c-3.076-1.819-10.564-3.401-10.055-10.688c0.51-7.26-3.806-11.742-5.862-12.973s-6.17-4.245-8.728-2.435
		c-2.566,1.828-7.181-3.639-10.784-3.023c-3.586,0.598-10.775-7.286-13.351-10.318c-2.558-3.041-4.605-7.304-9.22-7.304
		c-4.641,0-5.142,1.837-8.227,6.082c-3.076,4.254-7.708-3.023-9.246-4.852c-1.529-1.802-9.026,1.213-14.669,1.213
		s-8.227-11.575-8.429-13.931c-0.773-9.062-16.427-9.105-20.013-11.531c-3.612-2.443-7.207-11.549-5.678-13.948
		c1.547-2.435-2.549-10.327-2.549-10.327s-7.189-9.703-9.747-9.703c-2.575,0-10.784-16.972-15.425-21.85
		c-4.623-4.834-15.381-15.776-17.446-21.234c-2.039-5.449-2.558-13.939-7.69-9.668c-5.142,4.219-1.046,8.464,4.087,13.315
		c5.142,4.86,4.122,9.721,11.303,16.383c7.189,6.68,4.113,13.342,7.189,16.374s13.86,10.318,9.237,15.161
		c-4.605,4.878-9.237-6.064-11.303-6.662c-2.048-0.615-6.662-1.819-6.152-5.467c0.519-3.63-4.096-6.68-7.699-12.129
		c-3.586-5.449-5.133-2.426-9.747-2.426s-0.51-6.671,2.039-9.703c2.575-3.032-2.549-7.304-5.634-8.49
		c-3.085-1.23-7.207-15.152-11.294-23.66c-4.104-8.508-7.198-12.727-11.804-12.146c-1.715,0.231-3.843-0.258-5.998-1.087
		c33.156-100.572,95.715-187.777,177.506-251.444c0.599,0.835,1.123,1.714,1.504,2.615c2.057,4.869,2.566,3.647,6.671,0.624
		c4.113-3.05,5.124-2.443,8.736,0.58c3.595,3.041,1.02,9.105,1.02,10.942c0,1.828,5.15,0,6.161-3.63
		c1.028-3.647,5.133-3.647,7.717-4.869c2.558-1.222,2.558-8.499,2.558-8.499s-6.671-1.819-13.359-1.213
		c-5.819,0.522-8.125-0.332-12.03-3.391c6.565-4.89,13.246-9.633,20.041-14.22c-1.398,7.788-2.002,6.628,5.349,4.91
		c7.004-1.669,0.854-8.344,2.368-10.011c0.135-0.088,0.271-0.176,0.406-0.264c0.09-0.033,0.19-0.06,0.302-0.079
		c3.595-0.598,12.832-2.417,15.917-1.828c3.076,0.633,20.021-1.811,24.144-1.811c4.087,0,10.758,4.254,15.39,7.286
		c4.632,3.023,16.954,7.277,20.013,9.097c3.085,1.819,24.653,5.449,26.701,6.064c2.065,0.633,2.065,7.884,4.104,13.957
		c2.065,6.064,7.708,1.828,9.765,1.828c2.048,0,9.246,4.236,11.303,7.277c2.048,3.041,17.464,5.44,17.464,5.44
		s-3.604,5.467-5.142,7.277c-1.538,1.828-5.133,3.05-8.218,5.467c-3.085,2.426-6.688-0.606-10.793-3.639
		c-4.104-3.015-11.294-4.843-12.832-3.639c-1.547,1.213-0.492,3.639,0.519,5.476c1.02,1.802,7.699,4.228,11.804,7.884
		c4.104,3.621,3.094,7.277,3.612,12.12c0.492,4.852-4.122-1.828-9.255-3.032c-5.142-1.195-5.643,4.843-5.643,4.843
		s-6.688-0.589-9.765-0.589s0,0-5.634-4.878c-5.651-4.843-4.623,3.059-7.708,0.624c-3.076-2.435-6.152-6.056-7.708-4.843
		c-1.538,1.23-6.671-5.449-9.756-4.869c-3.076,0.624-15.398-1.811-18.483-0.58c-3.085,1.204-5.651,1.204-8.209,2.399
		c-2.566,1.23-3.604-8.499-2.057-11.505c1.538-3.05,5.142-3.656,11.804-1.837c6.68,1.837,7.198,0,8.745-3.032
		c1.529-3.015,3.076-6.047,10.257-8.481c7.189-2.443-0.519-4.263-2.558-5.476c-2.065-1.195-4.623-3.639-6.17,0
		c-1.529,3.647-5.133,7.91-5.133,7.91s-4.104,0-9.765-0.615c-5.643-0.615-1.538-3.032,1.046-4.263
		c2.558-1.204,5.643-8.49,3.059-10.292c-2.549-1.837-3.586-3.05-8.209-1.837s-1.538-4.254-4.623-6.064
		c-3.076-1.819-2.048,1.213-2.048,3.647c0,2.417-4.614,1.811-4.614,1.811s-7.207-1.222-9.765,0c-2.566,1.23-7.189,3.639-5.643,5.467
		s6.671,1.828,8.2,7.269c1.547,5.476-6.653,6.697-8.2,7.277c-1.547,0.633-7.699,3.05-7.699,3.05s-6.152-1.828-11.294-1.828
		s-6.671,0.606-5.651,3.041c1.02,2.417,3.595,1.204,5.133,1.204s1.538,3.05,6.152,1.811c4.641-1.187,3.604-3.015,7.708,1.828
		s8.227,4.236,14.897,8.517c6.653,4.236-1.046,9.097-4.623,9.097c-3.595,0-3.595-3.647-5.66-7.277
		c-2.048-3.647-10.248,0.58-10.248,0.58s-6.688,4.28-10.266,4.28c-3.604,0-6.17-0.642-1.556-4.86
		c4.623-4.271-5.643-4.869-5.643-10.925c0-6.064-2.953,10.31-2.953,13.342s-3.208-3.656-11.936-2.417
		c-8.736,1.204-7.198,4.86-18.492,13.315c-11.294,8.499-8.332,6.521-7.321,14.432c1.046,7.866-1.907,9.237,2.698,10.441
		c4.623,1.222,3.085,10.31,6.68,9.712c3.604-0.58,6.161-3.639,13.359,0.598c7.172,4.263,10.767,5.458,19.503,7.295
		c8.728,1.811,12.973,0.773,17.596-0.457c4.623-1.195,9.114,4.702,9.114,8.965c0,4.245,3.076,4.852,2.558,10.31
		c-0.51,5.44,5.651-4.869,5.651-4.869s2.558,9.105,0.492,10.31c-2.03,1.222,0.519,6.653,3.085,6.082
		c2.584-0.624,6.17,1.819,9.246-1.213c3.085-3.05-1.538-12.138-1.538-15.768c0-3.656-3.094-5.476-4.632-9.114
		c-1.529-3.639,4.122-4.245,6.17-0.606c2.065,3.621,5.66,0.606,9.237-2.426c3.604-3.05,3.604-8.508,3.604-8.508
		s-6.161-9.686-10.775-12.12c-4.632-2.426-2.575-3.05,2.039-4.245c4.623-1.213,0-3.05,1.037-9.712
		c1.02-6.662,1.02-10.916,3.586-10.916c2.584,0,11.821-1.828,19.521-1.204c7.708,0.606,11.294,7.26,16.427,7.884
		c5.124,0.589,13.333,1.811,14.889,4.834c1.547,3.032-9.088,4.939-5.476,9.782c3.577,4.834,7.532,2.979,11.127,4.799
		c3.604,1.811,7.69,0.589,12.313-6.68c4.623-7.277,6.671-7.901,8.209-6.671c1.564,1.204,11.32,14.563,13.878,17.613
		c2.566,3.015,5.027,11.83,5.555,14.871c0.519,3.006,10.345,0.87,12.41,0.87c2.03,0,9.747,6.697,10.767,10.327
		c1.046,3.63,3.094,4.852,9.756,6.68c6.688,1.802,0,8.473-1.538,12.094c-1.529,3.665-2.558,4.878-4.614,9.114
		c-2.057,4.263,0,0,2.566,1.828c2.566,1.819,3.586,4.236,7.717,3.032c4.096-1.213,6.161,0,7.69,3.656
		c1.538,3.621,3.604,6.671,5.133,9.677c1.547,3.041,0,7.919-2.048,4.869c-2.048-3.041-8.736-1.222-8.736-1.222
		s-3.076,3.639-4.113,1.819c-1.011-1.819-3.076-4.228-6.671-3.023s-7.181,0-11.285,0.598c-4.122,0.606-5.66-2.408-3.085-4.852
		c2.575-2.399,3.085-11.522,8.209-15.161c5.142-3.639,3.604-9.088,0-9.088c-3.595,0-5.124,5.449-7.189,6.68
		c-2.057,1.187-9.07-2.268-12.665,0.765c-3.586,3.05-9.396,5.282-5.801,6.486c3.577,1.239-5.133,6.073-8.218,6.073
		s-2.048-7.875-2.048-10.916s-4.104,1.811-4.104,1.811s-8.235-5.449-11.32-1.811c-3.076,3.639-14.15,2.092-17.754,5.739
		c-3.595,3.63-5.344,13.061-5.344,13.061s3.103-1.828,9.255-3.639c6.152-1.837,5.643-1.195,10.767-4.245
		c5.142-3.032,10.274-4.245,13.878,1.222c3.586,5.467-1.547,8.481-1.547,8.481s2.065,4.271,4.096,5.458
		c2.074,1.239,2.575-1.187,6.17-3.639c3.595-2.426,2.065,4.878,3.085,7.286c1.028,2.426,4.623,2.426,6.662-0.615
		c2.057-3.032,3.604-5.449,5.15-3.63c1.521,1.837,3.076,6.073,4.605,10.31c1.538,4.245-10.767,5.467-12.823,6.1
		c-2.048,0.571-11.812,3.006-13.351,3.612c-1.529,0.589-6.68,6.056-10.784,6.056c-4.087,0-3.612-7.269-4.087-11.522
		c-0.536-4.245-5.669,0.606-6.179,2.426c-0.51,1.828-5.142,1.239-8.728,1.828c-3.595,0.606-9.756,4.843-9.756,9.694
		c0,4.86,7.251,10.055,5.695,12.489c-1.521,2.426-13.403,1.485-17.007,0.255c-3.577-1.213-8.719,1.811-7.163,4.263
		c1.529,2.417,0.51,6.056-3.094,5.449c-3.595-0.598-4.096,3.647-2.566,6.662c1.547,3.041-4.614,9.088-6.161,6.662
		c-1.547-2.399-4.632-3.621-4.632,0c0,3.639,3.032,8.71,6.117,13.535c3.067,4.852-8.666,5.915-12.261,9.545
		c-3.604,3.647-11.61,16.102-16.743,18.545c-5.142,2.399-9.439,9.967-6.882,12.973c2.575,3.032,5.66,15.776,7.198,20.03
		c1.538,4.245-0.536,16.374-5.142,15.776c-4.614-0.606-2.057-7.884-6.688-9.694c-4.605-1.837-7.181-12.744-8.2-20.039
		c-1.02-7.277-2.057-3.041-5.142-0.615c-3.076,2.417-6.152-4.834-7.682-6.662c-1.556-1.802-9.176,3.551-15.328,2.927
		c-6.152-0.58-9.334,0.721-9.334,2.54c0,1.811-1.011,7.269-6.671,3.612c-5.643-3.612-6.688-3.612-12.322-3.612
		c-5.643,0-10.784-0.615-11.795,1.811c-1.037,2.435-6.68,7.893-10.283,9.105c-3.595,1.222-10.274,7.286-7.189,8.508
		c3.094,1.195,3.094,9.686,1.037,14.537c-2.065,4.86-1.547,13.342-0.527,21.841c1.028,8.49,7.198,13.948,12.841,19.424
		c5.66,5.458,7.708,7.277,13.342,2.417c5.66-4.843,7.699-1.811,9.255-1.213c1.538,0.606,5.643-3.041,4.096-8.499
		c-1.529-5.44,2.057-10.31,6.688-9.703c4.605,0.624,11.285-1.811,14.88-1.195c3.595,0.589,5.651,12.111,0,16.963
		c-5.66,4.86-2.575,12.146-3.595,17.604c-1.02,5.449-5.643,6.645,0,6.645c5.651,0,4.104,1.257,7.708,1.837
		c3.586,0.606,7.198-3.621,10.784-4.263c3.577-0.571,12.832,9.123,11.285,13.983c-1.529,4.852-3.067,13.333-2.558,21.217
		c0.51,7.893,2.558,8.508,3.586,10.925c1.046,2.417,5.124,7.893,9.756,5.467c4.614-2.426,9.229-4.245,10.767-6.671
		c1.556-2.426,11.312,4.245,10.292,6.064c-1.037,1.819,3.577,3.656,6.662,1.819c3.085-1.819,4.632-4.852,7.708-9.712
		c3.076-4.852,8.218-9.114,10.793-9.703c2.549-0.598,8.719-7.884,12.832-6.662c4.104,1.204-1.556,7.251-2.065,10.916
		c-0.51,3.63,0,13.948,2.065,14.546c2.03,0.615,1.02-7.269,3.586-12.727c2.558-5.484,7.69-8.517,10.274-8.517
		c2.558,0,4.623,12.762,8.2,9.123c3.604-3.647,10.784-3.05,12.331,0.589c1.538,3.647,3.076,5.467,3.076,5.467
		s2.566-2.417,2.566-5.467c0-3.015,8.218-6.064,13.368-2.417c5.124,3.621,3.076,4.852,5.634,5.467
		c2.558,0.598,5.133-7.884,6.671-8.508c1.547-0.606,0,9.721-3.595,15.161c-3.586,5.476,3.085,3.656,3.085,3.656s0,0,1.547,1.819
		c1.521,1.819,6.653-1.819,8.719,1.819c2.057,3.647,5.66,4.852,8.736,11.531c3.076,6.662,6.592,0.765,12.753-0.448
		c6.17-1.23,14.968,7.734,21.129,15.601c6.161,7.884,5.142,13.957,9.237,13.957c4.113,0,5.133,6.671,5.133,9.079
		c0,2.443-9.229,7.928-14.37,9.114c-5.133,1.222-5.133,7.321,3.076,5.476c8.218-1.819,4.623-5.476,9.747-7.277
		c5.15-1.846,10.283,2.426,5.669,9.703c-4.632,7.26-13.878,7.866-5.669,9.07c8.227,1.23,3.604-1.204,8.227-8.473
		c4.605-7.277,4.096-4.843,7.198-4.843c3.067,0,9.729,1.819,12.313,4.245c2.575,2.426,9.229,6.056,13.342,9.07
		c4.104,3.05,9.246,1.837,12.305,0.633c3.094-1.222,11.821,3.639,14.906,8.473c3.076,4.878,10.784,5.476,14.353,7.304
		c3.604,1.802,9.272,9.079,9.756,15.152C593.341,711.949,587.171,724.667,586.652,727.699z M684.729,66.498
		c-7.207,2.435-20.347,18.202-22.86,20.61c-2.487,2.443-6.557,6.873-4.377,12.964c2.188,6.082,5.019,3.243,7.198,4.43
		c2.206,1.222-1.881,3.639-3.753,7.295c-1.898,3.621-2.188,10.485-1.898,16.989c0.343,6.46-12.023-2.839-18.606-2.03
		c-6.565,0.826-3.586,9.694-2.329,12.524c1.248,2.821,2.18,6.873,3.437,8.508c1.239,1.6,2.197,7.673-4.069,9.308
		c-6.258,1.591-8.438-3.647-8.13-7.708c0.29-4.034-11.136-8.824-12.366-8.824c-1.248,0-0.483,12.48,4.228,12.48
		c4.685,0,7.831,5.643,10.011,8.095c2.188,2.408-4.693,2.408-7.506,2.004c-2.821-0.387-11.593,5.678-19.723,7.277
		c-8.147,1.617-17.183-0.343-20.61,0.062c-3.463,0.396-8.807,12.489-10.072,14.511c-1.239,2.03-12.498,0-16.576,0
		c-4.061,0-7.515,5.256-14.08,6.451c-6.565,1.222-3.12,6.1-2.821,10.116c0.308,4.043-1.872,6.073-5.95,4.86
		c-4.069-1.204-3.744,1.617-4.069,5.256c-0.308,3.656,0.624,8.499-3.12,12.129c-3.762,3.621-5.317,4.852-9.694,4.438
		c-4.386-0.396-4.069-9.272-5.634-8.886c-1.573,0.422-9.088,6.047-10.345,2.821c-1.248-3.234-10.96-10.521-14.396-12.138
		c-3.428-1.635-5.933-8.517-7.506-11.329c-1.564-2.856,4.702-3.278,2.804-3.691c-1.854-0.378-8.438-2.496-9.677-4.509
		c-1.239-2.021-5.317-11.865-5.634-14.695c-0.316-2.848,5.001-7.972,5.001-9.615c0-1.591-5.001-2.162-7.189-2.162
		s-4.711-7.233-1.564-13.289c3.129-6.082,7.813-6.75,7.813-6.75s2,0,4.356,0c-2.724-2.11-7.944-2.836-9.041-1.037
		c-1.257,1.986-6.574,10.485-8.147,8.455c-1.564-2.03-1.863-20.215-4.693-25.479c-2.83-5.247-12.814-6.882-16.893-9.308
		s-18.773-4.834-21.278-5.238c-2.522-0.404-11.9,2.426-15.653,0.791c-3.771-1.582-3.771-9.694-3.771-9.694s-2.18,8.499-3.744,10.907
		c-1.564,2.435-5.01,3.674-7.488,2.435c-2.522-1.204-6.275-10.107-10.969-11.329c-4.702-1.187-6.882,0.809-10.644-2.426
		c-5.625-4.843,9.694-4.456,10.644-4.456c0.932,0,12.832-2.821,13.14-6.873c0.308-4.017,4.078-8.086,9.404-6.864
		c4.42,1.01,6.676-2.746,6.949-6.822C457.082,58.236,515.345,48,576,48c22.7,0,45.064,1.434,67.01,4.213
		c2.208,5.058,4.363,10.479,9.49,11.85c6.543,1.772,10.241-2.615,15.446-8.078c8.108,1.424,16.151,3.035,24.128,4.825
		C690.403,63.219,687.759,65.471,684.729,66.498z M1091.874,625.781c-0.501,5.476-9.237,15.196-14.871,16.4
		c-5.66,1.204-17.49,18.193-21.577,23.651c-4.122,5.458-10.793,17.578-13.869,18.8c-3.067,1.213-5.467,17.341-3.911,19.758
		c1.538,2.426,1.846,13.614,6.486,18.475c4.623,4.834,6.152,8.473,4.096,12.735c-2.048,4.219,1.046,13.948,0,21.832
		c-1.02,7.866-9.738,15.741-11.804,18.149c-2.03,2.443-11.804,9.149-15.908,15.214c-4.122,6.064-7.699,11.522-6.68,14.555
		c1.002,3.041,5.133,18.193,4.597,21.823c-0.475,3.656-14.098,5.511-18.211,7.945c-4.113,2.408,1.819,10.266,2.839,15.117
		c1.028,4.852-7.189,12.771-10.793,16.972c-3.604,4.28-13.368,18.809-20.004,24.284c-6.688,5.467-16.304,4.359-22.983,3.753
		c-6.662-0.606-17.596,5.353-20.162,8.385c-2.575,3.041-6.152,2.426-11.285-0.598c-5.159-3.041-5.66-7.286-6.17-13.983
		c-0.519-6.662-2.039-10.916-2.039-10.916s-1.547-10.292-6.179-15.126c-4.614-4.887-6.17-10.345-8.719-14.001
		c-2.566-3.621,4.746-13.975,4.228-20.654c-0.519-6.662-9.378-14.502-11.927-18.756c-2.584-4.245-7.717-15.776-9.765-20.03
		c-2.039-4.245-4.632-12.727-4.113-24.847c0.519-12.138,5.73-19.248,9.844-22.887c4.131-3.621,2.505-8.06-1.107-15.311
		c-3.595-7.304,0.536-19.468-2.575-23.678c-3.067-4.236-7.831-27.949-13.491-31.579c-5.66-3.647-11.663-3.604-8.578-12.103
		c3.076-8.499,0-16.98,5.133-22.456c5.133-5.449,2.566-9.079-3.076-12.727c-5.651-3.656-3.604-5.467-8.209-1.213
		c-4.649,4.245-10.802,6.671-14.37,2.417c-3.612-4.254-2.575-10.907-9.255-15.768c-6.671-4.843-17.376-3.199-19.951-1.986
		c-2.549,1.23-7.778,11.707-14.977,12.894c-7.163,1.239-12.305-0.598-19.494-0.598c-7.198,0-13.351,0.598-14.379,4.852
		c-1.011,4.254-2.558,6.68-7.181,2.435c-4.632-4.245-13.86-13.957-13.86-13.957s-8.534-16.734-11.118-24.038
		c-2.558-7.26-11.47-7.515-21.234-12.973c-9.765-5.449-4.113-11.531-5.133-17.578c-1.02-6.073-6.152-8.499-3.595-9.114
		c2.575-0.633,2.065-4.825,7.69-13.342c5.66-8.481,2.065-17.596,1.037-22.465c-1.037-4.825-6.152-12.103-1.037-19.995
		c5.133-7.884,8.367-26.692,12.454-31.553c4.122-4.86,16.312-9.703,21.955-12.727c5.651-3.05,2.057-10.934,5.124-20.013
		c3.085-9.105,7.717-13.342,9.264-13.342c1.538,0,7.242-6.311,13.333-10.301c4.614-3.05,15.407,0.571,17.464-0.624
		c2.065-1.187,10.257-4.254,14.897-6.688c4.614-2.408,19.503-8.499,21.551-8.499s27.703,0.642,31.315-1.213
		c3.595-1.802,17.481-4.377,21.586,8.965c4.104,13.324-4.641,8.06-8.728,10.441c-4.131,2.452,1.538,7.919,3.568,7.919
		c2.065,0,9.246,7.875,12.841,7.875c3.586,0,12.331,4.254,12.331,4.254s8.701,7.884,13.351,7.884c4.605,0,12.437,9.396,17.569,3.357
		c5.124-6.073,7.576-18.51,12.718-17.306c5.124,1.213,10.784,6.064,17.446,6.064c6.671,0,19.011-1.222,21.059,1.819
		c2.074,3.032-13.86,13.342-12.85,15.776c1.046,2.417,3.094,1.811,8.227-5.467c5.124-7.277,12.832-7.277,19.002-9.079
		c6.161-1.837,9.264,9.668,10.266,13.315c1.028,3.647,5.651,10.318,9.237,18.211c3.604,7.866,7.181,18.782,11.303,27.29
		c4.104,8.499-0.483,25.541,3.63,30.999c4.104,5.467,14.862,10.257,17.411,17.525c2.575,7.277,8.728,14.572,10.793,15.161
		c2.057,0.624,10.775,14.563,11.285,18.193c0.51,3.647-3.076,11.549,5.124,12.146c8.244,0.615,15.425-4.263,17.991-5.449
		c1.638-0.782,10.435-4.794,17.224-6.628c0.011,1.38,0.026,2.758,0.026,4.141c0,9.573-0.262,19.085-0.765,28.533
		C1098.645,612.232,1092.2,622.224,1091.874,625.781z"/>
	<path d="M475.989,156.393c-1.248,3.226,1.881,5.142,3.753,6.75c1.89,1.617,2.812-2.821,3.129-5.66
		c0.281-2.507-3.634-8.208-6.051-11.44C477.429,148.934,476.879,154.125,475.989,156.393z"/>
	<path d="M970.708,353.417c3.085,1.204,0,12.146,0,12.146c1.028,2.426,6.161-3.647,10.257-3.647c4.113,0,13.359,1.828,15.935-2.435
		c2.566-4.236,10.784-4.86,17.455-3.63c6.662,1.204,12.34,6.662,16.945,7.277c4.623,0.615,16.928-0.615,21.05-1.819
		c4.078-1.195,3.076-9.712-3.595-13.939c-6.68-4.245-12.331-10.934-18.492-13.359c-6.161-2.408-8.218-4.852-4.623-6.056
		c3.604-1.204,8.227-6.073,3.076-6.073c-5.142,0-9.747,1.837-10.283,4.869c-0.475,3.015-3.595,6.653-5.616,7.875
		c-2.057,1.222-7.189,6.064-8.728,2.417c-1.547-3.639-7.189-14.563-9.765-15.161c-2.558-0.589-6.68,0-9.765,6.073
		c-3.076,6.056-6.671,12.146-9.747,14.537C971.736,344.936,967.649,352.213,970.708,353.417z"/>
</g>
</svg>
