<?xml version="1.0" encoding="utf-8"?>
<!-- Generator: Adobe Illustrator 16.0.0, SVG Export Plug-In . SVG Version: 6.00 Build 0)  -->
<!DOCTYPE svg PUBLIC "-//W3C//DTD SVG 1.1//EN" "http://www.w3.org/Graphics/SVG/1.1/DTD/svg11.dtd">
<svg version="1.1" id="Layer_1" xmlns="http://www.w3.org/2000/svg" xmlns:xlink="http://www.w3.org/1999/xlink" x="0px" y="0px"
	 width="1152px" height="1152px" viewBox="0 0 1152 1152" enable-background="new 0 0 1152 1152" xml:space="preserve">
<g>
	<path d="M996.39,655.532c-1.528,3.022-3.075,16.963,1.529,18.185c4.623,1.223,12.841-14.555,10.292-19.389
		C1006.805,651.7,997.919,652.465,996.39,655.532z"/>
	<path d="M576,0C257.884,0,0,257.884,0,576s257.884,576,576,576s576-257.884,576-576S894.116,0,576,0z M944.175,197.547
		c8.344,8.119,16.418,16.514,24.212,25.166c-3.859,0.313-9.281,0.682-12.585,0.292c-5.105-0.624-10.767,3.639-15.39,4.843
		c-4.614,1.23-5.66-7.277-8.218-10.925c-2.575-3.639-3.604-10.283,3.085-13.931C937.783,201.63,941.011,199.663,944.175,197.547z
		 M855.378,193.799c9.782-2.399,21.366-8.411,28.046-14.458c6.688-6.082,9.766-13.368,11.812-15.188
		c0.48-0.426,2.834-1.875,6.313-3.872c11.037,8.655,21.716,17.744,32.021,27.234c0.191,2.024,2.232,5.743-3.435,12.427
		c-9.236,10.925-13.852,3.639-21.059,10.925c-7.189,7.269-2.048,7.884,4.641,10.31c6.671,2.435,1.021,9.712-0.519,11.514
		c-1.538,1.828-9.246,8.534-8.209,13.368c1.028,4.834-5.143,7.884-5.143,7.884s-18.992,4.852-22.588,5.458
		c-3.595,0.606-4.632-3.032-3.595-6.671s-4.113-12.146-4.623-17.587c-0.51-5.467-8.2,2.408-8.728,6.082
		c-0.501,3.639-10.274,4.201-15.908,1.802c-5.66-2.443-8.736-11.531-7.69-13.351c1.011-1.828-3.076-10.925-3.076-13.342
		C833.643,213.891,845.622,196.242,855.378,193.799z M744.293,374.019c2.039-1.775,4.096-4.825,2.558-10.274
		c-1.528-5.467-2.558-17.604,2.575-20.021c5.143-2.426,17.446,0,23.616,0s16.717,2.531,18.483-1.23
		c2.558-5.449,3.586-11.496,3.075-16.98c-0.519-5.449-10.774-10.31-17.445-11.505c-6.681-1.204-5.669-4.843,1.528-5.467
		c7.207-0.598,6.688-3.647,12.842-4.843c6.144-1.213,12.321-3.023,16.944-3.656c4.614-0.598,4.614-5.449,4.614-9.088
		c0-3.63,12.85-4.869,12.85-4.869s7.173-7.857,11.276-11.496c4.122-3.639,11.294-2.997,16.945-1.178
		c5.66,1.802-0.511-4.219-2.566-7.242c-2.064-3.041-0.501-9.624,1.028-13.271c1.538-3.639,10.775-5.291,13.368-4.078
		c2.549,1.213,0,7.014,0.491,11.865c0.52,4.86,4.623,8.578,4.623,8.578l4.122,0.738c0,0,0,0,6.662,0
		c6.688,0,7.022-1.195,12.155-3.032c5.133-1.828,8.903-0.888,10.951-2.109c2.039-1.195,7.682-1.195,15.397,1.819
		c7.69,3.041,3.586-5.467,5.124-10.31c1.547-4.852,4.623-13.342,9.766-12.744c5.133,0.615,9.255,4.236,13.351,1.239
		c4.104-3.059-7.689-7.312-7.689-9.123c0-1.819,9.756-1.819,18.466-2.426c8.313-0.594,13.37-0.061,17.393-1.038
		c74.317,86.577,121.063,197.505,126.632,319.178c-6.866,3.18-14.514,7.653-16.17,8.822c-2.575,1.837-16.443,6.662-20.54,4.878
		c-4.113-1.837-5.65-13.976-7.207-23.08c-1.529-9.079-3.567-13.939-5.105-17.569c-1.538-3.646-10.784-13.368-12.851-15.188
		c-2.064-1.803-7.172-16.356-7.689-22.438c-0.527-6.063-6.161-3.656-7.172-10.31c-1.056-6.688-6.706-15.776-7.727-20.03
		c-1.011-4.245-2.092,0.299-6.195,0.896c-4.122,0.624-14.222-10.071-13.201-19.811c0.359-3.428,0.264-4.729,0.211-5.062
		c0.104,0.491,0.729,2.145,3.278,2.145c5.149,0,3.066-3.041,8.209-9.088c5.124-6.073,6.688-18.186,7.162-26.086
		c0.536-7.884-3.595-4.263-7.673-3.032c-4.104,1.204-10.266,3.032-12.312,2.426c-2.058-0.624-10.283-3.656-11.821-1.818
		c-1.547,1.818-10.266,0.598-12.312-2.426c-2.048-3.032-12.34-6.688-13.368-9.097c-1.021-2.435,0-16.972-2.065-20.646
		c-2.039-3.63-6.636,0.624-9.229,3.05c-2.559,2.426-9.738,4.254-7.699,6.029c2.065,1.872,8.745,5.484,8.218,10.327
		c-0.519,4.869-5.133,6.1-7.689,8.499c-2.566,2.426-11.927,12.032-13.456,9.009c-1.547-3.041-2.479-22.351-4.018-24.768
		c-1.528-2.399-6.151-8.473-7.698-13.957c-1.529-5.458-7.173-7.277-10.768-11.531c-3.595-4.228-13.878-10.907-17.965-15.75
		c-4.131-4.852-11.312-8.49-11.83-2.443c-0.501,6.064,7.207,7.286,10.283,13.351c3.085,6.056,9.765,9.712,13.333,11.522
		c3.595,1.837,13.359,9.712,13.359,9.712s-4.097,1.819-7.699,1.204c-3.596-0.58,2.013,13.078,1.521,17.323
		c-0.526,4.245-6.662-1.556-7.689-6.398c-1.021-4.86-4.113-10.31-6.152-12.129c-2.048-1.828-15.407-6.68-17.455-7.875
		c-2.057-1.239-10.784-7.901-11.795-13.359c-1.055-5.458-8.754-6.064-10.802-4.852c-2.058,1.222-9.766,7.875-13.359,7.875
		c-3.567,0-9.22-3.023-13.342-3.639c-4.104-0.606-4.623,7.893-6.152,12.735c-1.556,4.869-8.209,1.239-11.804,5.484
		c-3.595,4.254-9.772,8.481-8.235,12.129c1.557,3.63,4.132,3.63-0.501,6.662c-4.632,3.015-7.197,9.114-11.804,9.694
		c-4.623,0.624-10.775,3.05-13.359,1.23c-2.565-1.811-4.613,6.056-6.16,7.866c-1.538,1.863-4.113-5.439-6.681-8.473
		c-2.558-3.023-9.22-0.624-11.275-1.204c-2.058-0.615-4.122-6.1-6.681-8.499C741.709,381.34,742.245,375.891,744.293,374.019z
		 M313.368,117.85c2.61,0.844,4.558,1.777,4.278,2.437c-0.694,1.617-1.715,4.043-8.228,4.447c-2.099,0.13-4.735,0.09-7.603-0.05
		C305.635,122.359,309.485,120.08,313.368,117.85z M586.652,727.699c-0.483,3.041-8.701,13.938-16.428,21.243
		c-7.698,7.276-3.075,15.775-2.549,19.396c0.51,3.647-5.149,16.98-3.595,20.021c1.529,3.041-2.065,9.693-5.133,13.956
		c-3.085,4.255-5.159,12.111-7.189,15.769c-2.057,3.621-8.745,2.426-14.889,4.254c-6.152,1.802-9.264,3.639-9.264,3.639
		s-10.759,6.064-16.919,10.935c-6.152,4.825,2.038,13.324-1.037,19.986c-3.076,6.68-5.6,0.721-8.666,8.596
		c-3.085,7.875-5.194,6.583-7.771,8.394c-2.558,1.847-4.087,6.653-4.604,11.531c-0.501,4.86-5.644,9.712-12.331,16.979
		c-6.671,7.286-10.793,6.082-17.965,3.656c-7.198-2.426-6.161-23.062-7.198-20.039c-1.011,3.032-4.553,13.535-3.533,15.381
		c1.037,1.803,8.156,8.903,10.731,10.724c2.565,1.818,2.048,4.852,0,7.893c-2.065,3.016-7.69,13.957-9.757,14.537
		c-2.048,0.624-17.965,3.05-21.041,1.239c-3.085-1.819-4.613,4.245-4.104,7.875c0.51,3.639,3.076,7.866-2.575,6.671
		c-5.66-1.195-13.359-5.476-13.359-2.435c0,3.059,1.548,9.721,4.633,9.721c3.066,0,6.151-2.426,4.623,1.811
		c-1.557,4.254-5.651,7.894-7.708,9.722c-2.058,1.818-4.614,7.856-9.757,12.11c-5.133,4.264-5.133,6.681-4.104,8.499
		c1.037,1.837,8.728,0.606,10.266,1.837c1.538,1.195-1.538,9.694-3.604,11.531c-2.021,1.812-10.768,10.283-14.361,12.709
		c-3.612,2.443-3.612,9.712-2.565,13.352c1.02,3.646,9.236,12.734,13.852,14.571c4.623,1.819,14.396,1.204,13.359,3.016
		c-1.028,1.818-12.306,3.655-13.86,4.235c-1.529,0.615-9.765,3.06-13.86,3.06c-4.112,0-11.82-4.869-13.377-4.869
		c-1.512,0,1.056-2.427,6.188-7.277c5.114-4.834-2.058-10.317-3.085-3.63c-1.028,6.671-3.104,8.48-5.651,8.48
		c-2.565,0-5.651-4.244-7.198-6.056c-1.528-1.837-8.199-3.63-7.172-10.925c1.021-7.286-3.085-6.671-6.161-9.721
		c-3.085-3.016,4.104-5.449,3.076-8.49c-1.028-3.006-5.65-1.213-6.161-5.449c-0.519-4.236,4.104-10.327,4.632-12.129
		c0.501-1.828-3.085-5.458-3.604-8.481c-0.52-3.059,2.057-6.072,5.643-10.906c3.596-4.878,6.161-10.935,6.161-12.763
		c0-1.811-2.565-8.489-2.565-13.358c0-4.834,2.565-6.653,3.604-13.324c1.021-6.688-3.604-4.236-3.604-9.712
		c0-5.449,5.142-3.63,4.104-9.088c-1.02-5.458,2.584-9.105,4.122-12.744c1.521-3.639,3.076-9.721,5.124-13.948
		c2.057-4.263-2.048-13.948-2.048-15.794c0-1.811,6.671-4.228,3.595-7.866c-3.085-3.646,2.672-4.852,5.774-7.9
		c3.076-3.032-2.181-13.352-0.643-24.249c1.538-10.951,3.085-29.733,3.085-31.554c0-1.827,0.501-9.097-2.064-13.957
		c-2.559-4.843-5.644-8.489-9.237-10.326c-3.586-1.803-8.209-7.277-10.784-7.866c-2.565-0.606-18.113-5.723-18.113-14.229
		c0-8.489-5.503-15.495-6.521-21.56c-1.037-6.073-8.736-19.415-9.264-25.479c-0.501-6.056-11.285-7.875-12.823-14.571
		c-1.529-6.662,2.294-10.995,3.305-15.24c1.028-4.254-0.737-13.853-1.238-16.894c-0.527-3.031,4.622-13.033,7.698-14.87
		c3.06-1.828,8.729-8.184,10.768-8.184c2.057,0,1.556-6.68,3.595-13.359c2.074-6.645-1.02-15.75-2.558-16.988
		c-1.529-1.204-3.076-9.079-5.651-11.505c-2.566-2.427-7.69-1.223-7.69-1.223s1.002,5.468-3.611,8.509
		c-4.614,3.015-5.644-0.625-7.172-2.427c-1.547-1.828-7.198-2.435-9.756-5.467c-2.575-3.032-6.671-7.295-9.765-9.097
		c-3.076-1.819-10.564-3.401-10.055-10.688c0.51-7.26-3.806-11.742-5.862-12.973c-2.056-1.231-6.17-4.245-8.728-2.436
		c-2.566,1.828-7.181-3.639-10.784-3.022c-3.586,0.598-10.775-7.286-13.351-10.318c-2.558-3.041-4.605-7.304-9.22-7.304
		c-4.641,0-5.142,1.837-8.227,6.082c-3.076,4.254-7.708-3.023-9.246-4.853c-1.529-1.802-9.026,1.214-14.669,1.214
		s-8.227-11.575-8.429-13.932c-0.773-9.062-16.427-9.104-20.013-11.53c-3.612-2.443-7.207-11.55-5.678-13.948
		c1.547-2.436-2.549-10.327-2.549-10.327s-7.189-9.703-9.747-9.703c-2.575,0-10.784-16.972-15.425-21.85
		c-4.623-4.834-15.381-15.776-17.446-21.234c-2.039-5.449-2.558-13.939-7.69-9.668c-5.142,4.219-1.046,8.464,4.087,13.315
		c5.142,4.859,4.122,9.721,11.303,16.383c7.189,6.68,4.113,13.342,7.189,16.374c3.076,3.031,13.86,10.317,9.237,15.161
		c-4.605,4.878-9.237-6.064-11.303-6.662c-2.048-0.615-6.662-1.819-6.152-5.468c0.519-3.63-4.096-6.68-7.699-12.129
		c-3.586-5.448-5.133-2.426-9.747-2.426c-4.614,0-0.51-6.671,2.039-9.703c2.575-3.031-2.549-7.304-5.634-8.489
		c-3.085-1.23-7.207-15.152-11.294-23.66c-4.104-8.509-7.198-12.728-11.804-12.146c-1.715,0.231-3.843-0.258-5.998-1.087
		c33.156-100.572,95.715-187.777,177.506-251.444c0.599,0.835,1.123,1.714,1.504,2.615c2.057,4.869,2.566,3.647,6.671,0.624
		c4.113-3.05,5.124-2.443,8.736,0.58c3.595,3.041,1.02,9.105,1.02,10.942c0,1.828,5.15,0,6.161-3.63
		c1.028-3.647,5.133-3.647,7.717-4.869c2.558-1.222,2.558-8.499,2.558-8.499s-6.671-1.819-13.359-1.213
		c-5.819,0.522-8.125-0.332-12.03-3.391c6.565-4.89,13.246-9.633,20.041-14.22c-1.398,7.788-2.002,6.628,5.349,4.91
		c7.004-1.669,0.854-8.344,2.368-10.011c0.135-0.088,0.271-0.176,0.406-0.264c0.09-0.033,0.19-0.06,0.302-0.079
		c3.595-0.598,12.832-2.417,15.917-1.828c3.076,0.633,20.021-1.811,24.144-1.811c4.087,0,10.758,4.254,15.39,7.286
		c4.632,3.023,16.954,7.277,20.014,9.097c3.085,1.819,24.652,5.449,26.7,6.064c2.065,0.633,2.065,7.884,4.104,13.957
		c2.064,6.064,7.708,1.828,9.765,1.828c2.048,0,9.246,4.236,11.304,7.277c2.048,3.041,17.464,5.44,17.464,5.44
		s-3.604,5.467-5.143,7.277c-1.538,1.828-5.133,3.05-8.218,5.467c-3.085,2.426-6.688-0.606-10.793-3.639
		c-4.104-3.015-11.294-4.843-12.832-3.639c-1.547,1.213-0.492,3.639,0.519,5.476c1.021,1.802,7.699,4.228,11.805,7.884
		c4.104,3.621,3.094,7.277,3.611,12.12c0.492,4.852-4.121-1.828-9.255-3.032c-5.142-1.195-5.643,4.843-5.643,4.843
		s-6.688-0.589-9.765-0.589c-3.077,0,0,0-5.635-4.878c-5.65-4.843-4.623,3.059-7.708,0.624c-3.075-2.435-6.151-6.056-7.708-4.843
		c-1.538,1.23-6.671-5.449-9.756-4.869c-3.076,0.624-15.397-1.811-18.482-0.58c-3.085,1.204-5.651,1.204-8.209,2.399
		c-2.566,1.23-3.604-8.499-2.058-11.505c1.538-3.05,5.143-3.656,11.804-1.837c6.681,1.837,7.198,0,8.745-3.032
		c1.529-3.015,3.076-6.047,10.257-8.481c7.189-2.443-0.519-4.263-2.558-5.476c-2.064-1.195-4.623-3.639-6.17,0
		c-1.529,3.647-5.133,7.91-5.133,7.91s-4.104,0-9.766-0.615c-5.643-0.615-1.537-3.032,1.047-4.263
		c2.558-1.204,5.643-8.49,3.059-10.292c-2.549-1.837-3.586-3.05-8.209-1.837s-1.538-4.254-4.623-6.064
		c-3.076-1.819-2.048,1.213-2.048,3.647c0,2.417-4.614,1.811-4.614,1.811s-7.207-1.222-9.765,0c-2.566,1.23-7.189,3.639-5.643,5.467
		c1.545,1.828,6.67,1.828,8.2,7.269c1.547,5.476-6.653,6.697-8.2,7.277c-1.547,0.633-7.699,3.05-7.699,3.05
		s-6.152-1.828-11.294-1.828s-6.671,0.606-5.651,3.041c1.02,2.417,3.595,1.204,5.133,1.204s1.538,3.05,6.152,1.811
		c4.641-1.187,3.604-3.015,7.708,1.828c4.104,4.843,8.227,4.236,14.897,8.517c6.653,4.236-1.046,9.097-4.623,9.097
		c-3.595,0-3.595-3.647-5.66-7.277c-2.048-3.647-10.248,0.58-10.248,0.58s-6.688,4.28-10.266,4.28c-3.604,0-6.17-0.642-1.556-4.86
		c4.623-4.271-5.643-4.869-5.643-10.925c0-6.064-2.953,10.31-2.953,13.342c0,3.032-3.208-3.656-11.936-2.417
		c-8.736,1.204-7.198,4.86-18.492,13.315c-11.294,8.499-8.332,6.521-7.321,14.432c1.046,7.866-1.907,9.237,2.698,10.441
		c4.623,1.222,3.085,10.31,6.68,9.712c3.604-0.58,6.161-3.639,13.359,0.598c7.172,4.263,10.767,5.458,19.503,7.295
		c8.728,1.811,12.973,0.773,17.596-0.457c4.623-1.195,9.114,4.702,9.114,8.965c0,4.245,3.076,4.852,2.559,10.31
		c-0.511,5.44,5.65-4.869,5.65-4.869s2.559,9.105,0.492,10.31c-2.03,1.222,0.52,6.653,3.085,6.082
		c2.584-0.624,6.17,1.819,9.246-1.213c3.085-3.05-1.538-12.138-1.538-15.768c0-3.656-3.094-5.476-4.632-9.114
		c-1.529-3.639,4.122-4.245,6.17-0.606c2.065,3.621,5.66,0.606,9.237-2.426c3.604-3.05,3.604-8.508,3.604-8.508
		s-6.161-9.686-10.774-12.12c-4.633-2.426-2.575-3.05,2.039-4.245c4.623-1.213,0-3.05,1.036-9.712
		c1.021-6.662,1.021-10.916,3.587-10.916c2.584,0,11.82-1.828,19.521-1.204c7.708,0.606,11.294,7.26,16.427,7.884
		c5.124,0.589,13.333,1.811,14.89,4.834c1.547,3.032-9.089,4.939-5.477,9.782c3.577,4.834,7.532,2.979,11.127,4.799
		c3.604,1.811,7.69,0.589,12.313-6.68c4.623-7.277,6.671-7.901,8.209-6.671c1.563,1.204,11.319,14.563,13.878,17.613
		c2.565,3.015,5.026,11.83,5.555,14.871c0.52,3.006,10.345,0.87,12.41,0.87c2.03,0,9.747,6.697,10.767,10.327
		c1.046,3.63,3.095,4.852,9.757,6.68c6.688,1.802,0,8.473-1.538,12.094c-1.529,3.665-2.559,4.878-4.614,9.114
		c-2.058,4.263,0,0,2.565,1.828c2.566,1.819,3.587,4.236,7.718,3.032c4.096-1.213,6.161,0,7.689,3.656
		c1.538,3.621,3.604,6.671,5.133,9.677c1.548,3.041,0,7.919-2.048,4.869c-2.048-3.041-8.735-1.222-8.735-1.222
		s-3.076,3.639-4.113,1.819c-1.011-1.819-3.076-4.228-6.671-3.023c-3.595,1.205-7.182,0-11.285,0.598
		c-4.122,0.606-5.66-2.408-3.085-4.852c2.575-2.399,3.085-11.522,8.209-15.161c5.142-3.639,3.604-9.088,0-9.088
		c-3.595,0-5.124,5.449-7.189,6.68c-2.057,1.187-9.069-2.268-12.665,0.765c-3.586,3.05-9.396,5.282-5.801,6.486
		c3.577,1.239-5.133,6.073-8.218,6.073s-2.048-7.875-2.048-10.916s-4.104,1.811-4.104,1.811s-8.234-5.449-11.319-1.811
		c-3.076,3.639-14.15,2.092-17.754,5.739c-3.596,3.63-5.345,13.061-5.345,13.061s3.104-1.828,9.255-3.639
		c6.152-1.837,5.644-1.195,10.768-4.245c5.142-3.032,10.273-4.245,13.878,1.222c3.586,5.467-1.547,8.481-1.547,8.481
		s2.064,4.271,4.096,5.458c2.074,1.239,2.575-1.187,6.17-3.639c3.595-2.426,2.065,4.878,3.085,7.286
		c1.028,2.426,4.623,2.426,6.662-0.615c2.057-3.032,3.604-5.449,5.15-3.63c1.521,1.837,3.076,6.073,4.604,10.31
		c1.538,4.245-10.767,5.467-12.823,6.1c-2.048,0.571-11.812,3.006-13.351,3.612c-1.529,0.589-6.68,6.056-10.784,6.056
		c-4.087,0-3.611-7.269-4.087-11.522c-0.536-4.245-5.669,0.606-6.179,2.426c-0.51,1.828-5.143,1.239-8.729,1.828
		c-3.595,0.606-9.756,4.843-9.756,9.694c0,4.86,7.251,10.055,5.695,12.489c-1.521,2.426-13.403,1.485-17.007,0.255
		c-3.577-1.213-8.72,1.811-7.163,4.263c1.529,2.417,0.51,6.056-3.094,5.449c-3.596-0.598-4.097,3.647-2.566,6.662
		c1.547,3.041-4.614,9.088-6.161,6.662c-1.547-2.399-4.632-3.621-4.632,0c0,3.639,3.032,8.71,6.117,13.535
		c3.066,4.853-8.666,5.915-12.261,9.546c-3.604,3.646-11.61,16.102-16.743,18.545c-5.143,2.398-9.439,9.967-6.882,12.973
		c2.574,3.032,5.659,15.776,7.197,20.03c1.538,4.245-0.536,16.374-5.142,15.775c-4.614-0.605-2.057-7.884-6.688-9.693
		c-4.605-1.837-7.181-12.744-8.2-20.039c-1.02-7.277-2.057-3.041-5.142-0.615c-3.076,2.417-6.152-4.834-7.682-6.662
		c-1.556-1.802-9.176,3.551-15.328,2.927c-6.152-0.58-9.334,0.722-9.334,2.54c0,1.812-1.011,7.27-6.671,3.612
		c-5.643-3.612-6.688-3.612-12.322-3.612c-5.643,0-10.784-0.614-11.795,1.812c-1.037,2.435-6.68,7.893-10.283,9.104
		c-3.595,1.223-10.274,7.286-7.189,8.508c3.094,1.195,3.094,9.687,1.037,14.537c-2.065,4.86-1.547,13.343-0.527,21.842
		c1.028,8.489,7.198,13.947,12.841,19.424c5.66,5.458,7.708,7.276,13.342,2.417c5.66-4.844,7.699-1.812,9.255-1.213
		c1.538,0.605,5.643-3.041,4.096-8.499c-1.529-5.44,2.057-10.311,6.688-9.703c4.605,0.624,11.285-1.812,14.88-1.195
		c3.595,0.589,5.651,12.111,0,16.963c-5.66,4.86-2.575,12.146-3.595,17.604c-1.02,5.448-5.643,6.645,0,6.645
		c5.651,0,4.104,1.257,7.708,1.837c3.586,0.606,7.198-3.621,10.784-4.263c3.577-0.571,12.832,9.123,11.285,13.982
		c-1.529,4.853-3.067,13.333-2.558,21.218c0.51,7.893,2.558,8.508,3.586,10.925c1.046,2.417,5.124,7.893,9.755,5.467
		c4.614-2.426,9.229-4.245,10.768-6.671c1.556-2.426,11.312,4.245,10.292,6.063c-1.037,1.819,3.577,3.656,6.662,1.819
		c3.085-1.819,4.632-4.852,7.708-9.712c3.076-4.852,8.218-9.114,10.793-9.703c2.549-0.598,8.719-7.884,12.832-6.662
		c4.104,1.204-1.557,7.251-2.065,10.916c-0.51,3.63,0,13.948,2.065,14.546c2.029,0.615,1.02-7.269,3.586-12.727
		c2.558-5.484,7.689-8.517,10.273-8.517c2.559,0,4.623,12.762,8.2,9.122c3.604-3.646,10.784-3.05,12.331,0.59
		c1.538,3.646,3.076,5.467,3.076,5.467s2.566-2.417,2.566-5.467c0-3.016,8.218-6.064,13.367-2.417
		c5.124,3.62,3.076,4.852,5.635,5.467c2.558,0.598,5.133-7.884,6.671-8.508c1.547-0.606,0,9.721-3.596,15.16
		c-3.586,5.477,3.085,3.656,3.085,3.656s0,0,1.548,1.819c1.521,1.818,6.652-1.819,8.719,1.818c2.057,3.647,5.66,4.853,8.735,11.531
		c3.076,6.662,6.593,0.766,12.754-0.448c6.17-1.229,14.968,7.734,21.129,15.602c6.161,7.884,5.142,13.957,9.236,13.957
		c4.113,0,5.134,6.671,5.134,9.079c0,2.442-9.229,7.928-14.37,9.113c-5.134,1.223-5.134,7.321,3.075,5.477
		c8.219-1.819,4.623-5.477,9.747-7.277c5.15-1.846,10.283,2.427,5.669,9.703c-4.632,7.26-13.878,7.866-5.669,9.07
		c8.228,1.229,3.604-1.204,8.228-8.474c4.604-7.276,4.096-4.843,7.198-4.843c3.066,0,9.729,1.819,12.312,4.245
		c2.575,2.426,9.229,6.056,13.342,9.07c4.104,3.05,9.246,1.837,12.306,0.633c3.094-1.222,11.82,3.639,14.905,8.473
		c3.076,4.878,10.784,5.477,14.354,7.305c3.604,1.802,9.271,9.078,9.756,15.151C593.341,711.949,587.171,724.667,586.652,727.699z
		 M684.729,66.498c-7.206,2.435-20.347,18.202-22.859,20.61c-2.487,2.443-6.557,6.873-4.377,12.964
		c2.188,6.082,5.019,3.243,7.198,4.43c2.206,1.222-1.882,3.639-3.753,7.295c-1.898,3.621-2.188,10.485-1.898,16.989
		c0.343,6.46-12.023-2.839-18.606-2.03c-6.564,0.826-3.586,9.694-2.329,12.524c1.248,2.821,2.181,6.873,3.438,8.508
		c1.239,1.6,2.197,7.673-4.069,9.308c-6.258,1.591-8.438-3.647-8.13-7.708c0.29-4.034-11.136-8.824-12.366-8.824
		c-1.247,0-0.482,12.48,4.229,12.48c4.685,0,7.831,5.643,10.011,8.095c2.188,2.408-4.692,2.408-7.506,2.004
		c-2.821-0.387-11.593,5.678-19.723,7.277c-8.147,1.617-17.184-0.343-20.61,0.062c-3.463,0.396-8.807,12.489-10.072,14.511
		c-1.238,2.03-12.498,0-16.575,0c-4.062,0-7.516,5.256-14.08,6.451c-6.565,1.222-3.12,6.1-2.821,10.116
		c0.308,4.043-1.872,6.073-5.95,4.86c-4.069-1.204-3.744,1.617-4.069,5.256c-0.308,3.656,0.624,8.499-3.119,12.129
		c-3.763,3.621-5.317,4.852-9.694,4.438c-4.386-0.396-4.069-9.272-5.634-8.886c-1.573,0.422-9.088,6.047-10.346,2.821
		c-1.248-3.234-10.96-10.521-14.396-12.138c-3.428-1.635-5.934-8.517-7.506-11.329c-1.564-2.856,4.702-3.278,2.804-3.691
		c-1.854-0.378-8.438-2.496-9.677-4.509c-1.239-2.021-5.317-11.865-5.634-14.695c-0.316-2.848,5.001-7.972,5.001-9.615
		c0-1.591-5.001-2.162-7.189-2.162c-2.188,0-4.711-7.233-1.564-13.289c3.13-6.082,7.813-6.75,7.813-6.75s2,0,4.356,0
		c-2.725-2.11-7.944-2.836-9.041-1.037c-1.258,1.986-6.574,10.485-8.147,8.455c-1.563-2.03-1.863-20.215-4.693-25.479
		c-2.829-5.247-12.813-6.882-16.893-9.308c-4.079-2.426-18.773-4.834-21.278-5.238c-2.521-0.404-11.899,2.426-15.652,0.791
		c-3.771-1.582-3.771-9.694-3.771-9.694s-2.18,8.499-3.744,10.907c-1.563,2.435-5.01,3.674-7.487,2.435
		c-2.522-1.204-6.275-10.107-10.97-11.329c-4.702-1.187-6.882,0.809-10.644-2.426c-5.625-4.843,9.694-4.456,10.644-4.456
		c0.933,0,12.832-2.821,13.141-6.873c0.308-4.017,4.078-8.086,9.403-6.864c4.42,1.01,6.677-2.746,6.949-6.822
		C457.082,58.236,515.345,48,576,48c22.7,0,45.064,1.434,67.01,4.213c2.208,5.058,4.363,10.479,9.49,11.85
		c6.543,1.772,10.241-2.615,15.446-8.078c8.107,1.424,16.15,3.035,24.128,4.825C690.403,63.219,687.759,65.471,684.729,66.498z
		 M1091.874,625.781c-0.501,5.476-9.237,15.195-14.871,16.399c-5.66,1.204-17.49,18.193-21.577,23.651
		c-4.122,5.458-10.793,17.578-13.869,18.8c-3.066,1.213-5.467,17.341-3.91,19.758c1.537,2.427,1.846,13.614,6.485,18.476
		c4.623,4.834,6.152,8.473,4.096,12.734c-2.048,4.22,1.046,13.948,0,21.832c-1.02,7.866-9.737,15.741-11.804,18.149
		c-2.03,2.443-11.804,9.149-15.908,15.214c-4.122,6.064-7.698,11.522-6.68,14.555c1.002,3.041,5.133,18.193,4.597,21.823
		c-0.475,3.656-14.098,5.511-18.211,7.945c-4.112,2.408,1.819,10.266,2.839,15.117c1.028,4.852-7.188,12.771-10.793,16.972
		c-3.604,4.28-13.367,18.809-20.004,24.284c-6.688,5.467-16.304,4.358-22.982,3.753c-6.662-0.606-17.597,5.353-20.162,8.385
		c-2.575,3.041-6.152,2.426-11.285-0.598c-5.159-3.041-5.66-7.286-6.17-13.983c-0.52-6.662-2.039-10.916-2.039-10.916
		s-1.547-10.292-6.179-15.126c-4.614-4.887-6.17-10.345-8.72-14.001c-2.565-3.621,4.746-13.975,4.229-20.654
		c-0.52-6.661-9.378-14.502-11.927-18.756c-2.584-4.245-7.718-15.775-9.766-20.029c-2.039-4.245-4.632-12.728-4.112-24.848
		c0.519-12.138,5.729-19.248,9.844-22.887c4.131-3.621,2.505-8.06-1.107-15.312c-3.595-7.304,0.536-19.468-2.575-23.678
		c-3.066-4.235-7.831-27.949-13.49-31.579c-5.66-3.646-11.663-3.604-8.578-12.103c3.076-8.499,0-16.98,5.133-22.456
		c5.133-5.449,2.565-9.079-3.076-12.728c-5.651-3.655-3.604-5.467-8.209-1.213c-4.648,4.245-10.802,6.672-14.37,2.417
		c-3.611-4.254-2.575-10.906-9.255-15.768c-6.671-4.843-17.376-3.199-19.951-1.986c-2.549,1.23-7.777,11.707-14.977,12.895
		c-7.163,1.238-12.305-0.599-19.494-0.599c-7.198,0-13.351,0.599-14.379,4.853c-1.011,4.254-2.558,6.68-7.181,2.435
		c-4.633-4.245-13.86-13.957-13.86-13.957s-8.534-16.733-11.118-24.038c-2.558-7.26-11.47-7.515-21.234-12.973
		c-9.765-5.449-4.112-11.531-5.133-17.578c-1.02-6.073-6.151-8.499-3.595-9.114c2.575-0.633,2.065-4.824,7.69-13.342
		c5.659-8.48,2.064-17.596,1.036-22.465c-1.036-4.825-6.151-12.104-1.036-19.995c5.133-7.884,8.366-26.692,12.453-31.553
		c4.122-4.86,16.312-9.703,21.955-12.728c5.651-3.05,2.058-10.934,5.124-20.013c3.085-9.104,7.718-13.342,9.265-13.342
		c1.538,0,7.242-6.312,13.333-10.301c4.613-3.051,15.406,0.57,17.464-0.624c2.064-1.188,10.257-4.254,14.896-6.688
		c4.614-2.408,19.503-8.499,21.552-8.499c2.048,0,27.702,0.642,31.314-1.213c3.595-1.802,17.481-4.377,21.586,8.965
		c4.104,13.324-4.641,8.061-8.728,10.441c-4.131,2.452,1.538,7.919,3.567,7.919c2.065,0,9.246,7.875,12.841,7.875
		c3.587,0,12.331,4.254,12.331,4.254s8.701,7.884,13.352,7.884c4.604,0,12.437,9.396,17.569,3.357
		c5.123-6.073,7.575-18.511,12.718-17.307c5.124,1.213,10.784,6.064,17.445,6.064c6.672,0,19.012-1.222,21.06,1.819
		c2.074,3.031-13.86,13.342-12.85,15.775c1.046,2.417,3.094,1.812,8.227-5.467c5.124-7.277,12.832-7.277,19.002-9.079
		c6.161-1.837,9.264,9.668,10.266,13.315c1.028,3.646,5.651,10.317,9.237,18.211c3.604,7.865,7.181,18.781,11.303,27.29
		c4.104,8.499-0.482,25.541,3.63,30.999c4.104,5.467,14.862,10.257,17.411,17.524c2.575,7.277,8.729,14.572,10.793,15.161
		c2.058,0.624,10.775,14.563,11.285,18.193c0.51,3.646-3.076,11.549,5.124,12.146c8.244,0.615,15.425-4.263,17.991-5.449
		c1.638-0.781,10.435-4.794,17.224-6.628c0.012,1.381,0.026,2.759,0.026,4.142c0,9.573-0.262,19.085-0.765,28.533
		C1098.645,612.232,1092.2,622.224,1091.874,625.781z"/>
	<path d="M475.989,156.393c-1.248,3.226,1.881,5.142,3.753,6.75c1.89,1.617,2.812-2.821,3.129-5.66
		c0.281-2.507-3.634-8.208-6.051-11.44C477.429,148.934,476.879,154.125,475.989,156.393z"/>
	<path d="M970.708,353.417c3.085,1.204,0,12.146,0,12.146c1.028,2.426,6.161-3.647,10.257-3.647c4.113,0,13.359,1.828,15.936-2.435
		c2.565-4.236,10.783-4.86,17.455-3.63c6.661,1.204,12.34,6.662,16.944,7.277c4.623,0.615,16.929-0.615,21.05-1.819
		c4.078-1.195,3.076-9.712-3.595-13.939c-6.68-4.245-12.331-10.934-18.491-13.359c-6.161-2.408-8.219-4.852-4.623-6.056
		c3.604-1.204,8.227-6.073,3.075-6.073c-5.142,0-9.747,1.837-10.282,4.869c-0.476,3.015-3.596,6.653-5.616,7.875
		c-2.058,1.222-7.189,6.064-8.729,2.417c-1.547-3.639-7.188-14.563-9.765-15.161c-2.559-0.589-6.68,0-9.766,6.073
		c-3.075,6.056-6.671,12.146-9.746,14.537C971.736,344.936,967.649,352.213,970.708,353.417z"/>
</g>
</svg>
