<?xml version="1.0" encoding="utf-8"?>
<!-- Generator: Adobe Illustrator 16.0.0, SVG Export Plug-In . SVG Version: 6.00 Build 0)  -->
<!DOCTYPE svg PUBLIC "-//W3C//DTD SVG 1.1//EN" "http://www.w3.org/Graphics/SVG/1.1/DTD/svg11.dtd">
<svg version="1.1" id="Layer_1" xmlns="http://www.w3.org/2000/svg" xmlns:xlink="http://www.w3.org/1999/xlink" x="0px" y="0px"
	 width="1152px" height="1152px" viewBox="0 0 1152 1152" enable-background="new 0 0 1152 1152" xml:space="preserve">
<path d="M552,240C300.158,240,96,444.158,96,696s204.158,456,456,456s456-204.158,456-456S803.842,240,552,240z M552,1008
	c-172.312,0-312-139.688-312-312s139.688-312,312-312s312,139.688,312,312S724.312,1008,552,1008z"/>
<path d="M594.732,638.058L576,432h-48l-18.732,206.058C491.517,651.171,480,672.237,480,696c0,39.765,32.235,72,72,72
	s72-32.235,72-72C624,672.237,612.483,651.171,594.732,638.058z"/>
<polygon points="672,0 432,0 432,96 480,96 480,192 624,192 624,96 672,96 "/>
<rect x="480" y="96" width="144" height="96"/>
<path d="M925.349,220.817l101.821,101.821l-67.882,67.881L857.467,288.699L925.349,220.817z"/>
</svg>
