<?xml version="1.0" encoding="utf-8"?>
<!-- Generator: Adobe Illustrator 16.0.0, SVG Export Plug-In . SVG Version: 6.00 Build 0)  -->
<!DOCTYPE svg PUBLIC "-//W3C//DTD SVG 1.1//EN" "http://www.w3.org/Graphics/SVG/1.1/DTD/svg11.dtd">
<svg version="1.1" id="Layer_1" xmlns="http://www.w3.org/2000/svg" xmlns:xlink="http://www.w3.org/1999/xlink" x="0px" y="0px"
	 width="1152px" height="1152px" viewBox="0 0 1152 1152" enable-background="new 0 0 1152 1152" xml:space="preserve">
<g>
	<path d="M504,360L386.071,242.071C443.305,209.398,508.314,192,576,192c102.57,0,199.001,39.943,271.529,112.471
		C920.057,376.999,960,473.43,960,576h192C1152,257.884,894.116,0,576,0C453.721,0,348,36,252,96S96,240,96,240l264,264l-72,72h288
		V288L504,360z"/>
</g>
<g>
	<path d="M648,792l117.93,117.93C708.695,942.602,643.686,960,576,960c-102.57,0-199.001-39.943-271.529-112.471
		C231.943,775.002,192,678.57,192,576H0c0,318.116,257.884,576,576,576c122.279,0,228-36,324-96s156-144,156-144L792,648l72-72H576
		v288L648,792z"/>
</g>
</svg>
