<?xml version="1.0" encoding="utf-8"?>
<!-- Generator: Adobe Illustrator 16.0.1, SVG Export Plug-In . SVG Version: 6.00 Build 0)  -->
<!DOCTYPE svg PUBLIC "-//W3C//DTD SVG 1.1//EN" "http://www.w3.org/Graphics/SVG/1.1/DTD/svg11.dtd">
<svg version="1.1" id="Layer_1" xmlns="http://www.w3.org/2000/svg" xmlns:xlink="http://www.w3.org/1999/xlink" x="0px" y="0px"
	 width="1152px" height="1152px" viewBox="0 0 1152 1152" enable-background="new 0 0 1152 1152" xml:space="preserve">
<path d="M48,48v1104h1056V48H48z M336,480H144v-96h192V480z M1008,480H432v-96h576V480z M336,672H144v-96h192V672z M1008,672H432
	v-96h576V672z M336,864H144v-96h192V864z M1008,864H432v-96h576V864z M336,1056H144v-96h192V1056z M1008,1056H432v-96h576V1056z
	 M1008,288H144V144h864V288z"/>
<rect fill="none" width="1152" height="1152"/>
</svg>
