<?xml version="1.0" encoding="utf-8"?>
<!-- Generator: Adobe Illustrator 16.0.0, SVG Export Plug-In . SVG Version: 6.00 Build 0)  -->
<!DOCTYPE svg PUBLIC "-//W3C//DTD SVG 1.1//EN" "http://www.w3.org/Graphics/SVG/1.1/DTD/svg11.dtd">
<svg version="1.1" id="Layer_1" xmlns="http://www.w3.org/2000/svg" xmlns:xlink="http://www.w3.org/1999/xlink" x="0px" y="0px"
	 width="1152px" height="1152px" viewBox="0 0 1152 1152" enable-background="new 0 0 1152 1152" xml:space="preserve">
<path d="M1152,192l-144-48L960,0c0,0-120,120-132,132s-12,24-12,24v108L588,492c0,0-36,36,0,72s72,0,72,0l228-228h108
	c0,0,12,0,24-12S1152,192,1152,192z"/>
<path d="M1087.883,391.882C1062.762,417.002,1028.413,432,996,432h-63.919C950.082,476.469,960,525.076,960,576
	c0,212.077-171.923,384-384,384c-212.078,0-384-171.923-384-384c0-212.078,171.922-384,384-384c50.924,0,99.53,9.917,144,27.919V156
	c0-32.414,14.997-66.762,40.117-91.882l24.979-24.98C720.277,13.873,649.76,0,576,0C257.884,0,0,257.884,0,576s257.884,576,576,576
	s576-257.884,576-576c0-73.76-13.873-144.278-39.137-209.098L1087.883,391.882z"/>
<path d="M520.118,424.118l39.407-39.407C461.2,393.069,384,475.513,384,576c0,106.039,85.961,192,192,192
	c100.488,0,182.932-77.2,191.289-175.525l-39.407,39.407C717.535,642.229,679.36,676,622.666,676
	c-26.655,0-66.084-7.654-102.548-44.117c-40.359-40.357-54.075-95.589-36.691-147.741
	C493.956,452.553,512.593,431.642,520.118,424.118z"/>
</svg>
