<?xml version="1.0" encoding="utf-8"?>
<!-- Generator: Adobe Illustrator 16.0.4, SVG Export Plug-In . SVG Version: 6.00 Build 0)  -->
<!DOCTYPE svg PUBLIC "-//W3C//DTD SVG 1.1//EN" "http://www.w3.org/Graphics/SVG/1.1/DTD/svg11.dtd">
<svg version="1.1" id="Layer_1" xmlns="http://www.w3.org/2000/svg" xmlns:xlink="http://www.w3.org/1999/xlink" x="0px" y="0px"
	 width="1152px" height="1152px" viewBox="0 0 1152 1152" enable-background="new 0 0 1152 1152" xml:space="preserve">
<rect x="240" y="48" width="816" height="144"/>
<rect x="240" y="336" width="624" height="144"/>
<rect x="240" y="624" width="912" height="144"/>
<rect x="240" y="912" width="720" height="144"/>
<g>
	<path d="M93.938,84.328h-0.516L56.297,97.406L48,66.609L102.281,48H144v144H93.938V84.328z"/>
</g>
<g>
	<path d="M0,480v-23.93l27.047-16.758c40.875-25.453,60.141-39.562,60.656-53.062c0-10.453-8.859-17.836-28.641-17.836
		c-16.688,0-31.688,6.75-42.609,13.055L0.609,352.734C16.219,343.594,40.922,336,69.891,336c41.531,0,70.5,16.312,70.5,46.969
		c0,21.328-20.625,39.164-42.281,51.797l-20.344,11.742v0.445H144V480H0z"/>
</g>
<g>
	<path d="M10.781,727.172c7.453,2.812,27.891,9.422,47.812,9.422c18,0,30.656-4.055,30.656-14.109
		c0-10.266-15.234-15.797-31.547-15.797H34.547v-28.406h22.406c12.094,0,27.938-3,27.938-11.977c0-6.633-8.859-11.133-25.781-11.133
		c-17.391,0-36.141,6-43.406,9L4.688,635.531C17.391,629.555,42.562,624,70.781,624c41.438,0,67.172,14.953,67.172,35.672
		c0,14.953-10.828,26.484-35.109,32.484v0.422C125.156,694.734,144,707.109,144,725.062C144,752.18,110.766,768,62.719,768
		C35.109,768,12.141,762.891,0,756.891L10.781,727.172z"/>
</g>
<g>
	<path d="M77.812,1056v-32.344H0v-26.578L59.719,912h64.922v81.305H144v30.352h-19.359V1056H77.812z M77.812,993.305v-24.82
		c0-9.938,0.609-19.922,1.078-30.984h-1.078c-6.188,10.828-11.344,21.047-18.094,31.875l-13.922,23.508l-0.281,0.422H77.812z"/>
</g>
</svg>
