<?xml version="1.0" encoding="utf-8"?>
<!-- Generator: Adobe Illustrator 16.0.1, SVG Export Plug-In . SVG Version: 6.00 Build 0)  -->
<!DOCTYPE svg PUBLIC "-//W3C//DTD SVG 1.1//EN" "http://www.w3.org/Graphics/SVG/1.1/DTD/svg11.dtd">
<svg version="1.1" id="Layer_1" xmlns="http://www.w3.org/2000/svg" xmlns:xlink="http://www.w3.org/1999/xlink" x="0px" y="0px"
	 width="1152px" height="1152px" viewBox="0 0 1152 1152" enable-background="new 0 0 1152 1152" xml:space="preserve">
<path d="M1152,624C1152,624,1152,672,1152,624s-48-120-48-120s0-192,0-264c0-96-96-96-96-96H432v516l144,228v264h48
	c0,0,144,0,144-144c0-96,0-288,0-288h288C1056,720,1152,720,1152,624z"/>
<path d="M96,144c-48,0-48,48-48,48v624c0,0,0,48,48,48s240,0,240,0V144C336,144,144,144,96,144z M192,780c-33.137,0-60-26.863-60-60
	s26.863-60,60-60s60,26.863,60,60S225.137,780,192,780z"/>
</svg>
