<?xml version="1.0" encoding="utf-8"?>
<!-- Generator: Adobe Illustrator 16.0.1, SVG Export Plug-In . SVG Version: 6.00 Build 0)  -->
<!DOCTYPE svg PUBLIC "-//W3C//DTD SVG 1.1//EN" "http://www.w3.org/Graphics/SVG/1.1/DTD/svg11.dtd">
<svg version="1.1" id="Layer_1" xmlns="http://www.w3.org/2000/svg" xmlns:xlink="http://www.w3.org/1999/xlink" x="0px" y="0px"
	 width="1152px" height="1152px" viewBox="0 0 1152 1152" enable-background="new 0 0 1152 1152" xml:space="preserve">
<path d="M1056,432H768c0,0,0-192,0-288C768,0,624,0,624,0h-48v264L432,492v516h576c0,0,96,0,96-96c0-72,0-264,0-264s48-72,48-120
	s0,0,0,0C1152,432,1056,432,1056,432z"/>
<path d="M96,432c-48,0-48,48-48,48v624c0,0,0,48,48,48s240,0,240,0V432C336,432,144,432,96,432z M192,1068
	c-33.137,0-60-26.863-60-60s26.863-60,60-60s60,26.863,60,60S225.137,1068,192,1068z"/>
</svg>
