<?xml version="1.0" encoding="utf-8"?>
<!-- Generator: Adobe Illustrator 15.0.0, SVG Export Plug-In . SVG Version: 6.00 Build 0)  -->
<!DOCTYPE svg PUBLIC "-//W3C//DTD SVG 1.1//EN" "http://www.w3.org/Graphics/SVG/1.1/DTD/svg11.dtd">
<svg version="1.1" id="Layer_1" xmlns="http://www.w3.org/2000/svg" xmlns:xlink="http://www.w3.org/1999/xlink" x="0px" y="0px"
	 width="512px" height="512px" viewBox="0 0 512 512" enable-background="new 0 0 512 512" xml:space="preserve">
<image display="none" overflow="visible" width="32" height="32" id="example" xlink:href="../../../../../Desktop/Screen Shot 2012-11-05 at 11.21.07.png"  transform="matrix(23.7344 0 0 24.4531 -141 -146)">
</image>
<path display="none" opacity="0.65" enable-background="new    " d="M166.167,88c0,0-0.001,8-8.308,8c-8.308,0-41.542,0-49.85,0
	C99.7,96,99.7,88,99.7,88s0-72,0-80s8.308-8,8.308-8h49.85c0,0,8.308,0,8.308,8S166.167,88,166.167,88z"/>
<path display="none" opacity="0.65" enable-background="new    " d="M398.8,88c0,8-8.308,8-8.308,8h-49.851c0,0-8.309,0-8.309-8
	s0-72,0-80s8.309-8,8.309-8h49.851c0,0,8.308,0,8.308,8S398.8,80,398.8,88z"/>
<path display="none" opacity="0.65" enable-background="new    " d="M0,99.643v339.713c0,0,0.583,26.144,33.233,26.144
	c32.649,0,432.033,0,432.033,0s33.233,0,33.233-26.144c0-26.143,0-313.407,0-313.407s0-26.449-33.233-26.449s-33.233,0-33.233,0
	H66.467"/>
<path display="none" opacity="0.65" enable-background="new    " d="M32.036,0C10,0,0,37,0,37v37h308.5l-22-31c0,0-36-43-58.036-43"
	/>
<path opacity="0.65" d="M250-0.845c-138.071,0-250,111.929-250,250c0,138.07,111.929,250,250,250c138.07,0,250-111.93,250-250
	C500,111.084,388.07-0.845,250-0.845z M250,450c-110.458,0-200-89.543-200-200c0-110.458,89.542-200,200-200
	c110.457,0,200,89.543,200,200C450,360.457,360.457,450,250,450z"/>
<path opacity="0.65" d="M219.585,248.822v-145.31c0-16.429,13.319-29.748,29.748-29.748c16.43,0,29.748,13.319,29.748,29.748
	v124.654l93.842,98.144c11.617,11.617,11.617,30.453,0,42.07s-30.453,11.617-42.07,0"/>
</svg>
