<?xml version="1.0" encoding="utf-8"?>
<!-- Generator: Adobe Illustrator 16.0.1, SVG Export Plug-In . SVG Version: 6.00 Build 0)  -->
<!DOCTYPE svg PUBLIC "-//W3C//DTD SVG 1.1//EN" "http://www.w3.org/Graphics/SVG/1.1/DTD/svg11.dtd">
<svg version="1.1" id="Layer_1" xmlns="http://www.w3.org/2000/svg" xmlns:xlink="http://www.w3.org/1999/xlink" x="0px" y="0px"
	 width="512px" height="512px" viewBox="0 0 512 512" enable-background="new 0 0 512 512" xml:space="preserve">
<path opacity="0.65" d="M480,128V96c0,0,0-32-32-32s-96,0-96,0s0,0,0-32S320,0,320,0s-96.29,0-128,0c-31.833,0-32,32-32,32v32
	c0,0-64,0-96,0S32,96,32,96v32H480z M208,48c0,0,0-16,16-16s48,0,64,0s16,16,16,16v16h-96L208,48z"/>
<path opacity="0.65" d="M64,160c0,0,0,320,0,336s16,16,16,16h352c0,0,16,0,16-16s0-336,0-336H64z M192,448h-64V192h64V448z M288,448
	h-64V192h64V448z M384,448h-64V192h64V448z"/>
</svg>
