<?xml version="1.0" encoding="utf-8"?>
<!-- Generator: Adobe Illustrator 16.0.0, SVG Export Plug-In . SVG Version: 6.00 Build 0)  -->
<!DOCTYPE svg PUBLIC "-//W3C//DTD SVG 1.1//EN" "http://www.w3.org/Graphics/SVG/1.1/DTD/svg11.dtd">
<svg version="1.1" id="Layer_1" xmlns="http://www.w3.org/2000/svg" xmlns:xlink="http://www.w3.org/1999/xlink" x="0px" y="0px"
	 width="1152px" height="1152px" viewBox="0 0 1152 1152" enable-background="new 0 0 1152 1152" xml:space="preserve">
<path d="M1152,206.823c-42.385,18.799-87.936,31.503-135.742,37.215c48.791-29.25,86.271-75.565,103.916-130.758
	c-45.67,27.087-96.249,46.755-150.086,57.352C926.979,124.699,865.553,96,797.574,96c-130.522,0-236.35,105.817-236.35,236.34
	c0,18.523,2.09,36.563,6.119,53.862C370.92,376.345,196.767,282.252,80.2,139.259c-20.346,34.906-32,75.504-32,118.82
	c0,81.998,41.724,154.338,105.143,196.723c-38.742-1.229-75.187-11.858-107.049-29.562c-0.022,0.985-0.022,1.974-0.022,2.972
	c0,114.512,81.47,210.032,189.587,231.749c-19.831,5.401-40.711,8.293-62.265,8.293c-15.23,0-30.035-1.485-44.469-4.241
	c30.076,93.895,117.359,162.23,220.784,164.132c-80.887,63.396-182.796,101.179-293.53,101.179c-19.077,0-37.89-1.119-56.379-3.31
	c104.594,67.062,228.828,106.194,362.297,106.194c434.728,0,672.456-360.142,672.456-672.463c0-10.246-0.229-20.438-0.688-30.578
	C1080.248,295.845,1120.314,254.22,1152,206.823z"/>
</svg>
