<?xml version="1.0" encoding="utf-8"?>
<!-- Generator: Adobe Illustrator 16.0.0, SVG Export Plug-In . SVG Version: 6.00 Build 0)  -->
<!DOCTYPE svg PUBLIC "-//W3C//DTD SVG 1.1//EN" "http://www.w3.org/Graphics/SVG/1.1/DTD/svg11.dtd">
<svg version="1.1" id="Layer_1" xmlns="http://www.w3.org/2000/svg" xmlns:xlink="http://www.w3.org/1999/xlink" x="0px" y="0px"
	 width="1152px" height="1152px" viewBox="0 0 1152 1152" enable-background="new 0 0 1152 1152" xml:space="preserve">
<path d="M912,696.394V816c-258.684,0-384-144-552-240c168-96,293.316-240,552-240v119.606c0,13.2,7.637,16.363,16.971,7.029
	L1152,240L928.971,16.578C919.637,7.244,912,10.406,912,23.606V144C528,144,384,480,0,480v192c384,0,528,336,912,336v0.787v119.606
	c0,13.2,7.637,16.363,16.971,7.029L1152,912.787L928.971,689.365C919.637,680.031,912,683.193,912,696.394z"/>
</svg>
