<?xml version="1.0" encoding="utf-8"?>
<!-- Generator: Adobe Illustrator 16.0.1, SVG Export Plug-In . SVG Version: 6.00 Build 0)  -->
<!DOCTYPE svg PUBLIC "-//W3C//DTD SVG 1.1//EN" "http://www.w3.org/Graphics/SVG/1.1/DTD/svg11.dtd">
<svg version="1.1" id="Layer_1" xmlns="http://www.w3.org/2000/svg" xmlns:xlink="http://www.w3.org/1999/xlink" x="0px" y="0px"
	 width="1152px" height="1152px" viewBox="0 0 1152 1152" enable-background="new 0 0 1152 1152" xml:space="preserve">
<path d="M864,576c-159.059,0-288,128.941-288,288s128.941,288,288,288s288-128.941,288-288S1023.059,576,864,576z M1032,972l-60,60
	L864,924l-108,108l-60-60l108-108L696,756l60-60l108,108l108-108l60,60L924,864L1032,972z"/>
<g>
	<path d="M480,864c0-38.605,5.703-75.878,16.302-111.027c-1.374,0.186-2.787,0.429-4.17,0.841c-5.64,1.649-8.491,3.335-8.491,3.335
		s-9.859,5.56-15.51,10.021c-5.64,4.423,1.869,12.213-0.95,18.32c-2.818,6.123-5.132,0.66-7.942,7.879
		c-2.828,7.219-4.764,6.035-7.122,7.694c-2.347,1.69-3.746,6.099-4.224,10.568c-0.459,4.456-5.172,8.903-11.303,15.565
		c-6.115,6.68-9.895,5.575-16.469,3.352c-6.598-2.224-5.647-21.141-6.598-18.369c-0.929,2.779-4.176,12.407-3.239,14.102
		c0.951,1.649,7.477,8.161,9.837,9.829c2.354,1.667,1.878,4.445,0,7.232c-1.895,2.766-7.049,12.794-8.942,13.326
		c-1.877,0.571-16.468,2.796-19.288,1.136c-2.825-1.668-4.229,3.894-3.762,7.221c0.467,3.336,2.819,7.211-2.361,6.113
		c-5.188-1.096-12.246-5.02-12.246-2.23c0,2.805,1.419,8.911,4.246,8.911c2.812,0,5.642-2.226,4.238,1.657
		c-1.426,3.9-5.181,7.235-7.065,8.911c-1.886,1.668-4.229,7.202-8.941,11.104c-4.705,3.907-4.705,6.123-3.763,7.79
		c0.949,1.685,8,0.556,9.408,1.685c1.41,1.096-1.408,8.886-3.303,10.57c-1.854,1.659-9.869,9.426-13.165,11.647
		c-3.312,2.239-3.312,8.902-2.353,12.238c0.935,3.343,8.468,11.674,12.697,13.357c4.236,1.668,13.195,1.104,12.244,2.764
		c-0.94,1.668-11.277,3.352-12.704,3.884c-1.401,0.563-8.95,2.803-12.704,2.803c-3.771,0-10.836-4.463-12.265-4.463
		c-1.386,0,0.967-2.224,5.672-6.671c4.689-4.431-1.885-9.458-2.825-3.327c-0.943,6.115-2.847,7.774-5.183,7.774
		c-2.353,0-5.181-3.894-6.599-5.551c-1.402-1.687-7.519-3.327-6.574-10.017c0.935-6.679-2.828-6.115-5.647-8.91
		c-2.826-2.764,3.765-4.994,2.819-7.781c-0.941-2.758-5.18-1.111-5.646-4.995c-0.478-3.884,3.763-9.467,4.245-11.118
		c0.459-1.676-2.827-5.003-3.305-7.774c-0.475-2.804,1.886-5.565,5.173-9.999c3.295-4.471,5.647-10.021,5.647-11.695
		c0-1.66-2.354-7.783-2.354-12.246c0-4.434,2.354-6.102,3.305-12.215c0.934-6.133-3.305-3.885-3.305-8.902
		c0-4.995,4.713-3.327,3.764-8.33c-0.937-5.004,2.368-8.347,3.777-11.683c1.395-3.335,2.818-8.91,4.696-12.786
		c1.885-3.907-1.878-12.785-1.878-14.479c0-1.658,6.115-3.875,3.296-7.21c-2.828-3.344,2.449-4.446,5.293-7.242
		c2.819-2.779-1.998-12.237-0.588-22.229c1.409-10.038,2.827-27.256,2.827-28.923c0-1.677,0.46-8.339-1.893-12.795
		c-2.347-4.438-5.175-7.782-8.47-9.466c-3.287-1.651-7.522-6.673-9.886-7.212c-2.354-0.557-16.604-5.244-16.604-13.045
		c0-7.78-5.044-14.202-5.979-19.763c-0.951-5.566-8.009-17.797-8.492-23.355c-0.459-5.552-10.345-7.22-11.755-13.356
		c-1.401-6.107,2.103-10.079,3.029-13.971c0.942-3.899-0.677-12.697-1.136-15.484c-0.483-2.779,4.238-11.948,7.058-13.632
		c2.804-1.676,8-7.501,9.869-7.501c1.886,0,1.427-6.123,3.296-12.246c1.898-6.091-0.936-14.438-2.345-15.573
		c-1.402-1.104-2.82-8.322-5.181-10.546c-2.353-2.224-7.05-1.12-7.05-1.12s0.919,5.012-3.312,7.8
		c-4.229,2.764-5.172-0.571-6.574-2.225c-1.418-1.676-6.598-2.231-8.942-5.012c-2.36-2.779-6.115-6.688-8.951-8.338
		c-2.819-1.667-9.684-3.118-9.217-9.798c0.468-6.654-3.488-10.765-5.374-11.893c-1.885-1.128-5.655-3.891-8-2.231
		c-2.353,1.677-6.582-3.335-9.885-2.771c-3.287,0.548-9.878-6.679-12.238-9.458c-2.345-2.788-4.222-6.695-8.451-6.695
		c-4.254,0-4.714,1.686-7.541,5.575c-2.82,3.899-7.066-2.771-8.477-4.447c-1.401-1.649-8.273,1.112-13.446,1.112
		c-5.172,0-7.541-10.61-7.726-12.77c-0.709-8.308-15.059-8.349-18.346-10.57c-3.311-2.239-6.606-10.586-5.204-12.786
		c1.418-2.231-2.337-9.466-2.337-9.466s-6.59-8.896-8.935-8.896c-2.36,0-9.886-15.558-14.14-20.027
		c-4.237-4.433-14.099-14.461-15.992-19.466c-1.869-4.994-2.345-12.776-7.05-8.861c-4.713,3.867-0.958,7.759,3.747,12.206
		c4.713,4.455,3.778,8.911,10.36,15.018c6.591,6.123,3.771,12.23,6.591,15.011c2.819,2.778,12.705,9.457,8.467,13.896
		c-4.222,4.472-8.467-5.559-10.36-6.107c-1.878-0.562-6.107-1.666-5.64-5.011c0.475-3.327-3.755-6.123-7.058-11.118
		c-3.287-4.994-4.705-2.224-8.935-2.224s-0.468-6.115,1.869-8.896c2.36-2.778-2.337-6.694-5.165-7.782
		c-2.827-1.128-6.606-13.892-10.353-21.688c-3.763-7.799-6.599-11.666-10.82-11.134c-0.502,0.068-1.047,0.062-1.615,0.006
		c30.091-91.102,86.723-170.126,160.746-227.915c1.477,3.022,2.201,1.879,5.579-0.609c3.771-2.796,4.697-2.24,8.009,0.532
		c3.295,2.788,0.935,8.347,0.935,10.031c0,1.676,4.721,0,5.647-3.328c0.942-3.343,4.705-3.343,7.074-4.463
		c2.344-1.12,2.344-7.791,2.344-7.791s-6.115-1.667-12.246-1.111c-3.365,0.302-5.449,0.1-7.428-0.793
		c4.627-3.424,9.318-6.767,14.07-10.026c0.363,0.768,1.852,0.054,5.604-0.823c3.373-0.804,3.417-2.875,2.9-4.881
		c3.188-2.087,6.398-4.137,9.638-6.15c2.028-0.233,3.833-0.334,4.872-0.136c2.82,0.58,18.354-1.66,22.132-1.66
		c3.747,0,9.86,3.899,14.105,6.679c4.246,2.771,15.541,6.671,18.347,8.338c2.828,1.667,22.6,4.995,24.477,5.559
		c1.895,0.58,1.895,7.227,3.762,12.794c1.896,5.559,7.066,1.676,8.951,1.676c1.877,0,8.478,3.883,10.361,6.671
		c1.877,2.788,16.008,4.987,16.008,4.987s-3.303,5.011-4.713,6.671c-1.41,1.676-4.705,2.795-7.533,5.011
		c-2.827,2.224-6.131-0.556-9.893-3.335c-3.765-2.764-10.354-4.439-11.765-3.336c-1.418,1.112-0.45,3.336,0.477,5.02
		c0.935,1.651,7.058,3.875,10.819,7.227c3.764,3.319,2.837,6.671,3.312,11.11c0.451,4.447-3.779-1.676-8.484-2.779
		c-4.713-1.096-5.172,4.439-5.172,4.439s-6.131-0.54-8.95-0.54c-2.818,0,0,0-5.163-4.472c-5.183-4.439-4.238,2.804-7.065,0.572
		c-2.82-2.232-5.64-5.551-7.064-4.439c-1.409,1.128-6.114-4.995-8.942-4.463c-2.82,0.572-14.115-1.66-16.943-0.532
		c-2.828,1.104-5.18,1.104-7.524,2.199c-2.353,1.128-3.304-7.791-1.886-10.546c1.41-2.796,4.712-3.352,10.82-1.684
		c6.123,1.684,6.6,0,8.018-2.78c1.4-2.763,2.818-5.543,9.4-7.775c6.591-2.239-0.475-3.907-2.344-5.019
		c-1.896-1.096-4.238-3.335-5.656,0c-1.4,3.343-4.705,7.251-4.705,7.251s-3.762,0-8.951-0.564c-5.171-0.564-1.407-2.779,0.959-3.907
		c2.347-1.104,5.175-7.783,2.806-9.435c-2.336-1.684-3.287-2.796-7.524-1.684c-4.238,1.111-1.41-3.899-4.238-5.56
		c-2.819-1.667-1.877,1.112-1.877,3.344c0,2.216-4.229,1.66-4.229,1.66s-6.606-1.12-8.951,0c-2.353,1.128-6.591,3.335-5.173,5.011
		c1.418,1.676,6.115,1.676,7.518,6.663c1.418,5.019-6.1,6.139-7.518,6.671c-1.418,0.58-7.057,2.795-7.057,2.795
		s-5.641-1.676-10.354-1.676s-6.115,0.556-5.18,2.788c0.934,2.216,3.295,1.104,4.705,1.104c1.409,0,1.409,2.796,5.639,1.66
		c4.254-1.088,3.304-2.764,7.066,1.676c3.762,4.439,7.541,3.883,13.656,7.807c6.099,3.883-0.959,8.339-4.238,8.339
		c-3.295,0-3.295-3.344-5.188-6.671c-1.877-3.344-9.394,0.531-9.394,0.531s-6.132,3.924-9.41,3.924
		c-3.304,0-5.656-0.588-1.427-4.455c4.238-3.916-5.172-4.464-5.172-10.015c0-5.559-2.707,9.45-2.707,12.23
		c0,2.78-2.94-3.352-10.941-2.215c-8.008,1.104-6.599,4.455-16.951,12.206c-10.353,7.791-7.638,5.978-6.711,13.229
		c0.959,7.211-1.748,8.468,2.474,9.571c4.237,1.12,2.828,9.45,6.123,8.902c3.303-0.531,5.647-3.335,12.246,0.548
		c6.574,3.908,9.869,5.003,17.877,6.688c8.001,1.659,11.894,0.709,16.13-0.419c4.237-1.096,8.354,4.31,8.354,8.218
		c0,3.891,2.82,4.447,2.345,9.45c-0.468,4.987,5.181-4.463,5.181-4.463s2.344,8.347,0.451,9.451
		c-1.861,1.12,0.475,6.099,2.828,5.575c2.368-0.572,5.655,1.667,8.475-1.112c2.828-2.795-1.409-11.126-1.409-14.453
		c0-3.352-2.836-5.02-4.246-8.354c-1.401-3.335,3.778-3.891,5.655-0.556c1.894,3.319,5.189,0.556,8.468-2.224
		c3.304-2.795,3.304-7.799,3.304-7.799s-5.648-8.878-9.878-11.11c-4.245-2.224-2.36-2.795,1.869-3.891
		c4.238-1.112,0-2.796,0.951-8.903c0.935-6.107,0.935-10.006,3.288-10.006c2.366,0,10.836-1.676,17.894-1.104
		c7.065,0.556,10.354,6.654,15.059,7.227c4.696,0.54,12.223,1.66,13.647,4.431c1.418,2.78-8.331,4.528-5.02,8.967
		c3.277,4.431,6.902,2.731,10.198,4.398c3.304,1.66,7.05,0.54,11.287-6.123c4.237-6.671,6.115-7.243,7.524-6.115
		c1.435,1.104,10.377,13.35,12.722,16.146c2.354,2.763,4.608,10.844,5.092,13.632c0.478,2.755,9.482,0.797,11.376,0.797
		c1.861,0,8.937,6.14,9.869,9.467c0.959,3.327,2.836,4.447,8.943,6.123c6.131,1.651,0,7.767-1.41,11.086
		c-1.401,3.359-2.345,4.472-4.229,8.354c-1.887,3.908,0,0,2.354,1.676c2.353,1.668,3.287,3.884,7.073,2.78
		c3.755-1.112,5.646,0,7.05,3.352c1.41,3.319,3.304,6.115,4.705,8.871c1.418,2.787,0,7.259-1.877,4.463
		c-1.878-2.787-8.01-1.12-8.01-1.12s-2.818,3.335-3.771,1.667c-0.927-1.667-2.819-3.875-6.114-2.771
		c-3.296,1.104-6.583,0-10.346,0.548c-3.778,0.556-5.188-2.207-2.827-4.447c2.36-2.199,2.827-10.562,7.524-13.897
		c4.713-3.335,3.304-8.331,0-8.331c-3.296,0-4.697,4.995-6.592,6.123c-1.886,1.087-8.312-2.079-11.607,0.701
		c-3.287,2.796-8.613,4.842-5.318,5.946c3.279,1.136-4.705,5.567-7.532,5.567c-2.826,0-1.878-7.219-1.878-10.006
		s-3.762,1.66-3.762,1.66s-7.549-4.995-10.377-1.66c-2.82,3.335-12.972,1.917-16.274,5.261c-3.296,3.328-4.896,11.973-4.896,11.973
		s2.844-1.676,8.482-3.336c5.641-1.684,5.173-1.096,9.868-3.891c4.714-2.78,9.418-3.891,12.724,1.12
		c3.287,5.012-1.418,7.775-1.418,7.775s1.894,3.916,3.755,5.003c1.898,1.136,2.358-1.088,5.655-3.336
		c3.295-2.224,1.894,4.472,2.826,6.679c0.942,2.224,4.237,2.224,6.106-0.564c1.886-2.779,3.304-4.995,4.722-3.327
		c1.396,1.684,2.819,5.567,4.223,9.45c1.41,3.892-9.868,5.011-11.756,5.591c-1.877,0.524-10.826,2.755-12.236,3.312
		c-1.401,0.54-6.123,5.551-9.887,5.551c-3.746,0-3.312-6.663-3.746-10.562c-0.49-3.892-5.195,0.556-5.663,2.224
		c-0.468,1.676-4.714,1.136-8,1.676c-3.296,0.556-8.942,4.439-8.942,8.886c0,4.456,6.646,9.217,5.221,11.449
		c-1.394,2.224-12.286,1.361-15.59,0.233c-3.277-1.112-7.992,1.66-6.564,3.907c1.4,2.216,0.468,5.551-2.836,4.995
		c-3.296-0.548-3.755,3.344-2.354,6.107c1.418,2.787-4.229,8.33-5.646,6.106c-1.418-2.199-4.246-3.319-4.246,0
		c0,3.336,2.778,7.984,5.605,12.407c2.812,4.447-7.941,5.422-11.239,8.75c-3.303,3.343-10.643,14.76-15.348,16.999
		c-4.713,2.2-8.652,9.137-6.309,11.893c2.361,2.778,5.188,14.462,6.599,18.359c1.41,3.894-0.491,15.012-4.713,14.462
		c-4.229-0.556-1.886-7.227-6.131-8.887c-4.222-1.684-6.583-11.682-7.517-18.369c-0.936-6.671-1.886-2.788-4.714-0.562
		c-2.819,2.215-5.64-4.432-7.041-6.107c-1.427-1.65-8.411,3.255-14.051,2.684c-5.64-0.53-8.557,0.661-8.557,2.329
		c0,1.659-0.927,6.663-6.114,3.312c-5.173-3.312-6.132-3.312-11.296-3.312c-5.173,0-9.886-0.563-10.812,1.659
		c-0.951,2.231-6.123,7.235-9.427,8.349c-3.295,1.12-9.418,6.679-6.591,7.799c2.836,1.096,2.836,8.878,0.951,13.326
		c-1.894,4.456-1.418,12.229-0.483,20.021c0.942,7.782,6.599,12.786,11.771,17.806c5.188,5.004,7.066,6.672,12.23,2.217
		c5.188-4.439,7.058-1.66,8.483-1.112c1.41,0.556,5.173-2.788,3.755-7.791c-1.402-4.987,1.885-9.451,6.131-8.896
		c4.222,0.571,10.345-1.659,13.64-1.097c3.295,0.54,5.181,11.104,0,15.55c-5.188,4.455-2.36,11.136-3.295,16.139
		c-0.935,4.995-5.173,6.091,0,6.091c5.181,0,3.763,1.152,7.065,1.684c3.287,0.558,6.599-3.317,9.886-3.906
		c3.278-0.522,11.763,8.362,10.345,12.817c-1.402,4.447-2.812,12.223-2.345,19.448c0.468,7.235,2.345,7.799,3.287,10.015
		c0.959,2.217,4.697,7.235,8.942,5.013c4.23-2.226,8.46-3.893,9.87-6.115c1.426-2.225,10.368,3.891,9.435,5.559
		c-0.951,1.668,3.278,3.354,6.104,1.668c2.828-1.668,4.246-4.446,7.065-8.9c2.82-4.447,7.533-8.355,9.894-8.896
		c2.339-0.548,7.992-7.227,11.765-6.105c3.763,1.104-1.426,6.646-1.895,10.007c-0.468,3.327,0,12.786,1.895,13.333
		c1.86,0.562,0.935-6.663,3.287-11.666c2.345-5.027,7.05-7.808,9.418-7.808c2.345,0,4.237,11.697,7.518,8.362
		c3.303-3.344,9.885-2.796,11.303,0.54c1.41,3.343,2.82,5.011,2.82,5.011s2.354-2.216,2.354-5.011c0-2.763,7.531-5.559,12.254-2.215
		c4.695,3.318,2.818,4.447,5.165,5.011c2.344,0.548,4.705-7.227,6.112-7.799c1.419-0.557,0,8.911-3.295,13.897
		c-3.286,5.02,2.828,3.353,2.828,3.353s0,0,1.418,1.667c1.396,1.668,6.101-1.667,7.992,1.668c1.885,3.344,5.188,4.447,8.008,10.57
		c2.82,6.105,6.043,0.7,11.69-0.411c5.655-1.128,13.721,7.09,19.368,14.301c5.646,7.228,4.713,12.794,8.468,12.794
		c3.771,0,4.705,6.115,4.705,8.322c0,2.24-8.46,7.269-13.173,8.354c-4.705,1.118-4.705,6.711,2.817,5.02
		c7.533-1.667,4.238-5.02,8.938-6.671c4.721-1.691,9.426,2.224,5.194,8.895c-4.244,6.655-12.722,7.212-5.194,8.314
		c7.541,1.128,3.303-1.104,7.541-7.768c4.222-6.672,3.754-4.438,6.598-4.438c2.812,0,8.919,1.667,11.288,3.891
		c2.359,2.225,8.459,5.552,12.229,8.314c3.764,2.796,8.477,1.684,11.278,0.58c2.836-1.119,10.836,3.336,13.664,7.767
		c2.82,4.473,9.886,5.021,13.156,6.695c3.304,1.65,8.5,8.322,8.941,13.89c0.173,1.951-0.416,4.651-1.264,7.452
		c31.188-47.816,72.743-88.254,121.478-118.125c-3.637-3.416-10.134-4.426-17.119-8.332c-8.951-4.995-3.771-10.569-4.705-16.112
		c-0.937-5.566-5.642-7.791-3.295-8.354c2.358-0.58,1.894-4.423,7.05-12.229c5.188-7.774,1.893-16.129,0.95-20.594
		c-0.95-4.423-5.642-11.094-0.95-18.328c4.705-7.228,7.67-24.469,11.416-28.925c3.778-4.455,14.953-8.895,20.125-11.666
		c5.181-2.795,1.886-10.021,4.697-18.345c2.826-8.347,7.072-12.23,8.49-12.23c1.409,0,6.641-5.785,12.224-9.442
		c4.229-2.795,14.123,0.524,16.009-0.572c1.893-1.088,9.401-3.899,13.655-6.131c4.229-2.208,17.878-7.791,19.755-7.791
		s25.395,0.588,28.706-1.112c3.295-1.651,16.022-4.012,19.787,8.218c3.763,12.214-4.254,7.388-8,9.571
		c-3.787,2.248,1.408,7.259,3.271,7.259c1.894,0,8.476,7.219,11.771,7.219c3.286,0,11.303,3.899,11.303,3.899
		s7.977,7.227,12.237,7.227c4.223,0,11.399,8.611,16.104,3.077c4.697-5.566,6.944-16.967,11.658-15.863
		c4.694,1.112,9.885,5.559,15.992,5.559c6.114,0,17.426-1.12,19.304,1.667c1.901,2.78-12.706,12.229-11.779,14.461
		c0.959,2.217,2.836,1.66,7.541-5.011c4.697-6.671,11.765-6.671,17.419-8.323c5.647-1.684,8.491,8.862,9.41,12.206
		c0.942,3.345,5.181,9.458,8.467,16.693c3.306,7.211,6.583,17.217,10.361,25.016c3.763,7.791-0.442,23.413,3.327,28.416
		c3.126,4.163,10.448,7.903,14.181,12.869c6.027,1.43,11.999,3.001,17.912,4.711c-1.354-7.164-3.05-11.21-4.354-14.285
		c-1.41-3.343-9.888-12.254-11.779-13.922c-1.894-1.65-6.574-14.993-7.049-20.567c-0.483-5.56-5.648-3.353-6.574-9.45
		c-0.967-6.131-6.146-14.462-7.082-18.36c-0.927-3.893-1.918,0.273-5.68,0.822c-3.779,0.571-13.036-9.233-12.104-18.16
		c0.33-3.143,0.242-4.334,0.193-4.642c0.097,0.451,0.669,1.967,3.006,1.967c4.721,0,2.812-2.789,7.524-8.332
		c4.695-5.567,6.131-16.669,6.564-23.912c0.491-7.228-3.296-3.908-7.034-2.78c-3.762,1.104-9.409,2.78-11.286,2.224
		c-1.886-0.572-9.427-3.352-10.837-1.667c-1.418,1.667-9.409,0.548-11.286-2.224c-1.877-2.78-11.312-6.131-12.255-8.338
		c-0.936-2.232,0-15.558-1.894-18.925c-1.869-3.328-6.083,0.572-8.46,2.795c-2.344,2.224-8.927,3.899-7.06,5.527
		c1.896,1.716,8.019,5.027,7.533,9.466c-0.476,4.463-4.705,5.591-7.05,7.791c-2.353,2.224-10.933,11.03-12.334,8.258
		c-1.418-2.788-2.271-20.488-3.683-22.704c-1.401-2.199-5.642-7.767-7.06-12.794c-1.399-5.003-6.573-6.671-9.869-10.57
		c-3.295-3.875-12.722-9.998-16.468-14.438c-3.786-4.447-10.368-7.783-10.845-2.24c-0.459,5.559,6.606,6.679,9.427,12.238
		c2.828,5.551,8.951,8.903,12.223,10.562c3.295,1.684,12.245,8.902,12.245,8.902s-3.754,1.668-7.058,1.104
		c-3.295-0.532,1.845,11.988,1.395,15.879c-0.481,3.892-6.105-1.426-7.05-5.865c-0.935-4.455-3.771-9.45-5.64-11.118
		c-1.878-1.676-14.124-6.123-16.001-7.219c-1.885-1.136-9.885-7.243-10.812-12.246c-0.967-5.003-8.022-5.559-9.899-4.447
		c-1.887,1.12-8.951,7.219-12.246,7.219c-3.271,0-8.452-2.771-12.23-3.335c-3.763-0.556-4.236,7.234-5.64,11.674
		c-1.426,4.463-7.523,1.136-10.82,5.027c-3.295,3.899-8.959,7.774-7.549,11.118c1.427,3.327,3.786,3.327-0.459,6.107
		c-4.246,2.763-6.599,8.355-10.819,8.886c-4.236,0.572-9.879,2.796-12.245,1.128c-2.354-1.659-4.229,5.551-5.647,7.211
		c-1.41,1.708-3.771-4.987-6.123-7.767c-2.345-2.771-8.451-0.572-10.337-1.104c-1.886-0.564-3.776-5.592-6.123-7.791
		c-2.368-2.224-1.877-7.219,0-8.935c1.869-1.628,3.755-4.423,2.347-9.418c-1.402-5.011-2.347-16.137,2.358-18.353
		c4.713-2.224,15.992,0,21.648,0c5.653,0,15.321,2.32,16.94-1.128c2.347-4.995,3.287-10.538,2.82-15.565
		c-0.477-4.995-9.877-9.45-15.992-10.546c-6.123-1.104-5.197-4.439,1.401-5.012c6.604-0.548,6.132-3.343,11.771-4.439
		c5.633-1.112,11.296-2.771,15.533-3.352c4.23-0.548,4.23-4.995,4.23-8.331c0-3.327,11.776-4.463,11.776-4.463
		s6.574-7.203,10.337-10.538c3.778-3.335,10.354-2.748,15.533-1.08c5.188,1.651-0.467-3.867-2.354-6.639
		c-1.895-2.788-0.459-8.822,0.941-12.166c1.41-3.335,9.878-4.85,12.254-3.738c2.338,1.112,0,6.429,0.451,10.876
		c0.477,4.455,4.238,8.113,4.238,8.113l3.777,0.927c0,0,0,0,6.106,0c6.131,0,6.438-1.346,11.144-3.029
		c4.704-1.676,8.161-0.939,10.038-2.059c1.869-1.096,7.041-1.158,14.114,1.605c7.05,2.788,3.287-5.042,4.697-9.482
		c1.418-4.447,4.236-12.245,8.951-11.697c4.705,0.563,8.482,3.875,12.236,1.128c3.764-2.804-7.051-6.707-7.051-8.367
		c0-1.667,8.943-1.669,16.93-2.226c4.688-0.335,8.242-0.28,11.146-0.396c68.938,79.408,112.22,181.687,116.956,293.936
		c-0.12,0.062-0.239,0.123-0.358,0.186c16.889,6.791,33.182,14.745,48.779,23.769c0.007-1.122,0.021-2.242,0.021-3.365
		C1056,236.394,819.605,0,528,0C236.394,0,0,236.394,0,528c0,291.605,236.394,528,528,528c1.124,0,2.244-0.015,3.365-0.021
		C498.699,999.502,480,933.936,480,864z M862.041,183.312c7.064,6.848,13.922,13.909,20.556,21.177
		c-2.36,0.11-4.72,0.135-6.443-0.069c-4.683-0.572-9.869,3.336-14.106,4.439c-4.229,1.128-5.188-6.671-7.533-10.015
		c-2.359-3.335-3.304-9.426,2.828-12.77C858.719,185.326,860.34,184.373,862.041,183.312z M784.097,177.649
		c8.968-2.2,19.585-7.71,25.708-13.253c6.133-5.575,8.951-12.254,10.828-13.922c0.235-0.208,0.971-0.689,2.078-1.365
		c11.508,8.964,22.597,18.438,33.231,28.393c-0.428,1.589-1.38,3.495-3.316,5.779c-8.468,10.015-12.697,3.336-19.304,10.015
		c-6.59,6.663-1.877,7.227,4.254,9.45c6.115,2.232,0.935,8.903-0.475,10.555c-1.41,1.676-8.479,7.823-7.525,12.254
		c0.941,4.431-4.713,7.227-4.713,7.227s-17.41,4.447-20.706,5.003c-3.295,0.556-4.245-2.78-3.295-6.115
		c0.95-3.336-3.771-11.135-4.237-16.122c-0.468-5.011-7.518,2.208-8.001,5.575c-0.459,3.335-9.418,3.851-14.582,1.652
		c-5.188-2.24-8.009-10.57-7.05-12.238c0.927-1.676-2.82-10.015-2.82-12.23C764.172,196.066,775.153,179.889,784.097,177.649z
		 M342.23,89.485c0.854,0,11.762-2.586,12.044-6.301c0.085-1.102,0.458-2.206,1.062-3.185c2.671-1.03,5.353-2.042,8.044-3.026
		c1.797,0.264,3.176-0.36,4.146-1.488C417.707,57.69,471.721,48,528,48c21.486,0,42.641,1.42,63.381,4.156
		c1.561,3.07,3.504,5.702,6.744,6.568c4.507,1.221,7.541-0.747,10.795-3.924c7.459,1.266,14.86,2.7,22.198,4.306
		c-1.05,0.779-2.211,1.43-3.449,1.85c-6.606,2.232-18.651,16.685-20.956,18.893c-2.279,2.239-6.01,6.3-4.012,11.883
		c2.006,5.575,4.601,2.973,6.599,4.061c2.022,1.12-1.725,3.335-3.438,6.687c-1.74,3.319-2.008,9.611-1.74,15.573
		c0.312,5.922-11.021-2.602-17.057-1.861c-6.02,0.757-3.286,8.886-2.137,11.481c1.146,2.586,1.998,6.3,3.15,7.799
		c1.137,1.466,2.015,7.033-3.73,8.532c-5.734,1.458-7.732-3.343-7.451-7.066c0.268-3.698-10.209-8.089-11.336-8.089
		c-1.145,0-0.441,11.44,3.875,11.44c4.295,0,7.18,5.173,9.178,7.42c2.007,2.208-4.304,2.208-6.88,1.837
		c-2.587-0.354-10.628,5.205-18.079,6.671c-7.471,1.482-15.751-0.314-18.895,0.056c-3.175,0.363-8.072,11.449-9.231,13.302
		c-1.138,1.861-11.456,0-15.194,0c-3.723,0-6.889,4.818-12.907,5.914c-6.019,1.12-2.858,5.591-2.586,9.273
		c0.282,3.706-1.716,5.567-5.454,4.456c-3.729-1.104-3.433,1.482-3.729,4.818c-0.282,3.352,0.572,7.791-2.86,11.118
		c-3.448,3.319-4.874,4.447-8.886,4.068c-4.021-0.362-3.73-8.5-5.165-8.145c-1.442,0.387-8.33,5.543-9.482,2.586
		c-1.144-2.965-10.047-9.644-13.194-11.126c-3.145-1.499-5.438-7.807-6.883-10.385c-1.434-2.618,4.312-3.005,2.57-3.384
		c-1.7-0.346-7.733-2.288-8.871-4.133c-1.136-1.853-4.874-10.876-5.164-13.471c-0.29-2.61,4.584-7.308,4.584-8.814
		c0-1.458-4.584-1.982-6.59-1.982s-4.316-6.631-1.434-12.182c2.867-5.575,7.162-6.188,7.162-6.188s1.834,0,3.992,0
		c-2.496-1.935-7.281-2.6-8.287-0.951c-1.151,1.821-6.025,9.612-7.47,7.75c-1.435-1.861-1.708-18.53-4.303-23.356
		c-2.594-4.81-11.746-6.308-15.483-8.532c-3.737-2.224-17.209-4.431-19.506-4.802c-2.312-0.371-10.908,2.224-14.35,0.725
		c-3.456-1.45-3.456-8.887-3.456-8.887s-1.998,7.791-3.433,9.999c-1.436,2.232-4.594,3.368-6.863,2.232
		c-2.312-1.104-5.753-9.266-10.055-10.385c-4.312-1.087-6.311,0.741-9.759-2.224C327.317,89.131,341.359,89.485,342.23,89.485z"/>
</g>
</svg>
