<?xml version="1.0" encoding="utf-8"?>
<!-- Generator: Adobe Illustrator 16.0.1, SVG Export Plug-In . SVG Version: 6.00 Build 0)  -->
<!DOCTYPE svg PUBLIC "-//W3C//DTD SVG 1.1//EN" "http://www.w3.org/Graphics/SVG/1.1/DTD/svg11.dtd">
<svg version="1.1" id="Layer_1" xmlns="http://www.w3.org/2000/svg" xmlns:xlink="http://www.w3.org/1999/xlink" x="0px" y="0px"
	 width="1152px" height="1152px" viewBox="0 0 1152 1152" enable-background="new 0 0 1152 1152" xml:space="preserve">
<path d="M303.764,779.002l20.705,1.686v-12.039h37.785c-0.239-1.92,0-1.92,0.485,0c1.442,1.926,2.886,4.336,4.571,6.986
	c1.686,2.646,3.128,5.053,5.057,7.702c1.682,2.646,3.61,4.57,5.531,5.771c4.574,2.893,8.91,5.781,13.002,8.914
	c4.332,2.881,7.703,6.252,10.588,10.588c1.207,1.924,1.929,3.853,2.168,6.26c0,1.921,0,4.096,0.242,6.252
	c0,2.407,0.479,4.578,1.443,6.985c0.964,1.204,2.406,2.407,4.331,2.89c1.689,0.242,3.61,0.96,5.053,2.163
	c4.093,2.65,8.185,5.782,11.8,8.663c4.092,3.133,8.424,5.778,13.719,8.667c1.926-2.889,3.85-5.774,5.539-8.424
	c1.678-2.649,3.606-5.049,5.531-7.221c1.929-1.925,4.336-3.606,7.464-4.817c3.128-1.442,7.217-1.921,12.273-1.921
	c6.26,0,11.799,1.442,15.888,4.331c4.335,3.133,7.702,6.979,10.592,11.553c2.885,4.574,5.534,9.631,7.698,14.931
	c2.407,4.806,4.817,9.624,7.468,13.955c1.682,2.164,3.371,4.089,5.531,6.018c2.167,1.686,4.096,4.335,5.777,7.467
	c1.929,4.089,3.61,8.663,5.539,13.238c1.442,5.049,3.124,9.384,5.535,13.477c2.164,4.331,5.295,7.464,9.384,9.87
	c3.371,1.929,6.503,3.129,9.632,4.089c2.649,0.482,5.535,1.207,8.424,1.686c2.649,0.479,5.535,1.203,8.424,2.403
	c2.65,0.964,5.777,2.653,9.149,5.061v-1.204c1.207-0.239,2.163-0.721,2.889-1.203c0.964-0.482,1.921-1.203,2.646-1.689h-0.725
	c0,0-0.239-0.964-0.957-2.407c-0.725-1.686-1.442-3.605-2.406-5.77c-0.965-2.407-1.446-4.575-2.172-6.261
	c-0.961-1.929-1.203-3.132-1.203-3.614c-0.479-1.924-0.479-3.367-0.722-5.053c-0.481-1.686-0.722-3.371-0.722-5.053
	c0-2.889,0.722-6.26,2.168-9.87c1.204-3.85,2.89-7.221,4.818-10.353c1.92-3.128,4.088-5.292,6.256-6.256
	c2.164-1.208,4.088-2.886,5.777-5.293c1.922-2.414,3.611-4.335,5.293-6.742c1.928-1.924,3.609-3.367,5.773-4.578
	c3.375-1.203,6.742-2.406,9.393-3.367c2.406-0.968,5.053-2.406,7.459-3.85c2.407-1.442,5.053-3.613,7.46-6.26
	c1.204-1.203,2.168-2.406,3.132-4.096c1.204-1.443,2.407-2.886,3.61-4.324c0.961-1.689,2.407-2.654,3.61-3.371
	c2.885-1.925,5.778-3.133,8.424-4.332c2.646-0.964,5.053-2.168,7.221-3.371c0.783-0.59,1.493-1.254,2.18-1.936l-0.012,0.011
	c0.239,0.479,0.479,0.961,1.442,1.2c1.929,0,4.089-0.722,6.499-1.929c2.168-0.953,4.811-1.686,7.464-1.925
	c4.089,0.239,7.702,1.207,11.313,2.889c3.613,1.443,7.702,2.65,12.033,2.893c2.411,0,5.057,0.24,7.225,0.479
	c2.407,0.479,4.567,0.726,6.496,0.726c1.442-0.247,2.167-1.446,2.406-4.332c-1.686,0.235-3.61,0.479-6.018,0.961
	c-2.167,0-4.088-0.482-5.053-1.442c0.24-0.247,1.443-1.2,3.129-2.172c1.686-1.203,2.889-1.921,3.85-2.168
	c1.686,0.247,3.613,0.965,5.295,2.168c2.407,1.446,3.371,2.889,3.61,4.332c3.132-0.479,4.575,0,4.813,2.406
	c0.479,2.176,1.204,3.854,2.646,5.061c1.689,0.965,3.371,1.678,6.018,2.65c2.649,0.964,4.574,1.203,5.777,1.442
	c2.407-0.239,3.61-1.442,4.336-3.128c0.479-1.689,1.682-2.894,4.088-3.133c2.894,0,4.336,2.168,4.093,6.261
	c2.407-0.239,3.371-1.442,4.335-3.128c1.2-1.929,2.403-3.615,3.607-5.057l-0.718-0.244c-0.965-0.478-1.446-0.725-1.689-0.725
	c0-1.682,0.725-2.643,1.929-2.885c2.406,0.242,5.295,1.203,8.424,3.609c2.889,2.168,4.813,3.611,6.495,5.301h2.653
	c1.204,0,1.929,0,1.689,0.474l1.678,0.49v-5.061c-0.234-0.718-0.96-1.204-1.199-1.682c-0.479-0.247-0.964-0.964-1.203-1.929
	c-2.414,0.482-5.3,0-7.707-1.203c-2.406-1.2-4.81-2.882-6.738-4.571c2.407-0.485,4.332-1.929,6.738-4.096
	c-0.481-0.475-0.964-0.965-1.446-1.929c0.726,0,1.929-0.957,1.929-2.643c-1.203-0.238-1.446-1.203-1.203-2.406
	c0.239-1.447,0.721-2.65,1.203-4.336h-3.371c-0.96,1.686-1.921,2.889-2.885,4.097c-0.965,0.718-2.65,1.203-4.578,1.203
	c-0.718,0-1.204-0.722-0.24-2.171c0.965-1.2,1.93-1.922,2.646-2.646c-1.203,0-2.16,0.239-3.61,1.203
	c-1.682,0.722-2.403,1.203-2.403,1.443c-0.481,0-1.928,0-4.813,0c-1.446,0-2.649,0-4.331,0c-1.203-0.24-1.929-0.722-1.929-2.407
	c0.239-1.442,1.442-2.886,2.893-4.332c1.682-1.442,2.886-1.921,3.846-2.406c2.407,0.485,4.335,0.964,5.778,2.406
	c1.686,1.446,3.367,2.411,6.499,2.89c-0.239-1.204-0.239-2.168,0.243-2.89c-0.039-0.046-0.069-0.097-0.112-0.143
	c0.779-1.08,2.399-1.554,4.922-1.778c2.168-0.485,4.813-0.964,7.468-1.203c2.406,0,4.088,0,5.049,0c1.686-0.239,2.889-0.239,4.092,0
	l0.726,0.239l0.239-0.239h13.959c-0.722-1.689-1.443-4.096-1.203-7.225c0-2.889,0.721-5.539,1.686-7.455
	c0.721,1.682,1.442,4.084,2.893,6.977c1.442,3.129,2.885,5.297,4.574,5.535c1.203-0.238,2.407-0.721,4.085-1.207
	c1.686-0.721,2.407-1.442,3.614-1.686c3.371-0.721,6.981-1.442,10.83-2.885c3.85-1.447,7.946-1.925,12.76-2.168
	c4.093,0.243,8.663,1.203,13.963,3.128c5.292,2.168,8.902,4.817,10.584,7.703l0.725,0.721c0.479,0,0.726,0,0.965,0
	c-0.239,3.132,1.682,4.813,5.057,5.061c4.81-0.247,9.146-1.45,12.03-3.375c2.889-1.921,5.778-4.088,8.906-6.256
	c2.889-1.929,7.225-2.89,12.034-3.371c4.332,0.481,7.949,1.929,10.356,4.813c2.881,3.128,5.531,6.26,8.416,9.631
	c2.893,3.371,6.989,5.297,11.795,6.261c0.247,2.881,0.965,5.053,2.654,7.456c1.682,2.175,2.159,5.057,2.406,8.91
	c0,2.885-0.247,5.057-0.725,6.98c-0.965,1.929-1.204,4.571-1.204,7.217c-0.238,4.814,1.204,8.189,4.336,10.592
	c0.239-1.686,0.725-3.367,1.203-4.81c0.479-1.45,0.965-2.411,2.407-3.375c0.478,1.211,0.478,2.889,0.964,4.817
	c0.239,1.929,0.239,3.85,0.239,5.296c-0.726,0.479-1.203,0.479-1.929,0.718c-0.717,0.489-1.203,0.725-1.203,1.689
	c0,0.478,1.203,1.928,2.893,4.813c1.443,2.889,3.367,5.296,5.292,7.941c1.921,2.646,3.132,3.854,4.097,4.089
	c0.479,0.486,0.479,0.729,0,1.45c1.682-0.964,2.885-1.933,3.85-3.614c0.717,0.965,0.964,2.164,0.717,3.614
	c-0.479,1.203-0.479,2.646-0.479,3.85c0.479,0.964,1.447,1.442,3.371,2.407c1.443,0.964,2.89,1.441,3.85,1.441
	c0,0.482,0.239,1.204,0.965,1.689c0.238,0,0.964,0.957,1.203,1.679c0.239,2.171,0.965,4.335,1.442,6.264
	c0,1.686,1.204,3.128,2.886,4.089c1.928,0.964,3.375,1.207,4.817,1.446c0.721,0.481,2.406,0.96,4.093,1.925
	c1.441,0.485,2.646,1.442,4.327,2.649c1.689,1.2,2.653,2.886,3.14,4.813c0,2.886,0,5.531,0.479,7.464
	c0.239,2.16,1.925,3.124,4.81,3.124c2.168-0.238,4.331-0.964,6.021-2.406c1.682-1.682,3.133-2.407,5.293-2.65
	c0.481,0,1.446,0.243,2.406,0.969c-0.96,2.885-2.885,5.531-5.053,7.941c-2.646,2.646-4.813,4.813-6.981,6.499
	c3.124-1.929,6.742-4.817,10.109-8.424c3.85-3.371,5.774-7.464,6.257-11.312c0-1.204-0.482-1.689-1.443-2.654
	c-0.964-0.956-1.203-2.163-1.203-3.363c-0.243-3.136,0.961-5.3,3.375-6.256v-13.003c-0.486-2.406-0.729-5.296-0.486-8.902
	c0.239-3.617,0.239-6.264-0.242-8.666c-1.686-4.814-3.61-8.906-6.018-12.524c-2.402-3.606-5.049-7.213-7.941-10.827v0.482
	c-1.686-2.168-2.89-4.336-4.093-6.253c-1.203-1.929-2.646-4.096-4.089-6.26v-11.074c-1.686-1.929-3.128-3.371-5.295-4.813
	c-2.168-1.211-3.854-2.889-5.539-4.574c-3.367-4.814-6.018-10.353-7.946-15.888c-1.682-5.296-4.089-11.313-7.216-17.091
	c-0.965-1.442-2.407-3.85-3.85-6.018c-1.447-2.168-1.925-5.053-2.172-8.424c-0.336,0-0.775-0.104-1.157-0.154
	c0.443-1.149,0.667-2.295,0.439-3.217c-0.485-0.96-0.485-2.646-0.485-4.81c0-1.442,0-3.371,0.485-4.579
	c0.239-1.199,0.718-2.41,1.204-4.088c-0.239-0.239-0.965-0.722-1.689-0.965c-0.479-0.478-0.957-0.478-0.957-0.964
	c0-0.956,0.479-2.407,1.442-4.331c0.718-2.407,0.965-4.089,1.204-4.814c0-0.485,0-0.721,0-0.964c0-0.475,0-1.204,0-1.929
	c0.238-1.199,0.964-1.917,2.646-2.402c0-0.479,0-1.204,0-1.687c0-0.243,0-0.96,0-1.682c1.134-0.451,2.028-0.937,2.334-2.19
	c1.003-1.227,1.785-2.318,1.997-3.587c0.236-1.446,0.482-3.132,0.965-4.571c0.721-1.211,1.446-2.653,2.889-3.613
	c0.239-0.244,0.718-0.482,0.965-0.482c0.479-0.235,0.956-0.235,1.682-0.479c0.479,0,0.964-0.486,1.203-1.446
	c-0.239-0.482-0.479-1.204-0.725-1.686c-0.718-0.243-1.204-0.722-1.682-1.204h0.238c2.168-0.481,4.097-0.721,5.782-1.686
	l0.479-0.238c0.721,0,1.203-0.239,1.686-0.722c2.407-1.442,3.371-3.132,3.61-5.539v-0.718c0-0.246,0-0.964,0-1.689
	c1.921-0.717,3.609-1.441,5.053-3.127c0.725-0.479,1.211-1.443,1.689-2.407l0.239-0.965c0-0.717,0.239-1.442,0.239-2.163
	c2.649-0.726,4.331-1.929,5.534-3.85c0-0.486,0.482-0.726,0.722-0.965c0.482-1.689,0.964-2.889,0.964-4.331c0-0.243,0-0.243,0-0.243
	c0-0.486,0-0.965,0-1.442c0-0.486,0-1.442,0-2.407c0.239-0.725,0.239-1.686,1.204-2.885c0.238-0.729,0.717-1.45,0.964-2.407
	c0.479-0.247,0.479-0.732,0.964-1.211l0.24-0.479c0.478-0.964,1.203-1.929,1.928-2.649l0.239-0.479
	c0.479-0.482,0.726-1.207,1.204-1.686c1.682-2.172,3.128-3.371,4.088-4.092l-0.239-0.24l0.482-0.242v-0.482
	c2.403-0.721,4.57-1.199,6.013-2.164c1.929-0.486,4.822-0.964,8.193-0.964c0.234-2.407,0.713-4.81,0.713-7.225
	c0.243-2.885,0.726-5.049,1.925-6.978c0.243-0.965,1.689-1.925,3.132-3.132c1.689-1.682,2.407-2.643,2.886-3.128
	c-0.479-1.443-0.479-3.129,0.485-4.089c1.451,0.479,3.61-0.239,5.778-2.168c2.407-1.689,4.813-3.367,7.221-4.57
	c0.964-0.239,2.168-0.239,3.132,0c0.965,0.239,2.168,0.239,3.61,0c0-2.89,0.479-5.061,2.164-6.499
	c1.686-1.929,2.889-3.614,3.845-5.774c-0.717,0.952-1.203,1.438-1.916,1.682c-0.965,0-1.447,0-2.168,0
	c-1.446,0.96-2.889,1.678-4.57,1.925c-1.929,0.717-3.618,1.686-4.822,2.646h-6.017c0.247-0.479,0.722-1.204,0.247-1.93
	c0.713,0.726,1.682,0.969,3.124,1.451c1.682,0,2.646-0.726,3.371-2.168c0.479-0.965,1.203-2.168,1.929-3.606
	c-0.965-0.49-1.689-0.964-1.929-1.207c0.964-0.243,1.929-1.208,2.893-2.411c-1.689-1.203-3.618-2.168-5.785-2.168
	c-1.921-0.238-4.328-0.475-6.496-0.956c2.168,0.481,3.85,0,5.539-0.726c1.442-1.203,2.886-2.164,4.328-2.649
	c-0.479,0.726-1.204,1.446-1.442,1.686c1.442,0.243,3.132,0.243,4.813,0l0.725,0.485c0.239,0.479,0.726,0.722,1.204,0.961
	c2.649-0.239,5.057-2.168,7.459-5.3c2.407-3.128,3.61-5.535,3.85-7.694c0-0.961,0-2.65,0-4.579c0-1.921,0-3.849,0-6.013h-0.717
	c-0.726,0-1.443,0-1.689,0c0.246,1.199,0.725,2.164,1.203,3.128c0.486,0.964,0.725,2.167,0.964,3.85
	c-0.239,0.964-0.964,0.725-1.921-0.965c-0.725-1.682-1.689-2.642-1.689-2.885c-1.689,0.243-2.646,0.964-3.132,2.646
	c-0.235,1.682-0.475,2.882-1.199,3.857c-0.961-2.653-2.164-4.821-3.854-6.989c-0.956,1.208-1.921,2.168-3.61,2.407h-2.406
	c-0.965,1.446-1.929,2.406-3.611,2.653c-1.207-0.247-2.167-0.725-3.124-1.689c1.204,0,2.646-0.239,4.089-0.718
	c2.406,0,3.61-1.445,4.089-5.061c2.414,0.244,3.371-0.234,3.132-1.924c0.239-0.479,0.486-0.961,1.203-0.479
	c0.965,0.239,1.442,0.479,1.929,0.479c0.239-0.961,0.239-1.925,0-2.893l1.203,0.968h3.85c-0.247-1.686-0.96-3.128-1.925-4.817
	c-0.964-1.2-1.442-2.886-2.164-4.328c-0.069,0.033-0.227,0.089-0.447,0.16c0.405-0.498,0.17-1.398-0.517-2.085
	c-0.726-0.726-1.442-1.446-1.929-2.167c-0.964,0.478-1.442,0.964-2.168,1.924c-1.442-0.482-2.646-1.203-4.088-1.682l-4.578-2.889
	c0,0-0.236,0-0.236-0.243l-2.167-1.442c-2.245-1.354-4.278-2.683-6.303-3.83c0.143,0.054,0.305,0.107,0.524,0.216
	c-0.479-0.235-0.479-0.479-0.725-0.722c1.442,0.722,2.893,1.443,4.335,2.407c1.446,0.964,2.893,1.207,3.606,1.442
	c0.49,0,0.965,0,0.965,0.243h0.238c0.482,0,0.729-0.243,0.969-0.479c-1.929-1.442-3.61-2.893-5.292-4.335
	c-0.934-0.698-2.099-1.622-3.264-2.55c-0.085-0.097-0.115-0.166-0.115-0.335c-0.479,0-0.718-0.243-1.196-0.486
	c-0.246-0.479-0.725-0.961-1.203-1.199c0.957,0.481,1.682,1.199,2.399,1.686c0.485,0.242,0.485,0.242,0.964,0.242
	c0.239,0,0.726-0.242,0.973-0.485c0.478-0.243,0.717-0.479,0.717-1.204c0-0.964,0-1.928,0-2.646h0.239h3.132
	c-0.239-2.407-1.686-4.332-3.61-5.061c-2.414-0.961-4.813-2.164-7.22-2.886c-2.411-0.721-4.34-2.402-6.018-4.335
	c1.678,1.203,2.881,1.933,4.085,2.415l0.721,0.234c0.965,0.243,2.168,0.486,3.618,0.965l5.053,1.682
	c-0.717-2.881-1.929-5.774-3.85-7.941l-0.725-0.718c-1.682-1.925-4.097-2.653-7.464-2.653c-2.163-0.236-4.57-0.961-6.499-2.164
	c-1.442-0.722-2.16-1.443-2.889-2.168l-1.925-1.438c-0.482,0.478-0.722,0.964-0.965,1.438c0-0.475,0.482-1.203,0.965-1.438
	c1.925,0,4.335,0.235,6.742,1.199c2.407,0.486,4.335,1.442,6.495,2.164c1.925,0.729,3.857,1.446,5.061,1.446
	c0.718,0,1.203,0,1.442-0.239c-1.442-1.929-2.646-3.132-3.849-3.85c-1.451-0.721-2.894-1.686-4.34-2.41
	c-1.199-0.718-2.402-1.925-3.606-3.85v-1.686l5.535,5.296c0.479-0.243,0.96-0.479,0.96-1.442c-0.481,0-0.96,0-0.96-0.479
	c-0.482-0.486-0.482-0.964-0.726-1.689c-0.238,0-1.203-0.718-2.402-1.929c-1.203-1.442-2.407-2.885-3.61-4.332
	c-1.204-1.203-1.682-2.167-1.929-2.646c0.247-0.726,0.247-0.964,0.964-1.442c0.486-0.482,0.965-0.722,0.965-0.965
	c0.239-0.234,0.239-0.481,0.239-0.721c-0.239-0.479-0.239-0.725-0.479-1.442c-0.239-0.726-0.486-1.212-0.239-1.929
	c-0.726-0.239-0.964-0.486-1.203-0.726c-0.247,0-0.726-0.235-1.45-0.478c0.238-0.239,0.238-0.486,0.485-0.486
	c0.239-0.235,0.239-0.235,0.479-0.479c0.486,0,0.726,0,1.203-0.479c-0.239-0.485-0.478-1.199-0.717-2.164
	c-0.486-0.964-0.726-1.928-0.726-2.41v-0.243c0-0.718,0.726-1.442,1.682-1.682c0.965-0.726,1.929-1.203,3.133-1.925
	c0.725-0.482,2.163-1.45,3.367-2.406c1.203-0.965,2.163-2.407,2.646-4.097c0.729,0.239,1.207,0.239,1.933,0.239
	c-0.726,1.203-1.933,2.406-3.136,3.61c-0.479,0.726-0.961,1.446-1.683,2.171c-0.481,0.718-0.964,1.443-1.438,2.646
	c-0.964,1.442-1.446,3.132-1.688,4.81c0.242,0.965,0.725,1.929,1.445,2.894c0.957,0.964,1.682,1.682,2.403,1.92v1.689
	c0,0,0,0-0.243,0v0.24c-0.238-0.24-0.479-0.479-0.96-0.24c-0.243,0-0.243,0.24-0.718,0.24c0.475,0.481,1.199,1.211,1.678,1.211
	h0.243c0,0,0,0,0.239,0c0-0.247,0-0.486,0.243-0.486c0,0.635,0,1.111,0,1.686c0,0.479,0.479,0.717,0.96,1.203
	c0.239,0.239,0.722,0.479,0.722,0.479c0,0.965,1.207,1.446,2.411,1.925c1.682,0.481,3.124,0.481,4.574,0.481v0.248
	c0,0,0,0.234-0.247,0.478c0,0,0,0,0,0.239v0.239h-0.239c-0.964,0-1.682,0-2.646,0h-0.239c-0.726,0-1.203,0.243-1.203,1.199
	c0,1.45,0.478,2.654,1.203,3.857c0.725,1.203,1.682,2.168,2.885,3.367c0,0.243,0.239,0.482,0.239,0.964
	c0.247,0.482,0.486,0.965,0.972,0.965c0.479-0.247,0.718-0.482,1.443-0.965c0.238-0.234,0.478-0.721,1.203-0.721
	c0.239-0.243,0.239-0.243,0.479-0.243c0,0.243,0.242,0.243,0.485,0.729c0,0.234,0,0.478,0,0.717c0,0.726-0.243,1.446-0.725,2.164
	l0.964-0.239l0.718-0.722c0.485,0,0.722,0,0.96,0c0.243,0,0.482,0,0.482,0c-0.482,0.722-0.721,1.443-1.195,2.164
	c-0.247,0.243-0.247,0.486-0.49,0.722c-0.235,0.481-0.235,0.729-0.235,1.207v0.722c0.964-0.243,1.438-0.482,2.407-0.722
	c0.479-0.479,0.964-0.726,1.442-0.726s0.726,0,0.726,0c0.238,0,0.717,0,1.203,0.247c0.238,0.479,0.479,0.718,0.717,0.718
	c0.726-0.965,1.443-1.682,2.415-2.168c0.239-0.238,0.479-0.238,0.718-0.238c0.485-0.24,1.203-0.718,1.442-0.718
	c0,0-0.239,0.478-0.479,0.478c-0.964,0.722-2.168,1.2-3.132,1.682c0,1.447,0,2.89-0.479,4.332l-0.725,1.689
	c-0.24,0.718-0.479,1.203-0.965,2.164c-0.239,0.482-0.479,1.207-0.479,1.442l-0.238,3.371c0,1.203,0,2.407,0.238,3.854
	c0,1.203,0.479,2.407,1.203,3.61c0.24,1.203,1.204,1.921,1.922,2.168c0-0.726,0-0.965,0-1.208c0,0-0.239-0.239-0.239-0.481
	c-0.239-0.24-0.239-0.479-0.239-0.718v-0.726l0.725-6.499c0.239-0.479,0.239-1.199,0.479-1.921c0.726-2.172,1.45-4.339,2.407-6.499
	c1.203-2.176,2.167-4.579,3.132-7.46c-0.479,0-0.726,0-0.965,0.235h-0.238c0.238,0,0.238,0,0.478-0.235c0,0,0.247,0,0.486-0.243
	c0.479-0.721,0.479-1.929,0.479-3.128c0-0.964-0.239-2.168-0.239-3.132c-0.239-1.203,0.239-1.686,1.203-2.407v0.239
	c0-0.239,0-0.239,0.243-0.239v4.097c-0.243,0.479,0,1.199,0.479,1.921c0.481,0.964,0.481,1.686,0,2.164
	c0.481-0.235,0.725-0.961,0.725-2.164l0.239-3.132c0-1.442,0-2.646,0-3.85c0-2.164,0-3.606,0-4.331v-0.726
	c-0.239,0-0.721-0.479-1.442-1.204c-0.722-0.717-0.968-1.199-1.207-1.438c0-0.243,0.239-0.243,0.239-0.243
	c0.246,0,0.246-0.234,0.246-0.234c0.239-0.247,0.239-0.247,0.479-0.247c0-0.239,0.243-0.239,0.243-0.482l-1.207-2.889
	c-0.239,0-0.479,0-0.718,0.239c-2.893,0.238-5.3,0-6.989-1.439c-1.921-1.686-3.124-3.613-4.089-6.503l0.965-2.885
	c-0.725-1.204-1.203-2.411-1.929-3.375c-0.481-0.482-1.446-1.442-1.921-2.407c-0.964-0.964-1.686-2.406-2.168-3.846
	c0-0.489-0.478-0.725-0.964-0.725c-0.239-0.239-0.239-0.479-0.239-0.718c0-0.485,0-0.725,0.239-0.964
	c0.486-0.243,0.726-0.726,0.726-0.965c0.238,1.929,0.964,3.606,2.406,5.057c1.439,1.682,3.125,3.125,4.814,4.567
	c1.682,1.446,2.885,3.132,3.363,4.817h0.725c0.726-0.479,1.203-0.965,1.929-1.442c0.479-0.243,0.964-0.722,1.682-0.964h0.726
	c0.725,0,1.442,0.721,1.442,2.167c0.485,1.204,0.725,2.407,0.725,3.371c0.722,0,1.442-1.207,1.925-2.893
	c0.722-1.682,1.439-3.61,2.164-5.296c0.239-1.921,0.717-3.132,0.965-3.61c0.956-2.168,1.928-4.331,2.646-6.256
	c0.964-1.929,1.442-4.336,2.407-6.743v-6.252v-11.074v-0.242c-0.24-0.482-0.718-0.722-0.965-1.443c0-0.481-0.239-0.964-0.239-1.445
	l-0.478-1.447c-0.486-1.199-0.486-1.921-0.486-2.406c-0.718,0-1.443,0-2.646,0c-0.964,0-1.203,0-1.203,0
	c-0.965,0-1.442,0-2.403-0.235c-0.481,0-0.725-0.482-0.964-1.442c0.239-0.729,0.239-1.443,0.721-1.689v-0.239h0.243
	c0.475-0.486,0.714-0.965,0.961-1.204c0.243-0.725,0.478-1.446,0.956-2.167l0.965-3.368c0,0,0,0,0-0.246l0.725-1.682
	c0.239-0.965,1.203-3.129,1.203-3.129v0.965c0.486,0.479,0.965,0.479,1.204,0.479c0-0.243,0.239-0.243,0.964-0.722
	c-0.725-0.964-0.725-1.925-0.479-2.889v-0.239c0.24-0.243,0.24-0.726,0.479-1.203l0.239-1.443v-0.238
	c1.929-2.654,4.097-4.818,7.225-6.746l4.81-2.643c1.443-0.729,3.133-1.454,4.814-2.168c3.375-1.446,6.742-2.893,9.87-4.574
	c1.446-0.482,2.649-1.203,3.606-1.925l2.175-1.207c0.961-0.722,1.442-1.442,2.403-2.164v0.479c1.442-0.722,2.889-1.2,4.574-1.925
	c1.443-0.482,2.403-1.442,2.886-2.889c-0.243,0-0.482-0.479-0.961-1.439c-0.481-0.725-0.725-1.689-0.964-2.653
	c-0.482-1.204-0.482-1.682-0.482-2.168c0-0.714,0-1.442,0-2.163c1.203,0.242,1.925,0.721,2.407,1.686
	c0.721,0.725,0.96,1.441,1.686,2.406c0.485,0.725,1.203,1.203,2.167,1.203c0.486,0,0.965-0.479,1.443-0.725
	c0.246-0.479,0.485-0.957,0.485-1.443h0.239c1.682-0.234,2.403-0.717,3.129-1.92c0.478-1.207,1.203-2.407,1.682-3.614
	c0.242-1.204,1.203-2.168,2.167-2.646c0.239,0.722,0.239,1.442,0.239,1.921c0,0.726,0,1.446,0,2.411c0,0.243,0,0.481,0.243,0.722
	c0,0,0.239,0,0.479,0c0,0,0,0,0.243,0c1.207,0,2.41-0.722,3.375-1.926c1.203-1.446,2.159-2.889,3.124-4.092
	c0.964-0.722,1.925-1.203,3.367-1.203h0.243c0.481,0,0.721,0,0.96,0c0.482,0.481,0.964,0.481,1.686,0.481
	c0.482,0,1.45,0,2.168-0.481c0.239,0,0.239,0,0.239,0c0,0.481,0,0.481,0.246,0.964c0.24,0.239,0.24,0.718,0.479,0.718
	c-0.964-3.371-2.168-6.253-3.854-8.898c-0.721-1.686-1.682-2.65-2.881-3.614c-0.964-0.726-2.414-1.442-3.618-1.925
	c-0.478,0.243-0.478,0.482-0.717,0.721c-0.486,0.479-0.726,0.479-0.965,0.965c0.239,0,0.239,0,0.479,0l0.247,0.239
	c0-0.239,0.239-0.239,0.239-0.239c0.239,0,0.964,0,1.203-0.239c0.239,0.239,0.718,0.239,1.203,0.479
	c0,0.239,0.239,0.481,0.726,0.964c0.475,0.718,0.964,0.965,1.917,0.965c0,0.717,0.485,0.952,0.725,1.442
	c0.239,0.485,0.479,0.964,0.479,1.438c0,0.49-0.479,1.211-1.203,1.929c-0.953,0.726-1.917,1.442-3.128,1.689
	c-0.718,0.479-1.682,0.714-2.16,0.714c-0.486,0-0.726,0-0.965,0c-1.928,0-3.613-0.475-4.817-1.439c-0.239,0-0.239-0.479-0.481-0.479
	l-0.961-0.725l-0.965-1.199c-0.481-0.49-0.964-0.965-1.203-1.443c-0.964-1.449-2.164-2.653-3.367-4.096
	c-0.239-0.239-0.239-0.486-0.479-0.965c0-0.238-0.246-0.238-0.246-0.478c-0.239-0.243-0.239-0.243-0.479-0.243
	s-0.479,0.243-0.965,0.721c-0.478,0-0.478,0-0.717,0c0,0,0,0-0.247-0.238c-0.479,0-0.718,0-1.442,0c-0.486,0-0.965,0-1.929,0v-2.654
	c0.482-0.235,0.964-1.199,0.726-2.164c-0.243-0.956,0-2.167,0.238-3.124c0.479-0.972,0.722-1.45,1.451-2.171
	c0.478-0.479,1.203-1.208,1.92-1.682c-0.238,0-0.478,0-0.964,0c-0.239,0-0.718,0-0.956,0h-0.247c-0.965,0-1.929-0.24-3.128-1.443
	c-0.965-0.964-1.686-1.689-2.168-2.168c-0.239,0-0.239,0-0.239,0c0.239-0.721,0.239-1.449,0.482-2.406
	c0.481-1.203,0.721-2.411,0.721-3.128c0-0.479,0-0.479,0-0.965c0-0.247,0-0.725,0-1.446c-0.15,0-0.312-0.031-0.471-0.046
	l1.432-5.246c0-0.243-0.239-0.485-0.722-0.721c-0.239-0.482-0.239-0.729-0.239-0.965c0-0.243,0.239-0.964,0.961-2.649
	c0.481-1.682,1.203-3.129,1.442-4.818c0.964-1.682,1.203-2.885,1.446-3.124v-0.481c-0.243,0-0.243-0.482-0.243-0.482
	c-0.239,0-0.479-0.482-1.203-0.726c0.964-0.721,1.203-1.199,1.446-2.163c0.243-0.718,0.729-1.682,0.968-2.407
	c0-0.718,0.479-1.446,1.204-2.407c-0.239-0.481-0.726-0.721-0.965-0.96c-0.239,0-0.725-0.486-1.207-1.204l3.854,1.443l0.725-0.239
	c0.239,0,0.718-0.486,1.2-1.204c0.242-0.725,0.721-1.203,1.203-1.688c0.239,0,0.482,0,0.965,0c0.238,0,0.478,0.242,0.96,0.242
	c1.446-0.242,2.407-0.721,2.649-1.925c0-0.246,0-0.725,0-0.96l0.722-2.649l0.239-0.722c0.239-0.486,0.482-1.199,0.721-1.929
	c0.729-0.482,1.208-0.96,1.686-1.686l0.486-0.239c0,0,0.239,0.239,0.718,0c0.247,0,0.485,0,0.485,0l1.443-13.241v-0.235l4.57,3.606
	c0,0,0,0.486,0.239,0.721v0.964c0,0.964,0.485,1.207,0.964,1.442c0.722-0.235,1.443-0.717,2.407-1.442
	c1.207-1.2,1.686-2.407,1.686-3.61v-0.717c0-0.49-0.239-0.49-0.239-0.729c-0.239-0.479-0.479-1.2-0.965-1.921l0.965-1.925
	c0.479,0,0.725-0.239,0.965-0.725h0.238c0.239-0.478,0.726-0.478,0.965-0.478c0.717,0,1.203,0,1.203,0.478
	c0,0.243,0.479,0.725,1.203,0.725h0.718c0.486,0,1.211,0,1.689-0.725c0.726-0.478,0.964-1.204,0.964-2.167
	c0-0.479,0.239-0.964,0.239-1.443c0.239-0.478,0.726-0.964,1.204-1.2c0-0.486,0-0.486,0-0.964c0-0.964,0.238-1.45,0.725-1.929
	c0.714-0.239,1.678-0.725,2.646-0.725c0.478-0.239,1.203-0.478,1.442-0.717l0.478-0.482c0.486-0.721,0.486-1.686,0.486-2.407
	c0-0.96,0.239-1.682,1.443-2.167c-0.24-0.239-0.486-0.479-0.726-0.964c-0.479-0.479-0.479-0.957-0.479-1.443v-0.239
	c0,0,0.479-0.478,1.204-0.725c0.238-0.239,0.964-0.475,1.441-0.965c0.726-0.239,0.965-0.717,0.965-1.438l-0.239-3.371
	c-0.726-1.925-1.929-3.132-3.371-4.332c-1.203,0-2.168,0-2.646,0c-0.247,0-0.969,0-1.208,0c-1.438,0-2.402-0.478-3.367-1.682
	c-1.203-1.204-2.167-2.415-3.132-4.096c-1.203-1.446-2.646-2.654-4.088-3.606c-1.443-1.211-3.615-1.689-6.021-1.929l-12.034-27.2
	l-2.407-4.335l-1.686-2.16c-0.238,0-0.238,0-0.238,0c-0.24,0-0.24,0-0.24,0l-1.928-0.729c-0.718-0.479-1.443-0.96-1.921-1.203
	c-1.204-1.204-2.415-1.921-3.618-2.885c-1.199-0.725-2.403-1.204-4.089-1.204c-0.722,0-1.442,0.479-2.163,0.964l-1.204,1.442
	c0,0,0,0-0.243,0c-0.96,1.682-2.406,3.368-3.61,5.057l-1.688,1.438c-0.718,0.729-1.683,1.207-2.646,1.207
	c-0.479,0-0.718,0-0.961-0.478h-0.238c0-0.486-0.243-0.486-0.722-0.486c-0.964-0.243-1.686-0.718-2.407-1.443
	c-0.481-0.964-1.686-1.682-2.649-1.682c-0.239,0-0.479,0.482-0.722,0.717c-0.479,0.479-0.721,1.208-0.96,2.164
	c-0.482,0.243-0.729,1.207-0.729,1.929l-0.717,3.61c-0.239,0.239-0.239,0.239-0.239,0.482l-0.726,4.817
	c-0.238,0.717-0.479,1.2-0.479,1.925c-0.246,0.239-0.246,0.482-0.246,0.96l-0.239,3.375c0,4.084,0,7.695-0.479,11.062
	c-0.485,3.372-0.485,6.743-0.485,10.356c0,1.929,0.246,3.61,0.725,4.81l0.725,1.442c0.479,0.486,0.479,0.964,0.718,1.45
	c0.239,0.718,0.726,1.204,0.726,1.921l0.238,2.172c0,1.446-0.238,3.371-0.725,5.292c-0.239,2.167-0.479,4.331-1.203,6.499
	c-0.479,2.164-1.443,4.092-2.407,5.535c-0.479,1.442-1.682,2.167-3.132,2.893h-0.235l0.235,0.239l-1.678,0.964
	c-0.722,0.478-1.442,0.721-2.407,1.204c-0.478,0.478-0.96,1.203-1.446,1.678l-0.239,2.411c0,1.207,0,1.928,0.239,2.171
	c0,0.235,0,0.479,0,0.479c0,0.482,0,0.964-0.479,1.686h-0.238l-34.668,12.751c0.246,1.689,0.246,1.929,0,0.243l-5.296,1.929
	l-20.933,7.942l-1.929,0.96c-1.204,0.965-2.415,2.407-3.614,3.61l-5.292,6.021l-3.854,7.464c-0.478,0.726-0.718,1.678-0.964,2.403
	v2.406c-0.239,0.239-0.239,0.482-0.479,0.482l-0.239,2.411c-0.485,0.717-0.726,1.199-1.211,1.682
	c-1.442,0.96-2.407,2.403-3.606,3.367c-0.961,0.964-1.442,1.929-1.686,2.893l-0.239,1.204v0.238
	c0.239,2.164,0.482,3.854,1.442,4.818c0.482,0.964,1.682,1.92,2.407,2.642c0.479,0.726,0.964,1.929,1.203,3.132v1.203
	c0,0.726,0,1.204-0.478,1.686c-0.247,0.722-0.486,0.961-0.965,1.2c-0.965,0.726-1.686,1.199-2.168,1.689
	c-2.406,3.128-5.053,5.771-7.938,7.941c-2.893,1.686-6.264,3.367-10.596,4.813c-2.407,1.204-5.296,2.411-8.667,4.089
	c-3.132,1.689-6.495,3.132-10.105,4.583c-3.371,1.441-6.265,2.406-9.149,2.881l-2.41-0.475c0.729,1.917,1.207,3.363,1.924,4.57
	c0.486,1.2,1.212,2.886,1.929,4.814h2.168v3.128c-0.726,0.478-1.203,0.964-1.682,1.442l-11.077,12.76
	c-2.16,2.406-4.089,4.81-6.257,7.459c-1.859,2.56-4.169,4.662-6.491,6.756l-0.243-0.978c-0.964,1.203-2.168,2.168-3.857,2.653
	c-4.093,2.886-7.702,5.771-10.105,8.656c-2.407,2.893-5.3,5.777-8.428,8.188c-1.204,0.96-2.407,0.96-3.85,0.96s-2.642,0-3.371,0
	c-1.686,0.961-2.642,2.172-3.614,3.375c-0.956,1.438-2.406,2.403-4.088,2.403c-1.443,0-2.407-0.482-3.367-0.965
	c-0.965-0.478-2.168-0.96-3.129-0.96c-1.446,0.482-2.406,0.96-2.893,1.442c-1.682-1.682-3.61-2.646-6.256-2.885
	c-2.407-0.239-3.611-1.45-3.85-3.614v-0.243l3.367-10.345l-0.965-2.65c0.243-1.442,1.447-3.609,3.367-6.017
	c2.415-2.168,4.097-3.61,4.822-5.057c0.96-1.442,1.682-3.371,1.682-5.049c0-1.689,0-3.614,0.482-5.778
	c-1.204-0.247-1.443-0.725-1.687-1.203c-1.682-3.129-3.132-6.742-4.813-11.074c-1.442-4.335-3.128-8.428-5.296-11.791
	c-1.925-3.614-4.331-5.061-7.464-5.539c-2.167,0.479-4.088,1.443-6.013,2.885c-1.442,1.689-2.889,3.129-2.889,4.571
	c-0.482,1.446-0.726,3.375-1.204,5.782c-0.238,1.928-1.442,2.885-3.132,3.132c-1.682,0-2.885-0.726-3.849-2.176
	c-0.965-1.199-1.443-2.885-1.443-4.57c0.239-3.61,1.443-6.739,3.61-9.146c2.407-2.643,3.61-6.018,4.089-10.349
	c0-7.702-1.203-12.999-3.363-16.127c-2.176-3.371-6.265-6.024-12.281-7.702c-1.442-0.482-2.885-1.203-4.089-1.929
	c-1.203-1.2-2.167-1.442-2.407-1.682c-1.689-0.239-3.617-0.726-5.542-1.689c-1.917-0.964-3.846-1.442-5.774-1.921
	c-2.168,0.479-3.85,1.203-4.813,2.885c-1.446,1.929-1.929,3.854-1.929,5.778c0,1.446,0,2.649,0.482,3.375
	c-1.203,0-2.164,0.956-2.885,1.442c-1.2,0.961-1.447,1.921-1.686,3.367c0.238,1.682,0.485,2.889,1.686,4.336
	c0.721,0.952,1.199,2.164,1.441,3.846c0,1.203-0.242,2.653-0.964,3.367c-0.478,0.964-1.678,1.689-2.407,1.689
	c-1.678-0.236-2.642-1.2-2.642-2.89c0-1.442,0-2.642,0.239-3.132c0.239-0.953,0-1.929-0.239-2.881c-0.964,0-2.168,0.952-3.857,2.881
	c-1.682,1.929-2.885,4.097-4.574,6.503c-1.442,2.407-2.164,4.332-2.164,5.539c0,1.2,0.239,2.407,0.722,3.363
	c0.242,0.964,0.482,1.929,0.482,3.132c-0.24,2.403-0.482,4.811-1.682,6.5c-0.726,1.442-1.2,3.371-1.447,5.534
	c0.247,6.014,1.203,11.074,3.129,15.167c1.924,4.331,3.853,8.181,5.781,11.791c1.921,4.335,2.885,8.667,2.885,14.209
	c0,1.918-0.238,3.846-1.203,6.253c-0.964,1.925-1.682,3.367-2.406,4.813c-0.726,3.375-1.447,6.26-2.168,8.424
	c-0.482,2.168-1.929,3.854-3.854,5.061h0.482c-1.925,0.957-4.328,1.686-7.945,1.925c-1.443-0.239-4.328-1.211-4.328-1.211
	c-3.371-1.442-5.774-4.085-7.46-7.702c-1.809-3.161-2.734-6.546-2.847-10.32l0.193-0.025c0-3.371,0-5.777,0-8.185
	c-0.479-1.442-1.203-3.61-2.886-6.256c-1.442-3.132-1.925-5.778-2.406-9.389c0.481-4.813,0.964-9.388,2.406-13.48
	c0.965-4.335,1.442-9.146,1.683-13.959c0-2.649,0-4.817,0-6.257c0.246-4.096,1.203-8.666,2.653-13.727
	c1.682-5.535,2.889-10.105,4.57-13.477c-2.407-0.479-4.093,0-4.817,1.928c-1.203,1.917-1.682,4.093-2.16,6.738
	c-0.246,2.403-0.246,4.332-0.246,6.018c-0.24,0.96-1.204,2.406-2.886,4.574c-1.686,2.168-3.371,4.089-5.296,5.778
	c-1.686,1.678-2.889,2.885-3.854,3.132c-0.479-0.729-0.479-1.454,0-2.168c0.247-2.893,1.204-5.777,3.614-8.185
	c2.164-2.172,3.367-5.292,3.61-9.149c0.239-3.609,1.203-7.221,3.128-10.588c1.683-3.375,4.089-5.057,6.261-5.542
	c0.964-0.239,1.925-0.718,3.367-2.407c1.442-1.682,1.925-2.643,2.406-3.128c0,2.407,0,3.606-0.481,4.339
	c2.41-0.485,3.853-0.968,4.092-2.41c0.239-1.929,0.726-3.129,1.683-4.814c1.211-0.721,2.414-1.449,3.856-1.928
	c2.164,0,3.606,0,5.292,0c1.203-0.479,2.407-1.443,4.089-2.89c1.211-1.195,3.14-1.929,5.546-1.929c2.16,0,3.846,0.486,5.049,1.447
	c1.443,0.481,2.646,0.964,3.854,1.446c1.204,0,1.929-0.482,1.929-1.446c0.479-0.961,0.479-1.925,0.479-2.89
	c2.407-0.239,5.539-0.239,9.624,0c4.339,0.243,7.224-0.239,8.428-1.921c-2.168-1.928-4.336-3.371-6.504-4.331
	c-1.924-1.204-3.603-2.407-6.009-3.854c-1.204-0.722-3.132-0.96-5.539-0.96s-4.817,0-6.981,0c-2.168-0.482-3.124-1.208-3.371-1.929
	c0-0.722,0.247-1.446,0.721-1.686l0.729-0.722v-5.777c-1.929,0.964-3.371,2.163-5.061,3.613c-1.682,1.682-3.132,2.646-5.053,3.125
	c-1.689,0.238-2.89,0.238-3.854,0c-1.203-0.239-2.642-0.239-3.846,0c-4.335,1.686-8.188,3.856-11.799,6.499
	c-3.61,2.649-7.941,4.093-13.237,4.57c-1.203-0.478-2.168-1.199-2.889-2.398c-0.239-1.687-0.965-2.407-1.204-2.89
	c-1.203-1.446-2.885-2.889-4.574-3.854c-1.442-0.964-3.371-1.689-5.778-1.928c-2.406,0.238-4.327,0.964-5.292,2.646
	c-1.203,1.689-2.649,2.411-4.574,3.136v-4.335c1.442-0.482,2.885-1.925,4.089-4.332c1.689-2.167,2.893-4.57,4.096-6.978
	c1.442-2.41,2.407-4.335,3.371-5.781h-2.649c-4.093,2.167-7.942,4.574-10.835,7.463c-2.885,2.886-5.773,6.257-8.663,9.867
	c-0.964,0.96-2.407,2.171-4.089,3.136c-1.689,0.96-2.653,1.678-3.132,2.642c-4.574,0.965-8.185,2.407-10.349,5.057
	c-2.168,2.407-5.296,4.097-8.667,4.575c-1.682,0-3.124-0.479-4.813-1.212c-1.446,0-2.889-1.199-3.128-1.92
	c1.682-0.965,2.889-2.168,4.093-2.894c1.203-1.442,1.928-2.881,1.928-5.288h-4.339c-3.367,3.61-7.703,6.496-12.517,8.659
	c-4.81,2.176-9.627,3.371-14.923,2.89c0-0.081,0-0.152,0-0.235c0.96-2.894,2.889-4.817,5.296-6.025
	c2.168-1.442,4.335-2.881,6.499-4.806c3.128-3.371,5.057-6.264,6.738-8.91c1.686-2.649,4.097-5.292,7.225-7.463
	c3.614-2.164,7.224-4.571,11.073-6.253c4.089-1.929,6.734-4.821,8.424-8.185c-0.964,0.717-2.167,0.717-3.613,1.199
	c-2.164,0-4.093-0.482-5.774-0.482c-1.207-0.478-2.886-0.717-4.575-0.478h-0.478c-2.168-0.239-3.854-0.239-5.057-0.239
	c-2.407,0.239-3.614-0.726-4.579-2.168c-2.163,0.479-3.849,1.682-5.291,3.367c-1.689,1.442-3.85,2.65-6.5,2.893
	c-2.41-0.242-4.092-1.45-5.773-3.375c-1.689-1.442-3.614-2.885-5.778-2.885c-0.96,0-1.929,0.479-2.168,0.726
	c-0.478,0.478-1.203,0.717-1.682,0.717c-1.689-0.239-2.893-0.964-4.574-2.646c-1.689-1.442-2.894-2.889-4.575-4.332
	c-1.442-1.686-3.132-2.649-4.813-2.649c-2.406,0.243-4.093,1.442-4.813,2.885c-0.725,1.689-1.929,2.172-4.092,2.654
	c-0.722,0-2.65-0.482-6.261-0.965c-3.371-0.725-6.495-1.203-9.628-2.407c-3.371-0.725-5.291-1.446-5.777-2.167
	c-0.965-1.443-1.682-3.85-1.925-6.018c0-2.167-0.722-4.57-1.686-6.742c-0.964-1.921-2.646-3.128-6.017-3.606l0.964,11.313
	c-0.479,0-3.61,0-10.109,0.239c-6.738,0.239-15.648,0.964-25.997,1.439c0,0.002,0.002,0.004,0.002,0.006
	c-11.482,0.245-23.439,0.486-36.587,0.719c-12.76,0.482-24.794,0.482-35.863,0c-0.243,0-4.817,0-13.485,0
	c-8.662-0.235-20.936-0.479-35.863-0.725v-0.475c-14.919-0.243-31.774-1.203-50.305-2.893c-18.776-1.443-37.792-3.846-57.525-6.739
	c0,0-2.653-0.243-8.188-1.2c-5.296-0.729-12.516-1.686-20.454-2.893c-8.185-0.96-16.369-2.411-24.555-3.854
	c-8.424-1.678-15.405-2.881-21.422-4.084c-0.243,0-3.371-0.721-9.628-1.929c-6.214-1.201-14.802-2.866-25.287-5.244l0.012-0.052
	c-5.774-1.204-11.552-2.407-17.812-4.093l-0.133,0.631c-15.546-3.828-32.508-7.89-51.136-12.904
	c-18.534-4.813-36.589-10.349-54.401-16.852l-0.479-0.482c-0.482,0.482-0.725,0.726-0.964,1.208
	c-0.721,0.239-1.207,0.96-1.207,1.682l2.171,11.074c0.721,0.486,1.682,0.964,3.128,1.2c0.964,0.486,1.682,1.689,1.682,3.857
	c0,1.443-0.718,2.646-1.682,3.61c-1.686-0.243-2.407,0.475-2.65,1.439c0.243,1.211,0.725,2.167,1.446,2.654
	c0.964,0.478,1.442,1.442,1.686,2.642c0,3.132-1.686,5.061-4.575,6.743c-0.243-0.725,0.239-1.929,0.964-2.646
	c0.96-0.964,1.443-1.929,1.443-3.132c-0.239-0.965-1.686-2.164-4.332-3.606c-2.646-1.443-5.539-2.411-8.424-3.375
	c-3.132-1.208-5.3-1.925-6.503-2.407c-4.089-1.682-7.221-3.606-9.624-5.778c-2.411-1.925-4.818-4.571-7.225-7.459
	c-0.478,1.686-1.203,3.606-1.924,5.535c-0.965,2.411-1.447,4.332-1.447,6.5c0,1.203,0.247,2.403,0.964,4.092
	c0.482,1.689,0.964,3.371,0.964,5.535c0,3.371-0.482,6.503-1.204,9.631c-0.478,2.885-0.964,6.013-0.964,9.146
	c-0.239,4.335-0.239,7.942-0.961,11.313c-0.708,3.07-1.648,6.602-2.594,10.144c-0.018-0.013-0.039-0.023-0.056-0.035
	c-0.722,3.614-1.443,6.738-1.443,9.866s-0.964,6.742-2.407,10.596c-1.689,4.336-3.85,9.142-6.017,13.955
	c-2.65,5.061-4.575,9.632-6.017,13.724c-3.132,11.074-7.703,21.184-13.963,29.607c-1.442,1.929-3.371,3.606-5.292,6.014
	c-2.407,2.167-3.614,4.817-4.096,7.949c0,1.203,0.482,2.406,1.204,3.128c0.243,0.96,0.486,1.686,0.486,2.407
	c0,2.16-0.725,4.092-1.689,5.777c-1.443,1.2-2.407,3.129-2.407,5.535c0,1.203,0.725,2.407,1.203,3.85
	c0.482,0.961,0.964,2.168,1.204,3.61l1.204,0.243c0.806,0.2,3.207,0.928,6.765,1.998c-3.78-1.015-5.959-1.559-6.765-1.759
	l-0.722-0.239l-0.96,1.199c-0.243,1.207-0.243,1.929-0.243,2.889c0,1.689,0,4.093,0,7.225c0,2.403-0.722,4.574-1.686,6.014
	c-1.204,1.446-1.921,3.136-2.407,4.578c-0.725,4.57-2.407,8.42-5.057,11.312c-1.438,1.443-3.367,3.129-5.292,4.818
	c-1.686,1.921-2.889,4.084-3.128,6.495c0.239,2.885,1.442,5.053,3.128,6.257c1.925,1.441,3.128,3.849,3.614,7.224
	c0.239,1.204,0.718,2.407,1.204,3.61c0.717,0.714,0.957,1.921,1.204,3.606c-0.486,2.646-1.204,4.813-2.407,6.981
	c-1.207,1.686-1.689,4.093-1.929,7.225c0,0.721,0.239,1.678,0.722,1.925c0.243,0,0.721,0.717,0.721,1.921
	c-0.239,1.207-0.479,1.689-1.204,2.414c-0.721,0.479-1.203,1.199-1.203,2.164c0,2.885,0.964,5.535,2.893,7.941
	c1.921,2.407,3.846,5.296,5.771,7.946c1.689,2.403,2.649,5.292,2.893,8.663c0,0.96-0.243,1.921-0.725,2.646
	c-0.478,0.722-0.478,1.204-0.478,2.164c0,0.247,0,0.729,0.239,1.207c0.239,0.479,0.721,0.722,0.964,0.722
	c2.164,0.243,3.61,1.207,4.089,2.646c0.486,1.442,1.203,3.368,1.928,5.774l3.371,1.207c-0.486-1.924-0.486-4.092,0-6.499
	c0-2.407,1.443-3.606,3.61-3.85c1.204,0.243,1.921,0.965,1.921,2.164c0,1.442-0.717,2.164-1.921,2.407
	c-1.204,0.238-1.928,1.207-2.167,2.893c0.239,1.678,0.964,3.124,1.682,4.332c0.725,1.199,1.203,2.406,1.689,3.849
	c0,0.722,0,0.965,0.239,0.965c0,0,0,0.721-0.239,1.686c-0.964-0.722-1.929-1.929-2.889-3.61c-1.207-1.446-1.925-2.889-2.411-4.336
	h-2.885c1.204,2.168,1.682,4.575,1.204,7.225c-0.486,2.399-0.964,4.807-1.204,7.213c0.239,1.933,1.204,3.854,2.885,5.061
	c1.929,1.199,3.61,2.65,5.3,4.093c1.442,1.442,2.403,3.128,2.646,5.296c-0.243,1.682-0.964,3.128-2.407,3.85
	c-1.443,0.238-2.407,1.686-2.646,3.853c0.239,5.774,1.443,10.588,3.606,14.685c1.925,4.088,4.575,7.698,7.464,11.309
	c2.646,3.606,5.057,7.46,6.981,11.795c-0.964,0.486-1.443,1.443-1.686,3.133c0.482,2.402,2.403,4.331,5.774,5.057
	c-0.96,2.885-1.682,5.534-2.646,7.941c-0.964,1.921-1.442,4.81-1.442,8.659c0,0.726,0.478,1.45,1.442,2.415
	c1.204,0.96,2.168,1.199,2.889,1.438c2.403,0,5.535,0.481,8.906,0.964c3.61,0.718,6.739,1.929,10.106,3.371
	c3.132,1.686,5.061,3.85,5.778,6.014c1.204,2.893,3.371,5.535,6.742,7.71c3.371,2.16,6.26,3.606,9.627,4.81
	c0.964,0.482,1.443,1.204,1.443,2.89c0.486,1.442,0.725,1.921,0.725,2.407c1.686,0,2.889,0,3.853,0c0.96,0,2.164,0.721,3.367,2.163
	c1.443,1.446,2.407,2.646,3.371,3.375c2.168,2.16,4.814,4.81,7.221,8.177c2.885,3.371,4.571,7.221,4.571,11.8
	c0,2.646,0,4.813-0.239,6.742c0,1.678,0.482,3.842,1.443,6.013l52.476,4.332c0.083-0.023,0.156-0.047,0.239-0.069v4.887
	l93.875,45.729L303.764,779.002v-0.722 M1029.803,480.348c-0.023,0.008-0.051,0.031-0.074,0.043
	C1029.756,480.375,1029.771,480.355,1029.803,480.348z M1005.893,521.932c0-0.239,0-0.239,0-0.479
	c0.072-0.071,0.092-0.154,0.127-0.232C1005.954,521.438,1005.893,521.684,1005.893,521.932z M739.92,366.679
	c0,0.235,0,0.968,0.239,1.925c-0.239-0.957-0.239-1.689-0.722-1.925H739.92z M1028.757,481.976l-0.956,0.243l0.956-0.482
	c0.144-0.139,0.231-0.299,0.352-0.487c-0.047,0.158-0.104,0.317-0.104,0.487l1.921,6.738L1028.757,481.976z M1035.021,481.255
	c0-0.482-0.239-0.961-0.479-1.2v-0.242l-0.247-0.243h0.247l0.479,1.203V481.255z M1032.606,479.569
	c-0.718,0.243-1.203,0.243-1.921,0.243C1031.403,479.569,1031.889,479.569,1032.606,479.569z M1062.939,424.447l-1.204-0.965
	l1.442,0.729L1062.939,424.447z M1108.916,396.771c-0.239-0.242-0.479-0.242-0.479-0.242
	C1108.677,396.529,1108.677,396.529,1108.916,396.771z M1101.213,352.477h-0.242l0.008-0.025
	C1101.055,352.455,1101.136,352.477,1101.213,352.477z"/>
</svg>
