<?xml version="1.0" encoding="utf-8"?>
<!-- Generator: Adobe Illustrator 16.0.0, SVG Export Plug-In . SVG Version: 6.00 Build 0)  -->
<!DOCTYPE svg PUBLIC "-//W3C//DTD SVG 1.1//EN" "http://www.w3.org/Graphics/SVG/1.1/DTD/svg11.dtd">
<svg version="1.1" id="Layer_1" xmlns="http://www.w3.org/2000/svg" xmlns:xlink="http://www.w3.org/1999/xlink" x="0px" y="0px"
	 width="1152px" height="1152px" viewBox="0 0 1152 1152" enable-background="new 0 0 1152 1152" xml:space="preserve">
<path d="M96,921.931c0-41.384,13.105-100.668,75.537-148.08c32.902-24.987,70.334-40.124,106.533-54.763
	c27.31-11.044,60.832-24.601,74.907-37.836c3.804-8.546,8.115-24.389,8.935-34.087c-6.237-13.915-16.556-37.38-26.959-62.971
	c-8.842-21.75-15.675-39.949-20.944-55.356c-24.93-13.738-51.25-39.079-69.892-85.355c-12.968-32.189-20.709-71.126-20.709-104.156
	c0-36.511,13.672-69.751,37.761-94.124c2.862-33.14,10.629-65.221,22.896-95.33c-5.53-0.521-11.134-0.798-16.806-0.798
	c-97.87,0-176.551,79.155-179.085,178.942v26.841c0,0-29.765,1.555-29.765,31.174c0,29.618,14.917,88.867,44.752,88.867
	c14.919,0,14.919,0,14.919,0c0,29.824,50.617,139.427,50.617,139.427c8.945,29.618-8.516,82.799-20.782,97.493
	C93.836,776.492,0,760.295,0,849.149C0,898.319,0,960,0,960s15.808,23.398,96,37.522V921.931z"/>
<path d="M1004.086,711.819c-12.266-14.694-29.727-67.875-20.781-97.493c0,0,50.617-109.603,50.617-139.427c0,0,0,0,14.919,0
	c29.836,0,44.753-59.249,44.753-88.867c0-29.619-29.766-31.174-29.766-31.174v-26.841c-2.534-99.787-81.215-178.942-179.085-178.942
	c-5.656,0-11.244,0.276-16.76,0.793c12.206,30.021,19.95,62.005,22.827,95.047c24.326,24.39,38.134,57.735,38.134,94.411
	c0,33.031-7.742,71.969-20.711,104.158c-18.663,46.326-45.023,71.672-69.978,85.4c-5.307,15.439-12.192,33.681-21.105,55.484
	c-10.417,25.48-20.748,48.851-27.03,62.791c0.863,9.733,5.22,25.568,9.042,34.078c13.993,13.217,47.553,26.797,74.886,37.857
	c36.179,14.642,73.59,29.78,106.476,54.774C1042.905,821.281,1056,880.555,1056,921.931v75.592c80.192-14.124,96-37.522,96-37.522
	s0-61.681,0-110.851C1152,760.295,1058.164,776.492,1004.086,711.819z"/>
<path d="M502.812,1104C192,1104,192,1044,192,1044s0-61.617,0-122.069c0-109.241,170.964-102.556,237.45-182.068
	C444.531,721.798,465.998,656.414,455,620c0,0-62.231-134.75-62.231-171.417c0,0,0,0-18.342,0
	c-36.681,0-55.021-72.844-55.021-109.257C319.406,302.912,356,301,356,301v-33c3.116-122.683,99.851-219.999,220.175-219.999
	S792.884,145.317,796,268v33c0,0,36.944,1.913,36.944,38.327c0,36.414-18.341,109.257-55.022,109.257c-18.342,0-18.342,0-18.342,0
	C759.58,485.25,696.998,620,696.998,620c-10.996,36.414,10.644,101.806,25.725,119.87C789.21,819.383,960,812.689,960,921.931
	c0,60.452,0,122.069,0,122.069s0,60-310.463,60H502.812z"/>
</svg>
