<?xml version="1.0" encoding="utf-8"?>
<!-- Generator: Adobe Illustrator 16.0.0, SVG Export Plug-In . SVG Version: 6.00 Build 0)  -->
<!DOCTYPE svg PUBLIC "-//W3C//DTD SVG 1.1//EN" "http://www.w3.org/Graphics/SVG/1.1/DTD/svg11.dtd">
<svg version="1.1" id="Layer_1" xmlns="http://www.w3.org/2000/svg" xmlns:xlink="http://www.w3.org/1999/xlink" x="0px" y="0px"
	 width="1152px" height="1152px" viewBox="0 0 1152 1152" enable-background="new 0 0 1152 1152" xml:space="preserve">
<path d="M96,873.931c0-41.384,13.105-100.668,75.537-148.08c32.902-24.986,70.334-40.124,106.533-54.763
	c27.31-11.044,60.833-24.601,74.907-37.836c3.805-8.546,8.115-24.389,8.936-34.087c-6.237-13.915-16.556-37.38-26.959-62.971
	c-8.842-21.75-15.675-39.949-20.944-55.356c-24.93-13.738-51.25-39.079-69.892-85.355c-12.968-32.189-20.709-71.126-20.709-104.156
	c0-36.511,13.672-69.751,37.761-94.124c2.862-33.14,10.629-65.221,22.896-95.33c-5.53-0.521-11.134-0.798-16.806-0.798
	c-97.87,0-176.551,79.155-179.085,178.942v26.841c0,0-29.765,1.555-29.765,31.174c0,29.618,14.917,88.867,44.752,88.867
	c14.919,0,14.919,0,14.919,0c0,29.823,50.617,139.427,50.617,139.427c8.945,29.618-8.516,82.799-20.782,97.493
	C93.836,728.492,0,712.295,0,801.149C0,850.319,0,912,0,912s15.808,23.398,96,37.521V873.931z"/>
<path d="M510.216,1013.499C490.166,966.096,480,915.797,480,864c0-51.798,10.166-102.097,30.216-149.5
	c19.345-45.738,47.021-86.795,82.254-122.029c35.235-35.234,76.292-62.908,122.03-82.255c3.819-1.615,7.658-3.159,11.514-4.646
	c16.366-39.589,33.565-85.765,33.565-104.986c0,0,0,0,18.342,0c36.682,0,55.022-72.843,55.022-109.257
	C832.944,254.913,796,253,796,253v-33C792.884,97.317,696.5,0.001,576.175,0.001S359.116,97.317,356,220v33
	c0,0-36.594,1.912-36.594,38.327c0,36.413,18.34,109.257,55.021,109.257c18.342,0,18.342,0,18.342,0C392.769,437.25,455,572,455,572
	c10.998,36.414-10.469,101.798-25.55,119.862C362.964,771.375,192,764.689,192,873.931C192,934.383,192,996,192,996s0,60,310.812,60
	h28.562C523.486,1042.337,516.418,1028.162,510.216,1013.499z"/>
<path d="M928.944,291.327c0,33.031-7.742,71.969-20.711,104.158c-18.646,46.284-44.977,71.625-69.909,85.362
	C846.838,480.287,855.396,480,864,480c49.972,0,98.548,9.465,144.475,28.136c12.7-31.215,25.447-66.27,25.447-81.235
	c0,0,0,0,14.919,0c29.836,0,44.753-59.25,44.753-88.867c0-29.619-29.766-31.174-29.766-31.174v-26.841
	c-2.534-99.787-81.215-178.942-179.085-178.942c-5.656,0-11.244,0.276-16.76,0.793c12.206,30.021,19.949,62.005,22.826,95.047
	C915.137,221.306,928.944,254.651,928.944,291.327z"/>
<path d="M864,576c-159.058,0-288,128.941-288,288c0,159.058,128.942,288,288,288c159.059,0,288-128.942,288-288
	C1152,704.941,1023.059,576,864,576z M864,672c34.529,0,66.927,9.121,94.924,25.076L697.077,958.923
	C681.121,930.926,672,898.529,672,864C672,757.961,757.962,672,864,672z M864,1056c-34.529,0-66.926-9.121-94.923-25.077
	l261.847-261.847C1046.879,797.073,1056,829.471,1056,864C1056,970.038,970.039,1056,864,1056z"/>
</svg>
