<?xml version="1.0" encoding="utf-8"?>
<!-- Generator: Adobe Illustrator 16.0.1, SVG Export Plug-In . SVG Version: 6.00 Build 0)  -->
<!DOCTYPE svg PUBLIC "-//W3C//DTD SVG 1.1//EN" "http://www.w3.org/Graphics/SVG/1.1/DTD/svg11.dtd">
<svg version="1.1" id="Layer_1" xmlns="http://www.w3.org/2000/svg" xmlns:xlink="http://www.w3.org/1999/xlink" x="0px" y="0px"
	 width="1152px" height="1152px" viewBox="0 0 1152 1152" enable-background="new 0 0 1152 1152" xml:space="preserve">
<path d="M480,744c0,145.781,118.219,264,264,264c48.234,0,93.328-13.172,132.234-35.766L1044,1140c0,0,12,12,36,12s36-12,36-12
	l24-24c0,0,12-12,12-36s-12-36-12-36L972.234,876.234C994.828,837.328,1008,792.234,1008,744c0-145.781-118.219-264-264-264
	S480,598.219,480,744z M576,744c0-92.812,75.188-168,168-168s168,75.188,168,168s-75.188,168-168,168S576,836.812,576,744z"/>
<path d="M405,864H192V192h672v213c81.469,28.922,149.438,86.203,192,160.172V24c0,0,0-24-24-24S48,0,24,0S0,24,0,24v1008
	c0,0,0,24,24,24c12.609,0,283.383,0,541.172,0C491.227,1013.438,433.922,945.469,405,864z"/>
</svg>
