<?xml version="1.0" encoding="utf-8"?>
<!-- Generator: Adobe Illustrator 16.0.0, SVG Export Plug-In . SVG Version: 6.00 Build 0)  -->
<!DOCTYPE svg PUBLIC "-//W3C//DTD SVG 1.1//EN" "http://www.w3.org/Graphics/SVG/1.1/DTD/svg11.dtd">
<svg version="1.1" id="Layer_1" xmlns="http://www.w3.org/2000/svg" xmlns:xlink="http://www.w3.org/1999/xlink" x="0px" y="0px"
	 width="1152px" height="1152px" viewBox="0 0 1152 1152" enable-background="new 0 0 1152 1152" xml:space="preserve">
<path d="M864,576c-159.059,0-288,128.941-288,288s128.941,288,288,288s288-128.941,288-288S1023.059,576,864,576z M864,660
	c41.139,0,79.426,12.188,111.469,33.135L693.135,975.469C672.188,943.426,660,905.139,660,864C660,751.334,751.334,660,864,660z
	 M864,1068c-41.139,0-79.426-12.188-111.469-33.135l282.334-282.334C1055.812,784.574,1068,822.861,1068,864
	C1068,976.666,976.666,1068,864,1068z"/>
<path d="M592.471,592.471c35.235-35.235,76.292-62.909,122.029-82.255c0.848-0.358,1.697-0.707,2.547-1.059
	C718.982,499.741,720,489.99,720,480c0-79.523-64.453-144-144-144s-144,64.477-144,144c0,75.707,58.382,137.738,132.593,143.551
	C573.284,612.754,582.567,602.374,592.471,592.471z"/>
<path d="M495.257,756.514C375.499,721.612,288,611.057,288,480c0-159.047,128.93-288,288-288c159.094,0,288,128.953,288,288
	c51.798,0,102.097,10.166,149.5,30.216c33.877,14.329,65.177,33.238,93.454,56.393C1138.375,516.318,1152,480,1152,480
	S1008,96,576,96S0,480,0,480s122.404,326.408,480.063,377.35C480.644,822.907,485.735,789.157,495.257,756.514z"/>
</svg>
