<?xml version="1.0" encoding="utf-8"?>
<!-- Generator: Adobe Illustrator 16.0.4, SVG Export Plug-In . SVG Version: 6.00 Build 0)  -->
<!DOCTYPE svg PUBLIC "-//W3C//DTD SVG 1.1//EN" "http://www.w3.org/Graphics/SVG/1.1/DTD/svg11.dtd">
<svg version="1.1" id="Layer_1" xmlns="http://www.w3.org/2000/svg" xmlns:xlink="http://www.w3.org/1999/xlink" x="0px" y="0px"
	 width="1152px" height="1152px" viewBox="0 0 1152 1152" enable-background="new 0 0 1152 1152" xml:space="preserve">
<path d="M48,72v1008c0,0,0,24,24,24c23.037,0,264,0,264,0l0-1056c0,0-239.064,0-264,0C48,48,48,72,48,72z"/>
<rect x="432" y="48" width="288" height="1056"/>
<path d="M1080,48c-23.061,0-264,0-264,0v1056h264c24,0,24-24,24-24V72C1104,72,1104,48,1080,48z"/>
</svg>
