<?xml version="1.0" encoding="utf-8"?>
<!-- Generator: Adobe Illustrator 16.0.1, SVG Export Plug-In . SVG Version: 6.00 Build 0)  -->
<!DOCTYPE svg PUBLIC "-//W3C//DTD SVG 1.1//EN" "http://www.w3.org/Graphics/SVG/1.1/DTD/svg11.dtd">
<svg version="1.1" id="Layer_1" xmlns="http://www.w3.org/2000/svg" xmlns:xlink="http://www.w3.org/1999/xlink" x="0px" y="0px"
	 width="1152px" height="1152px" viewBox="0 0 1152 1152" enable-background="new 0 0 1152 1152" xml:space="preserve">
<path d="M432,696c0,145.781,118.219,264,264,264c48.234,0,93.328-13.172,132.234-35.766L1044,1140c0,0,12,12,36,12s36-12,36-12
	l24-24c0,0,12-12,12-36s-12-36-12-36L924.234,828.234C946.828,789.328,960,744.234,960,696c0-145.781-118.219-264-264-264
	S432,550.219,432,696z M528,696c0-92.786,75.214-168,168-168s168,75.214,168,168s-75.214,168-168,168S528,788.786,528,696z"/>
<path d="M806.66,1038.425C770.986,1050.013,733.623,1056,696,1056c-48.554,0-95.708-9.533-140.154-28.335
	c-42.877-18.139-81.365-44.084-114.396-77.115c-12.129-12.129-23.294-25.001-33.477-38.55H240V240h672v167.973
	c13.549,10.183,26.421,21.348,38.55,33.477c33.031,33.031,58.977,71.52,77.115,114.396C1046.467,600.292,1056,647.446,1056,696
	c0,37.623-5.987,74.986-17.575,110.66L1104,872.235V72c0,0,0-24-24-24S96,48,72,48S48,72,48,72v1008c0,0,0,24,24,24
	c17.111,0,509.987,0,800.235,0L806.66,1038.425z"/>
</svg>
