<?xml version="1.0" encoding="utf-8"?>
<!-- Generator: Adobe Illustrator 16.0.1, SVG Export Plug-In . SVG Version: 6.00 Build 0)  -->
<!DOCTYPE svg PUBLIC "-//W3C//DTD SVG 1.1//EN" "http://www.w3.org/Graphics/SVG/1.1/DTD/svg11.dtd">
<svg version="1.1" id="Layer_1" xmlns="http://www.w3.org/2000/svg" xmlns:xlink="http://www.w3.org/1999/xlink" x="0px" y="0px"
	 width="1152px" height="1152px" viewBox="0 0 1152 1152" enable-background="new 0 0 1152 1152" xml:space="preserve">
<path d="M936,432c-64.406,32.203-248.203-151.594-216-216C756,144,960,0,960,0s-73.875,0-96,0C704.953,0,576,128.953,576,288
	c0,29.461,0,144,0,144S432,576,288,720c-3.516,3.516-6.328,6.844-9.609,10.266C258.516,724.219,237.844,720,216,720
	C96.703,720,0,816.656,0,936s96.703,216,216,216s216-96.656,216-216c0-21.844-4.219-42.562-10.219-62.344
	c3.398-3.328,6.703-6.141,10.219-9.656c144-144,288-288,288-288s114.562,0,144,0c159.047,0,288-128.953,288-288c0-22.148,0-96,0-96
	S1008,396,936,432z M216,1020c-46.392,0-84-37.608-84-84s37.608-84,84-84s84,37.608,84,84S262.392,1020,216,1020z"/>
</svg>
