<?xml version="1.0" encoding="utf-8"?>
<!-- Generator: Adobe Illustrator 16.0.0, SVG Export Plug-In . SVG Version: 6.00 Build 0)  -->
<!DOCTYPE svg PUBLIC "-//W3C//DTD SVG 1.1//EN" "http://www.w3.org/Graphics/SVG/1.1/DTD/svg11.dtd">
<svg version="1.1" id="Layer_1" xmlns="http://www.w3.org/2000/svg" xmlns:xlink="http://www.w3.org/1999/xlink" x="0px" y="0px"
	 width="1152px" height="1152px" viewBox="0 0 1152 1152" enable-background="new 0 0 1152 1152" xml:space="preserve">
<path d="M0,480c0,265.097,214.903,480,480,480c95.7,0,184.856-28.012,259.725-76.275c86.629,86.629,220.2,220.2,232.275,232.275
	c18,18,36.012,36,72,36s54-18,72-36s36-36,36-72s-18-54-36-72c-12.075-12.075-145.646-145.646-232.275-232.275
	C931.988,664.855,960,575.7,960,480C960,214.903,745.097,0,480,0C214.903,0,0,214.903,0,480z M144,480
	c0-185.568,150.433-336,336-336c185.568,0,336,150.432,336,336c0,185.567-150.432,336-336,336C294.433,816,144,665.567,144,480z"/>
<polygon points="240,432 432,432 432,240 528,240 528,432 720,432 720,528 528,528 528,720 432,720 432,528 240,528 "/>
</svg>
