<?xml version="1.0" encoding="utf-8"?>
<!-- Generator: Adobe Illustrator 16.0.1, SVG Export Plug-In . SVG Version: 6.00 Build 0)  -->
<!DOCTYPE svg PUBLIC "-//W3C//DTD SVG 1.1//EN" "http://www.w3.org/Graphics/SVG/1.1/DTD/svg11.dtd">
<svg version="1.1" id="Layer_1" xmlns="http://www.w3.org/2000/svg" xmlns:xlink="http://www.w3.org/1999/xlink" x="0px" y="0px"
	 width="512px" height="512px" viewBox="0 0 512 512" enable-background="new 0 0 512 512" xml:space="preserve">
<path opacity="0.65" d="M-0.018,208c0,114.875,93.125,208,208,208c41.031,0,79.768-11.484,112.018-32c0,0,104,104,112,112
	s15.78,16,31.982,16s23.991-7.991,32-16s16-15.968,16-32S504,440,496,432S384,320,384,320c20.5-32.25,31.982-70.969,31.982-112
	c0-114.875-93.125-208-208-208S-0.018,93.125-0.018,208z M63.982,208c0-79.405,64.595-144,144-144c79.405,0,144,64.595,144,144
	c0,79.405-64.595,144-144,144C128.578,352,63.982,287.405,63.982,208z"/>
<polygon opacity="0.65" points="288,192 224,192 224,128 192,128 192,192 128,192 128,224 192,224 192,288 224,288 224,224 288,224 
	"/>
</svg>
