<?xml version="1.0" encoding="utf-8"?>
<!-- Generator: Adobe Illustrator 16.0.0, SVG Export Plug-In . SVG Version: 6.00 Build 0)  -->
<!DOCTYPE svg PUBLIC "-//W3C//DTD SVG 1.1//EN" "http://www.w3.org/Graphics/SVG/1.1/DTD/svg11.dtd">
<svg version="1.1" id="Layer_1" xmlns="http://www.w3.org/2000/svg" xmlns:xlink="http://www.w3.org/1999/xlink" x="0px" y="0px"
	 width="1152px" height="1152px" viewBox="0 0 1152 1152" enable-background="new 0 0 1152 1152" xml:space="preserve">
<path d="M816,624l319.156,319.164c22.458,22.459,22.458,59.207,0,81.666l-62.327,62.326c-22.458,22.459-59.207,22.459-81.665,0
	L672,768L816,624z M1140,84l-72-72c0,0-12-12-36-12s-36,12-36,12l-84,84l144,144l84-84c0,0,12-12,12-36S1140,84,1140,84z
	 M984.004,312.001L360.011,935.995L216.012,791.996l623.994-623.994L984.004,312.001z M288,1008L144,864L0,1140c0,12,0,12,12,12
	C12.5,1152,288,1008,288,1008z M628.363,0C349.091,0,192,204,192,204v180l-98.449,98.449c-19.725-5.907-42.043-1.113-57.551,14.394
	L16.844,516c-22.459,22.458-22.459,54.378,0,76.836l57.491,62.32c22.458,22.459,59.207,22.459,81.665,0L175.157,636
	c15.507-15.508,20.301-37.826,14.394-57.55L288,480h96l144-144c0,0,0-74.182,0-144c0-72,96-96,144-96h144V0H628.363z"/>
</svg>
