<?xml version="1.0" encoding="utf-8"?>
<!-- Generator: Adobe Illustrator 16.0.1, SVG Export Plug-In . SVG Version: 6.00 Build 0)  -->
<!DOCTYPE svg PUBLIC "-//W3C//DTD SVG 1.1//EN" "http://www.w3.org/Graphics/SVG/1.1/DTD/svg11.dtd">
<svg version="1.1" id="Layer_1" xmlns="http://www.w3.org/2000/svg" xmlns:xlink="http://www.w3.org/1999/xlink" x="0px" y="0px"
	 width="1152px" height="1152px" viewBox="0 0 1152 1152" enable-background="new 0 0 1152 1152" xml:space="preserve">
<path d="M481.408,896.904c-35.438-9.891-61.406-42.375-61.406-80.906c0-46.172,37.219-83.625,83.344-84
	c2.156-5.859,4.406-11.719,6.844-17.531c19.406-45.703,47.062-86.765,82.312-121.968c35.203-35.25,76.266-62.906,121.969-82.312
	c23.156-9.75,47.062-17.203,71.391-22.219C679.126,279.281,573.001,72,573.001,72s-34.5-72-69-72s-69,72-69,72
	S17.206,899.998,5.721,923.998c-11.531,24-11.531,84,57.469,84c33.328,0,239.906,0,444.749,0
	C493.501,972.373,484.595,935.154,481.408,896.904z M436.361,299.718C449.673,292.875,486.283,288,502.876,288
	c22.219,0,55.406,3.891,67.593,8.766c5.531,2.953,5.531,7.828,5.531,10.734v76.5c0,81.938-16.594,204.891-21,234.141
	c0,2.953-1.125,5.859-7.781,5.859h-88.688c-4.406,0-6.656-1.969-7.781-5.859c-2.156-27.328-18.75-152.203-18.75-234.141v-72
	C432.001,308.109,430.83,302.625,436.361,299.718z"/>
<path d="M864.001,575.999c-159.047,0-288,128.952-288,287.999s128.953,288,288,288c159.046,0,287.999-128.953,287.999-288
	S1023.047,575.999,864.001,575.999z M1056,911.998H912v144h-95.999v-144h-144v-96h144v-144H912v144h144V911.998z"/>
</svg>
