<?xml version="1.0" encoding="utf-8"?>
<!-- Generator: Adobe Illustrator 16.0.4, SVG Export Plug-In . SVG Version: 6.00 Build 0)  -->
<!DOCTYPE svg PUBLIC "-//W3C//DTD SVG 1.1//EN" "http://www.w3.org/Graphics/SVG/1.1/DTD/svg11.dtd">
<svg version="1.1" id="Layer_1" xmlns="http://www.w3.org/2000/svg" xmlns:xlink="http://www.w3.org/1999/xlink" x="0px" y="0px"
	 width="1152px" height="1152px" viewBox="0 0 1152 1152" enable-background="new 0 0 1152 1152" xml:space="preserve">
<path d="M192,744c0,39.765-32.235,72-72,72H120c-39.764,0-72-32.235-72-72V408c0-39.765,32.235-72,72-72H120
	c39.764,0,72,32.235,72,72V744z"/>
<path d="M1056,744.002c0,39.773-32.25,72-72,72l0,0c-39.75,0-72-32.227-72-72V408.004c0-39.773,32.25-72,72-72l0,0
	c39.75,0,72,32.226,72,72V744.002z"/>
<path d="M240,432c0,0,0,384.002,0,432.002C240,912.001,287.999,912,287.999,912H336v168c0,39.609,32.391,72,72,72s72-32.391,72-72
	V912h144v168c0,39.609,32.391,72,72,72s72-32.391,72-72V912h47.995c0,0,48.005,0.001,48.005-47.998c0-48,0-432.002,0-432.002H240z"
	/>
<path d="M239.999,384h623.996c-5.812-77-39.656-145.614-91.171-196.824L900.558,59.419c0,0,25.031-25.007,1.031-49.007
	c-24-24-49.031,1.008-49.031,1.008L719.434,144.545c-48.469-30.727-105.938-48.539-167.437-48.539
	c-61.5,0-118.968,17.812-167.437,48.539L251.436,11.421c0,0-25.031-25.008-49.031-1.008c-24,24,1.031,49.007,1.031,49.007
	L331.17,187.176C279.655,238.386,245.812,307,239.999,384z M671.996,180.006c33.141,0,60,26.859,60,60c0,33.14-26.859,60-60,60
	s-60-26.859-60-60C611.996,206.865,638.855,180.006,671.996,180.006z M491.997,240.005c0,33.14-26.859,60-60,60
	c-33.14,0-60-26.859-60-60c0-33.141,26.859-60,60-60C465.138,180.006,491.997,206.865,491.997,240.005z"/>
</svg>
