<?xml version="1.0" encoding="utf-8"?>
<!-- Generator: Adobe Illustrator 16.0.1, SVG Export Plug-In . SVG Version: 6.00 Build 0)  -->
<!DOCTYPE svg PUBLIC "-//W3C//DTD SVG 1.1//EN" "http://www.w3.org/Graphics/SVG/1.1/DTD/svg11.dtd">
<svg version="1.1" id="Layer_1" xmlns="http://www.w3.org/2000/svg" xmlns:xlink="http://www.w3.org/1999/xlink" x="0px" y="0px"
	 width="1152px" height="1152px" viewBox="0 0 1152 1152" enable-background="new 0 0 1152 1152" xml:space="preserve">
<g>
	<polygon points="864,576 936,768 1152,768 984,912 1056,1152 864,1018.078 672,1152 744,912 576,768 792,768 	"/>
</g>
<path d="M1008,0H144C64.781,0,0,64.805,0,144v576c0,79.195,64.781,144,144,144h240l192,192l35.104-35.104l22.997-76.656
	l-91.111-78.096v0.001L407.598,750.095C357.487,707.143,370.487,672,436.487,672h55.868c10.419-36.375,43.923-63,83.645-63
	s73.227,26.625,83.645,63h65.827l48.289-128.771c0.001-0.003,0.002-0.005,0.003-0.008l48.102-128.27
	c23.174-61.797,61.096-61.797,84.27,0l54.259,144.69l0,0L1002.528,672H1152V144C1152,64.805,1087.219,0,1008,0z M660,216
	c0,108-30.234,276.891-36,306.141c0,2.93-1.453,5.859-10.078,5.859h-75.844c-5.766,0-8.625-1.945-10.078-5.859
	C525.141,494.836,492,324,492,216v-96c0-3.891,1.078-9.375,8.25-12.305C517.5,100.875,552.984,96,574.547,96
	c28.781,0,59.859,3.891,75.656,8.766c7.219,2.93,9.797,7.805,9.797,10.734V216z"/>
</svg>
