<?xml version="1.0" encoding="utf-8"?>
<!-- Generator: Adobe Illustrator 16.0.1, SVG Export Plug-In . SVG Version: 6.00 Build 0)  -->
<!DOCTYPE svg PUBLIC "-//W3C//DTD SVG 1.1//EN" "http://www.w3.org/Graphics/SVG/1.1/DTD/svg11.dtd">
<svg version="1.1" id="Layer_1" xmlns="http://www.w3.org/2000/svg" xmlns:xlink="http://www.w3.org/1999/xlink" x="0px" y="0px"
	 width="1152px" height="1152px" viewBox="0 0 1152 1152" enable-background="new 0 0 1152 1152" xml:space="preserve">
<path d="M1008,96H144C64.781,96,0,160.805,0,240v576c0,79.195,64.781,144,144,144h240l192,192l192-192h240
	c79.219,0,144-64.805,144-144V240C1152,160.805,1087.219,96,1008,96z M576,879c-48.047,0-87-38.953-87-87s38.953-87,87-87
	s87,38.953,87,87S624.047,879,576,879z M660,312c0,108-30.234,276.891-36,306.141c0,2.93-1.453,5.859-10.078,5.859h-75.844
	c-5.766,0-8.625-1.945-10.078-5.859C525.141,590.836,492,420,492,312v-96c0-3.891,1.078-9.375,8.25-12.305
	C517.5,196.875,552.984,192,574.547,192c28.781,0,59.859,3.891,75.656,8.766c7.219,2.93,9.797,7.805,9.797,10.734V312z"/>
</svg>
