<?xml version="1.0" encoding="utf-8"?>
<!-- Generator: Adobe Illustrator 17.0.0, SVG Export Plug-In . SVG Version: 6.00 Build 0)  -->
<!DOCTYPE svg PUBLIC "-//W3C//DTD SVG 1.1//EN" "http://www.w3.org/Graphics/SVG/1.1/DTD/svg11.dtd">
<svg version="1.1" id="Layer_1" xmlns="http://www.w3.org/2000/svg" xmlns:xlink="http://www.w3.org/1999/xlink" x="0px" y="0px"
	 width="1152px" height="1152px" viewBox="0 0 1152 1152" enable-background="new 0 0 1152 1152" xml:space="preserve">
<g>
	<path d="M384,192c0,26.4-21.6,48-48,48h-96c-26.4,0-48-21.6-48-48V96c0-26.4,21.6-48,48-48h96c26.4,0,48,21.6,48,48V192z"/>
</g>
<g>
	<path d="M672,192c0,26.4-21.6,48-48,48h-96c-26.4,0-48-21.6-48-48V96c0-26.4,21.6-48,48-48h96c26.4,0,48,21.6,48,48V192z"/>
</g>
<g>
	<path d="M960,192c0,26.4-21.6,48-48,48h-96c-26.4,0-48-21.6-48-48V96c0-26.4,21.6-48,48-48h96c26.4,0,48,21.6,48,48V192z"/>
</g>
<g>
	<path d="M384,480c0,26.4-21.6,48-48,48h-96c-26.4,0-48-21.6-48-48v-96c0-26.4,21.6-48,48-48h96c26.4,0,48,21.6,48,48V480z"/>
</g>
<g>
	<path d="M672,480c0,26.4-21.6,48-48,48h-96c-26.4,0-48-21.6-48-48v-96c0-26.4,21.6-48,48-48h96c26.4,0,48,21.6,48,48V480z"/>
</g>
<g>
	<path d="M960,480c0,26.4-21.6,48-48,48h-96c-26.4,0-48-21.6-48-48v-96c0-26.4,21.6-48,48-48h96c26.4,0,48,21.6,48,48V480z"/>
</g>
<g>
	<path d="M384,768c0,26.4-21.6,48-48,48h-96c-26.4,0-48-21.6-48-48v-96c0-26.4,21.6-48,48-48h96c26.4,0,48,21.6,48,48V768z"/>
</g>
<g>
	<path d="M672,768c0,26.4-21.6,48-48,48h-96c-26.4,0-48-21.6-48-48v-96c0-26.4,21.6-48,48-48h96c26.4,0,48,21.6,48,48V768z"/>
</g>
<g>
	<path d="M960,768c0,26.4-21.6,48-48,48h-96c-26.4,0-48-21.6-48-48v-96c0-26.4,21.6-48,48-48h96c26.4,0,48,21.6,48,48V768z"/>
</g>
<g>
	<path d="M384,1056c0,26.4-21.6,48-48,48h-96c-26.4,0-48-21.6-48-48v-96c0-26.4,21.6-48,48-48h96c26.4,0,48,21.6,48,48V1056z"/>
</g>
<g>
	<path d="M672,1056c0,26.4-21.6,48-48,48h-96c-26.4,0-48-21.6-48-48v-96c0-26.4,21.6-48,48-48h96c26.4,0,48,21.6,48,48V1056z"/>
</g>
<g>
	<path d="M960,1056c0,26.4-21.6,48-48,48h-96c-26.4,0-48-21.6-48-48v-96c0-26.4,21.6-48,48-48h96c26.4,0,48,21.6,48,48V1056z"/>
</g>
</svg>
