<?xml version="1.0" encoding="utf-8"?>
<!-- Generator: Adobe Illustrator 16.0.4, SVG Export Plug-In . SVG Version: 6.00 Build 0)  -->
<!DOCTYPE svg PUBLIC "-//W3C//DTD SVG 1.1//EN" "http://www.w3.org/Graphics/SVG/1.1/DTD/svg11.dtd">
<svg version="1.1" id="Layer_1" xmlns="http://www.w3.org/2000/svg" xmlns:xlink="http://www.w3.org/1999/xlink" x="0px" y="0px"
	 width="1152px" height="1152px" viewBox="0 0 1152 1152" enable-background="new 0 0 1152 1152" xml:space="preserve">
<path d="M730.172,580.875l37.781-91.266l-92.438-52.594c6.469-35.625,6.188-71.414-0.141-105.961L768,278.461l-37.828-91.266
	l-102.656,28.242c-19.969-28.875-45.047-54.445-74.953-75.07l28.266-102.539L489.562,0.023l-52.547,92.461
	c-35.672-6.492-71.438-6.211-105.984,0.117L278.438,0l-91.312,37.805l28.266,102.68c-28.875,19.945-54.375,45.047-75.047,74.883
	L37.828,187.148L0,278.438l92.484,52.57c-6.562,35.625-6.188,71.438,0.141,105.984L0,489.633l37.828,91.266l102.703-28.266
	c19.875,28.875,45,54.398,74.766,75l-28.172,102.539L278.438,768l52.547-92.461c35.578,6.516,71.438,6.188,105.984-0.117
	l52.688,92.555l91.219-37.805l-28.312-102.703c28.922-19.898,54.422-45.023,75-74.789L730.172,580.875z M576,384
	c0,106.031-85.969,192-192,192s-192-85.969-192-192s85.969-192,192-192S576,277.969,576,384z"/>
<path d="M1152,900v-72l-76.922-9.609c-5.578-25.805-15.75-49.828-29.625-71.297l47.672-61.266l-50.906-50.906l-61.266,47.648
	c-21.516-13.875-45.516-24.094-71.344-29.648L900,576h-72l-9.609,76.922c-25.828,5.555-49.828,15.75-71.297,29.625l-61.266-47.672
	l-50.906,50.906l47.672,61.266c-13.875,21.492-24.094,45.516-29.672,71.344L576,828v72l76.922,9.609
	c5.578,25.828,15.797,49.852,29.672,71.344l-47.672,61.266l50.906,50.906l61.266-47.672c21.469,13.875,45.469,24.07,71.297,29.625
	L828,1152h72l9.609-76.922c25.828-5.555,49.828-15.773,71.344-29.648l61.266,47.648l50.906-50.906l-47.672-61.266
	c13.875-21.469,24.047-45.492,29.625-71.297L1152,900z M864,960c-53.016,0-96-42.984-96-96s42.984-96,96-96s96,42.984,96,96
	S917.016,960,864,960z"/>
</svg>
