<?xml version="1.0" encoding="utf-8"?>
<!-- Generator: Adobe Illustrator 17.0.0, SVG Export Plug-In . SVG Version: 6.00 Build 0)  -->
<!DOCTYPE svg PUBLIC "-//W3C//DTD SVG 1.1//EN" "http://www.w3.org/Graphics/SVG/1.1/DTD/svg11.dtd">
<svg version="1.1" id="Layer_1" xmlns="http://www.w3.org/2000/svg" xmlns:xlink="http://www.w3.org/1999/xlink" x="0px" y="0px"
	 width="1152px" height="1152px" viewBox="0 0 1152 1152" enable-background="new 0 0 1152 1152" xml:space="preserve">
<path d="M467.673,615c-1.666,0-2.649-0.749-2.649-2.486v-28.546c0-2.53,0.326-3.61,2.318-3.61h22.104
	c27.773,0,37.968-12.845,37.968-31.781c0-18.936-12.869-33.61-39.259-33.61c-15.864,0-33.701,5.438-50.53,16.08
	c-1.992,1.075-2.976,0-2.976-1.738v-28.214c0-1.786,0.327-2.861,1.968-3.941C452.486,487.123,473.601,480,496.733,480
	c43.594,0,70.008,25.733,70.008,61.032c0,27.888-15.187,43.594-33.024,51.845v0.326C554.179,598.92,576,616.781,576,649.31
	c0,46.032-36,70.69-82.243,70.69c-23.107,0-44.578-5.717-59.765-15.374c-1.992-1.08-1.992-2.112-1.992-4.267V668.53
	c0-2.059,1.31-2.813,2.649-2.059c19.147,11.717,38.65,17.813,57.466,17.813c32.347,0,42.917-17.813,42.917-35.722
	c0-22.498-17.51-33.562-43.925-33.562H467.673z"/>
<path d="M624,599.813C624,532.08,649.805,480,696.446,480C752.649,480.374,768,544.171,768,599.813
	C768,662.251,750.494,720,696.749,720C645.494,720,624,667.219,624,599.813z M661.757,599.813c0,52.454,11.366,87,34.992,87
	c23.65,0,33.47-32.064,33.47-86.626c0-58.171-10.733-87.749-34.08-87.749C676.805,512.438,661.757,539.904,661.757,599.813z"/>
<path d="M528,960c-192-24-336-188.251-336-384s146.625-360.326,336-384l0.018-192C228,24,0,274.123,0,576s228,552,528,576V960z"/>
<path d="M931.92,124.08L1055.813,0.187L624,0v2.438V432l170.861-170.861C894.537,330.422,960,445.406,960,576
	c0,195.749-144,360-336,384v192c300-24,528-274.123,528-576C1152,392.438,1065.749,229.406,931.92,124.08z"/>
</svg>
