<?xml version="1.0" encoding="utf-8"?>
<!-- Generator: Adobe Illustrator 16.0.4, SVG Export Plug-In . SVG Version: 6.00 Build 0)  -->
<!DOCTYPE svg PUBLIC "-//W3C//DTD SVG 1.1//EN" "http://www.w3.org/Graphics/SVG/1.1/DTD/svg11.dtd">
<svg version="1.1" id="Layer_1" xmlns="http://www.w3.org/2000/svg" xmlns:xlink="http://www.w3.org/1999/xlink" x="0px" y="0px"
	 width="1152px" height="1152px" viewBox="0 0 1152 1152" enable-background="new 0 0 1152 1152" xml:space="preserve">
<path d="M1056,1056v-72c0,0,0-24-24-24s-312,0-336,0s-24,24-24,24v72c0,0-48,0-72,0s-24,24-24,24v72h576v-72c0,0,0-24-24-24
	S1056,1056,1056,1056z"/>
<g>
	
		<rect x="756.353" y="556.118" transform="matrix(-0.7071 0.7071 -0.7071 -0.7071 2080.0571 386.4121)" width="407.294" height="135.764"/>
</g>
<g>
	
		<rect x="324.353" y="124.118" transform="matrix(-0.7071 0.7071 -0.7071 -0.7071 1037.1169 -45.5879)" width="407.294" height="135.764"/>
</g>
<path d="M516.938,556.688L36,972l0.141,0.141C14.062,990.844,0,1018.781,0,1050c0,56.344,45.656,102,102,102
	c31.219,0,59.156-14.016,77.859-36.141L180,1116l415.312-480.938L516.938,556.688z"/>
<rect x="574.294" y="272.236" transform="matrix(-0.7071 0.7071 -0.7071 -0.7071 1558.587 170.4121)" width="339.411" height="271.529"/>
</svg>
