<?xml version="1.0" encoding="utf-8"?>
<!-- Generator: Adobe Illustrator 16.0.4, SVG Export Plug-In . SVG Version: 6.00 Build 0)  -->
<!DOCTYPE svg PUBLIC "-//W3C//DTD SVG 1.1//EN" "http://www.w3.org/Graphics/SVG/1.1/DTD/svg11.dtd">
<svg version="1.1" id="Layer_1" xmlns="http://www.w3.org/2000/svg" xmlns:xlink="http://www.w3.org/1999/xlink" x="0px" y="0px"
	 width="1152px" height="1152px" viewBox="0 0 1152 1152" enable-background="new 0 0 1152 1152" xml:space="preserve">
<path d="M371,227.473C371,190.653,347.6,144,249.341,144c-40.319,0-151.354,0-151.354,0L55,336c0,0,81.738,0,157.743,0
	C335.923,336,371,279.738,371,227.473"/>
<path d="M779,227.472C779,190.653,755.643,144,657.394,144c-40.349,0-151.377,0-151.377,0L463,336c0,0,81.773,0,157.742,0
	C743.987,336,779,279.738,779,227.472"/>
<path d="M316,539.523C316,502.676,292.646,456,194.364,456c-40.342,0-151.331,0-151.331,0L0,648c0,0,81.785,0,157.719,0
	C280.946,648,316,591.675,316,539.523"/>
<path d="M724,539.523C724,502.676,700.555,456,602.373,456c-40.339,0-151.296,0-151.296,0L408,648c0,0,81.779,0,157.731,0
	C688.948,648,724,591.675,724,539.523"/>
<path d="M1152,419.523c0-36.847-23.4-83.523-121.589-83.523c-40.437,0-151.354,0-151.354,0L836,528c0,0,81.808,0,157.719,0
	C1116.946,528,1152,471.764,1152,419.523"/>
<path d="M1093.125,731.492c0-36.873-23.357-83.492-121.653-83.492c-40.302,0-151.33,0-151.33,0l-43.017,192c0,0,81.68,0,157.695,0
	C1058.112,840,1093.125,783.635,1093.125,731.492"/>
<path d="M666.141,851.658c0-36.982-23.359-83.658-121.569-83.658c-40.351,0-151.411,0-151.411,0l-43.02,192c0,0,81.803,0,157.731,0
	C631.126,960,666.141,903.765,666.141,851.658"/>
</svg>
