<?xml version="1.0" encoding="utf-8"?>
<!-- Generator: Adobe Illustrator 16.0.1, SVG Export Plug-In . SVG Version: 6.00 Build 0)  -->
<!DOCTYPE svg PUBLIC "-//W3C//DTD SVG 1.1//EN" "http://www.w3.org/Graphics/SVG/1.1/DTD/svg11.dtd">
<svg version="1.1" id="Layer_1" xmlns="http://www.w3.org/2000/svg" xmlns:xlink="http://www.w3.org/1999/xlink" x="0px" y="0px"
	 width="1152px" height="1152px" viewBox="0 0 1152 1152" enable-background="new 0 0 1152 1152" xml:space="preserve">
<path d="M1128,192c13.2,0,24-10.8,24-24V24c0-13.2-10.8-24-24-24H24C10.8,0,0,10.8,0,24v144c0,13.2,10.8,24,24,24h168v960h108h828
	c13.2,0,24-10.8,24-24V984c0-13.2-10.8-24-24-24H384v-96h744c13.2,0,24-10.8,24-24V696c0-13.2-10.8-24-24-24H384v-96h744
	c13.2,0,24-10.8,24-24V408c0-13.2-10.8-24-24-24H384V192H1128z"/>
</svg>
