<?xml version="1.0" encoding="utf-8"?>
<!-- Generator: Adobe Illustrator 16.0.0, SVG Export Plug-In . SVG Version: 6.00 Build 0)  -->
<!DOCTYPE svg PUBLIC "-//W3C//DTD SVG 1.1//EN" "http://www.w3.org/Graphics/SVG/1.1/DTD/svg11.dtd">
<svg version="1.1" id="Layer_1" xmlns="http://www.w3.org/2000/svg" xmlns:xlink="http://www.w3.org/1999/xlink" x="0px" y="0px"
	 width="1152px" height="1152px" viewBox="0 0 1152 1152" enable-background="new 0 0 1152 1152" xml:space="preserve">
<path d="M624,240C600,216,432,0,432,0l-48,96h-96v96h-96v96H96v96L0,432c0,0,216,168,240,192s48,48,48,48l384-384
	C672,288,648,264,624,240z"/>
<path d="M816,672c0,0,0-216,0-228s-12.001-24-12.001-24L744,360L360,744l60,59.999C420,803.999,432,816,444,816s228,0,228,0l252,300
	c24,24,48,36,84,36s72-24,96-48s48-60,48-96s-12-60-36-84L816,672z M1008,1068c-33.137,0-60-26.863-60-60s26.863-60,60-60
	s60,26.863,60,60S1041.137,1068,1008,1068z"/>
</svg>
