<?xml version="1.0" encoding="utf-8"?>
<!-- Generator: Adobe Illustrator 17.0.0, SVG Export Plug-In . SVG Version: 6.00 Build 0)  -->
<!DOCTYPE svg PUBLIC "-//W3C//DTD SVG 1.1//EN" "http://www.w3.org/Graphics/SVG/1.1/DTD/svg11.dtd">
<svg version="1.1" id="Layer_1" xmlns="http://www.w3.org/2000/svg" xmlns:xlink="http://www.w3.org/1999/xlink" x="0px" y="0px"
	 width="1152px" height="1152px" viewBox="0 0 1152 1152" enable-background="new 0 0 1152 1152" xml:space="preserve">
<path d="M269.531,518.348c-6.938,15.234-13.523,31.219-14.953,40.125C149.519,514.879,102.21,361.129,102.21,361.129
	s-17.742-23.672-53.227,11.812c-26.613,26.625-14.789,59.156-14.789,59.156s32.531,159.657,209.942,224.719
	c0,29.578,0,59.109,5.918,106.453c-65.051,5.906-145.887-37.078-194.461-85.641c0,0-23.66-23.672-53.227,29.578
	c-14.367,25.828,41.391,70.922,41.391,70.922c55.313,55.313,170.813,91.594,246.586,78.938c4.289,9.891,9.07,19.266,13.922,28.594
	c-85.313,57.516-131.086,185.11-131.086,185.11s-14.789,32.531,17.742,65.063c32.52,32.531,59.133,5.906,59.133,5.906
	s34.746-112.406,109.863-173.813c47.332,53.766,102.938,78.844,168.082,88.453L528,624
	C442.066,614.719,336.984,578.958,269.531,518.348z"/>
<path d="M1149.634,707.208c-29.566-53.25-53.227-29.578-53.227-29.578c-48.574,48.563-129.41,91.547-194.461,85.641
	c5.918-47.344,5.918-76.875,5.918-106.453c177.41-65.063,209.942-224.719,209.942-224.719s11.824-32.531-14.789-59.156
	c-35.484-35.484-53.227-11.812-53.227-11.812s-47.309,153.75-152.368,197.344c-2.273-14.156-7.629-28.781-13.406-41.531
	C816.645,578.442,711,614.672,624,624v432.38c65-9.609,120.75-34.688,168.082-88.453c75.117,61.406,109.864,173.813,109.864,173.813
	s26.613,26.625,59.133-5.906c32.531-32.531,17.742-65.063,17.742-65.063s-45.773-127.594-131.086-185.11
	c4.852-9.328,9.633-18.703,13.922-28.594c75.774,12.656,191.274-23.625,246.586-78.938
	C1108.243,778.13,1164.001,733.036,1149.634,707.208z"/>
<path d="M688.383,0c-11.824,0-11.824,5.906-11.824,5.906c141.926,70.969,100.535,189.235,76.875,212.907
	c-23.648,23.672-57.281,33.281-57.281,33.281C672,228,624,192.001,576.023,192C528,192,480,228,455.894,252.094
	c0,0-33.633-9.609-57.281-33.281c-23.66-23.672-65.051-141.938,76.875-212.907c0,0,0-5.906-11.824-5.906
	c-7.148,0-309.762,133.594-104.227,330.376c-17.191,21.797-42.211,51.844-55.453,78.188C336.023,480.001,480.023,528,576.023,528
	s240-47.999,272.04-119.437c-13.242-26.344-38.262-56.391-55.453-78.188C998.145,133.594,695.531,0,688.383,0z"/>
</svg>
