<?xml version="1.0" encoding="utf-8"?>
<!-- Generator: Adobe Illustrator 16.0.0, SVG Export Plug-In . SVG Version: 6.00 Build 0)  -->
<!DOCTYPE svg PUBLIC "-//W3C//DTD SVG 1.1//EN" "http://www.w3.org/Graphics/SVG/1.1/DTD/svg11.dtd">
<svg version="1.1" id="Layer_1" xmlns="http://www.w3.org/2000/svg" xmlns:xlink="http://www.w3.org/1999/xlink" x="0px" y="0px"
	 width="1152px" height="1152px" viewBox="0 0 1152 1152" enable-background="new 0 0 1152 1152" xml:space="preserve">
<path d="M1104,240c-48,0-192,0-192,0L792,96H360L240,240c0,0-144,0-192,0S0,288,0,288v672c0,0,0,48,48,48s1008,0,1056,0s48-48,48-48
	V288C1152,288,1152,240,1104,240z M576,864c-159.058,0-288-128.942-288-288c0-159.058,128.942-288,288-288
	c159.058,0,288,128.942,288,288C864,735.058,735.058,864,576,864z"/>
<circle cx="576" cy="576" r="144"/>
</svg>
