<?xml version="1.0" encoding="utf-8"?>
<!-- Generator: Adobe Illustrator 16.0.4, SVG Export Plug-In . SVG Version: 6.00 Build 0)  -->
<!DOCTYPE svg PUBLIC "-//W3C//DTD SVG 1.1//EN" "http://www.w3.org/Graphics/SVG/1.1/DTD/svg11.dtd">
<svg version="1.1" id="Layer_1" xmlns="http://www.w3.org/2000/svg" xmlns:xlink="http://www.w3.org/1999/xlink" x="0px" y="0px"
	 width="1152px" height="1152px" viewBox="0 0 1152 1152" enable-background="new 0 0 1152 1152" xml:space="preserve">
<path d="M1146,642l-60-60c0,0-6-6-18-6s-18,6-18,6l-42,42l96,96l42-42c0,0,6-6,6-18S1146,642,1146,642z"/>
<rect x="689.324" y="784.118" transform="matrix(-0.7071 0.7071 -0.7071 -0.7071 2097.8804 835.0294)" width="373.352" height="135.764"/>
<path d="M744,1080l-96-96l-72,162c0,6,0,6,6,6C582.258,1152,744,1080,744,1080z"/>
<g>
	<path d="M244.312,480C264.586,359.484,359.484,264.562,480,244.312V0C226.758,22.828,22.852,226.734,0,480H244.312z"/>
	<path d="M576,244.312C696.516,264.562,791.414,359.484,811.688,480H1056C1033.148,226.734,829.242,22.828,576,0V244.312z"/>
	<path d="M480,811.688C359.484,791.438,264.586,696.516,244.312,576H0c22.852,253.266,226.758,457.172,480,480V811.688z"/>
</g>
<path d="M920.25,576H811.688C791.438,696.516,696.516,791.438,576,811.688V920.25L920.25,576z"/>
</svg>
