<?xml version="1.0" encoding="utf-8"?>
<!-- Generator: Adobe Illustrator 16.0.4, SVG Export Plug-In . SVG Version: 6.00 Build 0)  -->
<!DOCTYPE svg PUBLIC "-//W3C//DTD SVG 1.1//EN" "http://www.w3.org/Graphics/SVG/1.1/DTD/svg11.dtd">
<svg version="1.1" id="Layer_1" xmlns="http://www.w3.org/2000/svg" xmlns:xlink="http://www.w3.org/1999/xlink" x="0px" y="0px"
	 width="1152px" height="1152px" viewBox="0 0 1152 1152" enable-background="new 0 0 1152 1152" xml:space="preserve">
<path d="M624,768v384h432V768H624z M768,1050c0,0,0,6-6,6s-30,0-36,0s-6-6-6-6V822c0,0,0-6,6-6s30,0,36,0s6,6,6,6V1050z M864,1050
	c0,0,0,6-6,6s-30,0-36,0s-6-6-6-6V822c0,0,0-6,6-6s30,0,36,0s6,6,6,6V1050z M960,1050c0,0,0,6-6,6s-30,0-36,0s-6-6-6-6V822
	c0,0,0-6,6-6s30,0,36,0s6,6,6,6V1050z"/>
<path d="M1068,624H960v-66c0,0,0-30-30-30c-48,0-132,0-180,0c-30,0-30,30-30,30v66c0,0-60,0-108,0c-36,0-36,36-36,36v60h528v-60
	C1104,660,1104,624,1068,624z M888,624h-96v-42c0,0,0-6,6-6c12,0,72,0,84,0c6,0,6,6,6,6V624z"/>
<g>
	<path d="M244.312,480C264.586,359.484,359.484,264.562,480,244.312V0C226.758,22.828,22.852,226.734,0,480H244.312z"/>
	<path d="M480,811.688C359.484,791.438,264.586,696.516,244.312,576H0c22.852,253.266,226.758,457.172,480,480V811.688z"/>
</g>
<path d="M798.938,432H930c43.734,0,77.438,19.875,99.023,48H1056C1033.148,226.734,829.242,22.828,576,0v244.312
	C679.945,261.797,764.555,334.922,798.938,432z"/>
</svg>
