<?xml version="1.0" encoding="utf-8"?>
<!-- Generator: Adobe Illustrator 17.0.0, SVG Export Plug-In . SVG Version: 6.00 Build 0)  -->
<!DOCTYPE svg PUBLIC "-//W3C//DTD SVG 1.1//EN" "http://www.w3.org/Graphics/SVG/1.1/DTD/svg11.dtd">
<svg version="1.1" id="Layer_1" xmlns="http://www.w3.org/2000/svg" xmlns:xlink="http://www.w3.org/1999/xlink" x="0px" y="0px"
	 width="1152px" height="1152px" viewBox="0 0 1152 1152" enable-background="new 0 0 1152 1152" xml:space="preserve">
<path d="M864,576c-159.097,0-288,129-288,288c0,159.096,128.903,288,288,288c158.999,0,288-128.904,288-288
	C1152,705,1022.999,576,864,576z M792,1044L660,912l60-60l72,72l216-216l60,60L792,1044z"/>
<path d="M506.016,1001.813C300.772,968.299,144,790.69,144,576c0-238.594,193.406-432,432-432
	c214.708,0,392.318,156.797,425.836,362.016c57.466,22.219,108.164,57.797,148.498,103.032c0.634-11.016,1.666-21.893,1.666-33.048
	C1152,257.904,894.115,0,576,0C257.86,0,0,257.904,0,576s257.86,576,576,576c11.155,0,22.032-1.032,33.024-1.69
	C563.788,1110,528.211,1059.283,506.016,1001.813z"/>
<path d="M663.047,537.5c-8.275-18.61-21.542-34.5-39.024-44.5H624V204c0-6.61-5.391-12-12-12h-72c-6.61,0-12,5.39-12,12v288.845
	c-28.69,16.594-48,47.626-48,83.155c0,8.578,1.123,16.92,3.259,24.845L345.024,739.123c-4.69,4.642-4.69,12.283,0,16.973
	L395.927,807c4.666,4.642,12.307,4.642,16.973,0l101.976-101.961C546.658,635.568,598.497,577.345,663.047,537.5z"/>
</svg>
