<?xml version="1.0" encoding="utf-8"?>
<!-- Generator: Adobe Illustrator 17.0.0, SVG Export Plug-In . SVG Version: 6.00 Build 0)  -->
<!DOCTYPE svg PUBLIC "-//W3C//DTD SVG 1.1//EN" "http://www.w3.org/Graphics/SVG/1.1/DTD/svg11.dtd">
<svg version="1.1" id="Layer_1" xmlns="http://www.w3.org/2000/svg" xmlns:xlink="http://www.w3.org/1999/xlink" x="0px" y="0px"
	 width="1152px" height="1152px" viewBox="0 0 1152 1152" enable-background="new 0 0 1152 1152" xml:space="preserve">
<path d="M1008,144H144C64.799,144,0,208.799,0,288v576c0,79.198,64.799,144,144,144h864c79.201,0,144-64.802,144-144V288
	C1152,208.799,1087.201,144,1008,144z M521.344,794.862C497.49,808.066,461.168,816,415.863,816
	C307.635,816,192,753.217,192,577.037C192,437.361,291.867,336,429.404,336c40.529,0,72.99,5.903,92.35,16.134
	c7.178,3.876,6.246,9.782,6.246,15.056v64.847c0,8.304-4.547,11.964-10.406,11.964H516l0,0c-6.112,0-48-24-84.645-23.426
	c-85.407,1.338-140.578,61.148-140.578,151.784c0,137.78,106.096,149.766,138.627,149.766c42.896,0,72.485-10.438,87.385-17.062
	c0,0,1.613-1.143,4.92-1.143c3.844,0,6.29,4.814,6.29,14.368V780C528,783.243,528,792,521.344,794.862z M953.339,794.862
	C929.485,808.066,893.161,816,847.856,816c-108.229,0-223.865-62.783-223.865-238.963C623.992,437.361,723.858,336,861.395,336
	c40.529,0,72.995,5.903,92.354,16.134c7.178,3.876,6.251,9.782,6.251,15.056v64.847c0,8.304-4.557,11.964-10.416,11.964h-1.594l0,0
	c-6.112,0-48-24-84.645-23.426c-85.407,1.338-140.578,61.148-140.578,151.784c0,137.78,106.096,149.766,138.627,149.766
	c42.896,0,72.485-10.438,87.385-17.062c0,0,1.618-1.143,4.925-1.143c3.844,0,6.295,4.814,6.295,14.368V780
	C960,783.243,959.995,792,953.339,794.862z"/>
</svg>
