<?xml version="1.0" encoding="utf-8"?>
<!-- Generator: Adobe Illustrator 16.0.4, SVG Export Plug-In . SVG Version: 6.00 Build 0)  -->
<!DOCTYPE svg PUBLIC "-//W3C//DTD SVG 1.1//EN" "http://www.w3.org/Graphics/SVG/1.1/DTD/svg11.dtd">
<svg version="1.1" id="Layer_1" xmlns="http://www.w3.org/2000/svg" xmlns:xlink="http://www.w3.org/1999/xlink" x="0px" y="0px"
	 width="1152px" height="1152px" viewBox="0 0 1152 1152" enable-background="new 0 0 1152 1152" xml:space="preserve">
<path d="M653.062,902.766C628.312,908.625,602.578,912,576,912c-185.578,0-336-150.422-336-336c0-26.578,3.422-52.289,9.234-77.086
	l-97.406-146.086c-25.125,47.719-42.703,100.078-50.531,155.648L0,576l101.297,67.5c29.766,210.938,196.266,377.438,407.156,407.203
	L576,1152l67.547-101.297c55.547-7.828,107.906-25.406,155.625-50.531L653.062,902.766z"/>
<path d="M498.938,249.234C523.688,243.398,549.422,240,576,240c185.578,0,336,150.422,336,336c0,26.578-3.422,52.312-9.234,77.062
	l97.406,146.109c25.125-47.719,42.703-100.078,50.531-155.672L1152,576l-101.297-67.523
	c-29.766-210.914-196.266-377.391-407.156-407.18L576,0l-67.547,101.297c-55.547,7.852-107.906,25.406-155.625,50.555
	L498.938,249.234z"/>
<path d="M672,480L96,96l384,576l576,384L672,480z M576,636c-33.094,0-60-26.906-60-60s26.906-60,60-60s60,26.906,60,60
	S609.094,636,576,636z"/>
</svg>
