<?xml version="1.0" encoding="utf-8"?>
<!-- Generator: Adobe Illustrator 16.0.4, SVG Export Plug-In . SVG Version: 6.00 Build 0)  -->
<!DOCTYPE svg PUBLIC "-//W3C//DTD SVG 1.1//EN" "http://www.w3.org/Graphics/SVG/1.1/DTD/svg11.dtd">
<svg version="1.1" id="Layer_1" xmlns="http://www.w3.org/2000/svg" xmlns:xlink="http://www.w3.org/1999/xlink" x="0px" y="0px"
	 width="1152px" height="1152px" viewBox="0 0 1152 1152" enable-background="new 0 0 1152 1152" xml:space="preserve">
<path d="M492.281,251.812C519.141,244.781,546.938,240,576,240c185.578,0,336,150.422,336,336c0,29.062-4.828,56.859-11.812,83.719
	l64.688,101.719c16.641-34.406,29.25-71.062,36.094-109.922L1152,576l-151.031-75.516
	C969.562,322.5,829.453,182.438,651.516,151.031L576,0l-75.516,151.031c-38.859,6.844-75.516,19.453-109.922,36.094L492.281,251.812
	z"/>
<path d="M659.719,900.188C632.859,907.219,605.062,912,576,912c-185.578,0-336-150.422-336-336c0-29.062,4.828-56.859,11.812-83.719
	l-64.688-101.719c-16.641,34.406-29.25,71.062-36.094,109.922L0,576l151.031,75.516c31.406,177.984,171.516,318.047,349.453,349.453
	L576,1152l75.516-151.031c38.859-6.844,75.516-19.453,109.922-36.094L659.719,900.188z"/>
<path d="M672,480L144,144l336,528l528,336L672,480z M576,636c-33.094,0-60-26.906-60-60s26.906-60,60-60s60,26.906,60,60
	S609.094,636,576,636z"/>
</svg>
