<?xml version="1.0" encoding="utf-8"?>
<!-- Generator: Adobe Illustrator 17.0.0, SVG Export Plug-In . SVG Version: 6.00 Build 0)  -->
<!DOCTYPE svg PUBLIC "-//W3C//DTD SVG 1.1//EN" "http://www.w3.org/Graphics/SVG/1.1/DTD/svg11.dtd">
<svg version="1.1" id="Layer_1" xmlns="http://www.w3.org/2000/svg" xmlns:xlink="http://www.w3.org/1999/xlink" x="0px" y="0px"
	 width="1152px" height="1152px" viewBox="0 0 1152 1152" enable-background="new 0 0 1152 1152" xml:space="preserve">
<path d="M432,0v216c0,0,0,24,24,24s216,0,216,0L432,0z"/>
<path d="M816,672c-96,0-96-96-96-96V336H480c0,0-48,0-48,48s0,672,0,720s48,48,48,48h528c0,0,48,0,48-48s0-432,0-432
	S892.781,672,816,672z"/>
<path d="M816,336v216c0,0,0,24,24,24s216,0,216,0L816,336z"/>
<path d="M336,240V0H96c0,0-48,0-48,48s0,672,0,720s48,48,48,48h240V240z"/>
</svg>
