<?xml version="1.0" encoding="utf-8"?>
<!-- Generator: Adobe Illustrator 16.0.0, SVG Export Plug-In . SVG Version: 6.00 Build 0)  -->
<!DOCTYPE svg PUBLIC "-//W3C//DTD SVG 1.1//EN" "http://www.w3.org/Graphics/SVG/1.1/DTD/svg11.dtd">
<svg version="1.1" id="Layer_1" xmlns="http://www.w3.org/2000/svg" xmlns:xlink="http://www.w3.org/1999/xlink" x="0px" y="0px"
	 width="1152px" height="1152px" viewBox="0 0 1152 1152" enable-background="new 0 0 1152 1152" xml:space="preserve">
<path d="M972.284,784.889c-35.719,35.438-78.115,61.734-124.17,78.435c-14.449,5.078-29.461,9.104-44.508,12.637
	c-22.253,4.605-45.49,11.549-68.8,12.041h-6.188c-81.314,0-157.814-31.27-219.441-80.856c-8.754-7.084-16.979-14.134-24.785-22.255
	l-17.086-16.172l-39.375-38.494L322.501,626.969c-15.082-15.168-15.082-39.479,0-54.121c7.805-7.594,18.07-11.653,27.879-11.653
	c9.879,0,20.18,4.061,27.984,11.653l160.873,157.375l0.491,0.492c15.08,14.729,31.604,27.402,49.183,38.002
	c41.344,25.277,89.506,38.426,139.709,38.426c22.184,0,44.473-2.53,65.637-8.086c12.937-3.041,25.908-7.629,38.354-12.674
	c30.973-12.639,59.94-31.358,84.375-55.668c103.955-101.707,103.955-267.201,0-368.943c-51.75-50.588-120.127-76.428-188.365-76.428
	c-52.277,0-103.99,14.695-149.025,44.543c-22.78-17.191-47.106-31.359-72.42-42.521c63.631-52.629,142.312-83.354,221.445-83.354
	c87.959,0,176.447,37.844,243.664,103.604C1107.354,439.203,1107.354,653.266,972.284,784.889z M359.731,883.096
	c-75.021,0-145.861-28.844-198.667-80.487c-110.213-107.295-110.213-281.388,0-388.734c52.805-51.592,123.082-80.436,197.611-80.436
	h1.055c14.027,0,27.949,1.055,41.871,3.041c14.482,2.004,29.002,5.062,42.959,9.615c26.367,8.086,51.716,20.248,74.496,35.945
	c10.898,7.066,21.199,15.188,31.111,23.748l8.754,8.086l19.125,19.266l93.656,91.599c15.537,14.659,15.537,38.987,0,54.157
	c-7.771,7.63-17.578,11.181-27.422,11.181c-10.336,0-20.18-3.551-27.949-11.181l-94.709-92.602l-19.617-19.246l-9.315-8.613
	c-27.422-22.764-60.082-38.461-95.201-45.018c-12.445-2.021-24.855-3.041-37.758-3.041h-5.767
	c-52.207,1.477-100.826,21.744-137.6,58.219c-79.1,76.92-79.1,201.916,0,279.328c38.25,37.494,89.506,58.236,143.365,58.236h35.719
	l33.08,31.358c17.086,16.734,35.19,32.412,53.754,45.578L359.731,883.096L359.731,883.096z M1028.183,252.965
	c-80.19-77.922-186.325-120.953-299.562-120.953c-113.307,0-219.898,43.031-300.09,120.953l-8.263,8.613
	c-19.686-3.551-39.899-5.062-60.536-5.062c-96.222,0-186.327,36.439-254.599,103.252c-140.166,137.125-140.166,359.838,0,496.963
	C173.405,923.543,263.511,960,359.731,960H728.62h3.129h3.059c110.705-1.494,214.695-43.541,293.376-120.443
	C1193.271,677.594,1193.271,414.928,1028.183,252.965z"/>
</svg>
