<?xml version="1.0" encoding="utf-8"?>
<!-- Generator: Adobe Illustrator 16.0.0, SVG Export Plug-In . SVG Version: 6.00 Build 0)  -->
<!DOCTYPE svg PUBLIC "-//W3C//DTD SVG 1.1//EN" "http://www.w3.org/Graphics/SVG/1.1/DTD/svg11.dtd">
<svg version="1.1" id="Layer_1" xmlns="http://www.w3.org/2000/svg" xmlns:xlink="http://www.w3.org/1999/xlink" x="0px" y="0px"
	 width="1152px" height="1152px" viewBox="0 0 1152 1152" enable-background="new 0 0 1152 1152" xml:space="preserve">
<path d="M845.484,306.516C791.722,129.128,626.943,0,432,0C193.413,0,0,193.413,0,432c0,194.943,129.128,359.722,306.516,413.484
	C360.279,1022.872,525.056,1152,720,1152c238.587,0,432-193.413,432-432C1152,525.056,1022.872,360.279,845.484,306.516z
	 M288.292,735.911C288.101,730.631,288,725.327,288,720c0-238.587,193.413-432,432-432c5.327,0,10.631,0.101,15.911,0.292
	c14.696,31.024,24.511,64.245,29.096,98.702C750.206,385.024,735.183,384,720,384c-89.749,0-174.126,34.95-237.588,98.412
	S384,630.251,384,720c0,15.183,1.024,30.206,2.994,45.007C352.537,760.422,319.316,750.607,288.292,735.911z M957.588,957.588
	C894.126,1021.05,809.749,1056,720,1056s-174.126-34.95-237.588-98.412c-27.731-27.731-50.017-59.458-66.323-93.88
	C421.37,863.899,426.673,864,432,864c238.587,0,432-193.413,432-432c0-5.327-0.101-10.63-0.292-15.911
	c34.422,16.306,66.148,38.591,93.88,66.323C1021.05,545.874,1056,630.251,1056,720S1021.05,894.126,957.588,957.588z"/>
</svg>
