<?xml version="1.0" encoding="utf-8"?>
<!-- Generator: Adobe Illustrator 16.0.0, SVG Export Plug-In . SVG Version: 6.00 Build 0)  -->
<!DOCTYPE svg PUBLIC "-//W3C//DTD SVG 1.1//EN" "http://www.w3.org/Graphics/SVG/1.1/DTD/svg11.dtd">
<svg version="1.1" id="Layer_1" xmlns="http://www.w3.org/2000/svg" xmlns:xlink="http://www.w3.org/1999/xlink" x="0px" y="0px"
	 width="1152px" height="1152px" viewBox="0 0 1152 1152" enable-background="new 0 0 1152 1152" xml:space="preserve">
<path d="M528,0c238.587,0,432,75.216,432,168S766.587,336,528,336S96,260.784,96,168S289.413,0,528,0z M955.619,300
	C900,384,745.633,432,528,432s-372-48-427.619-132H96v168c0,72,193.413,156,432,156s432-84,432-156V300H955.619z M567.514,928.722
	L814.636,681.6C740.217,706.607,642.936,720,528,720c-217.633,0-372-48-427.619-132H96v312
	c0,70.283,184.298,151.999,415.009,155.857L567.514,928.722z M1146,642l-60-60c0,0-6-6-18-6s-18,6-18,6l-42,42l96,96l42-42
	c0,0,6-6,6-18S1146,642,1146,642z M1056.01,768.001l-263.997,263.997l-95.999-95.999l263.997-263.997L1056.01,768.001z M744,1080
	l-96-96l-72,162c0,6,0,6,6,6C582.25,1152,744,1080,744,1080z"/>
</svg>
