<?xml version="1.0" encoding="utf-8"?>
<!-- Generator: Adobe Illustrator 16.0.0, SVG Export Plug-In . SVG Version: 6.00 Build 0)  -->
<!DOCTYPE svg PUBLIC "-//W3C//DTD SVG 1.1//EN" "http://www.w3.org/Graphics/SVG/1.1/DTD/svg11.dtd">
<svg version="1.1" id="Layer_1" xmlns="http://www.w3.org/2000/svg" xmlns:xlink="http://www.w3.org/1999/xlink" x="0px" y="0px"
	 width="1152px" height="1152px" viewBox="0 0 1152 1152" enable-background="new 0 0 1152 1152" xml:space="preserve">
<ellipse cx="576" cy="168" rx="432" ry="168"/>
<path d="M1003.619,300C948,384,793.633,432,576,432s-372-48-427.619-132H144v168c0,72,193.413,156,432,156s432-84,432-156V300
	H1003.619z"/>
<path d="M1003.619,588C948,672,793.633,720,576,720s-372-48-427.619-132H144v408c0,72,193.413,156,432,156s432-84,432-156V588
	H1003.619z"/>
</svg>
