<?xml version="1.0" encoding="utf-8"?>
<!-- Generator: Adobe Illustrator 16.0.1, SVG Export Plug-In . SVG Version: 6.00 Build 0)  -->
<!DOCTYPE svg PUBLIC "-//W3C//DTD SVG 1.1//EN" "http://www.w3.org/Graphics/SVG/1.1/DTD/svg11.dtd">
<svg version="1.1" id="Layer_1" xmlns="http://www.w3.org/2000/svg" xmlns:xlink="http://www.w3.org/1999/xlink" x="0px" y="0px"
	 width="1152px" height="1152px" viewBox="0 0 1152 1152" enable-background="new 0 0 1152 1152" xml:space="preserve">
<polygon points="960,672 1152,672 1152,1152 "/>
<polygon points="864,672 672,672 672,1152 "/>
<polygon points="912,852 1044,1152 948,1152 912,1056 828,1056 "/>
<ellipse cx="528" cy="168" rx="432" ry="168"/>
<path d="M576,719.181c-15.636,0.538-31.632,0.819-48,0.819c-217.633,0-372-48-427.619-132H96v312
	c0,70.283,184.298,151.999,415.009,155.857L516,1056h60V719.181z"/>
<path d="M576,576h249.465C908.331,545.63,960,505.213,960,468V300h-4.381C900,384,745.633,432,528,432s-372-48-427.619-132H96v168
	c0,72,193.413,156,432,156c16.225,0,32.239-0.392,48-1.139V576z"/>
</svg>
