<?xml version="1.0" encoding="utf-8"?>
<!-- Generator: Adobe Illustrator 16.0.4, SVG Export Plug-In . SVG Version: 6.00 Build 0)  -->
<!DOCTYPE svg PUBLIC "-//W3C//DTD SVG 1.1//EN" "http://www.w3.org/Graphics/SVG/1.1/DTD/svg11.dtd">
<svg version="1.1" id="Layer_1" xmlns="http://www.w3.org/2000/svg" xmlns:xlink="http://www.w3.org/1999/xlink" x="0px" y="0px"
	 width="1152px" height="1152px" viewBox="0 0 1152 1152" enable-background="new 0 0 1152 1152" xml:space="preserve">
<path d="M352.125,1152C0,1152,0,1072.547,0,1072.547s0-53.203,0-119.156C0,834.188,199.594,841.5,272.156,754.781
	C288.562,735.047,312,663.703,300,624c0,0-67.875-147-67.875-186.984c0,0,0,0-20.016,0c-40.031,0-60.047-79.5-60.047-119.203
	C152.062,278.062,192,276,192,276v-36C195.375,106.172,300.938,0,432.188,0S668.625,106.172,672,240v36
	c0,0,40.312,2.062,40.312,41.812c0,39.703-20.016,119.203-60,119.203c-20.062,0-20.062,0-20.062,0C632.25,477,564,624,564,624
	c-12,39.703,11.625,111.047,28.031,130.781C664.594,841.5,864,834.188,864,953.391c0,65.953,0,119.156,0,119.156
	S864,1152,512.25,1152H352.125z"/>
<path d="M997.406,772.969c-12.703-15.234-30.234-67.078-24.844-100.969H1152c0,0-48-48-48-192c0-96,0-96,0-96
	c0-118.828-86.531-216.797-199.875-235.969c-12.891-2.625-26.25-4.031-39.938-4.031c-0.047,0-0.047,0-0.094,0s-0.047,0-0.094,0
	c-37.781,0-72.984,9.469-104.766,25.031c3.609,16.219,6.469,32.719,7.781,49.734c24.609,23.391,41.297,56.812,41.297,99.047
	c0,67.078-27.516,165.844-97.734,201.656c-12.047,36.469-30.281,81.328-54.609,134.344c0.375,4.031,1.922,10.969,3.891,18.188
	h95.531c3.047,18.938-1.125,43.312-7.547,63.938c3.422,1.312,6.984,2.766,10.312,4.031C838.547,770.812,960,817.406,960,953.391
	v54.141c191.531-4.641,192-54.094,192-54.094c0-3.281,0-13.5,0-41.438C1152,816,1057.781,845.25,997.406,772.969z"/>
</svg>
