<?xml version="1.0" encoding="utf-8"?>
<!-- Generator: Adobe Illustrator 16.0.0, SVG Export Plug-In . SVG Version: 6.00 Build 0)  -->
<!DOCTYPE svg PUBLIC "-//W3C//DTD SVG 1.1//EN" "http://www.w3.org/Graphics/SVG/1.1/DTD/svg11.dtd">
<svg version="1.1" id="Layer_1" xmlns="http://www.w3.org/2000/svg" xmlns:xlink="http://www.w3.org/1999/xlink" x="0px" y="0px"
	 width="1152px" height="1152px" viewBox="0 0 1152 1152" enable-background="new 0 0 1152 1152" xml:space="preserve">
<path d="M164.854,384c-3.814,0-7.631-3.815-6.359-8.903L178.847,299c1.273-5.089,3.817-11,8.902-11h74.497l5.638-24
	C308.586,79.567,402.94,0,533.951,0c30.527,0,59.784,5.087,72.5,11.447c5.09,2.543,6.361,6.359,5.09,11.448L589.92,123.379
	c-1.273,5.087-3.818,8.903-8.906,7.631c-11.447-3.816-27.983-6.359-45.79-6.359c-44.52,0-92.853,15.262-117.021,128.466L410.246,288
	h106.941c3.814,0,6.359,3.641,5.086,10l-16.027,78c-1.273,5.089-3.818,6.729-7.633,8H386.246
	c-49.607,244.213-132.123,660.271-158.834,742.949C224.869,1134.578,223.633,1140,216,1140c-39.429,5.088-120.457,10.725-130.631,12
	c-5.09,0-7.634-3.817-6.36-10.177C108.264,1047.7,223.168,476.852,242.246,384H164.854z"/>
<path d="M568.739,296.903c-2.545-5.088,1.271-8.903,6.359-8.903h141.187c6.359,0,7.631,1.272,8.904,6.359l81.405,224.054h1.27
	l161.539-222.782c3.815-5.089,6.359-7.631,12.719-7.631h139.914c6.362,0,7.633,6.359,3.817,10.176
	c-53.423,67.413-178.074,225.326-242.943,300.371c35.613,82.676,106.844,240.951,133.555,303.273c2.545,6.364,0,10.18-6.358,10.18
	H870.192c-6.362,0-10.178-2.545-12.722-8.904l-83.949-220.601h-1.271c-43.247,63.598-114.475,154.458-167.898,221.87
	c-1.271,3.819-3.814,6.362-12.718,7.635H441.544c-5.087,0-7.631-5.09-3.816-10.18c75.046-89.033,186.976-223.14,256.934-307.089
	L568.739,296.903z"/>
</svg>
