<?xml version="1.0" encoding="utf-8"?>
<!-- Generator: Adobe Illustrator 16.0.4, SVG Export Plug-In . SVG Version: 6.00 Build 0)  -->
<!DOCTYPE svg PUBLIC "-//W3C//DTD SVG 1.1//EN" "http://www.w3.org/Graphics/SVG/1.1/DTD/svg11.dtd">
<svg version="1.1" id="Layer_1" xmlns="http://www.w3.org/2000/svg" xmlns:xlink="http://www.w3.org/1999/xlink" x="0px" y="0px"
	 width="1152px" height="1152px" viewBox="0 0 1152 1152" enable-background="new 0 0 1152 1152" xml:space="preserve">
<path d="M277.828,1152h676.828L1008,912c0,0,48-144-48-192c-64.406-32.203-384-120-384-120l-24-312c0-53.016-24-96-72-96
	s-72,42.984-72,96l-24,384v288c0,0-144-180-192-240c-21.203-26.504-60-36-96,0s-12,72,0,96S207.094,1023.562,277.828,1152z"/>
<path d="M480,0C320.953,0,192,128.953,192,288c0,85.172,37.219,161.484,96,214.219V288c0-106.031,85.969-192,192-192
	s192,85.969,192,192v214.219c58.781-52.734,96-129.047,96-214.219C768,128.953,639.047,0,480,0z"/>
</svg>
