<?xml version="1.0" encoding="utf-8"?>
<!-- Generator: Adobe Illustrator 16.0.4, SVG Export Plug-In . SVG Version: 6.00 Build 0)  -->
<!DOCTYPE svg PUBLIC "-//W3C//DTD SVG 1.1//EN" "http://www.w3.org/Graphics/SVG/1.1/DTD/svg11.dtd">
<svg version="1.1" id="Layer_1" xmlns="http://www.w3.org/2000/svg" xmlns:xlink="http://www.w3.org/1999/xlink" x="0px" y="0px"
	 width="1152px" height="1152px" viewBox="0 0 1152 1152" enable-background="new 0 0 1152 1152" xml:space="preserve">
<path d="M912,720.375v-132c0-13.172,7.688-16.312,16.969-7.031L1152,816l-223.031,234.609c-9.281,9.375-16.969,6.188-16.969-7.031
	V912c-264,0-351.094,130.312-384,240C528,720,736.5,720.375,912,720.375z"/>
<polygon points="240,576 144,576 144,144 576,144 576,267.281 720,411.281 720,0 0,0 0,720 240,720 "/>
<path d="M520.688,779.391c23.766-34.922,50.93-62.156,80.297-83.109L591,672h49.828c43.641-22.453,89.859-34.453,134.531-40.641
	L336,192v660l150-150L520.688,779.391z"/>
</svg>
