<?xml version="1.0" encoding="utf-8"?>
<!-- Generator: Adobe Illustrator 16.0.0, SVG Export Plug-In . SVG Version: 6.00 Build 0)  -->
<!DOCTYPE svg PUBLIC "-//W3C//DTD SVG 1.1//EN" "http://www.w3.org/Graphics/SVG/1.1/DTD/svg11.dtd">
<svg version="1.1" id="Layer_1" xmlns="http://www.w3.org/2000/svg" xmlns:xlink="http://www.w3.org/1999/xlink" x="0px" y="0px"
	 width="1152px" height="1152px" viewBox="0 0 1152 1152" enable-background="new 0 0 1152 1152" xml:space="preserve">
<polygon points="240,576 144,576 144,144 576,144 576,296.235 720,440.235 720,0 0,0 0,720 240,720 "/>
<path d="M510.216,714.5c19.345-45.738,47.021-86.795,82.254-122.029c24.529-24.528,51.889-45.383,81.675-62.324L336,192v792
	l144.786-144.786C483.516,796.152,493.38,754.305,510.216,714.5z"/>
<path d="M864,576c-159.058,0-288,128.941-288,288c0,159.058,128.942,288,288,288c159.059,0,288-128.942,288-288
	C1152,704.941,1023.059,576,864,576z M864,672c34.529,0,66.927,9.121,94.924,25.076L697.077,958.923
	C681.121,930.926,672,898.529,672,864C672,757.961,757.962,672,864,672z M864,1056c-34.529,0-66.926-9.121-94.923-25.077
	l261.847-261.847C1046.879,797.073,1056,829.471,1056,864C1056,970.038,970.039,1056,864,1056z"/>
</svg>
