<?xml version="1.0" encoding="utf-8"?>
<!-- Generator: Adobe Illustrator 16.0.4, SVG Export Plug-In . SVG Version: 6.00 Build 0)  -->
<!DOCTYPE svg PUBLIC "-//W3C//DTD SVG 1.1//EN" "http://www.w3.org/Graphics/SVG/1.1/DTD/svg11.dtd">
<svg version="1.1" id="Layer_1" xmlns="http://www.w3.org/2000/svg" xmlns:xlink="http://www.w3.org/1999/xlink" x="0px" y="0px"
	 width="1152px" height="1152px" viewBox="0 0 1152 1152" enable-background="new 0 0 1152 1152" xml:space="preserve">
<path d="M936,288C720,48,528,48,528,48c96,192,288,288,288,288c-24,0-48,96-144,96s-144-96-288-96c-96,0-192,48-192,48
	c0-96-96-96-96-96s-96,0-96,96c0,72,48,96,48,96s0,192,96,240s111.047,219.75,144,228c48,12,204,48,204,48s-60,108-12,108
	c72,0,132-96,132-96h60c24,0,72,0,72-48s-72-48-72-48c192-192,288-336,288-336c96,0,120-24,120-24c48-48,72-84,72-96
	S936,288,936,288z M576,900l-192-36c-48-12.001,48-96,48-96s192,0,240,0L576,900z"/>
</svg>
