<?xml version="1.0" encoding="utf-8"?>
<!-- Generator: Adobe Illustrator 16.0.4, SVG Export Plug-In . SVG Version: 6.00 Build 0)  -->
<!DOCTYPE svg PUBLIC "-//W3C//DTD SVG 1.1//EN" "http://www.w3.org/Graphics/SVG/1.1/DTD/svg11.dtd">
<svg version="1.1" id="Layer_1" xmlns="http://www.w3.org/2000/svg" xmlns:xlink="http://www.w3.org/1999/xlink" x="0px" y="0px"
	 width="1152px" height="1152px" viewBox="0 0 1152 1152" enable-background="new 0 0 1152 1152" xml:space="preserve">
<path d="M720,0v264c0,0,0,24,24,24s264,0,264,0L720,0z"/>
<path d="M720,384c-96,0-96-96-96-96V0H240c0,0-48,0-48,48s0,1008,0,1056s48,48,48,48h720c0,0,48,0,48-48s0-720,0-720
	S796.781,384,720,384z M432,1008h-96V864h96V1008z M576,1008h-96V816h96V1008z M720,1008h-96V720h96V1008z M864,1008h-96V528h96
	V1008z"/>
</svg>
