<?xml version="1.0" encoding="utf-8"?>
<!-- Generator: Adobe Illustrator 16.0.1, SVG Export Plug-In . SVG Version: 6.00 Build 0)  -->
<!DOCTYPE svg PUBLIC "-//W3C//DTD SVG 1.1//EN" "http://www.w3.org/Graphics/SVG/1.1/DTD/svg11.dtd">
<svg version="1.1" id="Layer_1" xmlns="http://www.w3.org/2000/svg" xmlns:xlink="http://www.w3.org/1999/xlink" x="0px" y="0px"
	 width="1152px" height="1152px" viewBox="0 0 1152 1152" enable-background="new 0 0 1152 1152" xml:space="preserve">
<path d="M720,0v264c0,0,0,24,24,24s264,0,264,0L720,0z"/>
<path d="M720,384c-96,0-96-96-96-96V0H192c0,0-48,0-48,48s0,1008,0,1056s48,48,48,48h768c0,0,48,0,48-48s0-720,0-720
	S796.801,384,720,384z M912,576h-48l-192,432H528V816l-96,192H288V576h-48v-48h192v48h-48v240l144-288h144v240l96-192h-48v-48h192
	V576z"/>
</svg>
