<?xml version="1.0" encoding="utf-8"?>
<!-- Generator: Adobe Illustrator 16.0.1, SVG Export Plug-In . SVG Version: 6.00 Build 0)  -->
<!DOCTYPE svg PUBLIC "-//W3C//DTD SVG 1.1//EN" "http://www.w3.org/Graphics/SVG/1.1/DTD/svg11.dtd">
<svg version="1.1" id="Layer_1" xmlns="http://www.w3.org/2000/svg" xmlns:xlink="http://www.w3.org/1999/xlink" x="0px" y="0px"
	 width="1152px" height="1152px" viewBox="0 0 1152 1152" enable-background="new 0 0 1152 1152" xml:space="preserve">
<path d="M720,0v264c0,0,0,24,24,24s264,0,264,0L720,0z"/>
<path d="M720,384c-96,0-96-96-96-96V0H192c0,0-48,0-48,48c0,26.25,0,324.516,0,597.703l134.648-71.953
	c7.875-4.172,11.203-7.219,16.922-9.047c6.586-2.109,10.523-3.094,15.82-3.094c15.422,0,23.906,6.562,29.039,12.094
	c7.219,7.734,10.43,17.906,10.43,30.141c0,11.391-3.914,21.562-11.203,30.281c-6.398,7.594-9.07,14.672-22.711,21.516L144,746.25
	c0,30.75,0,60.562,0,89.062l172.922,91.781c13.664,7.172,19.734,14.344,26.109,21.891c7.289,8.719,9.188,18.75,9.188,29.812
	c0,12.422-4.5,22.734-11.531,30.75c-7.359,8.391-18.727,12.844-31.102,12.844c-5.32,0-10.828-0.938-16.852-2.906
	c-5.062-1.641-5.086-4.875-14.367-9.844L144,936.656c0,91.406,0,155.812,0,167.344c0,48,48,48,48,48h768c0,0,48,0,48-48s0-720,0-720
	S796.805,384,720,384z M852.957,998.529c-7.367,6.316-19.805,9.471-37.324,9.471h-98.26c-17.52,0-29.963-3.097-37.324-9.289
	C672.682,992.519,672,986.568,672,972c0-12.869,0.623-27.073,7.859-33.755c7.234-6.676,17.709-10.017,31.42-10.017H720V816H576
	v112.229h8.723c13.711,0,24.184,3.341,31.42,10.017C623.379,944.927,624,959.131,624,972c0,14.331-0.752,20.217-8.238,26.529
	c-7.492,6.316-19.869,9.471-37.133,9.471h-98.261c-17.519,0-29.962-3.097-37.323-9.289C435.678,992.519,432,982.137,432,967.568
	c0-12.869,3.553-22.642,10.664-29.323c7.105-6.676,17.519-10.017,31.23-10.017H480v-271.73h-6.106
	c-13.461,0-23.679-3.397-30.659-10.198c-6.986-6.796-10.474-16.755-10.474-29.868c0-14.325,3.618-24.644,10.854-30.961
	c7.236-6.312,19.483-9.471,36.752-9.471h98.261c17.008,0,29.326,3.159,36.941,9.471c7.617,6.317,8.43,12.204,8.43,26.529
	c0,13.113-0.621,27.504-7.857,34.3c-7.236,6.801-17.709,10.198-31.42,10.198H576v83.779h144v-83.779h-8.721
	c-13.711,0-24.186-3.397-31.42-10.198C672.623,639.504,672,625.113,672,612c0-14.325,0.748-20.212,8.24-26.529
	c7.484-6.312,19.863-9.471,37.133-9.471h98.26c17.264,0,29.516,3.159,36.752,9.471c7.236,6.317,10.854,16.636,10.854,30.961
	c0,13.113-3.492,23.072-10.473,29.868c-6.986,6.801-17.203,10.198-30.658,10.198H816v271.73h6.107
	c13.711,0,24.119,3.341,31.23,10.017c7.104,6.682,10.662,16.454,10.662,29.323C864,981.899,860.316,992.217,852.957,998.529z"/>
</svg>
