<?xml version="1.0" encoding="utf-8"?>
<!-- Generator: Adobe Illustrator 16.0.4, SVG Export Plug-In . SVG Version: 6.00 Build 0)  -->
<!DOCTYPE svg PUBLIC "-//W3C//DTD SVG 1.1//EN" "http://www.w3.org/Graphics/SVG/1.1/DTD/svg11.dtd">
<svg version="1.1" id="Layer_1" xmlns="http://www.w3.org/2000/svg" xmlns:xlink="http://www.w3.org/1999/xlink" x="0px" y="0px"
	 width="1152px" height="1152px" viewBox="0 0 1152 1152" enable-background="new 0 0 1152 1152" xml:space="preserve">
<path d="M480,766.594c0-124.266,64.734-192.094,133.195-221.156C700.359,278.109,912,96,912,96V0H48v96c0,0,336,288,336,672
	c0,0,0,192,0,240s48,48,48,48h96c0,0,48,0,48-48c0-3.141,0-13.688,0-28.734C517.922,904.641,480,835.688,480,766.594z"/>
<path d="M985.195,624C891.703,624,840,756,840,756s-51.68-132-145.195-132c0,0-118.805,0-118.805,142.594
	c0,124.688,264,337.875,264,385.406c0-47.531,264-260.719,264-385.406C1104,624,985.195,624,985.195,624z"/>
</svg>
