<?xml version="1.0" encoding="utf-8"?>
<!-- Generator: Adobe Illustrator 16.0.0, SVG Export Plug-In . SVG Version: 6.00 Build 0)  -->
<!DOCTYPE svg PUBLIC "-//W3C//DTD SVG 1.1//EN" "http://www.w3.org/Graphics/SVG/1.1/DTD/svg11.dtd">
<svg version="1.1" id="Layer_1" xmlns="http://www.w3.org/2000/svg" xmlns:xlink="http://www.w3.org/1999/xlink" x="0px" y="0px"
	 width="1152px" height="1152px" viewBox="0 0 1152 1152" enable-background="new 0 0 1152 1152" xml:space="preserve">
<path d="M510.216,1013.5C490.166,966.097,480,915.798,480,864s10.166-102.097,30.216-149.5
	c19.346-45.737,47.02-86.794,82.255-122.029c2.836-2.836,5.724-5.605,8.635-8.343C679.09,295.652,912,96,912,96V0H48v96
	c0,0,336,288,336,672c0,0,0,192,0,240s48,48,48,48h96c0,0,1.218-0.001,3.26-0.194C523.417,1042.203,516.388,1028.093,510.216,1013.5
	z"/>
<path d="M864,576c-159.059,0-288,128.941-288,288s128.941,288,288,288s288-128.941,288-288S1023.059,576,864,576z M1032,972l-60,60
	L864,924l-108,108l-60-60l108-108L696,756l60-60l108,108l108-108l60,60L924,864L1032,972z"/>
</svg>
