<?xml version="1.0" encoding="utf-8"?>
<!-- Generator: Adobe Illustrator 16.0.0, SVG Export Plug-In . SVG Version: 6.00 Build 0)  -->
<!DOCTYPE svg PUBLIC "-//W3C//DTD SVG 1.1//EN" "http://www.w3.org/Graphics/SVG/1.1/DTD/svg11.dtd">
<svg version="1.1" id="Layer_1" xmlns="http://www.w3.org/2000/svg" xmlns:xlink="http://www.w3.org/1999/xlink" x="0px" y="0px"
	 width="1152px" height="1152px" viewBox="0 0 1152 1152" enable-background="new 0 0 1152 1152" xml:space="preserve">
<path d="M48,0v96c0,0,336,288,336,672c0,0,0,192,0,240s48,48,48,48h79.13l-0.122-0.143l56.505-127.137l8.486-8.485
	C576,850.012,576,768,576,768c0-384,336-672,336-672V0H48z M1146,642l-60-60c0,0-6-6-18-6s-18,6-18,6l-42,42l96,96l42-42
	c0,0,6-6,6-18S1146,642,1146,642z M1056.01,768.001l-263.997,263.997l-95.999-95.999l263.997-263.997L1056.01,768.001z M744,1080
	l-96-96l-72,162c0,6,0,6,6,6C582.25,1152,744,1080,744,1080z"/>
</svg>
