<?xml version="1.0" encoding="utf-8"?>
<!-- Generator: Adobe Illustrator 16.0.4, SVG Export Plug-In . SVG Version: 6.00 Build 0)  -->
<!DOCTYPE svg PUBLIC "-//W3C//DTD SVG 1.1//EN" "http://www.w3.org/Graphics/SVG/1.1/DTD/svg11.dtd">
<svg version="1.1" id="Layer_1" xmlns="http://www.w3.org/2000/svg" xmlns:xlink="http://www.w3.org/1999/xlink" x="0px" y="0px"
	 width="1152px" height="1152px" viewBox="0 0 1152 1152" enable-background="new 0 0 1152 1152" xml:space="preserve">
<g>
	<path d="M120,0C96,0,48,0,24,0S0,24,0,24v1104c0,0,0,24,24,24s72,0,96,0s24-24,24-24V24C144,24,144,0,120,0z"/>
	<path d="M240,96v144c0,0,96-48,144-48v384c-48,0-144,48-144,48v144c0,0,95.906-48,239.953-48s287.953,96,432,96S1152,768,1152,768
		V96c0,0-96.094,48-240.047,48S624,48,480,48S240,96,240,96z"/>
</g>
</svg>
