<?xml version="1.0" encoding="utf-8"?>
<!-- Generator: Adobe Illustrator 17.0.0, SVG Export Plug-In . SVG Version: 6.00 Build 0)  -->
<!DOCTYPE svg PUBLIC "-//W3C//DTD SVG 1.1//EN" "http://www.w3.org/Graphics/SVG/1.1/DTD/svg11.dtd">
<svg version="1.1" id="Layer_1" xmlns="http://www.w3.org/2000/svg" xmlns:xlink="http://www.w3.org/1999/xlink" x="0px" y="0px"
	 width="1152px" height="1152px" viewBox="0 0 1152 1152" enable-background="new 0 0 1152 1152" xml:space="preserve">
<path fill-rule="evenodd" clip-rule="evenodd" d="M0,0v1104h1152V0H0z M864,336c-23.941,0-44.367,2.535-62.662,8.877
	c-18.321,6.341-33.803,15.502-48.592,28.175c-13.378,10.569-26.063,26.071-38.02,44.389c-11.265,17.611-21.828,38.606-32.4,62.559
	H792v144H626.003l-39.431,89.327c-16.2,31.706-33.102,58.474-50.708,81.725C473.193,872.549,390.807,912,288,912V768
	c30.275,0,56.332-6.057,78.866-16.617c20.421-9.876,38.73-24.663,56.337-46.511c14.083-18.314,28.162-43.67,42.951-76.085
	c11.265-22.533,25.348-56.352,41.548-102.152l46.47-113.422c18.312-42.274,40.141-76.791,61.969-104.265
	C678.811,230.745,761.197,192,864,192V336z"/>
</svg>
