<?xml version="1.0" encoding="utf-8"?>
<!-- Generator: Adobe Illustrator 16.0.4, SVG Export Plug-In . SVG Version: 6.00 Build 0)  -->
<!DOCTYPE svg PUBLIC "-//W3C//DTD SVG 1.1//EN" "http://www.w3.org/Graphics/SVG/1.1/DTD/svg11.dtd">
<svg version="1.1" id="Layer_1" xmlns="http://www.w3.org/2000/svg" xmlns:xlink="http://www.w3.org/1999/xlink" x="0px" y="0px"
	 width="1152px" height="1152px" viewBox="0 0 1152 1152" enable-background="new 0 0 1152 1152" xml:space="preserve">
<g>
	<rect x="-19.529" y="167.147" transform="matrix(0.7071 -0.7071 0.7071 0.7071 -104.3818 252)" width="543.058" height="169.706"/>
	<path d="M672,432c0,0,0-120,0-132s-12-24-12-24l-84-84L192,576l84,84c0,0,12,12,24,12s132,0,132,0s408,408,456,456
		c32,32,64,32,96,0c48-48,96-96,144-144c32.854-32.854,31.135-64.865,0-96C1080,840,672,432,672,432z M816,864
		c-16.586,16.586-32.597,15.403-48,0c-12-12-84-84-96-96c-16.001-16.001-15.999-32.001,0-48c12-12,36-36,48-48
		c16.587-16.587,32.598-15.402,48,0c12,12,84,84,96,96c16.589,16.589,15.4,32.6,0,48C852,828,828,852,816,864z"/>
</g>
</svg>
