<?xml version="1.0" encoding="utf-8"?>
<!-- Generator: Adobe Illustrator 16.0.0, SVG Export Plug-In . SVG Version: 6.00 Build 0)  -->
<!DOCTYPE svg PUBLIC "-//W3C//DTD SVG 1.1//EN" "http://www.w3.org/Graphics/SVG/1.1/DTD/svg11.dtd">
<svg version="1.1" id="Layer_1" xmlns="http://www.w3.org/2000/svg" xmlns:xlink="http://www.w3.org/1999/xlink" x="0px" y="0px"
	 width="1152px" height="1152px" viewBox="0 0 1152 1152" enable-background="new 0 0 1152 1152" xml:space="preserve">
<path d="M624,192V96c0,0,0-48-48-48S96,48,48,48S0,96,0,96v96H624z"/>
<path d="M672,768v384h432V768H672z M816,1050c0,0,0,6-6,6s-30,0-36,0s-6-6-6-6V822c0,0,0-6,6-6s30,0,36,0s6,6,6,6V1050z M912,1050
	c0,0,0,6-6,6s-30,0-36,0s-6-6-6-6V822c0,0,0-6,6-6s30,0,36,0s6,6,6,6V1050z M1008,1050c0,0,0,6-6,6s-30,0-36,0s-6-6-6-6V822
	c0,0,0-6,6-6s30,0,36,0s6,6,6,6V1050z"/>
<path d="M576,816h-48l0-192c0,0,0-96,96-96h48c0,0,0-96,84-96h300v-96c0,0,0-48-48-48S0,288,0,288v672c0,0,0,48,48,48
	c25.687,0,285.055,0,528,0V816z"/>
<path d="M1116,624h-108v-66c0,0,0-30-30-30c-48,0-132,0-180,0c-30,0-30,30-30,30v66c0,0-60,0-108,0c-36,0-36,36-36,36v60h528v-60
	C1152,660,1152,624,1116,624z M936,624h-96v-42c0,0,0-6,6-6c12,0,72,0,84,0c6,0,6,6,6,6V624z"/>
</svg>
