<?xml version="1.0" encoding="utf-8"?>
<!-- Generator: Adobe Illustrator 16.0.1, SVG Export Plug-In . SVG Version: 6.00 Build 0)  -->
<!DOCTYPE svg PUBLIC "-//W3C//DTD SVG 1.1//EN" "http://www.w3.org/Graphics/SVG/1.1/DTD/svg11.dtd">
<svg version="1.1" id="Layer_1" xmlns="http://www.w3.org/2000/svg" xmlns:xlink="http://www.w3.org/1999/xlink" x="0px" y="0px"
	 width="1152px" height="1152px" viewBox="0 0 1152 1152" enable-background="new 0 0 1152 1152" xml:space="preserve">
<path d="M624,144V48c0,0,0-48-48-48S96,0,48,0S0,48,0,48v96H624z"/>
<path d="M288,432c-26.438,0-48,21.562-48,48v96h96v-96C336,453.562,314.438,432,288,432z"/>
<polygon points="960,672 1152,672 1152,1152 "/>
<polygon points="864,672 672,672 672,1152 "/>
<polygon points="912,852 1044,1152 948,1152 912,1056 828,1056 "/>
<path d="M576,576h480V288c0,0,0-48-48-48S0,240,0,240v672c0,0,0,48,48,48c25.688,0,285.047,0,528,0V576z M456,864H120
	c-13.219,0-24-10.781-24-24V600c0-13.219,10.781-24,24-24h24v-96c0-79.5,64.5-144,144-144s144,64.5,144,144v96h24
	c13.219,0,24,10.781,24,24v240C480,853.219,469.219,864,456,864z"/>
</svg>
