<?xml version="1.0" encoding="utf-8"?>
<!-- Generator: Adobe Illustrator 16.0.1, SVG Export Plug-In . SVG Version: 6.00 Build 0)  -->
<!DOCTYPE svg PUBLIC "-//W3C//DTD SVG 1.1//EN" "http://www.w3.org/Graphics/SVG/1.1/DTD/svg11.dtd">
<svg version="1.1" id="Layer_1" xmlns="http://www.w3.org/2000/svg" xmlns:xlink="http://www.w3.org/1999/xlink" x="0px" y="0px"
	 width="1152px" height="1152px" viewBox="0 0 1152 1152" enable-background="new 0 0 1152 1152" xml:space="preserve">
<path d="M990.762,142.131c-30.519,55.702-23.406,118.041,15.885,139.239c39.292,21.202,95.89-6.766,126.408-62.47
	c30.521-55.698,23.409-118.041-15.884-139.24C1077.88,58.46,1021.285,86.43,990.762,142.131z"/>
<path d="M873.858,68.945c-21.398,38.923-15.959,82.727,12.156,97.846c28.11,15.112,68.251-4.186,89.652-43.105
	c21.4-38.921,15.957-82.729-12.156-97.844C935.396,10.728,895.256,30.024,873.858,68.945z"/>
<path d="M756.063,44.542c-15.207,32.141-9.581,65.254,12.566,73.963c22.151,8.707,52.431-10.29,67.637-42.429
	c15.212-32.141,9.586-65.257-12.562-73.962C801.556-6.597,771.272,12.398,756.063,44.542z"/>
<path d="M640.594,33.935c-10.642,25.218-4.145,52.227,14.524,60.318c18.663,8.096,42.427-5.791,53.074-31.015
	c10.648-25.222,4.153-52.226-14.515-60.322C675.008-5.174,651.244,8.71,640.594,33.935z"/>
<path d="M527.018,52.029c-12.231,22.241-8.469,47.622,8.397,56.692c16.867,9.068,40.456-1.606,52.685-23.85
	c12.229-22.241,8.47-47.62-8.397-56.693C562.831,19.111,539.246,29.787,527.018,52.029z"/>
<path d="M615.47,490.906c16.921,14.381,32.73,30.274,49.868,44.395c15.697-9.493,32.104-17.87,49.162-25.085
	C761.903,490.166,812.202,480,864,480c23.794,0,47.27,2.151,70.296,6.414c26.401-50.263,82.238-197.274-100.967-295.777
	C609.353,70.21,431.271,192.509,352.548,297.363c-71.271,94.929-65.423,206.981-113.471,290.936S82.919,780.197,20.415,901.419
	c-52.649,102.11,3.952,184.735,85.401,228.526c81.447,43.793,196.108,27.182,262.53-93.63
	c66.429-120.81,14.244-409.746,69.597-510.423C493.301,425.217,580.249,460.972,615.47,490.906z"/>
<path d="M864,576c-159.059,0-288,128.941-288,288s128.941,288,288,288s288-128.941,288-288S1023.059,576,864,576z M864,660
	c41.139,0,79.426,12.188,111.469,33.135L693.135,975.469C672.188,943.426,660,905.139,660,864C660,751.334,751.334,660,864,660z
	 M864,1068c-41.139,0-79.426-12.188-111.469-33.135l282.334-282.334C1055.812,784.574,1068,822.861,1068,864
	C1068,976.666,976.666,1068,864,1068z"/>
</svg>
