<?xml version="1.0" encoding="utf-8"?>
<!-- Generator: Adobe Illustrator 16.0.1, SVG Export Plug-In . SVG Version: 6.00 Build 0)  -->
<!DOCTYPE svg PUBLIC "-//W3C//DTD SVG 1.1//EN" "http://www.w3.org/Graphics/SVG/1.1/DTD/svg11.dtd">
<svg version="1.1" id="Layer_1" xmlns="http://www.w3.org/2000/svg" xmlns:xlink="http://www.w3.org/1999/xlink" x="0px" y="0px"
	 width="1152px" height="1152px" viewBox="0 0 1152 1152" enable-background="new 0 0 1152 1152" xml:space="preserve">
<path d="M924,504c0,0,133.309-192.937-90.671-313.364C609.353,70.21,431.271,192.509,352.548,297.363
	c-71.271,94.929-65.423,206.981-113.471,290.936S82.919,780.197,20.415,901.419c-52.649,102.11,3.952,184.735,85.401,228.526
	c81.447,43.793,196.108,27.182,262.53-93.63c66.429-120.81,14.244-409.746,69.597-510.423
	c55.358-100.675,142.306-64.92,177.527-34.986C659.502,528.331,696.001,576,768,576C816.001,576,885.768,566.533,924,504z"/>
<path d="M990.762,142.131c-30.519,55.702-23.406,118.041,15.885,139.239c39.292,21.202,95.89-6.766,126.408-62.47
	c30.521-55.698,23.409-118.041-15.884-139.24C1077.88,58.46,1021.285,86.43,990.762,142.131z"/>
<path d="M873.858,68.945c-21.398,38.923-15.959,82.727,12.156,97.846c28.11,15.112,68.251-4.186,89.652-43.105
	c21.4-38.921,15.957-82.729-12.156-97.844C935.396,10.728,895.256,30.024,873.858,68.945z"/>
<path d="M756.063,44.542c-15.207,32.141-9.581,65.254,12.566,73.963c22.151,8.707,52.431-10.29,67.637-42.429
	c15.212-32.141,9.586-65.257-12.562-73.962C801.556-6.597,771.272,12.398,756.063,44.542z"/>
<path d="M640.594,33.935c-10.642,25.218-4.145,52.227,14.524,60.318c18.663,8.096,42.427-5.791,53.074-31.015
	c10.648-25.222,4.153-52.226-14.515-60.322C675.008-5.174,651.244,8.71,640.594,33.935z"/>
<path d="M527.018,52.029c-12.231,22.241-8.469,47.622,8.397,56.692c16.867,9.068,40.456-1.606,52.685-23.85
	c12.229-22.241,8.47-47.62-8.397-56.693C562.831,19.111,539.246,29.787,527.018,52.029z"/>
</svg>
