<?xml version="1.0" encoding="utf-8"?>
<!-- Generator: Adobe Illustrator 16.0.4, SVG Export Plug-In . SVG Version: 6.00 Build 0)  -->
<!DOCTYPE svg PUBLIC "-//W3C//DTD SVG 1.1//EN" "http://www.w3.org/Graphics/SVG/1.1/DTD/svg11.dtd">
<svg version="1.1" id="Layer_1" xmlns="http://www.w3.org/2000/svg" xmlns:xlink="http://www.w3.org/1999/xlink" x="0px" y="0px"
	 width="1152px" height="1152px" viewBox="0 0 1152 1152" enable-background="new 0 0 1152 1152" xml:space="preserve">
<path d="M998.682,670.637c-0.366-0.677-0.931-2.547-0.812-6.283c0.122-3.802,0.852-6.783,1.197-7.468
	c0.307-0.364,2.198-1.153,4.589-1.153c1.022,0,1.676,0.152,1.99,0.267c0.176,0.887-0.021,3.408-1.732,7.226
	C1002.061,667.36,999.777,669.969,998.682,670.637z"/>
<path d="M576,1152c-165.121,0-324.425-72.434-433.313-196.467C32.474,829.99-17.733,659.35,5.757,494.032
	C28.608,333.205,121.355,186.906,256.323,96.714C396.633,2.953,575.614-24.384,737.605,22.951
	c153.771,44.933,284.596,154.935,355.339,298.669c75.337,153.066,78.374,336.169,8.084,491.631
	C1008.686,1017.488,800.113,1152,576,1152z M285.189,131.596c-9.88,6.669-19.64,13.481-29.189,20.62
	c2.233,1.908,4.733,3.948,7.386,5.205c-2.656,0.416-4.767,2.329-6.833,3.882c-1.048-2.313-2.417-4.464-3.972-6.47
	c-81.226,63.04-143.736,148.28-177.796,245.443c-2.946,8.405-7.257,14.428,4.771,14.428c6.558,0,9.147,8.241,11.375,13.441
	c2.447,5.711,4.948,19.478,11.51,22.096c10.872,4.177-6.425,11.348,1.375,17.377c3.834,2.964,7.829-2.067,10.572,2.103
	c1.418,2.144,7.623,7.346,7.235,10.056c-0.582,4.158,2.617,6.744,6.089,8.059c3.721,1.409,4.896,5.562,8.359,7.687
	c3.695,2.267,8.175,0.444,9.681-3.508c1.865-4.896-2.521-9.534-5.764-12.525c-4.245-3.917-5.254-4.981-6.468-10.663
	c-1.405-6.576-6.522-9.665-9.88-14.998c3.813,4.326,8.379,8.211,11.682,12.967c3.778,5.441,7.448,16.495,13.738,19.645
	c15.326,7.672,5.53,25.417,18.027,33.875c5.098,3.442,14.063,1.742,17.937,7.213c2.12,2.994,1.936,8.235,3.509,11.616
	c2.67,5.741,6.536,7.735,12.781,6.798c2.783-0.417,5.805-1.438,8.657-1.438c2.295,0,4.797,6.742,8.947,6.741
	c5.412,0,5.346-7.396,10.434-7.396c5.954,0,13.154,14.346,19.25,16.966c7.129,3.065,14.728,1.773,21.292,5.686
	c6.171,3.693,2.72,11.489,5.868,16.629c3.435,5.605,11.646,7.585,16.221,12.347c6.158,6.409,26.58,22.421,28.705,3.297
	c5.826,0.1,10.78,17.616,10.553,22.765c-0.189,4.289-1.252,13.593-4.652,15.853c-3.574,2.376-7.714,5.717-10.688,8.837
	c-8.05,8.447-6.875,15.969-6.004,26.308c0.924,10.969-9.482,21.111,2.108,29.986c8.482,6.494,14.699,21.54,16.549,32.367
	c1.229,7.332,6.479,13.4,6.479,21.056c0,4.59,3.171,8.242,6.684,10.798c14.768,10.745,33.513,12.57,33.513,35.58
	c0,9.262-1.489,18.823-2.64,27.993c-0.818,6.524-0.641,12.479,0.465,18.959c1.662,9.712-5.679,6.282-6.869,14.091
	c-0.971,6.396,2.488,2.159-1.87,7.997c-2.388,3.2,0.741,8.743,1.378,12.068c2.269,11.825-11.583,21.934-9.425,33.498
	c0.459,2.407-4.153,5.046-4.153,8.537c0,4.046,4.174,5.741,3.638,9.259c-0.958,6.152-4.338,10.817-3.333,17.327
	c0.513,3.326,3.048,8.009,1.836,11.341c-2.804,7.706-14.519,16.861-10.366,25.505c3.241,6.747,0.248,6.289-1.667,13.565
	c-1.36,5.172,0.876,8.355,5.507,10.022c-4.075,4.702-4.733,8.469,1.353,12.121c4.117,2.475,1.028,7.923,3.208,11.873
	c2.372,4.297,14.055,15.425,18.444,15.716c0.522,0.166-1.59-0.105,0,0c5.883,1.869,10.299,5.569,16.86,4.602
	c4.959-0.731,9.584-2.554,14.45-3.607c2.629-0.573,15.879-2.152,12.766-8.206c-2.492-4.847-12.587-2.128-16.826-5.063
	c-11.419-7.908-13.657-16.922-3.385-26.05c5.304-4.713,10.889-8.842,13.206-15.771c3.206-9.587-2.504-9.23-10.117-10.367
	c0.512-3.538,7.18-7.647,9.198-10.466c2.733-3.818,5.456-6.682,8.529-10.201c2.138-2.448,7.629-9.728,2.992-12.58
	c-4.329-2.663-6.323,2.882-7.685-4.22c3.857,1.181,16.969,7.431,16.705-1.631c-0.101-3.47-1.916-6.346-0.534-9.84
	c3.63,1.332,8.237,0.631,11.968,0.257c6.839-0.685,11.601-0.687,15.485-6.663c3.401-5.234,13.192-16.952,5.944-22.535
	c9.271,2.789,14.633-1.628,20.75-8.181c3.575-3.831,7.888-7.866,9.804-12.883c1.407-3.685,0.507-9.861,4.122-12.472
	c3.469-2.427,8.727-12.121,11.21-12.693c12.569-2.896,3.162-15.799,5.303-22.89c1.433-4.745,12.817-9.401,16.958-11.783
	c6.218-3.576,12.739-3.978,19.566-5.402c8.79-1.835,10.474-14.881,14.796-21.562c5.119-7.911,3.545-15.367,5.967-24.007
	c2.122-7.567-2.045-16.748,0.9-23.287c3.769-8.367,13.62-14.467,18.329-22.696c7.349-12.842,13.365-35.483-3.603-43.966
	c-3.507-1.796-7.614-2.056-10.988-4.173c-3.695-2.319-5.79-6.553-9.674-8.953c-6.879-4.25-14.977,1.061-20.455-3.01
	c-7.335-5.373-15.651-12.245-24.86-13.678c-2.159-0.336-5.738-1.146-7.689,0.174c-0.711-3.724-3.983-6.2-7.713-6.285
	c8.068-8.624-4.794-12.594-6.823-17.099c-4.683-10.395-11.595-20.844-21.894-26.54c-3.949-2.185-7.658-2.521-11.79-0.77
	c-7.717,3.271-5.088,0.41-10.355-5.531c-3.877-4.375-6.482-9.11-13.042-8.101c-0.896,0.138-3.971-2.015-4.304-2.341
	c5.432-9.742,3.958-26.961-5.976-11.031c-4.007-6.146-19.716-10.293-22.157-0.319c-2.74-6.028-11.483-6.086-16.164-2.515
	c-1.586-2.871-2.841-9.064-7.145-9.064c-5.63,0-10.766,5.518-12.964,10.188c0.521-4.337,7.591-12.043-0.052-14.285
	c-5.243-1.558-15.231,6.109-19.482,9.393c-4.03,3.112-10.525,17.326-15.623,17.326c-2.371,0-11.059-15.843-16.553-7.263
	c-5.438,8.563-12.365,5.672-16.453-0.502c-4.792-7.241-2.138-20.221,0.288-27.917c2.102-6.605-7.497-18.999-14.62-17.846
	c-3.325,0.594-6.296,4.283-9.594,4.283c-2.139,0-4.215-1.682-6.475-1.836c2.447-5.374-0.396-11.299,1.788-16.568
	c2.457-5.931,6.953-7.912,6.292-15.35c-1.189-13.387-12.971-8.21-22.095-8.21c-7.015,0-10.485,7.556-8.795,13.566
	c1.708,6.022-8.235,3.045-12.413,6.62c-7.281,6.278-20.5-13.694-21.254-19.922c-0.692-5.76-1.495-11.925-0.434-17.691
	c1.112-6.044,5.374-14.706-0.242-20.024c3.667-4.271,9.559-5.711,13.597-9.738c5.125-5.109,5.307-4.991,12.857-4.991
	c5.786,0,8.077,2.634,13.265,4.423c7.957,2.744,6.058-7.103,12.281-7.103c5.941,0,10.655-1.481,16.374-3.026
	c2.406,3.856,6.518,10.334,11.727,5.884c1.691,11.243,7.231,19.7,12.954,28.61c3.726,5.8,10.002,1.495,11.826-3.281
	c2.564-6.717,1.217-12.447-0.716-18.982c-1.068-3.611-7.002-14.155-5.892-17.519c2.065-6.266,11.953-11.489,16.155-16.806
	c5.338-6.755,8.293-9.321,15.872-13.048c9.449-4.646,1.5-11.524-1.014-17.902c9.22,4.625,8.755-9.804,9.25-13.457
	c9.187,1.385,4.313-9.969,8.847-9.969c5.606,0,17.26,5.088,21.318-1.385c4.403-6.889-10.547-11.75-2.529-18.426
	c5.342-4.448,11.327-1.52,16.153-6.967c0.247,4.487,0.781,11.885,6.89,11.885c4.98,0,8.087-3.93,11.948-6.29
	c4.202-1.505,8.697-2.288,12.991-3.488c11.775-3.558,18.512-4.551,11.419-18.517c-5.577-10.981-7.987,2.176-13.077,2.212
	c-1.791-7.18-3.113-13.345-11.035-5.498c-2.544-2.839,1.701-6.085,0.187-10.168c2.791,2.424,7.188,0.296,9.823-1.125
	c3.906-2.106,3.691-7.24,5.221-8.246c5.833-3.827,6.671-2.586,13.306-2.586c4.612,0,5.4-6.939,8.499-6.939
	c-3.542,0-15.488,24.882-9.852,28.23c3.171,1.884,10.671,1.132,14.224,0.718c4.656-0.542,7.815,4.761,11.999,2.236
	c6.584-3.974,4.922,0.712,10.578,0.712c7.505,0,3.24-10.707,1.496-13.75c-2.602-4.546-4.29-11.873-10.824-11.873
	c-2.554,0-11.178,1.304-8.17-4.17c2.362-4.299,8.828-12.501,6.864-17.553c-2.122-5.46-10.82-2.872-12.411-8.401
	c-1.377-4.898-7.244-10.133-11.798-12.043c-8.113-3.402-9.781,4.602-13.12-5.796c-2.129-6.631-13.351-28.511-21.86-28.511
	c-7.015,0-9.086,10.687-14.206,13.896c-2.838,1.779-12.138-1.24-13.847-3.771c2.127-2.802,8.343-4.31,5.837-9.219
	c-2.14-4.155-8.425-5.113-12.468-5.792c-11.12-1.865-17.173-9.346-29.445-8.534c-12.966,0.858-20.237,3.954-18.209,19.015
	c0.87,6.464-4.972,1.612-5.641,7.456c-0.437,3.797,6.744,7.074,8.847,9.553c2.949,3.474,6.755,7.316,1.975,11.364
	c-7.198,6.098-3.427-0.729-11.351-0.729c-10.616,0-1.148,13.355-0.122,17.891c0.48,2.121,3.59,8.899,2.057,10.915
	c-1.349,1.326-7.292,0.991-7.872-0.753c4.456-4.296-0.445-14.875-1.835-19.819c-1.425,2.381-2.805,4.796-4.293,7.139
	c-1.812-4.934-2.321-10.776-6.438-14.485c-5.82-5.242-13.554-0.528-20.423-1.332c-12.628-1.478-24.96-12.566-37.177-8.833
	c-0.794-2.382-6.76-10.057-6.744-10.257c0.915-10.889-3.309-11.711,6.038-18.744c5.384-4.029,10.136-11.781,17.098-12.74
	c10.711-1.504,12.81,8.109,15.341-6.775c0.82,0.623,1.646,1.239,2.477,1.846c-6.834,6.325,0.035,11.44,7.216,9.224
	c7.514-2.32,12.277-9.719,16.656-1.095c3.638,7.165,16.041,3.65,16.389-4.077c0.362-8.024-15.18-11.279-19.904-16.302
	c4.633-1.826,12.953-3.25,15.567-7.856c3.094-5.455-1.913-10.946-6.586-13.071c5.354-3.352,13.145,1.374,17.648-2.802
	c0.866,1.621,19.199,2.119,8.948,8.523c-14.086,6.701,2.492,10.421,9.198,10.559c4.385,0.09,7.081-5.918,8.654-9.537
	c1.132,0.652,2.151,1.384,3.361,1.907c-5.687,2.274-6.378,7.087-10.48,9.794c-2.322,4.612-13.752-2.704-18.818,2.329
	c-3.632,3.608-3.393,11.643-0.864,15.789c3.216,5.268,10.799-0.602,15.254-0.602c4.302,0,14.045-0.673,17.6,1.821
	c3.139,2.202,12.904,9.301,16.482,9.301c2.32,0,3.18-3.107,4.675-1.824c0.877,0.76,3.897,4.882,5.12,5.323
	c4.278,1.543,10.349,0.683,14.973,1.119c-1.119-13.428,13.373,6.83,15.115-3.454c0.654-3.86-0.053-9.869-2.162-13.186
	c-3.208-5.048-12.162-6.141-14.246-11.22c7.157,0.875,16.139,12.341,22.994,6.953c7.112-5.572,11.603-9.716,16.58-17.347
	c-6.087-0.888-12.359-1.758-18.133-3.952c-5.563-2.114-8.804-9.52-15.71-9.52c-7.653,0-6.78,2.86-8.568-6.85
	c-1.676-9.071-5.382-9.057-13.431-10.622c-12.519-2.434-26.098-5.906-36.945-12.986c-5.857-3.834-12.121-8.216-19.428-7.655
	c-6.706,0.515-14.69,2.906-21.345,1.717c9.085,0.097,22.693-8.247,7.938-13.018c-4.006-1.295-17.31,9.708-21.751,12.413
	c3.478,0.17,6.955,0.37,10.434,0.508c-4.252,0.242-13.456,1.466-17.184,3.889L285.189,131.596z M854.296,623.893
	c3.446,3.152,10.729,5.626,5.899,10.754c-6.021,6.422-3.011,15.876-5.771,23.49c-2.449,6.748,0.312,10.848,6.254,13.749
	c6.916,3.374,8.382,10.83,10.615,17.724c1.666,5.146,5.552,11.652,6.155,16.95c0.81,7.104-1.581,14.518,1.748,21.283
	c2.612,5.244,4.749,8.671,0.465,13.018c-5.117,5.191-8.083,12.149-9.104,19.312c-2.006,14.072,1.85,26.09,7.654,38.516
	c6.178,13.227,20.933,24.368,15.338,39.319c-6.215,16.613,10.741,25.025,13.112,40.572c2.808,11.766,0.998,26.133,15.77,29.723
	c6.397,1.555,10.743-4.786,16.069-7.305c5.314-2.513,9.428-2.762,15.023-2.386c20.062,1.349,28.233-12.669,39.187-27.112
	c4.397-5.798,11.539-11.032,13.213-18.448c1.23-5.455-7.623-14.434-1.318-16.498c4.549-1.489,15.991-2.709,16.806-8.994
	c0.812-5.495-1.684-12.16-3.09-17.39c-2.926-10.884,4.525-18.912,12.765-25.961c12.741-10.899,21.618-20.687,19.843-38.474
	c-0.632-6.362,2.764-13.608-0.316-19.329c-3.503-6.505-7.081-9.885-8.626-17.519c-1.298-6.421-2.142-10.465-0.581-17.132
	c1.446-6.174,8.241-11.761,11.736-17.167c6.035-9.337,12.691-19.135,20.755-26.855c7.124-6.82,16.489-8.09,20.333-18.94
	c2.944-8.313,9.717-15.912,12.009-24.109c0.651-12.24,0.839-24.487,0.707-36.743c-7.978,2.045-15.987,4.818-23.247,8.745
	c-4.529,2.444-9.425,4.626-14.708,4.248c-4.633-0.34-2.124-9.771-3.637-13.104c10.65,5.112,26.353-7.121,35.209-11.634
	c8.123-4.139,5.946-5.153,5.298-15.136c-0.773-11.921-1.945-23.817-3.518-35.66c-6.025-45.394-17.981-89.959-35.485-132.273
	c-16.532-39.963-37.978-77.862-63.708-112.622c-5.739-7.753-11.689-15.351-17.84-22.782c-5.792-6.998-5.011-8.369-12.738-7.889
	c-9.223,0.572-18.545,0.323-27.736,1.441c-11.296,1.375-4.892,7.396,0.749,11.729c-6.992,1.114-11.486-6.074-17.548,1.227
	c-4.931,5.939-5.572,12.625-5.764,19.936c-5.416-1.625-13.191-5.18-18.794-1.891c-4.215,2.509-16.275,4.729-21.591,4.729
	c-4.031,0.312-8.869,0.866-11.115-2.956c-4.309-7.334,4.318-20.543-10.304-18.383c3.019-1.859,3.258-5.948,5.878-8.394
	c1.321,6.282,3.734,26.372,11.415,25.089c7.685-1.296,15.283-3.587,22.831-5.51c8.441-4.314,6.973-14.026,13.512-20.741
	c3.107-3.197,6.832-7.986,5.57-12.798c-1.377-5.232-7.171-4.892-10.948-7.246c3.761-7.635,13.617-5.381,19.592-10.124
	c-4.076,8.517,4.882,28.284,15.754,23.81c10.245-4.216,19.671-3.607,30.61-4.54c-6.95-7.737-13.995-15.381-21.312-22.775
	c-9.942-10.048-8.245-8.648-19.887-1.874c12.178-16.181-11.277-27.416-21.864-36.065c-8.491-6.938-8.16-9.296-17.042-3.542
	c-5.609,3.634-8.144,11.595-13.169,16.165c-8.678,7.857-18.97,10.062-29.246,14.645c-7.54,3.362-13.749,10.598-18.192,17.359
	c-5.206,7.922-0.607,10.967-0.095,19.541c-4.797,11.648,12.154,19.494,20.7,18.713c-7.372,3.483-9.121,15.938-4.343,21.984
	c-8.653-1.474-13.87,1.588-19.688,7.497c-2.053,2.086-4.064,4.212-6.051,6.361c-3.781,0.431-7.981,1.076-11.304,3.089
	c-7.345,4.451,0.365,9.429-9.66,11.591c-8.122,1.751-17.19,6.996-25.092,7.652c-3.446,0.299-9.971,2.065-8.607,6.939
	c1.559,5.573,13.952,6.162,18.362,9.262c6.162,4.332,3.356,13.565,0.678,19.341c-4.15,2.363-14.25-0.165-18.901-0.513
	c-13.634-1.021-27.948-3.368-27.364,14.601c0.133,4.083,3.218,11.469,1.013,15.09c-5.652,9.283-3.438,14.567,3.66,22.85
	c3.598,4.197,10.065-0.782,12.688,2.285c7.371,8.711,3.104,8.441-3.924,14.571c-4.337,3.788-8.663,5.483-11.733,10.779
	c-4.602,7.938-2.119,17.247-5.859,24.616c-2.268,4.467-14.016,7.365-18.139,9.937c-7.728,4.822-9.665,11.917-12.26,20.248
	c-2.378,7.638-8.794,16.95-9.031,24.841c-0.232,7.77,4.426,15.033,5.21,22.762c1.38,13.606-14.724,20.935-8.188,32.629
	c3.161,5.656-1.619,12.033,1.974,17.76c4.746,7.566,15.387,8.191,22.37,12.587c2.738,1.723,28.56,61.509,39.648,43.324
	c6.83-11.201,18.332-4.824,30.253-5.829c13.83-1.165,19.342-23.467,35.42-11.794c6.147,4.474,4.657,14.369,11.881,17.728
	C843.788,632.446,849.938,627.828,854.296,623.893C855.04,624.573,853.974,624.184,854.296,623.893z M509.993,223.461
	c2.05,7.485,8.967,10.488,15.58,5.369c7.212-5.583,6.528-11.462,7.442-19.538c14.369,2.874,5.362-14.004,10.187-14.899
	c4.574-0.833,9.22-6.4,13.531-6.4c4.75,0,16.019,3.677,19.135-1.438c2.345-3.747,4.033-10.677,8.047-13.111
	c6.945-0.501,13.662,1.308,20.659-0.083c6.438-1.266,12.486-6.597,18.829-7.233c3.186,0.438,13.801,0.392,10.865-5.795
	c23.035,2.516,0.543-29.844,6.542-30.601c5.688-0.715,14.961,8.143,19.938,2.896c4.125-4.355-0.086-13.835,2.849-19.439
	c2.05-4.002,9.179-12.27-1.163-12.016c-6.974,0.184,1.227-11.545,2.649-13.076c5.146-5.534,10.123-11.377,16.113-16.037
	c5.906-4.595,11.639-6.527,15.884-13.204c-7.894-1.786-15.807-3.477-23.765-4.953c-8.7-1.614-6.564,0.576-13.516,5.816
	c-6.924,5.22-11.322-2.456-13.757-8.057c-3.995-4.446-11.668-3.528-18.094-4.151c-48.482-4.697-97.612-2.82-145.572,5.716
	c-23.913,4.256-47.529,10.167-70.627,17.677c-5.822,1.893-10.899,1.485-12.065,7.119c-1.104,5.334-10.359,1.948-14.025,6.855
	c-4.017,5.376-4.884,9.735-13.427,9.735c-4.066,0-20.498,1.974-11.482,9.737c5.16,4.437,11.375,0.928,15.764,6.64
	c5.04,6.558,14.091,13.417,18.911,1.838c4.982,6.265,16.995,1.092,23.917,2.358c9.426,1.725,20.687,4.563,28.818,9.878
	c7.38,4.824,3.87,19.517,6.599,26.871c1.921,5.176,3.166,0.009,3.667,6.395c0.516,6.578,3.492,7.997,9.173,9.007
	c-5.417,7.676-3.443,12.469,0.024,20.456c1.194,2.75,2.021,5.036,4.745,6.717c5.321,3.283,2.6,2.362,5.258,7.932
	c3.729,7.811,8.719,10.214,15.139,15.39C499.403,223.188,500.606,228.713,509.993,223.461z M1059.271,557.128
	c-4.051-5.946-9.81-9.362-13.244-15.971c-2.825-5.438-4.668-9.552-9.557-13.576c-3.381-2.784-9.717-5.871-10.729-10.531
	c-2.025-9.315,1.805-19.495-2.522-28.454c-4.444-9.174-7.406-18.978-11.726-28.206c3.819,0.586,4.144-3.313,6.27,1.458
	c2.629,5.901,4.075,13.533,7.242,18.989c2.405,4.143,5.284,3.614,6.199,8.592c0.996,5.417,2.722,10.811,4.832,15.891
	c3.135,7.544,10.086,12.138,14.674,18.774C1057.078,533.308,1056.665,546.616,1059.271,557.128
	C1057.08,553.911,1058.468,553.887,1059.271,557.128z M919.972,438.305c-9.634,0-18.93-10-27.099-13.73
	c-6.499-2.966-23.98-6.258-26.84-14.033c5.37-2.68,12.342,0.398,11.08-9.253c-0.91-6.96-4.631-13.616-11.501-16.085
	c-7.795-2.801-17.282,1.357-25.5,1.592c-13.161,0.377-22.049-0.135-34.242,5.002c-4.87,2.052-9.559,4.469-14.409,6.557
	c-7.849,3.379-10.396,3.195-18.742,3.002c3.556-7.398,15.72-2.471,22.373-8.897c3.018-2.915,6.61-5.851,9.443-8.883
	c3.76-4.024-2.648-6.692-0.298-9.771c2.003-2.624,5.653-7.66,8.752-8.537c4.179-1.182,8.985-0.22,10.665-5.483
	c1.148-3.622,0.63-11.565,5.623-9.988c5.997,1.894,10.85,4.394,16.771,1.009c7.749-4.429,11.398-10.751,16.492-0.524
	c4.379,8.792,12.896,12.826,21.407,16.353c11.846,4.908,8.989,12.298,16.577,20.957c2.655,3.03,9.196,5.752,9.996-0.709
	c0.562-4.836-1.859-9.845-2.591-14.569c10.109-0.233,7.743-4.148,14.491,6.294c3.05,7.585,0.178,17.229,3.931,24.603
	c3.888,7.695,15.658-5.78,18.19-8.189c7.714-7.245,12.664-13.249,1.677-21.505c3.497-1.768,6.58-5.707,10.139-6.916
	c2.629,6.205-0.771,13.968,1.82,20.143c1.586,3.719,14.919,11.816,19.014,13.182c6.826,2.278,12.176-0.805,19.265,1.51
	c6.071,1.985,13.314-1.379,19.014-3.545c0.243,6.839-1.155,14.865-3.817,21.192c-0.752,1.788-6.595,12.53-7.486,12.53
	c-8.776,0-14.402-4.75-25.63-0.772c0.893-9.437-25.613-5.173-30.927-7.485c-4.101-1.785-9.945-6.401-14.604-3.596
	C928.128,422.699,925.41,438.305,919.972,438.305z M914.736,364.961c-6.235-4.964-13.294-8.554-19.555-13.347
	c-2.336-1.789-15.954-15.685-15.39-18.348c6.339,0.901,14.792,11.927,19.619,15.864C904.326,353.138,912.7,358.957,914.736,364.961
	C912.137,362.891,914.621,364.621,914.736,364.961z M383.241,309.964c3.817-11.013,14.57-4.153,20.885-11.622
	c4.407-5.214,10.148,6.704,10.395,7.677C407.258,296.57,391.834,306.847,383.241,309.964z M273.781,167.871
	c0.052-4.122-2.141-6.94-5.419-9.134c4.991,0.438,9.79-0.408,14.815,0.525C282.461,165.316,276.463,162.774,273.781,167.871z"/>
<path d="M974.786,361.054c0.656-4.247,0.433-8.276-2.109-9.976c0.334-1.528,2.192-4.799,4.002-6.236
	c2.961-2.303,6.421-7.388,10.556-15.528c1.067-2.103,2.893-4.61,5.514-4.61c0.215,0,0.43,0.017,0.642,0.051
	c1.65,1.326,5.979,8.847,7.939,13.462c0.848,2.007,2.531,3.163,4.615,3.163c0.001,0,0.001,0,0.002,0
	c2.588,0,5.121-1.834,7.157-3.307c0.498-0.361,0.97-0.702,1.246-0.867c2.161-1.308,5.257-4.61,6.545-8.101
	c-0.013,0.113-0.019,0.22-0.021,0.32c-0.069,2.833,2.489,5.11,8.299,7.38c3.149,1.24,6.373,3.949,9.785,6.816
	c2.585,2.172,5.258,4.418,8.188,6.281c3.123,1.979,4.432,4.94,4.604,6.875c0.097,1.089-0.176,1.594-0.248,1.66
	c-2.861,0.83-11.259,1.854-16.97,1.854c-1.488,0-2.363-0.075-2.835-0.138c-1.58-0.211-3.771-1.447-6.086-2.755
	c-3.131-1.767-6.68-3.77-10.722-4.5c-2.15-0.396-4.431-0.607-6.582-0.607c-6.81,0-11.771,2.001-13.972,5.636
	c-0.251,0.416-1.293,1.378-5.553,1.378c-1.511,0-3.104-0.116-4.507-0.218c-1.211-0.088-2.354-0.171-3.312-0.171
	C978.745,358.916,976.629,359.953,974.786,361.054z"/>
</svg>
