<?xml version="1.0" encoding="utf-8"?>
<!-- Generator: Adobe Illustrator 16.0.1, SVG Export Plug-In . SVG Version: 6.00 Build 0)  -->
<!DOCTYPE svg PUBLIC "-//W3C//DTD SVG 1.1//EN" "http://www.w3.org/Graphics/SVG/1.1/DTD/svg11.dtd">
<svg version="1.1" id="Layer_1" xmlns="http://www.w3.org/2000/svg" xmlns:xlink="http://www.w3.org/1999/xlink" x="0px" y="0px"
	 width="1152px" height="1152px" viewBox="0 0 1152 1152" enable-background="new 0 0 1152 1152" xml:space="preserve">
<path d="M272.297,135.469c-86.062,0-172.078,34.453-172.078,172.078s86.016,292.5,223.688,292.5
	c68.812,0,137.625-68.859,137.625-189.281C461.531,255.938,323.906,135.469,272.297,135.469z"/>
<path d="M0,522.141v359.719c127.125-74.062,306.75-74.438,306.75-74.438s-51.703-50.625-51.703-85.031s17.25-88.359,17.25-88.359
	C232.875,634.031,73.312,633.422,0,522.141z"/>
<path d="M1056,0c-48,0-910,0-959,0C36,0,0,36,0,96c0,48,0,136.5,0,136.5C82.125,88.734,272.297,96,272.297,96h395.672l-68.812,48
	H478.781c0,0,117.703,81.75,118.828,219.375C599.156,552.656,409.875,588,409.875,678.328c0,81.703,240.844,130.688,240.844,341.578
	c0,53.531-14.484,95.344-37.969,132.094c0,0,383.25,0,443.25,0s96-36,96-96s0-912,0-960C1152,36,1116,0,1056,0z M1104,336H960v144
	h-96V336H720v-96h144V96h96v144h144V336z"/>
<path d="M375.516,912H306.75c0,0-292.5-27-292.5,162.281c0,18.493,2.712,33.969,7.36,47.988C38.121,1141.444,63.539,1152,96,1152
	h440.812c6.609-17.625,10.734-34.969,10.734-60.516C547.547,1005.422,375.516,912,375.516,912z"/>
</svg>
