<?xml version="1.0" encoding="utf-8"?>
<!-- Generator: Adobe Illustrator 17.0.0, SVG Export Plug-In . SVG Version: 6.00 Build 0)  -->
<!DOCTYPE svg PUBLIC "-//W3C//DTD SVG 1.1//EN" "http://www.w3.org/Graphics/SVG/1.1/DTD/svg11.dtd">
<svg version="1.1" id="Layer_1" xmlns="http://www.w3.org/2000/svg" xmlns:xlink="http://www.w3.org/1999/xlink" x="0px" y="0px"
	 width="1152px" height="1152px" viewBox="0 0 1152 1152" enable-background="new 0 0 1152 1152" xml:space="preserve">
<path d="M480,864c0-144.633,80.446-270.75,198.882-336.223l16.978-46.699l22.298,27.867C763.166,490.395,812.373,480,864,480
	c49.931,0,97.526,9.873,141.325,27.293L1152,288V0L854.039,448.312L648.138,190.922L450.961,733.125L288,576L0,816v192l288-240
	l212.092,217.688C487.248,947.396,480,906.562,480,864z"/>
<path d="M864,576c-159.024,0-288,128.904-288,288s128.976,288,288,288s288-128.904,288-288S1023.024,576,864,576z M1056,912H912v144
	h-96V912H672v-96h144V672h96v144h144V912z"/>
</svg>
