<?xml version="1.0" encoding="utf-8"?>
<!-- Generator: Adobe Illustrator 16.0.4, SVG Export Plug-In . SVG Version: 6.00 Build 0)  -->
<!DOCTYPE svg PUBLIC "-//W3C//DTD SVG 1.1//EN" "http://www.w3.org/Graphics/SVG/1.1/DTD/svg11.dtd">
<svg version="1.1" id="Layer_1" xmlns="http://www.w3.org/2000/svg" xmlns:xlink="http://www.w3.org/1999/xlink" x="0px" y="0px"
	 width="1152px" height="1152px" viewBox="0 0 1152 1152" enable-background="new 0 0 1152 1152" xml:space="preserve">
<path d="M240,0c132.562,0,240,107.438,240,240S372.562,480,240,480S0,372.562,0,240S107.438,0,240,0z"/>
<path d="M216,672c66.281,0,120,53.719,120,120s-53.719,120-120,120S96,858.281,96,792S149.719,672,216,672z"/>
<path d="M922.219,497.391C945.656,465.562,960,426.609,960,384c0-106.031-85.969-192-192-192s-192,85.969-192,192
	c0,57.938,26.203,109.266,66.797,144.469C545.344,587.297,480,693.891,480,816c0,185.578,150.422,336,336,336s336-150.422,336-336
	C1152,667.594,1055.672,541.875,922.219,497.391z"/>
</svg>
