<?xml version="1.0" encoding="utf-8"?>
<!-- Generator: Adobe Illustrator 17.0.0, SVG Export Plug-In . SVG Version: 6.00 Build 0)  -->
<!DOCTYPE svg PUBLIC "-//W3C//DTD SVG 1.1//EN" "http://www.w3.org/Graphics/SVG/1.1/DTD/svg11.dtd">
<svg version="1.1" id="Layer_1" xmlns="http://www.w3.org/2000/svg" xmlns:xlink="http://www.w3.org/1999/xlink" x="0px" y="0px"
	 width="1152px" height="1152px" viewBox="0 0 1152 1152" enable-background="new 0 0 1152 1152" xml:space="preserve">
<rect x="288" y="624" width="192" height="432"/>
<rect y="720" width="192" height="336"/>
<path d="M768,492.639V336H576v274.863C626.045,553.992,692.499,512.18,768,492.639z"/>
<path d="M1056,0H864v480c69.976,0,135.439,19.119,192,51.961V0z"/>
<path d="M864,576c-159.024,0-288,128.904-288,288s128.976,288,288,288s288-128.904,288-288S1023.024,576,864,576z M1056,912H912v144
	h-96V912H672v-96h144V672h96v144h144V912z"/>
</svg>
