<?xml version="1.0" encoding="utf-8"?>
<!-- Generator: Adobe Illustrator 16.0.1, SVG Export Plug-In . SVG Version: 6.00 Build 0)  -->
<!DOCTYPE svg PUBLIC "-//W3C//DTD SVG 1.1//EN" "http://www.w3.org/Graphics/SVG/1.1/DTD/svg11.dtd">
<svg version="1.1" id="Layer_1" xmlns="http://www.w3.org/2000/svg" xmlns:xlink="http://www.w3.org/1999/xlink" x="0px" y="0px"
	 width="1152px" height="1152px" viewBox="0 0 1152 1152" enable-background="new 0 0 1152 1152" xml:space="preserve">
<path d="M576,1152c-77.759,0-153.191-15.228-224.2-45.262c-68.59-29.01-130.19-70.541-183.09-123.439
	C115.809,930.399,74.276,868.8,45.265,800.211C15.229,729.199,0,653.765,0,576c0-77.758,15.229-153.19,45.265-224.2
	c29.011-68.589,70.544-130.189,123.445-183.09c52.9-52.901,114.501-94.434,183.09-123.445C422.81,15.229,498.242,0,576,0
	c77.765,0,153.199,15.229,224.211,45.265C868.8,74.276,930.399,115.809,983.299,168.71c52.898,52.9,94.43,114.5,123.439,183.09
	C1136.772,422.809,1152,498.241,1152,576c0,77.765-15.228,153.2-45.262,224.211c-29.01,68.59-70.541,130.189-123.439,183.088
	s-114.498,94.43-183.088,123.439C729.2,1136.772,653.765,1152,576,1152z M586.134,801c-51.579,0-87.602,35.527-87.602,86.396
	c0,52.398,35.205,87.604,87.602,87.604c26.636,0,48.9-8.356,64.387-24.166c15.188-15.505,23.216-37.44,23.216-63.438
	C673.736,836.527,637.713,801,586.134,801z M529.483,310.142c70.947,0,102.704,41.133,102.704,81.899
	c0,45.284-37.404,82.972-73.577,119.419c-37.029,37.31-75.319,75.89-75.319,123.647c0,21.503,7.935,55.636,30.299,81.065
	l0.108,0.116c6.301,6.442,9.393,6.714,15.786,6.714h100.02c3.609,0,6.621-1.509,8.264-4.139c1.669-2.672,1.713-6.216,0.118-9.481
	l-0.039-0.082l-0.045-0.079c-12.047-21.292-20.07-39.671-20.07-60.163c0-26.525,27.945-55.156,60.303-88.308
	c45.041-46.146,101.096-103.577,101.095-179.182C779.13,266.387,690.225,189,557.901,189c-79.887,0-136.911,19.776-170.681,36.366
	c-6.223,3.184-6.223,9.36-6.223,14.322v91.877c0,2.374,0.675,4.44,1.952,5.977c1.387,1.669,3.389,2.588,5.639,2.588
	c1.502,0,3.065-0.403,4.646-1.199C425.724,324.689,467.321,310.142,529.483,310.142z"/>
</svg>
