<?xml version="1.0" encoding="utf-8"?>
<!-- Generator: Adobe Illustrator 16.0.0, SVG Export Plug-In . SVG Version: 6.00 Build 0)  -->
<!DOCTYPE svg PUBLIC "-//W3C//DTD SVG 1.1//EN" "http://www.w3.org/Graphics/SVG/1.1/DTD/svg11.dtd">
<svg version="1.1" id="Layer_1" xmlns="http://www.w3.org/2000/svg" xmlns:xlink="http://www.w3.org/1999/xlink" x="0px" y="0px"
	 width="1152px" height="1152px" viewBox="0 0 1152 1152" enable-background="new 0 0 1152 1152" xml:space="preserve">
<polygon points="192,720 192,1152 432,1152 432,720 720,720 720,1152 960,1152 960,720 576,336 "/>
<path d="M48,528c0,0-48,48,0,96s96,0,96,0l432-432l432,432c0,0,54,42,96,0s0-96,0-96L576,0L48,528z"/>
<polygon points="816.535,0 816,96 960,240 960,0 "/>
</svg>
