<?xml version="1.0" encoding="utf-8"?>
<!-- Generator: Adobe Illustrator 16.0.1, SVG Export Plug-In . SVG Version: 6.00 Build 0)  -->
<!DOCTYPE svg PUBLIC "-//W3C//DTD SVG 1.1//EN" "http://www.w3.org/Graphics/SVG/1.1/DTD/svg11.dtd">
<svg version="1.1" id="Layer_1" xmlns="http://www.w3.org/2000/svg" xmlns:xlink="http://www.w3.org/1999/xlink" x="0px" y="0px"
	 width="1152px" height="1152px" viewBox="0 0 1152 1152" enable-background="new 0 0 1152 1152" xml:space="preserve">
<path d="M1152,432V144H864v96H288v-96H0v288h96v336H0v288h288v-96h576v96h288V768h-96V432H1152z M960,240h96v96h-96V240z M96,240h96
	v96H96V240z M192,960H96v-96h96V960z M1056,960h-96v-96h96V960z M960,768h-96v96H288v-96h-96V432h96v-96h576v96h96V768z"/>
</svg>
