<?xml version="1.0" encoding="utf-8"?>
<!-- Generator: Adobe Illustrator 16.0.4, SVG Export Plug-In . SVG Version: 6.00 Build 0)  -->
<!DOCTYPE svg PUBLIC "-//W3C//DTD SVG 1.1//EN" "http://www.w3.org/Graphics/SVG/1.1/DTD/svg11.dtd">
<svg version="1.1" id="Layer_1" xmlns="http://www.w3.org/2000/svg" xmlns:xlink="http://www.w3.org/1999/xlink" x="0px" y="0px"
	 width="1152px" height="1152px" viewBox="0 0 1152 1152" enable-background="new 0 0 1152 1152" xml:space="preserve">
<path d="M0,48v1008h1152V48H0z M1008,912H144V192h864V912z"/>
<path d="M384,768c0-59.625,75.844-59.25,112.078-102.656c8.203-9.844,19.922-45.469,13.828-65.297c0,0-33.844-73.547-33.844-93.516
	c0,0,0,0-10.031,0c-20.016,0-29.953-39.797-29.953-59.625s19.828-20.953,19.828-20.953v-18C457.594,341.062,510.469,288,576.141,288
	c65.531,0,118.172,53.062,119.859,119.953v18c0,0,20.109,1.125,20.109,20.953s-9.891,59.625-30,59.625c-9.984,0-9.984,0-9.984,0
	c0,19.969-34.125,93.516-34.125,93.516c-6.047,19.828,5.766,55.453,14.062,65.297C692.25,708.75,768,708.375,768,768v48H384V768z"/>
</svg>
