<?xml version="1.0" encoding="utf-8"?>
<!-- Generator: Adobe Illustrator 16.0.4, SVG Export Plug-In . SVG Version: 6.00 Build 0)  -->
<!DOCTYPE svg PUBLIC "-//W3C//DTD SVG 1.1//EN" "http://www.w3.org/Graphics/SVG/1.1/DTD/svg11.dtd">
<svg version="1.1" id="Layer_1" xmlns="http://www.w3.org/2000/svg" xmlns:xlink="http://www.w3.org/1999/xlink" x="0px" y="0px"
	 width="1152px" height="1152px" viewBox="0 0 1152 1152" enable-background="new 0 0 1152 1152" xml:space="preserve">
<path d="M1152,576c0-85.758-19.266-166.852-52.875-240H1104V48H816v4.875C742.875,19.266,661.781,0,576,0S409.125,19.266,336,52.875
	V48H48v288h4.875C19.266,409.148,0,490.242,0,576c0,85.781,19.266,166.875,52.875,240H48v288h288v-4.875
	C409.125,1132.734,490.219,1152,576,1152s166.875-19.266,240-52.875V1104h288V816h-4.875C1132.734,742.875,1152,661.781,1152,576z
	 M912,144h96v96h-96V144z M144,144h96v96h-96V144z M240,1008h-96v-96h96V1008z M1008,1008h-96v-96h96V1008z M816,816v175.266
	C745.359,1032.188,663.562,1056,576,1056s-169.359-23.812-240-64.734V816H160.734C119.812,745.312,96,663.562,96,576
	c0-87.539,23.812-169.336,64.734-240H336V160.734C406.641,119.812,488.438,96,576,96s169.359,23.812,240,64.734V336h175.266
	C1032.188,406.664,1056,488.461,1056,576c0,87.562-23.812,169.312-64.734,240H816z"/>
</svg>
