<?xml version="1.0" encoding="utf-8"?>
<!-- Generator: Adobe Illustrator 16.0.1, SVG Export Plug-In . SVG Version: 6.00 Build 0)  -->
<!DOCTYPE svg PUBLIC "-//W3C//DTD SVG 1.1//EN" "http://www.w3.org/Graphics/SVG/1.1/DTD/svg11.dtd">
<svg version="1.1" id="Layer_1" xmlns="http://www.w3.org/2000/svg" xmlns:xlink="http://www.w3.org/1999/xlink" x="0px" y="0px"
	 width="1152px" height="1152px" viewBox="0 0 1152 1152" enable-background="new 0 0 1152 1152" xml:space="preserve">
<path d="M552,0C247.125,0,0,247.125,0,552s247.125,552,552,552s552-247.125,552-552S856.875,0,552,0z M624,900
	c0,5.438-5.156,12-12,12H492c-6.82,0-12-4.406-12-12V444c0-6.516,6.328-12,12-12h120c6.844,0,12,4.406,12,12V900z M552,348
	c-54.188,0-90.773-32.531-90.773-84c0-50.133,39.281-84,92.133-84c55.547,0,89.391,33.867,89.391,84
	C642.75,315.469,606.188,348,552,348z"/>
</svg>
