<?xml version="1.0" encoding="utf-8"?>
<!-- Generator: Adobe Illustrator 16.0.4, SVG Export Plug-In . SVG Version: 6.00 Build 0)  -->
<!DOCTYPE svg PUBLIC "-//W3C//DTD SVG 1.1//EN" "http://www.w3.org/Graphics/SVG/1.1/DTD/svg11.dtd">
<svg version="1.1" id="Layer_1" xmlns="http://www.w3.org/2000/svg" xmlns:xlink="http://www.w3.org/1999/xlink" x="0px" y="0px"
	 width="1152px" height="1152px" viewBox="0 0 1152 1152" enable-background="new 0 0 1152 1152" xml:space="preserve">
<path d="M552,0C336,0,192,150.422,192,336c0,11.625,0.609,23.156,1.781,34.5C211.406,576.234,384.984,576,384.047,768
	c0,0-0.047,48,47.953,48s192,0,240,0s48-48,48-48c0.984-192,172.594-191.766,190.219-397.5C911.391,359.156,912,347.625,912,336
	C912,150.422,768,0,552,0z"/>
<g>
	<path d="M720,948c0,6.609-5.391,12-12,12H396c-6.609,0-12-5.391-12-12v-72c0-6.609,5.391-12,12-12h312c6.609,0,12,5.391,12,12V948z
		"/>
</g>
<path d="M708,1008H396c-6.609,0-12,5.391-12,12c0,0,0,24,0,36c0,24,120,60,120,72s12,24,24,24h48c12,0,24-12,24-24s120-48,120-72
	c0-12,0-36,0-36C720,1013.391,714.609,1008,708,1008z"/>
</svg>
