<?xml version="1.0" encoding="utf-8"?>
<!-- Generator: Adobe Illustrator 16.0.0, SVG Export Plug-In . SVG Version: 6.00 Build 0)  -->
<!DOCTYPE svg PUBLIC "-//W3C//DTD SVG 1.1//EN" "http://www.w3.org/Graphics/SVG/1.1/DTD/svg11.dtd">
<svg version="1.1" id="Layer_1" xmlns="http://www.w3.org/2000/svg" xmlns:xlink="http://www.w3.org/1999/xlink" x="0px" y="0px"
	 width="1152px" height="1152px" viewBox="0 0 1152 1152" enable-background="new 0 0 1152 1152" xml:space="preserve">
<path d="M348,996c-24,24-48,36-72,36s-54-18-72-36s-24-24-48-48s-36-48-36-72c-0.001-24,12-48,36-72
	c4.27-4.27,262.632-262.632,262.632-262.632C391.817,531.058,367.454,528,348.005,528c-0.005,0-0.003,0-0.008,0
	c-39.099,0-98.05,12.348-156.851,71.147l-120,120C12.34,777.954-0.002,836.906,0,876c0,39.099,12.344,98.049,71.146,156.853l48,48
	c17.916,17.915,39.513,33.805,62.457,45.952C213.183,1143.523,244.942,1152,276,1152c39.099,0,98.049-12.344,156.856-71.151
	l119.997-119.996C611.656,902.049,624,843.099,624,804c0-23.08-4.691-46.549-13.957-70.043C610.043,733.957,353.561,990.438,348,996
	z"/>
<path d="M996,348c24-24,36-48,36-72s-18-54-36-72s-24-24-48-48s-48-36-72-36c-24-0.001-48,12-72,36
	c-4.27,4.27-262.632,262.632-262.632,262.632C531.058,391.817,528,367.454,528,348.005c0-0.005,0-0.003,0-0.008
	c0-39.099,12.348-98.05,71.147-156.851l120-120C777.954,12.34,836.906-0.002,876,0c39.099,0,98.049,12.344,156.853,71.146l48,48
	c17.915,17.916,33.805,39.513,45.952,62.457C1143.523,213.183,1152,244.942,1152,276c0,39.099-12.344,98.049-71.151,156.856
	L960.853,552.854C902.049,611.656,843.099,624,804,624c-23.08,0-46.549-4.691-70.043-13.957
	C733.957,610.043,990.438,353.561,996,348z"/>
<polygon points="336,96 456,96 408,372 "/>
<polygon points="96,336 96,456 372,408 "/>
<polygon points="96,192 192,96 336,336 "/>
<polygon points="1056,816 1056,696 780,744 "/>
<polygon points="816,1056 696,1056 744,780 "/>
<polygon points="960,1056 1056,960 816,816 "/>
</svg>
