<?xml version="1.0" encoding="utf-8"?>
<!-- Generator: Adobe Illustrator 16.0.4, SVG Export Plug-In . SVG Version: 6.00 Build 0)  -->
<!DOCTYPE svg PUBLIC "-//W3C//DTD SVG 1.1//EN" "http://www.w3.org/Graphics/SVG/1.1/DTD/svg11.dtd">
<svg version="1.1" id="Layer_1" xmlns="http://www.w3.org/2000/svg" xmlns:xlink="http://www.w3.org/1999/xlink" x="0px" y="0px"
	 width="1152px" height="1152px" viewBox="0 0 1152 1152" enable-background="new 0 0 1152 1152" xml:space="preserve">
<path d="M732.188,503.812C765.656,470.344,789,447,792,444c12-12,0-24,0-24l-60-60c0,0-12-12-24,0S360,708,348,720s0,24,0,24l60,60
	c0,0,12,12,24,0c3.328-3.328,32.203-32.203,71.812-71.812C542.625,626.484,626.484,542.625,732.188,503.812z"/>
<path d="M804,156c24-24,48-36,72-36s48,12,72,36s30,30,48,48s36,48,36,72s-12,48-36,72c-2.766,2.719-67.594,67.547-132,132l0,0
	c50.25,0,98.109,9.938,142.125,27.562l74.719-74.719C1139.672,374.062,1152,315.094,1152,276c0-31.031-8.484-62.812-25.219-94.406
	c-12.141-22.969-28.031-44.531-45.938-62.438l-48-48C974.062,12.375,915.094,0,876,0s-98.062,12.328-156.844,71.156l-120,120
	C540.328,249.938,528,308.906,528,348c0,19.453,3.047,43.828,13.359,70.641C541.359,418.641,799.734,160.266,804,156z"/>
<path d="M480,864c-64.453,64.5-129.234,129.281-132,132c-24,24-48,36-72,36s-54-18-72-36s-24-24-48-48s-36-48-36-72s12-48,36-72
	c4.266-4.266,262.641-262.641,262.641-262.641C391.828,531.047,367.453,528,348,528c-39.094,0-98.062,12.375-156.844,71.156
	l-120,120C12.328,777.938,0,836.906,0,876s12.328,98.062,71.156,156.844l48,48c17.906,17.906,39.516,33.844,62.438,45.938
	C213.188,1143.516,244.922,1152,276,1152c39.094,0,98.062-12.375,156.844-71.156l74.719-74.719C489.938,962.109,480,914.25,480,864z
	"/>
<path d="M864,576c-159.094,0-288,128.953-288,288c0,159.094,128.906,288,288,288c159,0,288-128.906,288-288
	C1152,704.953,1023,576,864,576z M792,1044L660,912l60-60l72,72l216-216l60,60L792,1044z"/>
</svg>
