<?xml version="1.0" encoding="utf-8"?>
<!-- Generator: Adobe Illustrator 17.0.0, SVG Export Plug-In . SVG Version: 6.00 Build 0)  -->
<!DOCTYPE svg PUBLIC "-//W3C//DTD SVG 1.1//EN" "http://www.w3.org/Graphics/SVG/1.1/DTD/svg11.dtd">
<svg version="1.1" id="Layer_1" xmlns="http://www.w3.org/2000/svg" xmlns:xlink="http://www.w3.org/1999/xlink" x="0px" y="0px"
	 width="1152px" height="1152px" viewBox="0 0 1152 1152" enable-background="new 0 0 1152 1152" xml:space="preserve">
<path fill-rule="evenodd" clip-rule="evenodd" d="M1074.188,0H77.812C35.016,0,0,34.688,0,77.083v997.831
	C0,1117.31,35.016,1152,77.812,1152h996.375c42.797,0,77.812-34.69,77.812-77.086V77.083C1152,34.688,1116.984,0,1074.188,0z
	 M336,960H144V432h192V960z M240,353.868c-55.98,0-101.379-42.22-101.379-94.274c0-52.061,45.398-94.283,101.379-94.283
	s101.379,42.223,101.379,94.283C341.379,311.648,295.98,353.868,240,353.868z M1008,960H816V672c0-88.986-40.219-120-96-120
	c-49.395,0-96,41.599-96,120v288H432V432h192v62.361c33.375-48.029,88.336-81.486,168-81.486c172.564,0,216,143.76,216,259.125V960z
	"/>
</svg>
