<?xml version="1.0" encoding="utf-8"?>
<!-- Generator: Adobe Illustrator 16.0.4, SVG Export Plug-In . SVG Version: 6.00 Build 0)  -->
<!DOCTYPE svg PUBLIC "-//W3C//DTD SVG 1.1//EN" "http://www.w3.org/Graphics/SVG/1.1/DTD/svg11.dtd">
<svg version="1.1" id="Layer_1" xmlns="http://www.w3.org/2000/svg" xmlns:xlink="http://www.w3.org/1999/xlink" x="0px" y="0px"
	 width="1152px" height="1152px" viewBox="0 0 1152 1152" enable-background="new 0 0 1152 1152" xml:space="preserve">
<path fill-rule="evenodd" clip-rule="evenodd" d="M444,972c0,0,24-24-0.024-58.072c-13.384-18.981-107.152-72.188-131.902-97.922
	c0,0-11.591-17.849-12.074-48.007c-0.262-16.32,7.266-56.344,12-84C331.312,570,431.32,440.823,430.383,391.511
	c-0.562-32.061,30.375,39.468,61.405,54.562c34.781,16.969,72.937-31.875,127.028-56.625c15.28-7.031,34.967-15.094,33.655-21
	c-6.375-28.826-71.155,35.531-128.997,37.687c-26.343,1.031-36.187-4.781-46.406-13.969c-30.75-27.562,3.188-4.5,49.031-12.187
	c20.344-3.469,27.188-6.656,48.843-14.719c21.561-8.061,46.311-20.061,70.778-26.248c16.968-4.266,15.562-16.125,8.999-19.688
	c-3.843-2.062-9.562-1.875-13.968,5.297c-10.5,16.875-59.812,26.578-75.278,30.938c-19.687,5.578-41.625,10.826-70.687,9.701
	c-44.156-1.592-33.843-20.389-65.437-37.17c-9.281-4.922-6.75-17.859,5.531-29.25c6.469-6,24.188-9.375,32.906-22.969
	c1.219-1.922,12.468-12.891,21.375-18.562c3-1.969,3.281-49.875-24.375-50.906c-23.531-0.891-26.625,13.922-25.594,30.75
	c0.938,16.828,7.031,30.75,13.406,30.656c12.281-0.094,0.562,12-5.906,14.531c-14.718,5.672-30.749-37.453-29.062-56.906
	c1.594-20.297,19.405-62.906,47.062-62.203c24.937,0.656,43.031,36.281,42.093,86.297c-0.094,8.484,40.406-4.031,53.999,9.188
	c9.656,9.516-33.281-98.297,62.248-105.094c25.124,4.5,60.965,26.377,63.373,75.609c0.326,6.662,2.156,42.984-13.312,47.438
	c-18.938,5.438-36.093,4.078-25.124-12.656c7.499-16.781-0.375-73.266-32.718-61.828c-39.279,13.828-33.281,65.625-22.781,66.891
	s37.03,18.656,55.499,22.031c60.655,10.922,16.03,43.172,23.905,82.217c9,44.062,121.403,161.062,144.184,250.686
	c20.437,80.812-17.062,129.655-19.312,180.7c-14.529,0.281-25.686,1.359-35.061,11.719c-34.405,37.922-17.625,119.578-52.78,154.969
	c-29.906,29.998-74.53,50.623-122.061,56.107c-47.716,5.578-76.633-4.396-106.847-19.504C456,996,444,972,444,972z M397.665,979.131
	c17.062,24.936,77.155,129.748-28.218,143.342c-35.248,4.594-91.919-18.938-146.949-31.5
	c-49.312-11.156-99.559-17.812-127.684-25.125c-16.875-4.359-24-9.984-25.406-16.594c-3.937-17.391,20.531-41.812,21.75-62.389
	c1.219-20.625-8.156-31.359-15.75-48.141c-7.687-16.875-9.656-29.484-3.562-36.75c4.781-5.578,14.438-7.969,30.188-6.516
	c20.062,1.828,44.156-1.969,57.185-9.328c21.937-12.328,32.155-37.688,22.406-68.203c0,29.859-10.594,41.203-37.122,54.844
	c-25.031,12.891-63.468,2.438-81.187,16.734c-21.281,17.109,7.593,61.359,5.25,93.844c-1.781,24.936-29.906,53.061-17.343,78.092
	c12.562,25.172,71.249,27.938,132.652,39.75c86.999,16.969,137.67,46.312,177.888,47.719c58.685,1.969,67.685-53.812,159.839-54.656
	c26.906-1.219,53.156-2.062,79.404-2.344c29.812-0.375,59.529-0.094,89.998,0.562c61.312,1.406,40.219,31.031,79.968,49.969
	c33.654,16.031,93.84,9.75,108.371-3.094c19.499-17.25,71.905-58.781,112.123-77.578c50.154-23.438,167.715-63.748,82.31-112.873
	c-19.874-11.438-66.937-23.578-70.874-107.344c-17.904,14.672-15.842,92.766,33.938,108.234
	c55.499,17.297,90.187,46.312-12.938,79.029c-68.435,21.703-80.06,28.359-134.152,70.125c-54.75,42.281-135.934,25.5-121.777-63.516
	c7.406-46.357,11.625-84.654-0.75-125.014c-6.094-19.688-9.094-44.906-4.969-62.625c8.062-34.453,28.123-44.859,47.81-11.766
	c12.374,20.766,16.687,45.047,60.937,47.016c69.562,3.094,83.343-62.344,105.562-65.344c14.812-1.969,29.622-40.92,18.374-103.872
	c-12.093-67.453-54.843-173.999-109.686-227.905c-45.562-44.906-74.249-84.281-92.248-140.341
	c-15.279-47.203-23.717-93.141-20.623-137.016c4.031-56.857-29.906-136.029-84.093-173.248
	C654.439,12.015,601.285-0.5,553.194,0.015c-26.906,0.281-52.406,3.891-71.906,13.734C401.04,54.156,384,114.087,384,180
	c0,60,10.477,130.418,17.977,197.635c-8.906,30.843-51.461,93.366-85.591,124.968C276,540,254.062,609.609,228,672
	c-13.875,33.188-36,60-36,96c0,11.962-1.565,38.678,10.81,29.865C249.872,764.07,308.699,849.24,397.665,979.131L397.665,979.131z"
	/>
</svg>
