<?xml version="1.0" encoding="utf-8"?>
<!-- Generator: Adobe Illustrator 17.0.0, SVG Export Plug-In . SVG Version: 6.00 Build 0)  -->
<!DOCTYPE svg PUBLIC "-//W3C//DTD SVG 1.1//EN" "http://www.w3.org/Graphics/SVG/1.1/DTD/svg11.dtd">
<svg version="1.1" id="Layer_1" xmlns="http://www.w3.org/2000/svg" xmlns:xlink="http://www.w3.org/1999/xlink" x="0px" y="0px"
	 width="1152px" height="1152px" viewBox="0 0 1152 1152" enable-background="new 0 0 1152 1152" xml:space="preserve">
<path enable-background="new    " d="M1104,96c-48,0-1008,0-1056,0S0,144,0,144v912h1152V144C1152,144,1152,96,1104,96z M960,216
	c0-13.219,10.78-24,24-24h48c13.219,0,24,10.781,24,24v48c0,13.219-10.781,24-24,24h-48c-13.22,0-24-10.781-24-24V216z M816,216
	c0-13.219,10.78-24,24-24h48c13.219,0,24,10.781,24,24v48c0,13.219-10.781,24-24,24h-48c-13.22,0-24-10.781-24-24V216z M672,216
	c0-13.219,10.78-24,24-24h48c13.219,0,24,10.781,24,24v48c0,13.219-10.781,24-24,24h-48c-13.22,0-24-10.781-24-24V216z M1056,960H96
	V336h960V960z"/>
<polygon enable-background="new    " points="192,432 192,528 240,528 240,480 288,480 288,432 "/>
<rect x="336" y="432" enable-background="new    " width="96" height="48"/>
<rect x="480" y="432" enable-background="new    " width="144" height="48"/>
<rect x="672" y="432" enable-background="new    " width="144" height="48"/>
<polygon enable-background="new    " points="864,432 864,480 912,480 912,528 960,528 960,432 "/>
<rect x="912" y="576" enable-background="new    " width="48" height="144"/>
<polygon enable-background="new    " points="912,816 864,816 864,864 960,864 960,768 912,768 "/>
<rect x="720" y="816" enable-background="new    " width="96" height="48"/>
<rect x="528" y="816" enable-background="new    " width="144" height="48"/>
<rect x="336" y="816" enable-background="new    " width="144" height="48"/>
<polygon enable-background="new    " points="240,768 192,768 192,864 288,864 288,816 240,816 "/>
<rect x="192" y="576" enable-background="new    " width="48" height="144"/>
</svg>
