<?xml version="1.0" encoding="utf-8"?>
<!-- Generator: Adobe Illustrator 16.0.4, SVG Export Plug-In . SVG Version: 6.00 Build 0)  -->
<!DOCTYPE svg PUBLIC "-//W3C//DTD SVG 1.1//EN" "http://www.w3.org/Graphics/SVG/1.1/DTD/svg11.dtd">
<svg version="1.1" id="Layer_1" xmlns="http://www.w3.org/2000/svg" xmlns:xlink="http://www.w3.org/1999/xlink" x="0px" y="0px"
	 width="1152px" height="1152px" viewBox="0 0 1152 1152" enable-background="new 0 0 1152 1152" xml:space="preserve">
<path d="M192,672v480h960V672H192z M672,1056c-106.031,0-192-64.5-192-144s85.969-144,192-144s192,64.5,192,144
	S778.031,1056,672,1056z"/>
<path d="M401.484,402.891c74.953-74.953,181.359-90.188,237.609-33.984c48.938,48.984,43.641,135.938-7.969,207.094H768l240-240
	L672,0L96,576h240.281C327.234,521.156,349.734,454.688,401.484,402.891z"/>
<polygon points="96,576 0,672 96,768 "/>
</svg>
