<?xml version="1.0" encoding="utf-8"?>
<!-- Generator: Adobe Illustrator 16.0.4, SVG Export Plug-In . SVG Version: 6.00 Build 0)  -->
<!DOCTYPE svg PUBLIC "-//W3C//DTD SVG 1.1//EN" "http://www.w3.org/Graphics/SVG/1.1/DTD/svg11.dtd">
<svg version="1.1" id="Layer_1" xmlns="http://www.w3.org/2000/svg" xmlns:xlink="http://www.w3.org/1999/xlink" x="0px" y="0px"
	 width="1152px" height="1152px" viewBox="0 0 1152 1152" enable-background="new 0 0 1152 1152" xml:space="preserve">
<g>
	<path d="M1104,264c0,0,0,24-24,24c-21.891,0-984,0-1008,0s-24-24-24-24V120c0,0,0-24,24-24c21.891,0,984,0,1008,0s24,24,24,24V264z
		"/>
</g>
<g>
	<path d="M1104,648c0,0,0,24-24,24c-21.891,0-984,0-1008,0s-24-24-24-24V504c0,0,0-24,24-24c21.891,0,984,0,1008,0s24,24,24,24V648z
		"/>
</g>
<g>
	<path d="M1104,1032c0,0,0,24-24,24c-21.891,0-984,0-1008,0s-24-24-24-24V888c0,0,0-24,24-24c21.891,0,984,0,1008,0s24,24,24,24
		V1032z"/>
</g>
</svg>
