<?xml version="1.0" encoding="utf-8"?>
<!-- Generator: Adobe Illustrator 16.0.1, SVG Export Plug-In . SVG Version: 6.00 Build 0)  -->
<!DOCTYPE svg PUBLIC "-//W3C//DTD SVG 1.1//EN" "http://www.w3.org/Graphics/SVG/1.1/DTD/svg11.dtd">
<svg version="1.1" id="Layer_1" xmlns="http://www.w3.org/2000/svg" xmlns:xlink="http://www.w3.org/1999/xlink" x="0px" y="0px"
	 width="1152px" height="1152px" viewBox="0 0 1152 1152" enable-background="new 0 0 1152 1152" xml:space="preserve">
<path fill="none" d="M816,792c0-39.765-32.235-72-72-72s-72,32.235-72,72c0,30.705,19.229,56.904,46.293,67.256L684,1008h120
	l-34.293-148.744C796.771,848.904,816,822.705,816,792z"/>
<path d="M192,48v912c0,0,0,48-48,48s-48-48-48-48V144c0,0-96,0-96,108s0,708,0,708s0,144,144,144s636,0,816,0
	c192-1.436,192-192,192-192V48H192z M336,432h192v288H336V432z M1008,912H336v-96h672V912z M1008,720H624v-96h384V720z M1008,528
	H624v-96h384V528z M1008,336H336V192h672V336z"/>
</svg>
