<?xml version="1.0" encoding="utf-8"?>
<!-- Generator: Adobe Illustrator 16.0.1, SVG Export Plug-In . SVG Version: 6.00 Build 0)  -->
<!DOCTYPE svg PUBLIC "-//W3C//DTD SVG 1.1//EN" "http://www.w3.org/Graphics/SVG/1.1/DTD/svg11.dtd">
<svg version="1.1" id="Layer_1" xmlns="http://www.w3.org/2000/svg" xmlns:xlink="http://www.w3.org/1999/xlink" x="0px" y="0px"
	 width="1152px" height="1152px" viewBox="0 0 1152 1152" enable-background="new 0 0 1152 1152" xml:space="preserve">
<path d="M1008,144c-18.984,0-165.633,0-336,0V48c0,0-0.184-48-48.184-48S192.003,0,144.003,0S96,48,96,48v240h960v-96
	C1056,192,1056,144,1008,144z"/>
<path d="M528,888.001c0-48.558,9.532-95.713,28.33-140.157c18.137-42.88,44.083-81.37,77.112-114.4
	c33.03-33.03,71.521-58.976,114.401-77.112c44.444-18.798,91.602-28.33,140.157-28.33c48.559,0,95.713,9.532,140.158,28.33
	c31.699,13.408,60.99,31.094,87.46,52.744l35.617-177.871c4.731-25.969-13.011-47.203-39.398-47.203H39.824
	c-26.391,0-43.781,22.031-39.047,48l86.461,432.751c4.734,26.016,30.188,47.25,56.579,47.25h384.185
	C528.001,912.002,528,896.043,528,888.001z"/>
<path d="M887.998,624c-145.803,0-264,118.197-264,264s118.197,264,264,264s264-118.197,264-264S1033.801,624,887.998,624z
	 M887.998,1080c-106.037,0-192-85.962-192-192s85.963-192,192-192c106.039,0,192,85.962,192,192S994.037,1080,887.998,1080z"/>
<path d="M900,744h-24c-6.6,0-12,5.4-12,12v122.06l-69.338,69.339c-4.667,4.667-4.667,12.304,0,16.971l16.971,16.971
	c4.667,4.667,12.305,4.667,16.971,0L912,897.942V756C912,749.4,906.6,744,900,744z"/>
</svg>
