<?xml version="1.0" encoding="utf-8"?>
<!-- Generator: Adobe Illustrator 17.0.0, SVG Export Plug-In . SVG Version: 6.00 Build 0)  -->
<!DOCTYPE svg PUBLIC "-//W3C//DTD SVG 1.1//EN" "http://www.w3.org/Graphics/SVG/1.1/DTD/svg11.dtd">
<svg version="1.1" id="Layer_1" xmlns="http://www.w3.org/2000/svg" xmlns:xlink="http://www.w3.org/1999/xlink" x="0px" y="0px"
	 width="1152px" height="1152px" viewBox="0 0 1152 1152" enable-background="new 0 0 1152 1152" xml:space="preserve">
<path d="M624,572.493C624,786.183,494.961,912,312.516,912C118.958,912,0,779.216,0,574.491C0,373.759,129.039,240,313.5,240
	C505.089,240,623.015,387.785,624,572.493z M316.548,811.17c113.894,0,182.445-89.916,182.445-235.657
	c0-140.819-72.584-235.657-187.463-235.657c-106.907,0-185.493,83.878-185.493,235.657
	C126.038,714.287,195.574,811.17,316.548,811.17z"/>
<path d="M726.911,860.977c-5.904-4-6.911-8-6.911-14.977v-94.977c0-5.023,3.936-8,7.872-5.023
	c54.143,38.977,127.966,65.023,197.807,65.023c76.752,0,105.265-35.023,105.265-74.047c0-41.953-19.68-64-125.952-109.953
	c-134.785-58.047-180.05-109.023-180.05-204C724.943,326,802.656,240,951.263,240c69.887,0,112.37,15.768,146.832,35.768
	c3.936,3.023,5.904,6,5.904,12v91.023c0,4-3.936,6.977-8.879,4c-42.289-26.047-87.792-45.815-145.826-45.815
	c-89.521,0-106.272,48-106.272,75.023c0,36,18.673,63.023,117.073,104.977C1117.537,583.023,1152,640,1152,724.977
	C1152,840,1063.44,912,920.737,912C849.888,912,775.104,895.023,726.911,860.977z"/>
</svg>
