<?xml version="1.0" encoding="utf-8"?>
<!-- Generator: Adobe Illustrator 16.0.0, SVG Export Plug-In . SVG Version: 6.00 Build 0)  -->
<!DOCTYPE svg PUBLIC "-//W3C//DTD SVG 1.1//EN" "http://www.w3.org/Graphics/SVG/1.1/DTD/svg11.dtd">
<svg version="1.1" id="Layer_1" xmlns="http://www.w3.org/2000/svg" xmlns:xlink="http://www.w3.org/1999/xlink" x="0px" y="0px"
	 width="1152px" height="1152px" viewBox="0 0 1152 1152" enable-background="new 0 0 1152 1152" xml:space="preserve">
<path opacity="0.99" enable-background="new    " d="M480,864H96V288h864v204.1c18.18,4.689,36.037,10.729,53.5,18.116
	c14.662,6.202,28.837,13.271,42.5,21.159V96c0,0,0-48-48-48S96,48,48,48S0,96,0,96v864h492.101C484.061,928.832,480,896.716,480,864
	z M863.999,168c0-13.2,10.8-24,24-24h48c13.2,0,24,10.8,24,24v48c0,13.2-10.8,24-24,24h-48c-13.2,0-24-10.8-24-24V168z M720,168
	c0-13.2,10.8-24,24-24h48c13.2,0,24,10.8,24,24v48c0,13.2-10.8,24-24,24h-48c-13.2,0-24-10.8-24-24V168z M576.001,168
	c0-13.2,10.8-24,24-24h48c13.2,0,24,10.8,24,24v48c0,13.2-10.8,24-24,24h-48c-13.2,0-24-10.8-24-24V168z"/>
<path d="M864,576c-159.058,0-288,128.941-288,288c0,159.058,128.942,288,288,288c159.059,0,288-128.942,288-288
	C1152,704.941,1023.059,576,864,576z M864,672c34.529,0,66.927,9.121,94.924,25.076L697.077,958.923
	C681.121,930.926,672,898.529,672,864C672,757.961,757.962,672,864,672z M864,1056c-34.529,0-66.926-9.121-94.923-25.077
	l261.847-261.847C1046.879,797.073,1056,829.471,1056,864C1056,970.038,970.039,1056,864,1056z"/>
</svg>
