<?xml version="1.0" encoding="utf-8"?>
<!-- Generator: Adobe Illustrator 16.0.4, SVG Export Plug-In . SVG Version: 6.00 Build 0)  -->
<!DOCTYPE svg PUBLIC "-//W3C//DTD SVG 1.1//EN" "http://www.w3.org/Graphics/SVG/1.1/DTD/svg11.dtd">
<svg version="1.1" id="Layer_1" xmlns="http://www.w3.org/2000/svg" xmlns:xlink="http://www.w3.org/1999/xlink" x="0px" y="0px"
	 width="1152px" height="1152px" viewBox="0 0 1152 1152" enable-background="new 0 0 1152 1152" xml:space="preserve">
<path enable-background="new    " d="M498.797,816H96V240h912v285.188l96,101.016V48c0,0,0-48-48-48S96,0,48,0S0,48,0,48v864h461.25
	C471.516,875.625,484.148,843.75,498.797,816z M912,120c0-13.219,10.781-24,24-24h48c13.219,0,24,10.781,24,24v48
	c0,13.219-10.781,24-24,24h-48c-13.219,0-24-10.781-24-24V120z M768,120c0-13.219,10.781-24,24-24h48c13.219,0,24,10.781,24,24v48
	c0,13.219-10.781,24-24,24h-48c-13.219,0-24-10.781-24-24V120z M624,120c0-13.219,10.781-24,24-24h48c13.219,0,24,10.781,24,24v48
	c0,13.219-10.781,24-24,24h-48c-13.219,0-24-10.781-24-24V120z"/>
<path d="M912,720.375v-132c0-13.172,7.688-16.312,16.969-7.031L1152,816l-223.031,234.609c-9.281,9.375-16.969,6.188-16.969-7.031
	V912c-264,0-351.094,130.312-384,240C528,720,736.5,720.375,912,720.375z"/>
</svg>
