<?xml version="1.0" encoding="utf-8"?>
<!-- Generator: Adobe Illustrator 16.0.0, SVG Export Plug-In . SVG Version: 6.00 Build 0)  -->
<!DOCTYPE svg PUBLIC "-//W3C//DTD SVG 1.1//EN" "http://www.w3.org/Graphics/SVG/1.1/DTD/svg11.dtd">
<svg version="1.1" id="Layer_1" xmlns="http://www.w3.org/2000/svg" xmlns:xlink="http://www.w3.org/1999/xlink" x="0px" y="0px"
	 width="1152px" height="1152px" viewBox="0 0 1152 1152" enable-background="new 0 0 1152 1152" xml:space="preserve">
<path d="M1104,288c-48,0-816,0-864,0s-48,48-48,48v768h960V336C1152,336,1152,288,1104,288z M959.999,360c0-13.2,10.8-24,24-24h48
	c13.2,0,24,10.8,24,24v48c0,13.2-10.8,24-24,24h-48c-13.2,0-24-10.8-24-24V360z M816,360c0-13.2,10.8-24,24-24h48
	c13.2,0,24,10.8,24,24v48c0,13.2-10.8,24-24,24h-48c-13.2,0-24-10.8-24-24V360z M672.001,360c0-13.2,10.8-24,24-24h48
	c13.2,0,24,10.8,24,24v48c0,13.2-10.8,24-24,24h-48c-13.2,0-24-10.8-24-24V360z M1056,1008H288V480h768V1008z"/>
<path d="M912,0C864,0,96,0,48,0S0,48,0,48v768h96V192h864V48C960,48,960,0,912,0z M576,120c0,13.2-10.8,24-24,24h-48
	c-13.2,0-24-10.8-24-24V72c0-13.2,10.8-24,24-24h48c13.2,0,24,10.8,24,24V120z M719.999,120c0,13.2-10.8,24-24,24h-48
	c-13.2,0-24-10.8-24-24V72c0-13.2,10.8-24,24-24h48c13.2,0,24,10.8,24,24V120z M863.998,120c0,13.2-10.8,24-24,24h-48
	c-13.2,0-24-10.8-24-24V72c0-13.2,10.8-24,24-24h48c13.2,0,24,10.8,24,24V120z"/>
</svg>
