<?xml version="1.0" encoding="utf-8"?>
<!-- Generator: Adobe Illustrator 16.0.1, SVG Export Plug-In . SVG Version: 6.00 Build 0)  -->
<!DOCTYPE svg PUBLIC "-//W3C//DTD SVG 1.1//EN" "http://www.w3.org/Graphics/SVG/1.1/DTD/svg11.dtd">
<svg version="1.1" id="Layer_1" xmlns="http://www.w3.org/2000/svg" xmlns:xlink="http://www.w3.org/1999/xlink" x="0px" y="0px"
	 width="1152px" height="1152px" viewBox="0 0 1152 1152" enable-background="new 0 0 1152 1152" xml:space="preserve">
<path d="M924,432l144,144L960,684v132c0,0,0,96,96,96s96-96,96-96v-96C1152,456,924,432,924,432z"/>
<path d="M672,312v264c0,0,0,144-144,144S384,576,384,576V312l-96,96V192c0,0,0-96,96-96s96,96,96,96l0,384c0,0,0,48,48,48
	s48-48,48-48V192c0,0,0-192-192-192S192,192,192,192v312c0,0-120,120-168,168s0,96,0,96l312,312c0,0,48,48,96,0s504-504,504-504
	L672,312z"/>
</svg>
