<?xml version="1.0" encoding="utf-8"?>
<!-- Generator: Adobe Illustrator 16.0.4, SVG Export Plug-In . SVG Version: 6.00 Build 0)  -->
<!DOCTYPE svg PUBLIC "-//W3C//DTD SVG 1.1//EN" "http://www.w3.org/Graphics/SVG/1.1/DTD/svg11.dtd">
<svg version="1.1" id="Layer_1" xmlns="http://www.w3.org/2000/svg" xmlns:xlink="http://www.w3.org/1999/xlink" x="0px" y="0px"
	 width="1152px" height="1152px" viewBox="0 0 1152 1152" enable-background="new 0 0 1152 1152" xml:space="preserve">
<path d="M711.797,192c5.297-15.023,8.203-31.172,8.203-48C720,64.477,655.5,0,576,0S432,64.477,432,144
	c0,16.828,2.906,32.977,8.203,48H336v144h480V192H711.797z M504,144c0-39.703,32.297-72,72-72s72,32.297,72,72s-32.297,72-72,72
	S504,183.703,504,144z"/>
<path d="M960,192c-48,0-48,0-48,0v192c0,0,0,48-48,48s-528,0-576,0s-48-48-48-48V192c0,0,0,0-48,0s-48,48-48,48s0,816,0,864
	s48,48,48,48h768c0,0,48,0,48-48s0-864,0-864S1008,192,960,192z M444,864l-60,60L228,768l156-156l60,60l-96,96L444,864z
	 M574.547,971.625l-93.094-23.25l96-384.023l93.094,23.273L574.547,971.625z M768,924l-60-60l96-96l-96-96l60-60l156,156L768,924z"
	/>
</svg>
