<?xml version="1.0" encoding="utf-8"?>
<!-- Generator: Adobe Illustrator 16.0.4, SVG Export Plug-In . SVG Version: 6.00 Build 0)  -->
<!DOCTYPE svg PUBLIC "-//W3C//DTD SVG 1.1//EN" "http://www.w3.org/Graphics/SVG/1.1/DTD/svg11.dtd">
<svg version="1.1" id="Layer_1" xmlns="http://www.w3.org/2000/svg" xmlns:xlink="http://www.w3.org/1999/xlink" x="0px" y="0px"
	 width="1152px" height="1152px" viewBox="0 0 1152 1152" enable-background="new 0 0 1152 1152" xml:space="preserve">
<path d="M619.375,0.043C647.517,3.699,686.211,8.41,724.76,13.93c93.641,13.465,187.136,27.527,280.635,40.887
	c50.58,7.277,90.4,48.41,93.918,100.016c6.613,100.02,12.241,200.105,18.573,300.09c6.473,100.438,13.367,200.98,20.121,301.316
	c4.502,68.973,9.849,137.949,13.789,206.992c2.813,49.852-23.639,97.805-62.755,111.727c-19.559,7.031-40.805,9.562-61.489,13.074
	c-119.455,20.672-238.981,40.922-358.508,61.664c-71.338,12.445-121.253-26.227-124.208-98.504
	c-2.775-68.625-4.077-137.387-6.328-205.941c-3.939-122.059-8.126-244.082-12.102-366.145c-2.074-70.484-3.975-140.867-6.12-211.387
	c-1.583-52.031-3.236-104.098-5.101-156.16c-0.879-22.535,0.492-44.719,10.658-65.355C542.764,11.715,572.027-0.836,619.375,0.043z
	 M1069.904,537.852c-3.518-64.477-8.16-146.633-12.522-228.793c-2.392-44.996-38.976-79.414-79.776-80.645
	c-42.916-1.301-85.55-6.117-128.391-9.211c-59.8-4.395-119.53-9.844-179.467-12.375c-48.966-2.109-76.826,27.422-75.278,76.605
	c2.674,83.527,6.191,167.023,9.146,250.551c3.377,95.27,6.332,190.543,9.708,286.023c0.774,20.672,4.573,40.992,16.744,58.43
	c21.106,30.234,51.78,34.312,85.405,30.445c30.885-3.586,61.77-6.539,92.726-9.844c67.042-7.031,134.159-13.359,201.065-21.234
	c50.932-5.906,79.776-41.344,76.54-90.562C1080.88,710.043,1075.955,632.699,1069.904,537.852z"/>
<path d="M794.621,329.73c-1.03-22.278-1.774-44.534-2.703-66.785c-40.907-3.196-83.02-6.421-124.195-8.16
	c-0.987-0.042-1.926-0.063-2.831-0.063c-4.788,0-13.405,0.602-17.312,4.634c-3.545,3.657-5.464,12.094-5.134,22.567
	c0.107,3.366,0.221,6.745,0.331,10.119c14.592,1.248,29.223,2.545,43.855,4.118c33.203,3.621,58.529,30.406,60.359,64.086
	c1.829,33.609,3.165,67.324,4.643,100.965c4.433,96.539,8.865,193.145,13.016,289.754c1.056,23.691-8.302,43.73-29.407,54.84
	c-13.438,7.102-29.197,11.391-44.39,14.203c-9.68,1.691-19.456,2.795-29.253,3.705c0.946,12.266,3.471,21.01,7.828,27.252
	c4.254,6.093,9.181,11.139,26.441,11.14c4.194,0,8.812-0.297,14.119-0.907c20.266-2.354,40.773-4.462,60.606-6.502
	c10.829-1.113,21.664-2.228,32.509-3.385c4.939-0.519,9.892-1.033,14.845-1.546c-0.043-3.797-0.138-7.569-0.323-11.335
	C810.099,668.91,802.289,499.285,794.621,329.73z"/>
<path d="M492.885,927.399c-0.723-26.442-1.472-53.785-2.352-80.574c-0.078-2.442-0.158-4.895-0.237-7.34
	c-18.905,1.657-37.317,3.293-55.665,5.272c-51.881,5.766-83.364-21.234-84.807-73.402c-0.844-31.5-1.652-62.93-2.216-94.5
	c-2.075-111.547-4.116-223.164-6.12-334.75c-0.95-48.512,22.055-71.117,70.665-68.621c19.977,1.038,39.978,2.575,60.411,4.164
	c-0.086-2.824-0.17-5.651-0.256-8.469c-1.801-59.182-3.296-105.197-4.801-147.717c-36.037-3.932-71.219-8.018-106.497-10.184
	c-39.187-2.355-68.067,17.508-76.438,50.762c-3.658,14.555-3.658,30.234-3.447,45.422c2.286,142.203,5.029,284.477,7.773,426.785
	c1.936,104.555,3.658,209.176,6.121,313.727c1.301,57.094,32.714,88.875,89.489,85.922c37.104-1.903,73.938-7.127,111.196-11.999
	C494.604,990.16,493.732,958.383,492.885,927.399z"/>
<path d="M478.432,480.668l-0.004-0.15c-0.863-29.34-1.697-58.662-2.531-87.984c-0.622-21.914-1.258-44.233-1.907-66.63l-5.146-0.4
	c-18.338-1.426-39.121-3.042-59.18-4.083c-1.561-0.08-3.105-0.122-4.566-0.122c-8.377,0-12.186,1.336-13.311,1.833
	c-0.625,1.302-2.539,6.281-2.309,18.035c0.162,8.997,0.324,18.007,0.486,27.014c5.425,0.309,10.786,0.647,16.139,1.066
	c29.161,2.32,48.121,20.883,48.473,50.203c1.021,92.879,1.302,185.762,1.653,278.641c0.07,19.547-9.778,33.75-27.648,40.641
	c-9.933,3.847-20.741,5.449-31.412,7.125c0.212,8.192,0.426,16.278,0.639,24.214c0.295,10.678,2.571,18.999,6.245,22.788
	c3.936,4.061,12.484,4.667,17.23,4.667c2.52-0.001,5.227-0.159,8.047-0.473l0.152-0.017c18.405-1.986,36.533-3.605,56.622-5.366
	l2.625-0.23c-1.558-47.509-3.146-95.099-4.696-141.553C482.184,594.43,480.27,537.086,478.432,480.668z"/>
<path d="M243.133,757.606c-11.857,0.778-23.704,1.536-35.559,2.147c-37.674,1.969-57.584-14.555-58.709-52.312
	c-3.025-103.32-4.926-206.574-6.719-309.895c-0.422-22.676,15.266-38.742,38.553-39.973c14.317-0.703,28.811,0.668,43.303,1.23
	c3.904,0.165,7.809,0.344,11.711,0.528c-0.661-36.85-1.303-73.703-1.915-110.444c-25.298-2.438-50.604-4.938-75.928-6.271
	c-38.905-2.109-61.524,19.934-60.961,58.531c1.442,93.656,3.306,187.344,5.171,281c1.759,84.863,3.553,169.801,5.769,254.664
	c0.81,30.797,17.659,52.805,48.192,53.93c29.942,1.045,59.998-1.484,89.609-3.775C244.738,843.734,243.918,800.417,243.133,757.606z
	"/>
<path d="M221.328,597.195c-1.23-51.609-2.181-103.254-3.623-154.859c-0.57-20.009-7.729-31.749-23.296-36.877
	c-1.394-0.038-2.771-0.067-4.12-0.076c0.356,20.41,0.719,40.727,1.09,61.007c5.312,5.541,6.618,14.617,7.05,30.646
	c1.056,45.527,0.773,91.09,0.915,136.578c0.03,7.209-1.231,12.861-4.005,17.23c0.473,18.366,0.966,36.75,1.505,55.192
	c0.073,2.448,0.273,4.305,0.493,5.663c1.116,0.121,2.564,0.212,4.392,0.212c1.058,0,2.182-0.031,3.341-0.092
	c4.394-0.227,8.773-0.474,13.109-0.73c3.588-5.658,5.337-13.017,5.226-22.14C223.053,658.434,222.031,627.848,221.328,597.195z"/>
<path d="M55.768,662.92c-20.02-0.479-29.314-9.63-29.384-29.869c-0.211-49.039-0.07-98.047-0.07-147.09
	c0-20.582,6.476-28.761,25.278-30.367c-0.371-19.569-0.734-39.186-1.087-58.816c-8.14-0.043-16.12,0.052-24.051,0.559
	c-16.85,1.09-26.593,12.164-26.452,28.371c0.598,90.98,1.301,182,2.321,273.086c0.141,20.391,9.497,30.938,30.04,32.484
	c8.297,0.597,16.628,0.707,24.926,0.656C56.768,709.007,56.262,686.009,55.768,662.92z"/>
</svg>
