<?xml version="1.0" encoding="utf-8"?>
<!-- Generator: Adobe Illustrator 17.0.0, SVG Export Plug-In . SVG Version: 6.00 Build 0)  -->
<!DOCTYPE svg PUBLIC "-//W3C//DTD SVG 1.1//EN" "http://www.w3.org/Graphics/SVG/1.1/DTD/svg11.dtd">
<svg version="1.1" id="Layer_1" xmlns="http://www.w3.org/2000/svg" xmlns:xlink="http://www.w3.org/1999/xlink" x="0px" y="0px"
	 width="1152px" height="1152px" viewBox="0 0 1152 1152" enable-background="new 0 0 1152 1152" xml:space="preserve">
<path d="M1056,480v144c0,79.201-64.799,144-144,144h-48v96c0,159.059-128.941,288-288,288s-288-128.941-288-288V336
	c0-53.019-42.979-96-96-96c-53.019,0-96,42.981-96,96v165.369C38.854,468.111,0,406.887,0,336c0-106.037,85.963-192,192-192
	c106.04,0,192,85.963,192,192v528c0,106.04,85.963,192,192,192c106.04,0,192-85.96,192-192v-96h-48c-79.198,0-144-64.799-144-144
	V480h-48V288h96V0h96v288h192V0h96v288h96v192H1056z"/>
</svg>
