<?xml version="1.0" encoding="utf-8"?>
<!-- Generator: Adobe Illustrator 16.0.1, SVG Export Plug-In . SVG Version: 6.00 Build 0)  -->
<!DOCTYPE svg PUBLIC "-//W3C//DTD SVG 1.1//EN" "http://www.w3.org/Graphics/SVG/1.1/DTD/svg11.dtd">
<svg version="1.1" id="Layer_1" xmlns="http://www.w3.org/2000/svg" xmlns:xlink="http://www.w3.org/1999/xlink" x="0px" y="0px"
	 width="1152px" height="1152px" viewBox="0 0 1152 1152" enable-background="new 0 0 1152 1152" xml:space="preserve">
<path enable-background="new    " d="M441.45,950.55c-12.129-12.129-23.294-25.001-33.477-38.55H96V288h960v536.235l96,96.001V96
	c0,0,0-48-48-48S96,48,48,48S0,96,0,96v912h516.297C489.038,992.295,463.973,973.073,441.45,950.55z M960,168
	c0-13.219,10.781-24,24-24h48c13.219,0,24,10.781,24,24v48c0,13.219-10.781,24-24,24h-48c-13.219,0-24-10.781-24-24V168z M816,168
	c0-13.219,10.781-24,24-24h48c13.219,0,24,10.781,24,24v48c0,13.219-10.781,24-24,24h-48c-13.219,0-24-10.781-24-24V168z M672,168
	c0-13.219,10.781-24,24-24h48c13.219,0,24,10.781,24,24v48c0,13.219-10.781,24-24,24h-48c-13.219,0-24-10.781-24-24V168z"/>
<path d="M432,696c0,145.781,118.219,264,264,264c48.234,0,93.328-13.172,132.234-35.766L1044,1140c0,0,12,12,36,12s36-12,36-12
	l24-24c0,0,12-12,12-36s-12-36-12-36L924.234,828.234C946.828,789.328,960,744.234,960,696c0-145.781-118.219-264-264-264
	S432,550.219,432,696z M528,696c0-92.786,75.214-168,168-168s168,75.214,168,168s-75.214,168-168,168S528,788.786,528,696z"/>
</svg>
