<?xml version="1.0" encoding="utf-8"?>
<!-- Generator: Adobe Illustrator 16.0.4, SVG Export Plug-In . SVG Version: 6.00 Build 0)  -->
<!DOCTYPE svg PUBLIC "-//W3C//DTD SVG 1.1//EN" "http://www.w3.org/Graphics/SVG/1.1/DTD/svg11.dtd">
<svg version="1.1" id="Layer_1" xmlns="http://www.w3.org/2000/svg" xmlns:xlink="http://www.w3.org/1999/xlink" x="0px" y="0px"
	 width="1152px" height="1152px" viewBox="0 0 1152 1152" enable-background="new 0 0 1152 1152" xml:space="preserve">
<path d="M384,816l113.016-113.016C545.391,546.234,691.594,432,864,432c2.062,0,4.125,0.281,6.188,0.281L1152,48L0,288l240,192
	l576-240L384,576V816z"/>
<path d="M864,528c-159.094,0-288,129-288,288c0,159.094,128.906,288,288,288c159,0,288-128.906,288-288C1152,657,1023,528,864,528z
	 M1056,864H672v-96h384V864z"/>
</svg>
