<?xml version="1.0" encoding="utf-8"?>
<!-- Generator: Adobe Illustrator 16.0.1, SVG Export Plug-In . SVG Version: 6.00 Build 0)  -->
<!DOCTYPE svg PUBLIC "-//W3C//DTD SVG 1.1//EN" "http://www.w3.org/Graphics/SVG/1.1/DTD/svg11.dtd">
<svg version="1.1" id="Layer_1" xmlns="http://www.w3.org/2000/svg" xmlns:xlink="http://www.w3.org/1999/xlink" x="0px" y="0px"
	 width="1152px" height="1152px" viewBox="0 0 1152 1152" enable-background="new 0 0 1152 1152" xml:space="preserve">
<path d="M1008,96H144C64.8,96,0,160.8,0,240v576c0,79.2,64.8,144,144,144h240l192,192l192-192h240c79.2,0,144-64.8,144-144V240
	C1152,160.8,1087.2,96,1008,96z M670.494,509.67c-31.21,28.597-58.163,53.294-58.163,76.175c0,17.676,11.448,26.406,11.448,26.406
	c1.537,2.817,1.494,5.874-0.114,8.179c-1.585,2.269-4.49,3.57-7.971,3.57h-96.469c-6.167,0-9.149-0.234-15.226-5.792
	c0,0-19.81-18.117-21.337-44.398C480,528,519.594,499.335,555.309,467.152C590.197,435.713,628,403.204,628,364.142
	c0-35.165-32.357-70.646-100.784-70.646c-59.956,0-100.077,12.548-131.413,24.833c-1.525,0.687-3.034,1.034-4.482,1.034
	c-2.17,0-4.101-0.792-5.438-2.232c-1.231-1.326-1.883-3.108-1.883-5.156v-79.253c0-4.28,0-9.607,6.001-12.354
	C422.574,206.059,477.573,189,554.625,189C682.25,189,768,255.753,768,355.108C768.001,420.325,713.937,469.865,670.494,509.67z
	 M663,792c0,48.048-38.952,87-87,87c-48.049,0-87-38.952-87-87s38.951-87,87-87C624.048,705,663,743.952,663,792z"/>
</svg>
