<?xml version="1.0" encoding="utf-8"?>
<!-- Generator: Adobe Illustrator 16.0.4, SVG Export Plug-In . SVG Version: 6.00 Build 0)  -->
<!DOCTYPE svg PUBLIC "-//W3C//DTD SVG 1.1//EN" "http://www.w3.org/Graphics/SVG/1.1/DTD/svg11.dtd">
<svg version="1.1" id="Layer_1" xmlns="http://www.w3.org/2000/svg" xmlns:xlink="http://www.w3.org/1999/xlink" x="0px" y="0px"
	 width="1152px" height="1152px" viewBox="0 0 1152 1152" enable-background="new 0 0 1152 1152" xml:space="preserve">
<path d="M528,0L0,816h528V0z M176.484,720L432,325.078V720H176.484z"/>
<g>
	<path d="M976.969,820.828c-9.328-8.391-16.969-5.578-16.969,6.328V912H0v144h960v84.844c0,11.859,7.641,14.719,16.969,6.328
		L1152,984L976.969,820.828z"/>
</g>
<path d="M1152,816h-39.422l-71.391-66.562c-33.094-29.719-77.391-37.641-115.594-20.625c-34.734,15.469-57.422,48.281-61.078,87.188
	H624V0L1152,816z"/>
</svg>
