<?xml version="1.0" encoding="utf-8"?>
<!-- Generator: Adobe Illustrator 16.0.4, SVG Export Plug-In . SVG Version: 6.00 Build 0)  -->
<!DOCTYPE svg PUBLIC "-//W3C//DTD SVG 1.1//EN" "http://www.w3.org/Graphics/SVG/1.1/DTD/svg11.dtd">
<svg version="1.1" id="Layer_1" xmlns="http://www.w3.org/2000/svg" xmlns:xlink="http://www.w3.org/1999/xlink" x="0px" y="0px"
	 width="1152px" height="1152px" viewBox="0 0 1152 1152" enable-background="new 0 0 1152 1152" xml:space="preserve">
<path d="M1151.994,528L336-0.005V528H1151.994z M432,176.479L826.916,432H432V176.479z"/>
<g>
	<path d="M331.166,976.963c8.391-9.328,5.578-16.969-6.328-16.969h-84.844v-960h-144v960H11.15c-11.859,0-14.719,7.641-6.328,16.969
		l163.172,175.031L331.166,976.963z"/>
</g>
<path d="M336,1151.994v-39.422l66.56-71.391c29.719-33.094,37.642-77.391,20.626-115.594C407.717,890.854,375,868.166,336,864.51
	V624h815.994L336,1151.994z"/>
</svg>
