<?xml version="1.0" encoding="utf-8"?>
<!-- Generator: Adobe Illustrator 16.0.4, SVG Export Plug-In . SVG Version: 6.00 Build 0)  -->
<!DOCTYPE svg PUBLIC "-//W3C//DTD SVG 1.1//EN" "http://www.w3.org/Graphics/SVG/1.1/DTD/svg11.dtd">
<svg version="1.1" id="Layer_1" xmlns="http://www.w3.org/2000/svg" xmlns:xlink="http://www.w3.org/1999/xlink" x="0px" y="0px"
	 width="1152px" height="1152px" viewBox="0 0 1152 1152" enable-background="new 0 0 1152 1152" xml:space="preserve">
<path d="M588.094,400.703c65.484,11.156,125.766,27.656,179.906,50.344v-67.031c228-1.359,366.188,132.609,384,192
	c0-384-288.984-384-384-384V12.39c0-13.172-7.641-16.359-16.969-7.031L480,288.015L588.094,400.703z"/>
<path d="M384,480.015V252.39c0-13.172-7.641-16.359-16.969-7.031L0,624.016l367.031,378.656c9.328,9.328,16.969,6.141,16.969-7.031
	V768.016c427.734,0,639.094,274.312,672,384C1056,480.015,559.5,480.015,384,480.015z"/>
</svg>
