<?xml version="1.0" encoding="utf-8"?>
<!-- Generator: Adobe Illustrator 16.0.1, SVG Export Plug-In . SVG Version: 6.00 Build 0)  -->
<!DOCTYPE svg PUBLIC "-//W3C//DTD SVG 1.1//EN" "http://www.w3.org/Graphics/SVG/1.1/DTD/svg11.dtd">
<svg version="1.1" id="Layer_1" xmlns="http://www.w3.org/2000/svg" xmlns:xlink="http://www.w3.org/1999/xlink" x="0px" y="0px"
	 width="1152px" height="1152px" viewBox="0 0 1152 1152" enable-background="new 0 0 1152 1152" xml:space="preserve">
<path d="M384,444l0-179.606c0-13.2-7.637-16.363-16.971-7.029L0,625.181l367.029,366.242c9.334,9.334,16.971,6.171,16.971-7.029
	L384,804c427.747,0,639.095,238.322,672,348C1056,437.786,559.486,444,384,444z"/>
<path d="M768,191.972V24.394c0-13.2-7.637-16.363-16.971-7.029L480,288.787l41.56,41.499c23.839,2.027,49.212,4.977,75.243,9.271
	C658.185,349.683,715.44,361.865,767.999,384l0,0C996,384,1134.183,516.609,1152,576C1152,192,863.024,191.972,768,191.972z"/>
</svg>
