<?xml version="1.0" encoding="utf-8"?>
<!-- Generator: Adobe Illustrator 16.0.1, SVG Export Plug-In . SVG Version: 6.00 Build 0)  -->
<!DOCTYPE svg PUBLIC "-//W3C//DTD SVG 1.1//EN" "http://www.w3.org/Graphics/SVG/1.1/DTD/svg11.dtd">
<svg version="1.1" id="Layer_1" xmlns="http://www.w3.org/2000/svg" xmlns:xlink="http://www.w3.org/1999/xlink" x="0px" y="0px"
	 width="1152px" height="1152px" viewBox="0 0 1152 1152" enable-background="new 0 0 1152 1152" xml:space="preserve">
<path d="M1008,0H192c0,0-48,0-48,48s0,1008,0,1056s48,48,48,48h816c0,0,48,0,48-48s0-1008,0-1056S1008,0,1008,0z M528,336h144v288
	H528V336z M288,432h144v192H288V432z M912,1008H288v-96h624V1008z M912,816H288v-96h624V816z M912,624H768V144h144V624z"/>
</svg>
