<?xml version="1.0" encoding="utf-8"?>
<!-- Generator: Adobe Illustrator 16.0.4, SVG Export Plug-In . SVG Version: 6.00 Build 0)  -->
<!DOCTYPE svg PUBLIC "-//W3C//DTD SVG 1.1//EN" "http://www.w3.org/Graphics/SVG/1.1/DTD/svg11.dtd">
<svg version="1.1" id="Layer_1" xmlns="http://www.w3.org/2000/svg" xmlns:xlink="http://www.w3.org/1999/xlink" x="0px" y="0px"
	 width="1152px" height="1152px" viewBox="0 0 1152 1152" enable-background="new 0 0 1152 1152" xml:space="preserve">
<path d="M336,984c0,92.812-75.188,168-168,168S0,1076.812,0,984s75.188-168,168-168S336,891.188,336,984z"/>
<path d="M0,576c318.188,0,576,258,576,576h192c0-424.172-343.875-768-768-768V576z"/>
<path d="M0,192c516.891,0,936,419.109,936,936c0,8.109-1.031,15.938-1.219,24H1152C1152,515.766,636.141,0,0,0V192z"/>
</svg>
