<?xml version="1.0" encoding="utf-8"?>
<!-- Generator: Adobe Illustrator 16.0.4, SVG Export Plug-In . SVG Version: 6.00 Build 0)  -->
<!DOCTYPE svg PUBLIC "-//W3C//DTD SVG 1.1//EN" "http://www.w3.org/Graphics/SVG/1.1/DTD/svg11.dtd">
<svg version="1.1" id="Layer_1" xmlns="http://www.w3.org/2000/svg" xmlns:xlink="http://www.w3.org/1999/xlink" x="0px" y="0px"
	 width="1152px" height="1152px" viewBox="0 0 1152 1152" enable-background="new 0 0 1152 1152" xml:space="preserve">
<path d="M96,144c0-26.391,21.609-48,48-48h816V48c0-26.391-21.609-48-48-48H48C21.609,0,0,21.609,0,48v816c0,26.391,21.609,48,48,48
	h48V144z"/>
<path d="M1104,192H240c-26.391,0-48,21.609-48,48v816c0,26.391,21.609,48,48,48h864c26.391,0,48-21.609,48-48V240
	C1152,213.609,1130.391,192,1104,192z M528,960H336V672h192V960z M1008,960H624v-96h384V960z M1008,768H624v-96h384V768z M1008,576
	H336V336h672V576z"/>
</svg>
