<?xml version="1.0" encoding="utf-8"?>
<!-- Generator: Adobe Illustrator 16.0.1, SVG Export Plug-In . SVG Version: 6.00 Build 0)  -->
<!DOCTYPE svg PUBLIC "-//W3C//DTD SVG 1.1//EN" "http://www.w3.org/Graphics/SVG/1.1/DTD/svg11.dtd">
<svg version="1.1" id="Layer_1" xmlns="http://www.w3.org/2000/svg" xmlns:xlink="http://www.w3.org/1999/xlink" x="0px" y="0px"
	 width="1152px" height="1152px" viewBox="0 0 1152 1152" enable-background="new 0 0 1152 1152" xml:space="preserve">
<path d="M528,384c0,53.016-42.984,96-96,96s-96-42.984-96-96s42.984-96,96-96S528,330.984,528,384z"/>
<path d="M816,384c0,53.016-42.984,96-96,96s-96-42.984-96-96s42.984-96,96-96S816,330.984,816,384z"/>
<path d="M576,0C257.906,0,0,257.906,0,576s257.906,576,576,576s576-257.906,576-576S894.094,0,576,0z M576,1008
	c-238.594,0-432-193.406-432-432s193.406-432,432-432s432,193.406,432,432S814.594,1008,576,1008z"/>
<path d="M768,576c0,106.031-85.969,192-192,192s-192-85.969-192-192h-96c0,159.047,128.953,288,288,288s288-128.953,288-288H768z"/>
</svg>
