<?xml version="1.0" encoding="utf-8"?>
<!-- Generator: Adobe Illustrator 16.0.1, SVG Export Plug-In . SVG Version: 6.00 Build 0)  -->
<!DOCTYPE svg PUBLIC "-//W3C//DTD SVG 1.1//EN" "http://www.w3.org/Graphics/SVG/1.1/DTD/svg11.dtd">
<svg version="1.1" id="Layer_1" xmlns="http://www.w3.org/2000/svg" xmlns:xlink="http://www.w3.org/1999/xlink" x="0px" y="0px"
	 width="1152px" height="1152px" viewBox="0 0 1152 1152" enable-background="new 0 0 1152 1152" xml:space="preserve">
<polygon points="96,240 288,240 288,144 96,144 96,0 0,0 0,1152 96,1152 96,1008 288,1008 288,912 96,912 96,624 288,624 288,528 
	96,528 "/>
<path d="M1104,816H432c-26.4,0-48,21.6-48,48v192c0,26.4,21.6,48,48,48h672c26.4,0,48-21.6,48-48V864
	C1152,837.6,1130.4,816,1104,816z M1056,972c-33.137,0-60-26.863-60-60s26.863-60,60-60s60,26.863,60,60S1089.137,972,1056,972z"/>
<path d="M1104,432H432c-26.4,0-48,21.6-48,48v192c0,26.4,21.6,48,48,48h672c26.4,0,48-21.6,48-48V480
	C1152,453.6,1130.4,432,1104,432z M1056,588c-33.137,0-60-26.863-60-60s26.863-60,60-60s60,26.863,60,60S1089.137,588,1056,588z"/>
<path d="M1104,48H432c-26.4,0-48,21.6-48,48v192c0,26.4,21.6,48,48,48h672c26.4,0,48-21.6,48-48V96C1152,69.6,1130.4,48,1104,48z
	 M1056,204c-33.137,0-60-26.863-60-60s26.863-60,60-60s60,26.863,60,60S1089.137,204,1056,204z"/>
</svg>
