<?xml version="1.0" encoding="utf-8"?>
<!-- Generator: Adobe Illustrator 17.0.0, SVG Export Plug-In . SVG Version: 6.00 Build 0)  -->
<!DOCTYPE svg PUBLIC "-//W3C//DTD SVG 1.1//EN" "http://www.w3.org/Graphics/SVG/1.1/DTD/svg11.dtd">
<svg version="1.1" id="Layer_1" xmlns="http://www.w3.org/2000/svg" xmlns:xlink="http://www.w3.org/1999/xlink" x="0px" y="0px"
	 width="1152px" height="1152px" viewBox="0 0 1152 1152" enable-background="new 0 0 1152 1152" xml:space="preserve">
<path d="M480,864H144V336h217.031C391.688,278,432,229,481.406,192H0v816h508.271C490.184,963,480,915,480,864z"/>
<path d="M864,480.001c34.107,0,67.02,4.904,98.52,13.289L1152,313.572L880.969,53.36C871.641,44.032,864,47.196,864,60.391V192.4
	c-175.5,0-480,0-480,504c120-192,240-264,480-264V480.001z"/>
<path d="M864,576.001c-159.097,0-288,128.952-288,288c0,159.096,128.903,288,288,288c158.999,0,288-128.904,288-288
	C1152,704.953,1022.999,576.001,864,576.001z M792,1044.001l-132-132l60-60l72,72l216-216l60,60L792,1044.001z"/>
</svg>
