<?xml version="1.0" encoding="utf-8"?>
<!-- Generator: Adobe Illustrator 16.0.1, SVG Export Plug-In . SVG Version: 6.00 Build 0)  -->
<!DOCTYPE svg PUBLIC "-//W3C//DTD SVG 1.1//EN" "http://www.w3.org/Graphics/SVG/1.1/DTD/svg11.dtd">
<svg version="1.1" id="Layer_1" xmlns="http://www.w3.org/2000/svg" xmlns:xlink="http://www.w3.org/1999/xlink" x="0px" y="0px"
	 width="1152px" height="1152px" viewBox="0 0 1152 1152" enable-background="new 0 0 1152 1152" xml:space="preserve">
<path d="M864,240.394v-144c0-13.2,7.637-16.363,16.971-7.029L1152,361.575L880.971,631.423c-9.334,9.334-16.971,6.171-16.971-7.029
	v-144c-240,0-360,72-480,264C384,240.394,688.514,240.394,864,240.394z"/>
<path d="M948.705,699.453c-10.928,10.891-23.383,19.297-36.705,24.946V912H144V384h217.056
	c30.604-58.503,70.922-106.755,120.316-144H0v816h1056V592.626L948.705,699.453z"/>
</svg>
