<?xml version="1.0" encoding="utf-8"?>
<!-- Generator: Adobe Illustrator 16.0.0, SVG Export Plug-In . SVG Version: 6.00 Build 0)  -->
<!DOCTYPE svg PUBLIC "-//W3C//DTD SVG 1.1//EN" "http://www.w3.org/Graphics/SVG/1.1/DTD/svg11.dtd">
<svg version="1.1" id="Layer_1" xmlns="http://www.w3.org/2000/svg" xmlns:xlink="http://www.w3.org/1999/xlink" x="0px" y="0px"
	 width="1152px" height="1152px" viewBox="0 0 1152 1152" enable-background="new 0 0 1152 1152" xml:space="preserve">
<polygon points="0,96 0,144 576,576 1152,144 1152,96 "/>
<polygon points="0,648 0,264 252,453 "/>
<path d="M864,576c-159.058,0-288,128.941-288,288c0,159.058,128.942,288,288,288c159.059,0,288-128.942,288-288
	C1152,704.941,1023.059,576,864,576z M864,672c34.529,0,66.927,9.121,94.924,25.076L697.077,958.923
	C681.121,930.926,672,898.529,672,864C672,757.961,757.962,672,864,672z M864,1056c-34.529,0-66.926-9.121-94.923-25.077
	l261.847-261.847C1046.879,797.073,1056,829.471,1056,864C1056,970.038,970.039,1056,864,1056z"/>
<path d="M535.245,665.434L336,516L0,780v84h480c0-51.798,10.166-102.097,30.216-149.5
	C517.417,697.476,525.775,681.104,535.245,665.434z"/>
<path d="M1013.5,510.216c45.737,19.347,86.794,47.021,122.029,82.255c5.694,5.696,11.173,11.562,16.471,17.559V264L900,453
	l46.317,35.841C969.234,493.854,991.675,500.984,1013.5,510.216z"/>
</svg>
