<?xml version="1.0" encoding="utf-8"?>
<!-- Generator: Adobe Illustrator 16.0.4, SVG Export Plug-In . SVG Version: 6.00 Build 0)  -->
<!DOCTYPE svg PUBLIC "-//W3C//DTD SVG 1.1//EN" "http://www.w3.org/Graphics/SVG/1.1/DTD/svg11.dtd">
<svg version="1.1" id="Layer_1" xmlns="http://www.w3.org/2000/svg" xmlns:xlink="http://www.w3.org/1999/xlink" x="0px" y="0px"
	 width="1152px" height="1152px" viewBox="0 0 1152 1152" enable-background="new 0 0 1152 1152" xml:space="preserve">
<polygon points="1008,240 480,768 288,576 144,720 480,1056 1152,384 "/>
<path d="M78.562,320.25L59.344,384H0l79.969-240h76.078L240,384h-62.953l-21-63.75H78.562z M146.859,278.25l-17.438-51.281
	c-4.594-13.875-9.234-29.906-13.453-43.453h-0.75c-3.562,13.547-7.453,29.578-11.766,43.453L87.422,278.25H146.859z"/>
<path d="M288,151.219c14.344-2.438,46.594-5.156,76.312-5.156c36.891,0,56.531,3.469,74.859,12
	c17.859,7.969,32.25,23.719,32.25,46.781c0,20.297-12.891,39.188-41.25,48.844v0.656C457.453,261.281,480,280.5,480,311.812
	c0,21.656-11.484,38.859-27.609,50.156c-18.938,13.406-49.734,20.672-100.266,20.672c-29.719,0-51.188-2.062-64.125-3.797V151.219z
	 M344.578,238.875h20.109c32.953,0,48.703-10.641,48.703-27.469c0-17.906-15.75-25.781-42.281-25.781
	c-13.969,0-21.469,1.031-26.531,1.688V238.875z M344.578,341.344c6.188,1.031,13.688,1.031,24.375,1.031
	c26.859,0,50.531-8.578,50.531-33.328c0-23.016-23.297-31.266-53.391-31.266h-21.516V341.344z"/>
<path d="M717.375,372.656C707.672,377.812,683.953,384,653.766,384C571.219,384,528,333.469,528,267.094
	C528,191.109,584.25,144,657.938,144c29.625,0,52.031,5.812,62.062,11.719l-11.016,42.609c-11.391-5.156-28.266-9.984-48.75-9.984
	c-44.156,0-77.578,26.156-77.578,75.656c0,43.312,27.562,75.281,77.953,75.281c17.812,0,36.984-3.75,48.375-8.906L717.375,372.656z"
	/>
</svg>
