<?xml version="1.0" encoding="utf-8"?>
<!-- Generator: Adobe Illustrator 16.0.4, SVG Export Plug-In . SVG Version: 6.00 Build 0)  -->
<!DOCTYPE svg PUBLIC "-//W3C//DTD SVG 1.1//EN" "http://www.w3.org/Graphics/SVG/1.1/DTD/svg11.dtd">
<svg version="1.1" id="Layer_1" xmlns="http://www.w3.org/2000/svg" xmlns:xlink="http://www.w3.org/1999/xlink" x="0px" y="0px"
	 width="1152px" height="1152px" viewBox="0 0 1152 1152" enable-background="new 0 0 1152 1152" xml:space="preserve">
<polygon points="0,96 768,96 768,384 672,384 624,240 480,240 480,960 624,960 624,1104 144,1104 144,960 288,960 288,240 144,240 
	96,384 0,384 "/>
<g>
	<path d="M864,384v-63.797l54.047-44.672c81.891-67.875,120.375-105.562,121.453-141.562c0-27.844-17.812-47.531-57.375-47.531
		c-33.469,0-63.562,18-85.219,34.781l-31.781-76.594C896.344,20.297,945.938,0,1003.875,0c82.969,0,140.906,43.5,140.906,125.25
		c0,56.906-41.25,104.438-84.656,138.094L1032,288h120v96H864z"/>
</g>
</svg>
