<?xml version="1.0" encoding="utf-8"?>
<!-- Generator: Adobe Illustrator 16.0.4, SVG Export Plug-In . SVG Version: 6.00 Build 0)  -->
<!DOCTYPE svg PUBLIC "-//W3C//DTD SVG 1.1//EN" "http://www.w3.org/Graphics/SVG/1.1/DTD/svg11.dtd">
<svg version="1.1" id="Layer_1" xmlns="http://www.w3.org/2000/svg" xmlns:xlink="http://www.w3.org/1999/xlink" x="0px" y="0px"
	 width="1152px" height="1152px" viewBox="0 0 1152 1152" enable-background="new 0 0 1152 1152" xml:space="preserve">
<path d="M384,904.664c1.125-31.031,9.469-82.711,48.562-125.766C456.938,752.039,501.609,720,576,720
	c18.047,0,33.562,1.289,48,2.953V144h240l48,144h96V0H0v288h96l48-144h240V904.664z"/>
<path d="M384,923.953c-0.188-3.164-0.281-7.289-0.234-11.953H240v144h173.812C394.828,1016.953,384.469,972.75,384,923.953z"/>
<path d="M828,624c-70.734,0-96,29.344-96,58.664c0,43.992,55.969,66,55.969,95.344S780,840,744,840c-51.75,0-48-24-144-24
	c-120,0-120,120-120,120c0,204,288,216,336,216c42,0,336,0,336-241.992C1152,687.703,924,624,828,624z M600,1008
	c-39.75,0-72-32.227-72-72s32.25-72,72-72s72,32.227,72,72S639.75,1008,600,1008z M732,1092c-33.137,0-60-26.863-60-60
	s26.863-60,60-60s60,26.863,60,60S765.137,1092,732,1092z M900,1092c-33.137,0-60-26.863-60-60s26.863-60,60-60s60,26.863,60,60
	S933.137,1092,900,1092z M1032,792c26.438,0,48,21.539,48,48s-21.562,48-48,48s-48-21.539-48-48S1005.562,792,1032,792z
	 M1044,1019.999c-26.51,0-48-21.49-48-48s21.49-48,48-48s48,21.49,48,48S1070.51,1019.999,1044,1019.999z"/>
</svg>
