<?xml version="1.0" encoding="utf-8"?>
<!-- Generator: Adobe Illustrator 17.0.0, SVG Export Plug-In . SVG Version: 6.00 Build 0)  -->
<!DOCTYPE svg PUBLIC "-//W3C//DTD SVG 1.1//EN" "http://www.w3.org/Graphics/SVG/1.1/DTD/svg11.dtd">
<svg version="1.1" id="Layer_1" xmlns="http://www.w3.org/2000/svg" xmlns:xlink="http://www.w3.org/1999/xlink" x="0px" y="0px"
	 width="1152px" height="1152px" viewBox="0 0 1152 1152" enable-background="new 0 0 1152 1152" xml:space="preserve">
<polygon points="48,0 912,0 912,288 816,288 768,144 576,144 576,912 720,912 720,1056 240,1056 240,912 384,912 384,144 192,144 
	144,288 48,288 "/>
<g>
	<path d="M816,1152v-63.797l54.048-44.698c81.888-67.824,120.373-105.562,121.453-141.514c0-27.869-17.813-47.53-57.379-47.53
		c-33.466,0-63.562,17.952-85.219,34.781l-31.781-76.594c31.219-24.35,80.814-44.65,138.754-44.65
		c82.968,0,140.904,43.502,140.904,125.275c0,56.856-41.251,104.414-84.658,138.043L984,1056h120v96H816z"/>
</g>
</svg>
