<?xml version="1.0" encoding="utf-8"?>
<!-- Generator: Adobe Illustrator 17.0.0, SVG Export Plug-In . SVG Version: 6.00 Build 0)  -->
<!DOCTYPE svg PUBLIC "-//W3C//DTD SVG 1.1//EN" "http://www.w3.org/Graphics/SVG/1.1/DTD/svg11.dtd">
<svg version="1.1" id="Layer_1" xmlns="http://www.w3.org/2000/svg" xmlns:xlink="http://www.w3.org/1999/xlink" x="0px" y="0px"
	 width="1152px" height="1152px" viewBox="0 0 1152 1152" enable-background="new 0 0 1152 1152" xml:space="preserve">
<g>
	<path d="M428.578,1152c-99.548,0-195.505-2.446-245.081-3.815c-24.169-3.742-39.497-17.976-39.497-38.446V43.533
		c0-22.329,13.199-35.682,33.505-39.693C247.436,1.688,385.899,0,520.61,0c363.82,0,440.926,168.848,440.926,310.476
		c0,101.886-47.969,187.043-131.471,236.861C923.572,588.742,1008,674.34,1008,812.519c0,218.617-180.382,339.016-508.147,339.016
		C476.279,1151.853,452.301,1152,428.578,1152z M528,960c204,0,216.902-84.609,216.902-149.566C744.902,751.983,724.297,672,528,672
		H384v288C384,960,477.879,960,528,960z M535.703,432C708,432,720,350.303,720,319.952C720,260.107,708,192,511.755,192
		C463.715,192,384,192,384,192v240H535.703z"/>
</g>
</svg>
