<?xml version="1.0" encoding="utf-8"?>
<!-- Generator: Adobe Illustrator 16.0.4, SVG Export Plug-In . SVG Version: 6.00 Build 0)  -->
<!DOCTYPE svg PUBLIC "-//W3C//DTD SVG 1.1//EN" "http://www.w3.org/Graphics/SVG/1.1/DTD/svg11.dtd">
<svg version="1.1" id="Layer_1" xmlns="http://www.w3.org/2000/svg" xmlns:xlink="http://www.w3.org/1999/xlink" x="0px" y="0px"
	 width="1152px" height="1152px" viewBox="0 0 1152 1152" enable-background="new 0 0 1152 1152" xml:space="preserve">
<g>
	<path d="M144.161,1007.158c-1.688-71.577,9.984-164.811,31.687-241.355c10.031-13.312,53.436-13.312,65.155,3.328
		c3.328,46.593,13.359,114.842,48.421,174.794c50.108,88.218,126.935,131.482,217.121,131.482
		c103.544,0,198.699-69.89,198.699-201.372c0-83.249-45.093-151.498-140.247-219.747l-41.765-29.999
		c-101.857-73.218-182.011-166.452-182.011-278.012c0-213.044,176.996-347.949,409.164-346.261
		C872.302,1.703,984.189,36.671,1056,89.921c-21.749,46.593-50.108,123.186-73.498,221.435c-13.359,19.968-55.124,14.953-65.108,0
		C937.409,189.81,880.645,76.608,740.352,76.608c-126.936,0-200.434,96.561-200.434,179.81c0,51.562,25.078,116.53,141.981,194.716
		l51.75,34.968c96.888,64.968,190.448,161.529,190.448,309.652c0,204.747-157.028,356.245-444.272,356.245
		C307.797,1152,182.55,1075.407,144.161,1007.158z"/>
</g>
</svg>
