<?xml version="1.0" encoding="utf-8"?>
<!-- Generator: Adobe Illustrator 17.0.0, SVG Export Plug-In . SVG Version: 6.00 Build 0)  -->
<!DOCTYPE svg PUBLIC "-//W3C//DTD SVG 1.1//EN" "http://www.w3.org/Graphics/SVG/1.1/DTD/svg11.dtd">
<svg version="1.1" id="Layer_1" xmlns="http://www.w3.org/2000/svg" xmlns:xlink="http://www.w3.org/1999/xlink" x="0px" y="0px"
	 width="1152px" height="1152px" viewBox="0 0 1152 1152" enable-background="new 0 0 1152 1152" xml:space="preserve">
<g>
	<path d="M336,597.441c0,134.876,70.196,217.535,219.093,217.535c111.72,0,212.907-46.404,212.907-223.318V11.594
		C768,2.891,771.09,0,780.432,0h165.619C956.907,0,960,2.891,960,11.594v581.511C960,859.935,776.955,960,552,960
		c-241.998,0-408-114.579-408-359.639V11.594C144,2.891,145.578,0,156.434,0h167.182C332.958,0,336,1.446,336,10.148V597.441z"/>
	<path d="M48,1152v-96h1008v96H48z"/>
</g>
</svg>
