<?xml version="1.0" encoding="utf-8"?>
<!-- Generator: Adobe Illustrator 16.0.1, SVG Export Plug-In . SVG Version: 6.00 Build 0)  -->
<!DOCTYPE svg PUBLIC "-//W3C//DTD SVG 1.1//EN" "http://www.w3.org/Graphics/SVG/1.1/DTD/svg11.dtd">
<svg version="1.1" id="Layer_1" xmlns="http://www.w3.org/2000/svg" xmlns:xlink="http://www.w3.org/1999/xlink" x="0px" y="0px"
	 width="1152px" height="1152px" viewBox="0 0 1152 1152" enable-background="new 0 0 1152 1152" xml:space="preserve">
<path d="M1008,432H720c0,0,0-192,0-288C720,0,576,0,576,0h-48v264L384,492v516h576c0,0,96,0,96-96c0-72,24-240,24-240s24-96,24-144
	s0,0,0,0C1104,432,1008,432,1008,432z"/>
<path d="M48,432c-48,0-48,48-48,48v624c0,0,0,48,48,48s240,0,240,0V432C288,432,96,432,48,432z M144,1068c-33.141,0-60-26.859-60-60
	s26.859-60,60-60s60,26.859,60,60S177.141,1068,144,1068z"/>
</svg>
