<?xml version="1.0" encoding="utf-8"?>
<!-- Generator: Adobe Illustrator 16.0.1, SVG Export Plug-In . SVG Version: 6.00 Build 0)  -->
<!DOCTYPE svg PUBLIC "-//W3C//DTD SVG 1.1//EN" "http://www.w3.org/Graphics/SVG/1.1/DTD/svg11.dtd">
<svg version="1.1" id="Layer_1" xmlns="http://www.w3.org/2000/svg" xmlns:xlink="http://www.w3.org/1999/xlink" x="0px" y="0px"
	 width="1152px" height="1152px" viewBox="0 0 1152 1152" enable-background="new 0 0 1152 1152" xml:space="preserve">
<path d="M1118.109,982.594L884.344,748.828c40.547-64.969,64.359-141.469,64.359-223.641c0-233.906-189.609-423.562-423.516-423.562
	S101.625,291.281,101.625,525.188s189.656,423.516,423.562,423.516c82.172,0,158.672-23.812,223.641-64.359l233.766,233.766
	c0,0,25.406,33.891,73.406,33.891s96-48,96-96S1118.109,982.594,1118.109,982.594z M525.188,843.656
	c-175.875,0-318.469-142.594-318.469-318.469s142.594-318.469,318.469-318.469s318.469,142.594,318.469,318.469
	S701.062,843.656,525.188,843.656z"/>
<path d="M51.094,711.703L0,847.031v203.344l67.781-115.031l135.516,203.297l97.594-156.234
	C187.453,926.531,97.781,830.062,51.094,711.703z"/>
<path d="M583.781,301.5L356.344,683.344c28.688,30.656,65.531,52.969,107.156,64.5l146.391-245.812l115.453,138.562
	c19.781-34.125,31.922-73.219,31.922-115.406C757.266,417.562,683.297,327.656,583.781,301.5z"/>
<path d="M1016.344,390.047L1104,271.031V48L944.625,235.875C976.688,282.281,1000.969,334.312,1016.344,390.047z"/>
</svg>
