<?xml version="1.0" encoding="utf-8"?>
<!-- Generator: Adobe Illustrator 16.0.1, SVG Export Plug-In . SVG Version: 6.00 Build 0)  -->
<!DOCTYPE svg PUBLIC "-//W3C//DTD SVG 1.1//EN" "http://www.w3.org/Graphics/SVG/1.1/DTD/svg11.dtd">
<svg version="1.1" id="Layer_1" xmlns="http://www.w3.org/2000/svg" xmlns:xlink="http://www.w3.org/1999/xlink" x="0px" y="0px"
	 width="1152px" height="1152px" viewBox="0 0 1152 1152" enable-background="new 0 0 1152 1152" xml:space="preserve">
<path d="M1056,48H96c-26.4,0-48,21.6-48,48v960c0,26.4,21.6,48,48,48h960c26.4,0,48-21.6,48-48V96C1104,69.6,1082.4,48,1056,48z
	 M864,960c-36.733,17.295-78.254,29.041-108,36c-29.78,6.962-61.396,12-96,12c-39.27,0-77.816-2.091-108-12
	c-30.191-9.934-56.988-29.509-76.332-49.92C432,900,432,864,432,792V528H288V384c48-12,98.701-36.177,122.749-56.673
	c24.082-20.469,43.388-45.067,57.946-73.786c14.584-28.69,24.6-65.217,30.078-109.542H624v240h192v144H624v192
	c0,49.812-0.362,78.3,4.93,92.457c5.261,14.133,15.099,25.423,29.437,33.87C677.379,857.725,707.508,864,732,864
	c43.494,0,88.943-19.707,132-48V960z"/>
</svg>
