<?xml version="1.0" encoding="utf-8"?>
<!-- Generator: Adobe Illustrator 16.0.1, SVG Export Plug-In . SVG Version: 6.00 Build 0)  -->
<!DOCTYPE svg PUBLIC "-//W3C//DTD SVG 1.1//EN" "http://www.w3.org/Graphics/SVG/1.1/DTD/svg11.dtd">
<svg version="1.1" id="Layer_1" xmlns="http://www.w3.org/2000/svg" xmlns:xlink="http://www.w3.org/1999/xlink" x="0px" y="0px"
	 width="1152px" height="1152px" viewBox="0 0 1152 1152" enable-background="new 0 0 1152 1152" xml:space="preserve">
<g>
	<path d="M895.029,319.029C904.363,328.363,901.2,336,888,336H720v528H432V336H264c-13.2,0-16.363-7.637-7.029-16.971L576,0
		L895.029,319.029z"/>
</g>
<path d="M1104,768c-34.396,0-288,0-288,0v192H336V768c0,0-240,0-288,0S0,816,0,816v288c0,0,0,48,48,48s1008,0,1056,0s48-48,48-48
	V816C1152,816,1152,768,1104,768z M144,972c-33.137,0-60-26.864-60-60s26.863-60,60-60s60,26.864,60,60S177.137,972,144,972z"/>
</svg>
