<?xml version="1.0" encoding="utf-8"?>
<!-- Generator: Adobe Illustrator 17.0.0, SVG Export Plug-In . SVG Version: 6.00 Build 0)  -->
<!DOCTYPE svg PUBLIC "-//W3C//DTD SVG 1.1//EN" "http://www.w3.org/Graphics/SVG/1.1/DTD/svg11.dtd">
<svg version="1.1" id="Layer_1" xmlns="http://www.w3.org/2000/svg" xmlns:xlink="http://www.w3.org/1999/xlink" x="0px" y="0px"
	 width="1152px" height="1152px" viewBox="0 0 1152 1152" enable-background="new 0 0 1152 1152" xml:space="preserve">
<path d="M480,840.125c0-57.97,42-106.446,96-117.604v-26.418c0-2.581,0.355-5.084,0.428-7.648
	c-3.865-3.598-7.571-7.331-10.961-11.389c-13.734-16.456-33.417-65.47-23.431-98.566L598.965,433c0,0,0,0,16.687,0
	c33.38,0,45.946-76.633,45.946-109.729c0-33.102-37.598-45.269-37.598-45.269v-30.005C624,136.517,541.067,48,431.734,48
	C322.264,48,239,136.517,239,247.997v30.005c0,0-36.709,12.167-36.709,45.269c0,33.096,13.08,109.729,46.507,109.729
	c16.643,0,16.643,0,16.643,0l56.54,145.499c10.033,33.096-9.467,87.303-23.16,103.759C238.342,754.553,48,743.263,48,842.61
	c0,54.993,0,110.971,0,110.971S96.008,1009,365.49,1009H480V840.125z"/>
<path d="M1080.163,815H1008V696.102c0-92.827-75.173-168.026-168-168.026c-92.828,0-168,75.199-168,168.026V815h-71.913
	C586.865,815,576,826.904,576,840.125v288.045c0,13.221,10.865,23.83,24.087,23.83h480.076c13.221,0,23.837-10.609,23.837-23.83
	V840.125C1104,826.904,1093.384,815,1080.163,815z M913,815H767V696.102c0-39.755,33.245-72.011,73-72.011
	c39.755,0,73,32.256,73,72.011V815z"/>
</svg>
