<?xml version="1.0" encoding="utf-8"?>
<!-- Generator: Adobe Illustrator 17.0.0, SVG Export Plug-In . SVG Version: 6.00 Build 0)  -->
<!DOCTYPE svg PUBLIC "-//W3C//DTD SVG 1.1//EN" "http://www.w3.org/Graphics/SVG/1.1/DTD/svg11.dtd">
<svg version="1.1" id="Layer_1" xmlns="http://www.w3.org/2000/svg" xmlns:xlink="http://www.w3.org/1999/xlink" x="0px" y="0px"
	 width="1152px" height="1152px" viewBox="0 0 1152 1152" enable-background="new 0 0 1152 1152" xml:space="preserve">
<path d="M211.171,798.658c29.578-24.187,64.08-39.096,94.546-52.315c22.69-9.84,48.187-20.813,60.144-31.594
	c2.669-6.653,5.578-17.246,6.562-24.653c-5.765-12.941-14.674-33.283-23.674-55.315c-7.498-18.47-13.498-34.219-18.187-47.813
	c-10.872-6.374-20.952-14.53-30-24.278c-13.872-14.909-25.498-33.754-34.406-55.877c-12.187-30.283-19.406-66.845-19.406-97.968
	c0-34.406,12.47-65.909,34.594-89.438c6.754-70.31,37.128-135.374,86.813-185.064c14.722-14.717,30.706-27.653,47.722-38.813
	C387.984,38.717,330.845,0,264.139,0C171.096,0,96.374,75.187,93.984,169.968v25.502c0,0-28.267,1.498-28.267,29.626
	c0,28.123,14.16,84.466,42.566,84.466c14.059,0,14.059,0,14.059,0c0,28.315,48.144,132.47,48.144,132.47
	c8.482,28.123-8.112,78.562-19.738,92.626C99.326,596.064,0,590.904,0,675.283c0,46.781,0,94.31,0,94.31s0,44.155,192.47,46.31
	C198.235,809.904,204.47,804.096,211.171,798.658z"/>
<path d="M870.659,319.406c22.122,23.528,34.594,55.031,34.594,89.438c0,7.544-1.673,15.885-2.49,23.903
	c27.138,1.512,53.147,7.093,77.508,16.222c0.366-2.355,0.604-15.593,1.245-17.717c0,0,48.144-95.251,48.144-143.251c0,0,0,0,14.06,0
	c28.406,0,41.558-45.561,41.558-73.683c0-28.131-29.276-18.848-29.276-18.848v-25.503C1056,75.188,979.896,0,886.854,0
	c-66.706,0-123.343,38.716-151.233,95.528c17.016,11.159,33.252,24.097,47.974,38.812
	C833.279,184.031,863.903,249.097,870.659,319.406z"/>
<path d="M528,840c0-57.961,41.297-106.43,96-117.586V696c0-115.98,75.281-214.518,179.467-249.87
	c1.342-10.321,2.08-19.978,2.08-27.349c0-33.094-37.547-44.815-37.547-44.815v-30C768,232.503,685.547,144,576.237,144
	C466.781,144,384,232.503,384,343.966v30c0,0-37.219,11.722-37.219,44.815S359.344,528,392.766,528c16.641,0,16.641,0,16.641,0
	l56.531,145.966c10.031,33.097-9.466,87.472-23.156,103.969C382.312,850.219,240,839.153,240,938.438c0,55.031,0,111,0,111
	S240,1104,509.44,1104H528V840z"/>
<path d="M1128,816h-72V696c0-92.813-75.188-168-168-168c-92.813,0-168,75.187-168,168v120h-72c-13.219,0-24,10.781-24,24v288
	c0,13.219,10.781,24,24,24h480c13.219,0,24-10.781,24-24V840C1152,826.781,1141.219,816,1128,816z M960,816H816V696
	c0-39.749,32.251-72,72-72c39.749,0,72,32.251,72,72V816z"/>
</svg>
