<?xml version="1.0" encoding="utf-8"?>
<!-- Generator: Adobe Illustrator 16.0.1, SVG Export Plug-In . SVG Version: 6.00 Build 0)  -->
<!DOCTYPE svg PUBLIC "-//W3C//DTD SVG 1.1//EN" "http://www.w3.org/Graphics/SVG/1.1/DTD/svg11.dtd">
<svg version="1.1" id="Layer_1" xmlns="http://www.w3.org/2000/svg" xmlns:xlink="http://www.w3.org/1999/xlink" x="0px" y="0px"
	 width="1152px" height="1152px" viewBox="0 0 1152 1152" enable-background="new 0 0 1152 1152" xml:space="preserve">
<path d="M1001.25,582.656c-11.625-14.016-28.219-64.5-19.734-92.625c0,0,48.141-104.156,48.141-132.469c0,0,0,0,14.062,0
	c28.406,0,42.562-56.297,42.562-84.469c0-28.125-28.266-29.625-28.266-29.625v-25.5C1055.625,123.188,980.906,48,887.859,48
	c-66.609,0-123.797,38.625-151.641,95.438c17.062,11.156,33.094,24.188,47.812,39c49.453,49.594,79.688,114.562,86.531,184.688
	c22.312,23.531,34.969,55.125,34.969,89.719c0,31.078-7.266,67.688-19.406,97.875c-8.906,22.172-20.438,40.969-34.312,55.922
	c-9.094,9.797-19.266,17.953-30.188,24.422c-4.781,13.641-10.781,29.391-18.375,47.906c-9,21.938-17.906,42.188-23.719,55.078
	c1.031,7.453,3.984,18.094,6.703,24.656c11.906,10.781,37.406,21.797,60.141,31.641c30.422,13.219,64.922,28.125,94.5,52.312
	c6.703,5.438,12.938,11.25,18.656,17.25C1152,861.75,1152,817.641,1152,817.641s0-47.578,0-94.359
	C1152,638.906,1052.672,644.062,1001.25,582.656z"/>
<path d="M211.172,846.656c29.578-24.188,64.078-39.094,94.547-52.312c22.688-9.844,48.188-20.812,60.141-31.594
	c2.672-6.609,5.578-17.25,6.562-24.656c-5.766-12.891-14.672-33.281-23.672-55.312c-7.5-18.469-13.5-34.219-18.188-47.812
	c-10.875-6.375-20.953-14.531-30-24.281c-13.875-14.906-25.5-33.75-34.406-55.875c-12.188-30.281-19.406-66.844-19.406-97.969
	c0-34.406,12.469-65.906,34.594-89.438c6.75-70.266,37.125-135.328,86.812-185.062c14.719-14.719,30.703-27.656,47.719-38.812
	C387.984,86.719,330.844,48,264.141,48c-93.047,0-167.766,75.188-170.156,169.969v25.5c0,0-28.266,1.5-28.266,29.625
	c0,28.172,14.156,84.469,42.562,84.469c14.062,0,14.062,0,14.062,0c0,28.312,48.141,132.469,48.141,132.469
	c8.484,28.125-8.109,78.609-19.734,92.625C99.328,644.062,0,638.906,0,723.281c0,46.781,0,94.359,0,94.359s0,44.109,192.469,46.266
	C198.234,857.906,204.469,852.094,211.172,846.656z"/>
<path d="M509.438,1152C240,1152,240,1097.438,240,1097.438s0-55.969,0-110.953c0-99.328,142.312-93.234,202.781-165.516
	c13.688-16.453,33.188-75.844,23.156-108.938c0,0-56.531-122.531-56.531-155.859c0,0,0,0-16.641,0
	c-33.422,0-50.016-66.234-50.016-99.328s33.188-34.875,33.188-34.875v-30C378.75,280.5,466.734,192,576.188,192
	c109.312,0,196.969,88.5,199.781,199.969v30c0,0,33.562,1.781,33.562,34.875s-16.594,99.328-49.969,99.328
	c-16.688,0-16.688,0-16.688,0c0,33.328-56.906,155.859-56.906,155.859c-9.984,33.094,9.703,92.484,23.438,108.938
	C769.781,893.25,912,887.156,912,986.484c0,54.984,0,110.953,0,110.953S912,1152,642.844,1152H509.438z"/>
</svg>
