<?xml version="1.0" encoding="utf-8"?>
<!-- Generator: Adobe Illustrator 16.0.4, SVG Export Plug-In . SVG Version: 6.00 Build 0)  -->
<!DOCTYPE svg PUBLIC "-//W3C//DTD SVG 1.1//EN" "http://www.w3.org/Graphics/SVG/1.1/DTD/svg11.dtd">
<svg version="1.1" id="Layer_1" xmlns="http://www.w3.org/2000/svg" xmlns:xlink="http://www.w3.org/1999/xlink" x="0px" y="0px"
	 width="1152px" height="1152px" viewBox="0 0 1152 1152" enable-background="new 0 0 1152 1152" xml:space="preserve">
<path enable-background="new    " d="M588.801,704.799c-4.738-4.049-9.034-8.342-12.801-12.924
	c-14.742-18.094-36-83.484-25.195-119.859c0,0,61.431-134.766,61.431-171.422c0,0,0,0,18.047,0c36,0,54-72.844,54-109.266
	S648,252.984,648,252.984v-33C645,97.312,550.312,0,432.164,0C314.039,0,219.023,97.312,216,219.984v33
	c0,0-35.953,1.922-35.953,38.344s18.023,109.266,54.047,109.266c18.023,0,18.023,0,18.023,0c0,36.656,61.078,171.422,61.078,171.422
	C324,608.391,302.906,673.782,288.14,691.875C222.82,771.375,0,764.672,0,873.938c0,60.47,0,109.22,0,109.22S0,1056,360.117,1056
	h75.68C451.217,870.896,512.021,765.182,588.801,704.799z"/>
<path enable-background="new    " d="M912,720.375v-132c0-13.172,7.688-16.312,16.969-7.031L1152,816l-223.031,234.609
	c-9.281,9.375-16.969,6.188-16.969-7.031V912c-264,0-351.094,130.312-384,240C528,720,736.5,720.375,912,720.375z"/>
</svg>
