<?xml version="1.0" encoding="utf-8"?>
<!-- Generator: Adobe Illustrator 17.0.0, SVG Export Plug-In . SVG Version: 6.00 Build 0)  -->
<!DOCTYPE svg PUBLIC "-//W3C//DTD SVG 1.1//EN" "http://www.w3.org/Graphics/SVG/1.1/DTD/svg11.dtd">
<svg version="1.1" id="Layer_1" xmlns="http://www.w3.org/2000/svg" xmlns:xlink="http://www.w3.org/1999/xlink" x="0px" y="0px"
	 width="1152px" height="1152px" viewBox="0 0 1152 1152" enable-background="new 0 0 1152 1152" xml:space="preserve">
<path d="M211.171,798.658c29.578-24.187,64.08-39.096,94.546-52.315c22.69-9.84,48.187-20.813,60.144-31.594
	c2.669-6.61,5.578-17.246,6.562-24.653c-5.765-12.893-14.674-33.283-23.674-55.315c-7.498-18.47-13.498-34.219-18.187-47.813
	c-10.872-6.374-20.952-14.53-30-24.278c-13.872-14.909-25.498-33.754-34.406-55.877c-12.187-30.283-19.406-66.845-19.406-97.968
	c0-34.406,12.47-65.909,34.594-89.438c6.754-70.267,37.128-135.326,86.813-185.064c14.722-14.717,30.706-27.653,47.722-38.813
	C387.984,38.717,330.845,0,264.139,0C171.096,0,96.374,75.187,93.984,169.968v25.502c0,0-28.268,1.498-28.268,29.626
	c0,28.171,14.16,84.466,42.568,84.466c14.059,0,14.059,0,14.059,0c0,28.315,48.144,132.47,48.144,132.47
	c8.482,28.123-8.112,78.61-19.738,92.626C99.326,596.064,0,590.904,0,675.283c0,46.781,0,94.358,0,94.358s0,44.107,192.47,46.262
	C198.235,809.904,204.47,804.096,211.171,798.658z"/>
<path d="M864,768.363v-132c0-13.171,7.69-16.31,16.968-7.032L1104,863.989l-223.032,234.61c-9.278,9.374-16.968,6.187-16.968-7.032
	V959.989c-240,0-351.096,82.322-384,192.011C480,768,688.498,768.363,864,768.363z"/>
<path d="M683.514,686.045c-0.047-7.945,0.507-5.643,2.455-12.1L742.878,528c0,0,0,0,16.685,0c33.375,0,45.984-76.148,45.984-109.242
	S768,373.969,768,373.969v-30C768,232.5,685.55,144,576.234,144C466.781,144,384,232.5,384,343.969v30
	c0,0-37.219,11.695-37.219,44.789S359.344,528,392.766,528c16.641,0,16.641,0,16.641,0l56.531,145.945
	c10.031,33.094-9.466,87.527-23.156,103.98C382.312,850.207,240,839.156,240,938.484c0,54.984,0,110.953,0,110.953
	s0.091,36.205,145.834,49.629C401.276,807.562,543.439,715.102,683.514,686.045z"/>
<path d="M768,1091.578v-29.953c-49.822,6.387-97.664,19.406-134.514,42.375h9.36c51.173,0,92.517-1.986,126.079-5.18
	C768.782,1096.342,768,1094.109,768,1091.578z"/>
<path d="M870.562,319.125c22.315,23.531,34.969,55.125,34.969,89.719c0,31.078-7.263,67.688-19.406,97.875
	c-3.152,7.84-7.025,14.719-10.822,21.703c27.012,1.084,53.016,12.521,73.541,33.047l201.847,212.32
	c1.301-2.566,1.31-4.148,1.31-4.148s0-47.578,0-94.359c0-84.375-99.325-79.219-150.747-140.625
	c-11.628-14.016-28.219-75.281-19.737-103.406c0,0,48.144-95.25,48.144-143.25c0,0,0,0,14.06,0
	c28.406,0,41.558-45.516,41.558-73.688c0-28.125-29.276-18.844-29.276-18.844v-25.5C1056,75.188,979.896,0,886.854,0
	c-66.609,0-123.293,38.625-151.14,95.438c17.065,11.156,33.346,24.188,48.067,39C833.235,184.031,863.719,249,870.562,319.125z"/>
</svg>
