<?xml version="1.0" encoding="utf-8"?>
<!-- Generator: Adobe Illustrator 16.0.1, SVG Export Plug-In . SVG Version: 6.00 Build 0)  -->
<!DOCTYPE svg PUBLIC "-//W3C//DTD SVG 1.1//EN" "http://www.w3.org/Graphics/SVG/1.1/DTD/svg11.dtd">
<svg version="1.1" id="Layer_1" xmlns="http://www.w3.org/2000/svg" xmlns:xlink="http://www.w3.org/1999/xlink" x="0px" y="0px"
	 width="1152px" height="1152px" viewBox="0 0 1152 1152" enable-background="new 0 0 1152 1152" xml:space="preserve">
<path d="M864,576c-159.047,0-288,128.953-288,288s128.953,288,288,288s288-128.953,288-288S1023.047,576,864,576z M864,672
	c34.547,0,66.938,9.141,94.922,25.078L697.078,958.922C681.141,930.938,672,898.547,672,864C672,757.969,757.969,672,864,672z
	 M864,1056c-34.547,0-66.938-9.141-94.922-25.078l261.844-261.844C1046.859,797.062,1056,829.453,1056,864
	C1056,970.031,970.031,1056,864,1056z"/>
<path d="M211.172,798.656c29.578-24.188,64.078-39.094,94.547-52.312c22.688-9.844,48.188-20.812,60.141-31.594
	c2.672-6.609,5.578-17.25,6.562-24.656c-5.766-12.891-14.672-33.281-23.672-55.312c-7.5-18.469-13.5-34.219-18.188-47.812
	c-10.875-6.375-20.953-14.531-30-24.281c-13.875-14.906-25.5-33.75-34.406-55.875c-12.188-30.281-19.406-66.844-19.406-97.969
	c0-34.406,12.469-65.906,34.594-89.438c6.75-70.266,37.125-135.328,86.812-185.062c14.719-14.719,30.703-27.656,47.719-38.812
	C387.984,38.719,330.844,0,264.141,0C171.094,0,96.375,75.188,93.984,169.969v25.5c0,0-28.266,1.5-28.266,29.625
	c0,28.172,14.156,84.469,42.562,84.469c14.062,0,14.062,0,14.062,0c0,28.312,48.141,132.469,48.141,132.469
	c8.484,28.125-8.109,78.609-19.734,92.625C99.328,596.062,0,590.906,0,675.281c0,46.781,0,94.359,0,94.359s0,44.109,192.469,46.266
	C198.234,809.906,204.469,804.094,211.172,798.656z"/>
<path d="M480,864c0-185.906,132.844-341.297,308.531-376.453c13.969-22.266,17.016-57.281,17.016-78.703
	c0-33.094-37.547-34.875-37.547-34.875v-30C768,232.5,685.547,144,576.234,144C466.781,144,384,232.5,384,343.969v30
	c0,0-37.219,11.719-37.219,44.812S359.344,528,392.766,528c16.641,0,16.641,0,16.641,0l56.531,145.969
	c10.031,33.094-9.469,87.516-23.156,103.969C382.312,850.219,240,839.156,240,938.484c0,54.984,0,110.953,0,110.953
	S240,1104,509.438,1104h55.266C511.828,1038.188,480,954.797,480,864z"/>
<path d="M870.562,319.125c22.312,23.531,34.969,55.125,34.969,89.719c0,23.016-5.016,48.422-12,72.656
	c31.969,2.438,62.859,8.766,92.203,18.609c-5.719-19.5-9-53.062-4.219-68.859c0,0,48.141-95.25,48.141-143.25c0,0,0,0,14.062,0
	c28.406,0,41.531-45.516,41.531-73.688c0-28.125-29.25-18.844-29.25-18.844v-25.5C1056,75.188,979.875,0,886.875,0
	c-66.656,0-123.328,38.625-151.172,95.438c17.062,11.156,33.375,24.188,48.094,39C833.25,184.031,863.719,249,870.562,319.125z"/>
</svg>
