<?xml version="1.0" encoding="utf-8"?>
<!-- Generator: Adobe Illustrator 16.0.0, SVG Export Plug-In . SVG Version: 6.00 Build 0)  -->
<!DOCTYPE svg PUBLIC "-//W3C//DTD SVG 1.1//EN" "http://www.w3.org/Graphics/SVG/1.1/DTD/svg11.dtd">
<svg version="1.1" id="Layer_1" xmlns="http://www.w3.org/2000/svg" xmlns:xlink="http://www.w3.org/1999/xlink" x="0px" y="0px"
	 width="1152px" height="1152px" viewBox="0 0 1152 1152" enable-background="new 0 0 1152 1152" xml:space="preserve">
<path d="M510.216,1013.499C490.166,966.096,480,915.797,480,864c0-51.798,10.166-102.097,30.216-149.5
	c19.345-45.738,47.021-86.795,82.254-122.029c1.938-1.937,3.897-3.84,5.868-5.729c0.436-5.263,1.296-10.225,2.659-14.74
	c0,0,62.582-134.75,62.582-171.417c0,0,0,0,18.342,0c36.682,0,55.022-72.843,55.022-109.257C736.944,254.913,700,253,700,253v-33
	C696.884,97.317,600.5,0.001,480.175,0.001S263.116,97.317,260,220v33c0,0-36.594,1.912-36.594,38.327
	c0,36.413,18.34,109.257,55.021,109.257c18.342,0,18.342,0,18.342,0C296.769,437.25,359,572,359,572
	c10.998,36.414-10.469,101.798-25.55,119.862C266.964,771.375,96,764.689,96,873.931C96,934.383,96,996,96,996s0,60,310.812,60
	h124.562C523.486,1042.337,516.418,1028.162,510.216,1013.499z"/>
<path d="M864,576c-159.058,0-288,128.941-288,288c0,159.058,128.942,288,288,288c159.059,0,288-128.942,288-288
	C1152,704.941,1023.059,576,864,576z M864,672c34.529,0,66.927,9.121,94.924,25.076L697.077,958.923
	C681.121,930.926,672,898.529,672,864C672,757.961,757.962,672,864,672z M864,1056c-34.529,0-66.926-9.121-94.923-25.077
	l261.847-261.847C1046.879,797.073,1056,829.471,1056,864C1056,970.038,970.039,1056,864,1056z"/>
</svg>
