<?xml version="1.0" encoding="utf-8"?>
<!-- Generator: Adobe Illustrator 16.0.0, SVG Export Plug-In . SVG Version: 6.00 Build 0)  -->
<!DOCTYPE svg PUBLIC "-//W3C//DTD SVG 1.1//EN" "http://www.w3.org/Graphics/SVG/1.1/DTD/svg11.dtd">
<svg version="1.1" id="Layer_1" xmlns="http://www.w3.org/2000/svg" xmlns:xlink="http://www.w3.org/1999/xlink" x="0px" y="0px"
	 width="1152px" height="1152px" viewBox="0 0 1152 1152" enable-background="new 0 0 1152 1152" xml:space="preserve">
<path d="M496.159,1152C96,1152,96,1072.552,96,1072.552s0-53.225,0-119.173c0-119.172,247.598-111.879,320.127-198.62
	C432.579,735.052,455.997,663.725,444,624c0,0-67.889-147-67.889-187c0,0,0,0-20.01,0c-40.016,0-60.022-79.466-60.022-119.189
	C296.079,278.086,336,276,336,276v-36C339.399,106.164,444.928,0.001,576.191,0.001C707.454,0.001,812.601,106.164,816,240v36
	c0,0,40.303,2.087,40.303,41.811S836.295,437,796.278,437c-20.009,0-20.009,0-20.009,0c0,40-68.271,187-68.271,187
	c-11.996,39.725,11.611,111.061,28.062,130.768C808.593,841.509,1056,834.207,1056,953.379c0,65.948,0,119.173,0,119.173
	S1056.382,1152,656.223,1152H496.159z"/>
</svg>
