<?xml version="1.0" encoding="utf-8"?>
<!-- Generator: Adobe Illustrator 16.0.4, SVG Export Plug-In . SVG Version: 6.00 Build 0)  -->
<!DOCTYPE svg PUBLIC "-//W3C//DTD SVG 1.1//EN" "http://www.w3.org/Graphics/SVG/1.1/DTD/svg11.dtd">
<svg version="1.1" id="Layer_1" xmlns="http://www.w3.org/2000/svg" xmlns:xlink="http://www.w3.org/1999/xlink" x="0px" y="0px"
	 width="1152px" height="1152px" viewBox="0 0 1152 1152" enable-background="new 0 0 1152 1152" xml:space="preserve">
<path d="M192,0C96.281,0,30.047,0,23.953,0C-0.094,0,0,23.953,0,23.953V192h192V0z"/>
<path d="M983.062,0C966.375,0,580.875,0,288,0v192h720V23.953C1008,23.953,1008,0,983.062,0z"/>
<rect y="288" width="192" height="192"/>
<rect x="288" y="288" width="720" height="192"/>
<rect y="576" width="192" height="192"/>
<path d="M0,864v168.047c0,0,0,23.953,23.953,23.953c6.047,0,72.281,0,168.047,0V864H0z"/>
<rect x="288" y="576" width="192" height="192"/>
<path d="M480,879.75V864H288v192c112.5,0,245.719,0,368.25,0L480,879.75z"/>
<path d="M840,576H576v264l312,312l264-264L840,576z M720,780c-33.094,0-60-26.906-60-60s26.906-60,60-60s60,26.906,60,60
	S753.094,780,720,780z"/>
</svg>
