<?xml version="1.0" encoding="utf-8"?>
<!-- Generator: Adobe Illustrator 16.0.4, SVG Export Plug-In . SVG Version: 6.00 Build 0)  -->
<!DOCTYPE svg PUBLIC "-//W3C//DTD SVG 1.1//EN" "http://www.w3.org/Graphics/SVG/1.1/DTD/svg11.dtd">
<svg version="1.1" id="Layer_1" xmlns="http://www.w3.org/2000/svg" xmlns:xlink="http://www.w3.org/1999/xlink" x="0px" y="0px"
	 width="1152px" height="1152px" viewBox="0 0 1152 1152" enable-background="new 0 0 1152 1152" xml:space="preserve">
<path d="M512.109,1152C192,1152,192,1092.422,192,1092.422s0-39.891,0-89.391c0-89.344,198.07-83.906,256.102-148.969
	C461.25,839.297,480,785.766,470.391,756c0,0-54.281-110.25-54.281-140.25c0,0,0,0-16.008,0c-32.039,0-48.047-59.625-48.047-89.438
	C352.055,496.547,384,495,384,495v-27c2.695-100.359,87.141-180,192.141-180S765.281,367.641,768,468v27
	c0,0,32.25,1.547,32.25,31.312c0,29.812-16.031,89.438-48,89.438c-16.031,0-16.031,0-16.031,0c0,30-54.609,140.25-54.609,140.25
	c-9.609,29.766,9.281,83.297,22.406,98.062C762.094,919.125,960,913.688,960,1003.031c0,49.5,0,89.391,0,89.391
	S960.281,1152,640.219,1152H512.109z"/>
<path enable-background="new    " d="M1008,0c-48,0-816,0-864,0S96,48,96,48v768h212.297c22.641-6.938,51.539-16.125,64.781-23.859
	c1.172-3.328,2.273-7.172,3.023-10.547c-11.438-23.859-20.367-44.016-27.586-61.594H192V240h223.664
	c45.867-30,100.688-48,160.477-48c59.859,0,114.703,18,160.547,48H960v480H803.672c-7.266,17.578-16.219,37.734-27.703,61.594
	c0.75,3.516,1.969,7.594,3.234,11.016c12.047,6.984,41.578,16.359,64.594,23.391H1056V48C1056,48,1056,0,1008,0z M672,168
	c0,13.219-10.781,24-24,24h-48c-13.219,0-24-10.781-24-24v-48c0-13.219,10.781-24,24-24h48c13.219,0,24,10.781,24,24V168z M816,168
	c0,13.219-10.781,24-24,24h-48c-13.219,0-24-10.781-24-24v-48c0-13.219,10.781-24,24-24h48c13.219,0,24,10.781,24,24V168z M960,168
	c0,13.219-10.781,24-24,24h-48c-13.219,0-24-10.781-24-24v-48c0-13.219,10.781-24,24-24h48c13.219,0,24,10.781,24,24V168z"/>
</svg>
