<?xml version="1.0" encoding="utf-8"?>
<!-- Generator: Adobe Illustrator 16.0.4, SVG Export Plug-In . SVG Version: 6.00 Build 0)  -->
<!DOCTYPE svg PUBLIC "-//W3C//DTD SVG 1.1//EN" "http://www.w3.org/Graphics/SVG/1.1/DTD/svg11.dtd">
<svg version="1.1" id="Layer_1" xmlns="http://www.w3.org/2000/svg" xmlns:xlink="http://www.w3.org/1999/xlink" x="0px" y="0px"
	 width="1152px" height="1152px" viewBox="0 0 1152 1152" enable-background="new 0 0 1152 1152" xml:space="preserve">
<path enable-background="new    " d="M367.664,240c45.867-30,100.688-48,160.477-48c59.836,0,114.703,18,160.547,48H912v240.75
	c2.438-0.188,4.781-0.75,7.219-0.75c28.5,0,56.062,11.906,77.625,33.469L1008,525.188V48c0,0,0-48-48-48S144,0,96,0S48,48,48,48v768
	h212.297c22.641-6.938,51.539-16.125,64.781-23.859c1.172-3.328,2.273-7.172,3.023-10.547
	c-11.438-23.859-20.367-44.016-27.586-61.594H144V240H367.664z M816,120c0-13.219,10.781-24,24-24h48c13.219,0,24,10.781,24,24v48
	c0,13.219-10.781,24-24,24h-48c-13.219,0-24-10.781-24-24V120z M672,120c0-13.219,10.781-24,24-24h48c13.219,0,24,10.781,24,24v48
	c0,13.219-10.781,24-24,24h-48c-13.219,0-24-10.781-24-24V120z M528,120c0-13.219,10.781-24,24-24h48c13.219,0,24,10.781,24,24v48
	c0,13.219-10.781,24-24,24h-48c-13.219,0-24-10.781-24-24V120z"/>
<path d="M854.531,1127.953c-8.719-7.266-16.641-15.422-22.734-25.547c-10.453-17.344-15.797-37.125-15.797-58.828v-27.797
	c-116.812,20.953-163.312,80.672-186,135.75C745.594,1149.656,814.406,1139.484,854.531,1127.953z"/>
<path d="M677.719,659.625c6.094-16.688,10.5-35.625,10.5-35.625s0,0,16.031,0c31.969,0,48-63.75,48-93.562
	C752.25,500.672,720,495,720,495v-27c-2.719-100.359-86.859-180-191.859-180S338.695,367.641,336,468v27
	c0,0-31.945,5.672-31.945,35.438c0,29.812,16.008,93.562,48.047,93.562c16.008,0,16.008,0,16.008,0l54.281,136.125
	c9.609,29.766-9.141,81.234-22.289,96C342.07,921.188,144,913.688,144,1003.031c0,49.5,0,89.391,0,89.391S144,1152,432,1152
	C432.094,829.406,548.812,708.234,677.719,659.625z"/>
<path d="M912,720.375v-132c0-13.172,7.688-16.312,16.969-7.031L1152,816l-223.031,234.609c-9.281,9.375-16.969,6.188-16.969-7.031
	V912c-264,0-351.094,130.312-384,240C528,720,736.5,720.375,912,720.375z"/>
</svg>
