<?xml version="1.0" encoding="utf-8"?>
<!-- Generator: Adobe Illustrator 17.0.0, SVG Export Plug-In . SVG Version: 6.00 Build 0)  -->
<!DOCTYPE svg PUBLIC "-//W3C//DTD SVG 1.1//EN" "http://www.w3.org/Graphics/SVG/1.1/DTD/svg11.dtd">
<svg version="1.1" id="Layer_1" xmlns="http://www.w3.org/2000/svg" xmlns:xlink="http://www.w3.org/1999/xlink" x="0px" y="0px"
	 width="1152px" height="1152px" viewBox="0 0 1152 1152" enable-background="new 0 0 1152 1152" xml:space="preserve">
<path d="M624,508.271V48L336,288H96v384h240l71.906,59.918C445.277,630.387,524.062,548.88,624,508.271z"/>
<path d="M768,576c-159.097,0-288,128.952-288,288c0,159.096,128.903,288,288,288c158.999,0,288-128.904,288-288
	C1056,704.952,926.999,576,768,576z M768,660c41.154,0,79.406,12.187,111.47,33.139L597.095,975.47
	C576.186,943.406,564,905.155,564,864C564,751.31,655.31,660,768,660z M768,1068c-41.156,0-79.407-12.187-111.471-33.139
	L938.812,752.53C959.812,784.594,972,822.845,972,864C972,976.69,880.689,1068,768,1068z"/>
</svg>
