<?xml version="1.0" encoding="utf-8"?>
<!-- Generator: Adobe Illustrator 17.0.0, SVG Export Plug-In . SVG Version: 6.00 Build 0)  -->
<!DOCTYPE svg PUBLIC "-//W3C//DTD SVG 1.1//EN" "http://www.w3.org/Graphics/SVG/1.1/DTD/svg11.dtd">
<svg version="1.1" id="Layer_1" xmlns="http://www.w3.org/2000/svg" xmlns:xlink="http://www.w3.org/1999/xlink" x="0px" y="0px"
	 width="1152px" height="1152px" viewBox="0 0 1152 1152" enable-background="new 0 0 1152 1152" xml:space="preserve">
<path d="M697.707,406.284c-18.749-18.749-49.124-18.749-67.873,0c-18.749,18.754-18.749,49.129,0,67.878
	c27.188,27.188,42.164,63.376,42.164,101.863c0,38.482-14.976,74.627-42.164,101.815c-18.749,18.701-18.749,49.124,0,67.873
	c9.375,9.375,21.658,14.064,33.937,14.064c12.283,0,24.562-4.69,33.937-14.064C743.04,700.386,768,640.102,768,576.025
	C768,511.896,743.04,451.664,697.707,406.284z"/>
<path d="M833.671,270.509c-18.754-18.749-49.129-18.749-67.878,0s-18.749,49.129,0,67.878
	c130.994,131.018,131.018,344.21,0.024,475.228c-18.749,18.749-18.749,49.124,0,67.873c9.375,9.375,21.658,14.064,33.937,14.064
	c12.283,0,24.562-4.69,33.941-14.064C1002.116,713.02,1002.096,438.983,833.671,270.509z"/>
<polygon points="240,384 0,384 0,768 240,768 528,1008 528,144 "/>
</svg>
