<?xml version="1.0" encoding="utf-8"?>
<!-- Generator: Adobe Illustrator 16.0.0, SVG Export Plug-In . SVG Version: 6.00 Build 0)  -->
<!DOCTYPE svg PUBLIC "-//W3C//DTD SVG 1.1//EN" "http://www.w3.org/Graphics/SVG/1.1/DTD/svg11.dtd">
<svg version="1.1" id="Layer_1" xmlns="http://www.w3.org/2000/svg" xmlns:xlink="http://www.w3.org/1999/xlink" x="0px" y="0px"
	 width="1152px" height="1152px" viewBox="0 0 1152 1152" enable-background="new 0 0 1152 1152" xml:space="preserve">
<path d="M0,576c0,223.514,141.167,416.692,329.565,508.219L60.188,346.159C28.868,416.38,0,494.126,0,576z M957.214,547.493
	c0-69.81-25.071-118.135-46.547-155.732c-28.646-46.537-55.486-85.912-55.486-132.449c0-51.901,39.375-100.226,94.842-100.226
	c2.511,0,4.882,0.301,7.312,0.452C856.868,67.48,722.993,0,576,0C378.703,0,205.132,112.51,104.163,265.801
	c13.259,0.422,25.754,0.683,36.341,0.683c59.062,0,147.496,0.944,147.496,0.944c30.435-1.788,37.044,34.825,6.629,38.42
	c0,0-30.596,3.576-64.627,5.364l205.634,611.688l123.589-370.627l-87.971-241.061c-30.435-1.788-59.223-5.364-59.223-5.364
	c-30.435-1.798-31.058-40.208-0.603-38.42c0,0,97.413-0.944,152.899-0.944c59.062,0,155.672,0.944,155.672,0.944
	c30.436-1.788,28.868,34.825-1.547,38.42c0,0-30.636,3.576-64.627,5.364l204.066,607.028l56.351-188.196
	C942.87,656.679,957.214,595.808,957.214,547.493z M585.904,625.38l-169.433,492.348C467.056,1132.594,520.574,1152,576,1152
	c65.752,0,128.833-22.621,187.533-43.293c-1.507-2.431-2.913-4.981-4.058-7.774L585.904,625.38z M1071.522,305.066
	c2.431,17.98,3.816,37.275,3.816,58.068c0,57.295-10.747,121.701-42.971,202.259l-172.467,498.696
	C1027.788,966.214,1152,784.326,1152,576C1152,477.813,1115.598,385.493,1071.522,305.066z"/>
</svg>
