<?xml version="1.0" encoding="utf-8"?>
<!-- Generator: Adobe Illustrator 16.0.0, SVG Export Plug-In . SVG Version: 6.00 Build 0)  -->
<!DOCTYPE svg PUBLIC "-//W3C//DTD SVG 1.1//EN" "http://www.w3.org/Graphics/SVG/1.1/DTD/svg11.dtd">
<svg version="1.1" id="Layer_1" xmlns="http://www.w3.org/2000/svg" xmlns:xlink="http://www.w3.org/1999/xlink" x="0px" y="0px"
	 width="1152px" height="1152px" viewBox="0 0 1152 1152" enable-background="new 0 0 1152 1152" xml:space="preserve">
<path d="M228,0h75.941l48.922,195.125h4.732L404.247,0h76.61l-87.75,285.6V480h-75.403V294.721L228,0z M480.664,211.431
	c0-27.891,8.898-50.096,26.708-66.625C525.185,128.267,549.112,120,579.175,120c27.372,0,49.799,8.723,67.271,26.152
	c17.477,17.429,26.218,39.866,26.218,67.311v179.681c0,30.82-8.574,54.997-25.714,72.54C629.81,483.227,606.213,492,576.164,492
	c-28.938,0-52.095-9.061-69.453-27.161c-17.367-18.101-26.047-42.45-26.047-73.044V211.431z M548.731,398.539
	c0,9.918,2.347,17.562,7.063,22.968c4.708,5.4,11.428,8.091,20.178,8.091c8.972,0,16.085-2.751,21.359-8.263
	c5.27-5.52,7.908-13.112,7.908-22.796V208.727c0-7.872-2.703-14.227-8.078-19.063c-5.377-4.833-12.438-7.258-21.189-7.258
	c-8.066,0-14.631,2.425-19.675,7.258c-5.047,4.836-7.567,11.192-7.567,19.063L548.731,398.539L548.731,398.539z M912,144v336.11
	h-66.951v-39.754c-12.344,14.646-25.178,25.812-38.524,33.47c-13.342,7.646-26.303,11.483-38.86,11.483
	c-15.473,0-27.148-5.352-35-16.079c-7.849-10.721-11.771-26.802-11.771-48.241V144h66.954v252.045
	c0,8.543,1.402,14.715,4.203,18.533c2.802,3.82,7.347,5.733,13.63,5.733c4.935,0,11.146-2.524,18.671-7.578
	c7.515-5.062,14.411-11.52,20.698-19.389V144H912z M648.055,794.227c-3.941,0-7.845,0.969-11.694,2.87
	c-3.851,1.921-8.604,2.897-12.359,6.903v180c4.503,4.745,9.822,11.837,14.052,13.921c4.229,2.097,8.686,3.136,13.383,3.136
	c6.764,0,11.739-2.045,14.93-6.142C669.548,990.819,672,981.296,672,972V828c0-9.835-2.82-21.017-6.771-26.112
	C661.292,796.785,655.554,794.227,648.055,794.227z M840.719,800.321c-8.803,0-15.121,2.643-18.961,7.927
	c-3.842,5.284-5.758,14.035-5.758,26.232V864h48v-24c0-12.198-1.032-26.468-4.872-31.752
	C855.284,802.964,849.148,800.321,840.719,800.321z M1001.88,708c0-70.41-59-127.542-131.7-127.542
	c-103.756-4.241-161.886-6.13-270.174-5.937c-108.289-0.193-214.45,1.695-318.216,5.937c-72.695,0-131.693,57.132-131.693,127.542
	c-4.363,55.764-6.258,87.447-6.086,143.212c-0.168,55.767,1.723,111.53,6.09,167.302c0,70.41,58.994,127.545,131.692,127.545
	c103.762,4.245,209.923,6.129,318.212,5.928c108.288,0.201,166.418-1.683,270.174-5.928c72.7,0,125.782-54.059,131.7-127.545
	c6.082-82.514,6.255-111.535,6.082-167.302C1008.135,795.447,1006.238,763.764,1001.88,708z M336,1056h-48V720h-72v-48h192v48h-72
	V1056z M528,1056h-48v-36c-10.198,11.86-16.138,20.504-27.174,26.704c-11.026,6.187-21.735,9.296-32.112,9.296
	c-12.789,0-22.434-4.337-28.921-13.017c-6.487-8.687-7.794-17.625-7.794-34.983V768h48v216c0,6.914,6.549,11.639,8.866,14.729
	c2.318,3.097,6.072,4.643,11.265,4.643c4.078,0,9.217-2.039,15.429-6.135c6.209-4.09,7.249-6.868,12.44-13.236V768h48L528,1056
	L528,1056z M720,984c0,36-12,72-48,72c-24,0-40.733-27.119-48-36v36h-48V624h48v156c7.452-8.9,16.323-20.498,24.702-25.14
	c8.392-4.63,16.874-6.946,25.449-6.946c17.505,0,24.628,7.635,33.849,20.086c9.229,12.451,12,24.182,12,48V984z M910.168,912h-96v48
	c0,0,0,48,24,48s24-48,24-48h48c0,24-12,96-72,96S768,988.924,768,960.859V829.99c0-25.312,10.168-85.99,70.168-85.99
	c61.832,0,72,56.332,72,84V912L910.168,912z"/>
</svg>
