<?xml version="1.0" standalone="no"?>
<!DOCTYPE svg PUBLIC "-//W3C//DTD SVG 1.1//EN" "http://www.w3.org/Graphics/SVG/1.1/DTD/svg11.dtd" >
<!--
2013-7-12: Created.
-->
<svg xmlns="http://www.w3.org/2000/svg">
<metadata>
Created by FontForge 20120731 at Fri Jul 12 15:13:27 2013
 By Aaron Brownlee
Created by Aaron Brownlee with FontForge 2.0 (http://fontforge.sf.net)
</metadata>
<defs>
<font id="AdobeIcons" horiz-adv-x="512" >
  <font-face 
    font-family="AdobeIcons"
    font-weight="500"
    font-stretch="normal"
    units-per-em="512"
    panose-1="2 0 6 9 0 0 0 0 0 0"
    ascent="448"
    descent="-64"
    bbox="-0.0869141 -64.0439 512.004 448.044"
    underline-thickness="25.6"
    underline-position="-51.2"
    unicode-range="U+F100-F26A"
  />
    <missing-glyph />
    <glyph glyph-name="uniF100" unicode="&#xf100;" 
d="M52.9326 245.377l203.023 -202.58l202.58 202.58l53.4199 -53.4209l-256 -256l-256 256zM52.9326 448.044l203.023 -202.58l202.58 202.58l53.4199 -53.4209l-256 -256l-256 256z" />
    <glyph glyph-name="uniF101" unicode="&#xf101;" 
d="M309.333 395.024l-202.58 -203.024l202.58 -202.58l-53.4199 -53.4199l-256 256l256 256zM512 395.024l-202.58 -203.024l202.58 -202.58l-53.4199 -53.4199l-256 256l256 256z" />
    <glyph glyph-name="uniF102" unicode="&#xf102;" 
d="M202.58 395.024l53.4199 52.9756l256 -256l-256 -256l-53.4199 53.4199l202.579 202.58zM-0.0869141 395.024l53.4199 52.9756l256 -256l-256 -256l-53.4199 53.4199l202.58 202.58z" />
    <glyph glyph-name="uniF103" unicode="&#xf103;" 
d="M458.98 138.623l-203.024 202.58l-202.579 -202.58l-53.4209 53.4209l256 256l256 -256zM458.98 -64.0439l-203.024 202.58l-202.579 -202.58l-53.4209 53.4209l256 256l256 -256z" />
    <glyph glyph-name="uniF104" unicode="&#xf104;" 
d="M362.667 170.667l141.847 -141.851c9.98145 -9.98242 9.98145 -26.3145 0 -36.2969l-27.7012 -27.7002c-9.98047 -9.98145 -26.3135 -9.98145 -36.2949 0l-141.851 141.848zM506.667 410.667c0 0 5.33301 -5.33398 5.33301 -16c0 -10.667 -5.33301 -16 -5.33301 -16
l-37.334 -37.334l-64 64l37.334 37.334s5.33301 5.33301 16 5.33301c10.666 0 16 -5.33301 16 -5.33301zM437.335 309.333l-277.33 -277.331l-64 64l277.331 277.33zM128 0c0 0 -122.444 -64 -122.667 -64c-5.33301 0 -5.33301 0 -5.33301 5.33301l64 122.667zM279.272 448
h83.3945v-42.667h-64c-21.334 0 -64 -10.666 -64 -42.666v-64l-64 -64h-42.667l-43.7549 -43.7559c2.625 -8.7666 0.494141 -18.6855 -6.39746 -25.5781l-8.51465 -8.51367c-9.98145 -9.98145 -26.3135 -9.98145 -36.2949 0l-25.5518 27.6982
c-9.98145 9.98145 -9.98145 24.168 0 34.1494l8.51367 8.51367c6.89258 6.89258 16.8115 9.02246 25.5781 6.39746l43.7549 43.7549v80s69.8184 90.667 193.939 90.667z" />
    <glyph glyph-name="uniF105" unicode="&#xf105;" 
d="M256 448c141.385 0 256 -114.615 256 -256s-114.615 -256 -256 -256s-256 114.615 -256 256s114.615 256 256 256zM426.667 149.333v85.334h-128v128h-85.334v-128h-128v-85.334h128v-128h85.334v128h128z" />
    <glyph glyph-name="uniF106" unicode="&#xf106;" 
d="M490.667 256v-106.667h-192v-192h-106.667v192h-192v106.667h192v192h106.667v-192h192z" />
    <glyph glyph-name="uniF107" unicode="&#xf107;" 
d="M352 277.333h145.125c9.45801 -26.6875 14.875 -55.375 14.875 -85.333c0 -47.3125 -13.042 -91.4375 -35.417 -129.479zM160 106.667h-143.061c-11.5225 34.2217 -16.9395 55.2881 -16.9395 85.2891c0 47.2705 13.0518 91.4814 35.3965 129.502zM234.667 320
l75.166 126.5c74.9375 -16.0625 137.646 -62.5 172.5 -126.5h-247.666zM277.333 64l-75.166 -126.5c-74.9375 16.083 -137.646 62.5 -172.5 126.5h247.666zM137.771 239.771l-71.4375 123.729c46.834 51.7705 114.354 84.5 189.667 84.5
c0.625 0 1.27051 -0.103516 1.89648 -0.103516zM374.25 144.229l71.417 -123.729c-46.834 -51.7705 -114.354 -84.5 -189.667 -84.5c-0.635742 0 -1.27246 0.104492 -1.89648 0.104492z" />
    <glyph glyph-name="uniF108" unicode="&#xf108;" 
d="M256 448c141.396 0 256 -114.625 256 -256s-114.604 -256 -256 -256c-141.417 0 -256 114.625 -256 256s114.583 256 256 256zM106.208 48.958v100.375h-42.208v-35.166l1.125 -2.75098c9.83398 -23.2285 23.6465 -44.208 41.083 -62.458zM175.375 1.16699
c5.5 -2.33398 11.042 -4.41699 16.709 -6.25098l-0.0839844 218.417h-42.667l-0.0205078 -198.917c8.35449 -5 17.0205 -9.41602 26.0625 -13.249zM224.729 238.583l3.83301 2.75l120.396 86.167l58.3125 -55.083l5.60449 -5.33301l6.04102 4.8125l28.209 22.541
c-0.104492 0.229492 -0.1875 0.458984 -0.291992 0.6875c-3.74902 8.875 -8.08301 17.375 -12.9785 25.583l-20.1875 -16l-56.626 52.8125l-5.29102 4.95898l-5.91699 -4.22949l-124.437 -88.8965l-55.1465 21.3965l-5.75 2.25l-4.10352 -4.625l-64.5635 -72.792
l-38.833 -9.14551l-3.91602 -0.916992c0.374023 -9.14551 1.37402 -18.1875 2.91602 -27.1035l5 1.14551l46.75 10.625l2.8125 0.645508l1.91699 2.1875l58.3545 67.0625l53.458 -19.8545zM277.042 -14.0625l0.291016 227.396h-42.666v-227.375
c7.04102 -0.708008 14.166 -1.0625 21.333 -1.0625c7.08398 0 14.1045 0.354492 21.042 1.04199zM336.583 1.16699c9.16699 3.83301 17.9795 8.33301 26.417 13.458l-0.333008 241.375h-42.667v-261.042c5.58301 1.83398 11.125 3.875 16.583 6.20898zM446.833 111.417
c0.416992 0.916016 0.791992 1.83301 1.16699 2.75v120.5h-42.667v-186.167c17.667 18.3545 31.625 39.5 41.5 62.917z" />
    <glyph glyph-name="uniF109" unicode="&#xf109;" 
d="M256 64.875c11.167 0 21.625 -4.33301 29.4795 -12.208c2.85352 -2.83398 5.875 -5.41699 9.02051 -7.72949c-8.625 -11.959 -22.6455 -19.75 -38.5 -19.75s-29.875 7.79199 -38.5 19.75c3.16699 2.3125 6.16699 4.89551 9.02051 7.75
c7.85449 7.85449 18.3545 12.1875 29.4795 12.1875zM136.625 120.084c26.1875 0 47.4785 -21.2715 47.4795 -47.4375c0 -1.60449 0.0625 -3.1875 0.145508 -4.75c-4.04199 -1.29199 -8.3125 -1.95898 -12.666 -1.95898c-11.167 0 -21.625 4.3125 -29.5 12.167
c-7.87598 7.83301 -12.209 18.333 -12.209 29.5c0 4.35449 0.666992 8.625 1.95801 12.6455c1.58301 -0.103516 3.1875 -0.166016 4.79199 -0.166016zM256 319.146c-11.167 0 -21.625 4.33398 -29.4795 12.209c-2.85352 2.83398 -5.875 5.41699 -9.02051 7.75
c8.625 11.9375 22.667 19.708 38.5 19.708s29.875 -7.77051 38.5 -19.708c-3.16699 -2.33301 -6.16699 -4.91699 -9.02051 -7.75c-7.85449 -7.875 -18.3545 -12.209 -29.4795 -12.209zM136.625 263.938c-1.60449 0 -3.20801 -0.0625 -4.79199 -0.166992
c-1.27051 4.04102 -1.9375 8.3125 -1.9375 12.666c0 11.167 4.33301 21.625 12.208 29.5c7.85449 7.875 18.3545 12.209 29.5 12.209c4.35449 0 8.625 -0.666992 12.6465 -1.95801c-0.104492 -1.58398 -0.166992 -3.1875 -0.166992 -4.79199
c0 -26.167 -21.291 -47.458 -47.458 -47.458zM108.916 230.521c2.33398 -3.16602 4.89648 -6.16602 7.70898 -9.02051c7.89551 -7.85449 12.2295 -18.3545 12.2295 -29.5s-4.33398 -21.6035 -12.1875 -29.4795c-2.83398 -2.83301 -5.43848 -5.875 -7.75098 -9.04102
c-11.9795 8.66602 -19.75 22.6875 -19.75 38.541c0 15.8545 7.77148 29.876 19.75 38.5zM340.396 318.125c11.1455 0 21.6455 -4.33301 29.5195 -12.25c7.87598 -7.875 12.209 -18.3545 12.209 -29.458c0 -4.35449 -0.666992 -8.64551 -1.95801 -12.6875
c-1.58301 0.125 -3.1875 0.1875 -4.79199 0.1875c-26.1875 0 -47.4785 21.291 -47.4785 47.458c0 1.625 -0.0634766 3.22949 -0.188477 4.8125c4.06348 1.27051 8.33398 1.9375 12.6885 1.9375zM256 448c141.396 0 256 -114.625 256 -256s-114.604 -256 -256 -256
c-141.417 0 -256 114.625 -256 256s114.583 256 256 256zM414.333 131.583c19.834 12.8545 32.9385 35.1465 32.9385 60.459s-13.1465 47.6035 -32.9795 60.4375c2.47949 7.62402 3.79199 15.708 3.79199 23.9785c-0.0419922 20.7295 -8.10449 40.2295 -22.751 54.917
c-14.708 14.6455 -34.208 22.7285 -54.9365 22.7285c-8.27148 0 -16.3545 -1.29102 -24 -3.77051c-12.8135 19.8125 -35.1045 32.959 -60.3965 32.959c-25.333 0 -47.583 -13.1465 -60.4375 -32.9795c-7.64648 2.47949 -15.6875 3.79102 -23.9795 3.79102
c-20.708 0 -40.2285 -8.08301 -54.9375 -22.75c-14.625 -14.6455 -22.7295 -34.125 -22.7295 -54.916c0 -8.29199 1.29199 -16.334 3.8125 -24c-19.8535 -12.834 -32.9785 -35.084 -32.9785 -60.417s13.125 -47.625 32.9785 -60.4375
c-2.45801 -7.64551 -3.77051 -15.6875 -3.77051 -23.9795c0 -20.707 8.0625 -40.2285 22.75 -54.9365c14.6465 -14.6465 34.167 -22.7295 54.917 -22.7295c8.29102 0 16.375 1.29102 24 3.77051c12.833 -19.8545 35.083 -32.9795 60.3955 -32.9795
c25.3135 0 47.6045 13.125 60.417 32.9795c7.64648 -2.47949 15.7295 -3.77051 24 -3.77051c20.7295 0 40.2705 8.08301 54.917 22.7295c14.6455 14.6455 22.7295 34.1865 22.7295 54.9365c0 8.29199 -1.29199 16.334 -3.75098 23.9795zM347.125 192.021
c0 -17.833 5.97852 -34.708 16.917 -48.375c-30.583 -4.875 -54.792 -29.083 -59.667 -59.708c-13.6875 10.958 -30.5625 16.916 -48.3545 16.916c-17.791 0 -34.666 -5.95801 -48.3535 -16.916c-4.875 30.625 -29.084 54.833 -59.667 59.708
c10.9375 13.667 16.875 30.5215 16.875 48.3545c0 17.792 -5.9375 34.667 -16.875 48.3545c30.5625 4.875 54.7705 29.1035 59.625 59.666c13.708 -10.9375 30.583 -16.875 48.375 -16.875s34.667 5.97949 48.375 16.917c4.85449 -30.6045 29.0625 -54.833 59.625 -59.708
c-10.9375 -13.667 -16.875 -30.542 -16.875 -48.334zM403.084 230.521c11.958 -8.62402 19.75 -22.6455 19.75 -38.5c0 -15.8535 -7.77148 -29.875 -19.75 -38.541c-2.3125 3.1875 -4.89648 6.16602 -7.72949 9c-7.875 7.875 -12.209 18.417 -12.209 29.541
c0 11.167 4.33398 21.625 12.209 29.4795c2.83301 2.85449 5.41699 5.875 7.72949 9.02051zM375.375 120.084c1.60449 0 3.20801 0.0615234 4.79199 0.145508c1.27051 -4.04102 1.9375 -8.29102 1.9375 -12.6455c0 -11.1875 -4.33301 -21.6455 -12.1875 -29.5
c-7.875 -7.85449 -18.375 -12.167 -29.5 -12.167c-4.35449 0 -8.64551 0.666992 -12.667 1.9375c0.104492 1.60449 0.166992 3.1875 0.166992 4.79199c0 26.166 21.291 47.4375 47.458 47.4375z" />
    <glyph glyph-name="uniF10A" unicode="&#xf10a;" 
d="M108.75 173.5v0.0419922h111.25l-103.749 -102.584c-13.626 16.042 -24.251 34.1045 -31.751 53.792c-8.37402 21.791 -12.499 44.75 -12.249 68.25c0.125 23.458 4.625 46.375 13.249 68.083c7.75 19.583 18.625 37.458 32.5 53.333l20.25 -20.666
c-10.75 -12.375 -19.375 -26.208 -25.875 -41.292c-8.25 -19.3955 -12.5 -40.041 -12.5 -61.25v-8.83301v-8.875h8.875zM376.875 173.5c-3.75 -24.8965 -15.375 -48.167 -33.25 -66.3125c-17.875 -18.083 -40.75 -30.0205 -66.292 -34.167v100.479h99.542zM150.375 243.667
c5.875 12.249 13.875 23.3535 23.625 32.958c9.75 9.54199 21.125 17.333 33.625 23.083c9.875 4.54199 20.375 7.75 31.125 9.5v-95.875h-98.125c1.875 10.25 5.125 20.5635 9.75 30.334zM256 448c141.375 0 256 -114.625 256 -256s-114.625 -256 -256 -256
s-256 114.625 -256 256s114.625 256 256 256zM409.125 38.4795c84.125 83.2705 85.125 219.729 2.125 304.124l-3.625 3.72949l-6.25 6.41699l-6.375 -6.29199l-117.667 -117.125v119.334h-8.08301h-11.5v0v0c-21.25 -0.104492 -41.874 -4.33398 -61.25 -12.5635
c-13.75 -5.8125 -26.375 -13.4375 -37.875 -22.75l-34.5 35.0625l-6.24902 6.37598l-6.37598 -6.27148l-3.75 -3.72852c-40.75 -40.3125 -63.375 -94.167 -63.875 -151.604c-0.375 -57.4375 21.5 -111.604 61.75 -152.521l3.75098 -3.75l6.24902 -6.35449l6.25 6.27051
l116.875 115.521v-108.896v-8.875h8.875h11.5v0v0c37.5 0.1875 71.875 13.458 99 35.5l34.625 -35.209l6.25 -6.35449l6.375 6.27148zM432.375 258.583c8.375 -21.8125 12.5 -44.7705 12.2295 -68.2705c-0.125 -23.4795 -4.625 -46.3955 -13.2295 -68.083
c-7.75 -19.584 -18.625 -37.4795 -32.5 -53.3545l-20.5 20.917c24.25 28.166 37.875 62.1045 37.625 102.208v10.667v10.666h-7.875h-109.458l101.958 99.0205c13.625 -16.0205 24.25 -34.1035 31.75 -53.7705z" />
    <glyph glyph-name="uniF10B" unicode="&#xf10b;" 
d="M133.5 283.125v0.0830078l92.1035 43.7715c6.64648 -6.08398 15.2715 -9.58301 24.4375 -9.70898l32.292 -82.2705c-0.833008 -0.791992 -1.625 -1.58301 -2.33301 -2.45801zM348.458 303.75c0.25 -5.875 1.83398 -11.542 4.66699 -16.583l-34.875 -43.583
c-3.29199 0.958008 -6.625 1.5 -10 1.54102l-32.292 82.292c0.666992 0.666992 1.33398 1.29102 1.95801 2zM283.708 180.146c3.54199 -3.02051 7.625 -5.375 12.042 -6.85352l5.75 -102.333c-4.91699 -2.39648 -9.25 -5.8125 -12.708 -10.0215l-148.521 45.7705z
M270.875 206.208c0.0410156 -0.416016 0.0410156 -0.833008 0.0830078 -1.25l-143.458 -73.4375c-3.375 2.85449 -7.25 5.16699 -11.417 6.66699l-4.25 109.312c4.79199 2.16699 9.08398 5.33301 12.542 9.29199zM374.958 269.75
c0.958008 -0.291992 1.95801 -0.541992 2.95898 -0.791992l17.583 -94.666c-0.458008 -0.354492 -0.958008 -0.604492 -1.41602 -0.958984l-49.709 30c0.208984 1.625 0.333008 3.25098 0.333008 4.83398c0 6.33301 -1.62402 12.5 -4.70801 17.958zM378.792 148.021
c-0.208984 -1.62402 -0.291992 -3.1875 -0.291992 -4.83301c0 -5.4375 1.16699 -10.7295 3.45898 -15.584l-51.542 -55.458c-0.375 0.125977 -0.708984 0.250977 -1.08398 0.375l-5.79199 102.292c1.95898 0.916992 3.79199 2 5.54199 3.20801zM512 192
c0 -141.375 -114.583 -256 -256 -256s-256 114.625 -256 256s114.583 256 256 256s256 -114.625 256 -256zM452.375 143.208c0 17.792 -12.667 32.709 -29.458 36.167l-17.625 94.709c10.458 6.64551 17.042 18.3125 17.042 31.0205
c0 20.375 -16.583 36.8955 -36.958 36.8955c-10.5 0 -20.376 -4.5 -27.334 -12.1035l-70.625 25.6875c-0.708008 19.708 -17 35.542 -36.875 35.542c-20.3535 0 -36.875 -16.583 -36.875 -36.917c0 -0.708008 0 -1.35352 0.0419922 -2.08301l-92.1875 -43.75
c-6.72949 6.16602 -15.5625 9.70801 -24.875 9.70801c-20.3965 0 -36.9795 -16.583 -36.9795 -36.958c0 -15.792 10.042 -29.5 24.333 -34.667l4.20898 -109.271c-12.9375 -5.875 -21.709 -18.9795 -21.709 -33.667c0 -20.375 16.542 -36.916 36.917 -36.916
c11.2705 0 21.667 5.04199 28.583 13.542l148.583 -45.751c1.625 -18.875 17.5 -33.708 36.792 -33.708c20.333 0 36.875 16.583 36.875 36.958c0 5.375 -1.20898 10.667 -3.41699 15.542l51.542 55.5c4.125 -1.58301 8.54102 -2.375 13.041 -2.375
c20.376 -0.0429688 36.959 16.5195 36.959 36.8945z" />
    <glyph glyph-name="uniF10C" unicode="&#xf10c;" 
d="M258.042 283.979c-17.8965 0 -32.4375 14.541 -32.4375 32.417c0 17.875 14.542 32.416 32.4375 32.416c17.875 0 32.417 -14.541 32.417 -32.416c0 -17.876 -14.543 -32.417 -32.417 -32.417zM134.146 224.916c17.875 0 32.4375 -14.5205 32.4375 -32.3955
s-14.5625 -32.417 -32.4375 -32.417c-17.874 0 -32.4375 14.542 -32.4375 32.417s14.5625 32.3955 32.4375 32.3955zM256.042 103.042c17.8545 0 32.375 -14.5215 32.375 -32.3965s-14.5205 -32.417 -32.375 -32.417c-17.8955 0 -32.458 14.542 -32.458 32.417
s14.5615 32.3965 32.458 32.3965zM512 192c0 -141.375 -114.604 -256 -256 -256c-141.417 0 -256 114.625 -256 256s114.583 256 256 256c141.396 0 256 -114.625 256 -256zM447.417 192.521c0 38.125 -31.042 69.125 -69.167 69.125s-69.166 -31 -69.166 -69.125
c0 -14.5625 4.66602 -28.624 13.249 -40.4365l-25.708 -25.709c-6.6875 4.89648 -14.209 8.5 -22.209 10.709v112.458c30.584 7.39551 52.792 34.875 52.792 66.8545c0 38.124 -31.042 69.1455 -69.167 69.1455s-69.166 -31.0215 -69.166 -69.1455
c0 -9.125 1.91602 -18.084 5.66602 -26.7295l-33.666 -33.6465c-8.625 3.75098 -17.6045 5.66699 -26.7295 5.66699c-38.125 0 -69.1455 -31.042 -69.1455 -69.167c0 -38.1035 31.0205 -69.124 69.1455 -69.124s69.1455 31.0205 69.1455 69.124
c0 14.6465 -4.70801 28.792 -13.375 40.625l27.5 27.4795c6.20801 -4.54199 13 -8 20.208 -10.209v-113.312c-13.083 -3.64551 -24.9785 -11.1035 -33.9785 -21.4785c-10.792 -12.4795 -16.7705 -28.458 -16.7705 -44.9795c0 -38.125 31.041 -69.166 69.166 -69.166
c38.1045 0 69.125 31.041 69.125 69.166c0 9.10449 -1.91602 18.042 -5.66602 26.667l31.75 31.7705c8.6875 -3.79102 17.7295 -5.72949 27 -5.72949c38.125 0.0214844 69.167 31.043 69.167 69.167zM360.583 192c0 11.8125 9.54199 21.333 21.333 21.333
c11.792 0 21.334 -9.52051 21.334 -21.333c0 -11.792 -9.54199 -21.333 -21.334 -21.333c-11.791 0 -21.333 9.54102 -21.333 21.333z" />
    <glyph glyph-name="uniF10D" unicode="&#xf10d;" 
d="M509.356 -21.333c5.33301 -10.667 5.33301 -42.667 -26.667 -42.667h-453.379s-32 26.667 -26.667 37.333c5.33398 10.667 221.356 442.667 221.356 442.667s16 32 32 32s32 -32 32 -32s216.022 -426.667 221.356 -437.333zM218.667 288v-32
c0 -48 14.7295 -134.594 16 -146.729c0.645508 -1.73926 1.91602 -2.60352 4.47852 -2.60352h33.709c3.83301 0 4.47852 1.30078 4.47852 2.60352c2.56348 13 16 98.7295 16 146.729v34c0 1.30176 -1.14551 3.46875 -4.35352 4.77051
c-7.02148 2.16699 -20.834 3.89648 -33.625 3.89648c-9.58398 0 -25.3545 -2.16699 -33.0215 -5.19824c-3.1875 -1.30176 -3.66602 -3.73926 -3.66602 -5.46875zM256 -6.66699c21.3545 0 38.667 17.3125 38.667 38.667s-17.3125 38.667 -38.667 38.667
s-38.667 -17.3125 -38.667 -38.667s17.3125 -38.667 38.667 -38.667z" />
    <glyph glyph-name="uniF10E" unicode="&#xf10e;" 
d="M213.959 49.376c1.41699 -17 5.375 -33.542 11.792 -49.375h-197.667c-30.666 0 -30.666 26.667 -25.541 37.333c5.10449 10.667 190.791 378.666 190.791 378.666s15.333 32 30.666 32c15.334 0 30.667 -32 30.667 -32s47.167 -92.125 94.6055 -184.875
c-10.8135 -2.22852 -21.4385 -5.54102 -31.7295 -9.875c-20.3125 -8.625 -38.5625 -20.916 -54.209 -36.583c-15.666 -15.6455 -27.958 -33.8955 -36.583 -54.208c-1.08301 -2.58301 -2.08301 -5.1875 -3.04199 -7.79102c-20.5 -0.166992 -37.041 -16.8125 -37.041 -37.334
c0 -17.125 11.541 -31.5615 27.291 -35.958zM193.938 314.792c-2.45801 -1.29199 -1.93848 -3.72949 -1.93848 -5.45898v-32c0 -36.417 7.375 -91.917 8.33301 -104.062c0.5 -1.72852 1.5 -2.60352 3.45898 -2.60352h39.416c2.95898 0 3.45898 1.29102 3.45898 2.60352
c1.95801 13 9.33301 67.6455 9.33301 104.062v34c0 1.29199 0 3.45898 -2.45801 4.77051c-5.41699 2.16699 -20.166 3.89648 -30.042 3.89648c-7.37402 0 -23.6455 -2.16699 -29.5615 -5.20801zM384 192c70.6875 0 128 -57.3115 128 -127.999s-57.3125 -128 -128 -128
s-128 57.3125 -128 128s57.3125 127.999 128 127.999zM469.333 42.668v42.666h-64v64h-42.666v-64h-64v-42.666h64v-64h42.666v64h64z" />
    <glyph glyph-name="uniF10F" unicode="&#xf10f;" 
d="M270.83 351.819l-35.334 89.585c-2.29199 5.45801 0.333008 8.02051 5.70801 5.79102l249.463 -84.5225l-106.669 -251.941c-2.22949 -5.4375 -5.89551 -5.39551 -8.16602 0l-43.2715 93.4814c-204.566 -76.21 -253.046 -212.857 -247.233 -268.213
c-31.209 67.584 -42.667 123.689 -42.667 170.669c-0.000976562 128.003 129.105 203.754 228.17 245.15z" />
    <glyph glyph-name="uniF110" unicode="&#xf110;" 
d="M469.333 170.667l21.334 -149.334l-47.751 23.875c-19.749 -62.375 -100.499 -109.208 -197.583 -109.208c-97.083 0 -177.833 46.833 -197.583 109.208l-47.75 -23.875l21.333 149.334l149.334 -64l-64 -32.001c1.96484 -29.7393 45.3623 -63.9268 106.666 -72.4717
v211.139h-85.333v42.667h85.333v50.125c-25.1455 12.0205 -42.666 37.4785 -42.666 67.208c0 41.25 33.4365 74.667 74.666 74.667s74.667 -33.417 74.667 -74.667c0 -29.7295 -17.5205 -55.1875 -42.667 -67.208v-50.125h85.334v-42.667h-85.334v-211.139
c61.3047 8.54492 104.702 42.7334 106.667 72.4727l-64 32zM208 373.333c0 -20.583 16.75 -37.333 37.333 -37.333s37.334 16.75 37.334 37.333s-16.751 37.334 -37.334 37.334s-37.333 -16.751 -37.333 -37.334z" />
    <glyph glyph-name="uniF111" unicode="&#xf111;" 
d="M85.333 117.333c0 -17.6729 -14.3262 -32 -32 -32v0c-17.6729 0 -32 14.3271 -32 32v149.334c0 17.6729 14.3271 32 32 32v0c17.6729 0 32 -14.3271 32 -32v-149.334zM469.333 117.332c0 -17.6768 -14.333 -32 -32 -32v0c-17.666 0 -32 14.3232 -32 32v149.333
c0 17.6768 14.334 32 32 32v0c17.667 0 32 -14.3232 32 -32v-149.333zM106.667 256h277.333v-192.001s-21.3359 -21.332 -21.3359 -21.332h-21.3311v-74.667c0 -17.6035 -14.3955 -32 -32 -32c-17.6035 0 -32 14.3965 -32 32v74.667h-64v-74.667
c0 -17.6035 -14.3955 -32 -32 -32c-17.6035 0 -32 14.3965 -32 32v74.667h-21.333s-21.333 -0.000976562 -21.333 21.332v192.001zM106.666 277.333c2.58398 34.2227 17.625 64.7178 40.5205 87.4775l-56.7705 56.7803s-11.125 11.1143 -0.458008 21.7812
c10.666 10.667 21.791 -0.448242 21.791 -0.448242l59.167 -59.166c21.541 13.6562 47.083 21.5732 74.416 21.5732s52.875 -7.91699 74.416 -21.5732l59.167 59.167s11.125 11.1143 21.791 0.447266c10.667 -10.666 -0.458008 -21.7803 -0.458008 -21.7803
l-56.7705 -56.7812c22.8955 -22.7598 37.9375 -53.2549 40.5205 -87.4775h-277.332zM298.665 367.997c-14.7295 0 -26.667 -11.9375 -26.667 -26.666c0 -14.7295 11.9375 -26.667 26.667 -26.667s26.667 11.9375 26.667 26.667c0 14.7285 -11.9375 26.666 -26.667 26.666z
M218.665 341.331c0 14.7285 -11.9375 26.666 -26.666 26.667c-14.7295 0 -26.667 -11.9375 -26.667 -26.667s11.9375 -26.667 26.667 -26.667c14.7285 0 26.666 11.9385 26.666 26.667z" />
    <glyph glyph-name="uniF112" unicode="&#xf112;" 
d="M181.333 266.667l64 -64l-138.666 -138.667s-101.125 -42.667 -101.334 -42.667c-5.33301 0 -5.33301 0 -5.33301 5.33398l42.667 101.333zM405.333 341.333c0 0 32 -32 37.334 -37.333c7.11035 -7.11133 7.11133 -24.8887 0 -32
c-5.33398 -5.33301 -122.667 -122.667 -122.667 -122.667c-32 -32 -64 0 -64 0l138.667 138.667l-21.334 21.333l-90.666 -90.666l-85.334 85.333s133.334 133.333 138.667 138.667c7.11035 7.11035 24.8887 7.11133 32 0c5.33301 -5.33398 48 -48 53.333 -53.334
c7.11133 -7.11133 7.11133 -24.8887 0 -32zM469.333 106.667c18.1025 24.1357 42.667 0 42.667 -21.334c0 -21.333 -64 -149.333 -277.333 -149.333c-128 0 -213.334 64 -213.334 64s85.334 -21.333 213.334 -21.333s218.666 106.666 234.666 128z" />
    <glyph glyph-name="uniF113" unicode="&#xf113;" 
d="M448 405.333c35.208 0 64 -28.8018 64 -64v-256c0 -35.1973 -28.792 -64 -64 -64h-106.667l-85.333 -85.333l-85.333 85.333h-106.667c-35.208 0 -64 28.8027 -64 64v256c0 35.1982 28.792 64 64 64h384zM256 57.333c21.3545 0 38.667 17.3125 38.667 38.667
s-17.3125 38.667 -38.667 38.667s-38.667 -17.3125 -38.667 -38.667s17.3125 -38.667 38.667 -38.667zM293.333 309.333v44.667c0 1.30176 -1.14551 3.46875 -4.35352 4.77051c-7.02148 2.16699 -20.834 3.89648 -33.625 3.89648
c-9.58398 0 -25.3545 -2.16699 -33.0215 -5.19824c-3.1875 -1.30176 -3.66602 -3.73926 -3.66602 -5.46875v-42.667c0 -48 14.7295 -123.927 16 -136.062c0.645508 -1.73926 1.91602 -2.60352 4.47852 -2.60352h33.709c3.83301 0 4.47852 1.30176 4.47852 2.60352
c2.56348 13 16 88.0625 16 136.062z" />
    <glyph glyph-name="uniF114" unicode="&#xf114;" 
d="M384 192l32 -85.333h96l-74.667 -64l32 -106.667l-85.333 59.5205l-85.333 -59.5205l32 106.667l-74.667 64h96zM448 448c35.208 0 64 -28.8018 64 -64v-234.667h-66.4316l-18.7266 49.9375v0l-24.1143 64.3066c-10.2998 27.4658 -27.1543 27.4658 -37.4541 0
l-21.3779 -57.0088c-0.000976562 -0.000976562 -0.000976562 -0.00195312 -0.00195312 -0.00390625l-21.4619 -57.2314h-29.2559c-4.63086 16.167 -19.5215 28 -37.1758 28s-32.5449 -11.833 -37.1758 -28h-24.8301c-29.333 0 -35.1113 -15.6191 -12.8398 -34.709
l60.1748 -51.5771v0l40.4932 -34.709l-10.2207 -34.0693l-15.6016 -15.6016l-85.333 85.333h-106.667c-35.208 0 -64 28.8018 -64 64v256c0 35.1982 28.792 64 64 64h384zM293.333 352v44.667c0 1.30176 -1.14551 3.46777 -4.35352 4.77051
c-7.02148 2.16602 -20.834 3.89551 -33.625 3.89551c-9.58398 0 -25.3545 -2.16602 -33.0215 -5.19727c-3.1875 -1.30273 -3.66602 -3.73926 -3.66602 -5.46875v-42.667c0 -48 14.7295 -123.927 16 -136.062c0.645508 -1.73926 1.91602 -2.60449 4.47852 -2.60449h33.709
c3.83301 0 4.47852 1.30176 4.47852 2.60449c2.56348 13 16 88.0625 16 136.062z" />
    <glyph glyph-name="uniF115" unicode="&#xf115;" 
d="M272.967 403.445c33.6406 44.3379 80.4102 44.5547 80.4102 44.5547s6.95508 -41.6855 -26.4639 -81.8438c-35.6846 -42.8789 -76.2451 -35.8623 -76.2451 -35.8623s-7.61523 33.7227 22.2988 73.1514zM256 298.667c17.3066 0 48.8584 21.333 90.667 21.333
c71.9658 0 99.791 -48.7822 99.791 -48.7822s-55.3721 -25.8545 -55.3721 -94.5479c0 -77.4932 68.9775 -104.199 68.9775 -104.199s-48.2188 -135.718 -113.347 -135.718c-29.915 0 -53.1699 20.1582 -84.6895 20.1582c-32.1182 0 -63.9932 -20.9111 -84.752 -20.9111
c-59.4736 0 -134.608 128.741 -134.608 232.227c0 101.817 63.0156 151.773 122.666 151.773c38.7793 0 70.5068 -21.333 90.667 -21.333z" />
    <glyph glyph-name="uniF116" unicode="&#xf116;" 
d="M0 320v85.333h512v-85.333h-512zM42.667 277.333h426.666v-298.666h-426.666v298.666zM320 149.333v64h-128v-64h128z" />
    <glyph glyph-name="uniF117" unicode="&#xf117;" 
d="M466.957 141.792l-210.957 -205.792l-210.951 205.792c-4.14551 4.14551 -2.73926 7.54102 3.125 7.54102h122.493v298.667h170.666v-298.667h122.499c5.87598 0 7.25 -3.39551 3.125 -7.54102z" />
    <glyph glyph-name="uniF118" unicode="&#xf118;" 
d="M205.792 -18.957l-205.792 210.957l205.792 210.951c4.14551 4.14551 7.54102 2.73926 7.54102 -3.125v-122.493h298.667v-170.666h-298.667v-122.499c0 -5.87598 -3.39551 -7.25 -7.54102 -3.125z" />
    <glyph glyph-name="uniF119" unicode="&#xf119;" 
d="M306.208 -18.957c-4.14551 -4.125 -7.54102 -2.75098 -7.54102 3.125v122.499h-298.667v170.666h298.667v122.493c0 5.86426 3.39551 7.27051 7.54102 3.125l205.792 -210.951z" />
    <glyph glyph-name="uniF11A" unicode="&#xf11a;" 
d="M466.957 242.208c4.125 -4.14551 2.75098 -7.54102 -3.125 -7.54102h-122.499v-298.667h-170.666v298.667h-122.493c-5.86426 0 -7.27051 3.39551 -3.125 7.54102l210.951 205.792z" />
    <glyph glyph-name="uniF11B" unicode="&#xf11b;" 
d="M170.667 448c94.249 0 170.666 -76.417 170.666 -170.667c0 -94.249 -76.417 -170.666 -170.666 -170.666c-94.25 0 -170.667 76.417 -170.667 170.666c0 94.25 76.417 170.667 170.667 170.667zM128 170.667l128 106.666l-128 106.667v-213.333zM382.916 256h129.084
v-320h-362.667v129.084c7.02148 -0.708984 14.125 -1.08398 21.334 -1.08398c7.20801 0 14.3125 0.375 21.333 1.08398v-86.417h277.333v234.666h-95.167c4.31348 13.6875 7.29199 27.959 8.75 42.667zM384 160l42.667 -32v-106.667h-192v42.667l8.68652 13.0205
c19.917 7.25098 38.417 17.3545 55.084 29.876l42.8955 -42.8965z" />
    <glyph glyph-name="uniF11C" unicode="&#xf11c;" 
d="M333.792 227.104c-53.792 -16.583 -96.292 -59.1035 -112.896 -112.896c-15.8965 -4.89551 -32.751 -7.54102 -50.2295 -7.54102c-94.25 0 -170.667 76.417 -170.667 170.666c0 94.25 76.417 170.667 170.667 170.667c94.249 0 170.666 -76.417 170.666 -170.667
c0 -17.4785 -2.66602 -34.333 -7.54102 -50.2295zM128 384v-213.333l128 106.666zM384 192c70.667 0 128 -57.3125 128 -128c0 -70.708 -57.333 -128 -128 -128c-70.708 0 -128 57.292 -128 128c0 70.6875 57.292 128 128 128zM352 -16l122.667 122.667l-26.667 26.666
l-96 -96l-32 32l-26.667 -26.666zM384 277.333h106.667v-80.3125c-12.834 10.3125 -27.1875 18.792 -42.667 25.083v12.5635h-68.292c2.79199 13.791 4.29199 28.0625 4.29199 42.666zM170.667 0h55.2295c6.29102 -15.4795 14.7705 -29.833 25.1035 -42.667h-123v110.959
c13.792 -2.8125 28.042 -4.29199 42.667 -4.29199v-64z" />
    <glyph glyph-name="uniF11D" unicode="&#xf11d;" 
d="M352 288l-138.667 -138.667s-5.33301 -5.33301 -5.33301 -10.666c0 -5.33398 5.33301 -10.667 5.33301 -10.667l10.667 -10.667s5.33301 -5.33301 10.667 -5.33301c5.33301 0 10.666 5.33301 10.666 5.33301l192 192s10.667 10.667 10.667 21.334
c0 10.666 -10.667 21.333 -10.667 21.333l-42.666 42.667s-10.667 10.666 -21.334 10.666c-10.666 0 -21.333 -10.666 -21.333 -10.666c-63.8242 -63.8242 -261.333 -261.334 -261.333 -261.334s-16 -16 -16 -37.333s16 -37.333 16 -37.333l64 -64s16 -16 37.333 -16
s37.333 16 37.333 16l208 208l32 -32l-208 -208s-26.666 -26.667 -69.333 -26.667s-69.333 26.667 -69.333 26.667l-64 64s-26.667 26.666 -26.667 69.333s26.667 69.333 26.667 69.333l261.333 261.334s21.333 21.333 53.333 21.333s53.334 -21.333 53.334 -21.333
l42.666 -42.667s21.334 -21.333 21.334 -53.333s-21.334 -53.333 -21.334 -53.333l-192 -192.001s-21.333 -21.333 -42.666 -21.333c-21.334 0 -42.667 21.333 -42.667 21.333l-10.667 10.667s-21.333 21.333 -21.333 42.666c0 21.334 21.333 42.667 21.333 42.667
l138.667 138.667z" />
    <glyph glyph-name="uniF11E" unicode="&#xf11e;" 
d="M213.333 117.333l13.8027 13.792c-8.63574 -20.084 -13.4688 -42.167 -13.709 -65.333c-3.53027 -1.02148 -7.125 -1.79199 -10.7598 -1.79199c-21.334 0 -42.667 21.333 -42.667 21.333l-10.667 10.667s-21.333 21.333 -21.333 42.667
c0 21.333 21.333 42.666 21.333 42.666l138.667 138.667l32 -32l-138.667 -138.667s-5.33301 -5.33301 -5.33301 -10.666c0 -5.33398 5.33301 -10.667 5.33301 -10.667l10.667 -10.667s5.33301 -5.33301 10.667 -5.33301c5.33301 0 10.666 5.33301 10.666 5.33301z
M219.99 17.333c4.5 -15.791 11.2178 -30.625 19.8018 -44.208l-10.459 -10.458s-26.666 -26.667 -69.333 -26.667s-69.333 26.667 -69.333 26.667l-64 64s-26.667 26.666 -26.667 69.333s26.667 69.333 26.667 69.333l261.333 261.334s21.333 21.333 53.333 21.333
s53.334 -21.333 53.334 -21.333l42.666 -42.667s21.334 -21.333 21.334 -53.333s-21.334 -53.334 -21.334 -53.334l-43.1768 -43.166c-3.38574 0.1875 -6.72949 0.5 -10.1562 0.5c-23.833 0 -46.5205 -4.95898 -67.1357 -13.792l88.4688 88.458s10.667 10.667 10.667 21.334
c0 10.666 -10.667 21.333 -10.667 21.333l-42.666 42.667s-10.667 10.666 -21.334 10.666c-10.666 0 -21.333 -10.666 -21.333 -10.666c-63.833 -63.8232 -261.333 -261.334 -261.333 -261.334s-16 -16 -16 -37.333s16 -37.333 16 -37.333l64 -64s16 -16 37.333 -16
s37.333 16 37.333 16zM384 192c70.667 0 128 -57.3125 128 -128c0 -70.708 -57.333 -128 -128 -128c-70.708 0 -128 57.292 -128 128c0 70.6875 57.292 128 128 128zM384 154.667c-50.084 0 -90.667 -40.583 -90.667 -90.667c0 -18.292 5.41699 -35.292 14.709 -49.542
l125.5 125.479c-14.25 9.3125 -31.25 14.7295 -49.542 14.7295zM384 -26.667c50.084 0 90.667 40.583 90.667 90.667c0 18.292 -5.41699 35.292 -14.751 49.542l-125.458 -125.479c14.25 -9.3125 31.25 -14.7295 49.542 -14.7295z" />
    <glyph glyph-name="uniF11F" unicode="&#xf11f;" 
d="M158.844 401.604c6.5 6.5 11.8232 4.29199 11.8232 -4.91699v-98.0205h213.333s128 -128 128 -128v-170.667h-128v170.667h-213.333v-98.0215c0 -9.20801 -5.32324 -11.417 -11.8232 -4.89551l-158.844 166.542z" />
    <glyph glyph-name="uniF120" unicode="&#xf120;" 
d="M384 213.344c0 -63.9893 42.667 -128.011 64 -128.011v-42.666h-384v42.666c21.333 0 64 42.667 64 128.011v21.3232c0 59.5312 13.583 110.781 64 134.771v14.5625c0 35.3438 28.6455 64 64 64s64 -28.6562 64 -64v-14.5625c50.417 -23.9893 64 -75.2393 64 -134.771
v-21.3232zM256 357.333c14.708 0 26.667 11.959 26.667 26.667s-11.959 26.667 -26.667 26.667s-26.667 -11.959 -26.667 -26.667s11.959 -26.667 26.667 -26.667zM256 -64c-35.3545 0 -64 28.667 -64 64h128c0 -35.333 -28.6455 -64 -64 -64z" />
    <glyph glyph-name="uniF121" unicode="&#xf121;" 
d="M469.333 -21.333h32c10.667 0 10.667 -10.667 10.667 -10.667v-32h-256v32s0 10.667 10.667 10.667h32v32s0 10.666 10.666 10.666h149.334c10.666 0 10.666 -10.666 10.666 -10.666v-32zM469.338 256l42.666 -42.666l-127.999 -127.999l-42.666 42.666zM277.335 448
l42.666 -42.666l-127.999 -127.999l-42.666 42.666zM229.75 200.583l34.833 -34.833l-184.583 -213.75l-0.0625 0.0625c-8.3125 -9.83301 -20.7295 -16.0625 -34.6045 -16.0625c-25.041 0 -45.333 20.292 -45.333 45.333c0 13.875 6.25 26.292 16.0625 34.6045
l-0.0625 0.0625zM341.337 362.667l85.332 -85.332l-106.665 -106.666l-85.333 85.333z" />
    <glyph glyph-name="uniF122" unicode="&#xf122;" 
d="M256.002 448l42.666 -42.666l-127.999 -127.999l-42.666 42.666zM208.417 200.583l34.833 -34.833l-163.25 -192.417l-0.0625 0.0634766c-8.3125 -9.83398 -20.7295 -16.0635 -34.6045 -16.0635c-25.041 0 -45.333 20.292 -45.333 45.334
c0 13.875 6.25 26.291 16.0625 34.6035l-0.0625 0.0625zM360.916 232.916c-32.583 -4.43652 -62.291 -17.958 -86.374 -38.124l-61.209 61.208l106.667 106.667l85.333 -85.334zM481.333 204c-17.583 12.2705 -37.583 21.25 -59.125 26.208l25.792 25.792l42.667 -42.667z
M384 192c70.6875 0 128 -57.3125 128 -128s-57.3125 -128 -128 -128s-128 57.3125 -128 128s57.3125 128 128 128zM469.333 42.667v42.666h-64v64h-42.666v-64h-64v-42.666h64v-64h42.666v64h64z" />
    <glyph glyph-name="uniF123" unicode="&#xf123;" 
d="M164.889 346.901c0 16.3643 -10.3994 37.0986 -54.0703 37.0986h-67.2686l-19.1055 -85.333h70.1084c54.7461 0 70.3359 25.0049 70.3359 48.2344zM346.223 346.901c0 16.3643 -10.3809 37.0986 -54.0479 37.0986h-67.2783l-19.1191 -85.333h70.1084
c54.7754 0 70.3369 25.0049 70.3369 48.2344zM140.444 208.212c0 16.377 -10.3799 37.1211 -54.0605 37.1211h-67.2578l-19.126 -85.333h70.0977c54.7676 0 70.3467 25.0332 70.3467 48.2119zM321.777 208.212c0 16.377 -10.4199 37.1211 -54.0557 37.1211h-67.2432
l-19.1455 -85.333h70.1025c54.7637 0 70.3418 25.0332 70.3418 48.2119zM512 261.545c0 16.377 -10.4004 37.1221 -54.04 37.1221h-67.2676l-19.1367 -85.334h70.0977c54.7676 0 70.3467 24.9941 70.3467 48.2119zM485.833 122.893
c0 16.3877 -10.3809 37.1074 -54.0674 37.1074h-67.2578l-19.1191 -85.333h70.0869c54.7969 0 70.3574 25.0508 70.3574 48.2256zM296.062 69.4854c0 16.4365 -10.3818 37.1816 -54.0303 37.1816h-67.2939l-19.1201 -85.334h70.1025
c54.7793 0 70.3418 24.9941 70.3418 48.1523z" />
    <glyph glyph-name="uniF124" unicode="&#xf124;" 
d="M448 426.667c23.458 0 42.667 -19.209 42.667 -42.667v-405.333c0 -23.459 -19.209 -42.667 -42.667 -42.667h-405.333c-23.459 0 -42.667 19.208 -42.667 42.667v405.333c0 23.458 19.208 42.667 42.667 42.667h405.333zM234.667 42.667v64c0 35.1973 -28.792 64 -64 64
h-21.334v-64h21.334v-64h-64v234.666h-64v-234.666c0 -35.1982 28.791 -64 64 -64h64c35.208 0 64 28.8018 64 64zM341.333 85.333v106.667c0 46.9375 -38.3955 85.333 -85.333 85.333h-106.667v-64h85.334c21.333 0 42.666 -21.333 42.666 -42.666v-85.334h64zM448 85.333
v149.334c0 85.333 -64 149.333 -149.333 149.333h-149.334v-64h128c53.334 0 106.667 -42.667 106.667 -106.667v-128h64z" />
    <glyph glyph-name="uniF125" unicode="&#xf125;" 
d="M261.333 442.667c0 -64 144 -229.334 144 -357.334c0 -82.4785 -66.8535 -149.333 -149.333 -149.333s-149.333 66.8545 -149.333 149.333c0 128 144 293.334 144 357.334c0 0 0 5.33301 5.33301 5.33301s5.33301 -5.33301 5.33301 -5.33301z" />
    <glyph glyph-name="uniF126" unicode="&#xf126;" 
d="M497.333 213.333c21.333 0 13.1074 -13.8359 13.1074 -13.8359l-141.107 -220.83h-252c-64 0 -117.333 56.1279 -117.333 117.333c0 0.458984 0.0117188 0.916016 0.0175781 1.37402c-0.00488281 0.430664 -0.0175781 0.860352 -0.0175781 1.29297c0 50.666 16 72 16 72
l170.667 234.666h273.333c21.333 0 13.1074 -13.8359 13.1074 -13.8359l-158.44 -242.164h-197.334c-29.4551 0 -53.333 -23.8779 -53.333 -53.333c0 -25.8018 21.333 -53.333 53.333 -53.333h224l106.667 170.666h49.333z" />
    <glyph glyph-name="uniF127" unicode="&#xf127;" 
d="M170.667 149.333c21.333 0 149.333 0 128 0c-21.334 0 -21.334 -21.333 -21.334 -21.333v-192l-64 53.333l-64 -53.333v192s0 21.333 21.334 21.333zM497.333 256c21.333 0 13.1074 -13.8359 13.1074 -13.8359l-141.107 -220.831h-49.333v64h21.333l106.667 170.667
h49.333zM460 448c21.333 0 13.1074 -13.8359 13.1074 -13.8359l-158.44 -242.164h-197.334c-29.4551 0 -53.333 -23.8779 -53.333 -53.333c0 -25.8027 18.3232 -47.3242 42.667 -52.2656v-64.5801c-59.8018 5.39062 -106.667 55.6406 -106.667 116.846
c0 0.458984 0.0117188 0.916016 0.0175781 1.37305c-0.00488281 0.431641 -0.0175781 0.861328 -0.0175781 1.29297c0 50.667 16 72 16 72l170.667 234.667h273.333z" />
    <glyph glyph-name="uniF128" unicode="&#xf128;" 
d="M490.667 405.333c21.333 0 21.333 -21.333 21.333 -21.333v-405.333h-512v405.333s0 21.333 21.333 21.333h469.334zM426.667 352v-21.333c0 -5.875 4.79102 -10.667 10.666 -10.667h21.334c5.875 0 10.666 4.79199 10.666 10.667v21.333
c0 5.875 -4.79102 10.667 -10.666 10.667h-21.334c-5.875 0 -10.666 -4.79199 -10.666 -10.667zM362.667 352v-21.333c0 -5.875 4.79102 -10.667 10.666 -10.667h21.334c5.875 0 10.666 4.79199 10.666 10.667v21.333c0 5.875 -4.79102 10.667 -10.666 10.667h-21.334
c-5.875 0 -10.666 -4.79199 -10.666 -10.667zM298.667 352v-21.333c0 -5.875 4.79102 -10.667 10.666 -10.667h21.334c5.875 0 10.666 4.79199 10.666 10.667v21.333c0 5.875 -4.79102 10.667 -10.666 10.667h-21.334c-5.875 0 -10.666 -4.79199 -10.666 -10.667z
M469.333 21.333v277.334h-426.666v-277.334h426.666zM149.333 213.333h213.334l-106.667 -106.666z" />
    <glyph glyph-name="uniF129" unicode="&#xf129;" 
d="M501.333 362.667h-330.666v-85.334h330.666c5.86719 0 10.667 -4.7998 10.667 -10.666v-64c0 -5.86719 -4.7998 -10.667 -10.667 -10.667h-330.666v-42.667h330.666c5.86719 0 10.667 -4.7998 10.667 -10.666v-64c0 -5.86719 -4.7998 -10.667 -10.667 -10.667h-330.666
v-42.667h330.666c5.86719 0 10.667 -4.7998 10.667 -10.666v-64c0 -5.86719 -4.7998 -10.667 -10.667 -10.667h-368h-48v426.667h-74.666c-5.86719 0 -10.667 4.7998 -10.667 10.666v64c0 5.86719 4.7998 10.667 10.667 10.667h490.666
c5.86719 0 10.667 -4.7998 10.667 -10.667v-64c0 -5.86621 -4.7998 -10.666 -10.667 -10.666z" />
    <glyph glyph-name="uniF12A" unicode="&#xf12a;" 
d="M226.764 -2.44336c2.75684 -6.5166 5.89941 -12.8174 9.40527 -18.8896h-102.836h-48v384h-74.666c-5.86719 0 -10.667 4.7998 -10.667 10.666v64c0 5.86719 4.7998 10.667 10.667 10.667h448c5.86621 0 10.666 -4.7998 10.666 -10.667v-64
c0 -5.86621 -4.7998 -10.666 -10.666 -10.666h-288v-42.667h288c5.86621 0 10.666 -4.7998 10.666 -10.667v-64c0 -5.86621 -4.7998 -10.666 -10.666 -10.666h-288v-42.667h100.461c-2.66602 -2.35547 -5.27246 -4.79004 -7.80566 -7.32227
c-15.6602 -15.6602 -27.96 -33.9072 -36.5586 -54.2344c-3.2832 -7.76074 -5.9668 -15.6973 -8.05176 -23.7764h-48.0449v-42.667h42.666c0 -23.0195 4.51855 -45.375 13.4307 -66.4434zM384 192c70.6875 0 128 -57.3125 128 -128s-57.3125 -128 -128 -128
s-128 57.3125 -128 128s57.3125 128 128 128zM469.333 42.667v42.666h-64v64h-42.666v-64h-64v-42.666h64v-64h42.666v64h64z" />
    <glyph glyph-name="uniF12B" unicode="&#xf12b;" 
d="M298.667 170.667h192v-149.334c0 -23.4688 -19.209 -42.666 -42.667 -42.666h-384c-23.458 0 -42.667 19.1973 -42.667 42.666v149.334h192v-64h85.334v64zM448 341.333c23.458 0 42.667 -19.1973 42.667 -42.666v-85.334h-192v21.334h-85.334v-21.334h-192v85.334
c0 23.4688 19.209 42.666 42.667 42.666h85.333v42.667c0 23.4688 19.209 42.667 42.667 42.667h128c23.458 0 42.667 -19.1982 42.667 -42.667v-42.667h85.333zM320 341.333v42.667h-128v-42.667h128z" />
    <glyph glyph-name="uniF12C" unicode="&#xf12c;" 
d="M507.542 149.084c2.83301 -10.1045 4.45801 -20.7295 4.45801 -31.751c0 -64.791 -52.5 -117.333 -117.333 -117.333c-64.792 0 -117.334 52.542 -117.334 117.333c0 3.60449 0.208984 7.14648 0.541992 10.667h-43.75
c0.333008 -3.52051 0.541992 -7.0625 0.541992 -10.667c0 -64.791 -52.5 -117.333 -117.334 -117.333c-64.791 0 -117.333 52.542 -117.333 117.333c0 11.0215 1.625 21.6465 4.45801 31.751l-0.1875 0.249023l0.666992 1.5625c2.5 8.39648 5.91699 16.375 10.1465 23.875
l57.374 135.021c5.91699 17.958 18.125 32.875 34.209 42.2285c0 29.4375 23.875 53.3125 53.333 53.3125s53.333 -23.875 53.333 -53.333c0 -8.08398 -1.91602 -15.6455 -5.14551 -22.5c6.27051 -9.0625 10.4795 -19.542 12.3955 -30.833h70.834
c1.91602 11.291 6.125 21.7705 12.3955 30.833c-3.22949 6.83301 -5.14551 14.416 -5.14551 22.5c0 29.458 23.875 53.333 53.333 53.333s53.333 -23.875 53.333 -53.3125c16.084 -9.35352 28.292 -24.2705 34.209 -42.2285l57.3545 -134.979
c4.22852 -7.52051 7.66602 -15.5205 10.1875 -23.9375l0.645508 -1.54199zM117.333 42.667c41.25 0 74.667 33.417 74.667 74.666c0 41.25 -33.417 74.667 -74.667 74.667c-41.249 0 -74.666 -33.417 -74.666 -74.667c0 -41.249 33.417 -74.666 74.666 -74.666z
M394.667 42.667c41.249 0 74.666 33.417 74.666 74.666c0 41.25 -33.417 74.667 -74.666 74.667c-41.25 0 -74.667 -33.417 -74.667 -74.667c0 -41.249 33.417 -74.666 74.667 -74.666z" />
    <glyph glyph-name="uniF12D" unicode="&#xf12d;" 
d="M277.333 341.333c10.667 -10.666 21.334 -21.333 21.334 -21.333l-170.667 -170.667s-10.667 10.667 -21.333 21.334c-10.667 10.666 -106.667 85.333 -106.667 85.333l42.667 21.333v42.667h42.666v42.667h42.667v42.666h42.667l21.333 42.667
s74.667 -96 85.333 -106.667zM362.667 149.333l133.333 -112c10.667 -10.666 16 -21.333 16 -37.333s-10.667 -32 -21.333 -42.667c-10.667 -10.666 -26.667 -21.333 -42.667 -21.333s-26.667 5.33301 -37.333 16l-112 133.333h-101.334
c-5.33301 0 -10.666 5.33398 -10.666 5.33398l-26.667 26.666l170.667 170.667l26.666 -26.667s5.33398 -5.33301 5.33398 -10.666v-101.334zM448 -26.667c14.7275 0 26.667 11.9395 26.667 26.667s-11.9395 26.667 -26.667 26.667s-26.667 -11.9395 -26.667 -26.667
s11.9395 -26.667 26.667 -26.667z" />
    <glyph glyph-name="uniF12E" unicode="&#xf12e;" 
d="M85.333 448h298.667v-512h-85.333v128h-128v-128h-85.334v512zM213.333 106.667v42.666h-85.333v-42.666h85.333zM213.333 192v42.667h-85.333v-42.667h85.333zM213.333 277.333v42.667h-85.333v-42.667h85.333zM213.333 362.667v42.666h-85.333v-42.666h85.333z
M341.333 106.667v42.666h-85.333v-42.666h85.333zM341.333 192v42.667h-85.333v-42.667h85.333zM341.333 277.333v42.667h-85.333v-42.667h85.333zM341.333 362.667v42.666h-85.333v-42.666h85.333z" />
    <glyph glyph-name="uniF12F" unicode="&#xf12f;" 
d="M490.667 405.333c21.333 0 21.333 -21.333 21.333 -21.333v-426.667s0 -21.333 -21.333 -21.333h-469.334c-21.333 0 -21.333 21.333 -21.333 21.333v426.667s0 21.333 21.333 21.333h42.667v-64h106.667v64h170.666v-64h106.667v64h42.667zM128 0v64h-64v-64h64z
M128 106.667v64h-64v-64h64zM128 213.333v64h-64v-64h64zM234.667 0v64h-64v-64h64zM234.667 106.667v64h-64v-64h64zM234.667 213.333v64h-64v-64h64zM341.333 0v64h-64v-64h64zM341.333 106.667v64h-64v-64h64zM341.333 213.333v64h-64v-64h64zM448 0v64h-64v-64h64z
M448 106.667v64h-64v-64h64zM448 213.333v64h-64v-64h64zM85.333 362.667v85.333h64v-85.333h-64zM362.667 362.667v85.333h64v-85.333h-64z" />
    <glyph glyph-name="uniF130" unicode="&#xf130;" 
d="M64 362.667v85.333h64v-85.333h-64zM341.333 362.667v85.333h64v-85.333h-64zM234.667 74.667v-117.334h-213.334c-21.333 0 -21.333 21.334 -21.333 21.334v405.333s0 21.333 21.333 21.333h21.334v-64h106.666v64h170.667v-64h106.667v64h21.333
s21.333 -21.333 21.333 -21.333v-154.812c-12.625 10.4375 -27.125 18.0205 -42.666 22.416v47.0635h-64v-47.0635c-19.083 -5.375 -36.5625 -15.5615 -50.959 -29.9785c-8.83301 -8.83301 -16.083 -18.8125 -21.624 -29.625h-34.084v-64h21.333v-1.08398
c-24.3125 -4.95801 -42.666 -26.499 -42.666 -52.249zM256 298.667v-64h64v64h-64zM106.667 21.333v64h-64v-64h64zM106.667 128v64h-64v-64h64zM106.667 234.667v64h-64v-64h64zM213.333 21.333v64h-64v-64h64zM213.333 128v64h-64v-64h64zM213.333 234.667v64h-64v-64h64z
M501.333 85.333c5.875 0 10.667 -4.79102 10.667 -10.666v-128c0 -5.875 -4.79199 -10.667 -10.667 -10.667h-213.333c-5.875 0 -10.667 4.79199 -10.667 10.667v128c0 5.875 4.79199 10.666 10.667 10.666h32v53.334c0 41.249 33.417 74.666 74.667 74.666
c41.249 0 74.666 -33.417 74.666 -74.666v-53.334h32zM426.667 85.333v53.334c0 17.666 -14.334 32 -32 32c-17.667 0 -32 -14.334 -32 -32v-53.334h64z" />
    <glyph glyph-name="uniF131" unicode="&#xf131;" 
d="M64 362.667v85.333h64v-85.333h-64zM341.333 362.667v85.333h64v-85.333h-64zM234.667 64v-106.667h-213.334c-21.333 0 -21.333 21.334 -21.333 21.334v405.333s0 21.333 21.333 21.333h21.334v-64h106.666v64h170.667v-64h106.667v64h21.333
s21.333 -21.333 21.333 -21.333v-256h-42.666v64h-25.7295c-4.39551 15.542 -11.9795 30.042 -22.417 42.667h48.1465v64h-64v-48.1465c-12.625 10.4375 -27.125 18.0205 -42.667 22.417v25.7295h-64v-25.7295c-15.542 -4.39551 -30.042 -11.9795 -42.667 -22.417v48.1465
h-64v-64h48.1465c-10.4375 -12.625 -18.0205 -27.125 -22.417 -42.667h-25.7295v-64h21.334v-42.667h-21.334v-64h64v42.667h21.334zM106.667 21.333v64h-64v-64h64zM106.667 128v64h-64v-64h64zM106.667 234.667v64h-64v-64h64zM501.333 85.333
c5.875 0 10.667 -4.79102 10.667 -10.666v-128c0 -5.875 -4.79199 -10.667 -10.667 -10.667h-213.333c-5.875 0 -10.667 4.79199 -10.667 10.667v128c0 5.875 4.79199 10.666 10.667 10.666h32v74.667c0 17.667 -14.333 32 -32 32s-32 -14.333 -32 -32v-53.333h-42.667
v53.333c0 41.25 33.417 74.667 74.667 74.667s74.667 -33.417 74.667 -74.667v-74.667h138.666z" />
    <glyph glyph-name="uniF132" unicode="&#xf132;" 
d="M490.667 341.333c21.333 0 21.333 -21.333 21.333 -21.333v-298.667s0 -21.333 -21.333 -21.333h-469.334c-21.333 0 -21.333 21.333 -21.333 21.333v298.667s0 21.333 21.333 21.333h85.334l53.333 64h192l53.333 -64h85.334zM256 64c70.6924 0 128 57.3076 128 128
s-57.3076 128 -128 128s-128 -57.3076 -128 -128s57.3076 -128 128 -128zM192 192c0 42.6667 21.3333 64 64 64c42.6667 0 64 -21.3333 64 -64s-21.3333 -64 -64 -64c-42.6667 0 -64 21.3333 -64 64z" />
    <glyph glyph-name="uniF133" unicode="&#xf133;" 
d="M129.779 213.333h-128.898c10.2617 124.368 109.418 223.524 233.786 233.786v-128.898c-53.5977 -8.99316 -95.8945 -51.29 -104.888 -104.888zM277.333 318.221v128.898c124.368 -10.2617 223.524 -109.418 233.786 -233.786h-128.898
c-8.99316 53.5977 -51.29 95.8945 -104.888 104.888zM382.221 170.667h128.898c-10.2617 -124.368 -109.418 -223.524 -233.786 -233.786v128.898c53.5977 8.99316 95.8945 51.29 104.888 104.888zM234.667 65.7793v-128.898
c-124.368 10.2617 -223.524 109.418 -233.786 233.786h128.898c8.99316 -53.5977 51.29 -95.8945 104.888 -104.888z" />
    <glyph glyph-name="uniF134" unicode="&#xf134;" 
d="M384 192c70.6768 0 128 -57.292 128 -128s-57.3232 -128 -128 -128s-128 57.292 -128 128s57.3232 128 128 128zM469.333 42.667v42.666h-64v64h-42.666v-64h-64v-42.666h64v-64h42.666v64h64zM108.583 234.667h-108.583
c10.1562 112.562 100.781 203.188 213.333 213.333v-108.583c-53.5625 -9 -95.7393 -51.1875 -104.75 -104.75zM256 339.417v108.583c112.552 -10.1455 203.177 -100.771 213.333 -213.333h-108.583c-9.01074 53.5625 -51.1875 95.75 -104.75 104.75zM213.333 87.25
v-108.583c-112.552 10.1455 -203.177 100.771 -213.333 213.333h108.583c9.01074 -53.5625 51.1875 -95.75 104.75 -104.75z" />
    <glyph glyph-name="uniF135" unicode="&#xf135;" 
d="M384 192c70.6875 0 128 -57.3125 128 -128s-57.3125 -128 -128 -128s-128 57.3125 -128 128s57.3125 128 128 128zM458.667 16l-48 48l48 48l-26.667 26.667l-48 -48l-48 48l-26.667 -26.667l48 -48l-48 -48l26.667 -26.667l48 48l48 -48zM108.583 234.667h-108.583
c10.1562 112.562 100.781 203.188 213.333 213.333v-108.583c-53.5625 -9 -95.7393 -51.1875 -104.75 -104.75zM256 339.417v108.583c112.552 -10.1455 203.177 -100.771 213.333 -213.333h-108.583c-9.01074 53.5625 -51.1875 95.75 -104.75 104.75zM213.333 87.25
v-108.583c-112.552 10.1455 -203.177 100.771 -213.333 213.333h108.583c9.01074 -53.5625 51.1875 -95.75 104.75 -104.75z" />
    <glyph glyph-name="uniF136" unicode="&#xf136;" 
d="M277.333 106.667h192v-170.667h-192v170.667zM341.333 -18.667v101.334s0 2.66602 -2.66602 2.66602h-16c-2.66699 0 -2.66699 -2.66602 -2.66699 -2.66602v-101.334s0 -2.66602 2.66699 -2.66602h16c2.66602 0 2.66602 2.66602 2.66602 2.66602zM384 -18.667v101.334
s0 2.66602 -2.66699 2.66602h-16c-2.66602 0 -2.66602 -2.66602 -2.66602 -2.66602v-101.334s0 -2.66602 2.66602 -2.66602h16c2.66699 0 2.66699 2.66602 2.66699 2.66602zM426.667 -18.667v101.334s0 2.66602 -2.66699 2.66602h-16s-2.66699 -2.66602 -2.66699 -2.66602
v-101.334s0 -2.66602 2.66699 -2.66602h16s2.66699 2.66602 2.66699 2.66602zM474.667 170.667c16 0 16 -16 16 -16v-26.667h-234.667v26.667s0 16 16 16h48v29.333s0 13.333 13.333 13.333h80c13.334 0 13.334 -13.333 13.334 -13.333v-29.333h48zM394.667 170.667v18.666
s0 2.66699 -2.66699 2.66699h-37.333c-2.66699 0 -2.66699 -2.66699 -2.66699 -2.66699v-18.666h42.667zM108.583 234.667h-108.583c10.1562 112.562 100.781 203.188 213.333 213.333v-108.583c-53.5625 -9 -95.7393 -51.1875 -104.75 -104.75zM213.333 87.25v-108.583
c-112.552 10.1455 -203.177 100.771 -213.333 213.333h108.583c9.01074 -53.5625 51.1875 -95.75 104.75 -104.75zM355.084 256c-15.2822 43.1455 -52.8857 75.6455 -99.084 83.417v108.583c112.552 -10.1455 203.177 -100.771 213.333 -213.333h-11.9893
c-9.59375 12.5 -24.5732 21.333 -44.0107 21.333h-58.249z" />
    <glyph glyph-name="uniF137" unicode="&#xf137;" 
d="M509.333 162.667c0 0 2.66699 -2.66699 2.66699 -8c0 -5.33398 -2.66699 -8 -2.66699 -8l-18.666 -18.667l-42.667 42.667l18.667 18.666s2.66602 2.66699 8 2.66699c5.33301 0 8 -2.66699 8 -2.66699zM426.672 149.332l42.666 -42.666l-117.332 -117.332l-42.666 42.666
zM330.667 -32c0 0 -71.8857 -32 -72 -32c-2.66699 0 -2.66699 0 -2.66699 2.66699l32 72zM108.583 234.667h-108.583c10.1562 112.562 100.781 203.188 213.333 213.333v-108.583c-53.5625 -9 -95.7393 -51.1875 -104.75 -104.75zM256 339.417v108.583
c112.552 -10.1455 203.177 -100.771 213.333 -213.333h-108.583c-9.01074 53.5625 -51.1875 95.75 -104.75 104.75zM213.333 87.25v-108.583c-112.552 10.1455 -203.177 100.771 -213.333 213.333h108.583c9.01074 -53.5625 51.1875 -95.75 104.75 -104.75zM409 192
l-153 -153v48.25c53.5625 9 95.75 51.1875 104.75 104.75h48.25z" />
    <glyph glyph-name="uniF138" unicode="&#xf138;" 
d="M129.779 213.333h-128.898c10.2617 124.368 109.418 223.524 233.786 233.786v-128.898c-53.5977 -8.99316 -95.8945 -51.29 -104.888 -104.888zM376.755 234.514c-15.2451 43.3027 -53.1123 75.9365 -99.4219 83.707v128.898
c124.368 -10.2617 223.524 -109.418 233.786 -233.786h-44.4512c-5.24707 2.9043 -10.6543 5.54785 -16.2236 7.9043c-21.0684 8.91113 -43.4229 13.4297 -66.4443 13.4297c-2.42285 0 -4.83789 -0.0537109 -7.24512 -0.15332zM226.763 -2.44434
c2.35645 -5.56934 5 -10.9766 7.9043 -16.2236v-44.4512c-124.368 10.2617 -223.524 109.418 -233.786 233.786h128.898c7.77051 -46.3096 40.4043 -84.1768 83.707 -99.4219c-0.0996094 -2.40723 -0.15332 -4.82227 -0.15332 -7.24512
c0 -23.0215 4.51855 -45.376 13.4297 -66.4443zM384 192c70.6934 0 128 -57.3066 128 -128s-57.3066 -128 -128 -128s-128 57.3066 -128 128s57.3066 128 128 128zM458.667 16l-48 48l48 48l-26.667 26.667l-48 -48l-48 48l-26.667 -26.667l48 -48l-48 -48l26.667 -26.667
l48 48l48 -48z" />
    <glyph glyph-name="uniF139" unicode="&#xf139;" 
d="M42.667 448h426.666v-512h-426.666v512zM149.333 0v42.667h-42.666v-42.667h42.666zM234.667 0v42.667h-42.667v-42.667h42.667zM405.333 0v42.667h-128v-42.667h128zM405.333 85.333v298.667h-298.666v-298.667h298.666z" />
    <glyph glyph-name="uniF13A" unicode="&#xf13a;" 
d="M256 448c141.375 0 256 -114.614 256 -256s-114.625 -256 -256 -256s-256 114.614 -256 256s114.625 256 256 256zM202.667 32l234.666 234.667l-53.333 53.333l-181.333 -181.333l-64 64l-53.334 -53.334z" />
    <glyph glyph-name="uniF13B" unicode="&#xf13b;" 
d="M426.666 384l85.334 -85.333l-320 -320l-192 192l85.333 85.333l106.667 -106.667z" />
    <glyph glyph-name="uniF13C" unicode="&#xf13c;" 
d="M448 341.333l64 -64l-256 -256l-256 256l64 64l192 -192z" />
    <glyph glyph-name="uniF13D" unicode="&#xf13d;" 
d="M213.333 192l192 -192l-64 -64l-256 256l256 256l64 -64z" />
    <glyph glyph-name="uniF13E" unicode="&#xf13e;" 
d="M106.667 384l64 64l256 -256l-256 -256l-64 64l192 192z" />
    <glyph glyph-name="uniF13F" unicode="&#xf13f;" 
d="M256 234.667l-192 -192l-64 64l256 256l256 -256l-64 -64z" />
    <glyph glyph-name="uniF140" unicode="&#xf140;" 
d="M256 448c141.391 0 256 -114.625 256 -256s-114.609 -256 -256 -256s-256 114.625 -256 256s114.609 256 256 256zM256 0c106.039 0 192 85.9609 192 192s-85.9609 192 -192 192s-192 -85.9609 -192 -192s85.9609 -192 192 -192zM277.34 228.953
c12.749 -7.37793 21.3271 -21.1631 21.3271 -36.9531c0 -23.5645 -19.1025 -42.667 -42.667 -42.667c-3.82129 0 -7.52441 0.504883 -11.0498 1.44727l-61.4404 -61.4404c-2.07422 -2.07422 -5.46875 -2.07422 -7.54297 0l-22.627 22.627
c-2.07422 2.07422 -2.07422 5.46875 0 7.54297l61.4414 61.4414c-0.942383 3.52441 -1.44824 7.22754 -1.44824 11.0488c0 15.792 8.58105 29.5791 21.334 36.957v0v128.376c0 2.93359 2.39941 5.33398 5.33301 5.33398h32c2.93359 0 5.33301 -2.40039 5.33301 -5.33398
v-128.375c0.00292969 -0.00195312 0.00488281 -0.00292969 0.00683594 -0.00488281z" />
    <glyph glyph-name="uniF141" unicode="&#xf141;" 
d="M256 448c141.392 0 256 -114.609 256 -256c0 -141.392 -114.608 -256 -256 -256c-141.391 0 -256 114.608 -256 256c0 141.391 114.609 256 256 256zM405.333 96l-96 96l96 96l-53.333 53.333l-96 -96l-96 96l-53.333 -53.333l96 -96l-96 -96l53.333 -53.333l96 96
l96 -96z" />
    <glyph glyph-name="uniF142" unicode="&#xf142;" 
d="M21.333 32l160 160l-160 160l74.667 74.667l160 -160l160 160l74.667 -74.667l-160 -160l160 -160l-74.667 -74.667l-160 160l-160 -160z" />
    <glyph glyph-name="uniF143" unicode="&#xf143;" 
d="M426.667 213.333c48 0 85.333 -42.666 85.333 -96c0 -53.333 -37.333 -96 -85.333 -96c0 0 -298.162 -0.0107422 -298.667 0c-75.8779 0.821289 -128 62.5938 -128 138.667c0 76.583 62.083 138.667 138.667 138.667c9.97656 0 19.7041 -1.06348 29.084 -3.06543
c25.6895 39.7666 62.3369 67.0654 120.249 67.0654c82.0449 0 138.579 -44 138.667 -149.334zM439.397 91.7373c5.4668 6.18066 8.60254 15.5098 8.60254 25.5957s-3.13574 19.416 -8.60254 25.5957c-1.40137 1.58398 -5.66602 6.4043 -12.7305 6.4043h-64v64
c-0.0185547 22.5098 -3.44141 52.6543 -19.6377 68.6953c-11.1465 11.04 -29.6611 16.6387 -55.0293 16.6387c-15.8037 0 -28.6338 -3.09668 -39.2227 -9.46484c-9.86914 -5.93555 -18.7881 -15.2021 -27.2686 -28.3291l-23.9521 -37.0762l-43.167 9.21484
c-5.14355 1.09766 -10.4336 1.65527 -15.7227 1.65527c-41.1719 0 -74.667 -33.4951 -74.667 -74.667c0 -32 16 -74.667 64 -74.667h298.667c1.74707 0 7.06445 0 12.7305 6.4043z" />
    <glyph glyph-name="uniF144" unicode="&#xf144;" 
d="M85.333 192l85.334 -85.333l-42.667 -42.667l-128 128l128 128l42.667 -42.667zM426.667 192l-85.334 85.333l42.667 42.667l128 -128l-128 -128l-42.667 42.667zM266.354 21.333l-63.375 9.04199l42.666 332.292l63.375 -9.04199z" />
    <glyph glyph-name="uniF145" unicode="&#xf145;" 
d="M21.333 405.333h469.334v-426.666h-469.334v426.666zM170.667 42.667v128h-85.334v-128h85.334zM170.667 213.333v128h-85.334v-128h85.334zM298.667 42.667v128h-85.334v-128h85.334zM298.667 213.333v128h-85.334v-128h85.334zM426.667 42.667v128h-85.334v-128h85.334
zM426.667 213.333v128h-85.334v-128h85.334z" />
    <glyph glyph-name="uniF146" unicode="&#xf146;" 
d="M214.812 42.667c2.89551 -23.084 10.417 -44.709 21.6143 -64h-236.427v426.666h469.333v-193.749c-19.291 11.1865 -40.916 18.708 -64 21.6035v108.146h-85.333v-119.229c-27.208 -11.0615 -50.8955 -28.8955 -69.0098 -51.4365h-58.9902v-128h22.8125zM192 341.333
v-128h85.333v128h-85.333zM149.333 42.667v128h-85.333v-128h85.333zM149.333 213.333v128h-85.333v-128h85.333zM384 192c70.6875 0 128 -57.3125 128 -128s-57.3125 -128 -128 -128s-128 57.3125 -128 128s57.3125 128 128 128zM469.333 42.667v42.666h-64v64h-42.666v-64
h-64v-42.666h64v-64h42.666v64h64z" />
    <glyph glyph-name="uniF147" unicode="&#xf147;" 
d="M174.323 85.333l63.4688 -64h-237.792v426.667h469.333v-301.938c-20.458 12.041 -42.375 18.1035 -64 21.1875v46.083h-33.0205c-8.35449 9.79199 -20.3965 16 -34.1875 16c-12.625 0 -24.833 -5.24902 -34.583 -14.958l-26.209 -26.3545v25.3125h-85.333v-111.104z
M320 384v-128h85.333v128h-85.333zM192 384v-128h85.333v128h-85.333zM149.333 85.333v128h-85.333v-128h85.333zM149.333 256v128h-85.333v-128h85.333zM341.333 127.833c78 0 170.667 0.166992 170.667 -191.833c-14.625 48.75 -53.333 106.667 -170.667 106.667v-53.5
c0 -5.875 -3.39551 -7.29199 -7.54102 -3.125l-99.125 99.291l99.125 98.959c4.14551 4.12402 7.54102 2.72852 7.54102 -3.125v-53.334z" />
    <glyph glyph-name="uniF148" unicode="&#xf148;" 
d="M269.469 405.333c53.9062 0 242.531 -46.3125 242.531 -207.999c0 -176.001 -224 -176 -256 -176s-256 0 -256 168.437c0 0 4.49023 87.5625 85.333 87.5625c58.667 0 67.2451 -21.333 106.667 -21.333c37.333 0 42.667 16 42.667 37.333
c0 21.334 -42.667 37.334 -42.667 69.334c0 21.333 23.5781 42.666 77.4688 42.666zM85.333 122.667c26.5098 0 48 21.4902 48 48c0 26.5088 -21.4902 48 -48 48s-48 -21.4912 -48 -48c0 -26.5098 21.4902 -48 48 -48zM192 64c23.5645 0 42.667 19.1025 42.667 42.667
c0 23.5635 -19.1025 42.666 -42.667 42.666s-42.667 -19.1025 -42.667 -42.666c0 -23.5645 19.1025 -42.667 42.667 -42.667zM426.667 288c-17.6738 0 -32 -14.3271 -32 -32s14.3262 -32 32 -32c17.6729 0 32 14.3271 32 32s-14.3271 32 -32 32zM320 64
c23.5645 0 42.667 19.1025 42.667 42.667c0 23.5635 -19.1025 42.666 -42.667 42.666s-42.667 -19.1025 -42.667 -42.666c0 -23.5645 19.1025 -42.667 42.667 -42.667zM426.667 112c20.6182 0 37.333 16.7148 37.333 37.333c0 20.6191 -16.7148 37.334 -37.333 37.334
c-20.6191 0 -37.334 -16.7148 -37.334 -37.334c0 -20.6182 16.7148 -37.333 37.334 -37.333z" />
    <glyph glyph-name="uniF149" unicode="&#xf149;" 
d="M90.667 -64c-5.33398 0 -5.33398 5.33301 -5.33398 5.33301v80h-53.333c-21.333 0 -32 10.667 -32 32v192c0 21.334 10.667 32 32 32h96v138.667c0 21.333 10.667 32 32 32h320c21.333 0 32 -10.667 32 -32v-234.667c0 -21.333 -10.667 -32 -32 -32h-53.333v-118.521
s0 -21.333 -21.334 0c-21.333 21.333 -106.666 107.854 -106.666 107.854v-85.334c0 -21.333 -10.667 -32 -32 -32h-85.334l-74.667 -74.666c-10.666 -10.667 -12.833 -10.6074 -15.999 -10.667zM469.333 197.333v202.667s0 5.33301 -5.33301 5.33301h-288
c-5.33301 0 -5.33301 -5.33301 -5.33301 -5.33301v-202.667s0 -5.33301 5.33301 -5.33301h133.333l74.667 -74.667v74.667h80s5.33301 5.33301 5.33301 5.33301z" />
    <glyph glyph-name="uniF14A" unicode="&#xf14a;" 
d="M213.333 64c0 -14.54 1.80566 -28.8145 5.37891 -42.667h-37.3789l-74.667 -74.666c-10.666 -10.667 -12.833 -10.6074 -15.999 -10.667c-5.33398 0 -5.33398 5.33301 -5.33398 5.33301v80h-53.333c-21.333 0 -32 10.667 -32 32v192c0 21.334 10.667 32 32 32h96v138.667
c0 21.333 10.667 32 32 32h320c21.333 0 32 -10.667 32 -32v-234.666c0 -1.48047 -0.0566406 -2.90332 -0.15918 -4.28125c-2.30664 2.60254 -4.6875 5.15039 -7.16309 7.625c-10.6387 10.6387 -22.4756 19.7236 -35.3438 27.1533v188.169s0 5.33301 -5.33398 5.33301h-288
c-5.33301 0 -5.33301 -5.33301 -5.33301 -5.33301v-202.667s0 -5.33301 5.33301 -5.33301h95.1279c-2.66602 -2.35547 -5.27246 -4.79004 -7.80566 -7.32227c-15.6602 -15.6602 -27.96 -33.9072 -36.5586 -54.2344c-8.91211 -21.0684 -13.4307 -43.4238 -13.4307 -66.4434z
M384 192c70.6875 0 128 -57.3125 128 -128s-57.3125 -128 -128 -128s-128 57.3125 -128 128s57.3125 128 128 128zM469.333 42.667v42.666h-64v64h-42.666v-64h-64v-42.666h64v-64h42.666v64h64z" />
    <glyph glyph-name="uniF14B" unicode="&#xf14b;" 
d="M218.792 336.084l-45.209 28.749c15.292 7.39648 31.584 13 48.8545 16.042l33.5625 67.125l33.5625 -67.125c79.083 -13.959 141.354 -76.208 155.312 -155.312l67.125 -33.5625l-67.124 -33.5625c-3.04199 -17.2715 -8.64648 -33.5625 -16.042 -48.8545l-28.75 45.209
c3.10352 11.9375 5.24902 24.292 5.24902 37.208c0 82.4795 -66.8535 149.333 -149.333 149.333c-12.916 0 -25.2705 -2.125 -37.208 -5.24902zM293.208 47.916l45.209 -28.749c-15.292 -7.39648 -31.584 -13 -48.8545 -16.042l-33.5625 -67.125l-33.5625 67.125
c-79.083 13.958 -141.354 76.208 -155.312 155.312l-67.125 33.5625l67.124 33.5625c3.04199 17.2715 8.64648 33.5625 16.042 48.8545l28.75 -45.209c-3.10352 -11.9375 -5.24902 -24.292 -5.24902 -37.208c0 -82.4795 66.8535 -149.333 149.333 -149.333
c12.916 0 25.2705 2.125 37.208 5.24902zM298.667 234.667l149.333 -234.667l-234.667 149.333l-149.333 234.667zM256 165.333c14.708 0 26.667 11.959 26.667 26.667s-11.959 26.667 -26.667 26.667s-26.667 -11.959 -26.667 -26.667s11.959 -26.667 26.667 -26.667z" />
    <glyph glyph-name="uniF14C" unicode="&#xf14c;" 
d="M0 -42.667v170.667h85.333v-170.667h-85.333zM128 170.667h85.333v-213.334h-85.333v213.334zM256 256h85.333v-298.667h-85.333v298.667zM384 384h85.333v-426.667h-85.333v426.667z" />
    <glyph glyph-name="uniF14D" unicode="&#xf14d;" 
d="M0 -42.667v170.667h85.333v-170.667h-85.333zM128 0h85.333v-42.667h-85.333v42.667zM256 0h85.333v-42.667h-85.333v42.667zM384 0h85.333v-42.667h-85.333v42.667z" />
    <glyph glyph-name="uniF14E" unicode="&#xf14e;" 
d="M0 -42.667v170.667h85.333v-170.667h-85.333zM128 170.667h85.333v-213.334h-85.333v213.334zM256 256h85.333v-298.667h-85.333v298.667zM384 0h85.333v-42.667h-85.333v42.667z" />
    <glyph glyph-name="uniF14F" unicode="&#xf14f;" 
d="M0 -42.667v170.667h85.333v-170.667h-85.333zM128 170.667h85.333v-213.334h-85.333v213.334zM256 0h85.333v-42.667h-85.333v42.667zM384 0h85.333v-42.667h-85.333v42.667z" />
    <glyph glyph-name="uniF150" unicode="&#xf150;" 
d="M189.556 221.237c-8.7002 -3.67969 -17.0166 -8.04395 -24.915 -13.0527l-53.085 238.038l293.777 1.77734l-57.0459 -240.407c-8.17285 5.25879 -16.8008 9.82031 -25.8428 13.6445c-21.0684 8.91113 -43.4238 13.4297 -66.4443 13.4297
s-45.376 -4.51855 -66.4443 -13.4297zM256 192c70.6924 0 128 -57.3076 128 -128s-57.3076 -128 -128 -128s-128 57.3076 -128 128s57.3076 128 128 128zM234.667 -5.33301l112 112l-26.667 26.666l-85.333 -85.333l-48 48l-26.667 -26.667z" />
    <glyph glyph-name="uniF151" unicode="&#xf151;" 
d="M314.667 85.333c2.93652 0 5.91602 -2.33301 6.625 -5.16602l8.08301 -32.334c0.708984 -2.83301 -1.10449 -5.16602 -4.04199 -5.16602h-138.666c-2.9375 0 -4.75098 2.33301 -4.04199 5.16602l8.08301 32.334c0.708984 2.83301 3.68848 5.16602 6.625 5.16602h117.334z
M192 448l106.667 -106.667h-96c-10.667 0 -10.667 10.667 -10.667 10.667v96zM362.667 149.333h106.666v-192c0 -21.333 -21.333 -21.333 -21.333 -21.333h-234.667s-21.333 0 -21.333 21.333v320c0 21.334 21.333 21.334 21.333 21.334h106.667v-106.667
s0 -42.667 42.667 -42.667zM362.667 298.667l106.666 -106.667h-96c-10.666 0 -10.666 10.667 -10.666 10.667v96zM149.333 341.333v-256h-106.666s-21.334 0 -21.334 21.334v320c0 21.333 21.334 21.333 21.334 21.333h106.666v-106.667z" />
    <glyph glyph-name="uniF152" unicode="&#xf152;" 
d="M23.5879 252.146c10.9854 5.39648 21.9922 -21.6455 38.4912 -21.6455c16.5 0 71.5127 5.41699 71.5127 27.042s-38.5127 27.042 -49.499 43.25c-11.0068 16.2285 -9.13379 18.916 -20.1406 40.541c-11.0068 21.626 -29.3779 35.167 -18.3721 51.3545
c11.0068 16.2295 44.0059 -27.0205 49.499 -43.2295c5.49316 -16.208 11.0068 -37.8545 22.0137 -37.8545c10.9854 0 27.5059 22.2295 27.5059 60.1045c0 37.834 -16.5205 54.959 -16.5205 76.292h21.0977c5.49219 0 21.3057 0 21.3057 -21.333
c0 -19.7295 -3.8916 -6.64648 -3.8916 -76.8965c0 -70.291 0 -89.3545 22.0137 -105.583c24.9053 -18.3545 -5.51367 -23.0625 5.49316 -39.2705c11.0068 -16.25 44.0059 -49.375 55.0127 -76.3965c11.0068 -27.0205 0 -70.6455 21.9922 -70.6455
c22.0127 0 22.0127 43.084 22.0127 64.709c0 64.875 -55.0117 129.666 -55.0117 199.916c0 54.084 11.0068 86.458 27.5059 81.0625c16.5 -5.39551 0 -16.25 0 -70.3125s16.5 -86.542 38.4922 -86.542c22.0137 0 44.0264 5.4375 49.5186 140.584
c0 0 29.9209 7.79102 29.9209 -24.625c0 -32.4375 -2.41406 -29.417 -2.41406 -45.6465c0 -16.2285 5.49316 -10.8125 0 -27.0205c-5.49316 -16.25 -27.5068 -32.458 -22.0137 -37.8545c13.7754 -12.1455 34.708 36.0215 45.7344 25.1875
c10.9863 -10.8125 -21.3057 -37.125 -21.3057 -53.333c0 -16.2295 3.0791 -20.5205 19.5996 -20.5205c16.4785 0 16.4785 10.8125 27.5059 10.8125c10.9863 0 10.9863 -16.209 22.0137 -10.8125c10.9854 5.41699 16.4785 64.875 32.999 59.4785
c16.4795 -5.41602 -10.6934 -92.291 -38.1992 -92.291c0 0 -11.3213 0.375 -16.8135 -5.04199c-5.49316 -5.375 16.4785 -16.209 10.9854 -21.6045c-5.49219 -5.41699 -32.998 10.8125 -38.4912 5.39648c-5.49316 -5.39648 -41.7588 -35.042 -71.5332 -108.125
c-10.9863 -27 11.0273 -97.292 11.0273 -97.292s-16.5205 -5.41699 -38.5332 0c0 0 -20.8896 -8 -48.3965 -8c-27.5059 0 -67.1016 8 -56.0938 18.792c10.9854 10.833 23.7812 7.66602 34.7881 23.875c10.9863 16.208 14.71 19.375 9.19629 35.625
c-5.49219 16.1875 -27.5059 32.416 -32.999 54.041s-5.49316 32.417 -10.9863 48.667c-5.51367 16.208 -29.1289 53.667 -50.4346 75s-81.6035 22.292 -87.0967 16.8965c-5.49219 -5.41699 -5.49219 -16.2295 -16.499 -16.2295c0 32.8955 -33.0205 54.041 -21.9922 59.4785z
M320.621 203.479c-5.51367 -21.625 -5.51367 -48.6465 10.9863 -48.6465c16.5205 0 33.041 21.625 33.041 43.25c0 21.6045 -5.53516 37.833 -16.5205 37.833c-10.9863 0 -22.0137 -10.8125 -27.5068 -32.4365z" />
    <glyph glyph-name="uniF153" unicode="&#xf153;" 
d="M432.126 99.1602c60.0312 58.499 60.0312 153.639 0.000976562 212.122c-29.874 29.2266 -69.2021 46.0459 -108.295 46.0459c-35.1709 0 -70.1396 -13.6553 -98.4209 -37.0459c11.251 -4.96094 22.0625 -11.2578 32.1875 -18.8984
c20.0156 13.2656 42.999 19.7969 66.2334 19.7969c30.3271 0 60.7178 -11.4844 83.7178 -33.9678c46.2021 -45.2188 46.2021 -118.772 0 -163.976c-10.8604 -10.8037 -23.7344 -19.123 -37.5 -24.7412c-5.53223 -2.24219 -11.2969 -4.28125 -17.0469 -5.63281
c-9.40625 -2.46875 -19.3125 -3.59375 -29.1719 -3.59375c-22.3125 0 -43.7178 5.84473 -62.0928 17.0781c-7.8125 4.71191 -15.1572 10.3438 -21.8594 16.8896l-0.217773 0.21875l-71.499 69.9453c-3.46875 3.37402 -8.04688 5.17871 -12.4375 5.17871
c-4.35938 0 -8.92188 -1.80371 -12.3906 -5.17871c-6.70312 -6.50781 -6.70312 -17.3125 0 -24.0547l46.8574 -45.8916l17.5 -17.1084l7.59375 -7.1875c3.46973 -3.60938 7.125 -6.74219 11.0156 -9.89062c27.3896 -22.0381 61.3896 -35.9365 97.5293 -35.9365h2.75
c10.3604 0.21875 20.6875 3.30566 30.5781 5.35156c6.6875 1.57031 13.3594 3.36035 19.7812 5.61719c20.4688 7.42188 39.3115 19.1094 55.1865 34.8594zM159.881 55.5127v0l54.4668 0.000976562c-8.25098 5.85156 -16.2969 12.8193 -23.8906 20.2568l-14.7021 13.9365
h-15.875c-23.9375 0 -46.7178 9.21875 -63.7178 25.8828c-35.1562 34.4053 -35.1562 89.959 0 124.146c16.3438 16.2109 37.9521 25.2188 61.1553 25.875h2.56348c5.73438 0 11.25 -0.453125 16.7812 -1.35156c15.6084 -2.91406 30.124 -9.89062 42.3115 -20.0078
l4.13965 -3.82812l8.71875 -8.55371l42.0928 -41.1562c3.45312 -3.39062 7.82812 -4.96973 12.4219 -4.96973c4.375 0 8.7334 1.5791 12.1875 4.96973c6.90527 6.74219 6.90527 17.5547 0 24.0693l-41.625 40.7109l-8.5 8.5625l-3.89062 3.59375
c-4.40527 3.80469 -8.9834 7.41504 -13.8271 10.5547c-10.124 6.97656 -21.3906 12.3818 -33.1094 15.9756c-6.20312 2.02344 -12.6562 3.38281 -19.0928 4.27344c-6.1875 0.882812 -12.375 1.35156 -18.6094 1.35156h-0.46875
c-33.124 0 -64.3584 -12.8193 -87.8271 -35.749c-48.9834 -47.709 -48.9834 -125.084 0 -172.771c23.4697 -22.9531 54.9541 -35.7725 88.2969 -35.7725zM456.971 335.571c73.3721 -71.9834 73.3721 -188.725 0 -260.708
c-34.9697 -34.1787 -81.1875 -52.8662 -130.39 -53.5303h-1.35938h-1.39062h-163.95c-42.7646 0 -82.8115 16.2031 -113.155 45.8975c-62.2959 60.9443 -62.2959 159.928 0 220.873c30.3438 29.6943 70.3896 45.8896 113.155 45.8896
c9.17188 0 18.1553 -0.671875 26.9053 -2.25l3.67188 3.82812c35.6406 34.6318 83.0146 53.7568 133.374 53.7568c50.3271 0 97.498 -19.125 133.139 -53.7568z" />
    <glyph glyph-name="uniF154" unicode="&#xf154;" 
d="M405.333 128h106.667v-85.333h-405.333v170.666h85.333v-85.333h128v128h-320v85.333h106.667v106.667h85.333v-106.667h213.333v-213.333zM320 -64v64h85.333v-64h-85.333z" />
    <glyph glyph-name="uniF155" unicode="&#xf155;" 
d="M426.667 170.667c47.1279 0 85.333 -38.2051 85.333 -85.334c0 -47.1279 -38.2051 -85.333 -85.333 -85.333c-47.1289 0 -85.334 38.2051 -85.334 85.333c0 6.29102 0.6875 12.4199 1.97852 18.3232l-65.9785 45.6768c-120.575 -85.2119 -229.333 -112 -229.333 -112
l-48 48c58.667 0 224 96 240 117.334c-16 21.333 -181.333 117.333 -240 117.333l48 48s108.758 -26.7881 229.333 -112l65.8887 46.0908c-1.2334 5.77539 -1.88867 11.7656 -1.88867 17.9092c0 47.1289 38.2051 85.333 85.334 85.333
c47.1279 0 85.333 -38.2041 85.333 -85.333s-38.2051 -85.333 -85.333 -85.333c-21.0107 0 -40.2441 7.59766 -55.1123 20.1895l-72.8877 -46.8564v-10.667l72.8877 -46.8564c14.8682 12.5928 34.1016 20.1904 55.1123 20.1904zM426.667 362.667
c-23.5273 0 -42.667 -19.1406 -42.667 -42.667s19.1396 -42.667 42.667 -42.667c23.5264 0 42.666 19.1406 42.666 42.667s-19.1396 42.667 -42.666 42.667zM426.667 42.667c23.5264 0 42.666 19.1396 42.666 42.666c0 23.5273 -19.1396 42.667 -42.666 42.667
c-23.5273 0 -42.667 -19.1396 -42.667 -42.667c0 -23.5264 19.1396 -42.666 42.667 -42.666z" />
    <glyph glyph-name="uniF156" unicode="&#xf156;" 
d="M352 288l21.333 -21.333l-74.666 -96c0 -23.5635 -19.1045 -42.667 -42.667 -42.667s-42.667 19.1035 -42.667 42.667c0 23.5625 19.1045 42.666 42.667 42.666zM120.235 34.9014l-45.2549 -45.2539c-46.3271 46.3262 -74.9805 110.326 -74.9805 181.02
c0 141.385 114.615 256 256 256s256 -114.615 256 -256c0 -70.6934 -28.6533 -134.693 -74.9805 -181.02l-45.2549 45.2539c36.2637 36.2646 56.2354 84.4795 56.2354 135.766c0 51.2852 -19.9717 99.5 -56.2354 135.764
c-36.2646 36.2646 -84.4795 56.2363 -135.765 56.2363s-99.5 -19.9717 -135.765 -56.2363c-36.2637 -36.2637 -56.2354 -84.4785 -56.2354 -135.764c0 -51.2861 19.9717 -99.501 56.2354 -135.766z" />
    <glyph glyph-name="uniF157" unicode="&#xf157;" 
d="M64 373.333c0 49.778 64 74.667 192 74.667s192 -24.889 192 -74.667c0 -49.7773 -64 -74.666 -192 -74.666s-192 24.8887 -192 74.666zM446.053 314.667h1.94727v-74.667c0 -16.7243 -19.217 -32.4609 -57.651 -47.2097
c-38.434 -14.7488 -83.217 -22.1233 -134.349 -22.1233c-51.132 0 -95.915 7.37442 -134.349 22.1233s-57.651 30.4854 -57.651 47.2097v74.667h1.94727c8.20888 -12.3978 21.0806 -22.9847 38.6152 -31.7606s39.1407 -15.4543 64.8184 -20.0351
c25.6777 -4.58084 54.5507 -6.87126 86.6191 -6.87126c48.3015 0 88.9585 5.10513 121.971 15.3154s55.7063 24.6608 68.0819 43.3516zM446.053 186.667h1.94727v-181.334c0 -16.7243 -19.217 -32.4609 -57.651 -47.2097
c-38.434 -14.7488 -83.217 -22.1233 -134.349 -22.1233c-51.132 0 -95.915 7.37442 -134.349 22.1233s-57.651 30.4854 -57.651 47.2097v181.334h1.94727c12.3756 -18.6908 35.0696 -33.1414 68.0819 -43.3516c33.0123 -10.2103 73.6693 -15.3154 121.971 -15.3154
c48.3015 0 88.9585 5.10513 121.971 15.3154c33.0123 10.2103 55.7063 24.6608 68.0819 43.3516z" />
    <glyph glyph-name="uniF158" unicode="&#xf158;" 
d="M42.667 373.333c0 49.778 64 74.667 192 74.667s192 -24.889 192 -74.667c0 -49.7773 -64 -74.666 -192 -74.666s-192 24.8887 -192 74.666zM251.009 170.964c-5.45953 -0.197917 -10.9068 -0.296875 -16.3418 -0.296875c-51.132 0 -95.915 7.37442 -134.349 22.1233
c-38.434 14.7488 -57.651 30.4854 -57.651 47.2097v74.667h1.94727c12.3752 -18.6908 35.0689 -33.1414 68.0812 -43.3516s73.6695 -15.3154 121.972 -15.3154c48.3015 0 88.9585 5.10513 121.971 15.3154s55.7063 24.6608 68.0819 43.3516h1.94727v-74.667
c0 -3.27274 -0.894206 -6.61975 -2.68262 -10.041c-13.0504 3.13867 -26.3785 4.70801 -39.9844 4.70801c-23.1286 0 -45.2767 -4.47656 -66.4443 -13.4297c-20.4246 -8.63944 -38.503 -20.8253 -54.2354 -36.5576c-4.31533 -4.31629 -8.41917 -8.88823 -12.3115 -13.7158z
M226.763 -2.44434c2.74176 -6.48229 5.87555 -12.7772 9.40137 -18.8848c-0.665365 -0.00260417 -1.16439 -0.00390625 -1.49707 -0.00390625c-51.132 0 -95.915 7.37442 -134.349 22.1233c-38.434 14.7488 -57.651 30.4854 -57.651 47.2097v138.667h1.94727
c11.9847 -18.1007 33.6771 -32.2344 65.0772 -42.401c31.4 -10.1666 70.0954 -15.5681 116.086 -16.2045c-8.29622 -20.4629 -12.4443 -41.8167 -12.4443 -64.0615c0 -23.1286 4.47656 -45.2767 13.4297 -66.4443zM384 192c35.3333 0 65.5 -12.5 90.5 -37.5
s37.5 -55.1667 37.5 -90.5c0 -35.3333 -12.5 -65.5 -37.5 -90.5s-55.1667 -37.5 -90.5 -37.5s-65.5 12.5 -90.5 37.5s-37.5 55.1667 -37.5 90.5c0 35.3333 12.5 65.5 37.5 90.5s55.1667 37.5 90.5 37.5zM469.333 42.667v42.666h-64v64h-42.666v-64h-64v-42.666h64v-64
h42.666v64h64z" />
    <glyph glyph-name="uniF159" unicode="&#xf159;" 
d="M426.667 149.333h85.333v-213.333zM384 149.333l-85.333 -213.333v213.333h85.333zM405.333 69.333l58.667 -133.333h-42.667l-16 42.667h-37.333zM42.667 373.333c0 49.778 64 74.667 192 74.667s192 -24.889 192 -74.667c0 -49.7773 -64 -74.666 -192 -74.666
s-192 24.8887 -192 74.666zM256 128.364v-149.697h-26.667l-2.21777 0.0634766c-49.5802 0.829177 -92.7166 8.51642 -129.409 23.0617c-36.6927 14.5453 -55.039 29.9479 -55.039 46.2078v138.667h1.94727c12.3752 -18.6908 35.0689 -33.1414 68.0812 -43.3516
c33.0123 -10.2103 73.6695 -15.3154 121.972 -15.3154c7.16878 0 14.2798 0.121419 21.333 0.364258zM256 192v-20.8271c-7.11476 -0.33724 -14.2258 -0.505859 -21.333 -0.505859c-51.132 0 -95.915 7.37442 -134.349 22.1233
c-38.434 14.7488 -57.651 30.4854 -57.651 47.2097v74.667h1.94727c12.3752 -18.6908 35.0689 -33.1414 68.0812 -43.3516s73.6695 -15.3154 121.972 -15.3154c48.3015 0 88.9585 5.10513 121.971 15.3154s55.7063 24.6608 68.0819 43.3516h1.94727v-74.667
c0 -17.3905 -19.9313 -33.3905 -59.7939 -48h-110.873z" />
    <glyph glyph-name="uniF15A" unicode="&#xf15a;" 
d="M42.667 373.333c0 49.778 64 74.667 192 74.667s192 -24.889 192 -74.667c0 -49.7773 -64 -74.666 -192 -74.666s-192 24.8887 -192 74.666zM251.009 170.964c-5.45953 -0.197917 -10.9068 -0.296875 -16.3418 -0.296875c-51.132 0 -95.915 7.37442 -134.349 22.1233
c-38.434 14.7488 -57.651 30.4854 -57.651 47.2097v74.667h1.94727c12.3752 -18.6908 35.0689 -33.1414 68.0812 -43.3516s73.6695 -15.3154 121.972 -15.3154c48.3015 0 88.9585 5.10513 121.971 15.3154s55.7063 24.6608 68.0819 43.3516h1.94727v-74.667
c0 -3.27274 -0.894206 -6.61975 -2.68262 -10.041c-13.0504 3.13867 -26.3785 4.70801 -39.9844 4.70801c-23.1286 0 -45.2767 -4.47656 -66.4443 -13.4297c-20.4246 -8.63944 -38.503 -20.8253 -54.2354 -36.5576c-4.31533 -4.31629 -8.41917 -8.88823 -12.3115 -13.7158z
M226.763 -2.44434c2.74176 -6.48229 5.87555 -12.7772 9.40137 -18.8848c-0.665365 -0.00260417 -1.16439 -0.00390625 -1.49707 -0.00390625c-51.132 0 -95.915 7.37442 -134.349 22.1233c-38.434 14.7488 -57.651 30.4854 -57.651 47.2097v138.667h1.94727
c11.9847 -18.1007 33.6771 -32.2344 65.0772 -42.401c31.4 -10.1666 70.0954 -15.5681 116.086 -16.2045c-8.29622 -20.4629 -12.4443 -41.8167 -12.4443 -64.0615c0 -23.1286 4.47656 -45.2767 13.4297 -66.4443zM384 192c35.3333 0 65.5 -12.5 90.5 -37.5
s37.5 -55.1667 37.5 -90.5c0 -35.3333 -12.5 -65.5 -37.5 -90.5s-55.1667 -37.5 -90.5 -37.5s-65.5 12.5 -90.5 37.5s-37.5 55.1667 -37.5 90.5c0 35.3333 12.5 65.5 37.5 90.5s55.1667 37.5 90.5 37.5zM352 -16l122.667 122.667l-26.667 26.666l-96 -96l-32 32
l-26.667 -26.666z" />
    <glyph glyph-name="uniF15B" unicode="&#xf15b;" 
d="M375.771 311.771c78.8389 -23.8945 136.229 -97.1289 136.229 -183.771c0 -106.039 -85.9609 -192 -192 -192c-86.6416 0 -159.876 57.3906 -183.771 136.229c-78.8389 23.8945 -136.229 97.1289 -136.229 183.771c0 106.039 85.9609 192 192 192
c86.6416 0 159.876 -57.3906 183.771 -136.229zM128.13 120.929c13.7881 -6.53223 28.5537 -10.8945 43.8672 -12.9316c-0.875 6.57812 -1.33008 13.2549 -1.33008 20.0029c0 39.8887 15.5332 77.3896 43.7383 105.595s65.7061 43.7383 105.595 43.7383
c6.74805 0 13.4248 -0.455078 20.0029 -1.33008c-2.03711 15.3135 -6.39941 30.0791 -12.9316 43.8672c-2.34668 0.0849609 -4.7041 0.129883 -7.07129 0.129883c-106.039 0 -192 -85.9609 -192 -192c0 -2.36719 0.0449219 -4.72461 0.129883 -7.07129zM425.595 22.4053
c28.2051 28.2051 43.7383 65.7061 43.7383 105.595s-15.5332 77.3896 -43.7383 105.595c-12.3252 12.3252 -26.4258 22.2295 -41.7246 29.4766c0.0849609 -2.34668 0.129883 -4.7041 0.129883 -7.07129c0 -106.039 -85.9609 -192 -192 -192
c-2.36719 0 -4.72461 0.0449219 -7.07129 0.129883c7.24707 -15.2988 17.1514 -29.3994 29.4766 -41.7246c28.2051 -28.2051 65.7061 -43.7383 105.595 -43.7383s77.3896 15.5332 105.595 43.7383z" />
    <glyph glyph-name="uniF15C" unicode="&#xf15c;" 
d="M234.667 448c106.038 0 192 -33.4297 192 -74.667s-85.9619 -74.666 -192 -74.666c-106.039 0 -192 33.4287 -192 74.666s85.9609 74.667 192 74.667zM424.72 314.667h1.94727v-74.667c0 -32 -85.9619 -69.333 -192 -69.333c-106.039 0 -192 37.333 -192 69.333v74.667
h1.94727c24.7188 -37.334 93.3262 -58.667 190.053 -58.667c96.7256 0 165.333 21.333 190.053 58.667zM252.229 35.2344l-25.1133 -56.5039c-102.538 1.71484 -184.448 38.0322 -184.448 69.2695v138.667h1.94727c24.7188 -37.334 93.3262 -58.667 190.053 -58.667
c51.082 0 94.3184 5.95215 127.394 17.0664zM509.333 162.667c0 0 2.66699 -2.66699 2.66699 -8c0 -5.33398 -2.66699 -8 -2.66699 -8l-18.666 -18.667l-42.667 42.667l18.667 18.666s2.66602 2.66699 8 2.66699c5.33301 0 8 -2.66699 8 -2.66699zM469.338 106.666
l-117.332 -117.332l-42.666 42.666l117.332 117.332zM330.667 -32c0 0 -71.8896 -32 -72 -32c-2.66699 0 -2.66699 0 -2.66699 2.66699l32 72z" />
    <glyph glyph-name="uniF15D" unicode="&#xf15d;" 
d="M42.667 373.333c0 49.778 64 74.667 192 74.667s192 -24.889 192 -74.667c0 -49.7773 -64 -74.666 -192 -74.666s-192 24.8887 -192 74.666zM251.009 170.964c-5.45953 -0.197917 -10.9068 -0.296875 -16.3418 -0.296875c-51.132 0 -95.915 7.37442 -134.349 22.1233
c-38.434 14.7488 -57.651 30.4854 -57.651 47.2097v74.667h1.94727c12.3752 -18.6908 35.0689 -33.1414 68.0812 -43.3516s73.6695 -15.3154 121.972 -15.3154c48.3015 0 88.9585 5.10513 121.971 15.3154s55.7063 24.6608 68.0819 43.3516h1.94727v-74.667
c0 -3.27274 -0.894206 -6.61975 -2.68262 -10.041c-13.0504 3.13867 -26.3785 4.70801 -39.9844 4.70801c-23.1286 0 -45.2767 -4.47656 -66.4443 -13.4297c-20.4246 -8.63944 -38.503 -20.8253 -54.2354 -36.5576c-4.31533 -4.31629 -8.41917 -8.88823 -12.3115 -13.7158z
M226.763 -2.44434c2.74176 -6.48229 5.87555 -12.7772 9.40137 -18.8848c-0.665365 -0.00260417 -1.16439 -0.00390625 -1.49707 -0.00390625c-51.132 0 -95.915 7.37442 -134.349 22.1233c-38.434 14.7488 -57.651 30.4854 -57.651 47.2097v138.667h1.94727
c11.9847 -18.1007 33.6771 -32.2344 65.0772 -42.401c31.4 -10.1666 70.0954 -15.5681 116.086 -16.2045c-8.29622 -20.4629 -12.4443 -41.8167 -12.4443 -64.0615c0 -23.1286 4.47656 -45.2767 13.4297 -66.4443zM384 192c35.3333 0 65.5 -12.5 90.5 -37.5
s37.5 -55.1667 37.5 -90.5c0 -35.3333 -12.5 -65.5 -37.5 -90.5s-55.1667 -37.5 -90.5 -37.5s-65.5 12.5 -90.5 37.5s-37.5 55.1667 -37.5 90.5c0 35.3333 12.5 65.5 37.5 90.5s55.1667 37.5 90.5 37.5zM384 154.667c-25.0371 0 -46.4076 -8.85189 -64.1113 -26.5557
c-17.7038 -17.7038 -26.5557 -39.0742 -26.5557 -64.1113c0 -18.0095 4.90885 -34.5235 14.7266 -49.542l125.482 125.482c-15.0185 9.81771 -31.5325 14.7266 -49.542 14.7266zM384 -26.667c25.0371 0 46.4076 8.85189 64.1113 26.5557s26.5557 39.0742 26.5557 64.1113
c0 18.0095 -4.90885 34.5235 -14.7266 49.542l-125.482 -125.482c15.0185 -9.81771 31.5325 -14.7266 49.542 -14.7266z" />
    <glyph glyph-name="uniF15E" unicode="&#xf15e;" 
d="M93.8545 93.0537c-2.97949 -2.41602 -5.75098 -5 -8.3125 -7.66699c-85.542 0.958984 -85.542 20.5635 -85.542 20.5635v41.9365c0 37.5 44.1455 35.209 67 62.5c5.16699 6.22949 12.541 28.667 8.77051 41.167c0 0 -21.3955 46.292 -21.3955 58.875h-6.25
c-12.625 0 -18.917 25.0205 -18.917 37.542c0 12.5 12.5635 13.166 12.5635 13.166v11.334c1.06152 42.124 34.2705 75.541 75.625 75.541c29.6455 0 55.041 -17.208 67.4365 -42.459c-7.5625 -4.95801 -14.666 -10.708 -21.208 -17.25
c-22.083 -22.1035 -35.583 -51.0205 -38.583 -82.249c-9.83398 -10.459 -15.375 -24.459 -15.375 -39.751c0 -13.833 3.20801 -30.083 8.625 -43.541c3.95801 -9.83398 9.12402 -18.209 15.291 -24.834c4.02051 -4.33301 8.5 -7.95801 13.333 -10.791
c2.08398 -6.04199 4.75098 -13.042 8.08398 -21.25c4 -9.79199 7.95801 -18.8535 10.5205 -24.583c-0.436523 -3.29199 -1.72852 -8.02148 -2.91602 -10.958c-5.3125 -4.79199 -16.6455 -9.66699 -26.7295 -14.042c-13.542 -5.875 -28.875 -12.5 -42.0205 -23.25z
M217 42.9502l85.1045 -85.4023c-5.27148 -0.104492 -10.5625 -0.214844 -16.3965 -0.214844h-59.291c-119.75 0 -119.75 24.2627 -119.75 24.2627v49.3125c0 44.1455 63.249 39.2256 90.125 71.3506c6.08301 7.3125 14.75 31.4971 10.292 46.2061l-25.125 64.8682h-7.39648
c-14.8545 0 -20.4375 33.8398 -20.4375 48.5479c0 14.709 16.542 19.9229 16.542 19.9229v13.334c0 49.541 36.791 88.875 85.4365 88.875c48.584 0 85.2295 -39.334 85.2295 -88.875v-13.334s16.6875 -5.21484 16.6875 -19.9229s-5.60352 -48.5479 -20.4365 -48.5479
h-7.41699l-25.292 -64.8682c-1.83301 -6.08398 -1.35449 -9.78613 0.208984 -17.7021zM386.916 306.179c-3.04102 31.167 -16.583 60.042 -38.5615 82.083c-6.54199 6.58301 -13.792 12.375 -21.375 17.333c12.375 25.251 37.5625 42.417 67.1875 42.417
c41.333 0 75.166 -33.416 75.166 -75.541v-11.334s13 4.11914 13 -8.38086c0 -12.5205 -5.83301 -32.7559 -18.458 -32.7559h-6.25c0 -21.333 -21.3955 -63.6602 -21.3955 -63.6602c-3.77148 -12.5 3.60352 -39.7236 8.77051 -45.9531c22.8545 -27.291 67 -25 67 -62.5
v-19.8867h-85.333v10.5117c0 27 -20.1465 48.167 -45.875 48.167c-5.85449 0 -11.584 -1.25 -17.0215 -3.39648c0.4375 1.25 0.979492 2.64648 1.39648 3.8125c4.85352 2.87598 9.375 6.5 13.417 10.8545c6.16602 6.64551 11.291 15 15.249 24.8545
c5.39551 13.416 8.625 29.6875 8.625 43.5c0 15.375 -5.625 29.417 -15.542 39.875zM376.458 141.638c4.125 4.125 7.54199 2.72852 7.54199 -3.125v-53.334h128v-85.166h-128v-53.5c0 -5.875 -3.41699 -7.29199 -7.54199 -3.125l-99.125 99.458z" />
    <glyph glyph-name="uniF15F" unicode="&#xf15f;" 
d="M85.333 256h341.334v-320h-341.334v320zM192 5.33301v202.667s0 5.33301 -5.33301 5.33301h-32c-5.33398 0 -5.33398 -5.33301 -5.33398 -5.33301v-202.667s0 -5.33301 5.33398 -5.33301h32c5.33301 0 5.33301 5.33301 5.33301 5.33301zM277.333 5.33301v202.667
s0 5.33301 -5.33301 5.33301h-32s-5.33301 -5.33301 -5.33301 -5.33301v-202.667s0 -5.33301 5.33301 -5.33301h32s5.33301 5.33301 5.33301 5.33301zM362.667 5.33301v202.667s0 5.33301 -5.33398 5.33301h-32c-5.33301 0 -5.33301 -5.33301 -5.33301 -5.33301v-202.667
s0 -5.33301 5.33301 -5.33301h32c5.33398 0 5.33398 5.33301 5.33398 5.33301zM437.333 362.667c32 0 32 -32 32 -32v-32h-426.666v32s0 32 32 32h96v58.666s0 26.667 26.666 26.667h117.334c26.666 0 26.666 -26.667 26.666 -26.667v-58.666h96zM298.667 362.667v37.333
s0 5.33301 -5.33398 5.33301h-74.666c-5.33398 0 -5.33398 -5.33301 -5.33398 -5.33301v-37.333h85.334z" />
    <glyph glyph-name="uniF160" unicode="&#xf160;" 
d="M156.5 -64c-156.5 0 -156.5 35.3125 -156.5 35.3125v52.958c0 52.9795 88.708 49.7295 120.958 88.2715c7.29199 8.77051 17.709 40.4785 12.375 58.125c0 0 -30.166 65.333 -30.166 83.1035h-8.89648c-17.791 0 -26.6875 35.333 -26.6875 52.9795
c0 17.667 17.75 18.583 17.75 18.583v16c1.5 59.4795 48.417 106.667 106.751 106.667c58.333 0 105.083 -47.1875 106.583 -106.667v-16s17.916 -0.916016 17.916 -18.583c0 -17.6455 -8.89551 -52.9785 -26.667 -52.9785h-8.91602
c0 -17.7715 -30.333 -83.1045 -30.333 -83.1045c-5.33398 -17.6465 5.16602 -49.3545 12.458 -58.125c32.25 -38.542 120.875 -35.292 120.875 -88.2715v-52.958s0 -35.3125 -156.333 -35.3125h-71.167zM443.292 104.458c26.833 -32.125 68.708 -19.125 68.708 -61.791
v-18.417c0 0 -0.208008 -21.9795 -85.333 -24.042v24.0625c0 60.4375 -53.9795 81.1465 -89.709 94.8545c-1.47949 0.5625 -3.0625 1.20801 -4.58301 1.79102c2.85352 9.16797 4.70801 20 3.35352 28.417h-42.458c-0.875 3.20898 -1.5625 6.29199 -1.72949 8.08398
c10.8125 23.5625 18.917 43.5 24.2705 59.708c31.208 15.917 43.4375 59.8125 43.4375 89.625c0 18.7715 -7.41699 33.625 -18.3535 44.0215c-0.583984 7.56152 -1.85449 14.8955 -3.45898 22.1035c14.126 6.91699 29.7715 11.125 46.5635 11.125h0.0410156h0.0419922
c6.08398 0 12.0205 -0.625 17.75 -1.79199c50.375 -8.52051 88.834 -52.0625 88.834 -104.875v-42.666c0 -64 21.333 -85.334 21.333 -85.334h-79.75c-2.39551 -15.0625 5.39551 -38.1045 11.042 -44.875z" />
    <glyph glyph-name="uniF161" unicode="&#xf161;" 
d="M192 42.667h128l42.667 -85.334v-16s0 -5.33301 -5.33398 -5.33301h-202.666c-5.33398 0 -5.33398 5.33301 -5.33398 5.33301v16zM490.667 426.667c21.333 0 21.333 -21.334 21.333 -21.334v-298.666s0 -21.334 -21.333 -21.334h-469.334
c-21.333 0 -21.333 21.334 -21.333 21.334v298.666s0 21.334 21.333 21.334h469.334zM448 149.333v213.334h-384v-213.334h384z" />
    <glyph glyph-name="uniF162" unicode="&#xf162;" 
d="M314.667 85.333c2.93652 0 5.91602 -2.33301 6.625 -5.16602l8.08301 -32.334c0.708984 -2.83301 -1.10449 -5.16602 -4.04199 -5.16602h-138.666c-2.9375 0 -4.75098 2.33301 -4.04199 5.16602l8.08301 32.334c0.708984 2.83301 3.68848 5.16602 6.625 5.16602h117.334z
M448 160l64 -138.667v-21.333s0 -21.333 -21.333 -21.333h-469.334c-21.333 0 -21.333 21.333 -21.333 21.333v21.333l64 138.667v245.333s0 21.334 21.333 21.334h341.334c21.333 0 21.333 -21.334 21.333 -21.334v-245.333zM325.333 42.667
c2.9375 0 4.75098 2.33301 4.04199 5.16602l-8.08301 32.334c-0.708984 2.83301 -3.68848 5.16602 -6.625 5.16602h-117.334c-2.93652 0 -5.91602 -2.33301 -6.625 -5.16602l-8.08301 -32.334c-0.708984 -2.83301 1.10449 -5.16602 4.04199 -5.16602h138.666zM128 170.667
h256v192h-256v-192z" />
    <glyph glyph-name="uniF163" unicode="&#xf163;" 
d="M426.667 -42.667c0 -21.333 -21.334 -21.333 -21.334 -21.333h-298.666s-21.334 0 -21.334 21.333v469.334c0 21.333 21.334 21.333 21.334 21.333h298.666s21.334 0 21.334 -21.333v-469.334zM149.333 42.667h213.334v320h-213.334v-320zM229.333 0
c0 -14.7295 11.9375 -26.667 26.667 -26.667s26.667 11.9375 26.667 26.667s-11.9375 26.667 -26.667 26.667s-26.667 -11.9375 -26.667 -26.667z" />
    <glyph glyph-name="uniF164" unicode="&#xf164;" 
d="M490.667 405.333c21.333 0 21.333 -21.333 21.333 -21.333v-384s0 -21.333 -21.333 -21.333h-469.334c-21.333 0 -21.333 21.333 -21.333 21.333v384s0 21.333 21.333 21.333h469.334zM426.667 42.667v298.666h-362.667v-298.666h362.667zM469.333 165.333
c14.7275 0 26.667 11.9395 26.667 26.667s-11.9395 26.667 -26.667 26.667s-26.666 -11.9395 -26.666 -26.667s11.9385 -26.667 26.666 -26.667z" />
    <glyph glyph-name="uniF165" unicode="&#xf165;" 
d="M245.333 256c40.8262 0 68 -22.7393 68 -63.6299v-0.750977c0 -41.2275 -27.1738 -63.6191 -68 -63.6191h-32v128h32zM469.333 426.667c11.7334 0 21.334 -9.60059 21.334 -21.334v-426.666c0 -11.7334 -9.60059 -21.334 -21.334 -21.334h-426.666
c-11.7334 0 -21.334 9.60059 -21.334 21.334v426.666c0 11.7334 9.60059 21.334 21.334 21.334h426.666zM383.653 191.653v0.733398c0 73.75 -50.3691 127.613 -138.32 127.613h-96v-256h96c88.6689 0 138.32 53.9023 138.32 127.653z" />
    <glyph glyph-name="uniF166" unicode="&#xf166;" 
d="M397.791 205.791l-141.791 -141.791l-141.791 141.791c-4.14844 4.14844 -2.74219 7.54199 3.12402 7.54199h74.667v234.667h128v-234.667h74.667c5.86621 0 7.27246 -3.39355 3.12402 -7.54199zM490.667 106.667c21.333 0 21.333 -21.334 21.333 -21.334v-128
s0 -21.333 -21.333 -21.333h-469.334c-21.333 0 -21.333 21.333 -21.333 21.333v128s0 21.334 21.333 21.334h128l106.667 -106.667l106.667 106.667h128zM64 16c14.7275 0 26.667 11.9395 26.667 26.667s-11.9395 26.666 -26.667 26.666s-26.667 -11.9385 -26.667 -26.666
s11.9395 -26.667 26.667 -26.667z" />
    <glyph glyph-name="uniF167" unicode="&#xf167;" 
d="M64 320l128 128v-117.333s0 -10.667 -10.667 -10.667h-117.333zM426.667 448c0 0 21.333 0 21.333 -21.333v-469.334c0 -21.333 -21.333 -21.333 -21.333 -21.333h-341.334s-21.333 0 -21.333 21.333v320h128c42.667 0 42.667 42.667 42.667 42.667v128h192z
M130.667 21.333c0.110352 0 77.333 26.667 77.333 26.667l-53.333 53.333l-26.667 -77.333c0 -2.66699 0 -2.66699 2.66699 -2.66699zM229.333 69.333l117.334 117.334l-53.334 53.333l-117.333 -117.333zM385.333 228c0 0 2.66699 2.66699 2.66699 8s-2.66699 8 -2.66699 8
l-37.333 37.333s-2.66699 2.66699 -8 2.66699s-8 -2.66699 -8 -2.66699l-18.667 -18.666l53.334 -53.334z" />
    <glyph glyph-name="uniF168" unicode="&#xf168;" 
d="M181.333 266.667l64 -64l-138.666 -138.667s-101.125 -42.667 -101.334 -42.667c-5.33301 0 -5.33301 0 -5.33301 5.33398l42.667 101.333zM405.333 341.333c0 0 32 -32 37.334 -37.333c7.11035 -7.11133 7.11133 -24.8887 0 -32
c-5.33398 -5.33301 -122.667 -122.667 -122.667 -122.667c-32 -32 -64 0 -64 0l138.667 138.667l-21.334 21.333l-90.666 -90.666l-85.334 85.333s133.334 133.333 138.667 138.667c7.11035 7.11035 24.8887 7.11133 32 0c5.33301 -5.33398 48 -48 53.333 -53.334
c7.11133 -7.11133 7.11133 -24.8887 0 -32zM469.333 106.667c18.1025 24.1357 42.667 0 42.667 -21.334c0 -21.333 -64 -149.333 -277.333 -149.333c-128 0 -213.334 64 -213.334 64s85.334 -21.333 213.334 -21.333s218.666 106.666 234.666 128z" />
    <glyph glyph-name="uniF169" unicode="&#xf169;" 
d="M469.333 448c23.459 0 42.667 -19.208 42.667 -42.667v-426.666c0 -23.459 -19.208 -42.667 -42.667 -42.667h-426.666c-23.459 0 -42.667 19.208 -42.667 42.667v426.666c0 23.459 19.208 42.667 42.667 42.667h426.666zM256 106.667l149.333 170.666h-298.666z" />
    <glyph glyph-name="uniF16A" unicode="&#xf16a;" 
d="M213.333 362.667l298.667 -298.667h-170.667l-128 -128v170.667h42.667v-67.6602l67.6602 67.6602h85.333l-152.993 152.993l-42.667 42.5625v60.4443zM298.667 149.333h-170.667l-128 -128v426.667l90.667 -90.667z" />
    <glyph glyph-name="uniF16B" unicode="&#xf16b;" 
d="M256 448c141.375 0 256 -114.625 256 -256s-114.625 -256 -256 -256s-256 114.625 -256 256s114.625 256 256 256zM117.333 42.667c0.208984 0 85.334 32 85.334 32l-64 64l-32 -85.334c0 -10.666 0 -10.666 10.666 -10.666zM224 96l128 128l-64 64l-128 -128zM400 272
c0 0 5.33301 5.33301 5.33301 16s-5.33301 16 -5.33301 16l-32 32s-5.33301 5.33301 -16 5.33301s-16 -5.33301 -16 -5.33301l-26.667 -26.667l64 -64z" />
    <glyph glyph-name="uniF16C" unicode="&#xf16c;" 
d="M506.667 389.333c0 0 5.33301 -5.33301 5.33301 -16c0 -10.666 -5.33301 -16 -5.33301 -16l-37.334 -37.333l-85.333 85.333l37.333 37.334s5.33398 5.33301 16 5.33301c10.667 0 16 -5.33301 16 -5.33301zM437.332 287.998l-255.992 -255.992l-85.3311 85.3311
l255.992 255.991zM149.333 0c0 0 -143.777 -64 -144 -64c-5.33301 0 -5.33301 0 -5.33301 5.33301l64 144z" />
    <glyph glyph-name="uniF16D" unicode="&#xf16d;" 
d="M256 101.625l170.667 85.333v-80.291c0 -42.667 -170.667 -128 -170.667 -128s-170.667 85.333 -170.667 128v80.291zM256 405.333l256 -128l-256 -128l-256 128z" />
    <glyph glyph-name="uniF16E" unicode="&#xf16e;" 
d="M73.2686 277.333c-1.69531 0 -3.3916 1.69629 -2.82617 3.95703l9.04492 33.8213c0.566406 2.26172 1.69629 4.88867 3.95703 4.88867h33.1094l2.50586 10.667c18.0898 81.9697 60.0244 117.333 118.252 117.333c13.5674 0 26.5703 -2.26074 32.2227 -5.08789
c2.26172 -1.12988 2.82715 -2.82617 2.26172 -5.08789l-9.60938 -44.6592c-0.56543 -2.26074 -1.69629 -3.95703 -3.95801 -3.3916c-5.08789 1.69629 -12.4365 2.82617 -20.3516 2.82617c-19.7861 0 -41.2676 -6.7832 -52.0088 -57.0957l-3.53613 -15.5039h47.5293
c1.69434 0 2.82617 -1.61816 2.25977 -4.44434l-7.12305 -34.667c-0.56543 -2.26172 -1.69629 -2.99023 -3.39258 -3.55566h-49.9404c-22.0479 -108.539 -58.7217 -293.453 -70.5928 -330.199c-1.13086 -3.39062 -1.67969 -5.80078 -5.07227 -5.80078
c-17.5244 -2.26074 -53.5361 -4.7666 -58.0586 -5.33301c-2.26172 0 -3.39258 1.69629 -2.82617 4.52344c13.002 41.832 64.0703 295.542 72.5498 336.81h-34.3965zM252.772 316.043c-1.13086 2.26172 0.56543 3.95703 2.82617 3.95703h62.75
c2.82617 0 3.3916 -0.56543 3.95801 -2.82617l36.1797 -99.5801h0.564453l71.7949 99.0146c1.69531 2.26172 2.82617 3.3916 5.65332 3.3916h62.1836c2.82715 0 3.39258 -2.82617 1.69629 -4.52246c-23.7432 -29.9619 -79.1436 -100.146 -107.975 -133.498
c15.8281 -36.7451 47.4863 -107.09 59.3584 -134.788c1.13086 -2.8291 0 -4.52441 -2.82617 -4.52441h-62.1846c-2.82715 0 -4.52344 1.13086 -5.6543 3.95703l-37.3105 98.0449h-0.564453c-19.2217 -28.2656 -50.8779 -68.6484 -74.6221 -98.6094
c-0.564453 -1.69727 -1.69434 -2.82715 -5.65234 -3.39258h-66.7061c-2.26172 0 -3.3916 2.26172 -1.69629 4.52441c33.3535 39.5703 83.1006 99.1729 114.192 136.483z" />
    <glyph glyph-name="uniF16F" unicode="&#xf16f;" 
d="M362.667 384c40.0098 0 42.666 -13.9258 42.666 -21.333c0 -7.41699 0 -21.334 -42.666 -21.334c-72.0215 0 -186.667 -37.333 -224 -42.666c-21.1191 -3.01758 -32 5.33301 -32 16c0 16 11.4062 22.75 32 26.666c38.5723 6.93555 160.697 42.667 224 42.667z
M362.667 308.444c40.0098 0 42.666 -13.9258 42.666 -21.333c0 -7.41699 0 -21.334 -42.666 -21.334c-72.0215 0 -186.667 -37.333 -224 -42.666c-21.1191 -3.01758 -32 5.33301 -32 16c0 16 11.4062 22.75 32 26.666c38.5723 6.93555 160.697 42.667 224 42.667zM288 448
c32 0 32.042 -14.248 32.042 -20.8477c0 -3.97363 -0.03125 -10.8896 -7.54199 -16.0811c-11.2598 -1.49902 -22.1035 -3.61133 -32.4688 -6.13965c-42.0938 -10.2568 -130.109 -36.5605 -157.359 -36.5605c-16.0049 0 -16.0049 13.8779 -16.0049 13.8779
c0 9.46289 5.33301 23.1689 31.2598 29.1641c24.5684 4.13477 107.505 26.7002 142.104 35.1328c1.82324 0.443359 6.11426 1.03809 7.96875 1.4541zM341.333 106.667c21.334 0 21.334 -21.334 21.334 -21.334v-32c0 -21.333 -42.667 -32 -42.625 -53.333h-0.0419922v-32
l-32 -32h-64l-32 32v32h0.015625c-0.015625 21.333 -42.6826 32 -42.6826 53.333v32v0s0 21.334 21.334 21.334h170.666zM394.065 232.574c11.2676 -3.24121 11.2256 -14.8369 11.2676 -19.2412c0.0527344 -5.21875 -5.33301 -21.333 -42.666 -21.333
c-42.667 0 -42.667 -32.125 -42.667 -32.125v-31.875h-42.667v31.875c0 3.59375 0 53.458 26.709 64.0215c6.80566 1.55957 11.1211 3.08398 16.0869 4.22754c7.85449 0.931641 37.167 1.46484 45.2568 1.46484c11.2783 0 20.7471 0.973633 28.6797 2.98535zM218.828 208.8
c1.39746 0.564453 2.80566 1.13379 4.21973 1.7041c11.6152 -18.6279 11.6182 -47.9062 11.6182 -50.6289v-31.875h-42.666v31.875s2.67676 32.125 -21.334 32.125c-0.838867 0 -1.65625 0.0107422 -2.46387 0.0263672c16.3652 2.92383 33.042 9.66406 50.626 16.7734z" />
    <glyph glyph-name="uniF170" unicode="&#xf170;" 
d="M512 117.333l-112 86.667l112 84v-170.667zM0 362.667h512v-21.334l-256 -192l-256 192v21.334zM0 117.333v170.667l112 -84zM362.667 176l149.333 -117.333v-37.334h-512v37.334l149.333 117.333l106.667 -80z" />
    <glyph glyph-name="uniF171" unicode="&#xf171;" 
d="M0 405.333h512v-21.333l-256 -192l-256 192v21.333zM0 160v170.667l112 -84zM237.875 152.25c-4.20801 -6.95801 -7.91699 -14.25 -11.125 -21.8125c-8.89551 -21.0625 -13.417 -43.417 -13.417 -66.4375h-213.333v37.333l149.333 117.334zM450.458 221.229
c-9.70801 4.10352 -19.6875 7.27051 -29.875 9.5l-20.583 15.9375l112 84v-153.792c-2.35449 2.66699 -4.79199 5.27051 -7.33301 7.8125c-15.6465 15.6455 -33.8965 27.959 -54.209 36.542zM384 192c70.6875 0 128 -57.3125 128 -128s-57.3125 -128 -128 -128
s-128 57.3125 -128 128s57.3125 128 128 128zM458.667 16l-48 48l48 48l-26.667 26.667l-48 -48l-48 48l-26.667 -26.667l48 -48l-48 -48l26.667 -26.667l48 48l48 -48z" />
    <glyph glyph-name="uniF172" unicode="&#xf172;" 
d="M0 405.333h512v-21.333l-256 -192l-256 192v21.333zM0 160v170.667l112 -84zM394.667 192c64.8125 0 117.333 -52.542 117.333 -117.333c0 -64.792 -52.5205 -117.334 -117.333 -117.334c-64.792 0 -117.334 52.542 -117.334 117.334
c0 64.791 52.542 117.333 117.334 117.333zM394.667 -10.667c47.125 0 85.333 38.209 85.333 85.334s-38.208 85.333 -85.333 85.333s-85.334 -38.208 -85.334 -85.333s38.209 -85.334 85.334 -85.334zM400 138.667c2.9375 0 5.33301 -2.39648 5.33301 -5.33398v-63.083
l-37.0615 -37.0625c-2.06348 -2.08398 -5.45898 -2.08398 -7.54199 0l-7.54199 7.54199c-2.0625 2.0625 -2.0625 5.47852 0 7.54199l30.8125 30.8125v54.249c0 2.9375 2.41699 5.33398 5.33301 5.33398h10.667zM234.667 74.667c0 -3.60449 0.3125 -7.125 0.541016 -10.667
h-235.208v37.333l149.333 117.334l100.834 -75.625c-9.83398 -20.75 -15.5 -43.875 -15.5 -68.375zM512 183.188c-24.2295 26.1875 -57.0625 44.1875 -94.0625 49.5938l-17.9375 13.8857l112 84v-147.479z" />
    <glyph glyph-name="uniF173" unicode="&#xf173;" 
d="M123.479 -64c-31.4375 57.084 -75.4795 138.667 -80.8125 149.333c-5.33398 10.667 -16 26.667 0 42.667s33.2432 11.7793 42.666 0c21.334 -26.667 85.334 -106.667 85.334 -106.667v128l10.666 170.667c0 23.5625 10.667 42.667 32 42.667
c21.334 0 32 -19.1045 32 -42.667l10.667 -138.667s142.042 -39.0205 170.667 -53.333c42.666 -21.333 21.333 -85.333 21.333 -85.333l-23.708 -106.667h-300.812zM213.333 448c70.6875 0 128 -57.3125 128 -128c0 -37.8545 -16.541 -71.7715 -42.666 -95.208v95.208
c0 47.125 -38.209 85.333 -85.334 85.333s-85.333 -38.208 -85.333 -85.333v-95.208c-26.125 23.4375 -42.667 57.3535 -42.667 95.208c0 70.6875 57.3125 128 128 128z" />
    <glyph glyph-name="uniF174" unicode="&#xf174;" 
d="M213.333 362.667l256 -256h-120l61.334 -149.334l-48 -21.333l-69.334 154.667l-80 -80v352zM170.667 192v-64h-106.667v320h320v-195.66l-64 64v67.6602h-192v-192h42.667z" />
    <glyph glyph-name="uniF175" unicode="&#xf175;" 
d="M106.667 192v-64h-106.667v320h320v-195.66l-64 64v67.6602h-192v-192h42.667zM226.763 130.444c-7.48242 -17.6914 -11.8662 -36.29 -13.0801 -55.4287l-64.3496 -64.3486v352l150.287 -150.288c-13.2383 -7.5293 -25.3984 -16.7979 -36.2998 -27.6992
c-15.6592 -15.6602 -27.96 -33.9072 -36.5576 -54.2354zM384 192c70.6934 0 128 -57.3066 128 -128c0 -70.6924 -57.3066 -128 -128 -128c-70.6924 0 -128 57.3076 -128 128c0 70.6934 57.3076 128 128 128zM384 149.333c-47.1279 0 -85.333 -38.2041 -85.333 -85.333
c0 -15.3467 4.05371 -29.7451 11.1445 -42.1885l116.377 116.377c-12.4434 7.09082 -26.8418 11.1445 -42.1885 11.1445zM384 -21.333c47.1289 0 85.333 38.2051 85.333 85.333c0 15.3467 -4.05371 29.7451 -11.1445 42.1885l-116.377 -116.377
c12.4434 -7.09082 26.8418 -11.1445 42.1885 -11.1445z" />
    <glyph glyph-name="uniF176" unicode="&#xf176;" 
d="M256 448c141.385 0 256 -114.615 256 -256s-114.615 -256 -256 -256s-256 114.615 -256 256s114.615 256 256 256zM256 384c-106.039 0 -192 -85.9609 -192 -192c0 -40.7598 12.7031 -78.5518 34.3633 -109.638l267.273 267.274
c-31.085 21.6602 -68.877 34.3633 -109.637 34.3633zM256 0c106.039 0 192 85.9609 192 192c0 40.7598 -12.7031 78.5518 -34.3633 109.637l-267.273 -267.274c31.085 -21.6592 68.877 -34.3623 109.637 -34.3623z" />
    <glyph glyph-name="uniF177" unicode="&#xf177;" 
d="M448 405.333c11.7295 0 21.333 -9.60352 21.333 -21.333v-384c0 -11.7295 -9.60352 -21.333 -21.333 -21.333h-405.333c-11.7295 0 -21.334 9.60352 -21.334 21.333v384c0 11.7295 9.60449 21.333 21.334 21.333h405.333zM170.667 42.667v128h-85.334v-128h85.334z
M405.333 42.667v42.666h-192v-42.666h192zM405.333 128v42.667h-192v-42.667h192zM405.333 213.333v128h-320v-128h320z" />
    <glyph glyph-name="uniF178" unicode="&#xf178;" 
d="M384 192c70.6875 0 128 -57.3125 128 -128s-57.3125 -128 -128 -128s-128 57.3125 -128 128s57.3125 128 128 128zM469.333 42.667v42.666h-64v64h-42.666v-64h-64v-42.666h64v-64h42.666v64h64zM213.333 64c0 -7.25 0.604492 -14.333 1.47949 -21.333h-193.479
c-11.7295 0 -21.333 9.60352 -21.333 21.333v362.667c0 11.7295 9.60352 21.333 21.333 21.333h405.334c11.7295 0 21.333 -9.60352 21.333 -21.333v-204.521c-19.7705 8.01074 -41.3545 12.5215 -64 12.5215h-192v-42.667h79.375
c-13.8545 -12.208 -25.708 -26.583 -35.0205 -42.667h-44.3545v-42.666h26.916c-3.51953 -13.667 -5.58301 -27.917 -5.58301 -42.667zM64 384v-106.667h320v106.667h-320zM149.333 106.667v128h-85.333v-128h85.333z" />
    <glyph glyph-name="uniF179" unicode="&#xf179;" 
d="M341.333 127.833c78 0 170.667 0.166992 170.667 -191.833c-14.625 48.75 -53.333 106.667 -170.667 106.667v-53.5c0 -5.875 -3.41699 -7.29199 -7.54102 -3.125l-99.125 99.291l99.125 98.959c4.12402 4.12402 7.54102 2.72852 7.54102 -3.125v-53.334zM426.667 448
c11.7295 0 21.333 -9.60352 21.333 -21.333v-270.334c-21.0625 8.25098 -42.9375 11.75 -64 13.167v65.167h-192v-42.667h89.125l-42.75 -42.667h-46.375v-46.3086l-17.667 -17.6494l42.6465 -42.708h-195.646c-11.7295 0 -21.333 9.60352 -21.333 21.333v362.667
c0 11.7295 9.60352 21.333 21.333 21.333h405.334zM149.333 106.667v128h-85.333v-128h85.333zM384 277.333v106.667h-320v-106.667h320z" />
    <glyph glyph-name="uniF17A" unicode="&#xf17a;" 
d="M490.667 405.333v-405.333c0 -23.5625 -19.1045 -42.667 -42.667 -42.667h-405.333c-23.5635 0 -42.667 19.1045 -42.667 42.667v405.333c0 23.5635 19.1035 42.667 42.667 42.667h405.333c23.5625 0 42.667 -19.1035 42.667 -42.667zM384 320v64h-32
c-64 0 -96 -33.583 -96 -85.333v-64h-64v-64h64v-170.667h64v170.667h74.667l10.666 64h-85.333v53.333s0 32 32 32h32z" />
    <glyph glyph-name="uniF17B" unicode="&#xf17b;" 
d="M0 426.667h512v-341.334h-170.667v64h106.667v213.334h-384v-277.334h-64v341.334zM106.667 192h192v-213.333h-192v213.333zM256 32v19.3125c0 12.6875 -24.875 13.708 -33.749 24.291c-2 2.41699 -4.91699 11.167 -3.41699 16.0205c0 0 8.35449 18 8.35449 22.8965
h2.43652c4.91699 0 7.35449 9.72949 7.35449 14.5625c0 4.875 -4.89551 4.875 -4.89551 4.875c-0.0214844 0.0419922 0 4.85449 0 4.85449l-0.0419922 0.0205078c-0.416992 16.3965 -8.04199 31.834 -29.3545 31.834c-21.3545 0 -28.9375 -15.4375 -29.333 -31.833
l-0.0625 -0.0214844s0.0419922 -4.8125 0 -4.85352c0 0 -4.89551 0 -4.89551 -4.875c0 -4.83398 2.4375 -14.5635 7.35352 -14.5635h2.45801c0 -4.89551 8.29199 -22.8955 8.29199 -22.8955c1.5 -4.85449 -1.39648 -13.6045 -3.39648 -16.0215
c-8.89551 -10.583 -33.7705 -11.6035 -33.7705 -24.291v-19.3125s0 -10.667 42.667 -10.667h21.333c42.667 0 42.667 10.667 42.667 10.667z" />
    <glyph glyph-name="uniF17C" unicode="&#xf17c;" 
d="M416 320c0 0 96 -69.333 96 -74.667c0 -5.33301 -10.667 -21.333 -32 -42.666c0 0 -10.667 -10.667 -53.333 -10.667c0 0 -42.667 -64 -128 -149.333c0 0 32 0 32 -21.334c0 -21.333 -21.334 -21.333 -32 -21.333h-26.667s-26.667 -42.667 -58.667 -42.667
c-21.333 0 5.33398 48 5.33398 48s-69.334 16 -90.667 21.334c-14.6455 3.66602 -21.333 80 -64 101.333s-42.667 106.667 -42.667 106.667s-21.333 10.666 -21.333 42.666c0 42.667 42.667 42.667 42.667 42.667s42.666 0 42.666 -42.667c0 0 42.667 21.334 85.334 21.334
c64 0 85.333 -42.667 128 -42.667c42.666 0 53.333 42.667 64 42.667c0 0 -85.334 42.666 -128 128c0 0 85.333 0 181.333 -106.667zM256 48l42.667 58.667h-106.667s-42.667 -37.333 -21.333 -42.667z" />
    <glyph glyph-name="uniF17D" unicode="&#xf17d;" 
d="M256 448c141.4 0 256 -114.6 256 -256s-114.6 -256 -256 -256s-256 114.6 -256 256s114.6 256 256 256zM213.333 128v128l-64 64v-256zM256 64l128 128l-128 128v-256z" />
    <glyph glyph-name="uniF17E" unicode="&#xf17e;" 
d="M21.333 426.667h469.334v-469.334h-469.334v469.334zM426.667 21.333v64h-341.334v-64h341.334zM426.667 128v64h-341.334v-64h341.334zM426.667 234.667v64h-341.334v-64h341.334z" />
    <glyph glyph-name="uniF17F" unicode="&#xf17f;" 
d="M214.812 42.667c2.875 -23.1045 10.375 -44.709 21.542 -64h-236.354v469.333h469.333v-236.354c-25.125 14.5625 -54.208 23.0215 -85.333 23.0215c-29.959 0 -58.084 -7.77051 -82.5625 -21.334h-237.438v-64h172.354
c-7.64551 -13.208 -13.5205 -27.5205 -17.4375 -42.666h-154.916v-64h150.812zM64 320v-64h341.333v64h-341.333zM384 192c70.6875 0 128 -57.3125 128 -128s-57.3125 -128 -128 -128s-128 57.3125 -128 128s57.3125 128 128 128zM469.333 42.667v42.666h-64v64h-42.666v-64
h-64v-42.666h64v-64h42.666v64h64z" />
    <glyph glyph-name="uniF180" unicode="&#xf180;" 
d="M512 42.667h-23.4805c-2.77051 -13.6045 -8.18652 -26.2295 -15.583 -37.417l16.667 -16.667l-30.167 -30.167l-16.666 16.667c-11.1875 -7.41602 -23.8125 -12.833 -37.4375 -15.6035v-23.4795h-42.667v23.4795c-13.625 2.77051 -26.25 8.1875 -37.4375 15.6045
l-16.666 -16.667l-30.167 30.167l16.667 16.666c-7.39551 11.1875 -12.8125 23.8135 -15.583 37.417h-23.4795v42.667h23.4795c2.77051 13.625 8.18652 26.25 15.6035 37.4375l-16.667 16.666l30.167 30.167l16.667 -16.6875c11.1875 7.41602 23.8125 12.833 37.417 15.6035
v23.4795h42.666v-23.4795c13.6045 -2.77051 26.2295 -8.1875 37.417 -15.6045l16.667 16.6875l30.167 -30.166l-16.667 -16.667c7.41602 -11.1875 12.833 -23.8125 15.6035 -37.4375h23.4795v-42.666zM384 0c35.3545 0 64 28.667 64 64s-28.6455 64 -64 64
s-64 -28.667 -64 -64s28.6455 -64 64 -64zM214.812 42.667c2.875 -23.1045 10.375 -44.709 21.542 -64h-236.354v469.333h469.333v-236.354c-25.125 14.5625 -54.208 23.0215 -85.333 23.0215c-29.959 0 -58.084 -7.77051 -82.5625 -21.334h-237.438v-64h172.354
c-7.64551 -13.208 -13.5205 -27.5205 -17.4375 -42.666h-154.916v-64h150.812zM64 320v-64h341.333v64h-341.333z" />
    <glyph glyph-name="uniF181" unicode="&#xf181;" 
d="M320 277.333h128v-320c0 -21.333 -21.333 -21.333 -21.333 -21.333h-341.334s-21.333 0 -21.333 21.333v469.334c0 21.333 21.333 21.333 21.333 21.333h192v-128s0 -42.667 42.667 -42.667zM320 448l128 -128h-117.333c-10.667 0 -10.667 10.667 -10.667 10.667v117.333
z" />
    </font>
</defs>
</svg>
