<?xml version="1.0" encoding="utf-8"?>
<!-- Generator: Adobe Illustrator 16.0.1, SVG Export Plug-In . SVG Version: 6.00 Build 0)  -->
<!DOCTYPE svg PUBLIC "-//W3C//DTD SVG 1.1//EN" "http://www.w3.org/Graphics/SVG/1.1/DTD/svg11.dtd">
<svg version="1.1" id="Layer_1" xmlns="http://www.w3.org/2000/svg" xmlns:xlink="http://www.w3.org/1999/xlink" x="0px" y="0px"
	 width="512px" height="512px" viewBox="0 0 512 512" enable-background="new 0 0 512 512" xml:space="preserve">
<path fill="white" d="M509.355,469.334C504.023,458.667,288,32,288,32S272,0,256,0s-32,32-32,32S7.978,464,2.644,474.667
	C-2.689,485.334-2.689,512,29.311,512s453.378,0,453.378,0C514.689,512,514.689,480,509.355,469.334z M256,455.999
	c-22.09,0-39.999-17.907-39.999-39.999S233.91,376.001,256,376.001c22.092,0,39.999,17.907,39.999,39.999
	S278.092,455.999,256,455.999z M288,272c0,36.406-1.943,64.396-4,77.4c0,1.301-0.915,2.6-4,2.6h-48c-2.057,0-3.085-0.865-3.6-2.6
	c-1.029-12.137-4.4-40.994-4.4-77.4V164.768c0-1.734,0-3.467,2.571-4.768c6.171-3.034,21.716-4,29.429-4
	c10.283,0,23.771,1.833,29.43,4c2.57,1.3,2.57,3.467,2.57,4.768V272z"/>
</svg>
