<?xml version="1.0" standalone="no"?>
<!DOCTYPE svg PUBLIC "-//W3C//DTD SVG 1.1//EN" "http://www.w3.org/Graphics/SVG/1.1/DTD/svg11.dtd" >
<svg xmlns="http://www.w3.org/2000/svg">
	<metadata></metadata>
	<defs>
		<font id="AdobeIcons" horiz-adv-x="1152" >
			<font-face units-per-em="1152" ascent="1104" descent="-48" />
			<missing-glyph horiz-adv-x="1152" />
			<glyph unicode="&#xf002;" d="M 119.098 696.098 L -0.098 575.902 L 575.902 -0.0980225 L 1151.9 575.902 L 1031.71 696.098 L 575.902 240.293 Z M 119.098 1152.1 L -0.098 1031.9 L 575.902 455.902 L 1151.9 1031.9 L 1031.71 1152.1 L 575.902 696.293 Z" glyph-name="accordiondown" />
			<glyph unicode="&#xf003;" d="M 696 1032.81 L 575.805 1152 L -0.195 576 L 575.805 0 L 696 120.195 L 240.195 576 Z M 1152 1032.81 L 1031.81 1152 L 455.805 576 L 1031.81 0 L 1152 120.195 L 696.195 576 Z" glyph-name="accordionleft" />
			<glyph unicode="&#xf004;" d="M 455.805 1032.81 L 576 1152 L 1152 576 L 576 0 L 455.805 120.195 L 911.609 576 Z M -0.195 1032.81 L 120 1152 L 696 576 L 120 0 L -0.195 120.195 L 455.609 576 Z" glyph-name="accordionright" />
			<glyph unicode="&#xf005;" d="M 1032.71 455.902 L 1151.9 576.098 L 575.902 1152.1 L -0.098 576.098 L 120.098 455.902 L 575.902 911.707 Z M 1032.71 -0.0980225 L 1151.9 120.098 L 575.902 696.098 L -0.098 120.098 L 120.098 -0.0980225 L 575.902 455.707 Z" glyph-name="accordionup" />
			<glyph unicode="&#xf006;" d="M 816 528 L 1135.16 208.836 C 1157.61 186.377 1157.61 149.629 1135.16 127.17 L 1072.83 64.844 C 1050.37 42.385 1013.62 42.385 991.164 64.844 L 672 384 L 816 528 Z M 1140 1068 L 1068 1140 C 1068 1140 1056 1152 1032 1152 S 996 1140 996 1140 L 912 1056 L 1056 912 L 1140 996 C 1140 996 1152 1008 1152 1032 S 1140 1068 1140 1068 Z M 984.004 839.999 L 360.011 216.005 L 216.012 360.004 L 840.006 983.998 L 984.004 839.999 Z M 288 144 L 144 288 L 0 12 C 0 0 0 0 12 0 C 12.5 0 288 144 288 144 Z M 628.363 1152 C 349.091 1152 192 948 192 948 L 192 768 L 93.551 669.551 C 73.826 675.458 51.508 670.664 36 655.157 L 16.844 636 C -5.615 613.542 -5.615 581.622 16.844 559.164 L 74.335 496.844 C 96.793 474.385 133.542 474.385 156 496.844 L 175.157 516 C 190.664 531.508 195.458 553.826 189.551 573.55 L 288 672 L 384 672 L 528 816 C 528 816 528 890.182 528 960 C 528 1032 624 1056 672 1056 L 816 1056 L 816 1152 L 628.363 1152 Z" glyph-name="actions" />
			<glyph unicode="&#xf007;" d="M 576 1152 C 257.884 1152 0 894.116 0 576 S 257.884 0 576 0 S 1152 257.884 1152 576 S 894.116 1152 576 1152 Z M 960 480 L 672 480 L 672 192 L 480 192 L 480 480 L 192 480 L 192 672 L 480 672 L 480 960 L 672 960 L 672 672 L 960 672 L 960 480 Z" glyph-name="add-circle" />
			<glyph unicode="&#xf008;" d="M 1104 720 L 672 720 L 672 1152 L 432 1152 L 432 720 L 0 720 L 0 480 L 432 480 L 432 48 L 672 48 L 672 480 L 1104 480 Z" glyph-name="add" />
			<glyph unicode="&#xf009;" d="M 792 768 L 1072.31 284.671 C 1122.66 370.266 1152 469.547 1152 576 C 1152 643.406 1139.81 707.953 1118.53 768 L 792 768 Z M 360 384 L 79.641 867.281 C 29.367 781.734 0 682.26 0 575.901 C 0 508.4 12.188 461 38.113 384 L 360 384 Z M 528 864 L 1085.25 864 C 1006.83 1008 865.734 1112.48 697.125 1148.62 L 528 864 Z M 624 288 L 66.75 288 C 145.172 144 286.266 39.562 454.875 3.375 L 624 288 Z M 309.984 683.484 L 580.266 1151.77 C 578.859 1151.77 577.406 1152 576 1152 C 406.547 1152 254.625 1078.36 149.25 961.875 L 309.984 683.484 Z M 842.062 468.516 L 571.734 0.237061 C 573.138 0.237061 574.57 0.00305176 576 0.00305176 C 745.453 0.00305176 897.375 73.644 1002.75 190.128 L 842.062 468.516 Z" glyph-name="adjust" />
			<glyph unicode="&#xf00a;" d="M 576 1152 C 257.812 1152 0 894.094 0 576 S 257.812 0 576 0 C 894.141 0 1152 257.906 1152 576 S 894.141 1152 576 1152 Z M 238.969 254.156 C 199.735 295.218 168.657 342.422 146.531 394.687 C 145.687 396.749 144.843 398.812 144 400.875 L 144 480 L 238.969 480 L 238.969 254.156 Z M 394.594 146.625 C 374.25 155.25 354.75 165.187 335.953 176.437 L 336 624 L 432 624 L 432.188 132.562 C 419.438 136.688 406.969 141.375 394.594 146.625 Z M 505.641 680.812 L 495.657 684.515 L 375.376 729.187 L 244.078 578.297 L 239.766 573.375 L 233.438 571.922 L 128.25 548.016 L 117 545.438 C 113.531 565.5 111.281 585.844 110.438 606.422 L 119.25 608.484 L 206.625 629.062 L 351.891 792.843 L 361.125 803.249 L 374.063 798.187 L 498.141 750.046 L 778.125 950.062 L 791.437 959.578 L 803.343 948.422 L 930.75 829.594 L 976.172 865.594 C 987.188 847.125 996.938 828 1005.38 808.032 C 1005.61 807.516 1005.8 807.001 1006.03 806.485 L 942.562 755.766 L 928.968 744.938 L 916.359 756.938 L 785.156 880.875 L 514.266 687 L 505.641 680.812 Z M 623.344 112.359 C 607.735 110.812 591.938 110.015 576 110.015 C 559.875 110.015 543.844 110.812 528 112.406 L 528 624 L 624 624 L 623.344 112.359 Z M 757.312 146.625 C 745.031 141.375 732.562 136.781 720 132.656 L 720 720 L 816 720 L 816.75 176.906 C 797.766 165.375 777.938 155.25 757.312 146.625 Z M 1005.38 394.688 C 983.156 342 951.75 294.422 912 253.125 L 912 672 L 1008 672 L 1008 400.875 C 1007.16 398.812 1006.31 396.75 1005.38 394.688 Z" glyph-name="adobeanalytics" />
			<glyph unicode="&#xf00b;" d="M 576 289.969 C 550.969 289.969 527.344 280.219 509.672 262.547 C 503.25 256.125 496.5 250.313 489.375 245.109 C 508.781 218.203 540.328 200.671 576 200.671 S 643.219 218.202 662.625 245.109 C 655.547 250.312 648.75 256.125 642.328 262.5 C 624.656 280.219 601.125 289.969 576 289.969 Z M 307.406 414.188 C 303.797 414.188 300.187 414.329 296.625 414.563 C 293.719 405.516 292.219 395.907 292.219 386.11 C 292.219 360.985 301.969 337.36 319.688 319.735 C 337.407 302.063 360.938 292.36 386.063 292.36 C 395.86 292.36 405.469 293.86 414.563 296.766 C 414.375 300.282 414.235 303.844 414.235 307.454 C 414.234 366.328 366.328 414.188 307.406 414.188 Z M 576 862.078 C 601.031 862.078 624.656 871.828 642.328 889.547 C 648.75 895.922 655.5 901.735 662.625 906.985 C 643.219 933.844 611.625 951.329 576 951.329 S 508.781 933.845 489.375 906.985 C 496.453 901.735 503.25 895.923 509.672 889.547 C 527.344 871.828 550.875 862.078 576 862.078 Z M 307.406 737.859 C 366.281 737.859 414.187 785.765 414.187 844.64 C 414.187 848.249 414.328 851.859 414.562 855.421 C 405.515 858.327 395.906 859.827 386.109 859.827 C 361.031 859.827 337.406 850.077 319.734 832.358 C 302.015 814.639 292.265 791.108 292.265 765.983 C 292.265 756.186 293.765 746.577 296.624 737.483 C 300.188 737.719 303.797 737.859 307.406 737.859 Z M 245.062 662.672 C 218.109 643.266 200.624 611.719 200.624 576.047 S 218.108 508.828 245.062 489.328 C 250.265 496.453 256.124 503.297 262.5 509.672 C 280.172 527.391 289.922 550.922 289.922 576 S 280.172 624.703 262.406 642.375 C 256.078 648.797 250.312 655.547 245.062 662.672 Z M 765.891 859.781 C 756.094 859.781 746.485 858.281 737.344 855.422 C 737.625 851.86 737.766 848.25 737.766 844.594 C 737.766 785.719 785.672 737.813 844.594 737.813 C 848.203 737.813 851.813 737.672 855.375 737.391 C 858.281 746.485 859.781 756.141 859.781 765.938 C 859.781 790.922 850.031 814.5 832.312 832.219 C 814.594 850.031 790.969 859.781 765.891 859.781 Z M 576 1152 C 257.812 1152 0 894.094 0 576 S 257.812 0 576 0 C 894.141 0 1152 257.906 1152 576 S 894.141 1152 576 1152 Z M 932.25 440.062 C 937.781 422.859 940.688 404.765 940.688 386.109 C 940.688 339.421 922.5 295.453 889.547 262.5 S 812.625 211.359 765.985 211.359 C 747.376 211.359 729.188 214.265 711.985 219.843 C 683.157 175.171 633.001 145.64 576.047 145.64 S 469.031 175.171 440.156 219.843 C 423 214.265 404.812 211.359 386.156 211.359 C 339.468 211.359 295.547 229.547 262.594 262.5 C 229.547 295.594 211.406 339.516 211.406 386.109 C 211.406 404.765 214.359 422.859 219.89 440.062 C 175.218 468.89 145.687 519.046 145.687 576.046 S 175.218 683.108 219.89 711.984 C 214.218 729.234 211.312 747.328 211.312 765.984 C 211.312 812.765 229.546 856.593 262.453 889.546 C 295.547 922.546 339.469 940.734 386.062 940.734 C 404.718 940.734 422.812 937.781 440.015 932.203 C 468.938 976.828 519 1006.41 576 1006.41 C 632.906 1006.41 683.062 976.828 711.891 932.25 C 729.094 937.828 747.282 940.734 765.891 940.734 C 812.532 940.734 856.407 922.546 889.5 889.593 C 922.453 856.546 940.594 812.671 940.688 766.031 C 940.688 747.422 937.735 729.234 932.157 712.078 C 976.782 683.203 1006.36 633.047 1006.36 576.094 S 976.875 468.984 932.25 440.062 Z M 781.031 576.047 C 781.031 616.078 794.39 654.047 819 684.797 C 750.234 695.766 695.766 750.281 684.844 819.141 C 654 794.531 616.031 781.078 576 781.078 S 498 794.437 467.156 819.047 C 456.234 750.281 401.766 695.766 333 684.797 C 357.609 654 370.969 616.031 370.969 576 C 370.969 535.875 357.61 497.953 333 467.203 C 401.812 456.234 456.281 401.765 467.25 332.859 C 498.047 357.515 536.016 370.921 576.047 370.921 S 654.047 357.515 684.844 332.859 C 695.813 401.765 750.282 456.234 819.094 467.203 C 794.484 497.953 781.031 535.922 781.031 576.047 Z M 906.938 662.672 C 901.735 655.594 895.922 648.797 889.547 642.375 C 871.828 624.703 862.078 601.172 862.078 576.047 C 862.078 551.016 871.828 527.297 889.547 509.578 C 895.922 503.203 901.735 496.5 906.938 489.328 C 933.891 508.828 951.376 540.375 951.376 576.047 S 933.844 643.266 906.938 662.672 Z M 844.594 414.188 C 785.719 414.188 737.813 366.329 737.813 307.454 C 737.813 303.845 737.672 300.282 737.438 296.673 C 746.485 293.814 756.141 292.314 765.938 292.314 C 790.969 292.314 814.594 302.017 832.313 319.689 C 849.985 337.361 859.735 360.892 859.735 386.064 C 859.735 395.861 858.235 405.423 855.376 414.517 C 851.812 414.328 848.203 414.188 844.594 414.188 Z" glyph-name="adobeexperiencemanager" />
			<glyph unicode="&#xf00c;" d="M 244.688 534.375 L 224.719 534.375 L 224.719 554.344 L 224.719 574.219 C 224.719 621.938 234.281 668.391 252.844 712.031 C 267.469 745.969 286.875 777.093 311.063 804.937 L 265.501 851.437 C 234.282 815.718 209.813 775.499 192.376 731.437 C 172.97 682.593 162.845 631.031 162.564 578.249 C 162.002 525.374 171.283 473.718 190.126 424.687 C 207.001 380.39 230.907 339.749 261.564 303.656 L 495 534.469 L 244.688 534.469 L 244.688 534.375 Z M 847.969 534.375 L 624 534.375 L 624 308.297 C 681.469 317.625 732.938 344.485 773.156 385.172 C 813.375 426 839.531 478.359 847.969 534.375 Z M 338.344 692.25 C 327.938 670.266 320.625 647.062 316.406 624 L 537.187 624 L 537.187 839.719 C 512.999 835.781 489.375 828.563 467.156 818.344 C 439.031 805.406 413.437 787.875 391.5 766.406 C 369.562 744.797 351.562 719.812 338.344 692.25 Z M 576 1152 C 257.906 1152 0 894.094 0 576 S 257.906 0 576 0 S 1152 257.906 1152 576 S 894.094 1152 576 1152 Z M 920.531 230.578 L 912.093 222.281 L 897.749 208.172 L 883.687 222.469 L 805.781 301.688 C 744.75 252.094 667.406 222.235 583.031 221.813 L 583.031 221.813 L 583.031 221.813 L 557.156 221.813 L 537.187 221.813 L 537.187 241.782 L 537.187 486.797 L 274.219 226.875 L 260.157 212.766 L 246.095 227.063 L 237.657 235.501 C 147.094 327.562 97.875 449.438 98.719 578.672 C 99.844 707.906 150.75 829.078 242.438 919.781 L 250.876 928.172 L 265.22 942.281 L 279.282 927.937 L 356.907 849.046 C 382.782 869.999 411.188 887.155 442.126 900.234 C 485.72 918.75 532.126 928.265 579.938 928.5 L 579.938 928.5 L 579.938 928.5 L 605.813 928.5 L 624 928.5 L 624 660 L 888.75 923.531 L 903.094 937.687 L 917.156 923.249 L 925.312 914.858 C 1112.06 724.969 1109.81 417.938 920.531 230.578 Z M 972.844 725.812 C 955.969 770.062 932.063 810.75 901.406 846.796 L 672 624 L 918.281 624 L 936 624 L 936 600 L 936 576 C 936.562 485.766 905.906 409.406 851.344 346.031 L 897.469 298.969 C 928.688 334.688 953.157 374.953 970.594 419.016 C 989.953 467.813 1000.08 519.375 1000.36 572.204 C 1000.97 625.078 991.688 676.734 972.844 725.812 Z" glyph-name="adobemediaoptimizer" />
			<glyph unicode="&#xf00d;" d="M 300.375 781.031 C 300.375 781.125 300.375 781.125 300.375 781.219 L 507.609 879.703 C 522.562 866.015 541.968 858.141 562.593 857.859 L 635.25 672.75 C 633.375 670.969 631.594 669.188 630 667.219 L 300.375 781.031 Z M 784.031 827.438 L 625.312 885.188 C 623.906 883.594 622.406 882.188 620.906 880.688 L 693.562 695.532 C 701.156 695.438 708.656 694.22 716.062 692.063 L 794.531 790.125 C 788.156 801.469 784.594 814.219 784.031 827.438 Z M 638.344 549.328 L 315.609 384.094 L 649.781 281.11 C 657.562 290.579 667.312 298.266 678.375 303.657 L 665.437 533.907 C 655.5 537.234 646.312 542.531 638.344 549.328 Z M 609.469 607.969 L 279.844 721.781 C 272.063 712.875 262.406 705.75 251.625 700.875 L 261.187 454.922 C 270.562 451.547 279.281 446.344 286.875 439.922 L 609.656 605.156 C 609.562 606.094 609.562 607.031 609.469 607.969 Z M 843.656 750.938 L 765 652.781 C 771.938 640.5 775.594 626.625 775.594 612.375 C 775.594 608.813 775.313 605.156 774.844 601.5 L 886.688 534 C 887.719 534.797 888.844 535.359 889.876 536.156 L 850.314 749.156 C 848.062 749.719 845.812 750.281 843.656 750.938 Z M 852.281 477.047 L 740.437 544.547 C 736.499 541.828 732.375 539.391 727.968 537.328 L 741 307.172 C 741.844 306.891 742.594 306.61 743.438 306.328 L 859.407 431.109 C 854.251 442.031 851.626 453.937 851.626 466.171 C 851.625 469.875 851.812 473.391 852.281 477.047 Z M 1152 576 C 1152 257.906 894.188 0 576 0 S 0 257.906 0 576 S 257.812 1152 576 1152 S 1152 894.094 1152 576 Z M 1017.84 466.219 C 1017.84 506.25 989.344 539.813 951.563 547.594 L 911.907 760.688 C 935.438 775.641 950.251 801.891 950.251 830.485 C 950.251 876.329 912.939 913.501 867.095 913.501 C 843.47 913.501 821.251 903.376 805.595 886.267 L 646.689 944.064 C 645.095 988.408 608.439 1024.03 563.72 1024.03 C 517.923 1024.03 480.751 986.721 480.751 940.971 C 480.751 939.377 480.751 937.924 480.845 936.283 L 273.423 837.845 C 258.282 851.72 238.407 859.689 217.454 859.689 C 171.563 859.689 134.251 822.377 134.251 776.533 C 134.251 741.002 156.845 710.158 189.001 698.533 L 198.47 452.674 C 169.361 439.455 149.626 409.971 149.626 376.924 C 149.626 331.08 186.845 293.862 232.688 293.862 C 258.047 293.862 281.438 305.206 297 324.331 L 631.312 221.393 C 634.968 178.924 670.687 145.549 714.093 145.549 C 759.843 145.549 797.062 182.861 797.062 228.705 C 797.062 240.799 794.343 252.705 789.374 263.674 L 905.343 388.549 C 914.624 384.987 924.562 383.205 934.687 383.205 C 980.531 383.109 1017.84 420.375 1017.84 466.219 Z" glyph-name="adobesocial" />
			<glyph unicode="&#xf00e;" d="M 580.594 782.953 C 540.328 782.953 507.61 815.672 507.61 855.891 S 540.329 928.829 580.594 928.829 C 620.813 928.829 653.532 896.11 653.532 855.891 S 620.812 782.953 580.594 782.953 Z M 301.828 650.062 C 261.609 650.062 228.844 617.39 228.844 577.171 S 261.61 504.233 301.828 504.233 S 374.812 536.952 374.812 577.171 S 342.047 650.062 301.828 650.062 Z M 576.094 375.844 C 535.828 375.844 503.063 343.172 503.063 302.953 S 535.829 230.015 576.094 230.015 C 616.266 230.015 648.938 262.734 648.938 302.953 S 616.266 375.844 576.094 375.844 Z M 1152 576 C 1152 257.906 894.141 0 576 0 C 257.812 0 0 257.906 0 576 S 257.812 1152 576 1152 C 894.141 1152 1152 894.094 1152 576 Z M 1006.69 577.172 C 1006.69 662.953 936.844 732.703 851.063 732.703 S 695.438 662.953 695.438 577.172 C 695.438 544.406 705.938 512.766 725.25 486.188 L 667.406 428.344 C 652.359 439.36 635.437 447.469 617.437 452.438 L 617.437 705.469 C 686.249 722.11 736.218 783.938 736.218 855.891 C 736.218 941.672 666.374 1011.47 580.593 1011.47 S 424.968 941.672 424.968 855.891 C 424.968 835.36 429.28 815.203 437.718 795.75 L 361.968 720.047 C 342.562 728.485 322.359 732.797 301.827 732.797 C 216.046 732.797 146.249 662.953 146.249 577.172 C 146.249 491.438 216.046 421.641 301.827 421.641 S 457.405 491.438 457.405 577.172 C 457.405 610.125 446.811 641.953 427.311 668.578 L 489.186 730.406 C 503.155 720.187 518.436 712.406 534.655 707.437 L 534.655 452.484 C 505.217 444.281 478.452 427.5 458.202 404.156 C 433.921 376.078 420.468 340.125 420.468 302.953 C 420.468 217.172 490.312 147.328 576.093 147.328 C 661.827 147.328 731.624 217.172 731.624 302.953 C 731.624 323.437 727.312 343.547 718.874 362.953 L 790.312 434.437 C 809.859 425.906 830.203 421.546 851.062 421.546 C 936.844 421.594 1006.69 491.391 1006.69 577.172 Z M 811.312 576 C 811.312 549.469 832.781 528 859.312 528 S 907.312 549.469 907.312 576 C 907.312 602.578 885.843 624 859.312 624 S 811.312 602.578 811.312 576 Z" glyph-name="adobetarget" />
			<glyph unicode="&#xf00f;" d="M 1146.05 96 C 1134.05 120 648 1080 648 1080 S 612 1152 576 1152 S 504 1080 504 1080 S 17.949 108 5.949 84 S -6.051 0 65.949 0 S 1086.05 0 1086.05 0 C 1158.05 0 1158.05 72 1146.05 96 Z M 492 792 C 492 795.891 493.078 801.375 500.25 804.305 C 517.5 811.125 552.984 816 574.547 816 C 603.328 816 634.406 812.109 650.203 807.234 C 657.422 804.304 660 799.429 660 796.5 L 660 720 C 660 612 629.766 419.109 624 389.859 C 624 386.928 622.547 384 613.922 384 L 538.078 384 C 532.312 384 529.453 385.945 528 389.859 C 525.141 417.164 492 612 492 720 L 492 792 Z M 576 129 C 527.953 129 489 167.953 489 216 S 527.953 303 576 303 S 663 264.047 663 216 S 624.047 129 576 129 Z" glyph-name="alert" />
			<glyph unicode="&#xf010;" d="M 481.408 255.096 C 445.97 264.987 420.002 297.471 420.002 336.002 C 420.002 382.174 457.221 419.627 503.346 420.002 C 505.502 425.861 507.752 431.721 510.19 437.533 C 529.596 483.236 557.252 524.298 592.502 559.501 C 627.705 594.751 668.768 622.407 714.471 641.813 C 737.627 651.563 761.533 659.016 785.862 664.032 C 679.126 872.719 573.001 1080 573.001 1080 S 538.501 1152 504.001 1152 S 435.001 1080 435.001 1080 S 17.206 252.002 5.721 228.002 C -5.81 204.002 -5.81 144.002 63.19 144.002 C 96.518 144.002 303.096 144.002 507.939 144.002 C 493.501 179.627 484.595 216.846 481.408 255.096 Z M 436.361 852.282 C 449.673 859.125 486.283 864 502.876 864 C 525.095 864 558.282 860.109 570.469 855.234 C 576 852.281 576 847.406 576 844.5 L 576 768 C 576 686.062 559.406 563.109 555 533.859 C 555 530.906 553.875 528 547.219 528 L 458.531 528 C 454.125 528 451.875 529.969 450.75 533.859 C 448.594 561.187 432 686.062 432 768 L 432 840 C 432.001 843.891 430.83 849.375 436.361 852.282 Z M 864.001 576.001 C 704.954 576.001 576.001 447.049 576.001 288.002 S 704.954 0.00195312 864.001 0.00195312 C 1023.05 0.00195312 1152 128.955 1152 288.002 S 1023.05 576.001 864.001 576.001 Z M 1056 240.002 L 912 240.002 L 912 96.002 L 816.001 96.002 L 816.001 240.002 L 672.001 240.002 L 672.001 336.002 L 816.001 336.002 L 816.001 480.002 L 912 480.002 L 912 336.002 L 1056 336.002 L 1056 240.002 Z" glyph-name="alertadd" />
			<glyph unicode="&#xf011;" d="M 609.367 935.593 L 529.866 1137.16 C 524.71 1149.44 530.616 1155.21 542.71 1150.19 L 1104 960.015 L 863.996 393.146 C 858.98 380.912 850.73 381.005 845.621 393.146 L 748.261 603.478 C 287.987 432.007 178.908 124.549 191.986 0 C 121.766 152.065 95.985 278.302 95.985 384.006 C 95.984 672.011 386.473 842.451 609.367 935.593 Z" glyph-name="alias" />
			<glyph unicode="&#xf012;" d="M 1056 528 L 720 384 L 864 312 C 859.579 245.088 761.935 168.163 624 148.938 L 624 624 L 816 624 L 816 720 L 624 720 L 624 832.781 C 680.578 859.828 720 917.109 720 984 C 720 1076.81 644.766 1152 552 1152 S 384 1076.81 384 984 C 384 917.109 423.422 859.828 480 832.781 L 480 720 L 288 720 L 288 624 L 480 624 L 480 148.938 C 342.066 168.163 244.421 245.086 240 311.999 L 384 384 L 48 528 L 0 192 L 107.438 245.719 C 151.875 105.375 333.562 0 552 0 S 952.125 105.375 996.562 245.719 L 1104 192 L 1056 528 Z M 468 984 C 468 1030.31 505.688 1068 552 1068 S 636 1030.31 636 984 S 598.312 900 552 900 S 468 937.688 468 984 Z" glyph-name="anchor" />
			<glyph unicode="&#xf013;" d="M 192 408 C 192 368.235 159.765 336 120 336 L 120 336 C 80.236 336 48 368.235 48 408 L 48 744 C 48 783.765 80.235 816 120 816 L 120 816 C 159.764 816 192 783.765 192 744 L 192 408 Z M 1056 407.998 C 1056 368.225 1023.75 335.998 984 335.998 L 984 335.998 C 944.25 335.998 912 368.225 912 407.998 L 912 743.996 C 912 783.769 944.25 815.996 984 815.996 L 984 815.996 C 1023.75 815.996 1056 783.77 1056 743.996 L 1056 407.998 Z M 240 720 C 240 720 240 335.998 240 287.998 C 240 239.999 287.999 240 287.999 240 L 336 240 L 336 72 C 336 32.391 368.391 0 408 0 S 480 32.391 480 72 L 480 240 L 624 240 L 624 72 C 624 32.391 656.391 0 696 0 S 768 32.391 768 72 L 768 240 L 815.995 240 C 815.995 240 864 239.999 864 287.998 C 864 335.998 864 720 864 720 L 240 720 Z M 239.999 768 L 863.995 768 C 858.183 845 824.339 913.614 772.824 964.824 L 900.558 1092.58 C 900.558 1092.58 925.589 1117.59 901.589 1141.59 C 877.589 1165.59 852.558 1140.58 852.558 1140.58 L 719.434 1007.46 C 670.965 1038.18 613.496 1055.99 551.997 1055.99 C 490.497 1055.99 433.029 1038.18 384.56 1007.46 L 251.436 1140.58 C 251.436 1140.58 226.405 1165.59 202.405 1141.59 C 178.405 1117.59 203.436 1092.58 203.436 1092.58 L 331.17 964.824 C 279.655 913.614 245.812 845 239.999 768 Z M 671.996 971.994 C 705.137 971.994 731.996 945.135 731.996 911.994 C 731.996 878.854 705.137 851.994 671.996 851.994 S 611.996 878.853 611.996 911.994 C 611.996 945.135 638.855 971.994 671.996 971.994 Z M 491.997 911.995 C 491.997 878.855 465.138 851.995 431.997 851.995 C 398.857 851.995 371.997 878.854 371.997 911.995 C 371.997 945.136 398.856 971.995 431.997 971.995 C 465.138 971.994 491.997 945.135 491.997 911.995 Z" glyph-name="android" />
			<glyph unicode="&#xf014;" d="M 408 744 L 96 432 L 0 204 C 0 192 0 192 12 192 C 12.469 192 240 288 240 288 L 552 600 L 408 744 Z M 912 912 C 912 912 936 936 948 948 C 964 964 964 1004 948 1020 C 936 1032 840 1128 828 1140 C 811.999 1156 771.999 1156 756 1140 C 744 1128 444 828 444 828 L 636 636 L 840 840 L 888 792 L 576 480 C 576 480 648 408 720 480 C 720 480 984 744 996 756 C 1012 772 1012 812 996 828 C 984 840 912 912 912 912 Z M 1056 384 C 1020 336 816 96 528 96 S 48 144 48 144 S 240 0 528 0 C 1008 0 1152 288 1152 336 S 1096.73 438.306 1056 384 Z" glyph-name="annotate" />
			<glyph unicode="&#xf015;" d="M 1008 1056 L 144 1056 C 64.781 1056 0 991.195 0 912 L 0 336 C 0 256.805 64.781 192 144 192 L 384 192 L 576 0 L 768 192 L 1008 192 C 1087.22 192 1152 256.805 1152 336 L 1152 912 C 1152 991.195 1087.22 1056 1008 1056 Z M 576 273 C 527.953 273 489 311.953 489 360 S 527.953 447 576 447 S 663 408.047 663 360 S 624.047 273 576 273 Z M 660 840 C 660 732 629.766 563.109 624 533.859 C 624 530.929 622.547 528 613.922 528 L 538.078 528 C 532.312 528 529.453 529.945 528 533.859 C 525.141 561.164 492 732 492 840 L 492 936 C 492 939.891 493.078 945.375 500.25 948.305 C 517.5 955.125 552.984 960 574.547 960 C 603.328 960 634.406 956.109 650.203 951.234 C 657.422 948.304 660 943.429 660 940.5 L 660 840 Z" glyph-name="answer" />
			<glyph unicode="&#xf016;" d="M 864 576 L 936 384 L 1152 384 L 984 240 L 1056 0 L 864 133.922 L 672 0 L 744 240 L 576 384 L 792 384 Z M 1008 1152 L 144 1152 C 64.781 1152 0 1087.19 0 1008 L 0 432 C 0 352.805 64.781 288 144 288 L 384 288 L 576 96 L 611.104 131.104 L 634.101 207.76 L 542.99 285.856 L 542.99 285.855 L 407.598 401.905 C 357.487 444.857 370.487 480 436.487 480 L 492.355 480 C 502.774 516.375 536.278 543 576 543 S 649.227 516.375 659.645 480 L 725.472 480 L 773.761 608.771 C 773.762 608.774 773.763 608.776 773.764 608.779 L 821.866 737.049 C 845.04 798.846 882.962 798.846 906.136 737.049 L 960.395 592.359 L 960.395 592.359 L 1002.53 480 L 1152 480 L 1152 1008 C 1152 1087.19 1087.22 1152 1008 1152 Z M 660 936 C 660 828 629.766 659.109 624 629.859 C 624 626.929 622.547 624 613.922 624 L 538.078 624 C 532.312 624 529.453 625.945 528 629.859 C 525.141 657.164 492 828 492 936 L 492 1032 C 492 1035.89 493.078 1041.38 500.25 1044.31 C 517.5 1051.12 552.984 1056 574.547 1056 C 603.328 1056 634.406 1052.11 650.203 1047.23 C 657.422 1044.3 660 1039.43 660 1036.5 L 660 936 Z" glyph-name="answerfavorite" />
			<glyph unicode="&#xf017;" d="M 614.176 1051.75 C 689.867 1151.51 795.098 1152 795.098 1152 S 810.747 1058.21 735.555 967.852 C 655.265 871.373 564.004 887.162 564.004 887.162 S 546.868 963.038 614.176 1051.75 Z M 576 816 C 614.941 816 685.931 864 780 864 C 941.924 864 1004.53 754.239 1004.53 754.239 S 879.944 696.068 879.944 541.507 C 879.944 367.147 1035.14 307.059 1035.14 307.059 S 926.651 1.69397 780.113 1.69397 C 712.804 1.69397 660.48 47.051 589.562 47.051 C 517.296 47.051 445.576 0 398.869 0 C 265.054 0 96 289.668 96 522.51 C 96 751.599 237.785 864 372 864 C 459.252 864 530.64 816 576 816 Z" glyph-name="apple" />
			<glyph unicode="&#xf018;" d="M 0 1056 L 1152 1056 L 1152 864 L 0 864 Z M 96 768 L 96 96 L 1056 96 L 1056 768 L 96 768 Z M 720 480 L 432 480 L 432 624 L 720 624 L 720 480 Z" glyph-name="archive" />
			<glyph unicode="&#xf019;" d="M 1050.65 463.031 C 1059.94 472.359 1056.84 480 1043.62 480 L 768 480 L 768 1152 L 384 1152 L 384 480 L 108.391 480 C 95.196 480 92.032 472.359 101.36 463.031 L 576 0 L 1050.65 463.031 Z" glyph-name="arrowdown" />
			<glyph unicode="&#xf01a;" d="M 463.031 101.346 C 472.359 92.0649 480 95.158 480 108.377 L 480 384 L 1152 384 L 1152 768 L 480 768 L 480 1043.61 C 480 1056.8 472.359 1059.97 463.031 1050.64 L 0 576 L 463.031 101.346 Z" glyph-name="arrowleft" />
			<glyph unicode="&#xf01b;" d="M 688.969 101.346 C 679.641 92.0649 672 95.158 672 108.377 L 672 384 L 0 384 L 0 768 L 672 768 L 672 1043.61 C 672 1056.8 679.641 1059.97 688.969 1050.64 L 1152 576 L 688.969 101.346 Z" glyph-name="arrowright" />
			<glyph unicode="&#xf01c;" d="M 1050.65 688.969 C 1059.94 679.641 1056.84 672 1043.62 672 L 768 672 L 768 0 L 384 0 L 384 672 L 108.391 672 C 95.196 672 92.032 679.641 101.36 688.969 L 576 1152 L 1050.65 688.969 Z" glyph-name="arrowup" />
			<glyph unicode="&#xf01d;" d="M 384 1152 C 171.938 1152 0 980.062 0 768 S 171.938 384 384 384 S 768 555.938 768 768 S 596.062 1152 384 1152 Z M 288 528 L 288 1008 L 576 768 L 288 528 Z M 861.562 720 C 858.281 686.906 851.578 654.797 841.874 624 L 1056 624 L 1056 96 L 432 96 L 432 290.438 C 416.203 288.844 400.219 288 384 288 S 351.797 288.844 336 290.438 L 336 0 L 1152 0 L 1152 720 L 861.562 720 Z M 864 504 L 768 288 L 671.484 384.516 C 633.984 356.344 592.359 333.61 547.546 317.297 L 528 288 L 528 192 L 960 192 L 960 432 L 864 504 Z" glyph-name="asset" />
			<glyph unicode="&#xf01e;" d="M 751.031 654.984 C 762 690.75 768 728.672 768 768 C 768 980.062 596.062 1152 384 1152 S 0 980.062 0 768 S 171.938 384 384 384 C 423.328 384 461.25 389.953 497.016 400.969 C 534.375 522 630 617.672 751.031 654.984 Z M 288 1008 L 576 768 L 288 528 L 288 1008 Z M 864 576 C 704.906 576 576 447.047 576 288 C 576 128.906 704.906 0 864 0 C 1023 0 1152 128.906 1152 288 C 1152 447.047 1023 576 864 576 Z M 792 108 L 660 240 L 720 300 L 792 228 L 1008 444 L 1068 384 L 792 108 Z M 864 768 C 864 735.141 860.625 703.031 854.344 672 L 1008 672 L 1008 643.734 C 1042.83 629.578 1075.12 610.5 1104 587.296 L 1104 768 L 864 768 Z M 384 144 L 384 288 C 351.094 288 319.031 291.328 288 297.656 L 288 48 L 564.75 48 C 541.5 76.875 522.422 109.172 508.266 144 L 384 144 Z" glyph-name="assetcheck" />
			<glyph unicode="&#xf01f;" d="M 792 792 L 720 864 L 408 552 C 408 552 360 503.999 360 455.999 S 408 360 408 360 L 432 336 C 432 336 480 287.999 528 287.999 S 624 336 624 336 L 1056 768.001 C 1056 768.001 1104 816 1104 888 S 1056 1008 1056 1008 L 960 1104 C 960 1104 912 1152 840 1152 S 720 1104 720 1104 L 132 516 C 132 516 72 456 72 360 S 132 204 132 204 L 276 60 C 276 60 336 0 432 0 S 588 60 588 60 L 1056 528 L 984 600 L 516 132 C 516 132 480 96 432 96 S 348 132 348 132 L 204 276 C 204 276 168 312 168 360 S 204 444 204 444 S 648.396 888.396 792 1032 C 792 1032 816 1056 840 1056 S 888 1032 888 1032 L 984 936 C 984 936 1008 912 1008 888 S 984 840 984 840 L 552 408 C 552 408 540 396 528 396 S 504 408 504 408 L 480 432 C 480 432 468 444 468 456 S 480 480 480 480 L 792 792 Z" glyph-name="attach" />
			<glyph unicode="&#xf020;" d="M 480 408 C 480 408 468 396 456 396 S 432 408 432 408 L 408 432 C 408 432 396 444 396 456 S 408 480 408 480 L 720 792 L 648 864 L 336 552 C 336 552 288 504 288 456 S 336 360 336 360 L 360 336 C 360 336 408 288 456 288 C 464.18 288 472.266 289.734 480.211 292.031 C 480.75 344.156 491.625 393.843 511.055 439.031 L 480 408 Z M 494.977 183 L 444 132 C 444 132 408 96 360 96 S 276 132 276 132 L 132 276 C 132 276 96 312 96 360 S 132 444 132 444 S 576.375 888.398 720 1032 C 720 1032 744 1056 768 1056 S 816 1032 816 1032 L 912 936 C 912 936 936 912 936 888 S 912 840 912 840 L 712.945 640.969 C 759.328 660.844 810.375 672 864 672 C 871.711 672 879.234 671.297 886.852 670.875 L 984 768 C 984 768 1032 816 1032 888 S 984 1008 984 1008 L 888 1104 C 888 1104 840 1152 768 1152 S 648 1104 648 1104 L 60 516 C 60 516 0 456 0 360 S 60 204 60 204 L 204 60 C 204 60 264 0 360 0 S 516 60 516 60 L 539.531 83.531 C 520.219 114.094 505.102 147.469 494.977 183 Z M 864 576 C 704.906 576 576 447.047 576 288 C 576 128.906 704.906 0 864 0 C 1023 0 1152 128.906 1152 288 C 1152 447.047 1023 576 864 576 Z M 864 492 C 905.156 492 943.406 479.812 975.469 458.859 L 693.094 176.531 C 672.188 208.594 660 246.844 660 288 C 660 400.688 751.312 492 864 492 Z M 864 84 C 822.844 84 784.594 96.188 752.531 117.141 L 1034.81 399.469 C 1055.81 367.407 1068 329.157 1068 288 C 1068 175.312 976.688 84 864 84 Z" glyph-name="attachmentexclude" />
			<glyph unicode="&#xf021;" d="M 357.393 1071.59 C 372.027 1086.22 384 1081.27 384 1060.57 L 384 864 C 384 864 576 864 864 864 S 1152 576 1152 576 L 1152 192 L 864 192 L 864 576 L 384 576 L 384 378.594 C 384 357.901 372.027 352.942 357.393 367.574 L 0 719.164 L 357.393 1071.59 Z" glyph-name="back" />
			<glyph unicode="&#xf022;" d="M 864 624.023 C 864 682.078 864 660.632 864 672 C 864 805.945 833.438 921.258 720 975.234 L 720 1008 C 720 1087.52 655.547 1152 576 1152 S 432 1087.52 432 1008 L 432 975.234 C 318.562 921.258 288 805.945 288 672 C 288 654 288 672 288 624.023 C 288 432 192 336 144 336 L 144 240 L 1008 240 L 1008 336 C 960 336 864 480.047 864 624.023 Z M 576 948 C 542.906 948 516 974.906 516 1008 S 542.906 1068 576 1068 S 636 1041.09 636 1008 S 609.094 948 576 948 Z M 576 0 C 655.547 0 720 64.5 720 144 L 432 144 C 432 64.5 496.453 0 576 0 Z" glyph-name="bell" />
			<glyph unicode="&#xf023;" d="M 1056 96 L 1056 168 C 1056 168 1056 192 1032 192 S 720 192 696 192 S 672 168 672 168 L 672 96 C 672 96 624 96 600 96 S 576 72 576 72 L 576 0 L 1152 0 L 1152 72 C 1152 72 1152 96 1128 96 S 1056 96 1056 96 Z M 756.353 595.882 L 1163.65 595.882 L 1163.65 460.118 L 756.353 460.118 Z M 324.353 1027.88 L 731.647 1027.88 L 731.647 892.118 L 324.353 892.118 Z M 516.938 595.312 L 36 180 L 36.141 179.859 C 14.062 161.156 0 133.219 0 102 C 0 45.656 45.656 0 102 0 C 133.219 0 161.156 14.016 179.859 36.141 L 180 36 L 595.312 516.938 L 516.938 595.312 Z M 574.294 879.764 L 913.705 879.764 L 913.705 608.235 L 574.294 608.235 Z" glyph-name="bidrule" />
			<glyph unicode="&#xf024;" d="M 276.353 1027.88 L 683.647 1027.88 L 683.647 892.118 L 276.353 892.118 Z M 468.938 595.312 L 36 228 L 36.141 227.859 C 14.062 209.156 0 181.219 0 150 C 0 93.656 45.656 48 102 48 C 133.219 48 161.156 62.016 179.859 84.141 L 180 84 L 547.312 516.938 L 468.938 595.312 Z M 812.062 668.062 L 912 768 L 720 960 L 480 720 L 617.719 582.281 C 671.906 627.656 738.75 658.078 812.062 668.062 Z M 1083 603 L 1104 624 L 1008 720 L 949.969 661.969 C 998.438 650.812 1043.44 630.609 1083 603 Z M 864 576 C 704.953 576 576 447.047 576 288 S 704.953 0 864 0 S 1152 128.953 1152 288 S 1023.05 576 864 576 Z M 1056 240 L 912 240 L 912 96 L 816 96 L 816 240 L 672 240 L 672 336 L 816 336 L 816 480 L 912 480 L 912 336 L 1056 336 L 1056 240 Z" glyph-name="bidruleadd" />
			<glyph unicode="&#xf025;" d="M 371 924.527 C 371 961.347 347.6 1008 249.341 1008 C 209.022 1008 97.987 1008 97.987 1008 L 55 816 C 55 816 136.738 816 212.743 816 C 335.923 816 371 872.262 371 924.527 M 779 924.528 C 779 961.347 755.643 1008 657.394 1008 C 617.045 1008 506.017 1008 506.017 1008 L 463 816 C 463 816 544.773 816 620.742 816 C 743.987 816 779 872.262 779 924.528 M 316 612.477 C 316 649.324 292.646 696 194.364 696 C 154.022 696 43.033 696 43.033 696 L 0 504 C 0 504 81.785 504 157.719 504 C 280.946 504 316 560.325 316 612.477 M 724 612.477 C 724 649.324 700.555 696 602.373 696 C 562.034 696 451.077 696 451.077 696 L 408 504 C 408 504 489.779 504 565.731 504 C 688.948 504 724 560.325 724 612.477 M 1152 732.477 C 1152 769.324 1128.6 816 1030.41 816 C 989.974 816 879.057 816 879.057 816 L 836 624 C 836 624 917.808 624 993.719 624 C 1116.95 624 1152 680.236 1152 732.477 M 1093.12 420.508 C 1093.12 457.381 1069.77 504 971.472 504 C 931.17 504 820.142 504 820.142 504 L 777.125 312 C 777.125 312 858.805 312 934.82 312 C 1058.11 312 1093.12 368.365 1093.12 420.508 M 666.141 300.342 C 666.141 337.324 642.782 384 544.572 384 C 504.221 384 393.161 384 393.161 384 L 350.141 192 C 350.141 192 431.944 192 507.872 192 C 631.126 192 666.141 248.235 666.141 300.342" glyph-name="blackberry" />
			<glyph unicode="&#xf026;" d="M 1008 1104 L 96 1104 C 43.219 1104 0 1060.78 0 1008 L 0 96 C 0 43.219 43.219 0 96 0 L 1008 0 C 1060.78 0 1104 43.219 1104 96 L 1104 1008 C 1104 1060.78 1060.78 1104 1008 1104 Z M 528 240 C 528 160.805 463.219 96 384 96 L 240 96 C 160.781 96 96 160.805 96 240 L 96 768 L 240 768 L 240 240 L 384 240 L 384 384 L 336 384 L 336 528 L 384 528 C 463.219 528 528 463.195 528 384 L 528 240 Z M 768 336 L 624 336 L 624 528 C 624 576 576 624 528 624 L 336 624 L 336 768 L 576 768 C 681.609 768 768 681.609 768 576 L 768 336 Z M 1008 336 L 864 336 L 864 624 C 864 768 744 864 624 864 L 336 864 L 336 1008 L 672 1008 C 864 1008 1008 864 1008 672 L 1008 336 Z" glyph-name="blog" />
			<glyph unicode="&#xf027;" d="M 588 1140 C 588 1140 588 1152 576 1152 S 564 1140 564 1140 C 564 996 240 624 240 336 C 240 150.422 390.422 0 576 0 S 912 150.422 912 336 C 912 624 588 996 588 1140 Z" glyph-name="blur" />
			<glyph unicode="&#xf028;" d="M 1119 624 C 1071 624 1008 624 1008 624 L 768 240 L 264 240 C 192 240 144 301.945 144 360 C 144 426.274 197.726 480 264 480 L 708 480 L 1064.49 1024.87 C 1064.49 1024.87 1083 1056 1035 1056 S 420 1056 420 1056 L 36 528 C 36 528 0 480 0 366 C 0 365.027 0.028 364.061 0.039 363.091 C 0.027 362.061 0 361.033 0 360 C 0 222.289 120 96 264 96 L 830.999 96 L 1148.49 592.869 C 1148.49 592.869 1167 624 1119 624 Z" glyph-name="book" />
			<glyph unicode="&#xf029;" d="M 384 480 C 336 480 336 432 336 432 L 336 0 L 480 120 L 624 0 L 624 432 C 624 432 624 480 672 480 S 432 480 384 480 Z M 1119 720 C 1071 720 1008 720 1008 720 L 768 336 L 720 336 L 720 192 L 830.999 192 L 1148.49 688.869 C 1148.49 688.869 1167 720 1119 720 Z M 1035 1152 C 986.999 1152 420 1152 420 1152 L 36 624 C 36 624 0 576 0 462 C 0 461.027 0.028 460.061 0.039 459.091 C 0.027 458.061 0 457.033 0 456 C 0 318.289 105.447 205.226 240 193.098 L 240 338.402 C 185.227 349.521 144 397.945 144 456 C 144 522.274 197.726 576 264 576 L 708 576 L 1064.49 1120.87 C 1064.49 1120.87 1083 1152 1035 1152 Z" glyph-name="bookmark" />
			<glyph unicode="&#xf02a;" d="M 1104 1056 C 1056 1056 96 1056 48 1056 S 0 1008 0 1008 L 0 96 L 1152 96 L 1152 1008 C 1152 1008 1152 1056 1104 1056 Z M 960 936 C 960 949.219 970.781 960 984 960 L 1032 960 C 1045.22 960 1056 949.219 1056 936 L 1056 888 C 1056 874.781 1045.22 864 1032 864 L 984 864 C 970.781 864 960 874.781 960 888 L 960 936 Z M 816 936 C 816 949.219 826.781 960 840 960 L 888 960 C 901.219 960 912 949.219 912 936 L 912 888 C 912 874.781 901.219 864 888 864 L 840 864 C 826.781 864 816 874.781 816 888 L 816 936 Z M 672 936 C 672 949.219 682.781 960 696 960 L 744 960 C 757.219 960 768 949.219 768 936 L 768 888 C 768 874.781 757.219 864 744 864 L 696 864 C 682.781 864 672 874.781 672 888 L 672 936 Z M 1056 192 L 96 192 L 96 816 L 1056 816 L 1056 192 Z M 336 624 L 816 624 L 576 384 Z" glyph-name="breadcrumb" />
			<glyph unicode="&#xf02b;" d="M 1128 960 C 1141.2 960 1152 970.8 1152 984 L 1152 1128 C 1152 1141.2 1141.2 1152 1128 1152 L 24 1152 C 10.8 1152 0 1141.2 0 1128 L 0 984 C 0 970.8 10.8 960 24 960 L 192 960 L 192 0 L 300 0 L 1128 0 C 1141.2 0 1152 10.8 1152 24 L 1152 168 C 1152 181.2 1141.2 192 1128 192 L 384 192 L 384 288 L 1128 288 C 1141.2 288 1152 298.8 1152 312 L 1152 456 C 1152 469.2 1141.2 480 1128 480 L 384 480 L 384 576 L 1128 576 C 1141.2 576 1152 586.8 1152 600 L 1152 744 C 1152 757.2 1141.2 768 1128 768 L 384 768 L 384 960 L 1128 960 Z" glyph-name="breakdown" />
			<glyph unicode="&#xf02c;" d="M 510.219 138.503 C 490.167 185.906 480 236.205 480 288 L 384 288 L 384 384 L 492.102 384 C 496.792 402.179 502.832 420.035 510.219 437.497 C 529.565 483.233 557.24 524.29 592.476 559.524 C 598.174 565.222 604.039 570.701 610.038 576 L 384 576 L 384 672 L 1032 672 C 1045.2 672 1056 682.8 1056 696 L 1056 840 C 1056 853.2 1045.2 864 1032 864 L 384 864 L 384 960 L 1032 960 C 1045.2 960 1056 970.8 1056 984 L 1056 1128 C 1056 1141.2 1045.2 1152 1032 1152 L 24 1152 C 10.8 1152 0 1141.2 0 1128 L 0 984 C 0 970.8 10.8 960 24 960 L 192 960 L 192 96 L 300 96 L 531.38 96 C 523.491 109.664 516.421 123.84 510.219 138.503 Z M 864 576 C 704.953 576 576 447.047 576 288 S 704.953 0 864 0 S 1152 128.953 1152 288 S 1023.05 576 864 576 Z M 1056 240 L 912 240 L 912 96 L 816 96 L 816 240 L 672 240 L 672 336 L 816 336 L 816 480 L 912 480 L 912 336 L 1056 336 L 1056 240 Z" glyph-name="breakdownadd" />
			<glyph unicode="&#xf02d;" d="M 1141.97 479.438 L 1142.39 480 L 1140.94 483.469 C 1135.27 502.407 1127.53 520.407 1118.02 537.328 L 988.969 841.031 C 975.656 881.438 948.188 915 912 936.047 C 912 1002.28 858.281 1056 792 1056 S 672 1002.28 672 936 C 672 917.812 676.312 900.75 683.578 885.375 C 669.469 864.984 660 841.406 655.688 816 L 496.312 816 C 492 841.406 482.531 864.984 468.421 885.375 C 475.688 900.797 480 917.812 480 936 C 480 1002.28 426.281 1056 360 1056 S 240 1002.28 240 936.047 C 203.812 915 176.344 881.438 163.031 841.031 L 33.938 537.234 C 24.422 520.359 16.735 502.406 11.11 483.515 L 9.609 480 L 10.031 479.438 C 3.656 456.703 0 432.797 0 408 C 0 262.219 118.219 144 264 144 C 409.875 144 528 262.219 528 408 C 528 416.109 527.531 424.078 526.781 432 L 625.219 432 C 624.469 424.078 624 416.109 624 408 C 624 262.219 742.219 144 888 144 C 1033.88 144 1152 262.219 1152 408 C 1152 432.797 1148.34 456.703 1141.97 479.438 Z M 264 240 C 171.188 240 96 315.188 96 408 S 171.188 576 264 576 S 432 500.812 432 408 S 356.812 240 264 240 Z M 888 240 C 795.188 240 720 315.188 720 408 S 795.188 576 888 576 S 1056 500.812 1056 408 S 980.812 240 888 240 Z" glyph-name="browse" />
			<glyph unicode="&#xf02e;" d="M 624 912 C 600 936 432 1152 432 1152 L 384 1056 L 288 1056 L 288 960 L 192 960 L 192 864 L 96 864 L 96 768 L 0 720 C 0 720 216 552 240 528 S 288 480 288 480 L 672 864 C 672 864 648 888 624 912 Z M 816 480 C 816 480 816 696 816 708 S 803.999 732 803.999 732 L 744 792 L 360 408 L 420 348.001 C 420 348.001 432 336 444 336 S 672 336 672 336 L 924 36 C 948 12 972 0 1008 0 S 1080 24 1104 48 S 1152 108 1152 144 S 1140 204 1116 228 L 816 480 Z M 1008 84 C 974.863 84 948 110.863 948 144 S 974.863 204 1008 204 S 1068 177.137 1068 144 S 1041.14 84 1008 84 Z" glyph-name="brush" />
			<glyph unicode="&#xf02f;" d="M 192 1152 L 192 0 L 384 0 L 384 288 L 672 288 L 672 0 L 864 0 L 864 1152 L 192 1152 Z M 480 384 L 288 384 L 288 480 L 480 480 L 480 384 Z M 480 576 L 288 576 L 288 672 L 480 672 L 480 576 Z M 480 768 L 288 768 L 288 864 L 480 864 L 480 768 Z M 480 960 L 288 960 L 288 1056 L 480 1056 L 480 960 Z M 768 384 L 576 384 L 576 480 L 768 480 L 768 384 Z M 768 576 L 576 576 L 576 672 L 768 672 L 768 576 Z M 768 768 L 576 768 L 576 864 L 768 864 L 768 768 Z M 768 960 L 576 960 L 576 1056 L 768 1056 L 768 960 Z" glyph-name="building" />
			<glyph unicode="&#xf030;" d="M 1104 1056 C 1056 1056 1008 1056 1008 1056 L 1008 912 L 768 912 L 768 1056 L 384 1056 L 384 912 L 144 912 L 144 1056 C 144 1056 96 1056 48 1056 S 0 1008 0 1008 L 0 48 C 0 48 0 0 48 0 S 1056 0 1104 0 S 1152 48 1152 48 L 1152 1008 C 1152 1008 1152 1056 1104 1056 Z M 288 144 L 144 144 L 144 288 L 288 288 L 288 144 Z M 288 384 L 144 384 L 144 528 L 288 528 L 288 384 Z M 288 624 L 144 624 L 144 768 L 288 768 L 288 624 Z M 528 144 L 384 144 L 384 288 L 528 288 L 528 144 Z M 528 384 L 384 384 L 384 528 L 528 528 L 528 384 Z M 528 624 L 384 624 L 384 768 L 528 768 L 528 624 Z M 768 144 L 624 144 L 624 288 L 768 288 L 768 144 Z M 768 384 L 624 384 L 624 528 L 768 528 L 768 384 Z M 768 624 L 624 624 L 624 768 L 768 768 L 768 624 Z M 1008 144 L 864 144 L 864 288 L 1008 288 L 1008 144 Z M 1008 384 L 864 384 L 864 528 L 1008 528 L 1008 384 Z M 1008 624 L 864 624 L 864 768 L 1008 768 L 1008 624 Z M 192 1152 L 336 1152 L 336 960 L 192 960 Z M 816 1152 L 960 1152 L 960 960 L 816 960 Z" glyph-name="calendar" />
			<glyph unicode="&#xf031;" d="M 144 1152 L 288 1152 L 288 960 L 144 960 Z M 768 1152 L 912 1152 L 912 960 L 768 960 Z M 528 312 C 528 369.938 569.297 418.406 624 429.562 L 624 432 L 576 432 L 576 576 L 652.688 576 C 665.157 600.328 681.469 622.781 701.344 642.656 C 733.735 675.094 773.063 698.015 816 710.109 L 816 816 L 960 816 L 960 710.109 C 994.969 700.218 1027.59 683.156 1056 659.671 L 1056 1008 C 1056 1008 1056 1056 1008 1056 S 960 1056 960 1056 L 960 912 L 720 912 L 720 1056 L 336 1056 L 336 912 L 96 912 L 96 1056 C 96 1056 96 1056 48 1056 S 0 1008 0 1008 L 0 96 C 0 96 0 48 48 48 C 72 48 300 48 528 48 L 528 312 Z M 576 816 L 720 816 L 720 672 L 576 672 L 576 816 Z M 240 192 L 96 192 L 96 336 L 240 336 L 240 192 Z M 240 432 L 96 432 L 96 576 L 240 576 L 240 432 Z M 240 672 L 96 672 L 96 816 L 240 816 L 240 672 Z M 480 192 L 336 192 L 336 336 L 480 336 L 480 192 Z M 480 432 L 336 432 L 336 576 L 480 576 L 480 432 Z M 480 672 L 336 672 L 336 816 L 480 816 L 480 672 Z M 1128 336 L 1056 336 L 1056 456 C 1056 548.812 980.812 624 888 624 S 720 548.812 720 456 L 720 336 L 648 336 C 634.781 336 624 325.219 624 312 L 624 24 C 624 10.781 634.781 0 648 0 L 1128 0 C 1141.22 0 1152 10.781 1152 24 L 1152 312 C 1152 325.219 1141.22 336 1128 336 Z M 960 336 L 816 336 L 816 456 C 816 495.75 848.25 528 888 528 S 960 495.75 960 456 L 960 336 Z" glyph-name="calendarlocked" />
			<glyph unicode="&#xf032;" d="M 144 1152 L 288 1152 L 288 960 L 144 960 Z M 768 1152 L 912 1152 L 912 960 L 768 960 Z M 528 288 L 480 288 L 480 192 L 336 192 L 336 336 L 384 336 L 384 432 L 336 432 L 336 576 L 393.891 576 C 403.782 610.969 420.844 643.594 444.329 672 L 336 672 L 336 816 L 480 816 L 480 707.672 C 508.406 731.156 541.031 748.219 576 758.11 L 576 816 L 720 816 L 720 758.109 C 754.969 748.218 787.594 731.156 816 707.671 L 816 816 L 960 816 L 960 672 L 851.672 672 C 875.156 643.594 892.219 610.969 902.11 576 L 960 576 L 960 432 L 1056 432 L 1056 1008 C 1056 1008 1056 1056 1008 1056 S 960 1056 960 1056 L 960 912 L 720 912 L 720 1056 L 336 1056 L 336 912 L 96 912 L 96 1056 C 96 1056 96 1056 48 1056 S 0 1008 0 1008 L 0 96 C 0 96 0 48 48 48 C 72 48 300 48 528 48 L 528 288 Z M 240 192 L 96 192 L 96 336 L 240 336 L 240 192 Z M 240 432 L 96 432 L 96 576 L 240 576 L 240 432 Z M 240 672 L 96 672 L 96 816 L 240 816 L 240 672 Z M 1128 336 L 816 336 L 816 504 C 816 596.812 740.812 672 648 672 S 480 596.812 480 504 L 480 384 L 576 384 L 576 504 C 576 543.75 608.25 576 648 576 S 720 543.75 720 504 L 720 336 L 648 336 C 634.781 336 624 325.219 624 312 L 624 24 C 624 10.781 634.781 0 648 0 L 1128 0 C 1141.22 0 1152 10.781 1152 24 L 1152 312 C 1152 325.219 1141.22 336 1128 336 Z" glyph-name="calendarunlocked" />
			<glyph unicode="&#xf033;" d="M 1104 912 C 1056 912 912 912 912 912 L 792 1056 L 360 1056 L 240 912 C 240 912 96 912 48 912 S 0 864 0 864 L 0 192 C 0 192 0 144 48 144 S 1056 144 1104 144 S 1152 192 1152 192 L 1152 864 C 1152 864 1152 912 1104 912 Z M 576 288 C 416.942 288 288 416.942 288 576 C 288 735.058 416.942 864 576 864 C 735.058 864 864 735.058 864 576 C 864 416.942 735.058 288 576 288 Z M 576 720 A 144 144 0 0 0 576 432 A 144 144 0 0 0 576 720 Z" glyph-name="camera" />
			<glyph unicode="&#xf034;" d="M 292.004 624 C 312.239 744.595 407.405 839.761 528 859.996 L 528 1150.02 C 248.172 1126.93 25.07 903.828 1.983 624 L 292.004 624 Z M 624 859.996 C 744.595 839.761 839.761 744.595 859.996 624 L 1150.02 624 C 1126.93 903.828 903.828 1126.93 624 1150.02 L 624 859.996 Z M 859.996 528 C 839.761 407.405 744.595 312.239 624 292.004 L 624 1.98303 C 903.828 25.0699 1126.93 248.172 1150.02 528 L 859.996 528 Z M 528 292.004 C 407.405 312.239 312.239 407.405 292.004 528 L 1.983 528 C 25.07 248.172 248.172 25.0699 528 1.98303 L 528 292.004 Z" glyph-name="campaign" />
			<glyph unicode="&#xf035;" d="M 864 576 C 704.977 576 576 447.094 576 288 S 704.977 0 864 0 S 1152 128.906 1152 288 S 1023.02 576 864 576 Z M 1056 240 L 912 240 L 912 96 L 816 96 L 816 240 L 672 240 L 672 336 L 816 336 L 816 480 L 912 480 L 912 336 L 1056 336 L 1056 240 Z M 244.312 672 C 264.586 792.516 359.484 887.438 480 907.688 L 480 1152 C 226.758 1129.17 22.852 925.266 0 672 L 244.312 672 Z M 576 907.688 C 696.516 887.438 791.414 792.516 811.688 672 L 1056 672 C 1033.15 925.266 829.242 1129.17 576 1152 L 576 907.688 Z M 480 340.312 C 359.484 360.562 264.586 455.484 244.312 576 L 0 576 C 22.852 322.734 226.758 118.828 480 96 L 480 340.312 Z" glyph-name="campaignadd" />
			<glyph unicode="&#xf036;" d="M 864 576 C 704.953 576 576 447.047 576 288 S 704.953 0 864 0 S 1152 128.953 1152 288 S 1023.05 576 864 576 Z M 1032 180 L 972 120 L 864 228 L 756 120 L 696 180 L 804 288 L 696 396 L 756 456 L 864 348 L 972 456 L 1032 396 L 924 288 L 1032 180 Z M 244.312 672 C 264.586 792.516 359.484 887.438 480 907.688 L 480 1152 C 226.758 1129.17 22.852 925.266 0 672 L 244.312 672 Z M 576 907.688 C 696.516 887.438 791.414 792.516 811.688 672 L 1056 672 C 1033.15 925.266 829.242 1129.17 576 1152 L 576 907.688 Z M 480 340.312 C 359.484 360.562 264.586 455.484 244.312 576 L 0 576 C 22.852 322.734 226.758 118.828 480 96 L 480 340.312 Z" glyph-name="campaignclose" />
			<glyph unicode="&#xf037;" d="M 624 384 L 624 0 L 1056 0 L 1056 384 L 624 384 Z M 768 102 C 768 102 768 96 762 96 S 732 96 726 96 S 720 102 720 102 L 720 330 C 720 330 720 336 726 336 S 756 336 762 336 S 768 330 768 330 L 768 102 Z M 864 102 C 864 102 864 96 858 96 S 828 96 822 96 S 816 102 816 102 L 816 330 C 816 330 816 336 822 336 S 852 336 858 336 S 864 330 864 330 L 864 102 Z M 960 102 C 960 102 960 96 954 96 S 924 96 918 96 S 912 102 912 102 L 912 330 C 912 330 912 336 918 336 S 948 336 954 336 S 960 330 960 330 L 960 102 Z M 1068 528 L 960 528 L 960 594 C 960 594 960 624 930 624 C 882 624 798 624 750 624 C 720 624 720 594 720 594 L 720 528 C 720 528 660 528 612 528 C 576 528 576 492 576 492 L 576 432 L 1104 432 L 1104 492 C 1104 492 1104 528 1068 528 Z M 888 528 L 792 528 L 792 570 C 792 570 792 576 798 576 C 810 576 870 576 882 576 C 888 576 888 570 888 570 L 888 528 Z M 244.312 672 C 264.586 792.516 359.484 887.438 480 907.688 L 480 1152 C 226.758 1129.17 22.852 925.266 0 672 L 244.312 672 Z M 480 340.312 C 359.484 360.562 264.586 455.484 244.312 576 L 0 576 C 22.852 322.734 226.758 118.828 480 96 L 480 340.312 Z M 798.938 720 L 930 720 C 973.734 720 1007.44 700.125 1029.02 672 L 1056 672 C 1033.15 925.266 829.242 1129.17 576 1152 L 576 907.688 C 679.945 890.203 764.555 817.078 798.938 720 Z" glyph-name="campaigndelete" />
			<glyph unicode="&#xf038;" d="M 1146 510 L 1086 570 C 1086 570 1080 576 1068 576 S 1050 570 1050 570 L 1008 528 L 1104 432 L 1146 474 C 1146 474 1152 480 1152 492 S 1146 510 1146 510 Z M 689.324 367.882 L 1062.68 367.882 L 1062.68 232.118 L 689.324 232.118 Z M 744 72 L 648 168 L 576 6 C 576 0 576 0 582 0 C 582.258 0 744 72 744 72 Z M 244.312 672 C 264.586 792.516 359.484 887.438 480 907.688 L 480 1152 C 226.758 1129.17 22.852 925.266 0 672 L 244.312 672 Z M 576 907.688 C 696.516 887.438 791.414 792.516 811.688 672 L 1056 672 C 1033.15 925.266 829.242 1129.17 576 1152 L 576 907.688 Z M 480 340.312 C 359.484 360.562 264.586 455.484 244.312 576 L 0 576 C 22.852 322.734 226.758 118.828 480 96 L 480 340.312 Z M 920.25 576 L 811.688 576 C 791.438 455.484 696.516 360.562 576 340.312 L 576 231.75 L 920.25 576 Z" glyph-name="campaignedit" />
			<glyph unicode="&#xf039;" d="M 292.004 624 C 312.239 744.595 407.405 839.761 528 859.996 L 528 1150.02 C 248.172 1126.93 25.07 903.828 1.983 624 L 292.004 624 Z M 847.699 671.656 C 853.115 671.88 858.549 672 864 672 C 915.798 672 966.097 661.834 1013.5 641.784 C 1026.03 636.483 1038.2 630.535 1050 624 L 1150.02 624 C 1126.93 903.828 903.828 1126.93 624 1150.02 L 624 859.996 C 728.196 842.512 813.398 769.086 847.699 671.656 Z M 510.216 138.5 C 490.166 185.903 480 236.202 480 288 C 480 293.451 480.12 298.885 480.344 304.301 C 382.914 338.602 309.488 423.804 292.004 528 L 1.983 528 C 25.07 248.172 248.172 25.0699 528 1.98303 L 528 101.996 C 521.465 113.802 515.517 125.969 510.216 138.5 Z M 864 576 C 704.941 576 576 447.059 576 288 S 704.941 0 864 0 S 1152 128.941 1152 288 S 1023.06 576 864 576 Z M 1032 180 L 972 120 L 864 228 L 756 120 L 696 180 L 804 288 L 696 396 L 756 456 L 864 348 L 972 456 L 1032 396 L 924 288 L 1032 180 Z" glyph-name="campaignremove" />
			<glyph unicode="&#xf03a;" d="M 96 1152 L 96 0 L 1056 0 L 1056 1152 L 96 1152 Z M 336 144 L 240 144 L 240 240 L 336 240 L 336 144 Z M 528 144 L 432 144 L 432 240 L 528 240 L 528 144 Z M 912 144 L 624 144 L 624 240 L 912 240 L 912 144 Z M 912 336 L 240 336 L 240 1008 L 912 1008 L 912 336 Z" glyph-name="card" />
			<glyph unicode="&#xf03b;" d="M 576 1152 C 257.906 1152 0 894.117 0 576 S 257.906 0 576 0 S 1152 257.883 1152 576 S 894.094 1152 576 1152 Z M 456 216 L 192 480 L 312 600 L 456 456 L 864 864 L 984 744 L 456 216 Z" glyph-name="check-circle" />
			<glyph unicode="&#xf03c;" d="M 959.999 1008 L 432 480 L 192 720 L 0 528 L 432 96 L 1152 816 Z" glyph-name="check" />
			<glyph unicode="&#xf03d;" d="M 1008 911.999 L 1152 767.999 L 576 191.999 L 0 767.999 L 144 911.999 L 576 479.999 Z" glyph-name="chevrondown" />
			<glyph unicode="&#xf03e;" d="M 479.999 576 L 911.999 144 L 767.999 0 L 191.999 576 L 767.999 1152 L 911.999 1008 Z" glyph-name="chevronleft" />
			<glyph unicode="&#xf03f;" d="M 240 1008 L 384 1152 L 960 576 L 384 0 L 240 144 L 672 576 Z" glyph-name="chevronright" />
			<glyph unicode="&#xf040;" d="M 576 672.001 L 144 240.001 L 0 384.001 L 576 960.001 L 1152 384.001 L 1008 240.001 Z" glyph-name="chevronup" />
			<glyph unicode="&#xf041;" d="M 576 1152 C 257.871 1152 0 894.094 0 576 S 257.871 0 576 0 S 1152 257.906 1152 576 S 894.129 1152 576 1152 Z M 576 144 C 337.413 144 144 337.413 144 576 S 337.413 1008 576 1008 S 1008 814.587 1008 576 S 814.587 144 576 144 Z M 624.015 659.145 C 624.01 659.149 624.005 659.152 624 659.155 L 624 948 C 624 954.6 618.6 960 612 960 L 540 960 C 533.4 960 528 954.6 528 948 L 528 659.154 L 528 659.154 C 499.307 642.554 480 611.533 480 576 C 480 567.402 481.137 559.07 483.257 551.141 L 345.014 412.898 C 340.347 408.231 340.347 400.593 345.014 395.926 L 395.926 345.015 C 400.593 340.348 408.231 340.348 412.898 345.015 L 551.139 483.256 C 559.069 481.136 567.402 479.999 576 479.999 C 629.02 479.999 672 522.979 672 575.999 C 672 611.527 652.7 642.544 624.015 659.145 Z" glyph-name="clock" />
			<glyph unicode="&#xf042;" d="M 576 1152 C 257.87 1152 0 894.13 0 576 C 0 257.869 257.87 0 576 0 C 894.131 0 1152 257.869 1152 576 C 1152 894.13 894.131 1152 576 1152 Z M 912 360 L 792 240 L 576 456 L 360 240 L 240 360 L 456 576 L 240 792 L 360 912 L 576 696 L 792 912 L 912 792 L 696 576 L 912 360 Z" glyph-name="close-circle" />
			<glyph unicode="&#xf043;" d="M 48 216 L 408 576 L 48 936 L 216 1104 L 576 744 L 936 1104 L 1104 936 L 744 576 L 1104 216 L 936 48 L 576 408 L 216 48 Z" glyph-name="close" />
			<glyph unicode="&#xf044;" d="M 960 624 C 959.802 861 832.6 960 648 960 C 517.697 960 435.241 898.578 377.439 809.104 C 356.335 813.609 334.448 816 312 816 C 139.687 816 0 676.312 0 504 C 0 332.836 117.274 193.847 288 192 C 289.136 191.974 960 192 960 192 C 1068 192 1152 288 1152 408 S 1068 624 960 624 Z M 988.645 350.41 C 975.896 336 963.932 336 960 336 L 288 336 C 180 336 144 432 144 504 C 144 596.636 219.364 672 312 672 C 323.901 672 335.803 670.747 347.377 668.277 L 444.502 647.544 L 498.394 730.964 C 517.475 760.499 537.544 781.349 559.749 794.704 C 583.575 809.034 612.442 816 648 816 C 705.078 816 746.736 803.404 771.817 778.563 C 808.258 742.472 815.958 674.646 816 624 L 816 480 L 960 480 C 975.896 480 985.491 469.153 988.645 465.59 C 1000.95 451.685 1008 430.693 1008 408 S 1000.95 364.315 988.645 350.41 Z" glyph-name="cloud" />
			<glyph unicode="&#xf045;" d="M 192 576 L 384 384 L 288 288 L 0 576 L 288 864 L 384 768 Z M 960 576 L 768 384 L 864 288 L 1152 576 L 864 864 L 768 768 Z M 599.297 192 L 456.703 212.344 L 552.703 960 L 695.297 939.656 Z" glyph-name="code" />
			<glyph unicode="&#xf046;" d="M 48 1056 L 48 96 L 1104 96 L 1104 1056 L 48 1056 Z M 384 240 L 192 240 L 192 528 L 384 528 L 384 240 Z M 384 624 L 192 624 L 192 912 L 384 912 L 384 624 Z M 672 240 L 480 240 L 480 528 L 672 528 L 672 240 Z M 672 624 L 480 624 L 480 912 L 672 912 L 672 624 Z M 960 240 L 768 240 L 768 528 L 960 528 L 960 240 Z M 960 624 L 768 624 L 768 912 L 960 912 L 960 624 Z" glyph-name="collection" />
			<glyph unicode="&#xf047;" d="M 483.328 240 L 432 240 L 432 528 L 564.727 528 C 605.485 578.719 658.782 618.844 720 643.734 L 720 912 L 912 912 L 912 668.672 C 963.938 662.156 1012.59 645.234 1056 620.063 L 1056 1056 L 0 1056 L 0 96 L 531.961 96 C 506.766 139.406 489.844 188.062 483.328 240 Z M 432 912 L 624 912 L 624 624 L 432 624 L 432 912 Z M 336 240 L 144 240 L 144 528 L 336 528 L 336 240 Z M 336 624 L 144 624 L 144 912 L 336 912 L 336 624 Z M 864 576 C 704.953 576 576 447.047 576 288 S 704.953 0 864 0 S 1152 128.953 1152 288 S 1023.05 576 864 576 Z M 1056 240 L 912 240 L 912 96 L 816 96 L 816 240 L 672 240 L 672 336 L 816 336 L 816 480 L 912 480 L 912 336 L 1056 336 L 1056 240 Z" glyph-name="collectionadd" />
			<glyph unicode="&#xf048;" d="M 392.227 336 L 432 374.016 L 432 624 L 624 624 L 624 567.047 L 682.969 626.344 C 704.906 648.188 732.375 660 760.781 660 C 791.812 660 818.906 646.031 837.703 624 L 912 624 L 912 520.312 C 960.656 513.374 1009.97 499.734 1056 472.64 L 1056 1152 L 0 1152 L 0 192 L 535.031 192 L 392.227 336 Z M 720 1008 L 912 1008 L 912 720 L 720 720 L 720 1008 Z M 432 1008 L 624 1008 L 624 720 L 432 720 L 432 1008 Z M 336 336 L 144 336 L 144 624 L 336 624 L 336 336 Z M 336 720 L 144 720 L 144 1008 L 336 1008 L 336 720 Z M 768 431.625 L 768 551.625 C 768 564.797 760.359 567.937 751.031 558.656 L 528 336 L 751.031 112.594 C 760.359 103.219 768 106.406 768 119.625 L 768 240 C 1032 240 1119.09 109.688 1152 0 C 1152 432 943.5 431.625 768 431.625 Z" glyph-name="collectionaddto" />
			<glyph unicode="&#xf049;" d="M 606.305 1056 C 485.051 1056 432.001 1008 432 960 C 432 888 528 852.001 528 804 C 528 756 516 720 432 720 C 343.3 720 324 768 192 768 C 10.102 768 0.001 570.984 0.001 570.984 C 0.001 192.001 504.001 192.001 576.001 192.001 S 1152 192 1152 588.001 C 1152 951.797 727.594 1056 606.305 1056 Z M 192 420 C 132.353 420 84 468.354 84 528 S 132.353 636 192 636 S 300 587.646 300 528 S 251.647 420 192 420 Z M 432 288 C 378.981 288 336 330.981 336 384 S 378.981 480 432 480 S 528 437.019 528 384 S 485.019 288 432 288 Z M 960 792 C 999.765 792 1032 759.763 1032 720 S 999.765 648 960 648 S 888 680.237 888 720 S 920.235 792 960 792 Z M 720 288 C 666.98 288 624 330.981 624 384 S 666.98 480 720 480 S 816 437.019 816 384 S 773.02 288 720 288 Z M 960 396 C 913.608 396 876 433.608 876 480 S 913.608 564 960 564 S 1044 526.392 1044 480 S 1006.39 396 960 396 Z" glyph-name="colorpalette" />
			<glyph unicode="&#xf04a;" d="M 204 0 C 211.125 0.133057 216 0 239.999 24 C 240 24.001 408 192 408 192 L 600 192 C 648 192 672 216 672 264 L 672 456 C 672 456 864 261.328 912 213.328 S 960 213.328 960 213.328 L 960 480 L 1080 480 C 1128 480 1152 504 1152 552 L 1152 1080 C 1152 1128 1128 1152 1080 1152 L 360 1152 C 312 1152 288 1128 288 1080 L 288 768 L 72 768 C 24 768 0 744 0 696 L 0 264 C 0 216 24 192 72 192 L 192 192 L 192 12 C 192 12 192 0 204 0 Z M 1056 588 C 1056 588 1056 576 1044 576 S 864 576 864 576 L 864 408 L 696 576 C 696 576 408 576 396 576 S 384 588 384 588 L 384 1044 C 384 1044 384 1056 396 1056 C 407.062 1056 955.5 1056 1044 1056 C 1056 1056 1056 1044 1056 1044 L 1056 588 Z" glyph-name="comment" />
			<glyph unicode="&#xf04b;" d="M 480 288 C 480 339.795 490.167 390.094 510.219 437.497 C 529.565 483.233 557.24 524.29 592.476 559.524 C 598.174 565.222 604.039 570.701 610.038 576 C 524.127 576 403.672 576 396.001 576 C 384.001 576 384.001 588 384.001 588 L 384.001 1044 C 384.001 1044 384.001 1056 396.001 1056 C 407.063 1056 955.501 1056 1044 1056 C 1056 1056 1056 1044 1056 1044 L 1056 620.62 C 1084.95 603.902 1111.59 583.463 1135.53 559.525 C 1141.09 553.956 1146.45 548.224 1151.64 542.368 C 1151.87 545.468 1152 548.671 1152 552.001 L 1152 1080 C 1152 1128 1128 1152 1080 1152 L 360 1152 C 312 1152 288 1128 288 1080 L 288 768 L 72 768 C 24 768 0 744 0 696 L 0 264 C 0 216 24 192 72 192 L 192 192 L 192 12 C 192 12 192 0 204 0 C 211.125 0.133057 216 0 239.999 24 C 240 24.001 408 192 408 192 L 492.102 192 C 484.061 223.168 480 255.285 480 288 Z M 864 576 C 704.953 576 576 447.047 576 288 S 704.953 0 864 0 S 1152 128.953 1152 288 S 1023.05 576 864 576 Z M 1056 240 L 912 240 L 912 96 L 816 96 L 816 240 L 672 240 L 672 336 L 816 336 L 816 480 L 912 480 L 912 336 L 1056 336 L 1056 240 Z" glyph-name="commentadd" />
			<glyph unicode="&#xf04c;" d="M 653.062 249.234 C 628.312 243.375 602.578 240 576 240 C 390.422 240 240 390.422 240 576 C 240 602.578 243.422 628.289 249.234 653.086 L 151.828 799.172 C 126.703 751.453 109.125 699.094 101.297 643.524 L 0 576 L 101.297 508.5 C 131.063 297.562 297.563 131.062 508.453 101.297 L 576 0 L 643.547 101.297 C 699.094 109.125 751.453 126.703 799.172 151.828 L 653.062 249.234 Z M 498.938 902.766 C 523.688 908.602 549.422 912 576 912 C 761.578 912 912 761.578 912 576 C 912 549.422 908.578 523.688 902.766 498.938 L 1000.17 352.829 C 1025.3 400.548 1042.88 452.907 1050.7 508.501 L 1152 576 L 1050.7 643.523 C 1020.94 854.437 854.437 1020.91 643.547 1050.7 L 576 1152 L 508.453 1050.7 C 452.906 1042.85 400.547 1025.3 352.828 1000.15 L 498.938 902.766 Z M 672 672 L 96 1056 L 480 480 L 1056 96 L 672 672 Z M 576 516 C 542.906 516 516 542.906 516 576 S 542.906 636 576 636 S 636 609.094 636 576 S 609.094 516 576 516 Z" glyph-name="compass" />
			<glyph unicode="&#xf04d;" d="M 0 432 L 192 432 L 192 48 L 0 48 Z M 288 528 L 288 48 L 480 48 L 480 528 L 288 528 Z M 576 720 L 576 48 L 768 48 L 768 720 L 576 720 Z M 864 1008 L 864 48 L 1056 48 L 1056 1008 L 864 1008 Z" glyph-name="confidencefour" />
			<glyph unicode="&#xf04e;" d="M 0 432 L 192 432 L 192 48 L 0 48 Z M 288 144 L 288 48 L 480 48 L 480 144 L 288 144 Z M 576 144 L 576 48 L 768 48 L 768 144 L 576 144 Z M 864 144 L 864 48 L 1056 48 L 1056 144 L 864 144 Z" glyph-name="confidenceone" />
			<glyph unicode="&#xf04f;" d="M 0 432 L 192 432 L 192 48 L 0 48 Z M 288 528 L 288 48 L 480 48 L 480 528 L 288 528 Z M 576 720 L 576 48 L 768 48 L 768 720 L 576 720 Z M 864 144 L 864 48 L 1056 48 L 1056 144 L 864 144 Z" glyph-name="confidencethree" />
			<glyph unicode="&#xf050;" d="M 0 432 L 192 432 L 192 48 L 0 48 Z M 288 528 L 288 48 L 480 48 L 480 528 L 288 528 Z M 576 144 L 576 48 L 768 48 L 768 144 L 576 144 Z M 864 144 L 864 48 L 1056 48 L 1056 144 L 864 144 Z" glyph-name="confidencetwo" />
			<glyph unicode="&#xf051;" d="M 426.5 641.784 C 473.904 661.834 524.203 672 576 672 C 627.797 672 678.096 661.834 725.499 641.784 C 745.844 633.179 765.256 622.917 783.646 611.084 L 912 1152 L 251 1148 L 370.441 612.415 C 388.213 623.686 406.924 633.504 426.5 641.784 Z M 576 576 C 416.942 576 288 447.058 288 288 S 416.942 0 576 0 S 864 128.942 864 288 S 735.058 576 576 576 Z M 528 132 L 360 300 L 420 360 L 528 252 L 720 444 L 780 384 L 528 132 Z" glyph-name="conversionfunnel" />
			<glyph unicode="&#xf052;" d="M 432 1152 L 432 936 C 432 936 432 912 456 912 S 672 912 672 912 L 432 1152 Z M 816 480 C 720 480 720 576 720 576 L 720 816 L 480 816 C 480 816 432 816 432 768 S 432 96 432 48 S 480 0 480 0 L 1008 0 C 1008 0 1056 0 1056 48 S 1056 480 1056 480 S 892.781 480 816 480 Z M 816 816 L 816 600 C 816 600 816 576 840 576 S 1056 576 1056 576 L 816 816 Z M 336 912 L 336 1152 L 96 1152 C 96 1152 48 1152 48 1104 S 48 432 48 384 S 96 336 96 336 L 336 336 L 336 912 Z" glyph-name="copy" />
			<glyph unicode="&#xf053;" d="M 53.072 711.328 C 77.79 723.469 102.555 662.625 139.679 662.625 C 176.804 662.625 300.581 674.813 300.581 723.469 S 213.927 784.313 189.209 820.781 C 164.444 857.297 168.658 863.343 143.893 912 S 77.791 991.125 102.556 1027.55 C 127.321 1064.06 201.569 966.75 213.928 930.281 C 226.287 893.812 238.693 845.109 263.458 845.109 C 288.176 845.109 325.347 895.125 325.347 980.343 C 325.346 1065.47 288.175 1104 288.175 1152 C 288.175 1152 323.239 1152 335.645 1152 C 348.004 1152 383.583 1152 383.583 1104 C 383.583 1059.61 374.828 1089.05 374.828 930.984 C 374.828 772.828 374.828 729.937 424.358 693.422 C 480.395 652.125 411.952 641.531 436.717 605.063 C 461.482 568.501 535.73 493.969 560.495 433.172 C 585.261 372.375 560.495 274.219 609.978 274.219 C 659.507 274.219 659.507 371.157 659.507 419.813 C 659.507 565.782 535.73 711.563 535.73 869.625 C 535.73 991.313 560.495 1064.16 597.619 1052.02 S 597.619 1015.45 597.619 893.813 S 634.743 699.094 684.226 699.094 C 733.756 699.094 783.286 711.328 795.644 1015.41 C 795.644 1015.41 862.964 1032.94 862.964 960 C 862.964 887.016 857.533 893.812 857.533 857.297 S 869.892 832.969 857.533 796.5 C 845.174 759.938 795.643 723.469 808.003 711.328 C 838.997 684 886.095 792.375 910.906 768 C 935.625 743.672 862.967 684.469 862.967 648 C 862.967 611.484 869.895 601.828 907.066 601.828 C 944.143 601.828 944.143 626.156 968.955 626.156 C 993.673 626.156 993.673 589.687 1018.48 601.828 C 1043.2 614.016 1055.56 747.797 1092.73 735.656 C 1129.81 723.469 1068.67 528 1006.78 528 C 1006.78 528 981.313 528.844 968.954 516.656 C 956.596 504.562 1006.03 480.187 993.672 468.047 C 981.314 455.859 919.425 492.375 907.066 480.188 C 894.707 468.047 813.109 401.344 746.117 236.907 C 721.398 176.156 770.928 18 770.928 18 S 733.758 5.81201 684.228 18 C 684.228 18 637.226 0 575.337 0 C 513.448 0 424.359 18 449.125 42.281 C 473.843 66.656 502.634 59.531 527.399 96 C 552.117 132.469 560.497 139.594 548.091 176.156 C 535.732 212.578 486.202 249.094 473.842 297.75 C 461.484 346.406 461.484 370.688 449.124 407.25 C 436.718 443.719 383.583 528 335.645 576 C 287.707 624 152.038 626.156 139.679 614.016 C 127.32 601.828 127.32 577.5 102.555 577.5 C 102.555 651.516 28.26 699.094 53.072 711.328 Z M 721.398 601.828 C 708.992 553.172 708.992 492.375 746.116 492.375 C 783.287 492.375 820.458 541.031 820.458 589.687 C 820.458 638.296 808.005 674.812 783.287 674.812 S 733.758 650.484 721.398 601.828 Z" glyph-name="coral" />
			<glyph unicode="&#xf054;" d="M 972.284 367.111 C 936.565 331.673 894.169 305.377 848.114 288.676 C 833.665 283.598 818.653 279.572 803.606 276.039 C 781.353 271.434 758.116 264.49 734.806 263.998 L 728.618 263.998 C 647.304 263.998 570.804 295.268 509.177 344.854 C 500.423 351.938 492.198 358.988 484.392 367.109 L 467.306 383.281 L 427.931 421.775 L 322.501 525.031 C 307.419 540.199 307.419 564.51 322.501 579.152 C 330.306 586.746 340.571 590.805 350.38 590.805 C 360.259 590.805 370.56 586.744 378.364 579.152 L 539.237 421.777 L 539.728 421.285 C 554.808 406.556 571.332 393.883 588.911 383.283 C 630.255 358.006 678.417 344.857 728.62 344.857 C 750.804 344.857 773.093 347.387 794.257 352.943 C 807.194 355.984 820.165 360.572 832.611 365.617 C 863.584 378.256 892.551 396.975 916.986 421.285 C 1020.94 522.992 1020.94 688.486 916.986 790.228 C 865.236 840.816 796.859 866.656 728.621 866.656 C 676.344 866.656 624.631 851.961 579.596 822.113 C 556.816 839.304 532.49 853.472 507.176 864.634 C 570.807 917.263 649.488 947.988 728.621 947.988 C 816.58 947.988 905.068 910.144 972.285 844.384 C 1107.35 712.797 1107.35 498.734 972.284 367.111 Z M 359.731 268.904 C 284.71 268.904 213.87 297.748 161.064 349.391 C 50.851 456.686 50.851 630.779 161.064 738.125 C 213.869 789.717 284.146 818.561 358.675 818.561 L 359.73 818.561 C 373.757 818.561 387.679 817.506 401.601 815.52 C 416.083 813.516 430.603 810.458 444.56 805.905 C 470.927 797.819 496.276 785.657 519.056 769.96 C 529.954 762.894 540.255 754.772 550.167 746.212 L 558.921 738.126 L 578.046 718.86 L 671.702 627.261 C 687.239 612.602 687.239 588.274 671.702 573.104 C 663.931 565.474 654.124 561.923 644.28 561.923 C 633.944 561.923 624.1 565.474 616.331 573.104 L 521.622 665.706 L 502.005 684.952 L 492.69 693.565 C 465.268 716.329 432.608 732.026 397.489 738.583 C 385.044 740.604 372.634 741.624 359.731 741.624 L 353.964 741.624 C 301.757 740.147 253.138 719.88 216.364 683.405 C 137.264 606.485 137.264 481.489 216.364 404.077 C 254.614 366.583 305.87 345.841 359.729 345.841 L 395.448 345.841 L 428.528 314.483 C 445.614 297.749 463.718 282.071 482.282 268.905 L 359.731 268.904 L 359.731 268.904 Z M 1028.18 899.035 C 947.993 976.957 841.858 1019.99 728.621 1019.99 C 615.314 1019.99 508.723 976.957 428.531 899.035 L 420.268 890.422 C 400.582 893.973 380.369 895.484 359.732 895.484 C 263.51 895.484 173.405 859.045 105.133 792.232 C -35.033 655.107 -35.033 432.394 105.133 295.269 C 173.405 228.457 263.511 192 359.731 192 L 728.62 192 L 731.749 192 L 734.808 192 C 845.513 193.494 949.503 235.541 1028.18 312.443 C 1193.27 474.406 1193.27 737.072 1028.18 899.035 Z" glyph-name="creativecloud" />
			<glyph unicode="&#xf055;" d="M 912 432 L 912 912 L 432 912 L 432 1152 L 240 1152 L 240 912 L 0 912 L 0 720 L 720 720 L 720 432 L 432 432 L 432 624 L 240 624 L 240 240 L 1152 240 L 1152 432 Z M 720 144 L 912 144 L 912 0 L 720 0 Z" glyph-name="crop" />
			<glyph unicode="&#xf056;" d="M 960 528 C 912.727 528 869.452 510.905 835.997 482.573 L 672 588 L 672 612 L 835.997 717.427 C 869.452 689.095 912.727 672 960 672 C 1066.04 672 1152 757.961 1152 864 S 1066.04 1056 960 1056 S 768 970.039 768 864 C 768 850.176 769.474 836.699 772.249 823.704 L 624 720 C 352.704 911.727 108 972 108 972 L 0 864 C 132 864 504 648 540 600 C 504 552 132 336 0 336 L 108 228 C 108 228 352.704 288.273 624 480 L 772.452 377.226 C 769.546 363.944 768 350.153 768 336 C 768 229.961 853.961 144 960 144 S 1152 229.961 1152 336 S 1066.04 528 960 528 Z M 960 960 C 1012.93 960 1056 916.935 1056 864 S 1012.93 768 960 768 S 864 811.065 864 864 S 907.065 960 960 960 Z M 960 240 C 907.065 240 864 283.065 864 336 S 907.065 432 960 432 S 1056 388.935 1056 336 S 1012.93 240 960 240 Z" glyph-name="cut" />
			<glyph unicode="&#xf057;" d="M 792 792 L 576 624 C 522.984 624 480 581.016 480 528 S 522.984 432 576 432 S 672 474.984 672 528 L 840 744 L 792 792 Z M 270.53 222.529 C 188.936 304.124 144 412.608 144 528 S 188.936 751.876 270.53 833.47 C 352.124 915.064 460.608 960 576 960 S 799.876 915.064 881.471 833.47 C 963.063 751.876 1008 643.392 1008 528 S 963.063 304.124 881.471 222.529 L 983.294 120.706 C 1087.53 224.941 1152 368.941 1152 528 C 1152 846.116 894.116 1104 576 1104 S 0 846.116 0 528 C 0 368.941 64.471 224.941 168.707 120.706 L 270.53 222.529 Z" glyph-name="dashboard" />
			<glyph unicode="&#xf058;" d="M 576 1152 A 432 168 0 0 0 576 816 A 432 168 0 0 0 576 1152 Z M 1003.62 852 C 948 768 793.633 720 576 720 S 204 768 148.381 852 L 144 852 L 144 684 C 144 612 337.413 528 576 528 S 1008 612 1008 684 L 1008 852 L 1003.62 852 Z M 1003.62 564 C 948 480 793.633 432 576 432 S 204 480 148.381 564 L 144 564 L 144 156 C 144 84 337.413 0 576 0 S 1008 84 1008 156 L 1008 564 L 1003.62 564 Z" glyph-name="data" />
			<glyph unicode="&#xf059;" d="M 528 1152 A 432 168 0 0 0 528 816 A 432 168 0 0 0 528 1152 Z M 564.77 528.669 C 573.411 539.388 582.635 549.693 592.471 559.529 C 627.706 594.764 668.763 622.438 714.5 641.784 C 761.903 661.834 812.202 672 864 672 C 894.608 672 924.692 668.448 953.965 661.407 C 957.93 668.995 960 676.562 960 684 L 960 852 L 955.619 852 C 900 768 745.633 720 528 720 S 156 768 100.381 852 L 96 852 L 96 684 C 96 612 289.413 528 528 528 C 540.386 528 552.648 528.229 564.77 528.669 Z M 510.216 138.5 C 490.166 185.903 480 236.202 480 288 C 480 337.85 489.42 386.31 508 432.138 C 300.918 435.003 154.281 482.597 100.381 564 L 96 564 L 96 252 C 96 180 289.413 96 528 96 C 529.125 96 530.247 96.006 531.369 96.01 C 523.483 109.669 516.416 123.841 510.216 138.5 Z M 864 576 C 704.953 576 576 447.047 576 288 S 704.953 0 864 0 S 1152 128.953 1152 288 S 1023.05 576 864 576 Z M 1056 240 L 912 240 L 912 96 L 816 96 L 816 240 L 672 240 L 672 336 L 816 336 L 816 480 L 912 480 L 912 336 L 1056 336 L 1056 240 Z" glyph-name="dataadd" />
			<glyph unicode="&#xf05a;" d="M 960 480 L 1152 480 L 1152 0 Z M 864 480 L 672 480 L 672 0 Z M 912 300 L 1044 0 L 948 0 L 912 96 L 828 96 Z M 528 1152 A 432 168 0 0 0 528 816 A 432 168 0 0 0 528 1152 Z M 576 432.819 C 560.364 432.281 544.368 432 528 432 C 310.367 432 156 480 100.381 564 L 96 564 L 96 252 C 96 181.717 280.298 100.001 511.009 96.1429 L 516 96 L 576 96 L 576 432.819 Z M 576 576 L 825.465 576 C 908.331 606.37 960 646.787 960 684 L 960 852 L 955.619 852 C 900 768 745.633 720 528 720 S 156 768 100.381 852 L 96 852 L 96 684 C 96 612 289.413 528 528 528 C 544.225 528 560.239 528.392 576 529.139 L 576 576 Z" glyph-name="dataadobe" />
			<glyph unicode="&#xf05b;" d="M 528 1152 A 432 168 0 0 0 528 816 A 432 168 0 0 0 528 1152 Z M 564.77 528.669 C 573.411 539.388 582.635 549.693 592.471 559.529 C 627.706 594.764 668.763 622.438 714.5 641.784 C 761.903 661.834 812.202 672 864 672 C 894.608 672 924.692 668.448 953.965 661.407 C 957.93 668.995 960 676.562 960 684 L 960 852 L 955.619 852 C 900 768 745.633 720 528 720 S 156 768 100.381 852 L 96 852 L 96 684 C 96 612 289.413 528 528 528 C 540.386 528 552.648 528.229 564.77 528.669 Z M 510.216 138.5 C 490.166 185.903 480 236.202 480 288 C 480 337.85 489.42 386.31 508 432.138 C 300.918 435.003 154.281 482.597 100.381 564 L 96 564 L 96 252 C 96 180 289.413 96 528 96 C 529.125 96 530.247 96.006 531.369 96.01 C 523.483 109.669 516.416 123.841 510.216 138.5 Z M 864 576 C 704.953 576 576 447.059 576 288 S 704.953 0 864 0 S 1152 128.941 1152 288 S 1023.05 576 864 576 Z M 792 108 L 660 240 L 720 300 L 792 228 L 1008 444 L 1068 384 L 792 108 Z" glyph-name="datacheck" />
			<glyph unicode="&#xf05c;" d="M 845.484 845.484 C 791.722 1022.87 626.943 1152 432 1152 C 193.413 1152 0 958.587 0 720 C 0 525.057 129.128 360.278 306.516 306.516 C 360.279 129.128 525.056 0 720 0 C 958.587 0 1152 193.413 1152 432 C 1152 626.944 1022.87 791.721 845.484 845.484 Z M 288.292 416.089 C 288.101 421.369 288 426.673 288 432 C 288 670.587 481.413 864 720 864 C 725.327 864 730.631 863.899 735.911 863.708 C 750.607 832.684 760.422 799.463 765.007 765.006 C 750.206 766.976 735.183 768 720 768 C 630.251 768 545.874 733.05 482.412 669.588 S 384 521.749 384 432 C 384 416.817 385.024 401.794 386.994 386.993 C 352.537 391.578 319.316 401.393 288.292 416.089 Z M 957.588 194.412 C 894.126 130.95 809.749 96 720 96 S 545.874 130.95 482.412 194.412 C 454.681 222.143 432.395 253.87 416.089 288.292 C 421.37 288.101 426.673 288 432 288 C 670.587 288 864 481.413 864 720 C 864 725.327 863.899 730.63 863.708 735.911 C 898.13 719.605 929.856 697.32 957.588 669.588 C 1021.05 606.126 1056 521.749 1056 432 S 1021.05 257.874 957.588 194.412 Z" glyph-name="datacorrelated" />
			<glyph unicode="&#xf05d;" d="M 528 1152 C 766.587 1152 960 1076.78 960 984 S 766.587 816 528 816 S 96 891.216 96 984 S 289.413 1152 528 1152 Z M 955.619 852 C 900 768 745.633 720 528 720 S 156 768 100.381 852 L 96 852 L 96 684 C 96 612 289.413 528 528 528 S 960 612 960 684 L 960 852 L 955.619 852 Z M 567.514 223.278 L 814.636 470.4 C 740.217 445.393 642.936 432 528 432 C 310.367 432 156 480 100.381 564 L 96 564 L 96 252 C 96 181.717 280.298 100.001 511.009 96.1431 L 567.514 223.278 Z M 1146 510 L 1086 570 C 1086 570 1080 576 1068 576 S 1050 570 1050 570 L 1008 528 L 1104 432 L 1146 474 C 1146 474 1152 480 1152 492 S 1146 510 1146 510 Z M 1056.01 383.999 L 792.013 120.002 L 696.014 216.001 L 960.011 479.998 L 1056.01 383.999 Z M 744 72 L 648 168 L 576 6 C 576 0 576 0 582 0 C 582.25 0 744 72 744 72 Z" glyph-name="dataedit" />
			<glyph unicode="&#xf05e;" d="M 528 1152 A 432 168 0 0 0 528 816 A 432 168 0 0 0 528 1152 Z M 564.77 528.669 C 573.411 539.388 582.635 549.693 592.471 559.529 C 627.706 594.764 668.763 622.438 714.5 641.784 C 761.903 661.834 812.202 672 864 672 C 894.608 672 924.692 668.448 953.965 661.407 C 957.93 668.995 960 676.562 960 684 L 960 852 L 955.619 852 C 900 768 745.633 720 528 720 S 156 768 100.381 852 L 96 852 L 96 684 C 96 612 289.413 528 528 528 C 540.386 528 552.648 528.229 564.77 528.669 Z M 510.216 138.5 C 490.166 185.903 480 236.202 480 288 C 480 337.85 489.42 386.31 508 432.138 C 300.918 435.003 154.281 482.597 100.381 564 L 96 564 L 96 252 C 96 180 289.413 96 528 96 C 529.125 96 530.247 96.006 531.369 96.01 C 523.483 109.669 516.416 123.841 510.216 138.5 Z M 864 576 C 704.941 576 576 447.059 576 288 S 704.941 0 864 0 S 1152 128.941 1152 288 S 1023.06 576 864 576 Z M 864 492 C 905.139 492 943.426 479.812 975.469 458.865 L 693.135 176.531 C 672.188 208.574 660 246.861 660 288 C 660 400.666 751.334 492 864 492 Z M 864 84 C 822.861 84 784.574 96.188 752.531 117.135 L 1034.86 399.469 C 1055.81 367.426 1068 329.139 1068 288 C 1068 175.334 976.666 84 864 84 Z" glyph-name="dataunavailable" />
			<glyph unicode="&#xf05f;" d="M 211.172 353.371 C 240.75 377.559 275.25 392.465 305.719 405.683 C 328.407 415.527 353.907 426.495 365.86 437.277 C 368.532 443.886 371.438 454.527 372.422 461.933 C 366.656 474.824 357.75 495.214 348.75 517.245 C 341.25 535.714 335.25 551.464 330.562 565.057 C 319.687 571.432 309.609 579.588 300.562 589.338 C 286.687 604.244 275.062 623.088 266.156 645.213 C 253.968 675.494 246.75 712.057 246.75 743.182 C 246.75 777.588 259.219 809.088 281.344 832.62 C 288.094 902.886 318.469 967.948 368.156 1017.68 C 382.875 1032.4 398.859 1045.34 415.875 1056.49 C 387.984 1113.31 330.844 1152.03 264.141 1152.03 C 171.094 1152.03 96.375 1076.84 93.985 982.058 L 93.985 956.558 C 93.985 956.558 65.719 955.058 65.719 926.933 C 65.719 898.761 79.875 842.464 108.281 842.464 C 122.343 842.464 122.343 842.464 122.343 842.464 C 122.343 814.152 170.484 709.995 170.484 709.995 C 178.968 681.87 162.375 631.386 150.75 617.37 C 99.328 555.965 0 561.121 0 476.746 C 0 429.965 0 382.387 0 382.387 S 0 338.278 192.469 336.121 C 198.234 342.121 204.469 347.934 211.172 353.371 Z M 488.25 240.637 L 686.438 438.215 C 682.922 456.027 681.844 464.358 685.969 478.045 L 742.875 624 C 742.875 624 742.875 624 759.563 624 C 792.938 624 805.547 700.139 805.547 733.232 S 768 778.059 768 778.059 L 768 808.059 C 768 919.528 685.547 1008.03 576.234 1008.03 C 466.781 1008.03 384 919.528 384 808.059 L 384 778.059 C 384 778.059 346.781 766.327 346.781 733.233 S 359.344 624 392.766 624 C 409.407 624 409.407 624 409.407 624 L 465.938 478.045 C 475.969 444.951 456.469 390.536 442.782 374.083 C 382.312 301.802 240 312.871 240 213.543 C 240 158.559 240 102.59 240 102.59 S 240 48 509.438 48 L 642.844 48 C 655.969 48 667.875 48.248 679.735 48.4821 L 488.25 240.637 Z M 870.562 832.902 C 892.874 809.371 905.531 777.777 905.531 743.183 C 905.531 712.105 898.265 675.495 886.125 645.308 C 877.219 623.136 865.687 604.339 851.813 589.386 C 842.719 579.589 832.547 571.433 821.625 564.964 C 820.687 562.339 819.469 559.198 818.484 556.386 C 830.718 561.214 843.609 564.027 856.781 564.027 C 914.672 564.027 960 516.402 960 455.652 L 960 432 L 1152 432 C 1152 446 1152 461.277 1152 476.746 C 1152 561.121 1052.67 555.965 1001.25 617.371 C 989.625 631.387 973.031 692.639 981.516 720.764 C 981.516 720.764 1029.66 816 1029.66 864 C 1029.66 864 1029.66 864 1043.72 864 C 1072.12 864 1085.25 909.529 1085.25 937.701 C 1085.25 965.826 1056 956.558 1056 956.558 L 1056 982.058 C 1056 1076.84 979.875 1152.03 886.875 1152.03 C 820.219 1152.03 763.547 1113.4 735.703 1056.59 C 752.765 1045.43 769.078 1032.4 783.797 1017.59 C 833.25 967.996 863.719 903.027 870.562 832.902 Z M 847.031 462.684 C 856.312 471.965 864 468.825 864 455.653 L 864 335.653 L 1152 335.653 L 1152 144.028 L 864 144.028 L 864 23.6531 C 864 10.4341 856.312 7.24707 847.031 16.6221 L 624 240.402 L 847.031 462.684 Z" glyph-name="delegate" />
			<glyph unicode="&#xf060;" d="M 192 720 L 192 0 L 960 0 L 960 720 L 192 720 Z M 432 156 C 432 156 432 144 420 144 S 360 144 348 144 S 336 156 336 156 L 336 612 C 336 612 336 624 348 624 S 408 624 420 624 S 432 612 432 612 L 432 156 Z M 624 156 C 624 156 624 144 612 144 S 552 144 540 144 S 528 156 528 156 L 528 612 C 528 612 528 624 540 624 S 600 624 612 624 S 624 612 624 612 L 624 156 Z M 816 156 C 816 156 816 144 804 144 S 744 144 732 144 S 720 156 720 156 L 720 612 C 720 612 720 624 732 624 S 792 624 804 624 S 816 612 816 612 L 816 156 Z M 984 960 C 888 960 768 960 768 960 L 768 1092 C 768 1092 768 1152 708 1152 C 612 1152 540 1152 444 1152 C 384 1152 384 1092 384 1092 L 384 960 C 384 960 264 960 168 960 C 96 960 96 888 96 888 L 96 816 L 1056 816 L 1056 888 C 1056 888 1056 960 984 960 Z M 672 960 L 480 960 L 480 1044 C 480 1044 480 1056 492 1056 C 516 1056 636 1056 660 1056 C 672 1056 672 1044 672 1044 L 672 960 Z" glyph-name="delete" />
			<glyph unicode="&#xf061;" d="M 352.125 0 C 0 0 0 79.453 0 79.453 S 0 132.656 0 198.609 C 0 317.812 199.594 310.5 272.156 397.219 C 288.562 416.953 312 488.297 300 528 C 300 528 232.125 675 232.125 714.984 C 232.125 714.984 232.125 714.984 212.109 714.984 C 172.078 714.984 152.062 794.484 152.062 834.187 C 152.062 873.938 192 876 192 876 L 192 912 C 195.375 1045.83 300.938 1152 432.188 1152 S 668.625 1045.83 672 912 L 672 876 C 672 876 712.312 873.938 712.312 834.188 C 712.312 794.485 692.296 714.985 652.312 714.985 C 632.25 714.985 632.25 714.985 632.25 714.985 C 632.25 675 564 528 564 528 C 552 488.297 575.625 416.953 592.031 397.219 C 664.594 310.5 864 317.812 864 198.609 C 864 132.656 864 79.453 864 79.453 S 864 0 512.25 0 L 352.125 0 Z M 997.406 379.031 C 984.703 394.265 967.172 446.109 972.562 480 L 1152 480 C 1152 480 1104 528 1104 672 C 1104 768 1104 768 1104 768 C 1104 886.828 1017.47 984.797 904.125 1003.97 C 891.234 1006.59 877.875 1008 864.187 1008 C 864.14 1008 864.14 1008 864.093 1008 S 864.046 1008 863.999 1008 C 826.218 1008 791.015 998.531 759.233 982.969 C 762.842 966.75 765.702 950.25 767.014 933.235 C 791.623 909.844 808.311 876.423 808.311 834.188 C 808.311 767.11 780.795 668.344 710.577 632.532 C 698.53 596.063 680.296 551.204 655.968 498.188 C 656.343 494.157 657.89 487.219 659.859 480 L 755.39 480 C 758.437 461.062 754.265 436.688 747.843 416.062 C 751.265 414.75 754.827 413.296 758.155 412.031 C 838.547 381.188 960 334.594 960 198.609 L 960 144.468 C 1151.53 149.109 1152 198.562 1152 198.562 C 1152 201.843 1152 212.062 1152 240 C 1152 336 1057.78 306.75 997.406 379.031 Z" glyph-name="demographic" />
			<glyph unicode="&#xf062;" d="M 432 240 L 336 48 L 336 12 C 336 12 336 0 348 0 S 792 0 804 0 S 816 12 816 12 L 816 48 L 720 240 L 432 240 Z M 1104 1104 C 1056 1104 96 1104 48 1104 S 0 1056 0 1056 L 0 384 C 0 384 0 336 48 336 S 1056 336 1104 336 S 1152 384 1152 384 L 1152 1056 C 1152 1056 1152 1104 1104 1104 Z M 1008 480 L 144 480 L 144 960 L 1008 960 L 1008 480 Z" glyph-name="devicedesktop" />
			<glyph unicode="&#xf063;" d="M 1008 504 L 1008 1056 C 1008 1056 1008 1104 960 1104 S 240 1104 192 1104 S 144 1056 144 1056 L 144 504 L 0 192 L 0 144 C 0 144 0 96 48 96 C 72 96 1080 96 1104 96 C 1152 96 1152 144 1152 144 L 1152 192 L 1008 504 Z M 732 240 L 420 240 C 413.391 240 409.312 245.25 410.906 251.625 L 429.094 324.375 C 430.688 330.75 437.391 336 444 336 L 708 336 C 714.609 336 721.312 330.75 722.906 324.375 L 741.094 251.625 C 742.688 245.25 738.609 240 732 240 Z M 288 528 L 288 960 L 864 960 L 864 528 L 288 528 Z" glyph-name="devicelaptop" />
			<glyph unicode="&#xf064;" d="M 960 48 C 960 144 960 1104 960 1104 C 960 1152 912 1152 912 1152 L 240 1152 C 240 1152 192 1152 192 1104 C 192 1104 192 144 192 48 C 192 0 240 0 240 0 L 912 0 C 912 0 960 0 960 48 Z M 336 240 L 336 960 L 816 960 L 816 240 L 336 240 Z M 516 144 C 516 177.141 542.859 204 576 204 S 636 177.141 636 144 S 609.141 84 576 84 S 516 110.859 516 144 Z" glyph-name="devicemobile" />
			<glyph unicode="&#xf065;" d="M 1104 1056 C 1056 1056 96 1056 48 1056 S 0 1008 0 1008 L 0 144 C 0 144 0 96 48 96 S 1056 96 1104 96 S 1152 144 1152 144 L 1152 1008 C 1152 1008 1152 1056 1104 1056 Z M 960 240 L 144 240 L 144 912 L 960 912 L 960 240 Z M 1056 516 C 1022.86 516 996 542.863 996 576 C 996 609.137 1022.86 636 1056 636 S 1116 609.137 1116 576 C 1116 542.863 1089.14 516 1056 516 Z" glyph-name="devicetablet" />
			<glyph unicode="&#xf066;" d="M 552 720 L 480 720 L 480 432 L 552 432 C 643.859 432 705 482.381 705 575.144 L 705 576.832 C 705 668.837 643.859 720 552 720 Z M 1056 1104 L 96 1104 C 69.6 1104 48 1082.4 48 1056 L 48 96 C 48 69.6 69.6 48 96 48 L 1056 48 C 1082.4 48 1104 69.6 1104 96 L 1104 1056 C 1104 1082.4 1082.4 1104 1056 1104 Z M 863.219 575.219 C 863.219 409.281 751.504 288 552 288 L 336 288 L 336 864 L 552 864 C 749.889 864 863.219 742.808 863.219 576.87 L 863.219 575.219 Z" glyph-name="disqus" />
			<glyph unicode="&#xf067;" d="M 895.029 607.029 C 904.363 616.363 901.2 624 888 624 L 720 624 L 720 1152 L 432 1152 L 432 624 L 264 624 C 250.8 624 247.637 616.363 256.971 607.029 L 576 288 L 895.029 607.029 Z M 1104 384 C 1056 384 816 384 816 384 L 576 144 L 336 384 C 336 384 96 384 48 384 S 0 336 0 336 L 0 48 C 0 48 0 0 48 0 S 1056 0 1104 0 S 1152 48 1152 48 L 1152 336 C 1152 336 1152 384 1104 384 Z M 144 180 C 110.863 180 84 206.863 84 240 S 110.863 300 144 300 S 204 273.137 204 240 S 177.137 180 144 180 Z" glyph-name="download" />
			<glyph unicode="&#xf068;" d="M 144 864 C 144 864 384 864 408 864 S 432 888 432 888 L 432 1152 L 144 864 Z M 960 1152 L 528 1152 L 528 864 C 528 864 528 768 432 768 C 355.199 768 144 768 144 768 S 144 96 144 48 S 192 0 192 0 L 960 0 C 960 0 1008 0 1008 48 S 1008 1056 1008 1104 S 960 1152 960 1152 Z M 294 192 C 288 192 288 192 288 198 L 348 372 L 468 252 C 468 252 294.25 192 294 192 Z M 516 300 L 396 420 L 660 684 L 780 564 L 516 300 Z M 867 657 L 825 615 L 705 735 L 747 777 C 747 777 753 783 765 783 S 783 777 783 777 L 867 693 C 867 693 873 687 873 675 S 867 657 867 657 Z" glyph-name="draft" />
			<glyph unicode="&#xf069;" d="M 408 744 L 96 432 L 0 204 C 0 192 0 192 12 192 C 12.469 192 240 288 240 288 L 552 600 L 408 744 Z M 912 912 C 912 912 936 936 948 948 C 964 964 964 1004 948 1020 C 936 1032 840 1128 828 1140 C 811.999 1156 771.999 1156 756 1140 C 744 1128 444 828 444 828 L 636 636 L 840 840 L 888 792 L 576 480 C 576 480 648 408 720 480 C 720 480 984 744 996 756 C 1012 772 1012 812 996 828 C 984 840 912 912 912 912 Z M 1056 384 C 1020 336 816 96 528 96 S 48 144 48 144 S 240 0 528 0 C 1008 0 1152 288 1152 336 S 1096.73 438.306 1056 384 Z" glyph-name="draw" />
			<glyph unicode="&#xf06a;" d="M 1056 1152 L 96 1152 C 43.219 1152 0 1108.78 0 1056 L 0 96 C 0 43.219 43.219 0 96 0 L 1056 0 C 1108.78 0 1152 43.219 1152 96 L 1152 1056 C 1152 1108.78 1108.78 1152 1056 1152 Z M 576 384 L 240 768 L 912 768 L 576 384 Z" glyph-name="dropdown" />
			<glyph unicode="&#xf06b;" d="M 480 960 L 480 824 L 576 728.235 L 920.235 384 L 728.235 384 L 576 231.765 L 576 384 L 480 384 L 480 0 L 768 288 L 1152 288 Z M 672 480 L 204 948 L 0 1152 L 0 192 L 288 480 Z" glyph-name="duplicate" />
			<glyph unicode="&#xf06c;" d="M 576 1152 C 257.906 1152 0 894.094 0 576 S 257.906 0 576 0 S 1152 257.906 1152 576 S 894.094 1152 576 1152 Z M 264 240 C 240 240 240 240 240 264 L 312 456 L 456 312 C 456 312 264.469 240 264 240 Z M 504 360 L 360 504 L 648 792 L 792 648 L 504 360 Z M 900 756 L 840 696 L 696 840 L 756 900 C 756 900 768 912 792 912 S 828 900 828 900 L 900 828 C 900 828 912 816 912 792 S 900 756 900 756 Z" glyph-name="edit-circle" />
			<glyph unicode="&#xf06d;" d="M 1140 1020 L 1020 1140 C 1020 1140 1008 1152 984 1152 S 948 1140 948 1140 L 864 1056 L 1056 864 L 1140 948 C 1140 948 1152 960 1152 984 S 1140 1020 1140 1020 Z M 983.996 791.996 L 408.014 216.013 L 216.02 408.007 L 792.002 983.989 L 983.996 791.996 Z M 336 144 L 144 336 L 0 12 C 0 0 0 0 12 0 C 12.5 0 336 144 336 144 Z" glyph-name="edit" />
			<glyph unicode="&#xf06e;" d="M 576 372.656 L 192 564.656 C 192 564.656 192 480 192 384 S 576 96 576 96 S 960 288 960 384 S 960 564.656 960 564.656 L 576 372.656 Z M 576 1056 L 0 768 L 576 480 L 1152 768 L 576 1056 Z" glyph-name="education" />
			<glyph unicode="&#xf06f;" d="M 164.854 768 C 161.04 768 157.223 771.815 158.495 776.903 L 178.847 853 C 180.12 858.089 182.664 864 187.749 864 L 262.246 864 L 267.884 888 C 308.586 1072.43 402.94 1152 533.951 1152 C 564.478 1152 593.735 1146.91 606.451 1140.55 C 611.541 1138.01 612.812 1134.19 611.541 1129.1 L 589.92 1028.62 C 588.647 1023.53 586.102 1019.72 581.014 1020.99 C 569.567 1024.81 553.031 1027.35 535.224 1027.35 C 490.704 1027.35 442.371 1012.09 418.203 898.883 L 410.246 864 L 517.187 864 C 521.001 864 523.546 860.359 522.273 854 L 506.246 776 C 504.973 770.911 502.428 769.271 498.613 768 L 386.246 768 C 336.639 523.787 254.123 107.729 227.412 25.051 C 224.869 17.422 223.633 12 216 12 C 176.571 6.91199 95.543 1.27502 85.369 0 C 80.279 0 77.735 3.81702 79.009 10.177 C 108.264 104.3 223.168 675.148 242.246 768 L 164.854 768 Z M 568.739 855.097 C 566.194 860.185 570.01 864 575.098 864 L 716.285 864 C 722.644 864 723.916 862.728 725.189 857.641 L 806.594 633.587 L 807.864 633.587 L 969.403 856.369 C 973.218 861.458 975.762 864 982.122 864 L 1122.04 864 C 1128.4 864 1129.67 857.641 1125.85 853.824 C 1072.43 786.411 947.779 628.498 882.91 553.453 C 918.523 470.777 989.754 312.502 1016.47 250.18 C 1019.01 243.816 1016.47 240 1010.11 240 L 870.192 240 C 863.83 240 860.014 242.545 857.47 248.904 L 773.521 469.505 L 772.25 469.505 C 729.003 405.907 657.775 315.047 604.352 247.635 C 603.081 243.816 600.538 241.273 591.634 240 L 441.544 240 C 436.457 240 433.913 245.09 437.728 250.18 C 512.774 339.213 624.704 473.32 694.662 557.269 L 568.739 855.097 Z" glyph-name="effects" />
			<glyph unicode="&#xf070;" d="M 816 1008 C 673.57 1008 398.789 927.604 312 912 C 265.665 903.189 240 888 240 852 C 240 828 264.482 809.212 312 816 C 396 828 653.953 912 816 912 C 912 912 912 943.312 912 960 C 912 976.667 906.023 1008 816 1008 Z M 816 838 C 673.57 838 398.789 757.604 312 742 C 265.665 733.189 240 718 240 682 C 240 658 264.482 639.212 312 646 C 396 658 653.953 742 816 742 C 912 742 912 773.312 912 790 C 912 806.667 906.023 838 816 838 Z M 648 1152 C 643.828 1151.06 634.172 1149.72 630.07 1148.73 C 552.222 1129.76 365.613 1078.98 310.336 1069.68 C 252 1056.19 240 1025.35 240 1004.06 C 240 1004.06 240 972.836 276.012 972.836 C 337.324 972.836 535.36 1032.02 630.071 1055.1 C 653.391 1060.78 677.79 1065.54 703.126 1068.91 C 720.024 1080.59 720.095 1096.15 720.095 1105.09 C 720.094 1119.94 720 1152 648 1152 Z M 768 384 C 720 384 432 384 384 384 S 336 336 336 336 L 336 336 C 336 336 336 300 336 264 C 336 216 432 192 432.035 144 L 432 144 L 432 71.999 L 504 0 L 648 0 L 720 71.999 L 720 144 L 720.094 144 C 720 192 816 216 816 264 L 816 336 C 816 336 816 384 768 384 Z M 886.647 667.293 C 868.798 662.766 847.494 660.574 822.117 660.574 C 803.916 660.574 737.963 659.375 720.291 657.279 C 709.116 654.705 699.408 651.277 684.094 647.766 C 624 624 624 511.805 624 503.719 C 624 449.696 624 432 624 432 L 720 432 L 720 503.719 C 720 503.719 720 576 816 576 C 900 576 912.117 612.258 912 624 C 911.905 633.908 912 660 886.647 667.293 Z M 492.364 613.799 C 452.8 597.804 415.277 582.639 378.455 576.06 C 380.271 576.024 382.111 575.999 383.999 575.999 C 438.022 575.999 431.999 503.718 431.999 503.718 L 431.999 432 L 527.999 432 C 527.999 432 527.999 449.695 527.999 503.719 C 527.999 509.845 527.991 575.72 501.858 617.633 C 498.676 616.35 495.507 615.07 492.364 613.799 Z" glyph-name="efficient" />
			<glyph unicode="&#xf071;" d="M 1152 408 L 1152 792 L 900 603 Z M 0 960 L 0 912 L 576 480 L 1152 912 L 1152 960 Z M 0 408 L 0 792 L 252 603 Z M 816 540 L 576 360 L 336 540 L 0 276 L 0 192 L 1152 192 L 1152 276 Z" glyph-name="email" />
			<glyph unicode="&#xf072;" d="M 0 1056 L 0 1008 L 576 576 L 1152 1008 L 1152 1056 Z M 0 504 L 0 888 L 252 699 Z M 535.219 486.562 L 336 636 L 0 372 L 0 288 L 480 288 C 480 339.797 490.172 390.094 510.188 437.484 C 517.406 454.5 525.75 470.906 535.219 486.562 Z M 1013.53 641.766 C 1059.23 622.454 1100.3 594.75 1135.5 559.547 C 1141.22 553.828 1146.7 547.969 1152 541.969 L 1152 888 L 900 699 L 946.312 663.141 C 969.234 658.125 991.688 651 1013.53 641.766 Z M 864 576 C 704.953 576 576 447.047 576 288 S 704.953 0 864 0 S 1152 128.953 1152 288 S 1023.05 576 864 576 Z M 1032 180 L 972 120 L 864 228 L 756 120 L 696 180 L 804 288 L 696 396 L 756 456 L 864 348 L 972 456 L 1032 396 L 924 288 L 1032 180 Z" glyph-name="emailcancel" />
			<glyph unicode="&#xf073;" d="M 0 1056 L 0 1008 L 576 576 L 1152 1008 L 1152 1056 Z M 0 504 L 0 888 L 252 699 Z M 888 576 C 742.219 576 624 457.781 624 312 S 742.219 48 888 48 C 1033.83 48 1152 166.219 1152 312 S 1033.83 576 888 576 Z M 888 120 C 781.969 120 696 205.969 696 312 S 781.969 504 888 504 S 1080 418.031 1080 312 S 994.031 120 888 120 Z M 900 456 L 876 456 C 869.438 456 864 450.609 864 444 L 864 321.938 L 794.672 252.61 C 790.031 247.969 790.031 240.282 794.672 235.641 L 811.641 218.672 C 816.329 213.984 823.969 213.984 828.61 218.672 L 912 302.062 L 912 444 C 912 450.609 906.609 456 900 456 Z M 528 312 C 528 367.125 540.75 419.156 562.875 465.844 L 336 636 L 0 372 L 0 288 L 529.219 288 C 528.703 295.969 528 303.891 528 312 Z M 1152 556.172 L 1152 888 L 900 699 L 940.359 667.758 C 1023.61 655.594 1097.48 615.094 1152 556.172 Z" glyph-name="emailschedule" />
			<glyph unicode="&#xf074;" d="M 277.828 0 L 954.656 0 L 1008 240 C 1008 240 1056 384 960 432 C 895.594 464.203 576 552 576 552 L 552 864 C 552 917.016 528 960 480 960 S 408 917.016 408 864 L 384 480 L 384 192 C 384 192 240 372 192 432 C 170.797 458.504 132 468 96 432 S 84 360 96 336 S 207.094 128.438 277.828 0 Z M 480 1152 C 320.953 1152 192 1023.05 192 864 C 192 778.828 229.219 702.516 288 649.781 L 288 864 C 288 970.031 373.969 1056 480 1056 S 672 970.031 672 864 L 672 649.781 C 730.781 702.515 768 778.828 768 864 C 768 1023.05 639.047 1152 480 1152 Z" glyph-name="engagement" />
			<glyph unicode="&#xf075;" d="M 480 960 L 480 168 L 660 348 L 816 0 L 924 48 L 786 384 L 1056 384 Z M 384 576 L 288 576 L 288 1008 L 720 1008 L 720 855.765 L 864 711.765 L 864 1152 L 144 1152 L 144 432 L 384 432 Z" glyph-name="event" />
			<glyph unicode="&#xf076;" d="M 240 576 L 144 576 L 144 1008 L 576 1008 L 576 855.765 L 720 711.765 L 720 1152 L 0 1152 L 0 432 L 240 432 Z M 510.216 437.5 C 529.561 483.238 557.237 524.295 592.47 559.529 C 616.999 584.057 644.359 604.912 674.145 621.853 L 336 960 L 336 168 L 480.786 312.786 C 483.516 355.848 493.38 397.695 510.216 437.5 Z M 864 576 C 704.942 576 576 447.059 576 288 C 576 128.942 704.942 0 864 0 C 1023.06 0 1152 128.942 1152 288 C 1152 447.059 1023.06 576 864 576 Z M 864 480 C 898.529 480 930.927 470.879 958.924 454.924 L 697.077 193.077 C 681.121 221.074 672 253.471 672 288 C 672 394.039 757.962 480 864 480 Z M 864 96 C 829.471 96 797.074 105.121 769.077 121.077 L 1030.92 382.924 C 1046.88 354.927 1056 322.529 1056 288 C 1056 181.962 970.039 96 864 96 Z" glyph-name="eventexclude" />
			<glyph unicode="&#xf077;" d="M 576 1152 C 257.884 1152 0 894.116 0 576 S 257.884 0 576 0 S 1152 257.884 1152 576 S 894.116 1152 576 1152 Z M 576 1008 C 667.71 1008 752.741 979.418 822.683 930.683 L 221.317 329.316 C 172.582 399.258 144 484.29 144 576 C 144 814.587 337.413 1008 576 1008 Z M 576 144 C 484.291 144 399.259 172.581 329.317 221.316 L 930.682 822.683 C 979.419 752.742 1008 667.709 1008 576 C 1008 337.413 814.587 144 576 144 Z" glyph-name="exclude" />
			<glyph unicode="&#xf078;" d="M 1008 1056 L 96 1056 C 69.609 1056 48 1034.39 48 1008 L 48 144 C 48 117.609 69.609 96 96 96 L 1008 96 C 1034.39 96 1056 117.609 1056 144 L 1056 1008 C 1056 1034.39 1034.39 1056 1008 1056 Z M 384 240 L 192 240 L 192 528 L 384 528 L 384 240 Z M 912 240 L 480 240 L 480 336 L 912 336 L 912 240 Z M 912 432 L 480 432 L 480 528 L 912 528 L 912 432 Z M 912 624 L 192 624 L 192 912 L 912 912 L 912 624 Z" glyph-name="experience" />
			<glyph unicode="&#xf079;" d="M 864 576 C 704.953 576 576 447.047 576 288 S 704.953 0 864 0 S 1152 128.953 1152 288 S 1023.05 576 864 576 Z M 1056 240 L 912 240 L 912 96 L 816 96 L 816 240 L 672 240 L 672 336 L 816 336 L 816 480 L 912 480 L 912 336 L 1056 336 L 1056 240 Z M 480 288 C 480 321.188 484.641 353.25 492.562 384 L 432 384 L 432 480 L 531.797 480 C 552.75 516.188 579.422 548.531 610.594 576 L 432 576 L 432 672 L 864 672 C 914.953 672 963.516 661.852 1008 643.828 L 1008 1104 C 1008 1130.39 986.391 1152 960 1152 L 48 1152 C 21.609 1152 0 1130.39 0 1104 L 0 288 C 0 261.609 21.609 240 48 240 L 483.328 240 C 481.359 255.75 480 271.688 480 288 Z M 144 1008 L 864 1008 L 864 768 L 144 768 L 144 1008 Z M 336 384 L 144 384 L 144 672 L 336 672 L 336 384 Z" glyph-name="experienceadd" />
			<glyph unicode="&#xf07a;" d="M 768 431.625 L 768 551.625 C 768 564.797 760.312 567.937 751.031 558.656 L 528 336 L 751.031 112.594 C 760.312 103.219 768 106.406 768 119.625 L 768 240 C 1032 240 1119.09 109.688 1152 0 C 1152 432 943.5 431.625 768 431.625 Z M 960 1152 L 48 1152 C 21.609 1152 0 1130.39 0 1104 L 0 288 C 0 261.609 21.609 240 48 240 L 488.203 240 L 392.25 336.094 L 432 375.805 L 432 480 L 536.344 480 L 632.532 576 L 432 576 L 432 672 L 864 672 L 864 525.375 C 911.391 522.187 960.609 514.313 1008 495.75 L 1008 1104 C 1008 1130.39 986.391 1152 960 1152 Z M 336 384 L 144 384 L 144 672 L 336 672 L 336 384 Z M 864 768 L 144 768 L 144 1008 L 864 1008 L 864 768 Z" glyph-name="experienceaddto" />
			<glyph unicode="&#xf07b;" d="M 1104 1056 C 1104 1109.02 1061.02 1152 1008 1152 L 96 1152 C 42.984 1152 0 1109.02 0 1056 L 0 144 C 0 90.984 42.984 48 96 48 L 1008 48 C 1061.02 48 1104 90.984 1104 144 L 1104 1056 Z M 864 864 C 864 864 840 864 792 864 C 720 864 720 792 720 792 L 720 672 L 912 672 L 888 528 L 720 528 L 720 144 L 576 144 L 576 528 L 432 528 L 432 672 L 576 672 L 576 816 C 576 932.438 648 1008 792 1008 L 864 1008 L 864 864 Z" glyph-name="facebook" />
			<glyph unicode="&#xf07c;" d="M 0 1104 L 0 336 L 144 336 L 144 960 L 1008 960 L 1008 480 L 768 480 L 768 336 L 1152 336 L 1152 1104 Z M 240 576 L 240 96 L 672 96 L 672 576 L 240 576 Z M 576 216 C 576 216 576 192 480 192 L 432 192 C 336 192 336 216 336 216 S 336 241.312 336 259.453 C 336 288 391.969 290.297 411.984 314.109 C 416.484 319.547 423 339.234 419.625 350.156 C 419.625 350.156 400.969 390.656 400.969 401.672 C 400.969 401.672 400.969 401.672 395.438 401.672 C 384.376 401.672 378.891 423.563 378.891 434.438 C 378.891 445.407 389.907 445.407 389.907 445.407 C 390.001 445.501 389.907 456.329 389.907 456.329 L 390.048 456.376 C 390.938 493.266 408 528 456.047 528 C 504 528 521.156 493.266 522.094 456.375 L 522.188 456.328 C 522.188 456.328 522.141 445.5 522.188 445.406 C 522.188 445.406 533.204 445.406 533.204 434.437 C 533.204 423.562 527.72 401.671 516.657 401.671 C 511.173 401.671 511.173 401.671 511.173 401.671 C 511.173 390.655 492.376 350.155 492.376 350.155 C 489.001 339.233 495.564 319.546 500.064 314.108 C 520.031 290.297 576 288 576 259.453 C 576 241.312 576 216 576 216 Z" glyph-name="facebookcoverimage" />
			<glyph unicode="&#xf07d;" d="M 576 1152 C 257.85 1152 0 894.15 0 576 C 0 257.85 257.85 0 576 0 C 894.15 0 1152 257.85 1152 576 C 1152 894.15 894.15 1152 576 1152 Z M 480 432 L 336 288 L 336 864 L 480 720 L 480 432 Z M 576 288 L 576 864 L 864 576 L 576 288 Z" glyph-name="fastforward-circle" />
			<glyph unicode="&#xf07e;" d="M 48 1104 L 48 48 L 1104 48 L 1104 1104 L 48 1104 Z M 960 192 L 192 192 L 192 336 L 960 336 L 960 192 Z M 960 432 L 192 432 L 192 576 L 960 576 L 960 432 Z M 960 672 L 192 672 L 192 816 L 960 816 L 960 672 Z" glyph-name="feed" />
			<glyph unicode="&#xf07f;" d="M 483.328 240 L 144 240 L 144 384 L 492.562 384 C 501.374 418.078 514.593 450.281 531.796 480 L 144 480 L 144 624 L 678.234 624 C 733.312 654.516 796.593 672 864 672 C 934.031 672 999.469 652.969 1056 620.203 L 1056 1152 L 0 1152 L 0 96 L 531.797 96 C 506.672 139.406 489.797 188.016 483.328 240 Z M 144 864 L 912 864 L 912 720 L 144 720 L 144 864 Z M 864 576 C 704.953 576 576 447.047 576 288 S 704.953 0 864 0 S 1152 128.953 1152 288 S 1023.05 576 864 576 Z M 1056 240 L 912 240 L 912 96 L 816 96 L 816 240 L 672 240 L 672 336 L 816 336 L 816 480 L 912 480 L 912 336 L 1056 336 L 1056 240 Z" glyph-name="feedadd" />
			<glyph unicode="&#xf080;" d="M 1152 240 L 1152 336 L 1099.17 336 C 1092.94 366.656 1080.75 395.062 1064.06 420.234 L 1101.56 457.734 L 1033.69 525.609 L 996.188 488.062 C 971.016 504.75 942.61 516.937 912 523.171 L 912 576 L 816 576 L 816 523.172 C 785.391 516.938 756.984 504.75 731.812 488.063 L 694.312 525.61 L 626.437 457.735 L 663.937 420.235 C 647.249 395.063 635.062 366.657 628.828 336.001 L 576 336.001 L 576 240.001 L 628.828 240.001 C 635.062 209.392 647.25 180.985 663.89 155.813 L 626.39 118.313 L 694.265 50.438 L 731.765 87.938 C 756.937 71.25 785.343 59.063 815.999 52.829 L 815.999 0 L 911.999 0 L 911.999 52.828 C 942.655 59.062 971.061 71.25 996.233 87.937 L 1033.73 50.437 L 1101.61 118.312 L 1064.11 155.812 C 1080.75 180.984 1092.94 209.39 1099.17 240 L 1152 240 Z M 864 144 C 784.453 144 720 208.5 720 288 S 784.453 432 864 432 S 1008 367.5 1008 288 S 943.547 144 864 144 Z M 483.328 240 L 144 240 L 144 384 L 492.562 384 C 501.374 418.078 514.593 450.281 531.796 480 L 144 480 L 144 624 L 678.234 624 C 733.312 654.516 796.593 672 864 672 C 934.031 672 999.469 652.969 1056 620.203 L 1056 1152 L 0 1152 L 0 96 L 531.797 96 C 506.672 139.406 489.797 188.016 483.328 240 Z M 144 864 L 912 864 L 912 720 L 144 720 L 144 864 Z" glyph-name="feedmanagement" />
			<glyph unicode="&#xf081;" d="M 720 768 C 624 768 624 864 624 864 L 624 1152 L 192 1152 C 192 1152 144 1152 144 1104 S 144 96 144 48 S 192 0 192 0 L 960 0 C 960 0 1008 0 1008 48 S 1008 768 1008 768 S 796.801 768 720 768 Z M 720 1152 L 720 888 C 720 888 720 864 744 864 S 1008 864 1008 864 L 720 1152 Z" glyph-name="file" />
			<glyph unicode="&#xf082;" d="M 720 1152 L 720 888 C 720 888 720 864 744 864 S 1008 864 1008 864 L 720 1152 Z M 720 768 C 624 768 624 864 624 864 L 624 1152 L 240 1152 C 240 1152 192 1152 192 1104 S 192 96 192 48 S 240 0 240 0 L 960 0 C 960 0 1008 0 1008 48 S 1008 768 1008 768 S 796.781 768 720 768 Z M 432 144 L 336 144 L 336 288 L 432 288 L 432 144 Z M 576 144 L 480 144 L 480 336 L 576 336 L 576 144 Z M 720 144 L 624 144 L 624 432 L 720 432 L 720 144 Z M 864 144 L 768 144 L 768 624 L 864 624 L 864 144 Z" glyph-name="filechart" />
			<glyph unicode="&#xf083;" d="M 720 1152 L 720 888 C 720 888 720 864 744 864 S 1008 864 1008 864 L 720 1152 Z M 720 768 C 624 768 624 864 624 864 L 624 1152 L 192 1152 C 192 1152 144 1152 144 1104 C 144 1064.3 144 87.891 144 48 C 144 0 192 0 192 0 L 960 0 C 960 0 1008 0 1008 48 C 1008 87.891 1008 768 1008 768 S 796.781 768 720 768 Z M 444 288 L 384 228 L 228 384 L 384 540 L 444 480 L 348 384 L 444 288 Z M 574.547 180.375 L 481.453 203.625 L 577.453 587.625 L 670.547 564.375 L 574.547 180.375 Z M 768 228 L 708 288 L 804 384 L 708 480 L 768 540 L 924 384 L 768 228 Z" glyph-name="filecode" />
			</font>
</defs>
</svg>
