<?xml version="1.0" encoding="utf-8"?>
<!-- Generator: Adobe Illustrator 16.0.4, SVG Export Plug-In . SVG Version: 6.00 Build 0)  -->
<!DOCTYPE svg PUBLIC "-//W3C//DTD SVG 1.1//EN" "http://www.w3.org/Graphics/SVG/1.1/DTD/svg11.dtd">
<svg version="1.1" id="Layer_1" xmlns="http://www.w3.org/2000/svg" xmlns:xlink="http://www.w3.org/1999/xlink" x="0px" y="0px"
	 width="1152px" height="1152px" viewBox="0 0 1152 1152" enable-background="new 0 0 1152 1152" xml:space="preserve">
<path d="M576,0C257.812,0,0,257.906,0,576s257.812,576,576,576c318.141,0,576-257.906,576-576S894.141,0,576,0z M238.969,897.844
	c-39.234-41.062-70.312-88.266-92.438-140.531c-0.844-2.062-1.688-4.125-2.531-6.188V672h94.969V897.844z M394.594,1005.375
	c-20.344-8.625-39.844-18.562-58.641-29.812L336,528h96l0.188,491.438C419.438,1015.312,406.969,1010.625,394.594,1005.375z
	 M505.641,471.188l-9.984-3.703l-120.281-44.672L244.078,573.703l-4.312,4.922l-6.328,1.453L128.25,603.984L117,606.562
	c-3.469-20.062-5.719-40.406-6.562-60.984l8.812-2.062l87.375-20.578l145.266-163.781l9.234-10.406l12.938,5.062l124.078,48.141
	l279.984-200.016l13.312-9.516l11.906,11.156L930.75,322.406l45.422-36c11.016,18.469,20.766,37.594,29.203,57.562
	c0.234,0.516,0.422,1.031,0.656,1.547l-63.469,50.719l-13.594,10.828l-12.609-12L785.156,271.125L514.266,465L505.641,471.188z
	 M623.344,1039.641c-15.609,1.547-31.406,2.344-47.344,2.344c-16.125,0-32.156-0.797-48-2.391V528h96L623.344,1039.641z
	 M757.312,1005.375c-12.281,5.25-24.75,9.844-37.312,13.969V432h96l0.75,543.094C797.766,986.625,777.938,996.75,757.312,1005.375z
	 M1005.375,757.312C983.156,810,951.75,857.578,912,898.875V480h96v271.125C1007.156,753.188,1006.312,755.25,1005.375,757.312z"/>
</svg>
