<?xml version="1.0" encoding="utf-8"?>
<!-- Generator: Adobe Illustrator 16.0.4, SVG Export Plug-In . SVG Version: 6.00 Build 0)  -->
<!DOCTYPE svg PUBLIC "-//W3C//DTD SVG 1.1//EN" "http://www.w3.org/Graphics/SVG/1.1/DTD/svg11.dtd">
<svg version="1.1" id="Layer_1" xmlns="http://www.w3.org/2000/svg" xmlns:xlink="http://www.w3.org/1999/xlink" x="0px" y="0px"
	 width="1152px" height="1152px" viewBox="0 0 1152 1152" enable-background="new 0 0 1152 1152" xml:space="preserve">
<path d="M300.375,370.969c0-0.094,0-0.094,0-0.188l207.234-98.484c14.953,13.688,34.359,21.562,54.984,21.844L635.25,479.25
	c-1.875,1.781-3.656,3.562-5.25,5.531L300.375,370.969z M784.031,324.562l-158.719-57.75c-1.406,1.594-2.906,3-4.406,4.5
	l72.656,185.156c7.594,0.094,15.094,1.312,22.5,3.469l78.469-98.062C788.156,350.531,784.594,337.781,784.031,324.562z
	 M638.344,602.672L315.609,767.906l334.172,102.984c7.781-9.469,17.531-17.156,28.594-22.547l-12.938-230.25
	C655.5,614.766,646.312,609.469,638.344,602.672z M609.469,544.031L279.844,430.219c-7.781,8.906-17.438,16.031-28.219,20.906
	l9.562,245.953c9.375,3.375,18.094,8.578,25.688,15l322.781-165.234C609.562,545.906,609.562,544.969,609.469,544.031z
	 M843.656,401.062L765,499.219c6.938,12.281,10.594,26.156,10.594,40.406c0,3.562-0.281,7.219-0.75,10.875L886.688,618
	c1.031-0.797,2.156-1.359,3.188-2.156l-39.562-213C848.062,402.281,845.812,401.719,843.656,401.062z M852.281,674.953
	l-111.844-67.5c-3.938,2.719-8.062,5.156-12.469,7.219L741,844.828c0.844,0.281,1.594,0.562,2.438,0.844l115.969-124.781
	c-5.156-10.922-7.781-22.828-7.781-35.062C851.625,682.125,851.812,678.609,852.281,674.953z M1152,576
	c0,318.094-257.812,576-576,576S0,894.094,0,576S257.812,0,576,0S1152,257.906,1152,576z M1017.844,685.781
	c0-40.031-28.5-73.594-66.281-81.375l-39.656-213.094c23.531-14.953,38.344-41.203,38.344-69.797
	c0-45.844-37.312-83.016-83.156-83.016c-23.625,0-45.844,10.125-61.5,27.234l-158.906-57.797
	c-1.594-44.344-38.25-79.969-82.969-79.969c-45.797,0-82.969,37.312-82.969,83.062c0,1.594,0,3.047,0.094,4.688l-207.422,98.438
	c-15.141-13.875-35.016-21.844-55.969-21.844c-45.891,0-83.203,37.312-83.203,83.156c0,35.531,22.594,66.375,54.75,78l9.469,245.859
	c-29.109,13.219-48.844,42.703-48.844,75.75c0,45.844,37.219,83.062,83.062,83.062c25.359,0,48.75-11.344,64.312-30.469
	l334.312,102.938c3.656,42.469,39.375,75.844,82.781,75.844c45.75,0,82.969-37.312,82.969-83.156c0-12.094-2.719-24-7.688-34.969
	l115.969-124.875c9.281,3.562,19.219,5.344,29.344,5.344C980.531,768.891,1017.844,731.625,1017.844,685.781z"/>
</svg>
