<?xml version="1.0" encoding="utf-8"?>
<!-- Generator: Adobe Illustrator 16.0.1, SVG Export Plug-In . SVG Version: 6.00 Build 0)  -->
<!DOCTYPE svg PUBLIC "-//W3C//DTD SVG 1.1//EN" "http://www.w3.org/Graphics/SVG/1.1/DTD/svg11.dtd">
<svg version="1.1" id="Layer_1" xmlns="http://www.w3.org/2000/svg" xmlns:xlink="http://www.w3.org/1999/xlink" x="0px" y="0px"
	 width="1152px" height="1152px" viewBox="0 0 1152 1152" enable-background="new 0 0 1152 1152" xml:space="preserve">
<path d="M1146.051,1056C1134.051,1032,648,72,648,72S612,0,576,0s-72,72-72,72S17.949,1044,5.949,1068s-12,84,60,84
	s1020.102,0,1020.102,0C1158.051,1152,1158.051,1080,1146.051,1056z M492,360c0-3.891,1.078-9.375,8.25-12.305
	C517.5,340.875,552.984,336,574.547,336c28.781,0,59.859,3.891,75.656,8.766c7.219,2.93,9.797,7.805,9.797,10.734V432
	c0,108-30.234,300.891-36,330.141c0,2.931-1.453,5.859-10.078,5.859h-75.844c-5.766,0-8.625-1.945-10.078-5.859
	C525.141,734.836,492,540,492,432V360z M576,1023c-48.047,0-87-38.953-87-87s38.953-87,87-87s87,38.953,87,87S624.047,1023,576,1023
	z"/>
</svg>
