<?xml version="1.0" encoding="utf-8"?>
<!-- Generator: Adobe Illustrator 16.0.4, SVG Export Plug-In . SVG Version: 6.00 Build 0)  -->
<!DOCTYPE svg PUBLIC "-//W3C//DTD SVG 1.1//EN" "http://www.w3.org/Graphics/SVG/1.1/DTD/svg11.dtd">
<svg version="1.1" id="Layer_1" xmlns="http://www.w3.org/2000/svg" xmlns:xlink="http://www.w3.org/1999/xlink" x="0px" y="0px"
	 width="1152px" height="1152px" viewBox="0 0 1152 1152" enable-background="new 0 0 1152 1152" xml:space="preserve">
<g>
	
		<rect x="276.353" y="124.118" transform="matrix(-0.7071 0.7071 -0.7071 -0.7071 955.1758 -11.6468)" width="407.294" height="135.764"/>
</g>
<path d="M468.938,556.688L36,924l0.141,0.141C14.062,942.844,0,970.781,0,1002c0,56.344,45.656,102,102,102
	c31.219,0,59.156-14.016,77.859-36.141L180,1068l367.312-432.938L468.938,556.688z"/>
<path d="M812.062,483.938L912,384L720,192L480,432l137.719,137.719C671.906,524.344,738.75,493.922,812.062,483.938z"/>
<path d="M1083,549l21-21l-96-96l-58.031,58.031C998.438,501.188,1043.438,521.391,1083,549z"/>
<path d="M864,576c-159.047,0-288,128.953-288,288s128.953,288,288,288s288-128.953,288-288S1023.047,576,864,576z M1056,912H912v144
	h-96V912H672v-96h144V672h96v144h144V912z"/>
</svg>
