<?xml version="1.0" encoding="utf-8"?>
<!-- Generator: Adobe Illustrator 16.0.0, SVG Export Plug-In . SVG Version: 6.00 Build 0)  -->
<!DOCTYPE svg PUBLIC "-//W3C//DTD SVG 1.1//EN" "http://www.w3.org/Graphics/SVG/1.1/DTD/svg11.dtd">
<svg version="1.1" id="Layer_1" xmlns="http://www.w3.org/2000/svg" xmlns:xlink="http://www.w3.org/1999/xlink" x="0px" y="0px"
	 width="1152px" height="1152px" viewBox="0 0 1152 1152" enable-background="new 0 0 1152 1152" xml:space="preserve">
<ellipse cx="528" cy="168" rx="432" ry="168"/>
<path d="M564.77,623.331c8.641-10.719,17.865-21.024,27.701-30.86c35.235-35.235,76.292-62.909,122.029-82.255
	C761.903,490.166,812.202,480,864,480c30.608,0,60.692,3.552,89.965,10.593C957.93,483.005,960,475.438,960,468V300h-4.381
	C900,384,745.633,432,528,432s-372-48-427.619-132H96v168c0,72,193.413,156,432,156C540.386,624,552.648,623.771,564.77,623.331z"/>
<path d="M510.216,1013.5C490.166,966.097,480,915.798,480,864c0-49.85,9.42-98.31,28-144.138
	C300.918,716.997,154.281,669.403,100.381,588H96v312c0,72,193.413,156,432,156c1.125,0,2.247-0.006,3.369-0.01
	C523.483,1042.331,516.416,1028.159,510.216,1013.5z"/>
<path d="M864,576c-159.047,0-288,128.953-288,288s128.953,288,288,288s288-128.953,288-288S1023.047,576,864,576z M1056,912H912v144
	h-96V912H672v-96h144V672h96v144h144V912z"/>
</svg>
