<?xml version="1.0" encoding="utf-8"?>
<!-- Generator: Adobe Illustrator 16.0.0, SVG Export Plug-In . SVG Version: 6.00 Build 0)  -->
<!DOCTYPE svg PUBLIC "-//W3C//DTD SVG 1.1//EN" "http://www.w3.org/Graphics/SVG/1.1/DTD/svg11.dtd">
<svg version="1.1" id="Layer_1" xmlns="http://www.w3.org/2000/svg" xmlns:xlink="http://www.w3.org/1999/xlink" x="0px" y="0px"
	 width="1152px" height="1152px" viewBox="0 0 1152 1152" enable-background="new 0 0 1152 1152" xml:space="preserve">
<path d="M1140,132L1020,12c0,0-12-12-36-12s-36,12-36,12l-84,84l192,192l84-84c0,0,12-12,12-36S1140,132,1140,132z M983.996,360.004
	L408.014,935.987L216.02,743.993l575.982-575.982L983.996,360.004z M336,1008L144,816L0,1140c0,12,0,12,12,12
	C12.5,1152,336,1008,336,1008z"/>
</svg>
