<?xml version="1.0" encoding="utf-8"?>
<!-- Generator: Adobe Illustrator 16.0.0, SVG Export Plug-In . SVG Version: 6.00 Build 0)  -->
<!DOCTYPE svg PUBLIC "-//W3C//DTD SVG 1.1//EN" "http://www.w3.org/Graphics/SVG/1.1/DTD/svg11.dtd">
<svg version="1.1" id="Layer_1" xmlns="http://www.w3.org/2000/svg" xmlns:xlink="http://www.w3.org/1999/xlink" x="0px" y="0px"
	 width="1152px" height="1152px" viewBox="0 0 1152 1152" enable-background="new 0 0 1152 1152" xml:space="preserve">
<path d="M576,0C257.884,0,0,257.884,0,576s257.884,576,576,576s576-257.884,576-576S894.116,0,576,0z M576,144
	c91.71,0,176.741,28.582,246.683,77.317L221.317,822.684C172.582,752.742,144,667.71,144,576C144,337.413,337.413,144,576,144z
	 M576,1008c-91.709,0-176.741-28.581-246.683-77.316l601.365-601.367C979.419,399.258,1008,484.291,1008,576
	C1008,814.587,814.587,1008,576,1008z"/>
</svg>
