<?xml version="1.0" encoding="utf-8"?>
<!-- Generator: Adobe Illustrator 16.0.4, SVG Export Plug-In . SVG Version: 6.00 Build 0)  -->
<!DOCTYPE svg PUBLIC "-//W3C//DTD SVG 1.1//EN" "http://www.w3.org/Graphics/SVG/1.1/DTD/svg11.dtd">
<svg version="1.1" id="Layer_1" xmlns="http://www.w3.org/2000/svg" xmlns:xlink="http://www.w3.org/1999/xlink" x="0px" y="0px"
	 width="1152px" height="1152px" viewBox="0 0 1152 1152" enable-background="new 0 0 1152 1152" xml:space="preserve">
<path d="M864,576c-159.047,0-288,128.953-288,288s128.953,288,288,288s288-128.953,288-288S1023.047,576,864,576z M1056,912H912v144
	h-96V912H672v-96h144V672h96v144h144V912z"/>
<path d="M480,864c0-33.188,4.641-65.25,12.562-96H432v-96h99.797c20.953-36.188,47.625-68.531,78.797-96H432v-96h432
	c50.953,0,99.516,10.148,144,28.172V48c0-26.391-21.609-48-48-48H48C21.609,0,0,21.609,0,48v816c0,26.391,21.609,48,48,48h435.328
	C481.359,896.25,480,880.312,480,864z M144,144h720v240H144V144z M336,768H144V480h192V768z"/>
</svg>
