<?xml version="1.0" encoding="utf-8"?>
<!-- Generator: Adobe Illustrator 16.0.1, SVG Export Plug-In . SVG Version: 6.00 Build 0)  -->
<!DOCTYPE svg PUBLIC "-//W3C//DTD SVG 1.1//EN" "http://www.w3.org/Graphics/SVG/1.1/DTD/svg11.dtd">
<svg version="1.1" id="Layer_1" xmlns="http://www.w3.org/2000/svg" xmlns:xlink="http://www.w3.org/1999/xlink" x="0px" y="0px"
	 width="1152px" height="1152px" viewBox="0 0 1152 1152" enable-background="new 0 0 1152 1152" xml:space="preserve">
<path d="M720,0v264c0,0,0,24,24,24s264,0,264,0L720,0z"/>
<path d="M720,384c-96,0-96-96-96-96V0H192c0,0-48,0-48,48c0,26.25,0,324.516,0,597.703l134.648-71.953
	c7.875-4.172,11.203-7.219,16.922-9.047c6.586-2.109,10.523-3.094,15.82-3.094c15.422,0,23.906,6.562,29.039,12.094
	c7.219,7.734,10.43,17.906,10.43,30.141c0,11.391-3.914,21.562-11.203,30.281c-6.398,7.594-9.07,14.672-22.711,21.516L144,746.25
	c0,30.75,0,60.562,0,89.062l172.922,91.781c13.664,7.172,19.734,14.344,26.109,21.891c7.289,8.719,9.188,18.75,9.188,29.812
	c0,12.422-4.5,22.734-11.531,30.75c-7.359,8.391-18.727,12.844-31.102,12.844c-5.32,0-10.828-0.938-16.852-2.906
	c-5.062-1.641-5.086-4.875-14.367-9.844L144,936.656c0,91.406,0,155.812,0,167.344c0,48,48,48,48,48h768c0,0,48,0,48-48s0-720,0-720
	S796.805,384,720,384z M911.812,1005.094c-8.648,6.703-19.875,2.906-33.422,2.906H756.703c-19.266,0-32.016,4.5-40.172-1.312
	c-6.469-4.594-14.203-10.312-14.203-28.5c0-19.781,10.969-26.953,17.484-30.516c7.031-3.844,17.508-5.203,32.438-6l-84.023-92.484
	l-82.617,93.047c17.367,0.609,29.344,2.953,37.219,6.891c12.141,6.094,18.844,17.719,18.844,32.578
	c0,18.375-8.156,20.578-14.953,25.172c-8.391,5.672-21.188,1.125-40.312,1.125H465.609c-13.547,0-24.773,3.75-33.398-2.953
	c-9.562-7.453-14.602-14.391-14.602-26.859c0-13.219,5.555-22.031,16.078-28.875c7.641-4.969,18.023-6.844,31.688-7.688L606,787.547
	L473.859,642.234c-12.891-1.078-22.617-3.938-29.578-8.953c-6.562-4.688-14.438-13.875-14.438-31.125
	c0-16.031,7.078-18.188,13.031-23.203c7.969-6.75,18.984-2.953,32.719-2.953h114.422c14.391,0,25.945-3.938,34.383,2.484
	c9.305,7.078,13.992,13.875,13.992,27.328c0,13.594-6.094,22.734-17.672,29.812c-6.047,3.703-13.125,5.344-21.352,6.75L672,724.312
	l75.328-82.453c-9.234-1.359-17.086-4.078-23.742-7.922c-11.93-6.938-17.977-17.625-17.977-31.688c0-4.969,0-13.125,13.875-23.484
	c8.859-6.609,20.461-2.766,34.5-2.766h114.422c13.734,0,24.727-3.797,32.672,2.953c6,5.109,13.078,10.828,13.078,26.859
	c0,17.812-8.578,25.453-15.75,30.234c-7.594,5.062-18.141,6.938-32.18,7.547L734.508,786.234l145.148,156.703
	c13.102,1.266,23.156,4.172,30.656,9c10.523,6.844,16.078,17.156,16.078,29.906C926.391,994.266,921.352,997.594,911.812,1005.094z"
	/>
</svg>
