<?xml version="1.0" encoding="utf-8"?>
<!-- Generator: Adobe Illustrator 16.0.0, SVG Export Plug-In . SVG Version: 6.00 Build 0)  -->
<!DOCTYPE svg PUBLIC "-//W3C//DTD SVG 1.1//EN" "http://www.w3.org/Graphics/SVG/1.1/DTD/svg11.dtd">
<svg version="1.1" id="Layer_1" xmlns="http://www.w3.org/2000/svg" xmlns:xlink="http://www.w3.org/1999/xlink" x="0px" y="0px"
	 width="1152px" height="1152px" viewBox="0 0 1152 1152" enable-background="new 0 0 1152 1152" xml:space="preserve">
<path d="M864,576c-159.028,0-288,128.912-288,288c0,159.107,128.972,288,288,288s288-128.893,288-288
	C1152,704.912,1023.028,576,864,576z M1056,912H912v144h-96V912H672v-96h144V672h96v144h144V912z"/>
<path d="M510.216,1013.499C490.166,966.096,480,915.797,480,864c0-51.798,10.166-102.097,30.216-149.5
	c19.347-45.738,47.021-86.795,82.255-122.029c2.836-2.836,5.726-5.604,8.637-8.343C679.09,295.652,912,96,912,96V0H48v96
	c0,0,336,288,336,672c0,0,0,192,0,240s48,48,48,48h96c0,0,1.218-0.001,3.261-0.194
	C523.417,1042.203,516.389,1028.092,510.216,1013.499z"/>
</svg>
