<?xml version="1.0" encoding="utf-8"?>
<!-- Generator: Adobe Illustrator 16.0.4, SVG Export Plug-In . SVG Version: 6.00 Build 0)  -->
<!DOCTYPE svg PUBLIC "-//W3C//DTD SVG 1.1//EN" "http://www.w3.org/Graphics/SVG/1.1/DTD/svg11.dtd">
<svg version="1.1" id="Layer_1" xmlns="http://www.w3.org/2000/svg" xmlns:xlink="http://www.w3.org/1999/xlink" x="0px" y="0px"
	 width="1152px" height="1152px" viewBox="0 0 1152 1152" enable-background="new 0 0 1152 1152" xml:space="preserve">
<g>
	<path d="M480,864c0-37.551,5.46-75.071,16.302-111.027c-7.771,1.062-27.235,8.829-30.004,16.667
		c-2.104,5.957,4.987,13.014-0.755,18.329c-1.436,1.33-3.335,0.829-4.669,2.397c-2.419,2.845-2.448,7.441-6.045,9.353
		c-6.466,3.433-5.008,8.632-7.699,14.604c-2.728,6.052-11.546,17.105-18.602,17.89c-5.027,0.558-10.485-1.567-12.312-6.429
		c-1.289-3.43-0.358-11.204-2.473-13.852c0.589,0.737-3.48,11.083-3.609,12.91c-0.267,3.799,7.212,9.31,9.987,11.271
		c4.514,3.196-3.283,12.848-5.225,15.96c-2.875,4.605-4.629,4.962-9.901,5.645c-2.833,0.367-12.968-1.242-14.948,0.045
		c-4.361,2.835,1.127,11.904-1.659,13.355c-1.907,0.993-14.864-4.8-14.864-2.207c0,2.56,0.668,5.913,2.39,7.913
		c2.01,2.336,4.537-0.829,6.244,0.498c2.983,2.319-19.196,24.356-20.155,26.905c-2.133,5.672,19.641,3.495,6.34,15.311
		c-6.841,6.124-21.104,14.575-14.742,25.588c2.345,4.058,6.054,7.946,9.935,10.559c1.418,0.955,14.27,3.787,14.229,3.858
		c-1.757,3.122-13.056,4.129-16.698,5.114c-2.026,0.547-22.896,1.063-21.335-3.309c0.744-2.086,12.468-10.164,5.958-12.334
		c-3.852-1.284-2.473,10.527-7.934,10.527c-2.571,0-9.869-7.423-11.671-9.639c-2.375-2.917-0.897-5.864-1.459-9.153
		c-0.54-3.158-3.709-3.724-5.689-5.688c-3.485-3.411,7.671-7.196-0.182-9.855c-6.62-2.241,0.556-10.458,1.599-14.037
		c0.641-2.338-2.91-5.499-3.305-7.773c-0.607-3.593,3.338-7.522,5.173-9.999c5.821-7.898,5.255-11.513,3.661-20.377
		c-1.148-6.394,4.947-13.207,2.816-19.053c-2.388-6.547-2.775-4.829,0.393-11.248c1.326-2.686-0.217-6.178,1.196-9.177
		c1.301-2.761,2.833-5.162,3.827-8.076c2.655-7.784,4.992-12.6,2.665-20.767c-1.177-4.128,4.548-8.296,2.39-10.85
		c-2.781-3.287,6.639-7.015,6.08-12.019c-1.739-15.57,0.489-29.859,1.411-45.431c0.385-6.509-0.411-12.393-4.36-17.792
		c-2.599-3.555-11.378-11.607-15.849-12.627c-16.355-3.867-16.489-15.666-21.603-29.363c-3.402-9.114-5.771-26.676-13.848-32.455
		c-5.708-4.084-9.521-7.871-6.738-15.516c2.842-7.806,2.605-13.417,1.251-21.64c-2.147-12.359,15.018-14.308,17.975-22.186
		c3.956-10.537,3.823-28.736-5.278-37.312c-6.388-6.036-6.328,1.354-8.06,4.286c-4.302,7.288-8.4-0.108-13-1.922
		c-6.33-2.495-9.236-9.275-15.463-12.099c-8.653-3.923-5.369-8.305-8.669-15.694c-3.716-8.32-12.526-6.896-19.505-9.729
		c-8.563-3.477-11.85-7.596-18.364-14.282c-8.503-8.729-11.594,9.217-18.169,2.239c-7.296-7.745-17.973,3.069-22.463-9.139
		c-3.178-8.641-3.685-12.165-13.776-14.623c-9.535-2.321-10.28-7.821-10.962-16.507c-0.472-6.009-5.379-12.491-10.097-15.861
		c-6.598-4.715-9.358-12.527-14.25-19.038c-5.302-7.057-14.141-12.607-17.358-21.113c-0.769-2.054-1.526-9.741-4.689-9.921
		c-9.745-0.555-0.55,11.437,1.387,13.267c7.302,6.903,13.101,18.724,15.815,27.988c1.135,3.873,6.556,6.346,8.938,9.479
		c2.131,2.805,1.494,10.15-3.476,6.984c-2.238-1.425-3.76-5.92-6.218-6.633c-6.301-1.884-4.26-5.64-7.752-9.944
		c-1.895-2.336-5.546-9.354-9.06-9.169c-5.04,0.267-8.963,0.914-4.825-5.572c4.762-7.465-5.075-11.255-8.124-18.688
		c-3.819-9.312-6.539-23.343-17.957-24.472c29.651-89.769,86.25-169.756,160.746-227.915c2.057,4.209,8.363-4.449,13.588-0.077
		c2.811,2.379-1.046,15.508,5.309,8.862c4.211-4.404,10.274-6.685,10.654-13.354c0.21-3.695-16.714-1.645-19.637-2.963
		c4.629-3.426,9.32-6.769,14.07-10.026c0.662,1.398,7.254-1.265,7.97-2c0.848-1.133,1.026-2.368,0.534-3.704
		c2.125-1.392,4.261-2.767,6.408-4.125c4.237-2.68,6.953-1.866,11.598-2.137c6.622-0.386,15.387-3.289,21.824-1.032
		c9.238,3.239,18.547,9.409,27.588,13.523c5.906,2.687,12.331,3.673,18.684,4.901c2.46,0.476,5.065,0.776,7.472,1.499
		c3.861,1.182,1.808,12.402,5.24,15.103c2.488,1.957,4.972-0.633,7.473-0.633c2.927,0,6.715,3.099,8.741,4.907
		c5.081,4.533,10.912,5.666,17.628,6.751c-2.712,4.198-4.983,7.239-9.35,9.771c-8.531,4.946-11.243-2.272-19.556-4.542
		c-8.754-2.39-4.857,5.164-0.173,7.778c2.437,1.358,16.066,12.486,9.523,16.886c-2.802,1.883-10.964-10.557-13.253-0.712
		c-0.288,1.237-10.04,1.192-10.797-0.251c-4.204-8.012-8.034-1.375-10.525-3.341c-4.246-3.36-9.145-6.208-14.125-8.534
		c-3.933-1.836-12.856-1.453-17.142-1.196c-7.336,0.44-12.941,5.671-11.667-5.788c1.082-9.715,12.321-1.116,17.168-3.663
		c1.753-0.922,2.405-3.594,3.378-5.131c2.362-3.734,9.401-4.076,10.942-7.281c0.409-0.85-8.823-7.804-10.677-3.446
		c-2.335,5.575-9.475,11.908-16.021,5.997c-0.745-0.672,11.716-8.754,6.131-12.652c-2.817-2.03-7.882-0.317-9.577-1.851
		c-0.491-0.444-1.481-7.937-3.925-5.763c-2.139,1.903,1.838,5.438-3.27,5.436c-3.208-0.001-6.966-1.534-10.047-0.062
		c-14.283,6.847,10.36,8.992,0.719,16.037c-4.137,3.023-11.534,5.276-16.359,4.265c-1.839-0.385-14.089-2.739-12.125,1.95
		c0.491,1.164,9.041,3.114,10.344,2.764c5.794-1.482,15.123,5.89,20.722,9.483c4.313,2.746,1.692,6.443-1.953,7.844
		c-6.812,2.619-4.545-6.25-9.171-7.405c-6.938-1.732-12.233,6.854-19.318,5.532c-4.515-0.843,3.521-4.924,1.327-7.406
		c-2.898-3.279-4.218-3.906-5.807-8.048c0.141,0.367-2.899,14.096-2.869,14.088c-3.378,0.842-8.468-3.919-13.604-2.32
		c-6.345,1.975-12.592,10.378-17.714,14.395c-5.961,4.674-2.699,7.333-2.811,14.082c-0.107,6.461,4.057,5.097,5.668,10.989
		c1.637,5.984,4.157,2.388,8.744,2.35c7.351-0.06,16.461,7.106,24.087,8.711c5.852,1.213,17.796-2.666,21.896,1.813
		c2.773,3.03,2.705,15.187,5.154,16.836c1.152,0.776,4.501-5.055,4.96-5.864c2.168,7.059-3.029,13.736,5.902,15.101
		c11.454,1.751,5.555-16.097,1.924-21.091c-1.628-2.239-2.918-7.741,2.055-5.248c5.072,2.542,8.378,4.354,12.251-2.833
		c5.18-9.613-8.02-11.65-10.826-18.265c0.855-1.519,2.26-2.231,4.211-2.137c3.137-0.823,1.416-2.899,0.997-5.092
		c-0.387-2.029-0.346-13.817,3.24-13.817c6.006,0,11.822-1.596,17.896-1.104c6.856,0.54,11.252,6.603,18.145,7.629
		c1.391,0.207,12.69,1.867,10.452,5.35c-1.476,2.297-7.685,3.926-4.911,7.646c2.351,3.179,8.452,4.563,12.233,5.039
		c6.652,0.835,9.486-8.511,13.325-12.123c4.492-4.227,11.587,9.481,13.787,12.352c5.691,7.43,4.336,19.121,15.169,17.873
		c10.016-1.154,9.719,8.474,16.095,12.742c4.011,2.686,11.628,1.969,7.863,8.668c-2.539,4.519-6.612,9.833-7.86,14.889
		c-0.204,0.828,12.202,2.248,13.371,2.411c3.398,0.475,11.773,14.982,8.33,17.761c-1.042,0.841-7.255-4.038-10.413-1.022
		c-2.297,2.195-2.568,0.84-4.27-0.84c-2.427-2.396-5.307-0.607-8.161-0.556c-6.743,0.123-12.434,1.55-8.812-5.971
		c1.744-3.621,9.8-14.728,9.48-17.751c-0.877-8.297-8.151,2.347-9.601,3.208c-2.094,1.207-6.368-0.662-8.667-0.429
		c-2.852,0.289-5.875,3.093-8.064,4.737c-2.481,1.863,1.531,4.991-5.54,7.436c-7.571,2.617-2.332-10.617-4.649-10.453
		c-1.998,0.141-2.157,3.141-3.98,2.083c-5.12-2.966-6.726-1.837-11.525,0.148c-10.785,4.462-16.619,1.985-19.214,15.918
		c6.371-3.306,26.23-13.446,31.074-6.107c3.622,5.525-3.149,6.087,0.536,10.998c4.582,6.104,9.299-7.939,9.909,2.836
		c0.539,9.53,7.464-1.236,9.764-2.1c2.313-0.869,7.816,10.471,4.273,12.655c-3.543,2.185-8.263,2.343-12.229,3.375
		c-7.122,1.852-10.958,4.515-17.329,7.579c-6.864,3.302-6.222-5.639-6.683-9.771c-0.414-3.296-7.904,3.47-10.232,3.598
		c-5.583,0.306-15.052,4.627-11.692,11.876c2.868,6.188,8.224,10.391-2.537,10.135c-1.312-0.031-18.691-2.919-15.074,2.767
		c4.034,6.393-9.199,3.199-5.191,11.102c2.924,5.749-4.797,5.904-7.377,4.391c-5.194-3.046,3.822,16.168,2.669,17.219
		c-3.646,3.325-8.917,3.239-12.233,7.251c-3.906,4.727-7.25,10.266-12.058,14.165c-2.781,2.255-12.46,8.098-8.184,13.13
		c3.991,4.692,4.553,12.709,6.599,18.357c1.335,3.687,0.488,11.643-3.048,14.039c-4.43,3.001-4.851-7.312-7.796-8.464
		c-5.667-2.261-6.816-13.351-7.517-18.369c-1.002-7.141-5.552,3.304-10.46-4.697c-3.155-5.143-10.304,1.223-15.346,0.714
		c-8.203-0.771-5.95,1.469-9.669,5.862c-1.808,2.135-12.655-3.534-16.298-3.534c-10.552,0-9.499,3.061-17.506,8.547
		c-0.775,0.531-13.597,7.567-9.324,9.26c5.41,2.091,0.696,12.983,0.083,16.372c-1.307,7.223-0.954,17.424,2.706,23.936
		c2.469,4.393,12.423,17.651,18.32,15.302c3.423-1.364,6.489-6.472,10.646-4.031c2.687,1.578,4.688-0.977,5.162-3.703
		c0.728-4.183-2.347-9.327,2.975-11.848c3.309-1.567,9.959-1.131,13.659-1.538c8.133-0.893,7.481,11.628,2.928,15.536
		c-1.833,1.575-5.722,21.917-5.609,21.98c7.053,4.041,12.779-0.81,19.265-1.972c7.519-1.198,10.686,10.914,9.518,15.854
		c-1.828,7.728-3.463,18.16,1.11,25.229c4.729,7.307,13.801,9.025,19.471,0.097c2.75-4.291,10.684,7.806,12.488,7.915
		c9.092,0.557,10.986-16.414,20.01-18.481c2.435-0.571,17.595-12.102,11.824-0.753c-1.396,2.744-4.813,16.617-0.058,17.988
		c-1.501-0.454,9.05-28.5,14.646-17.231c0.661,1.331,2.979,8.76,5.576,6.12c5.975-6.05,11.659,0.16,14.123,5.552
		c4.035-5.996,9.111-14.003,17.065-5.124c5.913,6.6,3.849-2.868,8.818-4.892c1.161-0.456-3.61,17.308-3.719,17.245
		c2.878,1.654,10.961,0.337,12.663,3.34c4.049,7.185,8.52,14.938,16.584,11.215c9.977-4.605,21.097,9.822,25.169,17.352
		c1.16,2.146,2.397,8.688,5.78,8.688c3.77,0,4.705,5.58,4.705,8.32c0,6.38-17.782,6.521-16.351,11.917
		c2.123,7.998,12.848-4.48,14.932-5.214c3.703-1.325,7.506,1.081,6.73,5.246c-1.162,6.246-7.036,6.435-9.674,10.797
		c-0.038,0.063,6.946,3.248,7.952,0.204c1.291-3.91,2.33-8.57,5.859-11.251c5.74-4.36,19.428,7.357,23.617,10.062
		c6.989,4.51,9.827,1.328,16.688,2.684c6.511,1.286,8.785,6.533,13.562,10.067c3.985,2.949,9.468,2.647,13.175,5.984
		c5.997,5.396,7.813,12.219,5.521,19.8c31.131-47.729,72.893-88.347,121.478-118.125c-5.71-5.363-15.062-5.014-20.509-10.875
		c-4.437-4.776,0.416-11.604-2.555-17.144c-3.013-5.618-1.673-3.074,0.421-8.185c3.438-8.384,8.772-14.173,6.852-23.822
		c-1.243-6.241-5.425-13.248-4.07-19.665c1.373-6.508,5.837-13.259,7.862-19.762c1.63-5.232,2.837-11.753,7.381-15.327
		c5.277-4.15,16.387-5.977,20.044-11.515c3.538-5.356,1.409-14.247,4.256-20.397c2.152-4.651,4.474-6.359,8.255-9.057
		c5.318-3.794,9.414-10.081,16.56-9.958c7.795,0.134,10.682,0.365,17.953-2.747c8.613-3.686,18.503-10.712,28.106-10.569
		c10.122,0.151,19.6-0.046,29.417-2.097c4.758-0.994,10.164-0.216,13.637,3.462c2.208,2.34,7.414,12.654,2.003,14.256
		c-2.575,0.763-11.166-0.109-7.299,5.497c2.199,3.188,10.201,7.817,13.64,9.471c4.121,1.982,9.021,2.095,13.189,4.434
		c3.947,2.214,7.174,7.227,12.235,7.227c4.894,0,8.716,6.583,13.952,4.649c6.875-2.539,5.688-14.018,11.927-17.196
		c4.192-2.138,12.979,5.32,17.876,5.32c5.574,0,12.656-1.504,17.964,0.697c4.367,1.812-12.849,17.653-8.726,16.545
		c5.6-1.505,7.875-10.027,14.178-12.17c4.85-1.647,11.451-4.46,14.854,0.766c8.012,12.302,13.35,28.899,18.822,42.521
		c2.497,6.211,5.189,11.253,5.328,18.068c0.109,5.377-0.962,11.429,0.646,16.662c3.859,12.549,22.668,16.604,33.076,19.614
		c-2.205-11.664-7.229-20.348-16.133-28.206c-7.34-6.387-3.169-20.138-11.048-25.658c-4.7-3.293-6.562-26.916-12.993-22.804
		c-11.121,7.111-13.509-17.196-14.255-21.895c1.84,8.585,11.808-8.076,12.348-9.062c3.203-5.848,6.547-17.713,4.562-24.387
		c-0.001-0.005-28.931,2.02-33.019,1.685c-5.899-0.483-11.283-5.871-16.315-8.772c-5.29-3.05-3.593-9.166-3.89-14.571
		c-0.438-7.976-3.401-9.922-9.645-4.084c-0.684,0.649-8.602,4.183-7.062,5.527c2.449,2.216,5.726,3.731,7.119,6.941
		c2.399,5.527-18.242,24.609-19.762,15.354c-2.492-15.184-4.152-29.824-17.085-40.256c-5.812-4.688-11.851-9.906-17.285-15.037
		c-2.805-2.648-5.572-6.778-9.831-7.121c-4.908-0.396-2.465,6.28-0.626,7.995c5.83,5.436,10.026,12.496,17.087,16.489
		c5.18,2.929,9.858,6.379,14.501,10.104c-1.542,0.674-7.374,0.535-7.925,1.474c-1.523,2.594,1.208,8.688,1.771,11.312
		c0.77,3.593,0.157,7.923-3.808,3.435c-3.574-4.046-3.729-9.964-6.854-14.406c-4.492-6.386-15.001-6.586-20.975-11.602
		c-5.454-4.579-9.807-19.727-18.958-12.944c-3.899,2.891-8.115,6.988-13.322,5.596c-3.731-0.997-10.44-5.566-12.678-0.302
		c-1.575,3.708-0.838,10.853-5.909,11.66c-6.126,0.976-8.721,3.494-12.884,8.217c-4.306,4.886,2.508,8.198-2.469,11.458
		c-5.689,3.702-7.148,7.945-14.186,9.538c-2.895,0.655-9.945-0.602-11.475,1.819c-1.689,2.679-2.687,8.905-5.759,3.667
		c-2.322-3.959-3.521-7.307-8.756-6.958c-7.421,0.494-6.128-2.829-11.119-7.503c-5.235-4.917,2.252-9.483,2.78-14.053
		c0.608-5.278-2.049-10.605-1.42-16.077c2.681-23.322,48.169,13.534,44.752-23.269c-0.514-5.347-8.496-8.418-12.719-9.731
		c-4.465-1.389-12.006-4.948-1.872-5.827c5.421-0.45,10.583-4.104,15.979-5.35c3.871-0.895,13.517-1,15.027-5.561
		c1.528-4.619-0.468-6.76,5.162-8.364c1.989-0.567,6.226-0.319,7.645-1.858c3.16-3.426,6.343-6.896,9.833-9.989
		c5.797-5.117,12.867,1.754,17.462-0.871c-2.231,1.275-4.899-14.11-4.346-16.095c1.612-5.769,15.239-11.474,14.19-2.47
		c-1.717,14.727,8.864,19.906,21.917,13.883c5.149-2.376,13.722-4.573,19.531-3.711c13.617,2.018,8.668,3.659,12.183-7.408
		c1.188-3.722,2.703-8.991,6.346-11.118c3.764-2.198,8.109,1.884,12.007,1.611c10.338-0.724-4.217-7.923-4.217-9.429
		c0-2.309,15.479-2.125,16.93-2.226c9.056-0.647,11.014-0.682,16.911,6.369c9.515,11.376,18.504,23.191,26.929,35.396
		c16.95,24.555,31.608,50.688,43.703,77.964c12.282,27.697,21.914,56.562,28.724,86.085c3.469,15.038,6.205,30.244,8.203,45.547
		c0.65,4.983,6.952,40.376,3.274,42.366c16.796,6.754,33.108,14.704,48.779,23.769c0.769-126.043-44.182-249.79-125.973-345.739
		C849.339,91.056,736.004,26.777,613.266,6.849C487.321-13.6,355.967,12.557,247.839,80.375
		C143.311,145.936,63.491,247.95,25.513,365.392C-13.878,487.206-7.269,622.211,44.067,739.505
		c49.395,112.857,138.614,206.51,248.883,261.421c73.836,36.769,155.96,55.557,238.415,55.053C497.729,997.823,480,931.165,480,864
		C480,825.395,480,933.936,480,864z M862.041,183.312c7.064,6.848,13.923,13.91,20.556,21.177
		c-4.842,0.226-9.053-0.472-13.661,1.521c-5.563,2.407-9.161,4.89-11.973-1.873C852.523,193.457,851.323,189.997,862.041,183.312
		C869.105,190.16,860.34,184.373,862.041,183.312z M784.097,177.649c8.134-1.995,16.134-5.864,22.827-10.889
		c6.407-4.811,9.219-13.639,15.787-17.651c7.667,5.972,15.154,12.176,22.446,18.6c3.645,3.21,7.239,6.475,10.784,9.793
		c-1.164,4.31-5.081,8.588-8.976,10.63c-4.651,2.44-9.631,1.107-13.645,5.164c-8.526,8.621,3.5,5.986,6.688,11.246
		c2.467,4.072-3.304,9.101-5.699,11.696c-4.477,4.852-3.342,12.669-8.579,16.038c-3.604,2.318-24.433,8.435-25.17,2.585
		c-0.81-6.413-3.338-12.89-3.938-19.313c-0.627-6.72-8.479,6.68-8.882,7.008c-3.906,3.175-12.602,1.786-16.091-1.35
		c-5.142-4.617-3.588-9.421-5.254-15.061c-2.018-6.833-2.74-8.585,1.504-14.472C771.783,186.291,777.316,179.348,784.097,177.649
		C793.066,175.449,775.153,179.889,784.097,177.649z M342.23,89.485c7.38,0,9.951-4.37,13.104-9.486
		c10.261-3.958,20.554-7.53,31.185-10.804c27.49-8.467,55.745-14.433,84.309-17.824c29.557-3.509,59.441-4.278,89.142-2.319
		c7.016,0.463,14.02,1.079,21.006,1.847c3.474,0.381,6.94,0.801,10.404,1.258c0.919,2.011,2.221,3.732,3.902,5.162
		c4.709,3.605,9.961,1.071,13.637-2.519c7.432,1.262,14.834,2.694,22.198,4.306c-2.525,1.874-42.975,33.505-25.114,36.339
		c3.258,0.517,5.036,0.43,1.96,4.06c-4.355,5.142-4.129,12.171-3.842,18.547c0.262,4.982-15.87-3.889-19.386-0.928
		c-5.104,4.301,2.71,15.258,3.939,19.653c2.419,8.633-12.551,10.376-11.778,0.16c0.247-3.428-11.891-11.289-11.825-5.821
		c0.029,2.498,0.674,9.172,4.362,9.172c1.849,0,11.365,6.902,9.312,8.69c-2.223,1.936-6.165,0.024-8.733,0.836
		c-5.618,1.775-10.485,5.246-16.358,6.401c-11.179,2.218-18.753-3.899-25.008,7.459c-4.984,9.054-8.541,5.899-18.312,5.899
		c-6.171,0-17.467,6.582-15.906,12.916c0.939,3.812-0.001,8.225-5.042,6.727c-5.309-1.571-3.606,7.513-3.978,10.387
		c-0.522,4.049-4.114,8.451-8.176,9.469c-5.996,1.503-6.109-3.261-7.783-7.32c-0.708-1.715-5.698,1.991-6.766,2.389
		c-3.674,1.369-6.678-4.513-9.266-6.598c-3.68-2.965-20.722-14.033-11.529-18.456c-3.61,1.737-9.556-5.335-10.782-8.193
		c-3.191-7.436-4.023-10.058,0.442-16.9c1.378-2.112-9.349-4.367-8.541-11.564c0.831-7.401,5.966-10.433,12.428-10.433
		c-5.321-4.126-8.025-0.979-10.998,3.1c-2.012,2.761-4.694,5.952-5.51,1.019c-1.66-10.049,0.188-21.411-10.865-25.912
		c-8.729-3.554-16.987-6.304-26.332-7.876c-8.438-1.419-19.354,5.213-19.15-8.384c-0.929,3.674-1.78,9.691-5.347,11.822
		c-6.109,3.649-8.973-5.534-12.528-8.572c-0.94-0.803-16.213-3.01-13.008-6.137C333.965,88.847,339.341,89.485,342.23,89.485z"/>
</g>
<path d="M864,576c-159.094,0-288,128.953-288,288c0,159.094,128.906,288,288,288c159,0,288-128.906,288-288
	C1152,704.953,1023,576,864,576z M792,1044L660,912l60-60l72,72l216-216l60,60L792,1044z"/>
</svg>
