<?xml version="1.0" encoding="utf-8"?>
<!-- Generator: Adobe Illustrator 16.0.4, SVG Export Plug-In . SVG Version: 6.00 Build 0)  -->
<!DOCTYPE svg PUBLIC "-//W3C//DTD SVG 1.1//EN" "http://www.w3.org/Graphics/SVG/1.1/DTD/svg11.dtd">
<svg version="1.1" id="Layer_1" xmlns="http://www.w3.org/2000/svg" xmlns:xlink="http://www.w3.org/1999/xlink" x="0px" y="0px"
	 width="1152px" height="1152px" viewBox="0 0 1152 1152" enable-background="new 0 0 1152 1152" xml:space="preserve">
<path d="M332.625,183.125c-2.75-1.75-6.436-3.37,0.339-9.753c13.164-12.402-2.691-5.679-6.058-11.935
	c-1.064,0.958-8.717-17.438-6.563-17.438c-1.042,2.624-2.212,6.238-4.394,8.29c-2.575,2.421-3.656,7.73-6.715,9.569
	c4.921,2.209,9.642,9.507,6.609,14.813c-2.787,4.778-10.75,6.395-15.562,8.39c4.646,5.063,22.096,9.035,19.688,17.766
	c-4,13.691-16.162,3.885-17.337-5.212c-1.286-9.954-3.513-2.533-8.53,1.555c-3.96,3.227-7.413,5.693-12.634,5.982
	c-6.514,0.361-4.721-5.454-1.53-8.324c-0.93-0.302-1.774-0.771-2.532-1.406c-2.173,13.505-3.442,6.797-13.594,6.797
	c-7.201,0-10.703,6.159-15.693,10.348c-2.953,2.479-6.2,4.589-9.102,7.127c-2.707,2.368,0.09,7.918,0.074,11.207
	c-0.025,5.089,4.445,7.683,6.627,13.131c11.088-3.722,22.002,5.834,32.999,8.157c6.959,1.545,15.413-2.612,21.592,0.081
	c6.757,2.945,7.123,10.462,9.44,16.42c1.467-2.347,2.852-4.745,4.265-7.125c1.509,5.259,5.622,13.928,2.435,19.074
	c-1.558,2.515,2.044,1.68,3.613,1.972c5.862,1.178,3.433-4.755,2.483-8.203c-1.147-3.933-8.781-17.795-3.895-19.788
	c4.839-1.973,14.384-2.275,17.348,2.773c0-5.236,3.51-6.616-0.687-11.674c-3.318-3.999-8.861-6.209-11.816-10.116
	c-3.584-4.739,5.341-5.599,4.623-9.892c-0.755-4.509-0.163-17.865,6.521-17.865c14.382,0,21.256-1.804,33.891,5.776
	c4.87,2.922,11.502,1.479,16.618,4.486c7.748,4.553-0.267,8.221-2.884,12.144c8.775,9.132,15.771,1.646,21.322-5.538
	c7.988-10.336,14.123,1.411,19.085,7.975c1.44,1.229,2.723,1.093,3.847-0.41c2.242-1.835,5.083,5.064,6.019,6.402
	c1.678,2.398,4.665,4.189,6.836,7.212c4.674,6.51,12.765,8.874,16.905,16.797c4.826,9.235,18.818,8.544,10.41,21.7
	c-5.557,8.972-6.114,12.141,4.125,12.141c7.488,0,18.529,20.82,11.244,25.147c-3.458,2.054-4.626-2.227-7.822-2.227
	c-3.339,0-4.16,2.859-7.406,2.859c-2.782,0-3.319-3.843-5.625-3.843c2.155,0-3.896,13.901-4.151,14.552
	c-3.416,8.726-5.788-3.427-7.115-6.525c-2.398-5.596-14.393-9.744-7.016-16.606c2.233-2.029,2.787-7.832,4.166-10.512
	c0.332-0.644,7.088-9.035,6.101-9.035c-1.873,0-4.024,5.274-5.72,6.235c-3.679,2.069-8.985-2.134-12.187,0.421
	c-3.492,2.972-11.086,19.159-18.938,12.187c1.59,4.175-2.792,7.234-0.188,10.171c7.67-7.67,9.534-1.932,11.016,5.485
	c5.1,0,7.506-13.187,13.09-2.191c7.749,15.256-2.375,16.604-15.105,19.442c-11.23,2.946-36.93,18.696-39.942,1.269
	c0,0.101-0.729-0.91-4.197,1.521c-10.366,7.264,6.867,12.125,2.186,19.567c-3.285,5.232-15.642,3.083-20.39,1.5
	c-5.501-1.101-0.181,11.028-9.563,9.843c-0.7,3.501,0.097,18.134-9.281,13.453c1.79,4.583,9.133,11.373,3.896,16.062
	c-5.614,5.027-11.281,5.148-16.177,11.594c-4.932,6.355-11.444,10.448-16.477,16.271c-4.769,5.518,0.54,11.125,2.369,17.079
	c2.032,6.616,4.412,12.741,3.012,19.76c-0.89,4.462-5.227,13.198-11.174,9.214c-3.608-2.417-3.433-7.815-6.861-10.774
	c-5.355-4.622-6.788-13.599-7.761-20.192c-5.986,4.032-8.592-2.011-11.767-5.952c2.907-0.727-9.906-9.453-9.925-9.464
	c-7.261-4.257-9.347,19.182-18.721,18.318c-6.828-0.629-6.57-11.526-13.26-11.526c-1.319,0-2.096-12.993-6.679-6.791
	c-2.951,3.992-3.468,9.739-6.527,14.088c-3.789,5.386-9.052,8.828-13.232,13.844c4.236,4.232,3.033,14.028,0.985,18.844
	c-2.711,6.413-1.758,18.107,0.632,24.5c2.472,6.613,8.881,12.477,14.298,16.937c5.339,4.397,10.402-7.025,17.601-2.859
	c4.482-5.176-3.535-18.047,9.61-18.047c5.194,0,11.041-2.002,16.125-1.077c7.88,1.364,6.874,14.625,3.84,19.465
	c-1.987,3.17-4.541,4.221-4.802,8.311c-0.286,4.46,0.959,9.214-1.148,13.427c1.617,0.127,4.624-5.275,4.877-6.686
	c1.436-7.998,0.912-2.541,5.528-5.222c10.247-6.093,20.143,14.554,20.588,21.819c0.788,12.844-5.087,22.388,0.646,35.273
	c5.778,14.233,24.14-14.542,30.468-3.938c-0.075-0.142,0.986-5.531,0.655-5.531c3.275,0-0.839,7.187,3.868,6.868
	c4.778-0.323,8.602-7.56,12.4-10.1c11.628-7.775,28.026-14.111,19.138,6.184c2.056-4.304,5.941-8.226,10.55-9.717
	c6.177-1.999,7.607,4.442,9.915,8.591c2.907-2.229,16.535-4.307,16.535,2.531c2.699-9.741,17.842-6.096,21.852,0.328
	c10.338-15.525,11.413,1.11,5.962,11.016c0.111,0.109,2.72,2.133,3.281,2.485c6.75,0,7.441,1.254,12.094,5.906
	c2.945,2.946,4.282,7.255,7.077,10.031c5.079-0.922,8.002-4.862,13.657-3.128c10.833,3.322,20.581,16.239,24.545,26.33
	c2.391,5.261,15.653,9.979,7.546,18.727c5.904,0.094,5.878,5.505,10.267,5.505c3.744,0,8.022,0.991,11.472,2.322
	c9.021,3.479,17.287,16.715,27.904,12.211c10.397-3.451,18.279,11.605,27.094,14.25c15.994,4.764,17.541,20.156,12.704,33.657
	c50.062,0,100.124,0,150.186,0c23.26,0,46.52,0,69.779,0c7.836,0,3.584-14.608,3.584-20.756c0-25.469,6.876-49.837,22.219-70.416
	c-6.839-2.792-5.945-9.133-9.934-14.486c-3.961-5.316-13.485-6.856-19.41-4.265c-4.813,3.37-6.747,9.38-12.483,12.099
	c-7.211,3.418-15.797,0.51-23.329,0.51c-4.697,0-10.318-0.669-11.989,4.434c-2.68,8.185-9.491,4.221-13.852-0.023
	c-7.79-7.582-12.443-12.836-17.057-22.404c-2.414-5.007-4.129-12.679-7.734-16.896c-4.201-4.913-13.115-6.074-18.65-9.172
	c-6.265-3.473-7.962-8.479-6.892-15.188c0.642-4.363-7.146-15.146-1.359-16.969c9.617-12.823,9.155-24.366,4.665-38.716
	c-2.89-9.233,1.845-14.886,4.88-23.17c3.146-8.585,4.266-20.958,11.879-26.978c6.035-4.772,13.469-7.566,20.295-10.979
	c3.879-2.284,2.299-14.348,3.657-18.375c1.646-4.856,5.437-14.389,11.53-15.281c2.202-1.573,4.172-3.534,6.233-5.276
	c5.874-4.964,6.988-5.504,1.267-12.303c-1.822-2.743-9.424,1.522-12.65-2.285c-4.113-4.854-9.514-11.631-6.99-18.287
	c2.415-6.371,3.98-6.935,2.826-14.305c-0.878-5.607-1.519-13.759,2.97-18.13c8.012-7.804,29.177-0.852,39.44-0.852
	c6.609,0,6.554-10.772,6.094-15.75c-0.785-8.379-16.878-6.778-20.93-11.666c-6.337-7.643,19.783-13.213,24.058-14.191
	c7.261-1.663,15.34-0.193,15.34-9.019c0-6.961,14.006-7.336,18.055-11.583c6.423-6.735,11.994-11.925,22.07-9.979
	c-4.227-6.335-3.427-18.353,4.359-21.984c-10.258,0.684-20.229-4.91-21.053-16.09c-0.5-6.771-4.625-13.528-0.964-19.925
	c11.112-19.417,29.367-19.535,45.865-31.805c6.508-4.84,9.058-13.287,15.172-17.93c6.936-5.266,7.516-5.577,13.896-0.472
	c10.913,8.73,38.99,22.256,25.974,39.394c8.273-5.478,9.43-8.525,16.349-1.658c8.573,8.509,16.741,17.372,24.854,26.314
	c-7.258-0.434-14.078-7.664-19.357-3.81c-4.569,3.335-4.364,10.575-10.218,4.877c-4.45-4.333-6.729,9.135-10.702,3.175
	c-3.807-5.71-9.194-16.795-6.081-23.415c-5.99,4.723-15.788,2.42-19.594,10.032c7.072,4.42,15.73,5.803,8.438,16.382
	c-2.722,3.949-7.354,6.88-9.032,11.498c-2.54,6.992-1.016,1.355-6.952,4.277c-0.094-2.731-0.188-5.462-0.281-8.193
	c-7.165,3.416-13.37,9.09-20.494,12.805c-3.679,1.918-2.445,5.184-6.592,5.88c-2.413,0.405-6.797-18.443-7.459-21.686
	c-2.743,2.461-2.769,6.696-5.906,8.578c19.865-2.492,1.521,42.423,20.463,42.423c5.649,0,8.73-12.969,11.104-17.432
	c4.158-7.819,17.495-9.072,24.307-6.379c-2.172-0.817-7.818,0.298-3.023-4.385c4.185-4.087,5.675-8.819,9.316-13.334
	c5.659-7.015,14.678-6.468,22.959-6.468c-5.417,0-11.359-7.078-3.728-8.778c8.212-1.829,17.844-1.348,26.228-1.348
	c8.772-0.244,8.644-2.429,14.15,4.11c7.253,8.612,14.237,17.451,20.936,26.502c26.674,36.043,48.748,75.453,65.508,117.043
	c17.158,42.571,28.719,87.354,34.331,132.909c1.462,11.867,2.524,23.783,3.188,35.722c0.526,9.453-1.016,7.431-9.609,12.105
	c-5.616,3.055-10.637,6.878-16.145,10.087c-4.656,2.713-11.943,3.12-15.047,7.646c2.244,0,0.937,0.632,0.908,3.668
	c-0.036,3.851,10.05,0.58,11.637-0.047c9.186-3.628,18.342-7.899,27.486-11.684c-5.469,11.346,1.873,26.957-0.75,38.063
	c-5.703,10.692-9.821,26.055-18.854,34.218c-3.707,3.35-8.51,4.114-12.028,7.497c-5.41,5.202-9.87,11.52-14.306,17.535
	c-5.29,7.565-9.508,8.783-3.346,14.922c23.084,22.995,46.168,45.99,69.251,68.985c51.061-161.915,27.084-342.275-64.907-485
	C972.704,127.991,828.124,32.896,668.062,7.269C502.948-19.166,331.177,28.192,203.645,136.458
	C78.101,243.036,2.963,400.893,0.09,565.64c-2.885,165.418,66.811,326.193,189.301,437.319
	c123.557,112.093,292.95,165.179,458.447,144.621c54.544-6.775,107.742-21.5,158.036-43.58c-92.625,0-185.25,0-277.875,0
	c0-91.609,0-183.219,0-274.828c-4.115,2.453-8.235,4.898-12.168,7.64c-6.183,4.309-3.979,6.677-2.759,13.45
	c0.795,4.415-0.31,10.453-4.792,12.66c-4.931,2.428-4.478,6.188-8.236,10.218c-1.94,2.079-4.993,2.265-6.389,4.844
	c-3.098,5.723-2.215,11.46-6.547,16.852c-7.012,8.728-14.528,18.513-26.798,15.009c6.746,5.232-1.118,14.581-4.198,19.678
	c-4.028,6.664-6.182,8.11-13.801,9.104c-6.843,0.892-18.213-2.947-15.469,6.656c3.251,12.464-10.088,6.694-16.126,4.969
	c1.465,7.326,14.721,1.798,7.04,13.751c-2.52,3.92-6.342,6.49-8.913,10.343c-2.398,3.73-10.538,9.184-11.156,13.36
	c30.12,5.021-11.192,25.018-10.357,37.826c0.384,5.894,7.173,13.325,12.514,15.423c4.212,1.708,9.434,0.298,13.441,2.446
	c5.385,2.887-0.737,6.973-3.533,7.857c-6.889,2.18-15.025,4.459-22.161,5.501c-2.86,0.417-19.903-2.455-19.903-7.038
	c-4.565-0.652-15.678-11.792-16.535-16.365c-0.661-3.52,1.471-6.65-2.073-8.76c-6.5-3.89-4.887-7.167-1.359-12.141
	c-13.307-3.327,1.239-15.499-2.391-20.953c-6.046-10.37,3.666-16.606,7.81-25.512c1.979-4.254,1.037-5.961-0.014-10.412
	c-1.559-6.605-0.262-11.027,1.777-17.249c2.056-6.271-0.421-4.815-2.249-9.701c-2.19-5.855,2.151-6.634,3.657-10.719
	c-0.126-1.89-0.158-3.781-0.097-5.677c0.644-3.727,2.962-6.409,4.349-9.792c1.832-4.575,5.672-11.364,5.497-16.183
	c-0.155-4.243-2.638-8.235-2.638-12.41c0.261-1.884,1.183-3.352,2.766-4.405c3.057-2.44-0.481-2.809,0-6.095
	c1.109-7.763,8.667-4.389,6.845-14.062c-0.969-5.815,3.019-13.243,4.072-18.985c1.62-8.836,6.896-19.06,6.896-27.984
	c0-19.266-26.561-26.346-39.592-34.091c-10.251-6.093-10.622-18.841-14.607-29.196c-3.899-10.13-6.261-28.381-15.316-34.775
	c-13.425-9.34-4.422-16.169-4.432-28.442c-0.008-11.072-3.185-17.342,3.968-27.319c2.665-3.718,6.963-6.562,10.444-9.481
	c5.237-4.392,4.205-7.38,6.19-14.164c1.742-5.421-3.151-26.062-9.984-26.062c-1.638,15.83-19.778,7.038-25.828-0.188
	c-5.222-5.996-11.882-8.094-17.273-13.267c-5.384-5.166-0.807-14.777-7.663-18.843c0.061,0.03-2.7,15.982-7.379,5.73
	c-3.481-7.626-14.742-10.129-20.298-15.382c-2.786-2.634-8.679-12.895-12.871-12.895c-4.315,0-4.546,4.804-7.905,6.644
	c-6.19,3.392-7.483-4.671-11.453-6.083c-5.515,0-12.104,3.985-17.161,0.342c-6.247-4.5-4.047-12.067-7.817-17.349
	c-3.057-4.283-10.605-4.532-15.142-5.934c-5.708-1.764-9.119-8.587-10-14.127c-1.063-6.683,0.325-9.947-4.86-16.042
	c-2.699-3.173-6.28-4.413-8.73-7.506c-7.927-10.008-14.25-20.36-22.635-30.089c2.663,4.258,7.028,6.946,8.912,11.776
	c1.619,4.151,0.763,8.208,4.4,11.238c3.655,3.113,8.93,7.163,9.188,12.47c0.264,5.25-5.488,9.027-10.087,6.206
	c-3.687-2.262-15.088-11.157-14.476-15.769c0.5-2.49-5.904-8.058-7.219-10.031c-2.836-4.41-9.594,2.069-11.859-3.752
	c-1.627-3.418,1.19-7.707,3.114-10.325c2.636-3.588-2.187-4.213-4.634-6.342c-2.833-2.465-4.257-6.789-5.631-10.126
	c-2.69-6.535-4.55-2.755-5.833-5.362c-3.678-7.696-8.463,1.999-9.195-4.817c-0.801-7.465-7.824-8.231-9.649-14.495
	c-1.792-6.152,6.991-21.289,9.19-27.064c5.277-13.857,11.128-27.496,17.537-40.866c12.123-25.292,26.243-49.63,42.241-72.669
	c15.809-22.766,33.391-44.318,52.51-64.384c18.901-19.838,40.045-36.399,60.399-54.562c1.602,1.945,2.854,4.073,3.984,6.328
	c2.179-1.447,4.149-3.396,6.844-3.844c-2.651-1.283-5.147-3.311-7.406-5.203c9.431-7.287,19.327-13.962,29.203-20.625
	c-0.541,2.983-1.094,5.963-1.594,8.953c6.507-2.181-1.04-4.893,3.14-9.938c2.523-3.046,12.254-2.725,15.609-2.907
	c-3.46,0-6.95-0.341-10.406-0.516c7.277-4.415,19.406-17.385,27.537-9.686c3.553,3.364-2.604,13.871-5.273,16.288
	c-2.818,2.552-4.706,0.955-5.728,4.952c-0.409,1.602-0.559,5.275-2.755,5.275c3.882,0,6.416-4.25,9.121-6.542
	c3.601-3.049,12.977-7.919,17.66-7.239c13.962,2.026,26.637,11.936,40.767,14.819c6.343,1.294,12.893,2.029,19.17,3.603
	c5.297,1.656,3.645,16.969,7.173,16.969c7.992,0,13.859-1.029,19.548,7.078c4.432,4.12,14.269,4.052,20.109,4.969
	c-3.611,5.5-6.769,11.538-12.655,14.86c-13.007,7.433-14.825-2.914-26.906-4.453c4.264,8.512,15.773,7.147,16.265,19.593
	c0,13.794-6.217,3-13.358,3c-2.247,0-0.831,5.056-1.641,5.25c-2.607,0.624-7.188-0.622-9.77-0.755
	c-5.821-0.301-6.222-2.129-10.293-5.713c-1.052-0.9-6.174,2.091-10.078-1.358c-5.68-5.018-13.665-6.656-21.235-7.359
	c-5.407-0.569-20.027,4.348-22.687,0.048c-5.509-8.917,0.093-19.142,5.718-17.767V183.125z M358.734,99.469
	c3.014-8.253,21.18,0.13,25.465-11.293c2.285-6.09,7.347-7.082,13.113-7.082c3.627,0,1.354-5.693,3.609-6.539
	c37.445-14.042,77.881-22.2,117.555-26.475c41.486-4.47,83.533-4.102,124.929,1.139c6.356,4.182,8.174,18.684,18.796,8.372
	c9.109-8.843,23.064-1.464,34.877,1.238c-5.238,8.451-14.208,11.166-21.176,17.883c-3.768,3.632-7.295,7.504-10.834,11.355
	c0.006-0.006-8.154,10.536-4.086,9.205c3.121-1.021,6.655,1.182,7.268,6.135c0.734,4.039-3.927,7.008-5.093,10.406
	c-1.569,4.572-1.316,9.941-1.096,14.672c0.178,3.083-10.072,11.642-12.702,10.64c-0.315-0.123-4.812,4.897-9.703-1.687
	c-0.397,0.701,8.686,19.702,4.302,17.854c-0.871-0.367-6.18-3.599-6.345-4.02c-0.807-2.044-0.598-7.272-3.348-7.272
	c3.648,0-2.144,15.983-4.541,17.426c-9.416,5.668-22.015,12.385-33.192,12.385c-4.044,0-9.835,12.437-10.851,15.772
	c-0.949,3.113-10.15,2.185-9.82,1.618c-1.745,2.84-12.009-1.438-14.25-1.688c-5.676-0.554-6.486-0.529-11.645,2.431
	c-3.71,2.129-9.043,0.994-7.808,5.913c1.398,5.142,0.501,11.735-6.095,11.735c-7.765,0-7.725,2.59-7.417,10.314
	c0.465,11.662-15.638,15.491-18.927,3.498c-8.012,4.56-9.044,1.542-14.547-3.461c-5.555-5.05-12.547-7.622-16.078-14.543
	c-1.135-2.225-3.98-6.378-2.938-9.089c-4.656-1.862-6.63-4.16-8.537-8.542c-3.022-6.947-6.411-14.029,0.004-20.428
	c-6.795-1.298-10.745-23.343-9.095-23.343c-0.17,0.399-3.021,3.982-3.094,3.891c-6.106-8.227,1.254-21.362-10.912-25.53
	c-7.292-2.498-8.588-11.217-13.815-16.839c-4.723-5.08-15.025-15.095-18.069-4.797c-1.134,3.837-12.904,16.661-17.203,10.935
	c-2.373,5.637-9.462,10.801-14.789,4.776c-2.268-2.565-5.169-13.921-8.038-14.619c-2.783-0.721-1.406-8.656-5.934-4.971
	C364.39,98.703,358.815,99.263,358.734,99.469C359.812,96.516,358.312,100.547,358.734,99.469z"/>
<path d="M1059.281,557.109c-2.539-9.733-2.912-19.83-6.716-29.248c-2.972-7.359-9.923-11.311-14.096-17.689
	c-4.108-6.279-6.994-15.584-7.596-23.047c-0.175-2.805-4.512-3.967-5.87-6.326c-0.664-1.153-5.827-16.862-6.427-16.168
	c-3.1,3.587-2.124,4.446-7.352,4.446c-0.064,0,0.978,2.829,0.71,2.111c3.168,6.683,7.99,12.949,11.25,19.827
	c4.027,8.29-1.854,21.771,3.375,28.688c6.268,8.429,14.321,11.694,19.46,21.559C1049.463,547.868,1055.24,551.177,1059.281,557.109z
	"/>
<path d="M889.688,345.375c4.41,8.658,17.626,13.537,25.031,19.594c-1.453-5.811-10.697-12.104-15.317-15.857
	c-4.999-4.06-13.099-14.753-19.605-15.877C878.691,336.56,888.138,342.275,889.688,345.375
	C892.219,350.344,888.094,342.188,889.688,345.375z"/>
<path d="M797.578,389.766c-6.883,7.964-21.241,4.24-24.891,11.578c4.14,0.092,7.852-17.343,9.655-17.343
	c2.39,0,2.486,8.096,5.906,6.562c4.078-1.704,10.262-1.51,14.84-2.824c12.434-3.567,20.604-2.215,33.153-2.244
	c7.92-0.019,18.69-2.794,26.228-1.488c6.69,1.159,11.588,6.088,13.576,12.462c3.89,12.698-2.484,9.965-9.983,14.063
	c2.631,7.041,18.12,10.342,24.135,12.851c9.295,3.879,17.617,9.778,26.86,14.067c6.644,3.083,9.001-7.757,11.326-12.049
	c4.189-7.733,8.929-7.062,15.961-3.618c6.161,3.036,10.923,3.143,17.702,3.028c3.865-0.065,17.283-1.189,16.518,6.018
	c4.117-1.521,11.118-4.27,15.433-2.316c2.235,1.012,3.309,4.412,5.596,3.985c-0.776,0.145,3.98-0.373,2.972-0.872
	c7.902-2.199,11.705-20.242,12.465-27.549c0.2-1.934,0.322-20.075-3.417-20.075c-4.815-1.646-12.362,14.474-14.016,13.921
	c1.8,0.301-7.001-12.643-7.615-13.176c-3.847-3.338-3.117,8.442-6.589,8.442c-8.757,0-15.954-0.233-23.804-5.795
	c-5.325-3.773-0.852-15.577-3.243-21.063c-3.595,1.196-6.573,5.367-10.126,7.125c7.945,6.017,9.205,14.192,0.47,20.015
	c-3.495,2.136-16.093,17.969-20.344,9.75c-3.339-6.511-2.203-15.807-3.503-22.905c-0.691-3.778-4.152-7.172-5.966-10.47
	c-1.076-0.446-7.608,2.402-8.953,2.438c0.573,3.895,6.542,18.657-1.641,18.657c-9.616,0-9.151-15.698-14.531-20.719
	c-5.224-4.135-12.903-4.49-18.316-8.406c-3.371-2.439-6.594-5.307-9.081-8.66c-2.102-2.833-2.209-7.571-6.087-8.554
	c-6.571-1.667-11.023,8.183-17.983,8.183c-4.725,0-8.98-2.797-13.547-3.656c-3.058,3.595-1.214,9.689-4.551,13.278
	c-2.509,2.699-6.018,1.967-9.189,2.858c-3.125,0.878-6.757,5.901-8.761,8.537c-1.875,2.464,2.122,4.454,1.596,7.389
	C805.104,384.646,799.829,387.204,797.578,389.766C795.188,392.532,798.938,388.219,797.578,389.766z"/>
<path d="M273.75,167.812c2.74-5.076,8.682-2.476,9.423-8.578c-5.024-0.9-9.825-0.095-14.812-0.515
	C271.555,160.972,273.911,163.631,273.75,167.812z"/>
<path d="M390.562,307.688c7.967-2.236,16.837-11.049,23.952-1.688c-0.336-2.053,1.272-2.478-1.898-4.569
	c-0.943-0.622-7.588-4.864-8.46-3.117c-6.396,7.421-17.159,0.603-20.906,11.626C385.662,309.106,388.1,308.355,390.562,307.688
	C393.234,306.938,389.719,307.922,390.562,307.688z"/>
<path d="M1152,911.25l-223.031,223.781c-9.281,9.375-16.969,6.188-16.969-7.031v-120.375H624V816h288V696
	c0-13.219,7.688-16.312,16.969-7.031L1152,911.25z"/>
</svg>
