<?xml version="1.0" encoding="utf-8"?>
<!-- Generator: Adobe Illustrator 16.0.4, SVG Export Plug-In . SVG Version: 6.00 Build 0)  -->
<!DOCTYPE svg PUBLIC "-//W3C//DTD SVG 1.1//EN" "http://www.w3.org/Graphics/SVG/1.1/DTD/svg11.dtd">
<svg version="1.1" id="Layer_1" xmlns="http://www.w3.org/2000/svg" xmlns:xlink="http://www.w3.org/1999/xlink" x="0px" y="0px"
	 width="1152px" height="1152px" viewBox="0 0 1152 1152" enable-background="new 0 0 1152 1152" xml:space="preserve">
<path d="M613.406,918.188C588.469,951.75,546.609,1008,528,1008c-41.344,0-68.016-21.422-111.562-59.344
	C373.031,910.969,319.031,864,240,864c-67.5,0-156.984,78.328-240,144v144c77.906-68.297,183.656-192,240-192c96,0,144,144,288,144
	s192-288,384-288c96,0,180,24,240,48V761.719C1086.938,739.219,1004.344,720,912,720C760.875,720,675.656,834.562,613.406,918.188z"
	/>
<path d="M912,96c-96,96-192,0-288,0S480,480,432,528s-48-96-144-96C227.953,432,92.812,582.188,0,694.734v153.562
	c109.875-143.203,232.969-277.5,287.344-314.109c3.938,5.766,8.156,12.844,11.156,17.953
	c17.016,28.547,48.656,81.656,115.453,81.656c21.891,0,54.609-6.609,85.922-37.922c34.453-34.406,50.719-89.438,81.328-200.625
	c14.672-53.25,43.125-156.516,66.609-199.688c12.656,3.094,27,7.875,41.812,12.844c36.938,12.281,78.797,26.25,126.375,26.25
	c61.781,0,116.906-23.812,163.875-70.781C1010.859,132.891,1082.812,105.75,1152,96V0C1074.094,9.609,968.344,39.656,912,96z"/>
<g>
	<path d="M327.469,701.344l-13.359,46.078c21.703,6.328,36.141,20.766,52.922,37.547c15.938,15.938,33.984,34.031,59.906,44.906
		l18.609-44.25c-17.203-7.219-30.516-20.531-44.578-34.594C382.219,732.281,361.031,711.094,327.469,701.344z"/>
	<path d="M132.047,767.438l28.172,38.859c61.641-44.719,97.688-58.031,117.094-61.312l-7.969-47.344
		C233.719,703.688,187.547,727.172,132.047,767.438z"/>
	<path d="M481.453,791.953l3.141,47.906c38.766-2.578,77.625-35.766,122.344-104.484l-40.219-26.156
		C521.062,779.344,493.688,791.156,481.453,791.953z"/>
	<path d="M0,878.625V912l16.969,16.969c0.469-0.469,47.789-47.625,105.961-94.219l-30-37.406
		C53.18,829.125,19.289,860.297,0,878.625z"/>
	<path d="M650.25,555.984c-17.625,35.344-37.594,75.422-59.25,113.297l41.625,23.859c22.406-39.047,42.703-79.828,60.609-115.734
		L650.25,555.984z"/>
	<path d="M703.031,485.906c-6.422,6.469-13.5,17.25-23.719,36l42.188,22.875c10.406-19.219,14.484-23.906,15.469-24.938
		c4.922-4.875,23.344-17.391,87.516-26.906l-7.031-47.531C758.25,454.219,721.875,467.062,703.031,485.906z"/>
	<path d="M1060.234,432.328l0.555,47.836c32.25-0.328,63.086-0.164,90.367-0.164c0.047,0-0.156,0-0.156,0v-48
		C1124,432,1092.719,432,1060.234,432.328z"/>
	<path d="M866.438,439.594l4.5,47.812c39.375-3.75,85.875-6.188,142.219-7.406l-1.078-48
		C954.562,433.266,906.938,435.75,866.438,439.594z"/>
</g>
</svg>
