<?xml version="1.0" encoding="utf-8"?>
<!-- Generator: Adobe Illustrator 16.0.4, SVG Export Plug-In . SVG Version: 6.00 Build 0)  -->
<!DOCTYPE svg PUBLIC "-//W3C//DTD SVG 1.1//EN" "http://www.w3.org/Graphics/SVG/1.1/DTD/svg11.dtd">
<svg version="1.1" id="Layer_1" xmlns="http://www.w3.org/2000/svg" xmlns:xlink="http://www.w3.org/1999/xlink" x="0px" y="0px"
	 width="1152px" height="1152px" viewBox="0 0 1152 1152" enable-background="new 0 0 1152 1152" xml:space="preserve">
<path d="M1152,336V48H864v96H288V48H0v288h96v432H0v288h288v-96h576v96h288V768h-96V336H1152z M960,144h96v96h-96V144z M96,144h96
	v96H96V144z M192,960H96v-96h96V960z M1056,960h-96v-96h96V960z M960,768h-96v96H288v-96h-96V336h96v-96h576v96h96V768z"/>
</svg>
