<?xml version="1.0" encoding="utf-8"?>
<!-- Generator: Adobe Illustrator 16.0.1, SVG Export Plug-In . SVG Version: 6.00 Build 0)  -->
<!DOCTYPE svg PUBLIC "-//W3C//DTD SVG 1.1//EN" "http://www.w3.org/Graphics/SVG/1.1/DTD/svg11.dtd">
<svg version="1.1" id="Layer_1" xmlns="http://www.w3.org/2000/svg" xmlns:xlink="http://www.w3.org/1999/xlink" x="0px" y="0px"
	 width="1152px" height="1152px" viewBox="0 0 1152 1152" enable-background="new 0 0 1152 1152" xml:space="preserve">
<path fill="none" d="M816,792c0-39.765-32.235-72-72-72s-72,32.235-72,72c0,30.705,19.229,56.904,46.293,67.256L684,1008h120
	l-34.293-148.744C796.771,848.904,816,822.705,816,792z"/>
<path d="M1104,576h-48H624V312C624,139.687,484.312,0,312,0C139.688,0,0,139.687,0,312v120h144V312c0-92.784,75.217-168,168-168
	c92.784,0,168,75.216,168,168v264c-37.032,0-75.376,0-96,0c-48,0-48,48-48,48v480c0,0,0,48,48,48h720c48,0,48-48,48-48V624
	C1152,624,1152,576,1104,576z M816,1008h-12H684h-12l22.764-147.964C673.706,844.774,660,819.995,660,792c0-46.392,37.608-84,84-84
	s84,37.608,84,84c0,27.995-13.706,52.774-34.764,68.036L816,1008z"/>
</svg>
