<?xml version="1.0" encoding="utf-8"?>
<!-- Generator: Adobe Illustrator 16.0.1, SVG Export Plug-In . SVG Version: 6.00 Build 0)  -->
<!DOCTYPE svg PUBLIC "-//W3C//DTD SVG 1.1//EN" "http://www.w3.org/Graphics/SVG/1.1/DTD/svg11.dtd">
<svg version="1.1" id="Layer_1" xmlns="http://www.w3.org/2000/svg" xmlns:xlink="http://www.w3.org/1999/xlink" x="0px" y="0px"
	 width="1152px" height="1152px" viewBox="0 0 1152 1152" enable-background="new 0 0 1152 1152" xml:space="preserve">
<path d="M864,576c-159.047,0-288,128.953-288,288s128.953,288,288,288s288-128.953,288-288S1023.047,576,864,576z M1056,912H912v144
	h-96V912H672v-96h144V672h96v144h144V912z"/>
<path d="M912,0H144C64.8,0,0,64.8,0,144v576c0,79.2,64.8,144,144,144h192l192,192l2.149-2.149
	c-7.395-13-14.053-26.457-19.931-40.354C490.167,966.094,480,915.795,480,864s10.167-102.094,30.219-149.497
	c6.203-14.663,13.272-28.839,21.162-42.503H192v-96h418.037c31.09-27.471,66.126-49.563,104.466-65.781
	c32.613-13.796,66.598-22.912,101.497-27.258V480H192v-96h672v96c51.795,0,102.094,10.167,149.497,30.219
	c14.663,6.203,28.839,13.272,42.503,21.162V144C1056,64.8,991.2,0,912,0z M864,288H192v-96h672V288z"/>
</svg>
