<?xml version="1.0" encoding="utf-8"?>
<!-- Generator: Adobe Illustrator 16.0.0, SVG Export Plug-In . SVG Version: 6.00 Build 0)  -->
<!DOCTYPE svg PUBLIC "-//W3C//DTD SVG 1.1//EN" "http://www.w3.org/Graphics/SVG/1.1/DTD/svg11.dtd">
<svg version="1.1" id="Layer_1" xmlns="http://www.w3.org/2000/svg" xmlns:xlink="http://www.w3.org/1999/xlink" x="0px" y="0px"
	 width="1152px" height="1152px" viewBox="0 0 1152 1152" enable-background="new 0 0 1152 1152" xml:space="preserve">
<path d="M816,0C768,0,96,0,48,0S0,48,0,48v672h96V192h768V48C864,48,864,0,816,0z M480,120c0,13.2-10.8,24-24,24h-48
	c-13.2,0-24-10.8-24-24V72c0-13.2,10.8-24,24-24h48c13.2,0,24,10.8,24,24V120z M623.999,120c0,13.2-10.8,24-24,24h-48
	c-13.2,0-24-10.8-24-24V72c0-13.2,10.8-24,24-24h48c13.2,0,24,10.8,24,24V120z M767.998,120c0,13.2-10.8,24-24,24h-48
	c-13.2,0-24-10.8-24-24V72c0-13.2,10.8-24,24-24h48c13.2,0,24,10.8,24,24V120z"/>
<path d="M482.96,912H288V480h672v12.1c18.18,4.689,36.037,10.729,53.5,18.116c14.662,6.202,28.837,13.271,42.5,21.159V336
	c0,0,0-48-48-48s-720,0-768,0s-48,48-48,48v672h315.946C495.42,977.07,487.062,944.943,482.96,912z M863.999,360
	c0-13.2,10.8-24,24-24h48c13.2,0,24,10.8,24,24v48c0,13.2-10.8,24-24,24h-48c-13.2,0-24-10.8-24-24V360z M720,360
	c0-13.2,10.8-24,24-24h48c13.2,0,24,10.8,24,24v48c0,13.2-10.8,24-24,24h-48c-13.2,0-24-10.8-24-24V360z M576.001,360
	c0-13.2,10.8-24,24-24h48c13.2,0,24,10.8,24,24v48c0,13.2-10.8,24-24,24h-48c-13.2,0-24-10.8-24-24V360z"/>
<path d="M864,576c-159.058,0-288,128.941-288,288c0,159.058,128.942,288,288,288c159.059,0,288-128.942,288-288
	C1152,704.941,1023.059,576,864,576z M864,672c34.529,0,66.927,9.121,94.924,25.076L697.077,958.923
	C681.121,930.926,672,898.529,672,864C672,757.961,757.962,672,864,672z M864,1056c-34.529,0-66.926-9.121-94.923-25.077
	l261.847-261.847C1046.879,797.073,1056,829.471,1056,864C1056,970.038,970.039,1056,864,1056z"/>
</svg>
