<?xml version="1.0" encoding="utf-8"?>
<!-- Generator: Adobe Illustrator 16.0.1, SVG Export Plug-In . SVG Version: 6.00 Build 0)  -->
<!DOCTYPE svg PUBLIC "-//W3C//DTD SVG 1.1//EN" "http://www.w3.org/Graphics/SVG/1.1/DTD/svg11.dtd">
<svg version="1.1" id="Layer_1" xmlns="http://www.w3.org/2000/svg" xmlns:xlink="http://www.w3.org/1999/xlink" x="0px" y="0px"
	 width="1152px" height="1152px" viewBox="0 0 1152 1152" enable-background="new 0 0 1152 1152" xml:space="preserve">
<path d="M912,192v192c0,0,0,48-48,48s-528,0-576,0s-48-48-48-48V192c0,0,0,0-48,0s-48,48-48,48s0,816,0,864s48,48,48,48h768
	c0,0,48,0,48-48s0-864,0-864s0-48-48-48S912,192,912,192z"/>
<path d="M711.795,192c5.308-15.015,8.205-31.168,8.205-48C720,64.471,655.529,0,576,0S432,64.471,432,144
	c0,16.832,2.898,32.985,8.206,48H336v144h480V192H711.795z M504,144c0-39.701,32.299-72,72-72c39.702,0,72,32.299,72,72
	s-32.298,72-72,72C536.299,216,504,183.701,504,144z"/>
</svg>
