<?xml version="1.0" encoding="utf-8"?>
<!-- Generator: Adobe Illustrator 16.0.0, SVG Export Plug-In . SVG Version: 6.00 Build 0)  -->
<!DOCTYPE svg PUBLIC "-//W3C//DTD SVG 1.1//EN" "http://www.w3.org/Graphics/SVG/1.1/DTD/svg11.dtd">
<svg version="1.1" id="Layer_1" xmlns="http://www.w3.org/2000/svg" xmlns:xlink="http://www.w3.org/1999/xlink" x="0px" y="0px"
	 width="1152px" height="1152px" viewBox="0 0 1152 1152" enable-background="new 0 0 1152 1152" xml:space="preserve">
<path d="M576,144c21.951,0,43.518,1.643,64.588,4.802L677.984,9C644.883,3.086,610.802,0,576,0s-68.883,3.086-101.984,9
	l37.397,139.801C532.483,145.643,554.049,144,576,144z"/>
<path d="M845.645,238.473l102.3-102.299c-51.977-43.998-111.856-78.94-177.207-102.413l-37.396,139.792
	C774.165,189.526,811.964,211.532,845.645,238.473z"/>
<path d="M978.939,419.931l139.914-36.953c-23.477-66.018-58.646-126.492-103.028-178.921L913.526,306.355
	C940.747,340.384,962.927,378.62,978.939,419.931z"/>
<path d="M1143.309,475.811l-139.912,36.953c3.027,20.643,4.604,41.754,4.604,63.236c0,21.833-1.626,43.285-4.752,64.247
	l139.829,37.285c5.862-32.96,8.923-66.891,8.923-101.532C1152,541.826,1149.016,508.35,1143.309,475.811z"/>
<path d="M978.57,733.021C915.745,893.971,759.191,1008,576,1008c-238.587,0-432-193.413-432-432
	c0-183.07,113.878-339.539,274.658-402.446L381.264,33.762C158.98,113.603,0,326.231,0,576c0,318.116,257.884,576,576,576
	c249.931,0,462.672-159.186,542.393-381.695L978.57,733.021z"/>
<path d="M840,528H659.154c-8.433-14.573-20.581-26.724-35.154-35.154V216c0-13.2-10.8-24-24-24h-48c-13.2,0-24,10.8-24,24v276.846
	c-28.694,16.601-48,47.621-48,83.154c0,53.02,42.98,96,96,96c35.533,0,66.555-19.307,83.154-48H840c13.2,0,24-10.8,24-24v-48
	C864,538.8,853.2,528,840,528z"/>
</svg>
