<?xml version="1.0" encoding="utf-8"?>
<!-- Generator: Adobe Illustrator 16.0.0, SVG Export Plug-In . SVG Version: 6.00 Build 0)  -->
<!DOCTYPE svg PUBLIC "-//W3C//DTD SVG 1.1//EN" "http://www.w3.org/Graphics/SVG/1.1/DTD/svg11.dtd">
<svg version="1.1" id="Layer_1" xmlns="http://www.w3.org/2000/svg" xmlns:xlink="http://www.w3.org/1999/xlink" x="0px" y="0px"
	 width="1152px" height="1152px" viewBox="0 0 1152 1152" enable-background="new 0 0 1152 1152" xml:space="preserve">
<path d="M312.643,844.407c-17.963-17.963-35.156-36.319-51.454-54.894C261.189,789.514,24,1092,12,1104s-12,48-12,48s36,0,48-12
	s314.132-248.905,314.132-248.905C345.39,876.209,328.852,860.617,312.643,844.407z"/>
<path d="M1011.822,140.178C900.154,28.51,775.684-28.067,733.808,13.808c-30.399,30.399-8.901,104.33,47.881,185.29L419.814,448.18
	c-94.616-60.863-176.62-82.21-211.232-47.598c-52.991,52.991,25.159,217.058,175.517,367.416
	c150.358,150.36,314.318,228.399,367.308,175.408c34.595-34.595,13.332-116.487-47.428-211.011l248.93-362.081
	c80.957,56.779,154.886,78.276,185.283,47.878C1180.068,376.316,1123.49,251.846,1011.822,140.178z"/>
</svg>
