<?xml version="1.0" encoding="utf-8"?>
<!-- Generator: Adobe Illustrator 16.0.4, SVG Export Plug-In . SVG Version: 6.00 Build 0)  -->
<!DOCTYPE svg PUBLIC "-//W3C//DTD SVG 1.1//EN" "http://www.w3.org/Graphics/SVG/1.1/DTD/svg11.dtd">
<svg version="1.1" id="Layer_1" xmlns="http://www.w3.org/2000/svg" xmlns:xlink="http://www.w3.org/1999/xlink" x="0px" y="0px"
	 width="1152px" height="1152px" viewBox="0 0 1152 1152" enable-background="new 0 0 1152 1152" xml:space="preserve">
<path d="M192,192C85.969,192,0,277.969,0,384s85.969,192,192,192h96V192H192z"/>
<path d="M384,192v384c480,0,720,192,720,192h48V0h-48C1104,0,864,192,384,192z"/>
<path d="M144,672c0,0,96,96,96,144c0,144,72,336,72,336h192c0,0-72-192-72-336c0-48,96-144,96-144H144z"/>
</svg>
