<?xml version="1.0" encoding="utf-8"?>
<!-- Generator: Adobe Illustrator 16.0.4, SVG Export Plug-In . SVG Version: 6.00 Build 0)  -->
<!DOCTYPE svg PUBLIC "-//W3C//DTD SVG 1.1//EN" "http://www.w3.org/Graphics/SVG/1.1/DTD/svg11.dtd">
<svg version="1.1" id="Layer_1" xmlns="http://www.w3.org/2000/svg" xmlns:xlink="http://www.w3.org/1999/xlink" x="0px" y="0px"
	 width="1152px" height="1152px" viewBox="0 0 1152 1152" enable-background="new 0 0 1152 1152" xml:space="preserve">
<path d="M831.656,484.875L1152,48L0,288l240,192l576-240L384,576v240l133.312-133.312l35.062,28.031
	C597.938,592.922,703.547,505.125,831.656,484.875z"/>
<path d="M1080,840c0,10.688-1.5,21-3.141,31.219l67.688,30.047c4.734-19.688,7.453-40.125,7.453-61.266s-2.719-41.578-7.453-61.266
	l-67.688,30.047C1078.5,819,1080,829.312,1080,840z"/>
<path d="M1051.781,741.141l66.75-29.672c-23.906-42.703-59.25-78.094-102-102l-29.625,66.703
	C1013.531,692.297,1035.703,714.516,1051.781,741.141z"/>
<path d="M1051.781,938.859C1018.172,994.453,957.75,1032,888,1032c-106.031,0-192-85.969-192-192
	c0-69.703,37.547-130.172,93.141-163.828l-29.672-66.656C678.703,654.656,624,740.906,624,840c0,145.781,118.219,264,264,264
	c99.141,0,185.391-54.703,230.531-135.469L1051.781,938.859z"/>
<path d="M856.781,651.141C867,649.453,877.312,648,888,648s21,1.453,31.219,3.141l30.094-67.688
	C929.578,578.766,909.141,576,888,576s-41.578,2.766-61.312,7.453L856.781,651.141z"/>
<polygon points="912,816 912,720 864,720 864,864 1008,864 1008,816 "/>
</svg>
