<?xml version="1.0" encoding="utf-8"?>
<!-- Generator: Adobe Illustrator 16.0.4, SVG Export Plug-In . SVG Version: 6.00 Build 0)  -->
<!DOCTYPE svg PUBLIC "-//W3C//DTD SVG 1.1//EN" "http://www.w3.org/Graphics/SVG/1.1/DTD/svg11.dtd">
<svg version="1.1" id="Layer_1" xmlns="http://www.w3.org/2000/svg" xmlns:xlink="http://www.w3.org/1999/xlink" x="0px" y="0px"
	 width="1152px" height="1152px" viewBox="0 0 1152 1152" enable-background="new 0 0 1152 1152" xml:space="preserve">
<path d="M831.656,484.875L1152,48L0,288l240,192l576-240L384,576v240l133.312-133.312l35.062,28.031
	C597.938,592.922,703.547,505.125,831.656,484.875z"/>
<path d="M888,576c-145.781,0-264,118.219-264,264s118.219,264,264,264c145.828,0,264-118.219,264-264S1033.828,576,888,576z
	 M888,1032c-106.031,0-192-85.969-192-192s85.969-192,192-192s192,85.969,192,192S994.031,1032,888,1032z"/>
<path d="M900,696h-24c-6.562,0-12,5.391-12,12v122.062l-69.328,69.328c-4.641,4.641-4.641,12.328,0,16.969l16.969,16.969
	c4.688,4.688,12.328,4.688,16.969,0L912,849.938V708C912,701.391,906.609,696,900,696z"/>
</svg>
