<?xml version="1.0" encoding="utf-8"?>
<!-- Generator: Adobe Illustrator 16.0.4, SVG Export Plug-In . SVG Version: 6.00 Build 0)  -->
<!DOCTYPE svg PUBLIC "-//W3C//DTD SVG 1.1//EN" "http://www.w3.org/Graphics/SVG/1.1/DTD/svg11.dtd">
<svg version="1.1" id="Layer_1" xmlns="http://www.w3.org/2000/svg" xmlns:xlink="http://www.w3.org/1999/xlink" x="0px" y="0px"
	 width="1152px" height="1152px" viewBox="0 0 1152 1152" enable-background="new 0 0 1152 1152" xml:space="preserve">
<path d="M996,432c-84,0-108,60-142.359,104.719C814.078,366.75,624,192,432,192C219.938,192,96,411.938,96,624v48
	c0,13.219,2.719,25.875,7.594,37.312C72,768,0,800.6,0,812.6s96-8.6,148.453-55.568C161.578,763.781,176.25,768,192,768v144
	c0,26.391,21.609,48,48,48h48c26.391,0,48-24,48-48c0-12-12-36-12-48h60c26.391,0,48-21.609,48-48v-1.734
	c15.891,1.078,31.922,1.734,48,1.734c50.062,0,99.984-5.812,144-13.406V912c0,26.391,21.609,48,48,48h48c26.391,0,48-24,48-48
	c0-12-12-36-12-48h60c26.391,0,48-24,48-48c0-12-12-36-12-60c0-36,12-67.781,12-67.781C908.672,702.188,949.406,720,1008,720
	c48,0,144-12,144-108S1056,432,996,432z"/>
</svg>
