<?xml version="1.0" encoding="utf-8"?>
<!-- Generator: Adobe Illustrator 16.0.0, SVG Export Plug-In . SVG Version: 6.00 Build 0)  -->
<!DOCTYPE svg PUBLIC "-//W3C//DTD SVG 1.1//EN" "http://www.w3.org/Graphics/SVG/1.1/DTD/svg11.dtd">
<svg version="1.1" id="Layer_1" xmlns="http://www.w3.org/2000/svg" xmlns:xlink="http://www.w3.org/1999/xlink" x="0px" y="0px"
	 width="1152px" height="1152px" viewBox="0 0 1152 1152" enable-background="new 0 0 1152 1152" xml:space="preserve">
<polygon points="1152,936 1152,552 900,741 "/>
<polygon points="0,936 0,552 252,741 "/>
<polygon points="816,804 576,984 336,804 0,1068 0,1152 1152,1152 1152,1068 "/>
<polygon points="192,336 960,336 960,576 1152,432 576,0 0,432 192,576 "/>
<rect x="336" y="480" width="480" height="96"/>
<polygon points="336,672 336,684 447,768 705,768 816,684 816,672 "/>
</svg>
