<?xml version="1.0" encoding="utf-8"?>
<!-- Generator: Adobe Illustrator 16.0.1, SVG Export Plug-In . SVG Version: 6.00 Build 0)  -->
<!DOCTYPE svg PUBLIC "-//W3C//DTD SVG 1.1//EN" "http://www.w3.org/Graphics/SVG/1.1/DTD/svg11.dtd">
<svg version="1.1" id="Layer_1" xmlns="http://www.w3.org/2000/svg" xmlns:xlink="http://www.w3.org/1999/xlink" x="0px" y="0px"
	 width="1152px" height="1152px" viewBox="0 0 1152 1152" enable-background="new 0 0 1152 1152" xml:space="preserve">
<path d="M576,0C390.833,0,226.081,87.38,120.708,223.148L357.06,458.94L240,576h336V240L458.912,357.088L325.693,223.87
	C396.311,173.579,482.7,144,576,144c238.586,0,432,193.413,432,432h144C1152,257.884,894.115,0,576,0z"/>
<path d="M576,1152c185.168,0,349.92-87.381,455.293-223.148L794.939,693.061L912,576H576v336l117.088-117.088L826.307,928.13
	C755.689,978.421,669.301,1008,576,1008c-238.586,0-432-193.413-432-432H0C0,894.116,257.885,1152,576,1152z"/>
</svg>
