<?xml version="1.0" encoding="utf-8"?>
<!-- Generator: Adobe Illustrator 16.0.0, SVG Export Plug-In . SVG Version: 6.00 Build 0)  -->
<!DOCTYPE svg PUBLIC "-//W3C//DTD SVG 1.1//EN" "http://www.w3.org/Graphics/SVG/1.1/DTD/svg11.dtd">
<svg version="1.1" id="Layer_1" xmlns="http://www.w3.org/2000/svg" xmlns:xlink="http://www.w3.org/1999/xlink" x="0px" y="0px"
	 width="1152px" height="1152px" viewBox="0 0 1152 1152" enable-background="new 0 0 1152 1152" xml:space="preserve">
<path d="M576,0C257.884,0,0,257.884,0,576s257.884,576,576,576s576-257.884,576-576S894.116,0,576,0z M576,960
	c-212.078,0-384-171.923-384-384c0-212.078,171.922-384,384-384c212.077,0,384,171.922,384,384C960,788.077,788.077,960,576,960z
	 M768,576c0,106.039-85.961,192-192,192s-192-85.961-192-192s85.961-192,192-192S768,469.961,768,576z"/>
</svg>
