<?xml version="1.0" encoding="utf-8"?>
<!-- Generator: Adobe Illustrator 16.0.4, SVG Export Plug-In . SVG Version: 6.00 Build 0)  -->
<!DOCTYPE svg PUBLIC "-//W3C//DTD SVG 1.1//EN" "http://www.w3.org/Graphics/SVG/1.1/DTD/svg11.dtd">
<svg version="1.1" id="Layer_1" xmlns="http://www.w3.org/2000/svg" xmlns:xlink="http://www.w3.org/1999/xlink" x="0px" y="0px"
	 width="1152px" height="1152px" viewBox="0 0 1152 1152" enable-background="new 0 0 1152 1152" xml:space="preserve">
<path opacity="0.65" d="M510.222,714.484c19.348-45.738,47.026-86.795,82.266-122.029c35.235-35.231,76.292-62.902,122.029-82.245
	c32.609-13.791,66.589-22.904,101.483-27.25V384l-96.617-72L576,576L384,432l-96,144v144h219.944
	C508.69,718.157,509.446,716.318,510.222,714.484z"/>
<path opacity="0.65" d="M510.222,1013.523C490.168,966.116,480,915.809,480,864c0-16.16,0.99-32.174,2.96-48H192V144h720v338.96
	c34.895,4.345,68.874,13.458,101.483,27.25c14.669,6.204,28.849,13.274,42.517,21.166V0H48v1056h483.368
	C523.485,1042.345,516.42,1028.178,510.222,1013.523z"/>
<path fill="#82AA46" d="M864,576c-159.028,0-288,128.912-288,288c0,159.107,128.972,288,288,288s288-128.893,288-288
	C1152,704.912,1023.028,576,864,576z M792,1020L660,888l60-60l72,72l204-204l60,60L792,1020z"/>
</svg>
