<?xml version="1.0" encoding="utf-8"?>
<!-- Generator: Adobe Illustrator 16.0.4, SVG Export Plug-In . SVG Version: 6.00 Build 0)  -->
<!DOCTYPE svg PUBLIC "-//W3C//DTD SVG 1.1//EN" "http://www.w3.org/Graphics/SVG/1.1/DTD/svg11.dtd">
<svg version="1.1" id="Layer_1" xmlns="http://www.w3.org/2000/svg" xmlns:xlink="http://www.w3.org/1999/xlink" x="0px" y="0px"
	 width="1152px" height="1152px" viewBox="0 0 1152 1152" enable-background="new 0 0 1152 1152" xml:space="preserve">
<rect x="144" y="144" opacity="0.2" fill="#3287D2" width="192" height="192"/>
<rect x="432" y="144" opacity="0.2" fill="#3287D2" width="192" height="192"/>
<rect x="720" y="144" opacity="0.2" fill="#3287D2" width="192" height="192"/>
<rect x="144" y="432" opacity="0.2" fill="#3287D2" width="192" height="192"/>
<rect x="432" y="432" opacity="0.2" fill="#3287D2" width="192" height="192"/>
<path fill="#3287D2" d="M1056,608.906V48c0-26.391-21.609-48-48-48H48C21.609,0,0,21.609,0,48v960c0,26.391,21.609,48,48,48h560.906
	C588,1012.312,576,963.562,576,912H144V720h492.656c27.188-38.812,62.344-71.484,103.078-95.953c0.047,0,0.047-0.047,0.094-0.047
	H720V432h192v144C963.562,576,1012.312,588,1056,608.906z M336,432v192H144V432H336z M624,432v192H432V432H624z M720,336V144h192
	v192H720z M432,336V144h192v192H432z M144,336V144h192v192H144z"/>
<path fill="#3287D2" d="M672,912c0,132.562,107.438,240,240,240s240-107.438,240-240s-107.438-240-240-240S672,779.438,672,912z
	 M960,768v96h96v96h-96v96h-96v-96h-96v-96h96v-96H960z"/>
<path opacity="0.2" fill="#3287D2" d="M720,624V432h192v144c-63,0-121.734,17.719-172.172,48H720z"/>
</svg>
