<?xml version="1.0" encoding="utf-8"?>
<!-- Generator: Adobe Illustrator 16.0.4, SVG Export Plug-In . SVG Version: 6.00 Build 0)  -->
<!DOCTYPE svg PUBLIC "-//W3C//DTD SVG 1.1//EN" "http://www.w3.org/Graphics/SVG/1.1/DTD/svg11.dtd">
<svg version="1.1" id="Layer_1" xmlns="http://www.w3.org/2000/svg" xmlns:xlink="http://www.w3.org/1999/xlink" x="0px" y="0px"
	 width="1152px" height="1152px" viewBox="0 0 1152 1152" enable-background="new 0 0 1152 1152" xml:space="preserve">
<g opacity="0.65">
	<path d="M510.222,1013.523C490.168,966.116,480,915.809,480,864c0-1.143,0.011-2.284,0.021-3.425
		C317.184,837.29,192,697.275,192,528c0-185.568,150.432-336,336-336c169.275,0,309.29,125.184,332.575,288.021
		c1.141-0.01,2.282-0.021,3.425-0.021c51.79,0,102.084,10.164,149.483,30.21c14.661,6.2,28.834,13.267,42.495,21.153
		c0.007-1.121,0.021-2.241,0.021-3.363C1056,236.394,819.606,0,528,0S0,236.394,0,528s236.394,528,528,528
		c1.12,0,2.237-0.015,3.356-0.021C523.477,1042.33,516.417,1028.17,510.222,1013.523z"/>
	<path d="M528,384c-79.529,0-144,64.471-144,144s64.471,144,144,144c1.136,0,2.269-0.017,3.399-0.043
		c16.718-28.946,37.154-55.57,61.088-79.502c23.923-23.92,50.536-44.344,79.47-61.054c0.026-1.131,0.043-2.264,0.043-3.401
		C672,448.471,607.529,384,528,384z"/>
</g>
<path fill="#82AA46" d="M864,576c-159.028,0-288,128.912-288,288c0,159.107,128.972,288,288,288s288-128.893,288-288
	C1152,704.912,1023.028,576,864,576z M792,1020L660,888l60-60l72,72l204-204l60,60L792,1020z"/>
</svg>
