<?xml version="1.0" encoding="utf-8"?>
<!-- Generator: Adobe Illustrator 16.0.4, SVG Export Plug-In . SVG Version: 6.00 Build 0)  -->
<!DOCTYPE svg PUBLIC "-//W3C//DTD SVG 1.1//EN" "http://www.w3.org/Graphics/SVG/1.1/DTD/svg11.dtd">
<svg version="1.1" id="Layer_1" xmlns="http://www.w3.org/2000/svg" xmlns:xlink="http://www.w3.org/1999/xlink" x="0px" y="0px"
	 width="1152px" height="1152px" viewBox="0 0 1152 1152" enable-background="new 0 0 1152 1152" xml:space="preserve">
<path fill="#6996BE" d="M315.56,516.406c-111.846,0-176.293,16.514-199.056,23.692L0,930.766c0,0,66.656-18.016,208.9-18.016
	c142.245,0,213.367,72.062,213.367,72.062l98.111-403.662C498.576,563.228,430.863,516.406,315.56,516.406z"/>
<path fill="#F0B428" d="M698.466,1104.875c109.267,0,172.228-16.562,194.466-23.692l115.817-378.667
	c0,0-65.166,18.016-204.083,18.016c-138.965,0-208.446-72.062-208.446-72.062l-97.896,391.662
	C519.67,1058.053,585.821,1104.875,698.466,1104.875z"/>
<path fill="#EB413C" d="M453.534,48c-109.267,0-172.228,16.514-194.466,23.692L152.251,449.359c0,0,65.166-18.016,204.083-18.016
	c138.964,0,208.447,72.062,208.447,72.062l88.896-390.663C632.33,94.775,566.179,48,453.534,48z"/>
<path fill="#82AA46" d="M836.439,636.469c111.847,0,176.293-16.561,199.057-23.692L1152,222.109c0,0-66.656,18.016-208.9,18.016
	c-142.245,0-213.318-72.062-213.318-72.062l-98.16,403.663C653.424,589.646,721.137,636.469,836.439,636.469z"/>
</svg>
